{
  "header": {
    "PPQ": 120,
    "timeSignature": [
      4,
      4
    ],
    "bpm": 104.99992125005906,
    "name": ""
  },
  "tempo": [
    {
      "absoluteTime": 0,
      "seconds": 0,
      "bpm": 104.99992125005906
    },
    {
      "absoluteTime": 48480,
      "seconds": 230.857316000006,
      "bpm": 104.99992125005906
    },
    {
      "absoluteTime": 48600,
      "seconds": 231.42874500000605,
      "bpm": 103.0000480666891
    },
    {
      "absoluteTime": 48720,
      "seconds": 232.00017400000607,
      "bpm": 100
    },
    {
      "absoluteTime": 48840,
      "seconds": 232.5716030000061,
      "bpm": 96
    }
  ],
  "timeSignature": [
    {
      "absoluteTime": 0,
      "seconds": 0,
      "numerator": 4,
      "denominator": 2,
      "click": 24,
      "notesQ": 8
    }
  ],
  "startTime": 2.285716,
  "duration": 235.55731952500622,
  "tracks": [
    {
      "startTime": 2.285716,
      "duration": 235.55731952500622,
      "length": 5531,
      "notes": [
        {
          "name": "G1",
          "midi": 31,
          "time": 2.285716,
          "velocity": 0.7874015748031497,
          "duration": 0.6047623583333337
        },
        {
          "name": "G2",
          "midi": 43,
          "time": 2.285716,
          "velocity": 0.6299212598425197,
          "duration": 0.11904770833333345
        },
        {
          "name": "D3",
          "midi": 50,
          "time": 2.285716,
          "velocity": 0.8346456692913385,
          "duration": 0.11904770833333345
        },
        {
          "name": "G3",
          "midi": 55,
          "time": 2.285716,
          "velocity": 0.8582677165354331,
          "duration": 0.11904770833333345
        },
        {
          "name": "B3",
          "midi": 59,
          "time": 2.285716,
          "velocity": 0.7007874015748031,
          "duration": 0.11904770833333345
        },
        {
          "name": "D4",
          "midi": 62,
          "time": 2.285716,
          "velocity": 0.4251968503937008,
          "duration": 0.11904770833333345
        },
        {
          "name": "D2",
          "midi": 38,
          "time": 2.285716,
          "velocity": 0.5039370078740157,
          "duration": 0.11904770833333345
        },
        {
          "name": "G4",
          "midi": 67,
          "time": 2.285716,
          "velocity": 0.9133858267716536,
          "duration": 1.961906233333333
        },
        {
          "name": "B4",
          "midi": 71,
          "time": 2.285716,
          "velocity": 0.9133858267716536,
          "duration": 1.9523824166666666
        },
        {
          "name": "D4",
          "midi": 62,
          "time": 2.285716,
          "velocity": 0.8582677165354331,
          "duration": 0.5476194583333336
        },
        {
          "name": "C2",
          "midi": 36,
          "time": 2.285716,
          "velocity": 0.84251968503937,
          "duration": 0.5714290000000002
        },
        {
          "name": "F#2",
          "midi": 42,
          "time": 2.285716,
          "velocity": 0.6771653543307087,
          "duration": 0.047619083333333645
        },
        {
          "name": "A3",
          "midi": 57,
          "time": 2.285716,
          "velocity": 0.6299212598425197,
          "duration": 1.2142866250000002
        },
        {
          "name": "F#2",
          "midi": 42,
          "time": 2.5714305,
          "velocity": 0.6771653543307087,
          "duration": 0.0476190833333332
        },
        {
          "name": "D4",
          "midi": 62,
          "time": 2.71428775,
          "velocity": 0.6692913385826772,
          "duration": 1.557144024999999
        },
        {
          "name": "B3",
          "midi": 59,
          "time": 2.71428775,
          "velocity": 0.6377952755905512,
          "duration": 0.11904770833333345
        },
        {
          "name": "D2",
          "midi": 38,
          "time": 2.857145,
          "velocity": 0.7716535433070866,
          "duration": 0.047619083333333645
        },
        {
          "name": "F#2",
          "midi": 42,
          "time": 2.857145,
          "velocity": 0.6771653543307087,
          "duration": 0.07142862500000025
        },
        {
          "name": "G1",
          "midi": 31,
          "time": 3.1428595,
          "velocity": 0.7874015748031497,
          "duration": 0.0476190833333332
        },
        {
          "name": "D3",
          "midi": 50,
          "time": 3.1428595,
          "velocity": 0.6456692913385826,
          "duration": 0.119047708333333
        },
        {
          "name": "B3",
          "midi": 59,
          "time": 3.1428595,
          "velocity": 0.8818897637795275,
          "duration": 0.119047708333333
        },
        {
          "name": "G3",
          "midi": 55,
          "time": 3.1428595,
          "velocity": 0.7244094488188977,
          "duration": 0.119047708333333
        },
        {
          "name": "C2",
          "midi": 36,
          "time": 3.1428595,
          "velocity": 0.84251968503937,
          "duration": 0.05714289999999966
        },
        {
          "name": "D2",
          "midi": 38,
          "time": 3.1428595,
          "velocity": 0.7716535433070866,
          "duration": 0.05714289999999966
        },
        {
          "name": "F#2",
          "midi": 42,
          "time": 3.1428595,
          "velocity": 0.6771653543307087,
          "duration": 0.05714289999999966
        },
        {
          "name": "G1",
          "midi": 31,
          "time": 3.428574,
          "velocity": 0.7874015748031497,
          "duration": 0.05714290000000011
        },
        {
          "name": "C2",
          "midi": 36,
          "time": 3.428574,
          "velocity": 0.84251968503937,
          "duration": 0.07142862500000025
        },
        {
          "name": "F#2",
          "midi": 42,
          "time": 3.428574,
          "velocity": 0.6771653543307087,
          "duration": 0.05714290000000011
        },
        {
          "name": "G1",
          "midi": 31,
          "time": 3.7142885,
          "velocity": 0.7874015748031497,
          "duration": 0.2714287749999995
        },
        {
          "name": "G2",
          "midi": 43,
          "time": 3.7142885,
          "velocity": 0.6456692913385826,
          "duration": 0.119047708333333
        },
        {
          "name": "D3",
          "midi": 50,
          "time": 3.7142885,
          "velocity": 0.7637795275590551,
          "duration": 0.119047708333333
        },
        {
          "name": "G3",
          "midi": 55,
          "time": 3.7142885,
          "velocity": 0.7401574803149606,
          "duration": 0.119047708333333
        },
        {
          "name": "B3",
          "midi": 59,
          "time": 3.7142885,
          "velocity": 0.7559055118110236,
          "duration": 0.119047708333333
        },
        {
          "name": "C2",
          "midi": 36,
          "time": 3.7142885,
          "velocity": 0.84251968503937,
          "duration": 0.28571449999999965
        },
        {
          "name": "F#2",
          "midi": 42,
          "time": 3.7142885,
          "velocity": 0.6771653543307087,
          "duration": 0.0476190833333332
        },
        {
          "name": "B1",
          "midi": 35,
          "time": 4.0000029999999995,
          "velocity": 0.7874015748031497,
          "duration": 0.26190495833333305
        },
        {
          "name": "D3",
          "midi": 50,
          "time": 4.0000029999999995,
          "velocity": 0.5905511811023622,
          "duration": 0.11904770833333345
        },
        {
          "name": "G3",
          "midi": 55,
          "time": 4.0000029999999995,
          "velocity": 0.8582677165354331,
          "duration": 0.11904770833333345
        },
        {
          "name": "B3",
          "midi": 59,
          "time": 4.0000029999999995,
          "velocity": 0.9133858267716536,
          "duration": 0.11904770833333345
        },
        {
          "name": "D2",
          "midi": 38,
          "time": 4.0000029999999995,
          "velocity": 0.7716535433070866,
          "duration": 0.07142862500000025
        },
        {
          "name": "F#2",
          "midi": 42,
          "time": 4.0000029999999995,
          "velocity": 0.6771653543307087,
          "duration": 0.0476190833333332
        },
        {
          "name": "D2",
          "midi": 38,
          "time": 4.285717499999999,
          "velocity": 0.7874015748031497,
          "duration": 0.2714287750000004
        },
        {
          "name": "G3",
          "midi": 55,
          "time": 4.285717499999999,
          "velocity": 0.8110236220472441,
          "duration": 0.11904770833333345
        },
        {
          "name": "B3",
          "midi": 59,
          "time": 4.285717499999999,
          "velocity": 0.9212598425196851,
          "duration": 0.11904770833333345
        },
        {
          "name": "D4",
          "midi": 62,
          "time": 4.285717499999999,
          "velocity": 0.84251968503937,
          "duration": 0.11904770833333345
        },
        {
          "name": "C2",
          "midi": 36,
          "time": 4.285717499999999,
          "velocity": 0.84251968503937,
          "duration": 0.07142862500000025
        },
        {
          "name": "F#2",
          "midi": 42,
          "time": 4.285717499999999,
          "velocity": 0.6771653543307087,
          "duration": 0.0476190833333332
        },
        {
          "name": "E2",
          "midi": 40,
          "time": 4.571431999999999,
          "velocity": 0.7874015748031497,
          "duration": 0.6428576250000004
        },
        {
          "name": "E3",
          "midi": 52,
          "time": 4.571431999999999,
          "velocity": 0.7401574803149606,
          "duration": 0.11904770833333345
        },
        {
          "name": "B2",
          "midi": 47,
          "time": 4.571431999999999,
          "velocity": 0.7086614173228346,
          "duration": 0.11904770833333345
        },
        {
          "name": "G3",
          "midi": 55,
          "time": 4.571431999999999,
          "velocity": 0.7952755905511811,
          "duration": 0.11904770833333345
        },
        {
          "name": "B3",
          "midi": 59,
          "time": 4.571431999999999,
          "velocity": 0.8031496062992126,
          "duration": 0.11904770833333345
        },
        {
          "name": "E4",
          "midi": 64,
          "time": 4.571431999999999,
          "velocity": 0.7795275590551181,
          "duration": 0.11904770833333345
        },
        {
          "name": "B4",
          "midi": 71,
          "time": 4.571431999999999,
          "velocity": 0.7244094488188977,
          "duration": 1.3666676916666658
        },
        {
          "name": "E4",
          "midi": 64,
          "time": 4.571431999999999,
          "velocity": 0.7716535433070866,
          "duration": 0.5476194583333331
        },
        {
          "name": "G4",
          "midi": 67,
          "time": 4.571431999999999,
          "velocity": 0.7559055118110236,
          "duration": 1.3904772333333328
        },
        {
          "name": "C2",
          "midi": 36,
          "time": 4.571431999999999,
          "velocity": 0.84251968503937,
          "duration": 0.5714290000000002
        },
        {
          "name": "F#2",
          "midi": 42,
          "time": 4.571431999999999,
          "velocity": 0.6771653543307087,
          "duration": 0.0476190833333332
        },
        {
          "name": "F#2",
          "midi": 42,
          "time": 4.857146499999999,
          "velocity": 0.6771653543307087,
          "duration": 0.0476190833333332
        },
        {
          "name": "E4",
          "midi": 64,
          "time": 5.0000037499999985,
          "velocity": 0.7952755905511811,
          "duration": 0.26190495833333394
        },
        {
          "name": "B3",
          "midi": 59,
          "time": 5.0000037499999985,
          "velocity": 0.7086614173228346,
          "duration": 0.11904770833333345
        },
        {
          "name": "G3",
          "midi": 55,
          "time": 5.0000037499999985,
          "velocity": 0.5905511811023622,
          "duration": 0.11904770833333345
        },
        {
          "name": "E2",
          "midi": 40,
          "time": 5.142860999999999,
          "velocity": 0.6299212598425197,
          "duration": 0.11904770833333345
        },
        {
          "name": "B2",
          "midi": 47,
          "time": 5.142860999999999,
          "velocity": 0.7086614173228346,
          "duration": 0.11904770833333345
        },
        {
          "name": "E3",
          "midi": 52,
          "time": 5.142860999999999,
          "velocity": 0.8661417322834646,
          "duration": 0.11904770833333345
        },
        {
          "name": "G3",
          "midi": 55,
          "time": 5.142860999999999,
          "velocity": 0.8740157480314961,
          "duration": 0.11904770833333345
        },
        {
          "name": "B3",
          "midi": 59,
          "time": 5.142860999999999,
          "velocity": 0.8661417322834646,
          "duration": 0.11904770833333345
        },
        {
          "name": "E4",
          "midi": 64,
          "time": 5.142860999999999,
          "velocity": 0.7874015748031497,
          "duration": 0.40476220833333265
        },
        {
          "name": "D2",
          "midi": 38,
          "time": 5.142860999999999,
          "velocity": 0.7716535433070866,
          "duration": 0.0476190833333332
        },
        {
          "name": "F#2",
          "midi": 42,
          "time": 5.142860999999999,
          "velocity": 0.6771653543307087,
          "duration": 0.07142862500000025
        },
        {
          "name": "B1",
          "midi": 35,
          "time": 5.428575499999999,
          "velocity": 0.7874015748031497,
          "duration": 0.0476190833333332
        },
        {
          "name": "G3",
          "midi": 55,
          "time": 5.428575499999999,
          "velocity": 0.9291338582677166,
          "duration": 0.11904770833333256
        },
        {
          "name": "B3",
          "midi": 59,
          "time": 5.428575499999999,
          "velocity": 0.9606299212598425,
          "duration": 0.11904770833333256
        },
        {
          "name": "E4",
          "midi": 64,
          "time": 5.428575499999999,
          "velocity": 0.8818897637795275,
          "duration": 0.5095241916666655
        },
        {
          "name": "C2",
          "midi": 36,
          "time": 5.428575499999999,
          "velocity": 0.84251968503937,
          "duration": 0.05714289999999966
        },
        {
          "name": "D2",
          "midi": 38,
          "time": 5.428575499999999,
          "velocity": 0.7716535433070866,
          "duration": 0.05714289999999966
        },
        {
          "name": "F#2",
          "midi": 42,
          "time": 5.428575499999999,
          "velocity": 0.6771653543307087,
          "duration": 0.05714289999999966
        },
        {
          "name": "E2",
          "midi": 40,
          "time": 5.714289999999998,
          "velocity": 0.7874015748031497,
          "duration": 0.05714289999999966
        },
        {
          "name": "C2",
          "midi": 36,
          "time": 5.714289999999998,
          "velocity": 0.84251968503937,
          "duration": 0.07142862499999936
        },
        {
          "name": "F#2",
          "midi": 42,
          "time": 5.714289999999998,
          "velocity": 0.6771653543307087,
          "duration": 0.05714289999999966
        },
        {
          "name": "E2",
          "midi": 40,
          "time": 6.000004499999998,
          "velocity": 0.7874015748031497,
          "duration": 0.11904770833333345
        },
        {
          "name": "E2",
          "midi": 40,
          "time": 6.000004499999998,
          "velocity": 0.8110236220472441,
          "duration": 0.523809916666667
        },
        {
          "name": "B2",
          "midi": 47,
          "time": 6.000004499999998,
          "velocity": 0.8740157480314961,
          "duration": 0.11904770833333345
        },
        {
          "name": "E3",
          "midi": 52,
          "time": 6.000004499999998,
          "velocity": 0.7244094488188977,
          "duration": 0.11904770833333345
        },
        {
          "name": "C2",
          "midi": 36,
          "time": 6.000004499999998,
          "velocity": 0.84251968503937,
          "duration": 0.2857145000000001
        },
        {
          "name": "F#2",
          "midi": 42,
          "time": 6.000004499999998,
          "velocity": 0.6771653543307087,
          "duration": 0.0476190833333332
        },
        {
          "name": "E3",
          "midi": 52,
          "time": 6.2857189999999985,
          "velocity": 0.8346456692913385,
          "duration": 0.11904770833333345
        },
        {
          "name": "G3",
          "midi": 55,
          "time": 6.2857189999999985,
          "velocity": 0.8818897637795275,
          "duration": 0.11904770833333345
        },
        {
          "name": "B3",
          "midi": 59,
          "time": 6.2857189999999985,
          "velocity": 0.9291338582677166,
          "duration": 0.11904770833333345
        },
        {
          "name": "E4",
          "midi": 64,
          "time": 6.2857189999999985,
          "velocity": 0.9291338582677166,
          "duration": 0.11904770833333345
        },
        {
          "name": "B4",
          "midi": 71,
          "time": 6.2857189999999985,
          "velocity": 0.7401574803149606,
          "duration": 0.5095241916666664
        },
        {
          "name": "E4",
          "midi": 64,
          "time": 6.2857189999999985,
          "velocity": 0.7874015748031497,
          "duration": 0.40476220833333354
        },
        {
          "name": "G4",
          "midi": 67,
          "time": 6.2857189999999985,
          "velocity": 0.7086614173228346,
          "duration": 0.5095241916666664
        },
        {
          "name": "D2",
          "midi": 38,
          "time": 6.2857189999999985,
          "velocity": 0.7716535433070866,
          "duration": 0.07142862500000025
        },
        {
          "name": "F#2",
          "midi": 42,
          "time": 6.2857189999999985,
          "velocity": 0.6771653543307087,
          "duration": 0.0476190833333332
        },
        {
          "name": "B1",
          "midi": 35,
          "time": 6.571433499999999,
          "velocity": 0.7874015748031497,
          "duration": 0.26190495833333305
        },
        {
          "name": "D#2",
          "midi": 39,
          "time": 6.571433499999999,
          "velocity": 0.3700787401574803,
          "duration": 0.11904770833333345
        },
        {
          "name": "B3",
          "midi": 59,
          "time": 6.571433499999999,
          "velocity": 0.7007874015748031,
          "duration": 0.11904770833333345
        },
        {
          "name": "E4",
          "midi": 64,
          "time": 6.571433499999999,
          "velocity": 0.5826771653543307,
          "duration": 0.21428587499999985
        },
        {
          "name": "C2",
          "midi": 36,
          "time": 6.571433499999999,
          "velocity": 0.84251968503937,
          "duration": 0.07142862500000025
        },
        {
          "name": "F#2",
          "midi": 42,
          "time": 6.571433499999999,
          "velocity": 0.6771653543307087,
          "duration": 0.0476190833333332
        },
        {
          "name": "C2",
          "midi": 36,
          "time": 6.857147999999998,
          "velocity": 0.7874015748031497,
          "duration": 0.5714290000000011
        },
        {
          "name": "C3",
          "midi": 48,
          "time": 6.857147999999998,
          "velocity": 0.6614173228346457,
          "duration": 0.11904770833333345
        },
        {
          "name": "G3",
          "midi": 55,
          "time": 6.857147999999998,
          "velocity": 0.905511811023622,
          "duration": 0.11904770833333345
        },
        {
          "name": "C4",
          "midi": 60,
          "time": 6.857147999999998,
          "velocity": 0.9133858267716536,
          "duration": 0.11904770833333345
        },
        {
          "name": "E4",
          "midi": 64,
          "time": 6.857147999999998,
          "velocity": 0.8582677165354331,
          "duration": 0.11904770833333345
        },
        {
          "name": "E4",
          "midi": 64,
          "time": 6.857147999999998,
          "velocity": 0.8110236220472441,
          "duration": 0.40476220833333354
        },
        {
          "name": "G4",
          "midi": 67,
          "time": 6.857147999999998,
          "velocity": 0.7007874015748031,
          "duration": 2.1428587500000065
        },
        {
          "name": "C4",
          "midi": 60,
          "time": 6.857147999999998,
          "velocity": 0.6850393700787402,
          "duration": 0.40476220833333354
        },
        {
          "name": "C2",
          "midi": 36,
          "time": 6.857147999999998,
          "velocity": 0.84251968503937,
          "duration": 0.8809530416666682
        },
        {
          "name": "F#2",
          "midi": 42,
          "time": 6.857147999999998,
          "velocity": 0.6771653543307087,
          "duration": 0.0476190833333332
        },
        {
          "name": "C4",
          "midi": 60,
          "time": 7.142862499999998,
          "velocity": 0.6299212598425197,
          "duration": 0.40476220833333443
        },
        {
          "name": "E4",
          "midi": 64,
          "time": 7.142862499999998,
          "velocity": 0.6456692913385826,
          "duration": 0.26190495833333394
        },
        {
          "name": "F#2",
          "midi": 42,
          "time": 7.142862499999998,
          "velocity": 0.6771653543307087,
          "duration": 0.0476190833333332
        },
        {
          "name": "E4",
          "midi": 64,
          "time": 7.285719749999998,
          "velocity": 0.8582677165354331,
          "duration": 0.26190495833333394
        },
        {
          "name": "G3",
          "midi": 55,
          "time": 7.428576999999999,
          "velocity": 0.6299212598425197,
          "duration": 0.11904770833333345
        },
        {
          "name": "C4",
          "midi": 60,
          "time": 7.428576999999999,
          "velocity": 0.8267716535433071,
          "duration": 0.40476220833333354
        },
        {
          "name": "E4",
          "midi": 64,
          "time": 7.428576999999999,
          "velocity": 0.8110236220472441,
          "duration": 1.2619057083333374
        },
        {
          "name": "D2",
          "midi": 38,
          "time": 7.428576999999999,
          "velocity": 0.7716535433070866,
          "duration": 0.0476190833333332
        },
        {
          "name": "F#2",
          "midi": 42,
          "time": 7.428576999999999,
          "velocity": 0.6771653543307087,
          "duration": 0.07142862500000025
        },
        {
          "name": "G1",
          "midi": 31,
          "time": 7.714291499999999,
          "velocity": 0.7874015748031497,
          "duration": 0.07142862500000025
        },
        {
          "name": "C3",
          "midi": 48,
          "time": 7.714291499999999,
          "velocity": 0.7165354330708661,
          "duration": 0.11904770833333345
        },
        {
          "name": "G3",
          "midi": 55,
          "time": 7.714291499999999,
          "velocity": 0.8582677165354331,
          "duration": 0.11904770833333345
        },
        {
          "name": "C4",
          "midi": 60,
          "time": 7.714291499999999,
          "velocity": 0.8740157480314961,
          "duration": 0.9761912083333373
        },
        {
          "name": "C2",
          "midi": 36,
          "time": 7.714291499999999,
          "velocity": 0.84251968503937,
          "duration": 0.05714290000000055
        },
        {
          "name": "D2",
          "midi": 38,
          "time": 7.714291499999999,
          "velocity": 0.7716535433070866,
          "duration": 0.05714290000000055
        },
        {
          "name": "F#2",
          "midi": 42,
          "time": 7.714291499999999,
          "velocity": 0.6771653543307087,
          "duration": 0.05714290000000055
        },
        {
          "name": "C2",
          "midi": 36,
          "time": 8.000005999999999,
          "velocity": 0.7874015748031497,
          "duration": 0.04761908333333409
        },
        {
          "name": "C2",
          "midi": 36,
          "time": 8.000005999999999,
          "velocity": 0.84251968503937,
          "duration": 0.07142862500000113
        },
        {
          "name": "F#2",
          "midi": 42,
          "time": 8.000005999999999,
          "velocity": 0.6771653543307087,
          "duration": 0.05714290000000055
        },
        {
          "name": "C2",
          "midi": 36,
          "time": 8.2857205,
          "velocity": 0.7874015748031497,
          "duration": 0.2714287750000004
        },
        {
          "name": "C3",
          "midi": 48,
          "time": 8.2857205,
          "velocity": 0.6692913385826772,
          "duration": 0.11904770833333345
        },
        {
          "name": "G3",
          "midi": 55,
          "time": 8.2857205,
          "velocity": 0.7559055118110236,
          "duration": 0.11904770833333345
        },
        {
          "name": "C2",
          "midi": 36,
          "time": 8.2857205,
          "velocity": 0.84251968503937,
          "duration": 0.285714500000001
        },
        {
          "name": "F#2",
          "midi": 42,
          "time": 8.2857205,
          "velocity": 0.6771653543307087,
          "duration": 0.04761908333333409
        },
        {
          "name": "G1",
          "midi": 31,
          "time": 8.571435000000001,
          "velocity": 0.7874015748031497,
          "duration": 0.24761923333333513
        },
        {
          "name": "E4",
          "midi": 64,
          "time": 8.571435000000001,
          "velocity": 0.7322834645669292,
          "duration": 0.41428602500000267
        },
        {
          "name": "G3",
          "midi": 55,
          "time": 8.571435000000001,
          "velocity": 0.7795275590551181,
          "duration": 0.11904770833333522
        },
        {
          "name": "C4",
          "midi": 60,
          "time": 8.571435000000001,
          "velocity": 0.8346456692913385,
          "duration": 0.3904764833333356
        },
        {
          "name": "D2",
          "midi": 38,
          "time": 8.571435000000001,
          "velocity": 0.7716535433070866,
          "duration": 0.07142862500000113
        },
        {
          "name": "F#2",
          "midi": 42,
          "time": 8.571435000000001,
          "velocity": 0.6771653543307087,
          "duration": 0.04761908333333409
        },
        {
          "name": "C2",
          "midi": 36,
          "time": 8.857149500000002,
          "velocity": 0.7874015748031497,
          "duration": 0.07142862500000113
        },
        {
          "name": "C2",
          "midi": 36,
          "time": 8.857149500000002,
          "velocity": 0.84251968503937,
          "duration": 0.24761923333333513
        },
        {
          "name": "F#2",
          "midi": 42,
          "time": 8.857149500000002,
          "velocity": 0.6771653543307087,
          "duration": 0.04761908333333409
        },
        {
          "name": "D2",
          "midi": 38,
          "time": 9.142864000000003,
          "velocity": 0.7874015748031497,
          "duration": 0.11904770833333345
        },
        {
          "name": "A2",
          "midi": 45,
          "time": 9.142864000000003,
          "velocity": 0.5511811023622047,
          "duration": 0.11904770833333345
        },
        {
          "name": "D2",
          "midi": 38,
          "time": 9.142864000000003,
          "velocity": 0.6062992125984252,
          "duration": 0.619048083333336
        },
        {
          "name": "F#3",
          "midi": 54,
          "time": 9.142864000000003,
          "velocity": 0.984251968503937,
          "duration": 0.11904770833333345
        },
        {
          "name": "A3",
          "midi": 57,
          "time": 9.142864000000003,
          "velocity": 0.8818897637795275,
          "duration": 0.11904770833333345
        },
        {
          "name": "D4",
          "midi": 62,
          "time": 9.142864000000003,
          "velocity": 0.5590551181102362,
          "duration": 0.11904770833333345
        },
        {
          "name": "F#4",
          "midi": 66,
          "time": 9.142864000000003,
          "velocity": 0.7559055118110236,
          "duration": 1.9857157750000098
        },
        {
          "name": "A4",
          "midi": 69,
          "time": 9.142864000000003,
          "velocity": 0.7637795275590551,
          "duration": 2.009525316666677
        },
        {
          "name": "D4",
          "midi": 62,
          "time": 9.142864000000003,
          "velocity": 0.6850393700787402,
          "duration": 0.40476220833333443
        },
        {
          "name": "C2",
          "midi": 36,
          "time": 9.142864000000003,
          "velocity": 0.84251968503937,
          "duration": 0.571429000000002
        },
        {
          "name": "F#2",
          "midi": 42,
          "time": 9.142864000000003,
          "velocity": 0.6771653543307087,
          "duration": 0.04761908333333409
        },
        {
          "name": "A3",
          "midi": 57,
          "time": 9.428578500000004,
          "velocity": 0.6771653543307087,
          "duration": 0.11904770833333345
        },
        {
          "name": "D4",
          "midi": 62,
          "time": 9.428578500000004,
          "velocity": 0.7086614173228346,
          "duration": 0.26190495833333394
        },
        {
          "name": "F#2",
          "midi": 42,
          "time": 9.428578500000004,
          "velocity": 0.6771653543307087,
          "duration": 0.04761908333333409
        },
        {
          "name": "D4",
          "midi": 62,
          "time": 9.571435750000004,
          "velocity": 0.6299212598425197,
          "duration": 0.5476194583333367
        },
        {
          "name": "D3",
          "midi": 50,
          "time": 9.714293000000005,
          "velocity": 0.5511811023622047,
          "duration": 0.11904770833333345
        },
        {
          "name": "D2",
          "midi": 38,
          "time": 9.714293000000005,
          "velocity": 0.7716535433070866,
          "duration": 0.0809524416666676
        },
        {
          "name": "F#2",
          "midi": 42,
          "time": 9.714293000000005,
          "velocity": 0.6771653543307087,
          "duration": 0.07142862500000113
        },
        {
          "name": "A1",
          "midi": 33,
          "time": 10.000007500000006,
          "velocity": 0.7874015748031497,
          "duration": 0.07142862500000113
        },
        {
          "name": "A3",
          "midi": 57,
          "time": 10.000007500000006,
          "velocity": 0.937007874015748,
          "duration": 0.05238099166666643
        },
        {
          "name": "D3",
          "midi": 50,
          "time": 10.000007500000006,
          "velocity": 0.9291338582677166,
          "duration": 0.11904770833333522
        },
        {
          "name": "D4",
          "midi": 62,
          "time": 10.000007500000006,
          "velocity": 1,
          "duration": 0.9761912083333399
        },
        {
          "name": "C2",
          "midi": 36,
          "time": 10.000007500000006,
          "velocity": 0.84251968503937,
          "duration": 0.05714290000000055
        },
        {
          "name": "D2",
          "midi": 38,
          "time": 10.000007500000006,
          "velocity": 0.7716535433070866,
          "duration": 0.05714290000000055
        },
        {
          "name": "F#2",
          "midi": 42,
          "time": 10.000007500000006,
          "velocity": 0.6771653543307087,
          "duration": 0.05714290000000055
        },
        {
          "name": "D2",
          "midi": 38,
          "time": 10.285722000000009,
          "velocity": 0.7874015748031497,
          "duration": 0.05714290000000055
        },
        {
          "name": "C2",
          "midi": 36,
          "time": 10.285722000000009,
          "velocity": 0.84251968503937,
          "duration": 0.07142862500000113
        },
        {
          "name": "F#2",
          "midi": 42,
          "time": 10.285722000000009,
          "velocity": 0.6771653543307087,
          "duration": 0.05714290000000055
        },
        {
          "name": "D2",
          "midi": 38,
          "time": 10.57143650000001,
          "velocity": 0.7874015748031497,
          "duration": 0.285714500000001
        },
        {
          "name": "D3",
          "midi": 50,
          "time": 10.57143650000001,
          "velocity": 0.6929133858267716,
          "duration": 0.11904770833333345
        },
        {
          "name": "C2",
          "midi": 36,
          "time": 10.57143650000001,
          "velocity": 0.84251968503937,
          "duration": 0.285714500000001
        },
        {
          "name": "F#2",
          "midi": 42,
          "time": 10.57143650000001,
          "velocity": 0.6771653543307087,
          "duration": 0.04761908333333409
        },
        {
          "name": "E2",
          "midi": 40,
          "time": 10.85715100000001,
          "velocity": 0.7874015748031497,
          "duration": 0.28571450000000276
        },
        {
          "name": "D4",
          "midi": 62,
          "time": 10.85715100000001,
          "velocity": 0.7007874015748031,
          "duration": 0.2619049583333357
        },
        {
          "name": "D2",
          "midi": 38,
          "time": 10.85715100000001,
          "velocity": 0.7716535433070866,
          "duration": 0.07142862500000113
        },
        {
          "name": "F#2",
          "midi": 42,
          "time": 10.85715100000001,
          "velocity": 0.6771653543307087,
          "duration": 0.04761908333333409
        },
        {
          "name": "D2",
          "midi": 38,
          "time": 11.142865500000013,
          "velocity": 0.7874015748031497,
          "duration": 0.2714287750000004
        },
        {
          "name": "D4",
          "midi": 62,
          "time": 11.142865500000013,
          "velocity": 0.48031496062992124,
          "duration": 0.11904770833333345
        },
        {
          "name": "C2",
          "midi": 36,
          "time": 11.142865500000013,
          "velocity": 0.84251968503937,
          "duration": 0.07142862499999936
        },
        {
          "name": "F#2",
          "midi": 42,
          "time": 11.142865500000013,
          "velocity": 0.6771653543307087,
          "duration": 0.04761908333333231
        },
        {
          "name": "G1",
          "midi": 31,
          "time": 11.428580000000014,
          "velocity": 0.7874015748031497,
          "duration": 0.619048083333336
        },
        {
          "name": "G2",
          "midi": 43,
          "time": 11.428580000000014,
          "velocity": 0.6299212598425197,
          "duration": 0.11904770833333345
        },
        {
          "name": "D3",
          "midi": 50,
          "time": 11.428580000000014,
          "velocity": 0.8346456692913385,
          "duration": 0.11904770833333345
        },
        {
          "name": "G3",
          "midi": 55,
          "time": 11.428580000000014,
          "velocity": 0.8582677165354331,
          "duration": 0.11904770833333345
        },
        {
          "name": "B3",
          "midi": 59,
          "time": 11.428580000000014,
          "velocity": 0.7007874015748031,
          "duration": 0.11904770833333345
        },
        {
          "name": "D4",
          "midi": 62,
          "time": 11.428580000000014,
          "velocity": 0.4251968503937008,
          "duration": 0.11904770833333345
        },
        {
          "name": "D2",
          "midi": 38,
          "time": 11.428580000000014,
          "velocity": 0.5039370078740157,
          "duration": 0.11904770833333345
        },
        {
          "name": "G4",
          "midi": 67,
          "time": 11.428580000000014,
          "velocity": 0.7401574803149606,
          "duration": 1.809525166666674
        },
        {
          "name": "D4",
          "midi": 62,
          "time": 11.428580000000014,
          "velocity": 0.6771653543307087,
          "duration": 0.5476194583333349
        },
        {
          "name": "B4",
          "midi": 71,
          "time": 11.428580000000014,
          "velocity": 0.6377952755905512,
          "duration": 1.8428585250000076
        },
        {
          "name": "B3",
          "midi": 59,
          "time": 11.428580000000014,
          "velocity": 0.6062992125984252,
          "duration": 0.5476194583333349
        },
        {
          "name": "D4",
          "midi": 62,
          "time": 11.428580000000014,
          "velocity": 0.6299212598425197,
          "duration": 1.8809537916666734
        },
        {
          "name": "G3",
          "midi": 55,
          "time": 11.428580000000014,
          "velocity": 0.5748031496062992,
          "duration": 0.9761912083333364
        },
        {
          "name": "C2",
          "midi": 36,
          "time": 11.428580000000014,
          "velocity": 0.84251968503937,
          "duration": 0.571429000000002
        },
        {
          "name": "F#2",
          "midi": 42,
          "time": 11.428580000000014,
          "velocity": 0.6771653543307087,
          "duration": 0.04761908333333409
        },
        {
          "name": "A3",
          "midi": 57,
          "time": 11.428580000000014,
          "velocity": 0.5669291338582677,
          "duration": 1.8190489833333405
        },
        {
          "name": "F#2",
          "midi": 42,
          "time": 11.714294500000015,
          "velocity": 0.6771653543307087,
          "duration": 0.04761908333333409
        },
        {
          "name": "D4",
          "midi": 62,
          "time": 11.857151750000016,
          "velocity": 0.6692913385826772,
          "duration": 1.6904774583333406
        },
        {
          "name": "B3",
          "midi": 59,
          "time": 11.857151750000016,
          "velocity": 0.6377952755905512,
          "duration": 0.5476194583333349
        },
        {
          "name": "D2",
          "midi": 38,
          "time": 12.000009000000016,
          "velocity": 0.7716535433070866,
          "duration": 0.04761908333333409
        },
        {
          "name": "F#2",
          "midi": 42,
          "time": 12.000009000000016,
          "velocity": 0.6771653543307087,
          "duration": 0.07142862500000113
        },
        {
          "name": "G1",
          "midi": 31,
          "time": 12.285723500000017,
          "velocity": 0.7874015748031497,
          "duration": 0.2380954166666669
        },
        {
          "name": "D3",
          "midi": 50,
          "time": 12.285723500000017,
          "velocity": 0.6456692913385826,
          "duration": 0.11904770833333345
        },
        {
          "name": "B3",
          "midi": 59,
          "time": 12.285723500000017,
          "velocity": 0.8818897637795275,
          "duration": 0.6904767083333354
        },
        {
          "name": "G3",
          "midi": 55,
          "time": 12.285723500000017,
          "velocity": 0.7244094488188977,
          "duration": 0.6904767083333354
        },
        {
          "name": "C2",
          "midi": 36,
          "time": 12.285723500000017,
          "velocity": 0.84251968503937,
          "duration": 0.05714290000000055
        },
        {
          "name": "D2",
          "midi": 38,
          "time": 12.285723500000017,
          "velocity": 0.7716535433070866,
          "duration": 0.05714290000000055
        },
        {
          "name": "F#2",
          "midi": 42,
          "time": 12.285723500000017,
          "velocity": 0.6771653543307087,
          "duration": 0.05714290000000055
        },
        {
          "name": "B1",
          "midi": 35,
          "time": 12.571438000000018,
          "velocity": 0.7874015748031497,
          "duration": 0.26190495833333394
        },
        {
          "name": "C2",
          "midi": 36,
          "time": 12.571438000000018,
          "velocity": 0.84251968503937,
          "duration": 0.07142862500000113
        },
        {
          "name": "F#2",
          "midi": 42,
          "time": 12.571438000000018,
          "velocity": 0.6771653543307087,
          "duration": 0.05714290000000055
        },
        {
          "name": "D2",
          "midi": 38,
          "time": 12.85715250000002,
          "velocity": 0.7874015748031497,
          "duration": 0.309524041666668
        },
        {
          "name": "G2",
          "midi": 43,
          "time": 12.85715250000002,
          "velocity": 0.6456692913385826,
          "duration": 0.11904770833333345
        },
        {
          "name": "D3",
          "midi": 50,
          "time": 12.85715250000002,
          "velocity": 0.7637795275590551,
          "duration": 0.11904770833333345
        },
        {
          "name": "G3",
          "midi": 55,
          "time": 12.85715250000002,
          "velocity": 0.7401574803149606,
          "duration": 0.4047622083333362
        },
        {
          "name": "B3",
          "midi": 59,
          "time": 12.85715250000002,
          "velocity": 0.7559055118110236,
          "duration": 0.4047622083333362
        },
        {
          "name": "C2",
          "midi": 36,
          "time": 12.85715250000002,
          "velocity": 0.84251968503937,
          "duration": 0.285714500000001
        },
        {
          "name": "F#2",
          "midi": 42,
          "time": 12.85715250000002,
          "velocity": 0.6771653543307087,
          "duration": 0.04761908333333409
        },
        {
          "name": "E2",
          "midi": 40,
          "time": 13.14286700000002,
          "velocity": 0.7874015748031497,
          "duration": 0.26190495833333394
        },
        {
          "name": "D3",
          "midi": 50,
          "time": 13.14286700000002,
          "velocity": 0.5905511811023622,
          "duration": 0.11904770833333522
        },
        {
          "name": "G3",
          "midi": 55,
          "time": 13.14286700000002,
          "velocity": 0.8582677165354331,
          "duration": 0.4047622083333362
        },
        {
          "name": "B3",
          "midi": 59,
          "time": 13.14286700000002,
          "velocity": 0.9133858267716536,
          "duration": 0.4047622083333362
        },
        {
          "name": "D2",
          "midi": 38,
          "time": 13.14286700000002,
          "velocity": 0.7716535433070866,
          "duration": 0.07142862500000113
        },
        {
          "name": "F#2",
          "midi": 42,
          "time": 13.14286700000002,
          "velocity": 0.6771653543307087,
          "duration": 0.04761908333333409
        },
        {
          "name": "D2",
          "midi": 38,
          "time": 13.428581500000021,
          "velocity": 0.7874015748031497,
          "duration": 0.2619049583333357
        },
        {
          "name": "G3",
          "midi": 55,
          "time": 13.428581500000021,
          "velocity": 0.8110236220472441,
          "duration": 0.2238096916666681
        },
        {
          "name": "B3",
          "midi": 59,
          "time": 13.428581500000021,
          "velocity": 0.9212598425196851,
          "duration": 0.2238096916666681
        },
        {
          "name": "D4",
          "midi": 62,
          "time": 13.428581500000021,
          "velocity": 0.84251968503937,
          "duration": 0.23809541666666867
        },
        {
          "name": "C2",
          "midi": 36,
          "time": 13.428581500000021,
          "velocity": 0.84251968503937,
          "duration": 0.07142862500000113
        },
        {
          "name": "F#2",
          "midi": 42,
          "time": 13.428581500000021,
          "velocity": 0.6771653543307087,
          "duration": 0.04761908333333409
        },
        {
          "name": "E2",
          "midi": 40,
          "time": 13.714296000000024,
          "velocity": 0.7874015748031497,
          "duration": 0.6904767083333372
        },
        {
          "name": "E3",
          "midi": 52,
          "time": 13.714296000000024,
          "velocity": 0.7401574803149606,
          "duration": 0.11904770833333345
        },
        {
          "name": "B2",
          "midi": 47,
          "time": 13.714296000000024,
          "velocity": 0.7086614173228346,
          "duration": 0.11904770833333345
        },
        {
          "name": "G3",
          "midi": 55,
          "time": 13.714296000000024,
          "velocity": 0.7952755905511811,
          "duration": 0.11904770833333345
        },
        {
          "name": "B3",
          "midi": 59,
          "time": 13.714296000000024,
          "velocity": 0.8031496062992126,
          "duration": 0.11904770833333345
        },
        {
          "name": "E4",
          "midi": 64,
          "time": 13.714296000000024,
          "velocity": 0.7795275590551181,
          "duration": 0.11904770833333345
        },
        {
          "name": "B4",
          "midi": 71,
          "time": 13.714296000000024,
          "velocity": 0.7086614173228346,
          "duration": 1.4380963166666731
        },
        {
          "name": "G4",
          "midi": 67,
          "time": 13.714296000000024,
          "velocity": 0.7795275590551181,
          "duration": 1.4523820416666737
        },
        {
          "name": "E4",
          "midi": 64,
          "time": 13.714296000000024,
          "velocity": 0.7716535433070866,
          "duration": 0.5476194583333349
        },
        {
          "name": "B3",
          "midi": 59,
          "time": 13.714296000000024,
          "velocity": 0.5039370078740157,
          "duration": 0.5476194583333349
        },
        {
          "name": "E4",
          "midi": 64,
          "time": 13.714296000000024,
          "velocity": 0.6141732283464567,
          "duration": 0.6904767083333372
        },
        {
          "name": "G3",
          "midi": 55,
          "time": 13.714296000000024,
          "velocity": 0.7086614173228346,
          "duration": 0.5476194583333349
        },
        {
          "name": "C2",
          "midi": 36,
          "time": 13.714296000000024,
          "velocity": 0.84251968503937,
          "duration": 0.571429000000002
        },
        {
          "name": "F#2",
          "midi": 42,
          "time": 13.714296000000024,
          "velocity": 0.6771653543307087,
          "duration": 0.04761908333333409
        },
        {
          "name": "F#2",
          "midi": 42,
          "time": 14.000010500000025,
          "velocity": 0.6771653543307087,
          "duration": 0.04761908333333409
        },
        {
          "name": "E4",
          "midi": 64,
          "time": 14.142867750000025,
          "velocity": 0.7952755905511811,
          "duration": 0.5476194583333367
        },
        {
          "name": "B3",
          "midi": 59,
          "time": 14.142867750000025,
          "velocity": 0.7086614173228346,
          "duration": 0.2619049583333357
        },
        {
          "name": "G3",
          "midi": 55,
          "time": 14.142867750000025,
          "velocity": 0.5905511811023622,
          "duration": 0.2619049583333357
        },
        {
          "name": "E2",
          "midi": 40,
          "time": 14.285725000000026,
          "velocity": 0.6299212598425197,
          "duration": 0.2714287750000022
        },
        {
          "name": "B2",
          "midi": 47,
          "time": 14.285725000000026,
          "velocity": 0.7086614173228346,
          "duration": 0.11904770833333522
        },
        {
          "name": "E3",
          "midi": 52,
          "time": 14.285725000000026,
          "velocity": 0.8661417322834646,
          "duration": 0.11904770833333522
        },
        {
          "name": "G3",
          "midi": 55,
          "time": 14.285725000000026,
          "velocity": 0.8740157480314961,
          "duration": 0.4047622083333362
        },
        {
          "name": "B3",
          "midi": 59,
          "time": 14.285725000000026,
          "velocity": 0.8661417322834646,
          "duration": 0.4047622083333362
        },
        {
          "name": "E4",
          "midi": 64,
          "time": 14.285725000000026,
          "velocity": 0.7874015748031497,
          "duration": 0.8809530416666718
        },
        {
          "name": "D2",
          "midi": 38,
          "time": 14.285725000000026,
          "velocity": 0.7716535433070866,
          "duration": 0.04761908333333409
        },
        {
          "name": "F#2",
          "midi": 42,
          "time": 14.285725000000026,
          "velocity": 0.6771653543307087,
          "duration": 0.07142862500000113
        },
        {
          "name": "B1",
          "midi": 35,
          "time": 14.571439500000029,
          "velocity": 0.7874015748031497,
          "duration": 0.05714290000000055
        },
        {
          "name": "G3",
          "midi": 55,
          "time": 14.571439500000029,
          "velocity": 0.9291338582677166,
          "duration": 0.9761912083333382
        },
        {
          "name": "B3",
          "midi": 59,
          "time": 14.571439500000029,
          "velocity": 0.9606299212598425,
          "duration": 0.9761912083333382
        },
        {
          "name": "E4",
          "midi": 64,
          "time": 14.571439500000029,
          "velocity": 0.8818897637795275,
          "duration": 0.9761912083333382
        },
        {
          "name": "C2",
          "midi": 36,
          "time": 14.571439500000029,
          "velocity": 0.84251968503937,
          "duration": 0.05714290000000055
        },
        {
          "name": "D2",
          "midi": 38,
          "time": 14.571439500000029,
          "velocity": 0.7716535433070866,
          "duration": 0.05714290000000055
        },
        {
          "name": "F#2",
          "midi": 42,
          "time": 14.571439500000029,
          "velocity": 0.6771653543307087,
          "duration": 0.05714290000000055
        },
        {
          "name": "E2",
          "midi": 40,
          "time": 14.85715400000003,
          "velocity": 0.7874015748031497,
          "duration": 0.05714290000000055
        },
        {
          "name": "C2",
          "midi": 36,
          "time": 14.85715400000003,
          "velocity": 0.84251968503937,
          "duration": 0.07142862500000113
        },
        {
          "name": "F#2",
          "midi": 42,
          "time": 14.85715400000003,
          "velocity": 0.6771653543307087,
          "duration": 0.05714290000000055
        },
        {
          "name": "E2",
          "midi": 40,
          "time": 15.14286850000003,
          "velocity": 0.7874015748031497,
          "duration": 0.11904770833333345
        },
        {
          "name": "E2",
          "midi": 40,
          "time": 15.14286850000003,
          "velocity": 0.8110236220472441,
          "duration": 0.5000003750000026
        },
        {
          "name": "B2",
          "midi": 47,
          "time": 15.14286850000003,
          "velocity": 0.8740157480314961,
          "duration": 0.11904770833333345
        },
        {
          "name": "E3",
          "midi": 52,
          "time": 15.14286850000003,
          "velocity": 0.7244094488188977,
          "duration": 0.11904770833333345
        },
        {
          "name": "C2",
          "midi": 36,
          "time": 15.14286850000003,
          "velocity": 0.84251968503937,
          "duration": 0.285714500000001
        },
        {
          "name": "F#2",
          "midi": 42,
          "time": 15.14286850000003,
          "velocity": 0.6771653543307087,
          "duration": 0.04761908333333409
        },
        {
          "name": "E3",
          "midi": 52,
          "time": 15.428583000000032,
          "velocity": 0.8346456692913385,
          "duration": 0.11904770833333522
        },
        {
          "name": "G3",
          "midi": 55,
          "time": 15.428583000000032,
          "velocity": 0.8818897637795275,
          "duration": 0.47619083333333734
        },
        {
          "name": "B3",
          "midi": 59,
          "time": 15.428583000000032,
          "velocity": 0.9291338582677166,
          "duration": 0.4047622083333362
        },
        {
          "name": "E4",
          "midi": 64,
          "time": 15.428583000000032,
          "velocity": 0.9291338582677166,
          "duration": 0.4047622083333362
        },
        {
          "name": "E4",
          "midi": 64,
          "time": 15.428583000000032,
          "velocity": 0.7716535433070866,
          "duration": 0.4523812916666703
        },
        {
          "name": "B4",
          "midi": 71,
          "time": 15.428583000000032,
          "velocity": 0.6535433070866141,
          "duration": 0.47619083333333734
        },
        {
          "name": "G4",
          "midi": 67,
          "time": 15.428583000000032,
          "velocity": 0.7637795275590551,
          "duration": 0.47619083333333734
        },
        {
          "name": "D2",
          "midi": 38,
          "time": 15.428583000000032,
          "velocity": 0.7716535433070866,
          "duration": 0.07142862500000113
        },
        {
          "name": "F#2",
          "midi": 42,
          "time": 15.428583000000032,
          "velocity": 0.6771653543307087,
          "duration": 0.04761908333333409
        },
        {
          "name": "B1",
          "midi": 35,
          "time": 15.714297500000033,
          "velocity": 0.7874015748031497,
          "duration": 0.14285725000000227
        },
        {
          "name": "D#2",
          "midi": 39,
          "time": 15.714297500000033,
          "velocity": 0.3700787401574803,
          "duration": 0.11904770833333522
        },
        {
          "name": "B3",
          "midi": 59,
          "time": 15.714297500000033,
          "velocity": 0.7007874015748031,
          "duration": 0.22380969166666986
        },
        {
          "name": "E4",
          "midi": 64,
          "time": 15.714297500000033,
          "velocity": 0.5826771653543307,
          "duration": 0.20000015000000282
        },
        {
          "name": "C2",
          "midi": 36,
          "time": 15.714297500000033,
          "velocity": 0.84251968503937,
          "duration": 0.07142862500000113
        },
        {
          "name": "F#2",
          "midi": 42,
          "time": 15.714297500000033,
          "velocity": 0.6771653543307087,
          "duration": 0.04761908333333409
        },
        {
          "name": "C2",
          "midi": 36,
          "time": 16.000012000000037,
          "velocity": 0.7874015748031497,
          "duration": 0.5714289999999984
        },
        {
          "name": "C3",
          "midi": 48,
          "time": 16.000012000000037,
          "velocity": 0.6614173228346457,
          "duration": 0.11904770833333345
        },
        {
          "name": "G3",
          "midi": 55,
          "time": 16.000012000000037,
          "velocity": 0.905511811023622,
          "duration": 0.11904770833333345
        },
        {
          "name": "C4",
          "midi": 60,
          "time": 16.000012000000037,
          "velocity": 0.9133858267716536,
          "duration": 0.11904770833333345
        },
        {
          "name": "E4",
          "midi": 64,
          "time": 16.000012000000037,
          "velocity": 0.8582677165354331,
          "duration": 0.11904770833333345
        },
        {
          "name": "G4",
          "midi": 67,
          "time": 16.000012000000037,
          "velocity": 0.6299212598425197,
          "duration": 2.0238110416666686
        },
        {
          "name": "E4",
          "midi": 64,
          "time": 16.000012000000037,
          "velocity": 0.7086614173228346,
          "duration": 0.40476220833333443
        },
        {
          "name": "C4",
          "midi": 60,
          "time": 16.000012000000037,
          "velocity": 0.6771653543307087,
          "duration": 0.40476220833333443
        },
        {
          "name": "C4",
          "midi": 60,
          "time": 16.000012000000037,
          "velocity": 0.6771653543307087,
          "duration": 0.6904767083333319
        },
        {
          "name": "E4",
          "midi": 64,
          "time": 16.000012000000037,
          "velocity": 0.8110236220472441,
          "duration": 0.5476194583333331
        },
        {
          "name": "G3",
          "midi": 55,
          "time": 16.000012000000037,
          "velocity": 0.6141732283464567,
          "duration": 0.6904767083333319
        },
        {
          "name": "C2",
          "midi": 36,
          "time": 16.000012000000037,
          "velocity": 0.84251968503937,
          "duration": 0.8904768583333329
        },
        {
          "name": "F#2",
          "midi": 42,
          "time": 16.000012000000037,
          "velocity": 0.6771653543307087,
          "duration": 0.04761908333333409
        },
        {
          "name": "C4",
          "midi": 60,
          "time": 16.285726500000038,
          "velocity": 0.6299212598425197,
          "duration": 0.6904767083333319
        },
        {
          "name": "E4",
          "midi": 64,
          "time": 16.285726500000038,
          "velocity": 0.6456692913385826,
          "duration": 0.4047622083333309
        },
        {
          "name": "F#2",
          "midi": 42,
          "time": 16.285726500000038,
          "velocity": 0.6771653543307087,
          "duration": 0.04761908333333409
        },
        {
          "name": "E4",
          "midi": 64,
          "time": 16.428583750000037,
          "velocity": 0.8582677165354331,
          "duration": 1.404762958333336
        },
        {
          "name": "G3",
          "midi": 55,
          "time": 16.571441000000036,
          "velocity": 0.6299212598425197,
          "duration": 0.40476220833333443
        },
        {
          "name": "C4",
          "midi": 60,
          "time": 16.571441000000036,
          "velocity": 0.8267716535433071,
          "duration": 1.2619057083333374
        },
        {
          "name": "E4",
          "midi": 64,
          "time": 16.571441000000036,
          "velocity": 0.8110236220472441,
          "duration": 1.4619058583333384
        },
        {
          "name": "D2",
          "midi": 38,
          "time": 16.571441000000036,
          "velocity": 0.7716535433070866,
          "duration": 0.04761908333333409
        },
        {
          "name": "F#2",
          "midi": 42,
          "time": 16.571441000000036,
          "velocity": 0.6771653543307087,
          "duration": 0.07142862499999936
        },
        {
          "name": "G1",
          "midi": 31,
          "time": 16.857155500000037,
          "velocity": 0.7874015748031497,
          "duration": 0.07142862499999936
        },
        {
          "name": "C3",
          "midi": 48,
          "time": 16.857155500000037,
          "velocity": 0.7165354330708661,
          "duration": 0.11904770833333345
        },
        {
          "name": "G3",
          "midi": 55,
          "time": 16.857155500000037,
          "velocity": 0.8582677165354331,
          "duration": 0.6904767083333354
        },
        {
          "name": "C4",
          "midi": 60,
          "time": 16.857155500000037,
          "velocity": 0.8740157480314961,
          "duration": 1.1190484583333387
        },
        {
          "name": "C2",
          "midi": 36,
          "time": 16.857155500000037,
          "velocity": 0.84251968503937,
          "duration": 0.057142899999998775
        },
        {
          "name": "D2",
          "midi": 38,
          "time": 16.857155500000037,
          "velocity": 0.7716535433070866,
          "duration": 0.057142899999998775
        },
        {
          "name": "F#2",
          "midi": 42,
          "time": 16.857155500000037,
          "velocity": 0.6771653543307087,
          "duration": 0.057142899999998775
        },
        {
          "name": "C2",
          "midi": 36,
          "time": 17.142870000000038,
          "velocity": 0.7874015748031497,
          "duration": 0.057142899999998775
        },
        {
          "name": "C2",
          "midi": 36,
          "time": 17.142870000000038,
          "velocity": 0.84251968503937,
          "duration": 0.07142862499999936
        },
        {
          "name": "F#2",
          "midi": 42,
          "time": 17.142870000000038,
          "velocity": 0.6771653543307087,
          "duration": 0.057142899999998775
        },
        {
          "name": "C2",
          "midi": 36,
          "time": 17.42858450000004,
          "velocity": 0.7874015748031497,
          "duration": 0.285714500000001
        },
        {
          "name": "C3",
          "midi": 48,
          "time": 17.42858450000004,
          "velocity": 0.6692913385826772,
          "duration": 0.11904770833333345
        },
        {
          "name": "G3",
          "midi": 55,
          "time": 17.42858450000004,
          "velocity": 0.7559055118110236,
          "duration": 0.40476220833333443
        },
        {
          "name": "C2",
          "midi": 36,
          "time": 17.42858450000004,
          "velocity": 0.84251968503937,
          "duration": 0.5333337333333361
        },
        {
          "name": "F#2",
          "midi": 42,
          "time": 17.42858450000004,
          "velocity": 0.6771653543307087,
          "duration": 0.04761908333333409
        },
        {
          "name": "E4",
          "midi": 64,
          "time": 17.71429900000004,
          "velocity": 0.7322834645669292,
          "duration": 0.4619051083333332
        },
        {
          "name": "G3",
          "midi": 55,
          "time": 17.71429900000004,
          "velocity": 0.7795275590551181,
          "duration": 0.4285717499999997
        },
        {
          "name": "C4",
          "midi": 60,
          "time": 17.71429900000004,
          "velocity": 0.8346456692913385,
          "duration": 0.5095241916666673
        },
        {
          "name": "D2",
          "midi": 38,
          "time": 17.71429900000004,
          "velocity": 0.7716535433070866,
          "duration": 0.07142862499999936
        },
        {
          "name": "F#2",
          "midi": 42,
          "time": 17.71429900000004,
          "velocity": 0.6771653543307087,
          "duration": 0.04761908333333409
        },
        {
          "name": "G1",
          "midi": 31,
          "time": 18.00001350000004,
          "velocity": 0.7874015748031497,
          "duration": 0.2380954166666669
        },
        {
          "name": "C2",
          "midi": 36,
          "time": 18.00001350000004,
          "velocity": 0.84251968503937,
          "duration": 0.07142862499999936
        },
        {
          "name": "F#2",
          "midi": 42,
          "time": 18.00001350000004,
          "velocity": 0.6771653543307087,
          "duration": 0.04761908333333409
        },
        {
          "name": "D2",
          "midi": 38,
          "time": 18.28572800000004,
          "velocity": 0.7874015748031497,
          "duration": 0.11904770833333345
        },
        {
          "name": "A2",
          "midi": 45,
          "time": 18.28572800000004,
          "velocity": 0.5511811023622047,
          "duration": 0.11904770833333345
        },
        {
          "name": "D2",
          "midi": 38,
          "time": 18.28572800000004,
          "velocity": 0.6062992125984252,
          "duration": 0.6190480833333325
        },
        {
          "name": "F#3",
          "midi": 54,
          "time": 18.28572800000004,
          "velocity": 0.8267716535433071,
          "duration": 0.11904770833333345
        },
        {
          "name": "A3",
          "midi": 57,
          "time": 18.28572800000004,
          "velocity": 0.7244094488188977,
          "duration": 0.11904770833333345
        },
        {
          "name": "D4",
          "midi": 62,
          "time": 18.28572800000004,
          "velocity": 0.48031496062992124,
          "duration": 0.11904770833333345
        },
        {
          "name": "F#4",
          "midi": 66,
          "time": 18.28572800000004,
          "velocity": 0.6377952755905512,
          "duration": 0.9761912083333328
        },
        {
          "name": "D4",
          "midi": 62,
          "time": 18.28572800000004,
          "velocity": 0.6141732283464567,
          "duration": 0.40476220833333443
        },
        {
          "name": "A4",
          "midi": 69,
          "time": 18.28572800000004,
          "velocity": 0.7165354330708661,
          "duration": 1.7238108166666741
        },
        {
          "name": "D4",
          "midi": 62,
          "time": 18.28572800000004,
          "velocity": 0.6220472440944882,
          "duration": 0.5476194583333331
        },
        {
          "name": "F#4",
          "midi": 66,
          "time": 18.28572800000004,
          "velocity": 0.7637795275590551,
          "duration": 1.7238108166666741
        },
        {
          "name": "A3",
          "midi": 57,
          "time": 18.28572800000004,
          "velocity": 0.6220472440944882,
          "duration": 0.40476220833333443
        },
        {
          "name": "C2",
          "midi": 36,
          "time": 18.28572800000004,
          "velocity": 0.84251968503937,
          "duration": 0.5714289999999984
        },
        {
          "name": "F#2",
          "midi": 42,
          "time": 18.28572800000004,
          "velocity": 0.6771653543307087,
          "duration": 0.04761908333333409
        },
        {
          "name": "A3",
          "midi": 57,
          "time": 18.571442500000042,
          "velocity": 0.6771653543307087,
          "duration": 1.961906233333341
        },
        {
          "name": "D4",
          "midi": 62,
          "time": 18.571442500000042,
          "velocity": 0.7086614173228346,
          "duration": 1.4380963166666731
        },
        {
          "name": "F#2",
          "midi": 42,
          "time": 18.571442500000042,
          "velocity": 0.6771653543307087,
          "duration": 0.04761908333333409
        },
        {
          "name": "D4",
          "midi": 62,
          "time": 18.71429975000004,
          "velocity": 0.6299212598425197,
          "duration": 1.4047629583333396
        },
        {
          "name": "D3",
          "midi": 50,
          "time": 18.85715700000004,
          "velocity": 0.3937007874015748,
          "duration": 0.11904770833333345
        },
        {
          "name": "D2",
          "midi": 38,
          "time": 18.85715700000004,
          "velocity": 0.7716535433070866,
          "duration": 0.285714500000001
        },
        {
          "name": "F#2",
          "midi": 42,
          "time": 18.85715700000004,
          "velocity": 0.6771653543307087,
          "duration": 0.07142862499999936
        },
        {
          "name": "A1",
          "midi": 33,
          "time": 19.14287150000004,
          "velocity": 0.7874015748031497,
          "duration": 0.057142899999998775
        },
        {
          "name": "D3",
          "midi": 50,
          "time": 19.14287150000004,
          "velocity": 0.7716535433070866,
          "duration": 0.11904770833333345
        },
        {
          "name": "F#4",
          "midi": 66,
          "time": 19.14287150000004,
          "velocity": 0.9763779527559056,
          "duration": 1.4047629583333432
        },
        {
          "name": "C2",
          "midi": 36,
          "time": 19.14287150000004,
          "velocity": 0.84251968503937,
          "duration": 0.057142899999998775
        },
        {
          "name": "D2",
          "midi": 38,
          "time": 19.14287150000004,
          "velocity": 0.7716535433070866,
          "duration": 0.057142899999998775
        },
        {
          "name": "F#2",
          "midi": 42,
          "time": 19.14287150000004,
          "velocity": 0.6771653543307087,
          "duration": 0.057142899999998775
        },
        {
          "name": "D2",
          "midi": 38,
          "time": 19.428586000000042,
          "velocity": 0.7874015748031497,
          "duration": 0.04761908333333409
        },
        {
          "name": "C2",
          "midi": 36,
          "time": 19.428586000000042,
          "velocity": 0.84251968503937,
          "duration": 0.07142862500000291
        },
        {
          "name": "F#2",
          "midi": 42,
          "time": 19.428586000000042,
          "velocity": 0.6771653543307087,
          "duration": 0.05714290000000233
        },
        {
          "name": "D2",
          "midi": 38,
          "time": 19.714300500000046,
          "velocity": 0.7874015748031497,
          "duration": 0.35714312500000034
        },
        {
          "name": "D3",
          "midi": 50,
          "time": 19.714300500000046,
          "velocity": 0.6141732283464567,
          "duration": 0.11904770833333345
        },
        {
          "name": "C2",
          "midi": 36,
          "time": 19.714300500000046,
          "velocity": 0.84251968503937,
          "duration": 0.285714500000001
        },
        {
          "name": "F#2",
          "midi": 42,
          "time": 19.714300500000046,
          "velocity": 0.6771653543307087,
          "duration": 0.04761908333333409
        },
        {
          "name": "D4",
          "midi": 62,
          "time": 20.000015000000047,
          "velocity": 0.7007874015748031,
          "duration": 0.40476220833333443
        },
        {
          "name": "D2",
          "midi": 38,
          "time": 20.000015000000047,
          "velocity": 0.7716535433070866,
          "duration": 0.2952383166666692
        },
        {
          "name": "F#2",
          "midi": 42,
          "time": 20.000015000000047,
          "velocity": 0.6771653543307087,
          "duration": 0.04761908333333409
        },
        {
          "name": "A1",
          "midi": 33,
          "time": 20.28572950000005,
          "velocity": 0.7874015748031497,
          "duration": 0.03333335833333351
        },
        {
          "name": "D4",
          "midi": 62,
          "time": 20.28572950000005,
          "velocity": 0.48031496062992124,
          "duration": 0.2619049583333357
        },
        {
          "name": "C2",
          "midi": 36,
          "time": 20.28572950000005,
          "velocity": 0.84251968503937,
          "duration": 0.07142862499999936
        },
        {
          "name": "F#2",
          "midi": 42,
          "time": 20.28572950000005,
          "velocity": 0.6771653543307087,
          "duration": 0.04761908333333409
        },
        {
          "name": "G1",
          "midi": 31,
          "time": 20.57144400000005,
          "velocity": 0.7874015748031497,
          "duration": 0.6285719000000078
        },
        {
          "name": "D3",
          "midi": 50,
          "time": 20.57144400000005,
          "velocity": 0.36220472440944884,
          "duration": 0.119047708333337
        },
        {
          "name": "D3",
          "midi": 50,
          "time": 20.57144400000005,
          "velocity": 0.6850393700787402,
          "duration": 0.6904767083333425
        },
        {
          "name": "G3",
          "midi": 55,
          "time": 20.57144400000005,
          "velocity": 0.7952755905511811,
          "duration": 0.119047708333337
        },
        {
          "name": "B3",
          "midi": 59,
          "time": 20.57144400000005,
          "velocity": 0.8661417322834646,
          "duration": 0.119047708333337
        },
        {
          "name": "D2",
          "midi": 38,
          "time": 20.57144400000005,
          "velocity": 0.3700787401574803,
          "duration": 0.119047708333337
        },
        {
          "name": "G4",
          "midi": 67,
          "time": 20.57144400000005,
          "velocity": 0.6850393700787402,
          "duration": 4.0095268166666855
        },
        {
          "name": "B4",
          "midi": 71,
          "time": 20.57144400000005,
          "velocity": 0.6299212598425197,
          "duration": 1.0952389166666805
        },
        {
          "name": "D4",
          "midi": 62,
          "time": 20.57144400000005,
          "velocity": 0.6220472440944882,
          "duration": 0.5476194583333402
        },
        {
          "name": "C2",
          "midi": 36,
          "time": 20.57144400000005,
          "velocity": 0.84251968503937,
          "duration": 0.5714290000000055
        },
        {
          "name": "F#2",
          "midi": 42,
          "time": 20.57144400000005,
          "velocity": 0.6771653543307087,
          "duration": 0.04761908333333409
        },
        {
          "name": "A3",
          "midi": 57,
          "time": 20.57144400000005,
          "velocity": 0.5905511811023622,
          "duration": 0.9857150250000153
        },
        {
          "name": "G3",
          "midi": 55,
          "time": 20.580967816666718,
          "velocity": 0.5039370078740157,
          "duration": 0.538095641666672
        },
        {
          "name": "B3",
          "midi": 59,
          "time": 20.62858690000005,
          "velocity": 0.4566929133858268,
          "duration": 0.4904765583333379
        },
        {
          "name": "F#2",
          "midi": 42,
          "time": 20.857158500000054,
          "velocity": 0.6771653543307087,
          "duration": 0.04761908333333409
        },
        {
          "name": "D4",
          "midi": 62,
          "time": 21.000015750000056,
          "velocity": 0.84251968503937,
          "duration": 0.2619049583333357
        },
        {
          "name": "B3",
          "midi": 59,
          "time": 21.000015750000056,
          "velocity": 0.7716535433070866,
          "duration": 0.2619049583333357
        },
        {
          "name": "G3",
          "midi": 55,
          "time": 21.000015750000056,
          "velocity": 0.5590551181102362,
          "duration": 0.2619049583333357
        },
        {
          "name": "A4",
          "midi": 69,
          "time": 21.142873000000055,
          "velocity": 0.7244094488188977,
          "duration": 0.27142877500000395
        },
        {
          "name": "D3",
          "midi": 50,
          "time": 21.142873000000055,
          "velocity": 0.6299212598425197,
          "duration": 0.9761912083333399
        },
        {
          "name": "G3",
          "midi": 55,
          "time": 21.142873000000055,
          "velocity": 0.6850393700787402,
          "duration": 0.40476220833334153
        },
        {
          "name": "B3",
          "midi": 59,
          "time": 21.142873000000055,
          "velocity": 0.6850393700787402,
          "duration": 0.40476220833334153
        },
        {
          "name": "D4",
          "midi": 62,
          "time": 21.142873000000055,
          "velocity": 0.5826771653543307,
          "duration": 0.13809534166666992
        },
        {
          "name": "D2",
          "midi": 38,
          "time": 21.142873000000055,
          "velocity": 0.7716535433070866,
          "duration": 0.04761908333333409
        },
        {
          "name": "F#2",
          "midi": 42,
          "time": 21.142873000000055,
          "velocity": 0.6771653543307087,
          "duration": 0.07142862500000291
        },
        {
          "name": "D4",
          "midi": 62,
          "time": 21.142873000000055,
          "velocity": 0.007874015748031496,
          "duration": 0.40476220833334153
        },
        {
          "name": "B4",
          "midi": 71,
          "time": 21.42858750000006,
          "velocity": 0.7244094488188977,
          "duration": 0.7380957916666695
        },
        {
          "name": "G1",
          "midi": 31,
          "time": 21.42858750000006,
          "velocity": 0.7874015748031497,
          "duration": 0.04761908333333409
        },
        {
          "name": "G3",
          "midi": 55,
          "time": 21.42858750000006,
          "velocity": 0.7086614173228346,
          "duration": 0.6904767083333354
        },
        {
          "name": "B3",
          "midi": 59,
          "time": 21.42858750000006,
          "velocity": 0.8818897637795275,
          "duration": 0.9761912083333364
        },
        {
          "name": "D4",
          "midi": 62,
          "time": 21.42858750000006,
          "velocity": 0.6456692913385826,
          "duration": 0.119047708333337
        },
        {
          "name": "C2",
          "midi": 36,
          "time": 21.42858750000006,
          "velocity": 0.84251968503937,
          "duration": 0.05714290000000233
        },
        {
          "name": "D2",
          "midi": 38,
          "time": 21.42858750000006,
          "velocity": 0.7716535433070866,
          "duration": 0.05714290000000233
        },
        {
          "name": "F#2",
          "midi": 42,
          "time": 21.42858750000006,
          "velocity": 0.6771653543307087,
          "duration": 0.05714290000000233
        },
        {
          "name": "D4",
          "midi": 62,
          "time": 21.42858750000006,
          "velocity": 0.007874015748031496,
          "duration": 0.5142861000000032
        },
        {
          "name": "B4",
          "midi": 71,
          "time": 21.714302000000064,
          "velocity": 0.7244094488188977,
          "duration": 0.8333339583333341
        },
        {
          "name": "G1",
          "midi": 31,
          "time": 21.714302000000064,
          "velocity": 0.7874015748031497,
          "duration": 0.057142899999998775
        },
        {
          "name": "C2",
          "midi": 36,
          "time": 21.714302000000064,
          "velocity": 0.84251968503937,
          "duration": 0.07142862499999936
        },
        {
          "name": "F#2",
          "midi": 42,
          "time": 21.714302000000064,
          "velocity": 0.6771653543307087,
          "duration": 0.057142899999998775
        },
        {
          "name": "D4",
          "midi": 62,
          "time": 21.714302000000064,
          "velocity": 0.007874015748031496,
          "duration": 0.6904767083333319
        },
        {
          "name": "G1",
          "midi": 31,
          "time": 22.00001650000006,
          "velocity": 0.7874015748031497,
          "duration": 0.35714312500000034
        },
        {
          "name": "D3",
          "midi": 50,
          "time": 22.00001650000006,
          "velocity": 0.7952755905511811,
          "duration": 0.7380957916666695
        },
        {
          "name": "G3",
          "midi": 55,
          "time": 22.00001650000006,
          "velocity": 0.7086614173228346,
          "duration": 0.40476220833333443
        },
        {
          "name": "C2",
          "midi": 36,
          "time": 22.00001650000006,
          "velocity": 0.84251968503937,
          "duration": 0.285714500000001
        },
        {
          "name": "F#2",
          "midi": 42,
          "time": 22.00001650000006,
          "velocity": 0.6771653543307087,
          "duration": 0.04761908333333409
        },
        {
          "name": "B4",
          "midi": 71,
          "time": 22.285731000000062,
          "velocity": 0.7244094488188977,
          "duration": 1.1666675416666692
        },
        {
          "name": "G3",
          "midi": 55,
          "time": 22.285731000000062,
          "velocity": 0.8110236220472441,
          "duration": 0.40476220833333443
        },
        {
          "name": "B3",
          "midi": 59,
          "time": 22.285731000000062,
          "velocity": 0.8976377952755905,
          "duration": 0.40476220833333443
        },
        {
          "name": "D4",
          "midi": 62,
          "time": 22.285731000000062,
          "velocity": 0.6141732283464567,
          "duration": 0.13333343333333403
        },
        {
          "name": "D2",
          "midi": 38,
          "time": 22.285731000000062,
          "velocity": 0.7716535433070866,
          "duration": 0.07142862499999936
        },
        {
          "name": "F#2",
          "midi": 42,
          "time": 22.285731000000062,
          "velocity": 0.6771653543307087,
          "duration": 0.04761908333333409
        },
        {
          "name": "D4",
          "midi": 62,
          "time": 22.285731000000062,
          "velocity": 0.007874015748031496,
          "duration": 0.5619051833333373
        },
        {
          "name": "C5",
          "midi": 72,
          "time": 22.571445500000063,
          "velocity": 0.7244094488188977,
          "duration": 0.5476194583333367
        },
        {
          "name": "G1",
          "midi": 31,
          "time": 22.571445500000063,
          "velocity": 0.7874015748031497,
          "duration": 0.16666679166666754
        },
        {
          "name": "B3",
          "midi": 59,
          "time": 22.571445500000063,
          "velocity": 0.7637795275590551,
          "duration": 0.404762208333338
        },
        {
          "name": "G3",
          "midi": 55,
          "time": 22.571445500000063,
          "velocity": 0.6299212598425197,
          "duration": 0.404762208333338
        },
        {
          "name": "C2",
          "midi": 36,
          "time": 22.571445500000063,
          "velocity": 0.84251968503937,
          "duration": 0.07142862499999936
        },
        {
          "name": "F#2",
          "midi": 42,
          "time": 22.571445500000063,
          "velocity": 0.6771653543307087,
          "duration": 0.04761908333333409
        },
        {
          "name": "D4",
          "midi": 62,
          "time": 22.571445500000063,
          "velocity": 0.007874015748031496,
          "duration": 0.7285719750000048
        },
        {
          "name": "G1",
          "midi": 31,
          "time": 22.857160000000068,
          "velocity": 0.7874015748031497,
          "duration": 0.6285718999999972
        },
        {
          "name": "D3",
          "midi": 50,
          "time": 22.857160000000068,
          "velocity": 0.6850393700787402,
          "duration": 0.11904770833333345
        },
        {
          "name": "G3",
          "midi": 55,
          "time": 22.857160000000068,
          "velocity": 0.7952755905511811,
          "duration": 0.31904785833333094
        },
        {
          "name": "B3",
          "midi": 59,
          "time": 22.857160000000068,
          "velocity": 0.8661417322834646,
          "duration": 0.3285716749999992
        },
        {
          "name": "D2",
          "midi": 38,
          "time": 22.857160000000068,
          "velocity": 0.3700787401574803,
          "duration": 0.11904770833333345
        },
        {
          "name": "C2",
          "midi": 36,
          "time": 22.857160000000068,
          "velocity": 0.84251968503937,
          "duration": 0.5714289999999984
        },
        {
          "name": "F#2",
          "midi": 42,
          "time": 22.857160000000068,
          "velocity": 0.6771653543307087,
          "duration": 0.04761908333333409
        },
        {
          "name": "B4",
          "midi": 71,
          "time": 23.142874500000065,
          "velocity": 0.7244094488188977,
          "duration": 1.3666676916666702
        },
        {
          "name": "F#2",
          "midi": 42,
          "time": 23.142874500000065,
          "velocity": 0.6771653543307087,
          "duration": 0.04761908333333409
        },
        {
          "name": "D4",
          "midi": 62,
          "time": 23.142874500000065,
          "velocity": 0.007874015748031496,
          "duration": 0.2619049583333357
        },
        {
          "name": "D4",
          "midi": 62,
          "time": 23.285731750000068,
          "velocity": 0.84251968503937,
          "duration": 0.26190495833333216
        },
        {
          "name": "B3",
          "midi": 59,
          "time": 23.285731750000068,
          "velocity": 0.7716535433070866,
          "duration": 0.11904770833333345
        },
        {
          "name": "G3",
          "midi": 55,
          "time": 23.285731750000068,
          "velocity": 0.5590551181102362,
          "duration": 0.11904770833333345
        },
        {
          "name": "A4",
          "midi": 69,
          "time": 23.428589000000066,
          "velocity": 0.7244094488188977,
          "duration": 0.27619068333333274
        },
        {
          "name": "D3",
          "midi": 50,
          "time": 23.428589000000066,
          "velocity": 0.6299212598425197,
          "duration": 0.11904770833333345
        },
        {
          "name": "G3",
          "midi": 55,
          "time": 23.428589000000066,
          "velocity": 0.6850393700787402,
          "duration": 0.11904770833333345
        },
        {
          "name": "B3",
          "midi": 59,
          "time": 23.428589000000066,
          "velocity": 0.6850393700787402,
          "duration": 0.11904770833333345
        },
        {
          "name": "D4",
          "midi": 62,
          "time": 23.428589000000066,
          "velocity": 0.5826771653543307,
          "duration": 0.17142869999999988
        },
        {
          "name": "D2",
          "midi": 38,
          "time": 23.428589000000066,
          "velocity": 0.7716535433070866,
          "duration": 0.047619083333330536
        },
        {
          "name": "F#2",
          "midi": 42,
          "time": 23.428589000000066,
          "velocity": 0.6771653543307087,
          "duration": 0.07142862499999936
        },
        {
          "name": "D4",
          "midi": 62,
          "time": 23.428589000000066,
          "velocity": 0.007874015748031496,
          "duration": 0.404762208333338
        },
        {
          "name": "B4",
          "midi": 71,
          "time": 23.714303500000067,
          "velocity": 0.7244094488188977,
          "duration": 0.9428578499999993
        },
        {
          "name": "G1",
          "midi": 31,
          "time": 23.714303500000067,
          "velocity": 0.7874015748031497,
          "duration": 0.04761908333333409
        },
        {
          "name": "G3",
          "midi": 55,
          "time": 23.714303500000067,
          "velocity": 0.7086614173228346,
          "duration": 0.119047708333337
        },
        {
          "name": "B3",
          "midi": 59,
          "time": 23.714303500000067,
          "velocity": 0.8818897637795275,
          "duration": 0.119047708333337
        },
        {
          "name": "D4",
          "midi": 62,
          "time": 23.714303500000067,
          "velocity": 0.6456692913385826,
          "duration": 0.38095266666666916
        },
        {
          "name": "C2",
          "midi": 36,
          "time": 23.714303500000067,
          "velocity": 0.84251968503937,
          "duration": 0.05714290000000233
        },
        {
          "name": "D2",
          "midi": 38,
          "time": 23.714303500000067,
          "velocity": 0.7716535433070866,
          "duration": 0.05714290000000233
        },
        {
          "name": "F#2",
          "midi": 42,
          "time": 23.714303500000067,
          "velocity": 0.6771653543307087,
          "duration": 0.05714290000000233
        },
        {
          "name": "D4",
          "midi": 62,
          "time": 23.714303500000067,
          "velocity": 0.007874015748031496,
          "duration": 0.8190482333333335
        },
        {
          "name": "G1",
          "midi": 31,
          "time": 24.000018000000072,
          "velocity": 0.7874015748031497,
          "duration": 0.03333335833333351
        },
        {
          "name": "C2",
          "midi": 36,
          "time": 24.000018000000072,
          "velocity": 0.84251968503937,
          "duration": 0.07142862499999936
        },
        {
          "name": "F#2",
          "midi": 42,
          "time": 24.000018000000072,
          "velocity": 0.6771653543307087,
          "duration": 0.057142899999998775
        },
        {
          "name": "G1",
          "midi": 31,
          "time": 24.28573250000007,
          "velocity": 0.7874015748031497,
          "duration": 0.29523831666666567
        },
        {
          "name": "D3",
          "midi": 50,
          "time": 24.28573250000007,
          "velocity": 0.7952755905511811,
          "duration": 0.11904770833333345
        },
        {
          "name": "G3",
          "midi": 55,
          "time": 24.28573250000007,
          "velocity": 0.7086614173228346,
          "duration": 0.11904770833333345
        },
        {
          "name": "C2",
          "midi": 36,
          "time": 24.28573250000007,
          "velocity": 0.84251968503937,
          "duration": 0.28571449999999743
        },
        {
          "name": "F#2",
          "midi": 42,
          "time": 24.28573250000007,
          "velocity": 0.6771653543307087,
          "duration": 0.04761908333333409
        },
        {
          "name": "B1",
          "midi": 35,
          "time": 24.571447000000067,
          "velocity": 0.7874015748031497,
          "duration": 0.2714287750000004
        },
        {
          "name": "G3",
          "midi": 55,
          "time": 24.571447000000067,
          "velocity": 0.8110236220472441,
          "duration": 0.11904770833333345
        },
        {
          "name": "B3",
          "midi": 59,
          "time": 24.571447000000067,
          "velocity": 0.8976377952755905,
          "duration": 0.11904770833333345
        },
        {
          "name": "D4",
          "midi": 62,
          "time": 24.571447000000067,
          "velocity": 0.6141732283464567,
          "duration": 0.11904770833333345
        },
        {
          "name": "D2",
          "midi": 38,
          "time": 24.571447000000067,
          "velocity": 0.7716535433070866,
          "duration": 0.07142862499999936
        },
        {
          "name": "F#2",
          "midi": 42,
          "time": 24.571447000000067,
          "velocity": 0.6771653543307087,
          "duration": 0.04761908333333409
        },
        {
          "name": "A4",
          "midi": 69,
          "time": 24.714304250000065,
          "velocity": 0.7244094488188977,
          "duration": 0.13809534166666992
        },
        {
          "name": "G4",
          "midi": 67,
          "time": 24.857161500000068,
          "velocity": 0.7244094488188977,
          "duration": 0.21428587500000162
        },
        {
          "name": "D2",
          "midi": 38,
          "time": 24.857161500000068,
          "velocity": 0.7874015748031497,
          "duration": 0.2952383166666692
        },
        {
          "name": "B3",
          "midi": 59,
          "time": 24.857161500000068,
          "velocity": 0.7637795275590551,
          "duration": 0.11904770833333345
        },
        {
          "name": "G3",
          "midi": 55,
          "time": 24.857161500000068,
          "velocity": 0.6299212598425197,
          "duration": 0.11904770833333345
        },
        {
          "name": "C2",
          "midi": 36,
          "time": 24.857161500000068,
          "velocity": 0.84251968503937,
          "duration": 0.07142862499999936
        },
        {
          "name": "F#2",
          "midi": 42,
          "time": 24.857161500000068,
          "velocity": 0.6771653543307087,
          "duration": 0.04761908333333409
        },
        {
          "name": "E3",
          "midi": 52,
          "time": 25.128590275000068,
          "velocity": 0.4330708661417323,
          "duration": 0.13333343333333403
        },
        {
          "name": "E2",
          "midi": 40,
          "time": 25.14287600000007,
          "velocity": 0.7874015748031497,
          "duration": 0.6047623583333355
        },
        {
          "name": "E3",
          "midi": 52,
          "time": 25.14287600000007,
          "velocity": 0.7401574803149606,
          "duration": 0.6904767083333354
        },
        {
          "name": "B2",
          "midi": 47,
          "time": 25.14287600000007,
          "velocity": 0.7086614173228346,
          "duration": 0.11904770833333345
        },
        {
          "name": "G3",
          "midi": 55,
          "time": 25.14287600000007,
          "velocity": 0.7952755905511811,
          "duration": 0.11904770833333345
        },
        {
          "name": "B3",
          "midi": 59,
          "time": 25.14287600000007,
          "velocity": 0.8031496062992126,
          "duration": 0.11904770833333345
        },
        {
          "name": "E4",
          "midi": 64,
          "time": 25.14287600000007,
          "velocity": 0.7795275590551181,
          "duration": 0.11904770833333345
        },
        {
          "name": "G4",
          "midi": 67,
          "time": 25.14287600000007,
          "velocity": 0.7165354330708661,
          "duration": 1.0571436500000075
        },
        {
          "name": "E4",
          "midi": 64,
          "time": 25.14287600000007,
          "velocity": 0.6299212598425197,
          "duration": 0.5476194583333367
        },
        {
          "name": "B4",
          "midi": 71,
          "time": 25.14287600000007,
          "velocity": 0.6299212598425197,
          "duration": 2.0238110416666686
        },
        {
          "name": "C2",
          "midi": 36,
          "time": 25.14287600000007,
          "velocity": 0.84251968503937,
          "duration": 0.571429000000002
        },
        {
          "name": "F#2",
          "midi": 42,
          "time": 25.14287600000007,
          "velocity": 0.6771653543307087,
          "duration": 0.04761908333333409
        },
        {
          "name": "G3",
          "midi": 55,
          "time": 25.190495083333403,
          "velocity": 0.49606299212598426,
          "duration": 0.5000003750000026
        },
        {
          "name": "B3",
          "midi": 59,
          "time": 25.223828441666736,
          "velocity": 0.3779527559055118,
          "duration": 0.4666670166666691
        },
        {
          "name": "F#2",
          "midi": 42,
          "time": 25.42859050000007,
          "velocity": 0.6771653543307087,
          "duration": 0.04761908333333409
        },
        {
          "name": "E4",
          "midi": 64,
          "time": 25.571447750000072,
          "velocity": 0.7952755905511811,
          "duration": 0.26190495833333216
        },
        {
          "name": "B3",
          "midi": 59,
          "time": 25.571447750000072,
          "velocity": 0.7086614173228346,
          "duration": 0.26190495833333216
        },
        {
          "name": "G3",
          "midi": 55,
          "time": 25.571447750000072,
          "velocity": 0.5905511811023622,
          "duration": 0.26190495833333216
        },
        {
          "name": "E4",
          "midi": 64,
          "time": 25.71430500000007,
          "velocity": 0.7244094488188977,
          "duration": 0.2619049583333357
        },
        {
          "name": "E2",
          "midi": 40,
          "time": 25.71430500000007,
          "velocity": 0.6299212598425197,
          "duration": 0.11904770833333345
        },
        {
          "name": "B2",
          "midi": 47,
          "time": 25.71430500000007,
          "velocity": 0.7086614173228346,
          "duration": 0.11904770833333345
        },
        {
          "name": "E3",
          "midi": 52,
          "time": 25.71430500000007,
          "velocity": 0.8661417322834646,
          "duration": 0.9761912083333399
        },
        {
          "name": "G3",
          "midi": 55,
          "time": 25.71430500000007,
          "velocity": 0.8740157480314961,
          "duration": 0.404762208333338
        },
        {
          "name": "B3",
          "midi": 59,
          "time": 25.71430500000007,
          "velocity": 0.8661417322834646,
          "duration": 0.404762208333338
        },
        {
          "name": "E4",
          "midi": 64,
          "time": 25.71430500000007,
          "velocity": 0.7874015748031497,
          "duration": 0.404762208333338
        },
        {
          "name": "D2",
          "midi": 38,
          "time": 25.71430500000007,
          "velocity": 0.7716535433070866,
          "duration": 0.04761908333333409
        },
        {
          "name": "F#2",
          "midi": 42,
          "time": 25.71430500000007,
          "velocity": 0.6771653543307087,
          "duration": 0.07142862499999936
        },
        {
          "name": "D4",
          "midi": 62,
          "time": 25.71430500000007,
          "velocity": 0.007874015748031496,
          "duration": 0.13333343333333403
        },
        {
          "name": "G4",
          "midi": 67,
          "time": 26.00001950000007,
          "velocity": 0.7244094488188977,
          "duration": 0.8809530416666718
        },
        {
          "name": "B1",
          "midi": 35,
          "time": 26.00001950000007,
          "velocity": 0.7874015748031497,
          "duration": 0.04761908333333409
        },
        {
          "name": "G3",
          "midi": 55,
          "time": 26.00001950000007,
          "velocity": 0.9291338582677166,
          "duration": 0.9761912083333364
        },
        {
          "name": "B3",
          "midi": 59,
          "time": 26.00001950000007,
          "velocity": 0.9606299212598425,
          "duration": 0.9761912083333364
        },
        {
          "name": "E4",
          "midi": 64,
          "time": 26.00001950000007,
          "velocity": 0.8818897637795275,
          "duration": 0.9761912083333364
        },
        {
          "name": "C2",
          "midi": 36,
          "time": 26.00001950000007,
          "velocity": 0.84251968503937,
          "duration": 0.05714290000000233
        },
        {
          "name": "D2",
          "midi": 38,
          "time": 26.00001950000007,
          "velocity": 0.7716535433070866,
          "duration": 0.05714290000000233
        },
        {
          "name": "F#2",
          "midi": 42,
          "time": 26.00001950000007,
          "velocity": 0.6771653543307087,
          "duration": 0.05714290000000233
        },
        {
          "name": "D4",
          "midi": 62,
          "time": 26.00001950000007,
          "velocity": 0.007874015748031496,
          "duration": 0.10000007500000407
        },
        {
          "name": "G4",
          "midi": 67,
          "time": 26.285734000000076,
          "velocity": 0.7244094488188977,
          "duration": 2.8571449999999956
        },
        {
          "name": "E2",
          "midi": 40,
          "time": 26.285734000000076,
          "velocity": 0.7874015748031497,
          "duration": 0.057142899999998775
        },
        {
          "name": "C2",
          "midi": 36,
          "time": 26.285734000000076,
          "velocity": 0.84251968503937,
          "duration": 0.07142862499999936
        },
        {
          "name": "F#2",
          "midi": 42,
          "time": 26.285734000000076,
          "velocity": 0.6771653543307087,
          "duration": 0.057142899999998775
        },
        {
          "name": "D4",
          "midi": 62,
          "time": 26.285734000000076,
          "velocity": 0.007874015748031496,
          "duration": 0.30000022500000156
        },
        {
          "name": "E2",
          "midi": 40,
          "time": 26.571448500000077,
          "velocity": 0.7874015748031497,
          "duration": 0.11904770833333345
        },
        {
          "name": "E2",
          "midi": 40,
          "time": 26.571448500000077,
          "velocity": 0.8110236220472441,
          "duration": 0.5476194583333296
        },
        {
          "name": "B2",
          "midi": 47,
          "time": 26.571448500000077,
          "velocity": 0.8740157480314961,
          "duration": 0.11904770833333345
        },
        {
          "name": "E3",
          "midi": 52,
          "time": 26.571448500000077,
          "velocity": 0.7244094488188977,
          "duration": 0.4047622083333309
        },
        {
          "name": "C2",
          "midi": 36,
          "time": 26.571448500000077,
          "velocity": 0.84251968503937,
          "duration": 0.285714500000001
        },
        {
          "name": "F#2",
          "midi": 42,
          "time": 26.571448500000077,
          "velocity": 0.6771653543307087,
          "duration": 0.04761908333333409
        },
        {
          "name": "B4",
          "midi": 71,
          "time": 26.857163000000078,
          "velocity": 0.7244094488188977,
          "duration": 0.5952385416666601
        },
        {
          "name": "E3",
          "midi": 52,
          "time": 26.857163000000078,
          "velocity": 0.8346456692913385,
          "duration": 0.5666670916666625
        },
        {
          "name": "G3",
          "midi": 55,
          "time": 26.857163000000078,
          "velocity": 0.8818897637795275,
          "duration": 0.6190480833333254
        },
        {
          "name": "B3",
          "midi": 59,
          "time": 26.857163000000078,
          "velocity": 0.9291338582677166,
          "duration": 0.4047622083333273
        },
        {
          "name": "E4",
          "midi": 64,
          "time": 26.857163000000078,
          "velocity": 0.9291338582677166,
          "duration": 0.4047622083333273
        },
        {
          "name": "D2",
          "midi": 38,
          "time": 26.857163000000078,
          "velocity": 0.7716535433070866,
          "duration": 0.0714286249999958
        },
        {
          "name": "F#2",
          "midi": 42,
          "time": 26.857163000000078,
          "velocity": 0.6771653543307087,
          "duration": 0.047619083333330536
        },
        {
          "name": "D4",
          "midi": 62,
          "time": 26.857163000000078,
          "velocity": 0.007874015748031496,
          "duration": 0.15714297499999574
        },
        {
          "name": "A4",
          "midi": 69,
          "time": 27.142877500000072,
          "velocity": 0.7244094488188977,
          "duration": 0.11904770833333345
        },
        {
          "name": "B1",
          "midi": 35,
          "time": 27.142877500000072,
          "velocity": 0.7874015748031497,
          "duration": 0.057142899999998775
        },
        {
          "name": "D#2",
          "midi": 39,
          "time": 27.142877500000072,
          "velocity": 0.3700787401574803,
          "duration": 0.11904770833333345
        },
        {
          "name": "B3",
          "midi": 59,
          "time": 27.142877500000072,
          "velocity": 0.7007874015748031,
          "duration": 0.3047621333333339
        },
        {
          "name": "E4",
          "midi": 64,
          "time": 27.142877500000072,
          "velocity": 0.5826771653543307,
          "duration": 0.40476220833333443
        },
        {
          "name": "C2",
          "midi": 36,
          "time": 27.142877500000072,
          "velocity": 0.84251968503937,
          "duration": 0.07142862499999936
        },
        {
          "name": "F#2",
          "midi": 42,
          "time": 27.142877500000072,
          "velocity": 0.6771653543307087,
          "duration": 0.047619083333330536
        },
        {
          "name": "D4",
          "midi": 62,
          "time": 27.142877500000072,
          "velocity": 0.007874015748031496,
          "duration": 0.06190480833333112
        },
        {
          "name": "B4",
          "midi": 71,
          "time": 27.28573475000007,
          "velocity": 0.7244094488188977,
          "duration": 1.928572875000004
        },
        {
          "name": "A4",
          "midi": 69,
          "time": 27.428592000000073,
          "velocity": 0.7244094488188977,
          "duration": 0.2666668666666645
        },
        {
          "name": "E2",
          "midi": 40,
          "time": 27.428592000000073,
          "velocity": 0.7874015748031497,
          "duration": 0.057142899999998775
        },
        {
          "name": "B3",
          "midi": 59,
          "time": 27.428592000000073,
          "velocity": 0.8976377952755905,
          "duration": 0.11904770833333345
        },
        {
          "name": "E4",
          "midi": 64,
          "time": 27.428592000000073,
          "velocity": 0.8818897637795275,
          "duration": 0.4047622083333309
        },
        {
          "name": "G3",
          "midi": 55,
          "time": 27.428592000000073,
          "velocity": 0.6850393700787402,
          "duration": 0.11904770833333345
        },
        {
          "name": "C2",
          "midi": 36,
          "time": 27.428592000000073,
          "velocity": 0.84251968503937,
          "duration": 0.5714289999999949
        },
        {
          "name": "F#2",
          "midi": 42,
          "time": 27.428592000000073,
          "velocity": 0.6771653543307087,
          "duration": 0.047619083333330536
        },
        {
          "name": "D4",
          "midi": 62,
          "time": 27.57144925000007,
          "velocity": 0.007874015748031496,
          "duration": 0.2809525916666651
        },
        {
          "name": "G4",
          "midi": 67,
          "time": 27.71430650000007,
          "velocity": 0.7244094488188977,
          "duration": 1.5000011250000043
        },
        {
          "name": "E2",
          "midi": 40,
          "time": 27.71430650000007,
          "velocity": 0.7874015748031497,
          "duration": 0.5333337333333326
        },
        {
          "name": "B3",
          "midi": 59,
          "time": 27.71430650000007,
          "velocity": 0.6062992125984252,
          "duration": 0.11904770833333345
        },
        {
          "name": "E4",
          "midi": 64,
          "time": 27.71430650000007,
          "velocity": 0.5826771653543307,
          "duration": 0.26190495833333216
        },
        {
          "name": "F#2",
          "midi": 42,
          "time": 27.71430650000007,
          "velocity": 0.6771653543307087,
          "duration": 0.04761908333333409
        },
        {
          "name": "E4",
          "midi": 64,
          "time": 27.85716375000007,
          "velocity": 0.7401574803149606,
          "duration": 0.26190495833333216
        },
        {
          "name": "B3",
          "midi": 59,
          "time": 27.85716375000007,
          "velocity": 0.5826771653543307,
          "duration": 0.11904770833333345
        },
        {
          "name": "B3",
          "midi": 59,
          "time": 28.000021000000068,
          "velocity": 0.7086614173228346,
          "duration": 0.11904770833333345
        },
        {
          "name": "E4",
          "midi": 64,
          "time": 28.000021000000068,
          "velocity": 0.7401574803149606,
          "duration": 0.40476220833333443
        },
        {
          "name": "D2",
          "midi": 38,
          "time": 28.000021000000068,
          "velocity": 0.7716535433070866,
          "duration": 0.04761908333333409
        },
        {
          "name": "F#2",
          "midi": 42,
          "time": 28.000021000000068,
          "velocity": 0.6771653543307087,
          "duration": 0.07142862499999936
        },
        {
          "name": "B1",
          "midi": 35,
          "time": 28.28573550000007,
          "velocity": 0.7874015748031497,
          "duration": 0.057142899999998775
        },
        {
          "name": "E3",
          "midi": 52,
          "time": 28.28573550000007,
          "velocity": 0.6141732283464567,
          "duration": 0.11904770833333345
        },
        {
          "name": "B3",
          "midi": 59,
          "time": 28.28573550000007,
          "velocity": 0.7401574803149606,
          "duration": 0.11904770833333345
        },
        {
          "name": "E4",
          "midi": 64,
          "time": 28.28573550000007,
          "velocity": 0.7559055118110236,
          "duration": 0.9142864000000053
        },
        {
          "name": "C2",
          "midi": 36,
          "time": 28.28573550000007,
          "velocity": 0.84251968503937,
          "duration": 0.057142899999998775
        },
        {
          "name": "D2",
          "midi": 38,
          "time": 28.28573550000007,
          "velocity": 0.7716535433070866,
          "duration": 0.057142899999998775
        },
        {
          "name": "F#2",
          "midi": 42,
          "time": 28.28573550000007,
          "velocity": 0.6771653543307087,
          "duration": 0.057142899999998775
        },
        {
          "name": "E2",
          "midi": 40,
          "time": 28.57145000000007,
          "velocity": 0.7874015748031497,
          "duration": 0.057142899999998775
        },
        {
          "name": "C2",
          "midi": 36,
          "time": 28.57145000000007,
          "velocity": 0.84251968503937,
          "duration": 0.07142862499999936
        },
        {
          "name": "F#2",
          "midi": 42,
          "time": 28.57145000000007,
          "velocity": 0.6771653543307087,
          "duration": 0.057142899999998775
        },
        {
          "name": "E2",
          "midi": 40,
          "time": 28.85716450000007,
          "velocity": 0.7874015748031497,
          "duration": 0.2952383166666692
        },
        {
          "name": "E3",
          "midi": 52,
          "time": 28.85716450000007,
          "velocity": 0.6614173228346457,
          "duration": 0.11904770833333345
        },
        {
          "name": "B2",
          "midi": 47,
          "time": 28.85716450000007,
          "velocity": 0.6299212598425197,
          "duration": 0.11904770833333345
        },
        {
          "name": "C2",
          "midi": 36,
          "time": 28.85716450000007,
          "velocity": 0.84251968503937,
          "duration": 0.285714500000001
        },
        {
          "name": "F#2",
          "midi": 42,
          "time": 28.85716450000007,
          "velocity": 0.6771653543307087,
          "duration": 0.04761908333333409
        },
        {
          "name": "B1",
          "midi": 35,
          "time": 29.14287900000007,
          "velocity": 0.7874015748031497,
          "duration": 0.24761923333333868
        },
        {
          "name": "B3",
          "midi": 59,
          "time": 29.14287900000007,
          "velocity": 0.8110236220472441,
          "duration": 0.119047708333337
        },
        {
          "name": "E4",
          "midi": 64,
          "time": 29.14287900000007,
          "velocity": 0.8110236220472441,
          "duration": 0.119047708333337
        },
        {
          "name": "D2",
          "midi": 38,
          "time": 29.14287900000007,
          "velocity": 0.7716535433070866,
          "duration": 0.07142862500000291
        },
        {
          "name": "F#2",
          "midi": 42,
          "time": 29.14287900000007,
          "velocity": 0.6771653543307087,
          "duration": 0.04761908333333409
        },
        {
          "name": "E2",
          "midi": 40,
          "time": 29.428593500000076,
          "velocity": 0.7874015748031497,
          "duration": 0.285714500000001
        },
        {
          "name": "B3",
          "midi": 59,
          "time": 29.428593500000076,
          "velocity": 0.7952755905511811,
          "duration": 0.11904770833333345
        },
        {
          "name": "C2",
          "midi": 36,
          "time": 29.428593500000076,
          "velocity": 0.84251968503937,
          "duration": 0.07142862499999936
        },
        {
          "name": "F#2",
          "midi": 42,
          "time": 29.428593500000076,
          "velocity": 0.6771653543307087,
          "duration": 0.04761908333333409
        },
        {
          "name": "C2",
          "midi": 36,
          "time": 29.714308000000077,
          "velocity": 0.7874015748031497,
          "duration": 0.571429000000002
        },
        {
          "name": "E3",
          "midi": 52,
          "time": 29.714308000000077,
          "velocity": 0.29133858267716534,
          "duration": 3.533335983333334
        },
        {
          "name": "C3",
          "midi": 48,
          "time": 29.714308000000077,
          "velocity": 0.6614173228346457,
          "duration": 0.119047708333337
        },
        {
          "name": "G3",
          "midi": 55,
          "time": 29.714308000000077,
          "velocity": 0.905511811023622,
          "duration": 0.119047708333337
        },
        {
          "name": "C4",
          "midi": 60,
          "time": 29.714308000000077,
          "velocity": 0.9133858267716536,
          "duration": 0.119047708333337
        },
        {
          "name": "E4",
          "midi": 64,
          "time": 29.714308000000077,
          "velocity": 0.8582677165354331,
          "duration": 0.119047708333337
        },
        {
          "name": "G4",
          "midi": 67,
          "time": 29.714308000000077,
          "velocity": 0.7401574803149606,
          "duration": 4.033336358333326
        },
        {
          "name": "E4",
          "midi": 64,
          "time": 29.714308000000077,
          "velocity": 0.7244094488188977,
          "duration": 0.404762208333338
        },
        {
          "name": "C5",
          "midi": 72,
          "time": 29.714308000000077,
          "velocity": 0.7952755905511811,
          "duration": 3.4095263666666646
        },
        {
          "name": "C2",
          "midi": 36,
          "time": 29.714308000000077,
          "velocity": 0.84251968503937,
          "duration": 0.7619053333333348
        },
        {
          "name": "F#2",
          "midi": 42,
          "time": 29.714308000000077,
          "velocity": 0.6771653543307087,
          "duration": 0.04761908333333409
        },
        {
          "name": "A3",
          "midi": 57,
          "time": 29.714308000000077,
          "velocity": 0.5669291338582677,
          "duration": 1.4285724999999978
        },
        {
          "name": "G3",
          "midi": 55,
          "time": 29.738117541666746,
          "velocity": 0.5118110236220472,
          "duration": 0.6666671666666666
        },
        {
          "name": "C4",
          "midi": 60,
          "time": 29.77145090000008,
          "velocity": 0.44881889763779526,
          "duration": 0.34761930833333565
        },
        {
          "name": "E5",
          "midi": 76,
          "time": 30.00002250000008,
          "velocity": 0.7244094488188977,
          "duration": 0.2380954166666669
        },
        {
          "name": "C4",
          "midi": 60,
          "time": 30.00002250000008,
          "velocity": 0.6299212598425197,
          "duration": 0.4047622083333309
        },
        {
          "name": "E4",
          "midi": 64,
          "time": 30.00002250000008,
          "velocity": 0.6456692913385826,
          "duration": 0.26190495833333216
        },
        {
          "name": "F#2",
          "midi": 42,
          "time": 30.00002250000008,
          "velocity": 0.6771653543307087,
          "duration": 0.04761908333333409
        },
        {
          "name": "D4",
          "midi": 62,
          "time": 30.00002250000008,
          "velocity": 0.007874015748031496,
          "duration": 0.11904770833333345
        },
        {
          "name": "E4",
          "midi": 64,
          "time": 30.14287975000008,
          "velocity": 0.8582677165354331,
          "duration": 0.26190495833333216
        },
        {
          "name": "E5",
          "midi": 76,
          "time": 30.28573700000008,
          "velocity": 0.7244094488188977,
          "duration": 0.21428587499999807
        },
        {
          "name": "G3",
          "midi": 55,
          "time": 30.28573700000008,
          "velocity": 0.6299212598425197,
          "duration": 0.4047622083333273
        },
        {
          "name": "C4",
          "midi": 60,
          "time": 30.28573700000008,
          "velocity": 0.8267716535433071,
          "duration": 0.4047622083333273
        },
        {
          "name": "E4",
          "midi": 64,
          "time": 30.28573700000008,
          "velocity": 0.8110236220472441,
          "duration": 1.2619057083333303
        },
        {
          "name": "D2",
          "midi": 38,
          "time": 30.28573700000008,
          "velocity": 0.7716535433070866,
          "duration": 0.04761908333333409
        },
        {
          "name": "F#2",
          "midi": 42,
          "time": 30.28573700000008,
          "velocity": 0.6771653543307087,
          "duration": 0.07142862499999936
        },
        {
          "name": "D4",
          "midi": 62,
          "time": 30.28573700000008,
          "velocity": 0.007874015748031496,
          "duration": 0.10952389166666521
        },
        {
          "name": "E5",
          "midi": 76,
          "time": 30.571451500000077,
          "velocity": 0.7244094488188977,
          "duration": 0.22380969166666276
        },
        {
          "name": "C2",
          "midi": 36,
          "time": 30.571451500000077,
          "velocity": 0.7874015748031497,
          "duration": 0.057142899999998775
        },
        {
          "name": "C3",
          "midi": 48,
          "time": 30.571451500000077,
          "velocity": 0.7165354330708661,
          "duration": 0.1190477083333299
        },
        {
          "name": "G3",
          "midi": 55,
          "time": 30.571451500000077,
          "velocity": 0.8582677165354331,
          "duration": 0.6904767083333319
        },
        {
          "name": "C4",
          "midi": 60,
          "time": 30.571451500000077,
          "velocity": 0.8740157480314961,
          "duration": 0.9761912083333328
        },
        {
          "name": "C2",
          "midi": 36,
          "time": 30.571451500000077,
          "velocity": 0.84251968503937,
          "duration": 0.057142899999998775
        },
        {
          "name": "D2",
          "midi": 38,
          "time": 30.571451500000077,
          "velocity": 0.7716535433070866,
          "duration": 0.057142899999998775
        },
        {
          "name": "F#2",
          "midi": 42,
          "time": 30.571451500000077,
          "velocity": 0.6771653543307087,
          "duration": 0.057142899999998775
        },
        {
          "name": "D4",
          "midi": 62,
          "time": 30.571451500000077,
          "velocity": 0.007874015748031496,
          "duration": 0.11428579999999755
        },
        {
          "name": "E5",
          "midi": 76,
          "time": 30.857166000000074,
          "velocity": 0.7244094488188977,
          "duration": 0.40476220833333443
        },
        {
          "name": "C2",
          "midi": 36,
          "time": 30.857166000000074,
          "velocity": 0.7874015748031497,
          "duration": 0.07142862499999936
        },
        {
          "name": "C2",
          "midi": 36,
          "time": 30.857166000000074,
          "velocity": 0.84251968503937,
          "duration": 0.571429000000002
        },
        {
          "name": "F#2",
          "midi": 42,
          "time": 30.857166000000074,
          "velocity": 0.6771653543307087,
          "duration": 0.057142899999998775
        },
        {
          "name": "D4",
          "midi": 62,
          "time": 30.857166000000074,
          "velocity": 0.007874015748031496,
          "duration": 0.20476205833333339
        },
        {
          "name": "C3",
          "midi": 48,
          "time": 31.142880500000075,
          "velocity": 0.6692913385826772,
          "duration": 0.11904770833333345
        },
        {
          "name": "G3",
          "midi": 55,
          "time": 31.142880500000075,
          "velocity": 0.7559055118110236,
          "duration": 0.40476220833333443
        },
        {
          "name": "C2",
          "midi": 36,
          "time": 31.142880500000075,
          "velocity": 0.84251968503937,
          "duration": 0.3190478583333345
        },
        {
          "name": "F#2",
          "midi": 42,
          "time": 31.142880500000075,
          "velocity": 0.6771653543307087,
          "duration": 0.04761908333333409
        },
        {
          "name": "E5",
          "midi": 76,
          "time": 31.428595000000076,
          "velocity": 0.7244094488188977,
          "duration": 0.2380954166666669
        },
        {
          "name": "E4",
          "midi": 64,
          "time": 31.428595000000076,
          "velocity": 0.7322834645669292,
          "duration": 0.6904767083333319
        },
        {
          "name": "G3",
          "midi": 55,
          "time": 31.428595000000076,
          "velocity": 0.7795275590551181,
          "duration": 0.6904767083333319
        },
        {
          "name": "C4",
          "midi": 60,
          "time": 31.428595000000076,
          "velocity": 0.8346456692913385,
          "duration": 0.6904767083333319
        },
        {
          "name": "D2",
          "midi": 38,
          "time": 31.428595000000076,
          "velocity": 0.7716535433070866,
          "duration": 0.07142862499999936
        },
        {
          "name": "F#2",
          "midi": 42,
          "time": 31.428595000000076,
          "velocity": 0.6771653543307087,
          "duration": 0.04761908333333409
        },
        {
          "name": "D4",
          "midi": 62,
          "time": 31.428595000000076,
          "velocity": 0.007874015748031496,
          "duration": 0.11904770833333345
        },
        {
          "name": "E5",
          "midi": 76,
          "time": 31.714309500000077,
          "velocity": 0.7244094488188977,
          "duration": 0.2952383166666621
        },
        {
          "name": "G1",
          "midi": 31,
          "time": 31.714309500000077,
          "velocity": 0.7874015748031497,
          "duration": 0.09523816666666463
        },
        {
          "name": "C2",
          "midi": 36,
          "time": 31.714309500000077,
          "velocity": 0.84251968503937,
          "duration": 0.07142862499999936
        },
        {
          "name": "F#2",
          "midi": 42,
          "time": 31.714309500000077,
          "velocity": 0.6771653543307087,
          "duration": 0.04761908333333409
        },
        {
          "name": "D4",
          "midi": 62,
          "time": 31.714309500000077,
          "velocity": 0.007874015748031496,
          "duration": 0.14761915833333106
        },
        {
          "name": "F5",
          "midi": 77,
          "time": 32.000024000000074,
          "velocity": 0.7244094488188977,
          "duration": 0.26666686666666806
        },
        {
          "name": "C2",
          "midi": 36,
          "time": 32.000024000000074,
          "velocity": 0.7874015748031497,
          "duration": 0.571429000000002
        },
        {
          "name": "C3",
          "midi": 48,
          "time": 32.000024000000074,
          "velocity": 0.6614173228346457,
          "duration": 0.11904770833333345
        },
        {
          "name": "G3",
          "midi": 55,
          "time": 32.000024000000074,
          "velocity": 0.905511811023622,
          "duration": 0.6904767083333283
        },
        {
          "name": "C4",
          "midi": 60,
          "time": 32.000024000000074,
          "velocity": 0.9133858267716536,
          "duration": 0.404762208333338
        },
        {
          "name": "E4",
          "midi": 64,
          "time": 32.000024000000074,
          "velocity": 0.8582677165354331,
          "duration": 0.404762208333338
        },
        {
          "name": "C2",
          "midi": 36,
          "time": 32.000024000000074,
          "velocity": 0.84251968503937,
          "duration": 0.5952385416666672
        },
        {
          "name": "F#2",
          "midi": 42,
          "time": 32.000024000000074,
          "velocity": 0.6771653543307087,
          "duration": 0.047619083333330536
        },
        {
          "name": "E5",
          "midi": 76,
          "time": 32.28573850000008,
          "velocity": 0.7244094488188977,
          "duration": 0.3095240416666627
        },
        {
          "name": "C4",
          "midi": 60,
          "time": 32.28573850000008,
          "velocity": 0.6299212598425197,
          "duration": 0.40476220833332377
        },
        {
          "name": "E4",
          "midi": 64,
          "time": 32.28573850000008,
          "velocity": 0.6456692913385826,
          "duration": 0.26190495833333216
        },
        {
          "name": "F#2",
          "midi": 42,
          "time": 32.28573850000008,
          "velocity": 0.6771653543307087,
          "duration": 0.047619083333330536
        },
        {
          "name": "D4",
          "midi": 62,
          "time": 32.28573850000008,
          "velocity": 0.007874015748031496,
          "duration": 0.1476191583333346
        },
        {
          "name": "E4",
          "midi": 64,
          "time": 32.42859575000008,
          "velocity": 0.8582677165354331,
          "duration": 0.26190495833332506
        },
        {
          "name": "D5",
          "midi": 74,
          "time": 32.571453000000076,
          "velocity": 0.7244094488188977,
          "duration": 0.26666686666666095
        },
        {
          "name": "G3",
          "midi": 55,
          "time": 32.571453000000076,
          "velocity": 0.6299212598425197,
          "duration": 0.4047622083333309
        },
        {
          "name": "C4",
          "midi": 60,
          "time": 32.571453000000076,
          "velocity": 0.8267716535433071,
          "duration": 0.4047622083333309
        },
        {
          "name": "E4",
          "midi": 64,
          "time": 32.571453000000076,
          "velocity": 0.8110236220472441,
          "duration": 1.1761913583333268
        },
        {
          "name": "D2",
          "midi": 38,
          "time": 32.571453000000076,
          "velocity": 0.7716535433070866,
          "duration": 0.047619083333330536
        },
        {
          "name": "F#2",
          "midi": 42,
          "time": 32.571453000000076,
          "velocity": 0.6771653543307087,
          "duration": 0.0714286249999958
        },
        {
          "name": "D4",
          "midi": 62,
          "time": 32.571453000000076,
          "velocity": 0.007874015748031496,
          "duration": 0.28095259166666153
        },
        {
          "name": "C5",
          "midi": 72,
          "time": 32.857167500000074,
          "velocity": 0.7244094488188977,
          "duration": 0.9285721249999952
        },
        {
          "name": "G1",
          "midi": 31,
          "time": 32.857167500000074,
          "velocity": 0.7874015748031497,
          "duration": 0.07142862500000291
        },
        {
          "name": "C3",
          "midi": 48,
          "time": 32.857167500000074,
          "velocity": 0.7165354330708661,
          "duration": 0.11904770833333345
        },
        {
          "name": "G3",
          "midi": 55,
          "time": 32.857167500000074,
          "velocity": 0.8582677165354331,
          "duration": 0.3904764833333374
        },
        {
          "name": "C4",
          "midi": 60,
          "time": 32.857167500000074,
          "velocity": 0.8740157480314961,
          "duration": 0.3285716750000063
        },
        {
          "name": "C2",
          "midi": 36,
          "time": 32.857167500000074,
          "velocity": 0.84251968503937,
          "duration": 0.05714290000000233
        },
        {
          "name": "D2",
          "midi": 38,
          "time": 32.857167500000074,
          "velocity": 0.7716535433070866,
          "duration": 0.05714290000000233
        },
        {
          "name": "F#2",
          "midi": 42,
          "time": 32.857167500000074,
          "velocity": 0.6771653543307087,
          "duration": 0.05714290000000233
        },
        {
          "name": "D5",
          "midi": 74,
          "time": 33.14288200000008,
          "velocity": 0.7244094488188977,
          "duration": 0.3095240416666627
        },
        {
          "name": "C2",
          "midi": 36,
          "time": 33.14288200000008,
          "velocity": 0.7874015748031497,
          "duration": 0.04761908333333764
        },
        {
          "name": "C2",
          "midi": 36,
          "time": 33.14288200000008,
          "velocity": 0.84251968503937,
          "duration": 0.07142862500000291
        },
        {
          "name": "F#2",
          "midi": 42,
          "time": 33.14288200000008,
          "velocity": 0.6771653543307087,
          "duration": 0.05714290000000233
        },
        {
          "name": "D4",
          "midi": 62,
          "time": 33.14288200000008,
          "velocity": 0.007874015748031496,
          "duration": 0.4047622083333309
        },
        {
          "name": "E5",
          "midi": 76,
          "time": 33.428596500000076,
          "velocity": 0.7244094488188977,
          "duration": 0.3714288499999938
        },
        {
          "name": "C2",
          "midi": 36,
          "time": 33.428596500000076,
          "velocity": 0.7874015748031497,
          "duration": 0.28571449999999743
        },
        {
          "name": "C3",
          "midi": 48,
          "time": 33.428596500000076,
          "velocity": 0.6692913385826772,
          "duration": 0.11904770833333345
        },
        {
          "name": "G3",
          "midi": 55,
          "time": 33.428596500000076,
          "velocity": 0.7559055118110236,
          "duration": 0.11904770833333345
        },
        {
          "name": "C2",
          "midi": 36,
          "time": 33.428596500000076,
          "velocity": 0.84251968503937,
          "duration": 0.5238099166666572
        },
        {
          "name": "F#2",
          "midi": 42,
          "time": 33.428596500000076,
          "velocity": 0.6771653543307087,
          "duration": 0.047619083333330536
        },
        {
          "name": "E4",
          "midi": 64,
          "time": 33.71431100000007,
          "velocity": 0.7322834645669292,
          "duration": 0.11904770833332634
        },
        {
          "name": "G3",
          "midi": 55,
          "time": 33.71431100000007,
          "velocity": 0.7795275590551181,
          "duration": 0.11904770833332634
        },
        {
          "name": "C4",
          "midi": 60,
          "time": 33.71431100000007,
          "velocity": 0.8346456692913385,
          "duration": 0.11904770833332634
        },
        {
          "name": "D2",
          "midi": 38,
          "time": 33.71431100000007,
          "velocity": 0.7716535433070866,
          "duration": 0.0714286249999958
        },
        {
          "name": "F#2",
          "midi": 42,
          "time": 33.71431100000007,
          "velocity": 0.6771653543307087,
          "duration": 0.047619083333330536
        },
        {
          "name": "D5",
          "midi": 74,
          "time": 33.857168250000065,
          "velocity": 0.7244094488188977,
          "duration": 0.13809534166666992
        },
        {
          "name": "C5",
          "midi": 72,
          "time": 34.00002550000007,
          "velocity": 0.7244094488188977,
          "duration": 0.28095259166666153
        },
        {
          "name": "G1",
          "midi": 31,
          "time": 34.00002550000007,
          "velocity": 0.7874015748031497,
          "duration": 0.05714289999999522
        },
        {
          "name": "C2",
          "midi": 36,
          "time": 34.00002550000007,
          "velocity": 0.84251968503937,
          "duration": 0.0714286249999958
        },
        {
          "name": "F#2",
          "midi": 42,
          "time": 34.00002550000007,
          "velocity": 0.6771653543307087,
          "duration": 0.047619083333330536
        },
        {
          "name": "C2",
          "midi": 36,
          "time": 34.28574000000007,
          "velocity": 0.7874015748031497,
          "duration": 0.5714289999999949
        },
        {
          "name": "E4",
          "midi": 64,
          "time": 34.28574000000007,
          "velocity": 0.5905511811023622,
          "duration": 0.11904770833333345
        },
        {
          "name": "C4",
          "midi": 60,
          "time": 34.28574000000007,
          "velocity": 0.84251968503937,
          "duration": 0.11904770833333345
        },
        {
          "name": "G4",
          "midi": 67,
          "time": 34.28574000000007,
          "velocity": 0.7952755905511811,
          "duration": 4.247622233333274
        },
        {
          "name": "E4",
          "midi": 64,
          "time": 34.28574000000007,
          "velocity": 0.7401574803149606,
          "duration": 0.4047622083333309
        },
        {
          "name": "C5",
          "midi": 72,
          "time": 34.28574000000007,
          "velocity": 0.7952755905511811,
          "duration": 4.190479333333279
        },
        {
          "name": "C2",
          "midi": 36,
          "time": 34.28574000000007,
          "velocity": 0.84251968503937,
          "duration": 0.6047623583333248
        },
        {
          "name": "F#2",
          "midi": 42,
          "time": 34.28574000000007,
          "velocity": 0.6771653543307087,
          "duration": 0.047619083333330536
        },
        {
          "name": "E4",
          "midi": 64,
          "time": 34.571454500000065,
          "velocity": 0.6062992125984252,
          "duration": 0.26190495833333216
        },
        {
          "name": "F#2",
          "midi": 42,
          "time": 34.571454500000065,
          "velocity": 0.6771653543307087,
          "duration": 0.047619083333330536
        },
        {
          "name": "E4",
          "midi": 64,
          "time": 34.714311750000064,
          "velocity": 0.7244094488188977,
          "duration": 0.26190495833332506
        },
        {
          "name": "C4",
          "midi": 60,
          "time": 34.85716900000006,
          "velocity": 0.8031496062992126,
          "duration": 0.11904770833332634
        },
        {
          "name": "E4",
          "midi": 64,
          "time": 34.85716900000006,
          "velocity": 0.6062992125984252,
          "duration": 0.40476220833332377
        },
        {
          "name": "G3",
          "midi": 55,
          "time": 34.85716900000006,
          "velocity": 0.7165354330708661,
          "duration": 0.11904770833332634
        },
        {
          "name": "D2",
          "midi": 38,
          "time": 34.85716900000006,
          "velocity": 0.7716535433070866,
          "duration": 0.047619083333330536
        },
        {
          "name": "F#2",
          "midi": 42,
          "time": 34.85716900000006,
          "velocity": 0.6771653543307087,
          "duration": 0.0714286249999958
        },
        {
          "name": "G1",
          "midi": 31,
          "time": 35.14288350000005,
          "velocity": 0.7874015748031497,
          "duration": 0.05714290000000233
        },
        {
          "name": "G3",
          "midi": 55,
          "time": 35.14288350000005,
          "velocity": 0.3858267716535433,
          "duration": 0.0809524416666676
        },
        {
          "name": "C4",
          "midi": 60,
          "time": 35.14288350000005,
          "velocity": 0.5433070866141733,
          "duration": 0.11904770833333345
        },
        {
          "name": "E3",
          "midi": 52,
          "time": 35.14288350000005,
          "velocity": 0.4015748031496063,
          "duration": 1.3095247916666395
        },
        {
          "name": "G3",
          "midi": 55,
          "time": 35.14288350000005,
          "velocity": 0.7952755905511811,
          "duration": 0.11904770833333345
        },
        {
          "name": "C4",
          "midi": 60,
          "time": 35.14288350000005,
          "velocity": 0.9291338582677166,
          "duration": 0.9142863999999875
        },
        {
          "name": "E4",
          "midi": 64,
          "time": 35.14288350000005,
          "velocity": 0.8582677165354331,
          "duration": 0.9761912083333186
        },
        {
          "name": "C2",
          "midi": 36,
          "time": 35.14288350000005,
          "velocity": 0.84251968503937,
          "duration": 0.05714290000000233
        },
        {
          "name": "D2",
          "midi": 38,
          "time": 35.14288350000005,
          "velocity": 0.7716535433070866,
          "duration": 0.05714290000000233
        },
        {
          "name": "F#2",
          "midi": 42,
          "time": 35.14288350000005,
          "velocity": 0.6771653543307087,
          "duration": 0.05714290000000233
        },
        {
          "name": "C2",
          "midi": 36,
          "time": 35.42859800000005,
          "velocity": 0.7874015748031497,
          "duration": 0.07142862500000291
        },
        {
          "name": "C2",
          "midi": 36,
          "time": 35.42859800000005,
          "velocity": 0.84251968503937,
          "duration": 0.5714289999999949
        },
        {
          "name": "F#2",
          "midi": 42,
          "time": 35.42859800000005,
          "velocity": 0.6771653543307087,
          "duration": 0.05714290000000233
        },
        {
          "name": "E5",
          "midi": 76,
          "time": 35.714312500000055,
          "velocity": 0.7244094488188977,
          "duration": 0.2190477833333233
        },
        {
          "name": "C3",
          "midi": 48,
          "time": 35.714312500000055,
          "velocity": 0.5826771653543307,
          "duration": 0.11904770833332634
        },
        {
          "name": "C2",
          "midi": 36,
          "time": 35.714312500000055,
          "velocity": 0.84251968503937,
          "duration": 0.3190478583333203
        },
        {
          "name": "F#2",
          "midi": 42,
          "time": 35.714312500000055,
          "velocity": 0.6771653543307087,
          "duration": 0.047619083333330536
        },
        {
          "name": "D4",
          "midi": 62,
          "time": 35.714312500000055,
          "velocity": 0.007874015748031496,
          "duration": 0.10952389166666165
        },
        {
          "name": "E5",
          "midi": 76,
          "time": 36.000027000000046,
          "velocity": 0.7244094488188977,
          "duration": 0.49523846666664184
        },
        {
          "name": "C4",
          "midi": 60,
          "time": 36.000027000000046,
          "velocity": 0.889763779527559,
          "duration": 0.11904770833332634
        },
        {
          "name": "E4",
          "midi": 64,
          "time": 36.000027000000046,
          "velocity": 0.8267716535433071,
          "duration": 0.6904767083333141
        },
        {
          "name": "G3",
          "midi": 55,
          "time": 36.000027000000046,
          "velocity": 0.7244094488188977,
          "duration": 0.11904770833332634
        },
        {
          "name": "D2",
          "midi": 38,
          "time": 36.000027000000046,
          "velocity": 0.7716535433070866,
          "duration": 0.0714286249999958
        },
        {
          "name": "F#2",
          "midi": 42,
          "time": 36.000027000000046,
          "velocity": 0.6771653543307087,
          "duration": 0.047619083333330536
        },
        {
          "name": "D4",
          "midi": 62,
          "time": 36.000027000000046,
          "velocity": 0.007874015748031496,
          "duration": 0.24761923333332447
        },
        {
          "name": "G3",
          "midi": 55,
          "time": 36.00955081666671,
          "velocity": 0.44881889763779526,
          "duration": 0.395238391666652
        },
        {
          "name": "G1",
          "midi": 31,
          "time": 36.285741500000036,
          "velocity": 0.7874015748031497,
          "duration": 0.0714286249999958
        },
        {
          "name": "G3",
          "midi": 55,
          "time": 36.285741500000036,
          "velocity": 0.5354330708661418,
          "duration": 0.20000014999998683
        },
        {
          "name": "C2",
          "midi": 36,
          "time": 36.285741500000036,
          "velocity": 0.84251968503937,
          "duration": 0.0714286249999958
        },
        {
          "name": "F#2",
          "midi": 42,
          "time": 36.285741500000036,
          "velocity": 0.6771653543307087,
          "duration": 0.047619083333330536
        },
        {
          "name": "G3",
          "midi": 55,
          "time": 36.547646458333354,
          "velocity": 0.5433070866141733,
          "duration": 0.14285725000000582
        },
        {
          "name": "C4",
          "midi": 60,
          "time": 36.547646458333354,
          "velocity": 0.3937007874015748,
          "duration": 0.14285725000000582
        },
        {
          "name": "F5",
          "midi": 77,
          "time": 36.571456000000026,
          "velocity": 0.7244094488188977,
          "duration": 0.5142861000000067
        },
        {
          "name": "C2",
          "midi": 36,
          "time": 36.571456000000026,
          "velocity": 0.7874015748031497,
          "duration": 0.571429000000002
        },
        {
          "name": "G3",
          "midi": 55,
          "time": 36.571456000000026,
          "velocity": 0.6141732283464567,
          "duration": 0.6904767083333283
        },
        {
          "name": "C4",
          "midi": 60,
          "time": 36.571456000000026,
          "velocity": 0.7874015748031497,
          "duration": 0.404762208333338
        },
        {
          "name": "E4",
          "midi": 64,
          "time": 36.571456000000026,
          "velocity": 0.7165354330708661,
          "duration": 0.404762208333338
        },
        {
          "name": "C2",
          "midi": 36,
          "time": 36.571456000000026,
          "velocity": 0.84251968503937,
          "duration": 0.833333958333327
        },
        {
          "name": "F#2",
          "midi": 42,
          "time": 36.571456000000026,
          "velocity": 0.6771653543307087,
          "duration": 0.047619083333330536
        },
        {
          "name": "D4",
          "midi": 62,
          "time": 36.571456000000026,
          "velocity": 0.007874015748031496,
          "duration": 0.25714305000000337
        },
        {
          "name": "C4",
          "midi": 60,
          "time": 36.85717050000003,
          "velocity": 0.5433070866141733,
          "duration": 0.40476220833332377
        },
        {
          "name": "E4",
          "midi": 64,
          "time": 36.85717050000003,
          "velocity": 0.5590551181102362,
          "duration": 0.26190495833333216
        },
        {
          "name": "F#2",
          "midi": 42,
          "time": 36.85717050000003,
          "velocity": 0.6771653543307087,
          "duration": 0.047619083333330536
        },
        {
          "name": "E4",
          "midi": 64,
          "time": 37.00002775000003,
          "velocity": 0.8267716535433071,
          "duration": 0.5476194583333296
        },
        {
          "name": "E5",
          "midi": 76,
          "time": 37.14288500000003,
          "velocity": 0.7244094488188977,
          "duration": 0.18571442499999335
        },
        {
          "name": "G3",
          "midi": 55,
          "time": 37.14288500000003,
          "velocity": 0.6299212598425197,
          "duration": 0.4047622083333309
        },
        {
          "name": "C4",
          "midi": 60,
          "time": 37.14288500000003,
          "velocity": 0.7795275590551181,
          "duration": 0.4047622083333309
        },
        {
          "name": "D2",
          "midi": 38,
          "time": 37.14288500000003,
          "velocity": 0.7716535433070866,
          "duration": 0.047619083333330536
        },
        {
          "name": "F#2",
          "midi": 42,
          "time": 37.14288500000003,
          "velocity": 0.6771653543307087,
          "duration": 0.0714286249999958
        },
        {
          "name": "D4",
          "midi": 62,
          "time": 37.14288500000003,
          "velocity": 0.007874015748031496,
          "duration": 0.09523816666666107
        },
        {
          "name": "E5",
          "midi": 76,
          "time": 37.42859950000002,
          "velocity": 0.7244094488188977,
          "duration": 0.22380969166667342
        },
        {
          "name": "G1",
          "midi": 31,
          "time": 37.42859950000002,
          "velocity": 0.7874015748031497,
          "duration": 0.07142862500000291
        },
        {
          "name": "G3",
          "midi": 55,
          "time": 37.42859950000002,
          "velocity": 0.7716535433070866,
          "duration": 0.6904767083333354
        },
        {
          "name": "C4",
          "midi": 60,
          "time": 37.42859950000002,
          "velocity": 0.905511811023622,
          "duration": 0.9761912083333257
        },
        {
          "name": "E4",
          "midi": 64,
          "time": 37.42859950000002,
          "velocity": 0.8031496062992126,
          "duration": 0.9761912083333257
        },
        {
          "name": "C2",
          "midi": 36,
          "time": 37.42859950000002,
          "velocity": 0.84251968503937,
          "duration": 0.05714290000000233
        },
        {
          "name": "D2",
          "midi": 38,
          "time": 37.42859950000002,
          "velocity": 0.7716535433070866,
          "duration": 0.05714290000000233
        },
        {
          "name": "F#2",
          "midi": 42,
          "time": 37.42859950000002,
          "velocity": 0.6771653543307087,
          "duration": 0.05714290000000233
        },
        {
          "name": "D4",
          "midi": 62,
          "time": 37.42859950000002,
          "velocity": 0.007874015748031496,
          "duration": 0.11428580000000466
        },
        {
          "name": "D5",
          "midi": 74,
          "time": 37.71431400000002,
          "velocity": 0.7244094488188977,
          "duration": 0.4809527416666626
        },
        {
          "name": "C2",
          "midi": 36,
          "time": 37.71431400000002,
          "velocity": 0.7874015748031497,
          "duration": 0.047619083333330536
        },
        {
          "name": "C2",
          "midi": 36,
          "time": 37.71431400000002,
          "velocity": 0.84251968503937,
          "duration": 0.0714286249999958
        },
        {
          "name": "F#2",
          "midi": 42,
          "time": 37.71431400000002,
          "velocity": 0.6771653543307087,
          "duration": 0.05714289999999522
        },
        {
          "name": "D4",
          "midi": 62,
          "time": 37.71431400000002,
          "velocity": 0.007874015748031496,
          "duration": 0.24285732499999568
        },
        {
          "name": "C2",
          "midi": 36,
          "time": 38.00002850000002,
          "velocity": 0.7874015748031497,
          "duration": 0.28571449999999743
        },
        {
          "name": "C3",
          "midi": 48,
          "time": 38.00002850000002,
          "velocity": 0.7007874015748031,
          "duration": 0.11904770833333345
        },
        {
          "name": "G3",
          "midi": 55,
          "time": 38.00002850000002,
          "velocity": 0.7244094488188977,
          "duration": 0.40476220833332377
        },
        {
          "name": "C2",
          "midi": 36,
          "time": 38.00002850000002,
          "velocity": 0.84251968503937,
          "duration": 0.2952383166666621
        },
        {
          "name": "F#2",
          "midi": 42,
          "time": 38.00002850000002,
          "velocity": 0.6771653543307087,
          "duration": 0.047619083333330536
        },
        {
          "name": "C5",
          "midi": 72,
          "time": 38.28574300000002,
          "velocity": 0.7244094488188977,
          "duration": 0.21428587499999452
        },
        {
          "name": "G1",
          "midi": 31,
          "time": 38.28574300000002,
          "velocity": 0.7874015748031497,
          "duration": 0.24761923333332447
        },
        {
          "name": "G3",
          "midi": 55,
          "time": 38.28574300000002,
          "velocity": 0.7559055118110236,
          "duration": 0.35714312499998613
        },
        {
          "name": "C4",
          "midi": 60,
          "time": 38.28574300000002,
          "velocity": 0.8740157480314961,
          "duration": 0.27142877499998974
        },
        {
          "name": "E4",
          "midi": 64,
          "time": 38.28574300000002,
          "velocity": 0.7086614173228346,
          "duration": 0.2380954166666598
        },
        {
          "name": "D2",
          "midi": 38,
          "time": 38.28574300000002,
          "velocity": 0.7716535433070866,
          "duration": 0.0714286249999958
        },
        {
          "name": "F#2",
          "midi": 42,
          "time": 38.28574300000002,
          "velocity": 0.6771653543307087,
          "duration": 0.047619083333330536
        },
        {
          "name": "D4",
          "midi": 62,
          "time": 38.28574300000002,
          "velocity": 0.007874015748031496,
          "duration": 0.09523816666666107
        },
        {
          "name": "C5",
          "midi": 72,
          "time": 38.57145750000001,
          "velocity": 0.7244094488188977,
          "duration": 0.5380956416666649
        },
        {
          "name": "C2",
          "midi": 36,
          "time": 38.57145750000001,
          "velocity": 0.7874015748031497,
          "duration": 0.0714286249999958
        },
        {
          "name": "C4",
          "midi": 60,
          "time": 38.57145750000001,
          "velocity": 0.6141732283464567,
          "duration": 0.11904770833332634
        },
        {
          "name": "C2",
          "midi": 36,
          "time": 38.57145750000001,
          "velocity": 0.84251968503937,
          "duration": 0.21428587499999452
        },
        {
          "name": "F#2",
          "midi": 42,
          "time": 38.57145750000001,
          "velocity": 0.6771653543307087,
          "duration": 0.047619083333330536
        },
        {
          "name": "D4",
          "midi": 62,
          "time": 38.57145750000001,
          "velocity": 0.007874015748031496,
          "duration": 0.27142877499999685
        },
        {
          "name": "G1",
          "midi": 31,
          "time": 38.857172000000006,
          "velocity": 0.7874015748031497,
          "duration": 0.5809528166666595
        },
        {
          "name": "G2",
          "midi": 43,
          "time": 38.857172000000006,
          "velocity": 0.3937007874015748,
          "duration": 0.11904770833333345
        },
        {
          "name": "D3",
          "midi": 50,
          "time": 38.857172000000006,
          "velocity": 0.6692913385826772,
          "duration": 0.11904770833333345
        },
        {
          "name": "G3",
          "midi": 55,
          "time": 38.857172000000006,
          "velocity": 0.5826771653543307,
          "duration": 0.11904770833333345
        },
        {
          "name": "B3",
          "midi": 59,
          "time": 38.857172000000006,
          "velocity": 0.8110236220472441,
          "duration": 0.11904770833333345
        },
        {
          "name": "B4",
          "midi": 71,
          "time": 38.857172000000006,
          "velocity": 0.6535433070866141,
          "duration": 1.6190488333333093
        },
        {
          "name": "G4",
          "midi": 67,
          "time": 38.857172000000006,
          "velocity": 0.7086614173228346,
          "duration": 3.0952404166666128
        },
        {
          "name": "D4",
          "midi": 62,
          "time": 38.857172000000006,
          "velocity": 0.6692913385826772,
          "duration": 0.5476194583333296
        },
        {
          "name": "C2",
          "midi": 36,
          "time": 38.857172000000006,
          "velocity": 0.84251968503937,
          "duration": 0.5714289999999949
        },
        {
          "name": "F#2",
          "midi": 42,
          "time": 38.857172000000006,
          "velocity": 0.6771653543307087,
          "duration": 0.047619083333330536
        },
        {
          "name": "A3",
          "midi": 57,
          "time": 38.857172000000006,
          "velocity": 0.5511811023622047,
          "duration": 1.7714298999999727
        },
        {
          "name": "B4",
          "midi": 71,
          "time": 39.1428865,
          "velocity": 0.7244094488188977,
          "duration": 3.580955066666604
        },
        {
          "name": "F#2",
          "midi": 42,
          "time": 39.1428865,
          "velocity": 0.6771653543307087,
          "duration": 0.047619083333330536
        },
        {
          "name": "D4",
          "midi": 62,
          "time": 39.1428865,
          "velocity": 0.007874015748031496,
          "duration": 0.6666671666666488
        },
        {
          "name": "D4",
          "midi": 62,
          "time": 39.28574375,
          "velocity": 0.6456692913385826,
          "duration": 1.4047629583333077
        },
        {
          "name": "B3",
          "midi": 59,
          "time": 39.28574375,
          "velocity": 0.6062992125984252,
          "duration": 0.11904770833333345
        },
        {
          "name": "G3",
          "midi": 55,
          "time": 39.428601,
          "velocity": 0.6850393700787402,
          "duration": 0.11904770833332634
        },
        {
          "name": "D2",
          "midi": 38,
          "time": 39.428601,
          "velocity": 0.7716535433070866,
          "duration": 0.047619083333330536
        },
        {
          "name": "F#2",
          "midi": 42,
          "time": 39.428601,
          "velocity": 0.6771653543307087,
          "duration": 0.0714286249999958
        },
        {
          "name": "G1",
          "midi": 31,
          "time": 39.71431549999999,
          "velocity": 0.7874015748031497,
          "duration": 0.033333358333329954
        },
        {
          "name": "G3",
          "midi": 55,
          "time": 39.71431549999999,
          "velocity": 0.6299212598425197,
          "duration": 0.11904770833332634
        },
        {
          "name": "B3",
          "midi": 59,
          "time": 39.71431549999999,
          "velocity": 0.7401574803149606,
          "duration": 0.11904770833332634
        },
        {
          "name": "C2",
          "midi": 36,
          "time": 39.71431549999999,
          "velocity": 0.84251968503937,
          "duration": 0.05714289999999522
        },
        {
          "name": "D2",
          "midi": 38,
          "time": 39.71431549999999,
          "velocity": 0.7716535433070866,
          "duration": 0.05714289999999522
        },
        {
          "name": "F#2",
          "midi": 42,
          "time": 39.71431549999999,
          "velocity": 0.6771653543307087,
          "duration": 0.05714289999999522
        },
        {
          "name": "G1",
          "midi": 31,
          "time": 40.00002999999998,
          "velocity": 0.7874015748031497,
          "duration": 0.033333358333329954
        },
        {
          "name": "C2",
          "midi": 36,
          "time": 40.00002999999998,
          "velocity": 0.84251968503937,
          "duration": 0.0714286249999958
        },
        {
          "name": "F#2",
          "midi": 42,
          "time": 40.00002999999998,
          "velocity": 0.6771653543307087,
          "duration": 0.05714289999999522
        },
        {
          "name": "G1",
          "midi": 31,
          "time": 40.28574449999998,
          "velocity": 0.7874015748031497,
          "duration": 0.2952383166666692
        },
        {
          "name": "G3",
          "midi": 55,
          "time": 40.28574449999998,
          "velocity": 0.6692913385826772,
          "duration": 0.11904770833333345
        },
        {
          "name": "B3",
          "midi": 59,
          "time": 40.28574449999998,
          "velocity": 0.6141732283464567,
          "duration": 0.11904770833333345
        },
        {
          "name": "C2",
          "midi": 36,
          "time": 40.28574449999998,
          "velocity": 0.84251968503937,
          "duration": 0.28571450000000453
        },
        {
          "name": "F#2",
          "midi": 42,
          "time": 40.28574449999998,
          "velocity": 0.6771653543307087,
          "duration": 0.047619083333330536
        },
        {
          "name": "B1",
          "midi": 35,
          "time": 40.57145899999998,
          "velocity": 0.7874015748031497,
          "duration": 0.2857144999999903
        },
        {
          "name": "G3",
          "midi": 55,
          "time": 40.57145899999998,
          "velocity": 0.7007874015748031,
          "duration": 0.11904770833332634
        },
        {
          "name": "B3",
          "midi": 59,
          "time": 40.57145899999998,
          "velocity": 0.8110236220472441,
          "duration": 0.11904770833332634
        },
        {
          "name": "D4",
          "midi": 62,
          "time": 40.57145899999998,
          "velocity": 0.7952755905511811,
          "duration": 0.6523814416666482
        },
        {
          "name": "D2",
          "midi": 38,
          "time": 40.57145899999998,
          "velocity": 0.7716535433070866,
          "duration": 0.0714286249999958
        },
        {
          "name": "F#2",
          "midi": 42,
          "time": 40.57145899999998,
          "velocity": 0.6771653543307087,
          "duration": 0.047619083333330536
        },
        {
          "name": "D2",
          "midi": 38,
          "time": 40.85717349999997,
          "velocity": 0.7874015748031497,
          "duration": 0.28571449999999743
        },
        {
          "name": "G3",
          "midi": 55,
          "time": 40.85717349999997,
          "velocity": 0.6299212598425197,
          "duration": 0.11904770833332634
        },
        {
          "name": "B3",
          "midi": 59,
          "time": 40.85717349999997,
          "velocity": 0.7322834645669292,
          "duration": 0.11904770833332634
        },
        {
          "name": "C2",
          "midi": 36,
          "time": 40.85717349999997,
          "velocity": 0.84251968503937,
          "duration": 0.0714286249999958
        },
        {
          "name": "F#2",
          "midi": 42,
          "time": 40.85717349999997,
          "velocity": 0.6771653543307087,
          "duration": 0.047619083333330536
        },
        {
          "name": "E2",
          "midi": 40,
          "time": 41.14288799999997,
          "velocity": 0.7874015748031497,
          "duration": 0.11904770833332634
        },
        {
          "name": "B2",
          "midi": 47,
          "time": 41.14288799999997,
          "velocity": 0.7559055118110236,
          "duration": 0.11904770833332634
        },
        {
          "name": "E3",
          "midi": 52,
          "time": 41.14288799999997,
          "velocity": 0.7637795275590551,
          "duration": 0.11904770833332634
        },
        {
          "name": "B3",
          "midi": 59,
          "time": 41.14288799999997,
          "velocity": 0.8818897637795275,
          "duration": 0.11904770833332634
        },
        {
          "name": "D#2",
          "midi": 39,
          "time": 41.14288799999997,
          "velocity": 0.5039370078740157,
          "duration": 0.11904770833332634
        },
        {
          "name": "E4",
          "midi": 64,
          "time": 41.14288799999997,
          "velocity": 0.7559055118110236,
          "duration": 0.11904770833332634
        },
        {
          "name": "G3",
          "midi": 55,
          "time": 41.14288799999997,
          "velocity": 0.6141732283464567,
          "duration": 0.11904770833332634
        },
        {
          "name": "E2",
          "midi": 40,
          "time": 41.14288799999997,
          "velocity": 0.3700787401574803,
          "duration": 0.8428577749999775
        },
        {
          "name": "C2",
          "midi": 36,
          "time": 41.14288799999997,
          "velocity": 0.84251968503937,
          "duration": 0.5714289999999878
        },
        {
          "name": "F#2",
          "midi": 42,
          "time": 41.14288799999997,
          "velocity": 0.6771653543307087,
          "duration": 0.047619083333330536
        },
        {
          "name": "B3",
          "midi": 59,
          "time": 41.42860249999996,
          "velocity": 0.5826771653543307,
          "duration": 0.11904770833333345
        },
        {
          "name": "E4",
          "midi": 64,
          "time": 41.42860249999996,
          "velocity": 0.6062992125984252,
          "duration": 0.11904770833333345
        },
        {
          "name": "F#2",
          "midi": 42,
          "time": 41.42860249999996,
          "velocity": 0.6771653543307087,
          "duration": 0.047619083333330536
        },
        {
          "name": "E4",
          "midi": 64,
          "time": 41.57145974999996,
          "velocity": 0.7795275590551181,
          "duration": 0.11904770833333345
        },
        {
          "name": "B3",
          "midi": 59,
          "time": 41.57145974999996,
          "velocity": 0.6614173228346457,
          "duration": 0.11904770833333345
        },
        {
          "name": "G4",
          "midi": 67,
          "time": 41.71431699999996,
          "velocity": 0.7244094488188977,
          "duration": 0.5809528166666524
        },
        {
          "name": "G3",
          "midi": 55,
          "time": 41.71431699999996,
          "velocity": 0.5590551181102362,
          "duration": 0.11904770833332634
        },
        {
          "name": "D2",
          "midi": 38,
          "time": 41.71431699999996,
          "velocity": 0.7716535433070866,
          "duration": 0.047619083333330536
        },
        {
          "name": "F#2",
          "midi": 42,
          "time": 41.71431699999996,
          "velocity": 0.6771653543307087,
          "duration": 0.0714286249999958
        },
        {
          "name": "D4",
          "midi": 62,
          "time": 41.71431699999996,
          "velocity": 0.007874015748031496,
          "duration": 0.11904770833332634
        },
        {
          "name": "G4",
          "midi": 67,
          "time": 42.00003149999995,
          "velocity": 0.7244094488188977,
          "duration": 0.7238100666666583
        },
        {
          "name": "B1",
          "midi": 35,
          "time": 42.00003149999995,
          "velocity": 0.7874015748031497,
          "duration": 0.047619083333330536
        },
        {
          "name": "E3",
          "midi": 52,
          "time": 42.00003149999995,
          "velocity": 0.7244094488188977,
          "duration": 0.11904770833332634
        },
        {
          "name": "G3",
          "midi": 55,
          "time": 42.00003149999995,
          "velocity": 0.7795275590551181,
          "duration": 0.11904770833332634
        },
        {
          "name": "B3",
          "midi": 59,
          "time": 42.00003149999995,
          "velocity": 0.8818897637795275,
          "duration": 0.11904770833332634
        },
        {
          "name": "E4",
          "midi": 64,
          "time": 42.00003149999995,
          "velocity": 0.7086614173228346,
          "duration": 0.11904770833332634
        },
        {
          "name": "C2",
          "midi": 36,
          "time": 42.00003149999995,
          "velocity": 0.84251968503937,
          "duration": 0.05714289999999522
        },
        {
          "name": "D2",
          "midi": 38,
          "time": 42.00003149999995,
          "velocity": 0.7716535433070866,
          "duration": 0.05714289999999522
        },
        {
          "name": "F#2",
          "midi": 42,
          "time": 42.00003149999995,
          "velocity": 0.6771653543307087,
          "duration": 0.05714289999999522
        },
        {
          "name": "D4",
          "midi": 62,
          "time": 42.00003149999995,
          "velocity": 0.007874015748031496,
          "duration": 0.1476191583333275
        },
        {
          "name": "A4",
          "midi": 69,
          "time": 42.285745999999946,
          "velocity": 0.7244094488188977,
          "duration": 0.27142877499999685
        },
        {
          "name": "E2",
          "midi": 40,
          "time": 42.285745999999946,
          "velocity": 0.7874015748031497,
          "duration": 0.05714289999999522
        },
        {
          "name": "C2",
          "midi": 36,
          "time": 42.285745999999946,
          "velocity": 0.84251968503937,
          "duration": 0.0714286249999958
        },
        {
          "name": "F#2",
          "midi": 42,
          "time": 42.285745999999946,
          "velocity": 0.6771653543307087,
          "duration": 0.05714289999999522
        },
        {
          "name": "D4",
          "midi": 62,
          "time": 42.285745999999946,
          "velocity": 0.007874015748031496,
          "duration": 0.13809534166666282
        },
        {
          "name": "B4",
          "midi": 71,
          "time": 42.571460499999944,
          "velocity": 0.7244094488188977,
          "duration": 0.3095240416666627
        },
        {
          "name": "E2",
          "midi": 40,
          "time": 42.571460499999944,
          "velocity": 0.7874015748031497,
          "duration": 0.5476194583333296
        },
        {
          "name": "B2",
          "midi": 47,
          "time": 42.571460499999944,
          "velocity": 0.5196850393700787,
          "duration": 0.11904770833333345
        },
        {
          "name": "G3",
          "midi": 55,
          "time": 42.571460499999944,
          "velocity": 0.8346456692913385,
          "duration": 0.11904770833333345
        },
        {
          "name": "B3",
          "midi": 59,
          "time": 42.571460499999944,
          "velocity": 0.7165354330708661,
          "duration": 0.11904770833333345
        },
        {
          "name": "E4",
          "midi": 64,
          "time": 42.571460499999944,
          "velocity": 0.6299212598425197,
          "duration": 0.11904770833333345
        },
        {
          "name": "C2",
          "midi": 36,
          "time": 42.571460499999944,
          "velocity": 0.84251968503937,
          "duration": 0.28571449999999743
        },
        {
          "name": "F#2",
          "midi": 42,
          "time": 42.571460499999944,
          "velocity": 0.6771653543307087,
          "duration": 0.047619083333330536
        },
        {
          "name": "D4",
          "midi": 62,
          "time": 42.571460499999944,
          "velocity": 0.007874015748031496,
          "duration": 0.1571429749999993
        },
        {
          "name": "G4",
          "midi": 67,
          "time": 42.85717499999994,
          "velocity": 0.7244094488188977,
          "duration": 0.20000015000000104
        },
        {
          "name": "B3",
          "midi": 59,
          "time": 42.85717499999994,
          "velocity": 0.8346456692913385,
          "duration": 0.11904770833333345
        },
        {
          "name": "E4",
          "midi": 64,
          "time": 42.85717499999994,
          "velocity": 0.7401574803149606,
          "duration": 0.11904770833333345
        },
        {
          "name": "G4",
          "midi": 67,
          "time": 42.85717499999994,
          "velocity": 0.6456692913385826,
          "duration": 0.5571432749999943
        },
        {
          "name": "B4",
          "midi": 71,
          "time": 42.85717499999994,
          "velocity": 0.8582677165354331,
          "duration": 0.5714289999999949
        },
        {
          "name": "D2",
          "midi": 38,
          "time": 42.85717499999994,
          "velocity": 0.7716535433070866,
          "duration": 0.0714286249999958
        },
        {
          "name": "F#2",
          "midi": 42,
          "time": 42.85717499999994,
          "velocity": 0.6771653543307087,
          "duration": 0.047619083333330536
        },
        {
          "name": "D4",
          "midi": 62,
          "time": 42.85717499999994,
          "velocity": 0.007874015748031496,
          "duration": 0.10000007499999697
        },
        {
          "name": "E2",
          "midi": 40,
          "time": 43.00003224999994,
          "velocity": 0.3700787401574803,
          "duration": 0.11904770833333345
        },
        {
          "name": "G4",
          "midi": 67,
          "time": 43.14288949999994,
          "velocity": 0.7244094488188977,
          "duration": 0.5666670916666661
        },
        {
          "name": "B1",
          "midi": 35,
          "time": 43.14288949999994,
          "velocity": 0.7874015748031497,
          "duration": 0.20000014999999394
        },
        {
          "name": "B3",
          "midi": 59,
          "time": 43.14288949999994,
          "velocity": 0.7401574803149606,
          "duration": 0.11904770833332634
        },
        {
          "name": "E4",
          "midi": 64,
          "time": 43.14288949999994,
          "velocity": 0.6692913385826772,
          "duration": 0.11904770833332634
        },
        {
          "name": "C2",
          "midi": 36,
          "time": 43.14288949999994,
          "velocity": 0.84251968503937,
          "duration": 0.0714286249999958
        },
        {
          "name": "F#2",
          "midi": 42,
          "time": 43.14288949999994,
          "velocity": 0.6771653543307087,
          "duration": 0.047619083333330536
        },
        {
          "name": "D4",
          "midi": 62,
          "time": 43.14288949999994,
          "velocity": 0.007874015748031496,
          "duration": 0.5666670916666661
        },
        {
          "name": "C2",
          "midi": 36,
          "time": 43.428603999999936,
          "velocity": 0.7874015748031497,
          "duration": 0.5714290000000091
        },
        {
          "name": "C3",
          "midi": 48,
          "time": 43.428603999999936,
          "velocity": 0.48031496062992124,
          "duration": 0.11904770833333345
        },
        {
          "name": "C4",
          "midi": 60,
          "time": 43.428603999999936,
          "velocity": 0.5354330708661418,
          "duration": 0.11904770833333345
        },
        {
          "name": "G3",
          "midi": 55,
          "time": 43.428603999999936,
          "velocity": 0.7165354330708661,
          "duration": 0.11904770833333345
        },
        {
          "name": "E4",
          "midi": 64,
          "time": 43.428603999999936,
          "velocity": 0.7086614173228346,
          "duration": 0.11904770833333345
        },
        {
          "name": "G4",
          "midi": 67,
          "time": 43.428603999999936,
          "velocity": 0.7086614173228346,
          "duration": 1.8190489833333174
        },
        {
          "name": "E4",
          "midi": 64,
          "time": 43.428603999999936,
          "velocity": 0.8110236220472441,
          "duration": 0.404762208333338
        },
        {
          "name": "C5",
          "midi": 72,
          "time": 43.428603999999936,
          "velocity": 0.7401574803149606,
          "duration": 2.1761921083333036
        },
        {
          "name": "C2",
          "midi": 36,
          "time": 43.428603999999936,
          "velocity": 0.84251968503937,
          "duration": 0.8904768583333293
        },
        {
          "name": "F#2",
          "midi": 42,
          "time": 43.428603999999936,
          "velocity": 0.6771653543307087,
          "duration": 0.047619083333330536
        },
        {
          "name": "F#4",
          "midi": 66,
          "time": 43.71431849999994,
          "velocity": 0.7244094488188977,
          "duration": 0.13809534166666992
        },
        {
          "name": "E4",
          "midi": 64,
          "time": 43.71431849999994,
          "velocity": 0.5354330708661418,
          "duration": 0.26190495833333927
        },
        {
          "name": "F#2",
          "midi": 42,
          "time": 43.71431849999994,
          "velocity": 0.6771653543307087,
          "duration": 0.047619083333330536
        },
        {
          "name": "E4",
          "midi": 64,
          "time": 43.857175749999946,
          "velocity": 0.7244094488188977,
          "duration": 0.5476194583333154
        },
        {
          "name": "E4",
          "midi": 64,
          "time": 43.857175749999946,
          "velocity": 0.7795275590551181,
          "duration": 0.890476858333308
        },
        {
          "name": "C4",
          "midi": 60,
          "time": 43.857175749999946,
          "velocity": 0.4251968503937008,
          "duration": 0.11904770833333345
        },
        {
          "name": "C4",
          "midi": 60,
          "time": 44.000032999999945,
          "velocity": 0.7244094488188977,
          "duration": 0.11904770833332634
        },
        {
          "name": "G3",
          "midi": 55,
          "time": 44.000032999999945,
          "velocity": 0.6456692913385826,
          "duration": 0.11904770833332634
        },
        {
          "name": "D2",
          "midi": 38,
          "time": 44.000032999999945,
          "velocity": 0.7716535433070866,
          "duration": 0.047619083333330536
        },
        {
          "name": "F#2",
          "midi": 42,
          "time": 44.000032999999945,
          "velocity": 0.6771653543307087,
          "duration": 0.0714286249999958
        },
        {
          "name": "G1",
          "midi": 31,
          "time": 44.285747499999935,
          "velocity": 0.7874015748031497,
          "duration": 0.05714289999999522
        },
        {
          "name": "G3",
          "midi": 55,
          "time": 44.285747499999935,
          "velocity": 0.7165354330708661,
          "duration": 0.11904770833332634
        },
        {
          "name": "C4",
          "midi": 60,
          "time": 44.285747499999935,
          "velocity": 0.8740157480314961,
          "duration": 0.11904770833332634
        },
        {
          "name": "E4",
          "midi": 64,
          "time": 44.285747499999935,
          "velocity": 0.8110236220472441,
          "duration": 0.9761912083333186
        },
        {
          "name": "C2",
          "midi": 36,
          "time": 44.285747499999935,
          "velocity": 0.84251968503937,
          "duration": 0.05714289999999522
        },
        {
          "name": "D2",
          "midi": 38,
          "time": 44.285747499999935,
          "velocity": 0.7716535433070866,
          "duration": 0.05714289999999522
        },
        {
          "name": "F#2",
          "midi": 42,
          "time": 44.285747499999935,
          "velocity": 0.6771653543307087,
          "duration": 0.05714289999999522
        },
        {
          "name": "C2",
          "midi": 36,
          "time": 44.571461999999926,
          "velocity": 0.7874015748031497,
          "duration": 0.047619083333330536
        },
        {
          "name": "C2",
          "midi": 36,
          "time": 44.571461999999926,
          "velocity": 0.84251968503937,
          "duration": 0.0714286249999958
        },
        {
          "name": "F#2",
          "midi": 42,
          "time": 44.571461999999926,
          "velocity": 0.6771653543307087,
          "duration": 0.05714289999999522
        },
        {
          "name": "C2",
          "midi": 36,
          "time": 44.85717649999992,
          "velocity": 0.7874015748031497,
          "duration": 0.28571450000000453
        },
        {
          "name": "C3",
          "midi": 48,
          "time": 44.85717649999992,
          "velocity": 0.7795275590551181,
          "duration": 0.11904770833333345
        },
        {
          "name": "C2",
          "midi": 36,
          "time": 44.85717649999992,
          "velocity": 0.84251968503937,
          "duration": 0.3095240416666698
        },
        {
          "name": "F#2",
          "midi": 42,
          "time": 44.85717649999992,
          "velocity": 0.6771653543307087,
          "duration": 0.047619083333330536
        },
        {
          "name": "G1",
          "midi": 31,
          "time": 45.14289099999993,
          "velocity": 0.7874015748031497,
          "duration": 0.24761923333332447
        },
        {
          "name": "C3",
          "midi": 48,
          "time": 45.14289099999993,
          "velocity": 0.7086614173228346,
          "duration": 0.11904770833332634
        },
        {
          "name": "G3",
          "midi": 55,
          "time": 45.14289099999993,
          "velocity": 0.6771653543307087,
          "duration": 0.11904770833332634
        },
        {
          "name": "C4",
          "midi": 60,
          "time": 45.14289099999993,
          "velocity": 0.7637795275590551,
          "duration": 0.11904770833332634
        },
        {
          "name": "E4",
          "midi": 64,
          "time": 45.14289099999993,
          "velocity": 0.6299212598425197,
          "duration": 0.4380955666666466
        },
        {
          "name": "D2",
          "midi": 38,
          "time": 45.14289099999993,
          "velocity": 0.7716535433070866,
          "duration": 0.0714286249999958
        },
        {
          "name": "F#2",
          "midi": 42,
          "time": 45.14289099999993,
          "velocity": 0.6771653543307087,
          "duration": 0.047619083333330536
        },
        {
          "name": "C2",
          "midi": 36,
          "time": 45.42860549999992,
          "velocity": 0.7874015748031497,
          "duration": 0.0714286249999958
        },
        {
          "name": "C4",
          "midi": 60,
          "time": 45.42860549999992,
          "velocity": 0.6456692913385826,
          "duration": 0.11904770833332634
        },
        {
          "name": "C2",
          "midi": 36,
          "time": 45.42860549999992,
          "velocity": 0.84251968503937,
          "duration": 0.24761923333332447
        },
        {
          "name": "F#2",
          "midi": 42,
          "time": 45.42860549999992,
          "velocity": 0.6771653543307087,
          "duration": 0.047619083333330536
        },
        {
          "name": "D2",
          "midi": 38,
          "time": 45.714319999999915,
          "velocity": 0.7874015748031497,
          "duration": 0.6190480833333254
        },
        {
          "name": "A2",
          "midi": 45,
          "time": 45.714319999999915,
          "velocity": 0.4251968503937008,
          "duration": 0.11904770833333345
        },
        {
          "name": "A3",
          "midi": 57,
          "time": 45.714319999999915,
          "velocity": 0.6299212598425197,
          "duration": 0.11904770833333345
        },
        {
          "name": "D4",
          "midi": 62,
          "time": 45.714319999999915,
          "velocity": 0.4330708661417323,
          "duration": 0.11904770833333345
        },
        {
          "name": "A4",
          "midi": 69,
          "time": 45.714319999999915,
          "velocity": 0.7637795275590551,
          "duration": 0.8095244166666546
        },
        {
          "name": "F#4",
          "midi": 66,
          "time": 45.714319999999915,
          "velocity": 0.6929133858267716,
          "duration": 0.8333339583333199
        },
        {
          "name": "D4",
          "midi": 62,
          "time": 45.714319999999915,
          "velocity": 0.7165354330708661,
          "duration": 0.4047622083333309
        },
        {
          "name": "C2",
          "midi": 36,
          "time": 45.714319999999915,
          "velocity": 0.84251968503937,
          "duration": 0.5714289999999949
        },
        {
          "name": "F#2",
          "midi": 42,
          "time": 45.714319999999915,
          "velocity": 0.6771653543307087,
          "duration": 0.047619083333330536
        },
        {
          "name": "D4",
          "midi": 62,
          "time": 46.00003449999991,
          "velocity": 0.4094488188976378,
          "duration": 0.26190495833333216
        },
        {
          "name": "F#2",
          "midi": 42,
          "time": 46.00003449999991,
          "velocity": 0.6771653543307087,
          "duration": 0.047619083333330536
        },
        {
          "name": "D4",
          "midi": 62,
          "time": 46.14289174999991,
          "velocity": 0.6692913385826772,
          "duration": 0.27619068333332564
        },
        {
          "name": "A4",
          "midi": 69,
          "time": 46.27146327499991,
          "velocity": 0.6456692913385826,
          "duration": 0.966667391666661
        },
        {
          "name": "F#4",
          "midi": 66,
          "time": 46.28574899999991,
          "velocity": 0.7244094488188977,
          "duration": 1.3095247916666608
        },
        {
          "name": "F#3",
          "midi": 54,
          "time": 46.28574899999991,
          "velocity": 0.5905511811023622,
          "duration": 0.11904770833332634
        },
        {
          "name": "D2",
          "midi": 38,
          "time": 46.28574899999991,
          "velocity": 0.7716535433070866,
          "duration": 0.27142877499998974
        },
        {
          "name": "F#2",
          "midi": 42,
          "time": 46.28574899999991,
          "velocity": 0.6771653543307087,
          "duration": 0.0714286249999958
        },
        {
          "name": "D4",
          "midi": 62,
          "time": 46.28574899999991,
          "velocity": 0.007874015748031496,
          "duration": 0.40476220833332377
        },
        {
          "name": "B4",
          "midi": 71,
          "time": 46.547653958333235,
          "velocity": 0.5826771653543307,
          "duration": 0.2238096916666663
        },
        {
          "name": "G4",
          "midi": 67,
          "time": 46.5714634999999,
          "velocity": 0.7244094488188977,
          "duration": 0.27142877500000395
        },
        {
          "name": "A1",
          "midi": 33,
          "time": 46.5714634999999,
          "velocity": 0.7874015748031497,
          "duration": 0.05714290000000233
        },
        {
          "name": "A3",
          "midi": 57,
          "time": 46.5714634999999,
          "velocity": 0.8740157480314961,
          "duration": 0.11904770833333345
        },
        {
          "name": "D4",
          "midi": 62,
          "time": 46.5714634999999,
          "velocity": 0.7165354330708661,
          "duration": 0.13809534166666992
        },
        {
          "name": "C2",
          "midi": 36,
          "time": 46.5714634999999,
          "velocity": 0.84251968503937,
          "duration": 0.05714290000000233
        },
        {
          "name": "D2",
          "midi": 38,
          "time": 46.5714634999999,
          "velocity": 0.7716535433070866,
          "duration": 0.05714290000000233
        },
        {
          "name": "F#2",
          "midi": 42,
          "time": 46.5714634999999,
          "velocity": 0.6771653543307087,
          "duration": 0.05714290000000233
        },
        {
          "name": "D4",
          "midi": 62,
          "time": 46.5714634999999,
          "velocity": 0.007874015748031496,
          "duration": 0.4761908333333409
        },
        {
          "name": "C5",
          "midi": 72,
          "time": 46.83813036666657,
          "velocity": 0.6141732283464567,
          "duration": 0.44285747500000383
        },
        {
          "name": "A4",
          "midi": 69,
          "time": 46.857177999999905,
          "velocity": 0.7244094488188977,
          "duration": 0.7476196083333306
        },
        {
          "name": "D2",
          "midi": 38,
          "time": 46.857177999999905,
          "velocity": 0.7874015748031497,
          "duration": 0.05714290000000233
        },
        {
          "name": "C2",
          "midi": 36,
          "time": 46.857177999999905,
          "velocity": 0.84251968503937,
          "duration": 0.07142862500000291
        },
        {
          "name": "F#2",
          "midi": 42,
          "time": 46.857177999999905,
          "velocity": 0.6771653543307087,
          "duration": 0.05714290000000233
        },
        {
          "name": "D4",
          "midi": 62,
          "time": 46.857177999999905,
          "velocity": 0.007874015748031496,
          "duration": 0.6904767083333283
        },
        {
          "name": "D2",
          "midi": 38,
          "time": 47.14289249999991,
          "velocity": 0.7874015748031497,
          "duration": 0.27142877499999685
        },
        {
          "name": "C2",
          "midi": 36,
          "time": 47.14289249999991,
          "velocity": 0.84251968503937,
          "duration": 0.28571449999999743
        },
        {
          "name": "F#2",
          "midi": 42,
          "time": 47.14289249999991,
          "velocity": 0.6771653543307087,
          "duration": 0.047619083333330536
        },
        {
          "name": "C5",
          "midi": 72,
          "time": 47.41908318333324,
          "velocity": 0.5984251968503937,
          "duration": 0.1523810666666634
        },
        {
          "name": "A4",
          "midi": 69,
          "time": 47.42860699999991,
          "velocity": 0.7244094488188977,
          "duration": 0.24761923333333158
        },
        {
          "name": "E2",
          "midi": 40,
          "time": 47.42860699999991,
          "velocity": 0.7874015748031497,
          "duration": 0.28571449999999743
        },
        {
          "name": "F#3",
          "midi": 54,
          "time": 47.42860699999991,
          "velocity": 0.7559055118110236,
          "duration": 0.11904770833332634
        },
        {
          "name": "A3",
          "midi": 57,
          "time": 47.42860699999991,
          "velocity": 0.8976377952755905,
          "duration": 0.11904770833332634
        },
        {
          "name": "D4",
          "midi": 62,
          "time": 47.42860699999991,
          "velocity": 0.8346456692913385,
          "duration": 0.12380961666666224
        },
        {
          "name": "D2",
          "midi": 38,
          "time": 47.42860699999991,
          "velocity": 0.7716535433070866,
          "duration": 0.0714286249999958
        },
        {
          "name": "F#2",
          "midi": 42,
          "time": 47.42860699999991,
          "velocity": 0.6771653543307087,
          "duration": 0.047619083333330536
        },
        {
          "name": "D4",
          "midi": 62,
          "time": 47.42860699999991,
          "velocity": 0.007874015748031496,
          "duration": 0.16666679166666398
        },
        {
          "name": "A4",
          "midi": 69,
          "time": 47.714321499999905,
          "velocity": 0.7244094488188977,
          "duration": 0.5095241916666637
        },
        {
          "name": "D2",
          "midi": 38,
          "time": 47.714321499999905,
          "velocity": 0.7874015748031497,
          "duration": 0.24761923333333158
        },
        {
          "name": "C2",
          "midi": 36,
          "time": 47.714321499999905,
          "velocity": 0.84251968503937,
          "duration": 0.0714286249999958
        },
        {
          "name": "F#2",
          "midi": 42,
          "time": 47.714321499999905,
          "velocity": 0.6771653543307087,
          "duration": 0.047619083333330536
        },
        {
          "name": "D4",
          "midi": 62,
          "time": 47.714321499999905,
          "velocity": 0.007874015748031496,
          "duration": 0.25714304999999626
        },
        {
          "name": "C5",
          "midi": 72,
          "time": 47.72384531666657,
          "velocity": 0.6692913385826772,
          "duration": 0.49047655833333437
        },
        {
          "name": "G1",
          "midi": 31,
          "time": 48.0000359999999,
          "velocity": 0.7874015748031497,
          "duration": 0.5571432749999943
        },
        {
          "name": "B3",
          "midi": 59,
          "time": 48.0000359999999,
          "velocity": 0.7007874015748031,
          "duration": 0.11904770833333345
        },
        {
          "name": "D3",
          "midi": 50,
          "time": 48.0000359999999,
          "velocity": 0.7244094488188977,
          "duration": 0.11904770833333345
        },
        {
          "name": "G3",
          "midi": 55,
          "time": 48.0000359999999,
          "velocity": 0.7637795275590551,
          "duration": 0.11904770833333345
        },
        {
          "name": "G4",
          "midi": 67,
          "time": 48.0000359999999,
          "velocity": 0.7795275590551181,
          "duration": 1.700001274999984
        },
        {
          "name": "B4",
          "midi": 71,
          "time": 48.0000359999999,
          "velocity": 0.7716535433070866,
          "duration": 1.7380965416666498
        },
        {
          "name": "D4",
          "midi": 62,
          "time": 48.0000359999999,
          "velocity": 0.7007874015748031,
          "duration": 0.4047622083333309
        },
        {
          "name": "C2",
          "midi": 36,
          "time": 48.0000359999999,
          "velocity": 0.84251968503937,
          "duration": 0.5714289999999949
        },
        {
          "name": "F#2",
          "midi": 42,
          "time": 48.0000359999999,
          "velocity": 0.6771653543307087,
          "duration": 0.047619083333330536
        },
        {
          "name": "B4",
          "midi": 71,
          "time": 48.276226683333235,
          "velocity": 0.7480314960629921,
          "duration": 1.6761917333333116
        },
        {
          "name": "G4",
          "midi": 67,
          "time": 48.2857504999999,
          "velocity": 0.7244094488188977,
          "duration": 1.6761917333333116
        },
        {
          "name": "D4",
          "midi": 62,
          "time": 48.2857504999999,
          "velocity": 0.44881889763779526,
          "duration": 0.26190495833333216
        },
        {
          "name": "F#2",
          "midi": 42,
          "time": 48.2857504999999,
          "velocity": 0.6771653543307087,
          "duration": 0.047619083333330536
        },
        {
          "name": "D4",
          "midi": 62,
          "time": 48.2857504999999,
          "velocity": 0.007874015748031496,
          "duration": 0.6904767083333212
        },
        {
          "name": "D4",
          "midi": 62,
          "time": 48.4286077499999,
          "velocity": 0.6456692913385826,
          "duration": 0.566667091666659
        },
        {
          "name": "D2",
          "midi": 38,
          "time": 48.5714649999999,
          "velocity": 0.7716535433070866,
          "duration": 0.047619083333330536
        },
        {
          "name": "F#2",
          "midi": 42,
          "time": 48.5714649999999,
          "velocity": 0.6771653543307087,
          "duration": 0.0714286249999958
        },
        {
          "name": "G1",
          "midi": 31,
          "time": 48.857179499999894,
          "velocity": 0.7874015748031497,
          "duration": 0.033333358333329954
        },
        {
          "name": "G3",
          "midi": 55,
          "time": 48.857179499999894,
          "velocity": 0.7637795275590551,
          "duration": 0.11904770833332634
        },
        {
          "name": "B3",
          "midi": 59,
          "time": 48.857179499999894,
          "velocity": 0.9291338582677166,
          "duration": 0.11904770833332634
        },
        {
          "name": "D4",
          "midi": 62,
          "time": 48.857179499999894,
          "velocity": 0.7244094488188977,
          "duration": 0.9761912083333186
        },
        {
          "name": "C2",
          "midi": 36,
          "time": 48.857179499999894,
          "velocity": 0.84251968503937,
          "duration": 0.05714289999999522
        },
        {
          "name": "D2",
          "midi": 38,
          "time": 48.857179499999894,
          "velocity": 0.7716535433070866,
          "duration": 0.05714289999999522
        },
        {
          "name": "F#2",
          "midi": 42,
          "time": 48.857179499999894,
          "velocity": 0.6771653543307087,
          "duration": 0.05714289999999522
        },
        {
          "name": "G1",
          "midi": 31,
          "time": 49.14289399999989,
          "velocity": 0.7874015748031497,
          "duration": 0.033333358333329954
        },
        {
          "name": "C2",
          "midi": 36,
          "time": 49.14289399999989,
          "velocity": 0.84251968503937,
          "duration": 0.0714286249999958
        },
        {
          "name": "F#2",
          "midi": 42,
          "time": 49.14289399999989,
          "velocity": 0.6771653543307087,
          "duration": 0.05714289999999522
        },
        {
          "name": "G1",
          "midi": 31,
          "time": 49.42860849999989,
          "velocity": 0.7874015748031497,
          "duration": 0.27142877499999685
        },
        {
          "name": "G2",
          "midi": 43,
          "time": 49.42860849999989,
          "velocity": 0.5354330708661418,
          "duration": 0.11904770833333345
        },
        {
          "name": "D3",
          "midi": 50,
          "time": 49.42860849999989,
          "velocity": 0.7401574803149606,
          "duration": 0.11904770833333345
        },
        {
          "name": "G3",
          "midi": 55,
          "time": 49.42860849999989,
          "velocity": 0.6850393700787402,
          "duration": 0.11904770833333345
        },
        {
          "name": "C2",
          "midi": 36,
          "time": 49.42860849999989,
          "velocity": 0.84251968503937,
          "duration": 0.28571449999999743
        },
        {
          "name": "F#2",
          "midi": 42,
          "time": 49.42860849999989,
          "velocity": 0.6771653543307087,
          "duration": 0.047619083333330536
        },
        {
          "name": "B1",
          "midi": 35,
          "time": 49.71432299999989,
          "velocity": 0.7874015748031497,
          "duration": 0.24761923333332447
        },
        {
          "name": "G3",
          "midi": 55,
          "time": 49.71432299999989,
          "velocity": 0.7401574803149606,
          "duration": 0.11904770833332634
        },
        {
          "name": "B3",
          "midi": 59,
          "time": 49.71432299999989,
          "velocity": 0.8110236220472441,
          "duration": 0.11904770833332634
        },
        {
          "name": "D4",
          "midi": 62,
          "time": 49.71432299999989,
          "velocity": 0.5196850393700787,
          "duration": 0.24761923333332447
        },
        {
          "name": "B3",
          "midi": 59,
          "time": 49.71432299999989,
          "velocity": 0.7322834645669292,
          "duration": 0.5476194583333225
        },
        {
          "name": "D4",
          "midi": 62,
          "time": 49.71432299999989,
          "velocity": 0.7874015748031497,
          "duration": 0.5571432749999943
        },
        {
          "name": "G3",
          "midi": 55,
          "time": 49.71432299999989,
          "velocity": 0.6771653543307087,
          "duration": 0.5571432749999943
        },
        {
          "name": "D2",
          "midi": 38,
          "time": 49.71432299999989,
          "velocity": 0.7716535433070866,
          "duration": 0.0714286249999958
        },
        {
          "name": "F#2",
          "midi": 42,
          "time": 49.71432299999989,
          "velocity": 0.6771653543307087,
          "duration": 0.047619083333330536
        },
        {
          "name": "D2",
          "midi": 38,
          "time": 50.00003749999988,
          "velocity": 0.7874015748031497,
          "duration": 0.28571450000000453
        },
        {
          "name": "C2",
          "midi": 36,
          "time": 50.00003749999988,
          "velocity": 0.84251968503937,
          "duration": 0.0714286249999958
        },
        {
          "name": "F#2",
          "midi": 42,
          "time": 50.00003749999988,
          "velocity": 0.6771653543307087,
          "duration": 0.047619083333330536
        },
        {
          "name": "E2",
          "midi": 40,
          "time": 50.28575199999988,
          "velocity": 0.7874015748031497,
          "duration": 0.8190482333333264
        },
        {
          "name": "B2",
          "midi": 47,
          "time": 50.28575199999988,
          "velocity": 0.6614173228346457,
          "duration": 0.11904770833333345
        },
        {
          "name": "E3",
          "midi": 52,
          "time": 50.28575199999988,
          "velocity": 0.7795275590551181,
          "duration": 0.11904770833333345
        },
        {
          "name": "G3",
          "midi": 55,
          "time": 50.28575199999988,
          "velocity": 0.7952755905511811,
          "duration": 0.11904770833333345
        },
        {
          "name": "B3",
          "midi": 59,
          "time": 50.28575199999988,
          "velocity": 0.5826771653543307,
          "duration": 0.11904770833333345
        },
        {
          "name": "E4",
          "midi": 64,
          "time": 50.28575199999988,
          "velocity": 0.48031496062992124,
          "duration": 0.11904770833333345
        },
        {
          "name": "B4",
          "midi": 71,
          "time": 50.28575199999988,
          "velocity": 0.7716535433070866,
          "duration": 0.5095241916666637
        },
        {
          "name": "E4",
          "midi": 64,
          "time": 50.28575199999988,
          "velocity": 0.7874015748031497,
          "duration": 0.5476194583333296
        },
        {
          "name": "G4",
          "midi": 67,
          "time": 50.28575199999988,
          "velocity": 0.7401574803149606,
          "duration": 1.9857157749999885
        },
        {
          "name": "B3",
          "midi": 59,
          "time": 50.28575199999988,
          "velocity": 0.7952755905511811,
          "duration": 0.5476194583333296
        },
        {
          "name": "E4",
          "midi": 64,
          "time": 50.28575199999988,
          "velocity": 0.9133858267716536,
          "duration": 0.6904767083333283
        },
        {
          "name": "C2",
          "midi": 36,
          "time": 50.28575199999988,
          "velocity": 0.84251968503937,
          "duration": 0.5714289999999949
        },
        {
          "name": "F#2",
          "midi": 42,
          "time": 50.28575199999988,
          "velocity": 0.6771653543307087,
          "duration": 0.047619083333330536
        },
        {
          "name": "B4",
          "midi": 71,
          "time": 50.57146649999988,
          "velocity": 0.7244094488188977,
          "duration": 0.48571464999999847
        },
        {
          "name": "F#2",
          "midi": 42,
          "time": 50.57146649999988,
          "velocity": 0.6771653543307087,
          "duration": 0.047619083333330536
        },
        {
          "name": "D4",
          "midi": 62,
          "time": 50.57146649999988,
          "velocity": 0.007874015748031496,
          "duration": 0.11428579999999755
        },
        {
          "name": "E4",
          "midi": 64,
          "time": 50.71432374999988,
          "velocity": 0.7086614173228346,
          "duration": 0.5476194583333367
        },
        {
          "name": "B3",
          "midi": 59,
          "time": 50.71432374999988,
          "velocity": 0.6456692913385826,
          "duration": 0.5476194583333367
        },
        {
          "name": "B4",
          "midi": 71,
          "time": 50.857180999999876,
          "velocity": 0.7244094488188977,
          "duration": 0.8571435000000065
        },
        {
          "name": "E4",
          "midi": 64,
          "time": 50.857180999999876,
          "velocity": 0.6062992125984252,
          "duration": 1.2619057083333303
        },
        {
          "name": "G3",
          "midi": 55,
          "time": 50.857180999999876,
          "velocity": 0.6850393700787402,
          "duration": 0.11904770833333345
        },
        {
          "name": "D2",
          "midi": 38,
          "time": 50.857180999999876,
          "velocity": 0.7716535433070866,
          "duration": 0.047619083333330536
        },
        {
          "name": "F#2",
          "midi": 42,
          "time": 50.857180999999876,
          "velocity": 0.6771653543307087,
          "duration": 0.0714286249999958
        },
        {
          "name": "D4",
          "midi": 62,
          "time": 50.857180999999876,
          "velocity": 0.007874015748031496,
          "duration": 0.10000007499999697
        },
        {
          "name": "C5",
          "midi": 72,
          "time": 51.142895499999874,
          "velocity": 0.7244094488188977,
          "duration": 0.22380969166667342
        },
        {
          "name": "B1",
          "midi": 35,
          "time": 51.142895499999874,
          "velocity": 0.7874015748031497,
          "duration": 0.05714290000000233
        },
        {
          "name": "E3",
          "midi": 52,
          "time": 51.142895499999874,
          "velocity": 0.7952755905511811,
          "duration": 0.11904770833334055
        },
        {
          "name": "G3",
          "midi": 55,
          "time": 51.142895499999874,
          "velocity": 0.8582677165354331,
          "duration": 0.11904770833334055
        },
        {
          "name": "B3",
          "midi": 59,
          "time": 51.142895499999874,
          "velocity": 0.8818897637795275,
          "duration": 0.9761912083333328
        },
        {
          "name": "E4",
          "midi": 64,
          "time": 51.142895499999874,
          "velocity": 0.6062992125984252,
          "duration": 1.1285722749999962
        },
        {
          "name": "C2",
          "midi": 36,
          "time": 51.142895499999874,
          "velocity": 0.84251968503937,
          "duration": 0.05714290000000233
        },
        {
          "name": "D2",
          "midi": 38,
          "time": 51.142895499999874,
          "velocity": 0.7716535433070866,
          "duration": 0.05714290000000233
        },
        {
          "name": "F#2",
          "midi": 42,
          "time": 51.142895499999874,
          "velocity": 0.6771653543307087,
          "duration": 0.05714290000000233
        },
        {
          "name": "D4",
          "midi": 62,
          "time": 51.142895499999874,
          "velocity": 0.007874015748031496,
          "duration": 0.11428580000000466
        },
        {
          "name": "B4",
          "midi": 71,
          "time": 51.42860999999988,
          "velocity": 0.7244094488188977,
          "duration": 0.8428577749999917
        },
        {
          "name": "E2",
          "midi": 40,
          "time": 51.42860999999988,
          "velocity": 0.7874015748031497,
          "duration": 0.05714290000000233
        },
        {
          "name": "C2",
          "midi": 36,
          "time": 51.42860999999988,
          "velocity": 0.84251968503937,
          "duration": 0.07142862500000291
        },
        {
          "name": "F#2",
          "midi": 42,
          "time": 51.42860999999988,
          "velocity": 0.6771653543307087,
          "duration": 0.05714290000000233
        },
        {
          "name": "D4",
          "midi": 62,
          "time": 51.42860999999988,
          "velocity": 0.007874015748031496,
          "duration": 0.14285725000000582
        },
        {
          "name": "A4",
          "midi": 69,
          "time": 51.71432449999988,
          "velocity": 0.7244094488188977,
          "duration": 0.19047633333332925
        },
        {
          "name": "E2",
          "midi": 40,
          "time": 51.71432449999988,
          "velocity": 0.7874015748031497,
          "duration": 0.5571432749999872
        },
        {
          "name": "B2",
          "midi": 47,
          "time": 51.71432449999988,
          "velocity": 0.5590551181102362,
          "duration": 0.11904770833332634
        },
        {
          "name": "E3",
          "midi": 52,
          "time": 51.71432449999988,
          "velocity": 0.7716535433070866,
          "duration": 0.11904770833332634
        },
        {
          "name": "G3",
          "midi": 55,
          "time": 51.71432449999988,
          "velocity": 0.7795275590551181,
          "duration": 0.11904770833332634
        },
        {
          "name": "C2",
          "midi": 36,
          "time": 51.71432449999988,
          "velocity": 0.84251968503937,
          "duration": 0.28571449999999743
        },
        {
          "name": "F#2",
          "midi": 42,
          "time": 51.71432449999988,
          "velocity": 0.6771653543307087,
          "duration": 0.047619083333330536
        },
        {
          "name": "D4",
          "midi": 62,
          "time": 51.71432449999988,
          "velocity": 0.007874015748031496,
          "duration": 0.09523816666666107
        },
        {
          "name": "A4",
          "midi": 69,
          "time": 52.00003899999988,
          "velocity": 0.7244094488188977,
          "duration": 0.2857144999999903
        },
        {
          "name": "B3",
          "midi": 59,
          "time": 52.00003899999988,
          "velocity": 0.8110236220472441,
          "duration": 0.461905108333319
        },
        {
          "name": "E4",
          "midi": 64,
          "time": 52.00003899999988,
          "velocity": 0.8267716535433071,
          "duration": 0.40476220833332377
        },
        {
          "name": "D2",
          "midi": 38,
          "time": 52.00003899999988,
          "velocity": 0.7716535433070866,
          "duration": 0.0714286249999958
        },
        {
          "name": "F#2",
          "midi": 42,
          "time": 52.00003899999988,
          "velocity": 0.6771653543307087,
          "duration": 0.047619083333330536
        },
        {
          "name": "D4",
          "midi": 62,
          "time": 52.00003899999988,
          "velocity": 0.007874015748031496,
          "duration": 0.1428572499999916
        },
        {
          "name": "G4",
          "midi": 67,
          "time": 52.28575349999987,
          "velocity": 0.7244094488188977,
          "duration": 0.20000014999999394
        },
        {
          "name": "B1",
          "midi": 35,
          "time": 52.28575349999987,
          "velocity": 0.7874015748031497,
          "duration": 0.16666679166666398
        },
        {
          "name": "E4",
          "midi": 64,
          "time": 52.28575349999987,
          "velocity": 0.6692913385826772,
          "duration": 0.17619060833332867
        },
        {
          "name": "C2",
          "midi": 36,
          "time": 52.28575349999987,
          "velocity": 0.84251968503937,
          "duration": 0.0714286249999958
        },
        {
          "name": "F#2",
          "midi": 42,
          "time": 52.28575349999987,
          "velocity": 0.6771653543307087,
          "duration": 0.047619083333330536
        },
        {
          "name": "D4",
          "midi": 62,
          "time": 52.28575349999987,
          "velocity": 0.007874015748031496,
          "duration": 0.10000007499999697
        },
        {
          "name": "G4",
          "midi": 67,
          "time": 52.57146799999987,
          "velocity": 0.7244094488188977,
          "duration": 0.8523815916666493
        },
        {
          "name": "C2",
          "midi": 36,
          "time": 52.57146799999987,
          "velocity": 0.7874015748031497,
          "duration": 0.5714289999999949
        },
        {
          "name": "C3",
          "midi": 48,
          "time": 52.57146799999987,
          "velocity": 0.49606299212598426,
          "duration": 0.11904770833333345
        },
        {
          "name": "G3",
          "midi": 55,
          "time": 52.57146799999987,
          "velocity": 0.6299212598425197,
          "duration": 0.11904770833333345
        },
        {
          "name": "E4",
          "midi": 64,
          "time": 52.57146799999987,
          "velocity": 0.7716535433070866,
          "duration": 0.12857152499999813
        },
        {
          "name": "G4",
          "midi": 67,
          "time": 52.57146799999987,
          "velocity": 0.7165354330708661,
          "duration": 1.133334183333318
        },
        {
          "name": "C4",
          "midi": 60,
          "time": 52.57146799999987,
          "velocity": 0.7086614173228346,
          "duration": 0.12857152499999813
        },
        {
          "name": "E4",
          "midi": 64,
          "time": 52.57146799999987,
          "velocity": 0.7952755905511811,
          "duration": 0.533333733333329
        },
        {
          "name": "C4",
          "midi": 60,
          "time": 52.57146799999987,
          "velocity": 0.7559055118110236,
          "duration": 0.5714289999999949
        },
        {
          "name": "G3",
          "midi": 55,
          "time": 52.57146799999987,
          "velocity": 0.6850393700787402,
          "duration": 0.6761909833333206
        },
        {
          "name": "C2",
          "midi": 36,
          "time": 52.57146799999987,
          "velocity": 0.84251968503937,
          "duration": 0.8428577749999846
        },
        {
          "name": "F#2",
          "midi": 42,
          "time": 52.57146799999987,
          "velocity": 0.6771653543307087,
          "duration": 0.047619083333330536
        },
        {
          "name": "D4",
          "midi": 62,
          "time": 52.57146799999987,
          "velocity": 0.007874015748031496,
          "duration": 0.42380984166666025
        },
        {
          "name": "E4",
          "midi": 64,
          "time": 52.58099181666653,
          "velocity": 0.7244094488188977,
          "duration": 0.6571433499999912
        },
        {
          "name": "C4",
          "midi": 60,
          "time": 52.58099181666653,
          "velocity": 0.7795275590551181,
          "duration": 0.6428576249999907
        },
        {
          "name": "F#2",
          "midi": 42,
          "time": 52.857182499999865,
          "velocity": 0.6771653543307087,
          "duration": 0.047619083333330536
        },
        {
          "name": "E4",
          "midi": 64,
          "time": 52.98575402499986,
          "velocity": 0.6299212598425197,
          "duration": 0.5476194583333225
        },
        {
          "name": "C4",
          "midi": 60,
          "time": 53.02384929166653,
          "velocity": 0.3700787401574803,
          "duration": 0.5095241916666566
        },
        {
          "name": "C4",
          "midi": 60,
          "time": 53.1048017333332,
          "velocity": 0.8267716535433071,
          "duration": 1.1809532666666556
        },
        {
          "name": "E4",
          "midi": 64,
          "time": 53.1190874583332,
          "velocity": 0.6614173228346457,
          "duration": 1.1904770833333203
        },
        {
          "name": "G3",
          "midi": 55,
          "time": 53.12861127499986,
          "velocity": 0.5354330708661418,
          "duration": 0.3952383916666591
        },
        {
          "name": "D2",
          "midi": 38,
          "time": 53.14289699999986,
          "velocity": 0.7716535433070866,
          "duration": 0.047619083333330536
        },
        {
          "name": "F#2",
          "midi": 42,
          "time": 53.14289699999986,
          "velocity": 0.6771653543307087,
          "duration": 0.0714286249999958
        },
        {
          "name": "G3",
          "midi": 55,
          "time": 53.40480195833319,
          "velocity": 0.8267716535433071,
          "duration": 0.6904767083333283
        },
        {
          "name": "C4",
          "midi": 60,
          "time": 53.41432577499985,
          "velocity": 0.8582677165354331,
          "duration": 0.9761912083333257
        },
        {
          "name": "E4",
          "midi": 64,
          "time": 53.41432577499985,
          "velocity": 0.6299212598425197,
          "duration": 0.9904769333333263
        },
        {
          "name": "A4",
          "midi": 69,
          "time": 53.42861149999985,
          "velocity": 0.7244094488188977,
          "duration": 0.13333343333333403
        },
        {
          "name": "G1",
          "midi": 31,
          "time": 53.42861149999985,
          "velocity": 0.7874015748031497,
          "duration": 0.07142862500000291
        },
        {
          "name": "C2",
          "midi": 36,
          "time": 53.42861149999985,
          "velocity": 0.84251968503937,
          "duration": 0.05714290000000233
        },
        {
          "name": "D2",
          "midi": 38,
          "time": 53.42861149999985,
          "velocity": 0.7716535433070866,
          "duration": 0.05714290000000233
        },
        {
          "name": "F#2",
          "midi": 42,
          "time": 53.42861149999985,
          "velocity": 0.6771653543307087,
          "duration": 0.05714290000000233
        },
        {
          "name": "G4",
          "midi": 67,
          "time": 53.57146874999985,
          "velocity": 0.7244094488188977,
          "duration": 0.738095791666666
        },
        {
          "name": "F#4",
          "midi": 66,
          "time": 53.71432599999985,
          "velocity": 0.7244094488188977,
          "duration": 0.28095259166666864
        },
        {
          "name": "C2",
          "midi": 36,
          "time": 53.71432599999985,
          "velocity": 0.7874015748031497,
          "duration": 0.033333358333329954
        },
        {
          "name": "C2",
          "midi": 36,
          "time": 53.71432599999985,
          "velocity": 0.84251968503937,
          "duration": 0.0714286249999958
        },
        {
          "name": "F#2",
          "midi": 42,
          "time": 53.71432599999985,
          "velocity": 0.6771653543307087,
          "duration": 0.05714289999999522
        },
        {
          "name": "C3",
          "midi": 48,
          "time": 53.96194523333318,
          "velocity": 0.7952755905511811,
          "duration": 0.11904770833333345
        },
        {
          "name": "G3",
          "midi": 55,
          "time": 53.97623095833318,
          "velocity": 0.7637795275590551,
          "duration": 0.43809556666666083
        },
        {
          "name": "E4",
          "midi": 64,
          "time": 54.000040499999855,
          "velocity": 0.7244094488188977,
          "duration": 0.7714291499999817
        },
        {
          "name": "C2",
          "midi": 36,
          "time": 54.000040499999855,
          "velocity": 0.7874015748031497,
          "duration": 0.28571449999999743
        },
        {
          "name": "C2",
          "midi": 36,
          "time": 54.000040499999855,
          "velocity": 0.84251968503937,
          "duration": 0.40476220833332377
        },
        {
          "name": "F#2",
          "midi": 42,
          "time": 54.000040499999855,
          "velocity": 0.6771653543307087,
          "duration": 0.047619083333330536
        },
        {
          "name": "C4",
          "midi": 60,
          "time": 54.27146927499985,
          "velocity": 0.8818897637795275,
          "duration": 0.5380956416666507
        },
        {
          "name": "E4",
          "midi": 64,
          "time": 54.28575499999985,
          "velocity": 0.6850393700787402,
          "duration": 0.5666670916666519
        },
        {
          "name": "D2",
          "midi": 38,
          "time": 54.28575499999985,
          "velocity": 0.7716535433070866,
          "duration": 0.0714286249999958
        },
        {
          "name": "F#2",
          "midi": 42,
          "time": 54.28575499999985,
          "velocity": 0.6771653543307087,
          "duration": 0.047619083333330536
        },
        {
          "name": "G3",
          "midi": 55,
          "time": 54.29527881666652,
          "velocity": 0.6771653543307087,
          "duration": 0.4523812916666543
        },
        {
          "name": "G1",
          "midi": 31,
          "time": 54.57146949999984,
          "velocity": 0.7874015748031497,
          "duration": 0.09523816666666107
        },
        {
          "name": "C2",
          "midi": 36,
          "time": 54.57146949999984,
          "velocity": 0.84251968503937,
          "duration": 0.0714286249999958
        },
        {
          "name": "F#2",
          "midi": 42,
          "time": 54.57146949999984,
          "velocity": 0.6771653543307087,
          "duration": 0.047619083333330536
        },
        {
          "name": "D2",
          "midi": 38,
          "time": 54.83337445833317,
          "velocity": 0.4645669291338583,
          "duration": 0.11904770833333345
        },
        {
          "name": "A2",
          "midi": 45,
          "time": 54.83337445833317,
          "velocity": 0.49606299212598426,
          "duration": 0.11904770833333345
        },
        {
          "name": "D2",
          "midi": 38,
          "time": 54.85718399999984,
          "velocity": 0.7874015748031497,
          "duration": 0.6190480833333112
        },
        {
          "name": "F#4",
          "midi": 66,
          "time": 54.85718399999984,
          "velocity": 0.6535433070866141,
          "duration": 0.8428577749999775
        },
        {
          "name": "A4",
          "midi": 69,
          "time": 54.85718399999984,
          "velocity": 0.5826771653543307,
          "duration": 1.6428583749999817
        },
        {
          "name": "F#4",
          "midi": 66,
          "time": 54.85718399999984,
          "velocity": 0.6614173228346457,
          "duration": 1.7476203583333145
        },
        {
          "name": "D4",
          "midi": 62,
          "time": 54.85718399999984,
          "velocity": 0.7559055118110236,
          "duration": 0.24761923333331737
        },
        {
          "name": "A3",
          "midi": 57,
          "time": 54.85718399999984,
          "velocity": 0.6771653543307087,
          "duration": 0.2142858749999874
        },
        {
          "name": "C2",
          "midi": 36,
          "time": 54.85718399999984,
          "velocity": 0.84251968503937,
          "duration": 0.5714289999999806
        },
        {
          "name": "F#2",
          "midi": 42,
          "time": 54.85718399999984,
          "velocity": 0.6771653543307087,
          "duration": 0.047619083333330536
        },
        {
          "name": "A3",
          "midi": 57,
          "time": 54.85718399999984,
          "velocity": 0.5354330708661418,
          "duration": 1.8190489833333174
        },
        {
          "name": "D3",
          "midi": 50,
          "time": 54.880993541666506,
          "velocity": 0.6299212598425197,
          "duration": 0.11904770833332634
        },
        {
          "name": "F#3",
          "midi": 54,
          "time": 54.928612624999836,
          "velocity": 0.5905511811023622,
          "duration": 0.11904770833332634
        },
        {
          "name": "A3",
          "midi": 57,
          "time": 54.9524221666665,
          "velocity": 0.8503937007874016,
          "duration": 2.071430124999978
        },
        {
          "name": "D4",
          "midi": 62,
          "time": 54.98575552499983,
          "velocity": 0.7874015748031497,
          "duration": 0.5809528166666524
        },
        {
          "name": "D5",
          "midi": 74,
          "time": 55.00004124999983,
          "velocity": 0.4645669291338583,
          "duration": 1.6761917333333258
        },
        {
          "name": "F#2",
          "midi": 42,
          "time": 55.14289849999982,
          "velocity": 0.6771653543307087,
          "duration": 0.047619083333330536
        },
        {
          "name": "F#4",
          "midi": 66,
          "time": 55.42861299999982,
          "velocity": 0.7244094488188977,
          "duration": 1.5952392916666582
        },
        {
          "name": "D2",
          "midi": 38,
          "time": 55.42861299999982,
          "velocity": 0.7716535433070866,
          "duration": 0.34285739999999976
        },
        {
          "name": "F#2",
          "midi": 42,
          "time": 55.42861299999982,
          "velocity": 0.6771653543307087,
          "duration": 0.0714286249999958
        },
        {
          "name": "D4",
          "midi": 62,
          "time": 55.42861299999982,
          "velocity": 0.007874015748031496,
          "duration": 0.42857175000000325
        },
        {
          "name": "G4",
          "midi": 67,
          "time": 55.71432749999982,
          "velocity": 0.7244094488188977,
          "duration": 0.25714305000000337
        },
        {
          "name": "C2",
          "midi": 36,
          "time": 55.71432749999982,
          "velocity": 0.84251968503937,
          "duration": 0.05714290000000233
        },
        {
          "name": "D2",
          "midi": 38,
          "time": 55.71432749999982,
          "velocity": 0.7716535433070866,
          "duration": 0.9285721250000023
        },
        {
          "name": "F#2",
          "midi": 42,
          "time": 55.71432749999982,
          "velocity": 0.6771653543307087,
          "duration": 0.05714290000000233
        },
        {
          "name": "D4",
          "midi": 62,
          "time": 55.71432749999982,
          "velocity": 0.007874015748031496,
          "duration": 0.5714290000000091
        },
        {
          "name": "A4",
          "midi": 69,
          "time": 56.00004199999982,
          "velocity": 0.7244094488188977,
          "duration": 0.5571432750000014
        },
        {
          "name": "C2",
          "midi": 36,
          "time": 56.00004199999982,
          "velocity": 0.84251968503937,
          "duration": 0.07142862500000291
        },
        {
          "name": "F#2",
          "midi": 42,
          "time": 56.00004199999982,
          "velocity": 0.6771653543307087,
          "duration": 0.05714290000000233
        },
        {
          "name": "D4",
          "midi": 62,
          "time": 56.00004199999982,
          "velocity": 0.007874015748031496,
          "duration": 0.6571433499999983
        },
        {
          "name": "C2",
          "midi": 36,
          "time": 56.28575649999983,
          "velocity": 0.84251968503937,
          "duration": 0.28571449999999743
        },
        {
          "name": "F#2",
          "midi": 42,
          "time": 56.28575649999983,
          "velocity": 0.6771653543307087,
          "duration": 0.047619083333330536
        },
        {
          "name": "A4",
          "midi": 69,
          "time": 56.571470999999825,
          "velocity": 0.7244094488188977,
          "duration": 0.16666679166666398
        },
        {
          "name": "D2",
          "midi": 38,
          "time": 56.571470999999825,
          "velocity": 0.7716535433070866,
          "duration": 0.3809526666666585
        },
        {
          "name": "F#2",
          "midi": 42,
          "time": 56.571470999999825,
          "velocity": 0.6771653543307087,
          "duration": 0.047619083333330536
        },
        {
          "name": "D4",
          "midi": 62,
          "time": 56.571470999999825,
          "velocity": 0.007874015748031496,
          "duration": 0.35714312499999323
        },
        {
          "name": "A4",
          "midi": 69,
          "time": 56.85718549999982,
          "velocity": 0.7244094488188977,
          "duration": 0.1428572499999916
        },
        {
          "name": "C2",
          "midi": 36,
          "time": 56.85718549999982,
          "velocity": 0.84251968503937,
          "duration": 0.0714286249999958
        },
        {
          "name": "F#2",
          "midi": 42,
          "time": 56.85718549999982,
          "velocity": 0.6771653543307087,
          "duration": 0.047619083333330536
        },
        {
          "name": "D4",
          "midi": 62,
          "time": 56.85718549999982,
          "velocity": 0.007874015748031496,
          "duration": 0.16666679166665688
        },
        {
          "name": "B4",
          "midi": 71,
          "time": 57.000042749999814,
          "velocity": 0.7244094488188977,
          "duration": 0.17142869999999988
        },
        {
          "name": "A4",
          "midi": 69,
          "time": 57.14289999999981,
          "velocity": 0.7244094488188977,
          "duration": 0.28095259166666864
        },
        {
          "name": "G1",
          "midi": 31,
          "time": 57.14289999999981,
          "velocity": 0.7874015748031497,
          "duration": 0.6047623583333319
        },
        {
          "name": "G2",
          "midi": 43,
          "time": 57.14289999999981,
          "velocity": 0.4251968503937008,
          "duration": 0.11904770833334055
        },
        {
          "name": "D3",
          "midi": 50,
          "time": 57.14289999999981,
          "velocity": 0.7244094488188977,
          "duration": 0.11904770833334055
        },
        {
          "name": "G3",
          "midi": 55,
          "time": 57.14289999999981,
          "velocity": 0.48031496062992124,
          "duration": 0.11904770833334055
        },
        {
          "name": "G4",
          "midi": 67,
          "time": 57.14289999999981,
          "velocity": 0.7322834645669292,
          "duration": 1.6952393666666552
        },
        {
          "name": "B4",
          "midi": 71,
          "time": 57.14289999999981,
          "velocity": 0.7559055118110236,
          "duration": 1.8571442499999833
        },
        {
          "name": "D4",
          "midi": 62,
          "time": 57.14289999999981,
          "velocity": 0.6850393700787402,
          "duration": 0.12857152500000524
        },
        {
          "name": "C2",
          "midi": 36,
          "time": 57.14289999999981,
          "velocity": 0.84251968503937,
          "duration": 0.571429000000002
        },
        {
          "name": "F#2",
          "midi": 42,
          "time": 57.14289999999981,
          "velocity": 0.6771653543307087,
          "duration": 0.04761908333333764
        },
        {
          "name": "A3",
          "midi": 57,
          "time": 57.14289999999981,
          "velocity": 0.5905511811023622,
          "duration": 1.200000899999985
        },
        {
          "name": "D4",
          "midi": 62,
          "time": 57.15242381666648,
          "velocity": 0.4645669291338583,
          "duration": 0.5142861000000067
        },
        {
          "name": "B3",
          "midi": 59,
          "time": 57.15242381666648,
          "velocity": 0.6456692913385826,
          "duration": 0.11904770833334055
        },
        {
          "name": "G4",
          "midi": 67,
          "time": 57.42861449999982,
          "velocity": 0.7244094488188977,
          "duration": 1.6047631083333087
        },
        {
          "name": "F#2",
          "midi": 42,
          "time": 57.42861449999982,
          "velocity": 0.6771653543307087,
          "duration": 0.047619083333330536
        },
        {
          "name": "D4",
          "midi": 62,
          "time": 57.42861449999982,
          "velocity": 0.007874015748031496,
          "duration": 0.28095259166666153
        },
        {
          "name": "D4",
          "midi": 62,
          "time": 57.54766220833315,
          "velocity": 0.5826771653543307,
          "duration": 1.4380963166666447
        },
        {
          "name": "B3",
          "midi": 59,
          "time": 57.571471749999816,
          "velocity": 0.5826771653543307,
          "duration": 0.11904770833333345
        },
        {
          "name": "G3",
          "midi": 55,
          "time": 57.700043274999814,
          "velocity": 0.6692913385826772,
          "duration": 0.3190478583333274
        },
        {
          "name": "D2",
          "midi": 38,
          "time": 57.714328999999815,
          "velocity": 0.7716535433070866,
          "duration": 0.047619083333330536
        },
        {
          "name": "F#2",
          "midi": 42,
          "time": 57.714328999999815,
          "velocity": 0.6771653543307087,
          "duration": 0.0714286249999958
        },
        {
          "name": "G3",
          "midi": 55,
          "time": 57.97623395833315,
          "velocity": 0.6614173228346457,
          "duration": 0.11904770833332634
        },
        {
          "name": "B3",
          "midi": 59,
          "time": 57.98575777499981,
          "velocity": 0.6062992125984252,
          "duration": 0.11904770833332634
        },
        {
          "name": "G1",
          "midi": 31,
          "time": 58.00004349999981,
          "velocity": 0.7874015748031497,
          "duration": 0.047619083333330536
        },
        {
          "name": "C2",
          "midi": 36,
          "time": 58.00004349999981,
          "velocity": 0.84251968503937,
          "duration": 0.05714289999999522
        },
        {
          "name": "D2",
          "midi": 38,
          "time": 58.00004349999981,
          "velocity": 0.7716535433070866,
          "duration": 0.05714289999999522
        },
        {
          "name": "F#2",
          "midi": 42,
          "time": 58.00004349999981,
          "velocity": 0.6771653543307087,
          "duration": 0.05714289999999522
        },
        {
          "name": "D3",
          "midi": 50,
          "time": 58.00956731666648,
          "velocity": 0.8031496062992126,
          "duration": 0.5714289999999878
        },
        {
          "name": "G1",
          "midi": 31,
          "time": 58.2857579999998,
          "velocity": 0.7874015748031497,
          "duration": 0.047619083333330536
        },
        {
          "name": "C2",
          "midi": 36,
          "time": 58.2857579999998,
          "velocity": 0.84251968503937,
          "duration": 0.0714286249999958
        },
        {
          "name": "F#2",
          "midi": 42,
          "time": 58.2857579999998,
          "velocity": 0.6771653543307087,
          "duration": 0.05714289999999522
        },
        {
          "name": "G2",
          "midi": 43,
          "time": 58.5571867749998,
          "velocity": 0.6456692913385826,
          "duration": 0.11904770833333345
        },
        {
          "name": "D3",
          "midi": 50,
          "time": 58.5571867749998,
          "velocity": 0.7244094488188977,
          "duration": 0.11904770833333345
        },
        {
          "name": "G1",
          "midi": 31,
          "time": 58.5714724999998,
          "velocity": 0.7874015748031497,
          "duration": 0.26190495833333216
        },
        {
          "name": "G3",
          "midi": 55,
          "time": 58.5714724999998,
          "velocity": 0.6456692913385826,
          "duration": 0.11904770833333345
        },
        {
          "name": "C2",
          "midi": 36,
          "time": 58.5714724999998,
          "velocity": 0.84251968503937,
          "duration": 0.28571450000000453
        },
        {
          "name": "F#2",
          "midi": 42,
          "time": 58.5714724999998,
          "velocity": 0.6771653543307087,
          "duration": 0.047619083333330536
        },
        {
          "name": "G3",
          "midi": 55,
          "time": 58.580996316666464,
          "velocity": 0.6850393700787402,
          "duration": 0.28571450000000453
        },
        {
          "name": "G3",
          "midi": 55,
          "time": 58.842901274999804,
          "velocity": 0.6377952755905512,
          "duration": 0.11904770833332634
        },
        {
          "name": "B1",
          "midi": 35,
          "time": 58.857186999999804,
          "velocity": 0.7874015748031497,
          "duration": 0.26190495833332506
        },
        {
          "name": "D3",
          "midi": 50,
          "time": 58.857186999999804,
          "velocity": 0.7007874015748031,
          "duration": 0.5571432749999872
        },
        {
          "name": "B3",
          "midi": 59,
          "time": 58.857186999999804,
          "velocity": 0.7401574803149606,
          "duration": 0.11904770833332634
        },
        {
          "name": "D2",
          "midi": 38,
          "time": 58.857186999999804,
          "velocity": 0.7716535433070866,
          "duration": 0.0714286249999958
        },
        {
          "name": "F#2",
          "midi": 42,
          "time": 58.857186999999804,
          "velocity": 0.6771653543307087,
          "duration": 0.047619083333330536
        },
        {
          "name": "D4",
          "midi": 62,
          "time": 58.86671081666647,
          "velocity": 0.6299212598425197,
          "duration": 0.18095251666665746
        },
        {
          "name": "D2",
          "midi": 38,
          "time": 59.142901499999795,
          "velocity": 0.7874015748031497,
          "duration": 0.3190478583333274
        },
        {
          "name": "C2",
          "midi": 36,
          "time": 59.142901499999795,
          "velocity": 0.84251968503937,
          "duration": 0.0714286249999958
        },
        {
          "name": "F#2",
          "midi": 42,
          "time": 59.142901499999795,
          "velocity": 0.6771653543307087,
          "duration": 0.047619083333330536
        },
        {
          "name": "E2",
          "midi": 40,
          "time": 59.42861599999979,
          "velocity": 0.7874015748031497,
          "duration": 0.8095244166666546
        },
        {
          "name": "E3",
          "midi": 52,
          "time": 59.42861599999979,
          "velocity": 0.8503937007874016,
          "duration": 0.11904770833333345
        },
        {
          "name": "G3",
          "midi": 55,
          "time": 59.42861599999979,
          "velocity": 0.8267716535433071,
          "duration": 0.11904770833333345
        },
        {
          "name": "B3",
          "midi": 59,
          "time": 59.42861599999979,
          "velocity": 0.7401574803149606,
          "duration": 0.11904770833333345
        },
        {
          "name": "E4",
          "midi": 64,
          "time": 59.42861599999979,
          "velocity": 0.7401574803149606,
          "duration": 0.12857152499999813
        },
        {
          "name": "G4",
          "midi": 67,
          "time": 59.42861599999979,
          "velocity": 0.7401574803149606,
          "duration": 1.2476199833333013
        },
        {
          "name": "B4",
          "midi": 71,
          "time": 59.42861599999979,
          "velocity": 0.7086614173228346,
          "duration": 1.2142866249999713
        },
        {
          "name": "C2",
          "midi": 36,
          "time": 59.42861599999979,
          "velocity": 0.84251968503937,
          "duration": 0.5714289999999949
        },
        {
          "name": "F#2",
          "midi": 42,
          "time": 59.42861599999979,
          "velocity": 0.6771653543307087,
          "duration": 0.047619083333330536
        },
        {
          "name": "B2",
          "midi": 47,
          "time": 59.43813981666646,
          "velocity": 0.6850393700787402,
          "duration": 1.585715474999958
        },
        {
          "name": "E4",
          "midi": 64,
          "time": 59.43813981666646,
          "velocity": 0.7007874015748031,
          "duration": 0.500000374999999
        },
        {
          "name": "E3",
          "midi": 52,
          "time": 59.45242554166646,
          "velocity": 0.5826771653543307,
          "duration": 2.1666682916666105
        },
        {
          "name": "F#2",
          "midi": 42,
          "time": 59.71433049999979,
          "velocity": 0.6771653543307087,
          "duration": 0.047619083333330536
        },
        {
          "name": "E4",
          "midi": 64,
          "time": 59.81909248333312,
          "velocity": 0.7401574803149606,
          "duration": 0.8333339583333057
        },
        {
          "name": "B3",
          "midi": 59,
          "time": 59.83337820833312,
          "velocity": 0.6692913385826772,
          "duration": 0.11904770833333345
        },
        {
          "name": "D2",
          "midi": 38,
          "time": 60.00004499999979,
          "velocity": 0.7716535433070866,
          "duration": 0.047619083333330536
        },
        {
          "name": "F#2",
          "midi": 42,
          "time": 60.00004499999979,
          "velocity": 0.6771653543307087,
          "duration": 0.0714286249999958
        },
        {
          "name": "B3",
          "midi": 59,
          "time": 60.27147377499978,
          "velocity": 0.7559055118110236,
          "duration": 0.11904770833332634
        },
        {
          "name": "B1",
          "midi": 35,
          "time": 60.28575949999978,
          "velocity": 0.7874015748031497,
          "duration": 0.047619083333330536
        },
        {
          "name": "C2",
          "midi": 36,
          "time": 60.28575949999978,
          "velocity": 0.84251968503937,
          "duration": 0.05714289999999522
        },
        {
          "name": "D2",
          "midi": 38,
          "time": 60.28575949999978,
          "velocity": 0.7716535433070866,
          "duration": 0.05714289999999522
        },
        {
          "name": "F#2",
          "midi": 42,
          "time": 60.28575949999978,
          "velocity": 0.6771653543307087,
          "duration": 0.05714289999999522
        },
        {
          "name": "E2",
          "midi": 40,
          "time": 60.57147399999977,
          "velocity": 0.7874015748031497,
          "duration": 0.047619083333330536
        },
        {
          "name": "C2",
          "midi": 36,
          "time": 60.57147399999977,
          "velocity": 0.84251968503937,
          "duration": 0.0714286249999958
        },
        {
          "name": "F#2",
          "midi": 42,
          "time": 60.57147399999977,
          "velocity": 0.6771653543307087,
          "duration": 0.05714289999999522
        },
        {
          "name": "E2",
          "midi": 40,
          "time": 60.83337895833309,
          "velocity": 0.44881889763779526,
          "duration": 0.11904770833332634
        },
        {
          "name": "A#2",
          "midi": 46,
          "time": 60.84290277499976,
          "velocity": 0.6062992125984252,
          "duration": 0.11904770833332634
        },
        {
          "name": "E2",
          "midi": 40,
          "time": 60.85718849999976,
          "velocity": 0.7874015748031497,
          "duration": 0.5571432749999801
        },
        {
          "name": "C2",
          "midi": 36,
          "time": 60.85718849999976,
          "velocity": 0.84251968503937,
          "duration": 0.2857144999999903
        },
        {
          "name": "F#2",
          "midi": 42,
          "time": 60.85718849999976,
          "velocity": 0.6771653543307087,
          "duration": 0.047619083333330536
        },
        {
          "name": "B2",
          "midi": 47,
          "time": 60.90480758333309,
          "velocity": 0.5354330708661418,
          "duration": 0.6857147999999782
        },
        {
          "name": "G3",
          "midi": 55,
          "time": 61.12861727499975,
          "velocity": 0.6062992125984252,
          "duration": 0.11904770833332634
        },
        {
          "name": "B3",
          "midi": 59,
          "time": 61.14290299999975,
          "velocity": 0.7322834645669292,
          "duration": 0.11904770833332634
        },
        {
          "name": "E4",
          "midi": 64,
          "time": 61.14290299999975,
          "velocity": 0.6771653543307087,
          "duration": 0.11904770833332634
        },
        {
          "name": "B4",
          "midi": 71,
          "time": 61.14290299999975,
          "velocity": 0.7244094488188977,
          "duration": 0.5238099166666501
        },
        {
          "name": "G4",
          "midi": 67,
          "time": 61.14290299999975,
          "velocity": 0.6614173228346457,
          "duration": 0.5238099166666501
        },
        {
          "name": "E4",
          "midi": 64,
          "time": 61.14290299999975,
          "velocity": 0.6771653543307087,
          "duration": 0.48571464999998426
        },
        {
          "name": "D2",
          "midi": 38,
          "time": 61.14290299999975,
          "velocity": 0.7716535433070866,
          "duration": 0.0714286249999958
        },
        {
          "name": "F#2",
          "midi": 42,
          "time": 61.14290299999975,
          "velocity": 0.6771653543307087,
          "duration": 0.047619083333330536
        },
        {
          "name": "B1",
          "midi": 35,
          "time": 61.42861749999974,
          "velocity": 0.7874015748031497,
          "duration": 0.20000014999999394
        },
        {
          "name": "C2",
          "midi": 36,
          "time": 61.42861749999974,
          "velocity": 0.84251968503937,
          "duration": 0.0714286249999958
        },
        {
          "name": "F#2",
          "midi": 42,
          "time": 61.42861749999974,
          "velocity": 0.6771653543307087,
          "duration": 0.047619083333330536
        },
        {
          "name": "G3",
          "midi": 55,
          "time": 61.700046274999735,
          "velocity": 0.5354330708661418,
          "duration": 0.11904770833333345
        },
        {
          "name": "C2",
          "midi": 36,
          "time": 61.714331999999736,
          "velocity": 0.7874015748031497,
          "duration": 0.5714289999999949
        },
        {
          "name": "C4",
          "midi": 60,
          "time": 61.714331999999736,
          "velocity": 0.6850393700787402,
          "duration": 0.11904770833333345
        },
        {
          "name": "E4",
          "midi": 64,
          "time": 61.714331999999736,
          "velocity": 0.6456692913385826,
          "duration": 0.11904770833333345
        },
        {
          "name": "E4",
          "midi": 64,
          "time": 61.714331999999736,
          "velocity": 0.7244094488188977,
          "duration": 0.5095241916666637
        },
        {
          "name": "G4",
          "midi": 67,
          "time": 61.714331999999736,
          "velocity": 0.7322834645669292,
          "duration": 2.223811191666627
        },
        {
          "name": "C4",
          "midi": 60,
          "time": 61.714331999999736,
          "velocity": 0.7007874015748031,
          "duration": 0.533333733333329
        },
        {
          "name": "C2",
          "midi": 36,
          "time": 61.714331999999736,
          "velocity": 0.84251968503937,
          "duration": 0.866667316666657
        },
        {
          "name": "F#2",
          "midi": 42,
          "time": 61.714331999999736,
          "velocity": 0.6771653543307087,
          "duration": 0.047619083333330536
        },
        {
          "name": "F#2",
          "midi": 42,
          "time": 62.00004649999973,
          "velocity": 0.6771653543307087,
          "duration": 0.047619083333330536
        },
        {
          "name": "E4",
          "midi": 64,
          "time": 62.104808483333066,
          "velocity": 0.6299212598425197,
          "duration": 0.27619068333332564
        },
        {
          "name": "C4",
          "midi": 60,
          "time": 62.12861802499973,
          "velocity": 0.5039370078740157,
          "duration": 0.25238114166666037
        },
        {
          "name": "C4",
          "midi": 60,
          "time": 62.261951458333066,
          "velocity": 0.7086614173228346,
          "duration": 0.34285739999999265
        },
        {
          "name": "E4",
          "midi": 64,
          "time": 62.261951458333066,
          "velocity": 0.5354330708661418,
          "duration": 0.42857174999998904
        },
        {
          "name": "C4",
          "midi": 60,
          "time": 62.28576099999973,
          "velocity": 0.7795275590551181,
          "duration": 0.3904764833333232
        },
        {
          "name": "D2",
          "midi": 38,
          "time": 62.28576099999973,
          "velocity": 0.7716535433070866,
          "duration": 0.047619083333330536
        },
        {
          "name": "F#2",
          "midi": 42,
          "time": 62.28576099999973,
          "velocity": 0.6771653543307087,
          "duration": 0.0714286249999958
        },
        {
          "name": "C4",
          "midi": 60,
          "time": 62.55718977499973,
          "velocity": 0.7874015748031497,
          "duration": 0.928572124999981
        },
        {
          "name": "G1",
          "midi": 31,
          "time": 62.57147549999973,
          "velocity": 0.7874015748031497,
          "duration": 0.08095244166666049
        },
        {
          "name": "E4",
          "midi": 64,
          "time": 62.57147549999973,
          "velocity": 0.8188976377952756,
          "duration": 0.9761912083333115
        },
        {
          "name": "C2",
          "midi": 36,
          "time": 62.57147549999973,
          "velocity": 0.84251968503937,
          "duration": 0.05714289999999522
        },
        {
          "name": "D2",
          "midi": 38,
          "time": 62.57147549999973,
          "velocity": 0.7716535433070866,
          "duration": 0.05714289999999522
        },
        {
          "name": "F#2",
          "midi": 42,
          "time": 62.57147549999973,
          "velocity": 0.6771653543307087,
          "duration": 0.05714289999999522
        },
        {
          "name": "G3",
          "midi": 55,
          "time": 62.58099931666639,
          "velocity": 0.7007874015748031,
          "duration": 0.5809528166666524
        },
        {
          "name": "C2",
          "midi": 36,
          "time": 62.85718999999972,
          "velocity": 0.7874015748031497,
          "duration": 0.033333358333329954
        },
        {
          "name": "C2",
          "midi": 36,
          "time": 62.85718999999972,
          "velocity": 0.84251968503937,
          "duration": 0.0714286249999958
        },
        {
          "name": "F#2",
          "midi": 42,
          "time": 62.85718999999972,
          "velocity": 0.6771653543307087,
          "duration": 0.05714289999999522
        },
        {
          "name": "G3",
          "midi": 55,
          "time": 63.128618774999715,
          "velocity": 0.6299212598425197,
          "duration": 0.11904770833333345
        },
        {
          "name": "C2",
          "midi": 36,
          "time": 63.142904499999716,
          "velocity": 0.7874015748031497,
          "duration": 0.28571449999999743
        },
        {
          "name": "C2",
          "midi": 36,
          "time": 63.142904499999716,
          "velocity": 0.84251968503937,
          "duration": 0.5095241916666566
        },
        {
          "name": "F#2",
          "midi": 42,
          "time": 63.142904499999716,
          "velocity": 0.6771653543307087,
          "duration": 0.047619083333330536
        },
        {
          "name": "C4",
          "midi": 60,
          "time": 63.15242831666638,
          "velocity": 0.6850393700787402,
          "duration": 0.3952383916666591
        },
        {
          "name": "C3",
          "midi": 48,
          "time": 63.41433327499971,
          "velocity": 0.5433070866141733,
          "duration": 0.11904770833332634
        },
        {
          "name": "G3",
          "midi": 55,
          "time": 63.42861899999971,
          "velocity": 0.8031496062992126,
          "duration": 0.11904770833332634
        },
        {
          "name": "C4",
          "midi": 60,
          "time": 63.42861899999971,
          "velocity": 0.7874015748031497,
          "duration": 0.20000014999999394
        },
        {
          "name": "E4",
          "midi": 64,
          "time": 63.42861899999971,
          "velocity": 0.6771653543307087,
          "duration": 0.5333337333333148
        },
        {
          "name": "D2",
          "midi": 38,
          "time": 63.42861899999971,
          "velocity": 0.7716535433070866,
          "duration": 0.0714286249999958
        },
        {
          "name": "F#2",
          "midi": 42,
          "time": 63.42861899999971,
          "velocity": 0.6771653543307087,
          "duration": 0.047619083333330536
        },
        {
          "name": "G3",
          "midi": 55,
          "time": 63.43814281666638,
          "velocity": 0.5905511811023622,
          "duration": 0.5476194583333225
        },
        {
          "name": "G1",
          "midi": 31,
          "time": 63.714333499999704,
          "velocity": 0.7874015748031497,
          "duration": 0.21428587499999452
        },
        {
          "name": "C2",
          "midi": 36,
          "time": 63.714333499999704,
          "velocity": 0.84251968503937,
          "duration": 0.0714286249999958
        },
        {
          "name": "F#2",
          "midi": 42,
          "time": 63.714333499999704,
          "velocity": 0.6771653543307087,
          "duration": 0.047619083333330536
        },
        {
          "name": "D2",
          "midi": 38,
          "time": 64.0000479999997,
          "velocity": 0.7874015748031497,
          "duration": 0.6190480833333538
        },
        {
          "name": "F#3",
          "midi": 54,
          "time": 64.0000479999997,
          "velocity": 0.4015748031496063,
          "duration": 0.11904770833335476
        },
        {
          "name": "A3",
          "midi": 57,
          "time": 64.0000479999997,
          "velocity": 0.5039370078740157,
          "duration": 0.12857152500002655
        },
        {
          "name": "A2",
          "midi": 45,
          "time": 64.0000479999997,
          "velocity": 0.5196850393700787,
          "duration": 0.11904770833335476
        },
        {
          "name": "F#3",
          "midi": 54,
          "time": 64.0000479999997,
          "velocity": 0.6614173228346457,
          "duration": 0.8333339583333554
        },
        {
          "name": "F#4",
          "midi": 66,
          "time": 64.0000479999997,
          "velocity": 0.6299212598425197,
          "duration": 1.7476203583333216
        },
        {
          "name": "D4",
          "midi": 62,
          "time": 64.0000479999997,
          "velocity": 0.7007874015748031,
          "duration": 0.12857152500002655
        },
        {
          "name": "A4",
          "midi": 69,
          "time": 64.0000479999997,
          "velocity": 0.7637795275590551,
          "duration": 1.7380965416666498
        },
        {
          "name": "C2",
          "midi": 36,
          "time": 64.0000479999997,
          "velocity": 0.84251968503937,
          "duration": 0.5714290000000233
        },
        {
          "name": "F#2",
          "midi": 42,
          "time": 64.0000479999997,
          "velocity": 0.6771653543307087,
          "duration": 0.04761908333334475
        },
        {
          "name": "D3",
          "midi": 50,
          "time": 64.00957181666637,
          "velocity": 0.5275590551181102,
          "duration": 0.07142862500001002
        },
        {
          "name": "A3",
          "midi": 57,
          "time": 64.00957181666637,
          "velocity": 0.6062992125984252,
          "duration": 0.5523813666666797
        },
        {
          "name": "D4",
          "midi": 62,
          "time": 64.00957181666637,
          "velocity": 0.48031496062992124,
          "duration": 0.3952383916666804
        },
        {
          "name": "D3",
          "midi": 50,
          "time": 64.00957181666637,
          "velocity": 0.6614173228346457,
          "duration": 0.11904770833335476
        },
        {
          "name": "D4",
          "midi": 62,
          "time": 64.28576249999972,
          "velocity": 0.3700787401574803,
          "duration": 0.24761923333332447
        },
        {
          "name": "F#2",
          "midi": 42,
          "time": 64.28576249999972,
          "velocity": 0.6771653543307087,
          "duration": 0.047619083333330536
        },
        {
          "name": "D4",
          "midi": 62,
          "time": 64.41433402499972,
          "velocity": 0.6692913385826772,
          "duration": 0.27619068333332564
        },
        {
          "name": "A3",
          "midi": 57,
          "time": 64.43814356666638,
          "velocity": 0.6141732283464567,
          "duration": 0.2380954166666669
        },
        {
          "name": "A3",
          "midi": 57,
          "time": 64.55719127499971,
          "velocity": 0.6850393700787402,
          "duration": 0.27619068333333985
        },
        {
          "name": "D4",
          "midi": 62,
          "time": 64.57147699999972,
          "velocity": 0.5669291338582677,
          "duration": 1.1761913583332984
        },
        {
          "name": "D2",
          "midi": 38,
          "time": 64.57147699999972,
          "velocity": 0.7716535433070866,
          "duration": 0.2952383166666692
        },
        {
          "name": "F#2",
          "midi": 42,
          "time": 64.57147699999972,
          "velocity": 0.6771653543307087,
          "duration": 0.0714286249999958
        },
        {
          "name": "D3",
          "midi": 50,
          "time": 64.84290577499972,
          "velocity": 0.7165354330708661,
          "duration": 0.27142877499998974
        },
        {
          "name": "F#3",
          "midi": 54,
          "time": 64.84290577499972,
          "velocity": 0.5669291338582677,
          "duration": 0.11904770833332634
        },
        {
          "name": "A1",
          "midi": 33,
          "time": 64.85719149999971,
          "velocity": 0.7874015748031497,
          "duration": 0.0714286249999958
        },
        {
          "name": "C2",
          "midi": 36,
          "time": 64.85719149999971,
          "velocity": 0.84251968503937,
          "duration": 0.05714290000000233
        },
        {
          "name": "D2",
          "midi": 38,
          "time": 64.85719149999971,
          "velocity": 0.7716535433070866,
          "duration": 0.05714290000000233
        },
        {
          "name": "F#2",
          "midi": 42,
          "time": 64.85719149999971,
          "velocity": 0.6771653543307087,
          "duration": 0.05714290000000233
        },
        {
          "name": "C4",
          "midi": 60,
          "time": 65.1286202749997,
          "velocity": 0.6692913385826772,
          "duration": 0.3095240416666485
        },
        {
          "name": "D2",
          "midi": 38,
          "time": 65.1429059999997,
          "velocity": 0.7874015748031497,
          "duration": 0.05714290000000233
        },
        {
          "name": "C2",
          "midi": 36,
          "time": 65.1429059999997,
          "velocity": 0.84251968503937,
          "duration": 0.0714286249999958
        },
        {
          "name": "F#2",
          "midi": 42,
          "time": 65.1429059999997,
          "velocity": 0.6771653543307087,
          "duration": 0.05714290000000233
        },
        {
          "name": "D3",
          "midi": 50,
          "time": 65.41433477499969,
          "velocity": 0.6850393700787402,
          "duration": 0.11904770833334055
        },
        {
          "name": "D2",
          "midi": 38,
          "time": 65.42862049999968,
          "velocity": 0.7874015748031497,
          "duration": 0.35714312499999323
        },
        {
          "name": "A3",
          "midi": 57,
          "time": 65.42862049999968,
          "velocity": 0.5118110236220472,
          "duration": 0.3095240416666627
        },
        {
          "name": "F#3",
          "midi": 54,
          "time": 65.42862049999968,
          "velocity": 0.7086614173228346,
          "duration": 0.11904770833334055
        },
        {
          "name": "C2",
          "midi": 36,
          "time": 65.42862049999968,
          "velocity": 0.84251968503937,
          "duration": 0.28571449999999743
        },
        {
          "name": "F#2",
          "midi": 42,
          "time": 65.42862049999968,
          "velocity": 0.6771653543307087,
          "duration": 0.04761908333334475
        },
        {
          "name": "F#3",
          "midi": 54,
          "time": 65.70004927499969,
          "velocity": 0.6850393700787402,
          "duration": 0.3095240416666627
        },
        {
          "name": "A3",
          "midi": 57,
          "time": 65.71433499999968,
          "velocity": 0.8267716535433071,
          "duration": 0.11904770833332634
        },
        {
          "name": "D4",
          "midi": 62,
          "time": 65.71433499999968,
          "velocity": 0.8031496062992126,
          "duration": 0.11904770833332634
        },
        {
          "name": "D2",
          "midi": 38,
          "time": 65.71433499999968,
          "velocity": 0.7716535433070866,
          "duration": 0.24761923333332447
        },
        {
          "name": "F#2",
          "midi": 42,
          "time": 65.71433499999968,
          "velocity": 0.6771653543307087,
          "duration": 0.047619083333330536
        },
        {
          "name": "A1",
          "midi": 33,
          "time": 66.00004949999968,
          "velocity": 0.7874015748031497,
          "duration": 0.0714286249999958
        },
        {
          "name": "A#1",
          "midi": 34,
          "time": 66.00004949999968,
          "velocity": 0.7874015748031497,
          "duration": 0.023809541666665268
        },
        {
          "name": "C2",
          "midi": 36,
          "time": 66.00004949999968,
          "velocity": 0.84251968503937,
          "duration": 0.0714286249999958
        },
        {
          "name": "F#2",
          "midi": 42,
          "time": 66.00004949999968,
          "velocity": 0.6771653543307087,
          "duration": 0.047619083333330536
        },
        {
          "name": "A3",
          "midi": 57,
          "time": 66.00957331666635,
          "velocity": 0.5826771653543307,
          "duration": 0.23809541666665268
        },
        {
          "name": "G1",
          "midi": 31,
          "time": 66.28576399999966,
          "velocity": 0.7874015748031497,
          "duration": 0.6190480833333112
        },
        {
          "name": "D3",
          "midi": 50,
          "time": 66.28576399999966,
          "velocity": 0.6850393700787402,
          "duration": 0.11904770833332634
        },
        {
          "name": "G3",
          "midi": 55,
          "time": 66.28576399999966,
          "velocity": 0.7952755905511811,
          "duration": 0.11904770833332634
        },
        {
          "name": "B3",
          "midi": 59,
          "time": 66.28576399999966,
          "velocity": 0.8661417322834646,
          "duration": 0.11904770833332634
        },
        {
          "name": "D2",
          "midi": 38,
          "time": 66.28576399999966,
          "velocity": 0.3700787401574803,
          "duration": 0.11904770833332634
        },
        {
          "name": "G4",
          "midi": 67,
          "time": 66.28576399999966,
          "velocity": 0.7401574803149606,
          "duration": 3.3095262916665718
        },
        {
          "name": "B4",
          "midi": 71,
          "time": 66.28576399999966,
          "velocity": 0.7874015748031497,
          "duration": 1.095238916666645
        },
        {
          "name": "D4",
          "midi": 62,
          "time": 66.28576399999966,
          "velocity": 0.7637795275590551,
          "duration": 0.5476194583333154
        },
        {
          "name": "C2",
          "midi": 36,
          "time": 66.28576399999966,
          "velocity": 0.84251968503937,
          "duration": 0.5714289999999806
        },
        {
          "name": "F#2",
          "midi": 42,
          "time": 66.28576399999966,
          "velocity": 0.6771653543307087,
          "duration": 0.047619083333330536
        },
        {
          "name": "A3",
          "midi": 57,
          "time": 66.28576399999966,
          "velocity": 0.5511811023622047,
          "duration": 1.9761919583332883
        },
        {
          "name": "F#2",
          "midi": 42,
          "time": 66.57147849999966,
          "velocity": 0.6771653543307087,
          "duration": 0.047619083333330536
        },
        {
          "name": "D4",
          "midi": 62,
          "time": 66.71433574999965,
          "velocity": 0.84251968503937,
          "duration": 0.26190495833331795
        },
        {
          "name": "B3",
          "midi": 59,
          "time": 66.71433574999965,
          "velocity": 0.7716535433070866,
          "duration": 0.11904770833332634
        },
        {
          "name": "G3",
          "midi": 55,
          "time": 66.71433574999965,
          "velocity": 0.5590551181102362,
          "duration": 0.11904770833332634
        },
        {
          "name": "A4",
          "midi": 69,
          "time": 66.85719299999964,
          "velocity": 0.7244094488188977,
          "duration": 0.28571449999999743
        },
        {
          "name": "D3",
          "midi": 50,
          "time": 66.85719299999964,
          "velocity": 0.6299212598425197,
          "duration": 0.11904770833332634
        },
        {
          "name": "G3",
          "midi": 55,
          "time": 66.85719299999964,
          "velocity": 0.6850393700787402,
          "duration": 0.11904770833332634
        },
        {
          "name": "B3",
          "midi": 59,
          "time": 66.85719299999964,
          "velocity": 0.6850393700787402,
          "duration": 0.11904770833332634
        },
        {
          "name": "D4",
          "midi": 62,
          "time": 66.85719299999964,
          "velocity": 0.5826771653543307,
          "duration": 0.1428572499999916
        },
        {
          "name": "D2",
          "midi": 38,
          "time": 66.85719299999964,
          "velocity": 0.7716535433070866,
          "duration": 0.047619083333330536
        },
        {
          "name": "F#2",
          "midi": 42,
          "time": 66.85719299999964,
          "velocity": 0.6771653543307087,
          "duration": 0.0714286249999958
        },
        {
          "name": "D4",
          "midi": 62,
          "time": 66.85719299999964,
          "velocity": 0.007874015748031496,
          "duration": 0.404762208333338
        },
        {
          "name": "B4",
          "midi": 71,
          "time": 67.14290749999964,
          "velocity": 0.7244094488188977,
          "duration": 0.700000524999993
        },
        {
          "name": "G1",
          "midi": 31,
          "time": 67.14290749999964,
          "velocity": 0.7874015748031497,
          "duration": 0.047619083333330536
        },
        {
          "name": "G3",
          "midi": 55,
          "time": 67.14290749999964,
          "velocity": 0.7086614173228346,
          "duration": 0.11904770833334055
        },
        {
          "name": "B3",
          "midi": 59,
          "time": 67.14290749999964,
          "velocity": 0.8818897637795275,
          "duration": 0.11904770833334055
        },
        {
          "name": "D4",
          "midi": 62,
          "time": 67.14290749999964,
          "velocity": 0.6456692913385826,
          "duration": 0.11904770833334055
        },
        {
          "name": "C2",
          "midi": 36,
          "time": 67.14290749999964,
          "velocity": 0.84251968503937,
          "duration": 0.05714290000000233
        },
        {
          "name": "D2",
          "midi": 38,
          "time": 67.14290749999964,
          "velocity": 0.7716535433070866,
          "duration": 0.05714290000000233
        },
        {
          "name": "F#2",
          "midi": 42,
          "time": 67.14290749999964,
          "velocity": 0.6771653543307087,
          "duration": 0.05714290000000233
        },
        {
          "name": "D4",
          "midi": 62,
          "time": 67.14290749999964,
          "velocity": 0.007874015748031496,
          "duration": 0.49523846666666316
        },
        {
          "name": "B4",
          "midi": 71,
          "time": 67.42862199999963,
          "velocity": 0.7244094488188977,
          "duration": 0.8333339583333128
        },
        {
          "name": "G1",
          "midi": 31,
          "time": 67.42862199999963,
          "velocity": 0.7874015748031497,
          "duration": 0.047619083333330536
        },
        {
          "name": "C2",
          "midi": 36,
          "time": 67.42862199999963,
          "velocity": 0.84251968503937,
          "duration": 0.0714286249999958
        },
        {
          "name": "F#2",
          "midi": 42,
          "time": 67.42862199999963,
          "velocity": 0.6771653543307087,
          "duration": 0.05714290000000233
        },
        {
          "name": "D4",
          "midi": 62,
          "time": 67.42862199999963,
          "velocity": 0.007874015748031496,
          "duration": 0.6904767083333212
        },
        {
          "name": "G1",
          "midi": 31,
          "time": 67.71433649999963,
          "velocity": 0.7874015748031497,
          "duration": 0.24761923333332447
        },
        {
          "name": "D3",
          "midi": 50,
          "time": 67.71433649999963,
          "velocity": 0.7952755905511811,
          "duration": 0.11904770833332634
        },
        {
          "name": "G3",
          "midi": 55,
          "time": 67.71433649999963,
          "velocity": 0.7086614173228346,
          "duration": 0.11904770833332634
        },
        {
          "name": "C2",
          "midi": 36,
          "time": 67.71433649999963,
          "velocity": 0.84251968503937,
          "duration": 0.28571449999999743
        },
        {
          "name": "F#2",
          "midi": 42,
          "time": 67.71433649999963,
          "velocity": 0.6771653543307087,
          "duration": 0.047619083333330536
        },
        {
          "name": "B4",
          "midi": 71,
          "time": 68.00005099999963,
          "velocity": 0.7244094488188977,
          "duration": 1.1761913583332841
        },
        {
          "name": "B1",
          "midi": 35,
          "time": 68.00005099999963,
          "velocity": 0.7874015748031497,
          "duration": 0.2142858749999874
        },
        {
          "name": "G3",
          "midi": 55,
          "time": 68.00005099999963,
          "velocity": 0.8110236220472441,
          "duration": 0.11904770833332634
        },
        {
          "name": "B3",
          "midi": 59,
          "time": 68.00005099999963,
          "velocity": 0.8976377952755905,
          "duration": 0.11904770833332634
        },
        {
          "name": "D4",
          "midi": 62,
          "time": 68.00005099999963,
          "velocity": 0.6141732283464567,
          "duration": 0.13333343333331982
        },
        {
          "name": "D2",
          "midi": 38,
          "time": 68.00005099999963,
          "velocity": 0.7716535433070866,
          "duration": 0.0714286249999958
        },
        {
          "name": "F#2",
          "midi": 42,
          "time": 68.00005099999963,
          "velocity": 0.6771653543307087,
          "duration": 0.047619083333330536
        },
        {
          "name": "D4",
          "midi": 62,
          "time": 68.00005099999963,
          "velocity": 0.007874015748031496,
          "duration": 0.557143274999973
        },
        {
          "name": "C5",
          "midi": 72,
          "time": 68.28576549999961,
          "velocity": 0.7244094488188977,
          "duration": 0.5714289999999806
        },
        {
          "name": "D2",
          "midi": 38,
          "time": 68.28576549999961,
          "velocity": 0.7874015748031497,
          "duration": 0.2857144999999832
        },
        {
          "name": "B3",
          "midi": 59,
          "time": 68.28576549999961,
          "velocity": 0.7637795275590551,
          "duration": 0.11904770833332634
        },
        {
          "name": "G3",
          "midi": 55,
          "time": 68.28576549999961,
          "velocity": 0.6299212598425197,
          "duration": 0.11904770833332634
        },
        {
          "name": "C2",
          "midi": 36,
          "time": 68.28576549999961,
          "velocity": 0.84251968503937,
          "duration": 0.0714286249999958
        },
        {
          "name": "F#2",
          "midi": 42,
          "time": 68.28576549999961,
          "velocity": 0.6771653543307087,
          "duration": 0.047619083333330536
        },
        {
          "name": "D4",
          "midi": 62,
          "time": 68.28576549999961,
          "velocity": 0.007874015748031496,
          "duration": 0.2857144999999832
        },
        {
          "name": "G1",
          "midi": 31,
          "time": 68.5714799999996,
          "velocity": 0.7874015748031497,
          "duration": 0.6047623583333177
        },
        {
          "name": "D3",
          "midi": 50,
          "time": 68.5714799999996,
          "velocity": 0.6850393700787402,
          "duration": 0.11904770833332634
        },
        {
          "name": "G3",
          "midi": 55,
          "time": 68.5714799999996,
          "velocity": 0.7952755905511811,
          "duration": 0.11904770833332634
        },
        {
          "name": "B3",
          "midi": 59,
          "time": 68.5714799999996,
          "velocity": 0.8661417322834646,
          "duration": 0.11904770833332634
        },
        {
          "name": "D2",
          "midi": 38,
          "time": 68.5714799999996,
          "velocity": 0.3700787401574803,
          "duration": 0.11904770833332634
        },
        {
          "name": "C2",
          "midi": 36,
          "time": 68.5714799999996,
          "velocity": 0.84251968503937,
          "duration": 0.5714289999999806
        },
        {
          "name": "F#2",
          "midi": 42,
          "time": 68.5714799999996,
          "velocity": 0.6771653543307087,
          "duration": 0.047619083333330536
        },
        {
          "name": "B4",
          "midi": 71,
          "time": 68.8571944999996,
          "velocity": 0.7244094488188977,
          "duration": 0.7857148749999681
        },
        {
          "name": "F#2",
          "midi": 42,
          "time": 68.8571944999996,
          "velocity": 0.6771653543307087,
          "duration": 0.047619083333330536
        },
        {
          "name": "D4",
          "midi": 62,
          "time": 68.8571944999996,
          "velocity": 0.007874015748031496,
          "duration": 0.16190488333332098
        },
        {
          "name": "D4",
          "midi": 62,
          "time": 69.00005174999959,
          "velocity": 0.84251968503937,
          "duration": 0.11904770833332634
        },
        {
          "name": "B3",
          "midi": 59,
          "time": 69.00005174999959,
          "velocity": 0.7716535433070866,
          "duration": 0.11904770833332634
        },
        {
          "name": "G3",
          "midi": 55,
          "time": 69.00005174999959,
          "velocity": 0.5590551181102362,
          "duration": 0.11904770833332634
        },
        {
          "name": "A4",
          "midi": 69,
          "time": 69.14290899999958,
          "velocity": 0.7244094488188977,
          "duration": 0.3190478583333203
        },
        {
          "name": "D3",
          "midi": 50,
          "time": 69.14290899999958,
          "velocity": 0.6299212598425197,
          "duration": 0.11904770833332634
        },
        {
          "name": "G3",
          "midi": 55,
          "time": 69.14290899999958,
          "velocity": 0.6850393700787402,
          "duration": 0.11904770833332634
        },
        {
          "name": "B3",
          "midi": 59,
          "time": 69.14290899999958,
          "velocity": 0.6850393700787402,
          "duration": 0.11904770833332634
        },
        {
          "name": "D4",
          "midi": 62,
          "time": 69.14290899999958,
          "velocity": 0.5826771653543307,
          "duration": 0.11904770833332634
        },
        {
          "name": "D2",
          "midi": 38,
          "time": 69.14290899999958,
          "velocity": 0.7716535433070866,
          "duration": 0.047619083333330536
        },
        {
          "name": "F#2",
          "midi": 42,
          "time": 69.14290899999958,
          "velocity": 0.6771653543307087,
          "duration": 0.0714286249999958
        },
        {
          "name": "D4",
          "midi": 62,
          "time": 69.14290899999958,
          "velocity": 0.007874015748031496,
          "duration": 0.16190488333332098
        },
        {
          "name": "B4",
          "midi": 71,
          "time": 69.42862349999956,
          "velocity": 0.7244094488188977,
          "duration": 0.5476194583333438
        },
        {
          "name": "G1",
          "midi": 31,
          "time": 69.42862349999956,
          "velocity": 0.7874015748031497,
          "duration": 0.047619083333330536
        },
        {
          "name": "G3",
          "midi": 55,
          "time": 69.42862349999956,
          "velocity": 0.7086614173228346,
          "duration": 0.11904770833334055
        },
        {
          "name": "B3",
          "midi": 59,
          "time": 69.42862349999956,
          "velocity": 0.8818897637795275,
          "duration": 0.11904770833334055
        },
        {
          "name": "D4",
          "midi": 62,
          "time": 69.42862349999956,
          "velocity": 0.6456692913385826,
          "duration": 0.11904770833334055
        },
        {
          "name": "C2",
          "midi": 36,
          "time": 69.42862349999956,
          "velocity": 0.84251968503937,
          "duration": 0.05714290000000233
        },
        {
          "name": "D2",
          "midi": 38,
          "time": 69.42862349999956,
          "velocity": 0.7716535433070866,
          "duration": 0.05714290000000233
        },
        {
          "name": "F#2",
          "midi": 42,
          "time": 69.42862349999956,
          "velocity": 0.6771653543307087,
          "duration": 0.05714290000000233
        },
        {
          "name": "D4",
          "midi": 62,
          "time": 69.42862349999956,
          "velocity": 0.007874015748031496,
          "duration": 0.27619068333333985
        },
        {
          "name": "G1",
          "midi": 31,
          "time": 69.71433799999957,
          "velocity": 0.7874015748031497,
          "duration": 0.0714286249999958
        },
        {
          "name": "C2",
          "midi": 36,
          "time": 69.71433799999957,
          "velocity": 0.84251968503937,
          "duration": 0.0714286249999958
        },
        {
          "name": "F#2",
          "midi": 42,
          "time": 69.71433799999957,
          "velocity": 0.6771653543307087,
          "duration": 0.05714290000000233
        },
        {
          "name": "A4",
          "midi": 69,
          "time": 70.00005249999957,
          "velocity": 0.7244094488188977,
          "duration": 0.12857152499999813
        },
        {
          "name": "G1",
          "midi": 31,
          "time": 70.00005249999957,
          "velocity": 0.7874015748031497,
          "duration": 0.24761923333332447
        },
        {
          "name": "D3",
          "midi": 50,
          "time": 70.00005249999957,
          "velocity": 0.7952755905511811,
          "duration": 0.11904770833332634
        },
        {
          "name": "G3",
          "midi": 55,
          "time": 70.00005249999957,
          "velocity": 0.7086614173228346,
          "duration": 0.11904770833332634
        },
        {
          "name": "C2",
          "midi": 36,
          "time": 70.00005249999957,
          "velocity": 0.84251968503937,
          "duration": 0.28571449999999743
        },
        {
          "name": "F#2",
          "midi": 42,
          "time": 70.00005249999957,
          "velocity": 0.6771653543307087,
          "duration": 0.047619083333330536
        },
        {
          "name": "G4",
          "midi": 67,
          "time": 70.14290974999956,
          "velocity": 0.7244094488188977,
          "duration": 0.35714312499999323
        },
        {
          "name": "B1",
          "midi": 35,
          "time": 70.28576699999957,
          "velocity": 0.7874015748031497,
          "duration": 0.2238096916666592
        },
        {
          "name": "G3",
          "midi": 55,
          "time": 70.28576699999957,
          "velocity": 0.8110236220472441,
          "duration": 0.11904770833332634
        },
        {
          "name": "B3",
          "midi": 59,
          "time": 70.28576699999957,
          "velocity": 0.8976377952755905,
          "duration": 0.11904770833332634
        },
        {
          "name": "D4",
          "midi": 62,
          "time": 70.28576699999957,
          "velocity": 0.6141732283464567,
          "duration": 0.11904770833332634
        },
        {
          "name": "D2",
          "midi": 38,
          "time": 70.28576699999957,
          "velocity": 0.7716535433070866,
          "duration": 0.0714286249999958
        },
        {
          "name": "F#2",
          "midi": 42,
          "time": 70.28576699999957,
          "velocity": 0.6771653543307087,
          "duration": 0.047619083333330536
        },
        {
          "name": "D2",
          "midi": 38,
          "time": 70.57148149999956,
          "velocity": 0.7874015748031497,
          "duration": 0.295238316666655
        },
        {
          "name": "B3",
          "midi": 59,
          "time": 70.57148149999956,
          "velocity": 0.7637795275590551,
          "duration": 0.11904770833332634
        },
        {
          "name": "G3",
          "midi": 55,
          "time": 70.57148149999956,
          "velocity": 0.6299212598425197,
          "duration": 0.11904770833332634
        },
        {
          "name": "C2",
          "midi": 36,
          "time": 70.57148149999956,
          "velocity": 0.84251968503937,
          "duration": 0.0714286249999958
        },
        {
          "name": "F#2",
          "midi": 42,
          "time": 70.57148149999956,
          "velocity": 0.6771653543307087,
          "duration": 0.047619083333330536
        },
        {
          "name": "E2",
          "midi": 40,
          "time": 70.85719599999955,
          "velocity": 0.7874015748031497,
          "duration": 0.6047623583333319
        },
        {
          "name": "E3",
          "midi": 52,
          "time": 70.85719599999955,
          "velocity": 0.7401574803149606,
          "duration": 0.11904770833334055
        },
        {
          "name": "B2",
          "midi": 47,
          "time": 70.85719599999955,
          "velocity": 0.7086614173228346,
          "duration": 0.11904770833334055
        },
        {
          "name": "G3",
          "midi": 55,
          "time": 70.85719599999955,
          "velocity": 0.7952755905511811,
          "duration": 0.11904770833334055
        },
        {
          "name": "B3",
          "midi": 59,
          "time": 70.85719599999955,
          "velocity": 0.8031496062992126,
          "duration": 0.11904770833334055
        },
        {
          "name": "E4",
          "midi": 64,
          "time": 70.85719599999955,
          "velocity": 0.7795275590551181,
          "duration": 0.11904770833334055
        },
        {
          "name": "C2",
          "midi": 36,
          "time": 70.85719599999955,
          "velocity": 0.84251968503937,
          "duration": 0.5714289999999949
        },
        {
          "name": "F#2",
          "midi": 42,
          "time": 70.85719599999955,
          "velocity": 0.6771653543307087,
          "duration": 0.04761908333334475
        },
        {
          "name": "F#2",
          "midi": 42,
          "time": 71.14291049999956,
          "velocity": 0.6771653543307087,
          "duration": 0.047619083333330536
        },
        {
          "name": "E4",
          "midi": 64,
          "time": 71.28576774999955,
          "velocity": 0.7952755905511811,
          "duration": 0.11904770833332634
        },
        {
          "name": "B3",
          "midi": 59,
          "time": 71.28576774999955,
          "velocity": 0.7086614173228346,
          "duration": 0.11904770833332634
        },
        {
          "name": "G3",
          "midi": 55,
          "time": 71.28576774999955,
          "velocity": 0.5905511811023622,
          "duration": 0.11904770833332634
        },
        {
          "name": "E4",
          "midi": 64,
          "time": 71.42862499999954,
          "velocity": 0.7244094488188977,
          "duration": 0.11904770833332634
        },
        {
          "name": "E2",
          "midi": 40,
          "time": 71.42862499999954,
          "velocity": 0.6299212598425197,
          "duration": 0.11904770833332634
        },
        {
          "name": "B2",
          "midi": 47,
          "time": 71.42862499999954,
          "velocity": 0.7086614173228346,
          "duration": 0.11904770833332634
        },
        {
          "name": "E3",
          "midi": 52,
          "time": 71.42862499999954,
          "velocity": 0.8661417322834646,
          "duration": 0.11904770833332634
        },
        {
          "name": "G3",
          "midi": 55,
          "time": 71.42862499999954,
          "velocity": 0.8740157480314961,
          "duration": 0.11904770833332634
        },
        {
          "name": "B3",
          "midi": 59,
          "time": 71.42862499999954,
          "velocity": 0.8661417322834646,
          "duration": 0.11904770833332634
        },
        {
          "name": "E4",
          "midi": 64,
          "time": 71.42862499999954,
          "velocity": 0.7874015748031497,
          "duration": 0.24761923333332447
        },
        {
          "name": "D2",
          "midi": 38,
          "time": 71.42862499999954,
          "velocity": 0.7716535433070866,
          "duration": 0.047619083333330536
        },
        {
          "name": "F#2",
          "midi": 42,
          "time": 71.42862499999954,
          "velocity": 0.6771653543307087,
          "duration": 0.0714286249999958
        },
        {
          "name": "D4",
          "midi": 62,
          "time": 71.42862499999954,
          "velocity": 0.007874015748031496,
          "duration": 0.12380961666666224
        },
        {
          "name": "G4",
          "midi": 67,
          "time": 71.71433949999954,
          "velocity": 0.7244094488188977,
          "duration": 0.19047633333333636
        },
        {
          "name": "B1",
          "midi": 35,
          "time": 71.71433949999954,
          "velocity": 0.7874015748031497,
          "duration": 0.047619083333330536
        },
        {
          "name": "G3",
          "midi": 55,
          "time": 71.71433949999954,
          "velocity": 0.9291338582677166,
          "duration": 0.11904770833334055
        },
        {
          "name": "B3",
          "midi": 59,
          "time": 71.71433949999954,
          "velocity": 0.9606299212598425,
          "duration": 0.11904770833334055
        },
        {
          "name": "E4",
          "midi": 64,
          "time": 71.71433949999954,
          "velocity": 0.8818897637795275,
          "duration": 0.11904770833334055
        },
        {
          "name": "C2",
          "midi": 36,
          "time": 71.71433949999954,
          "velocity": 0.84251968503937,
          "duration": 0.05714290000000233
        },
        {
          "name": "D2",
          "midi": 38,
          "time": 71.71433949999954,
          "velocity": 0.7716535433070866,
          "duration": 0.05714290000000233
        },
        {
          "name": "F#2",
          "midi": 42,
          "time": 71.71433949999954,
          "velocity": 0.6771653543307087,
          "duration": 0.05714290000000233
        },
        {
          "name": "D4",
          "midi": 62,
          "time": 71.71433949999954,
          "velocity": 0.007874015748031496,
          "duration": 0.09523816666667528
        },
        {
          "name": "G4",
          "midi": 67,
          "time": 72.00005399999954,
          "velocity": 0.7244094488188977,
          "duration": 0.5476194583333296
        },
        {
          "name": "E2",
          "midi": 40,
          "time": 72.00005399999954,
          "velocity": 0.7874015748031497,
          "duration": 0.05714290000000233
        },
        {
          "name": "C2",
          "midi": 36,
          "time": 72.00005399999954,
          "velocity": 0.84251968503937,
          "duration": 0.0714286249999958
        },
        {
          "name": "F#2",
          "midi": 42,
          "time": 72.00005399999954,
          "velocity": 0.6771653543307087,
          "duration": 0.05714290000000233
        },
        {
          "name": "D4",
          "midi": 62,
          "time": 72.00005399999954,
          "velocity": 0.007874015748031496,
          "duration": 0.27619068333332564
        },
        {
          "name": "E2",
          "midi": 40,
          "time": 72.28576849999953,
          "velocity": 0.7874015748031497,
          "duration": 0.11904770833332634
        },
        {
          "name": "E2",
          "midi": 40,
          "time": 72.28576849999953,
          "velocity": 0.8110236220472441,
          "duration": 0.5333337333333219
        },
        {
          "name": "B2",
          "midi": 47,
          "time": 72.28576849999953,
          "velocity": 0.8740157480314961,
          "duration": 0.11904770833332634
        },
        {
          "name": "E3",
          "midi": 52,
          "time": 72.28576849999953,
          "velocity": 0.7244094488188977,
          "duration": 0.11904770833332634
        },
        {
          "name": "C2",
          "midi": 36,
          "time": 72.28576849999953,
          "velocity": 0.84251968503937,
          "duration": 0.28571449999999743
        },
        {
          "name": "F#2",
          "midi": 42,
          "time": 72.28576849999953,
          "velocity": 0.6771653543307087,
          "duration": 0.047619083333330536
        },
        {
          "name": "B4",
          "midi": 71,
          "time": 72.57148299999953,
          "velocity": 0.7244094488188977,
          "duration": 0.3190478583333345
        },
        {
          "name": "E3",
          "midi": 52,
          "time": 72.57148299999953,
          "velocity": 0.8346456692913385,
          "duration": 0.11904770833332634
        },
        {
          "name": "G3",
          "midi": 55,
          "time": 72.57148299999953,
          "velocity": 0.8818897637795275,
          "duration": 0.11904770833332634
        },
        {
          "name": "B3",
          "midi": 59,
          "time": 72.57148299999953,
          "velocity": 0.9291338582677166,
          "duration": 0.11904770833332634
        },
        {
          "name": "E4",
          "midi": 64,
          "time": 72.57148299999953,
          "velocity": 0.9291338582677166,
          "duration": 0.11904770833332634
        },
        {
          "name": "D2",
          "midi": 38,
          "time": 72.57148299999953,
          "velocity": 0.7716535433070866,
          "duration": 0.0714286249999958
        },
        {
          "name": "F#2",
          "midi": 42,
          "time": 72.57148299999953,
          "velocity": 0.6771653543307087,
          "duration": 0.047619083333330536
        },
        {
          "name": "D4",
          "midi": 62,
          "time": 72.57148299999953,
          "velocity": 0.007874015748031496,
          "duration": 0.16190488333332098
        },
        {
          "name": "A4",
          "midi": 69,
          "time": 72.85719749999953,
          "velocity": 0.7244094488188977,
          "duration": 0.1380953416666557
        },
        {
          "name": "B1",
          "midi": 35,
          "time": 72.85719749999953,
          "velocity": 0.7874015748031497,
          "duration": 0.24761923333332447
        },
        {
          "name": "D#2",
          "midi": 39,
          "time": 72.85719749999953,
          "velocity": 0.3700787401574803,
          "duration": 0.11904770833332634
        },
        {
          "name": "B3",
          "midi": 59,
          "time": 72.85719749999953,
          "velocity": 0.7007874015748031,
          "duration": 0.11904770833332634
        },
        {
          "name": "E4",
          "midi": 64,
          "time": 72.85719749999953,
          "velocity": 0.5826771653543307,
          "duration": 0.11904770833332634
        },
        {
          "name": "C2",
          "midi": 36,
          "time": 72.85719749999953,
          "velocity": 0.84251968503937,
          "duration": 0.0714286249999958
        },
        {
          "name": "F#2",
          "midi": 42,
          "time": 72.85719749999953,
          "velocity": 0.6771653543307087,
          "duration": 0.047619083333330536
        },
        {
          "name": "D4",
          "midi": 62,
          "time": 72.85719749999953,
          "velocity": 0.007874015748031496,
          "duration": 0.1380953416666557
        },
        {
          "name": "B4",
          "midi": 71,
          "time": 73.00005474999952,
          "velocity": 0.7244094488188977,
          "duration": 0.1380953416666557
        },
        {
          "name": "A4",
          "midi": 69,
          "time": 73.14291199999951,
          "velocity": 0.7244094488188977,
          "duration": 0.28095259166666153
        },
        {
          "name": "E2",
          "midi": 40,
          "time": 73.14291199999951,
          "velocity": 0.7874015748031497,
          "duration": 0.6190480833333254
        },
        {
          "name": "B3",
          "midi": 59,
          "time": 73.14291199999951,
          "velocity": 0.7401574803149606,
          "duration": 0.11904770833332634
        },
        {
          "name": "E4",
          "midi": 64,
          "time": 73.14291199999951,
          "velocity": 0.7244094488188977,
          "duration": 0.11904770833332634
        },
        {
          "name": "G3",
          "midi": 55,
          "time": 73.14291199999951,
          "velocity": 0.6850393700787402,
          "duration": 0.11904770833332634
        },
        {
          "name": "C2",
          "midi": 36,
          "time": 73.14291199999951,
          "velocity": 0.84251968503937,
          "duration": 0.5714289999999949
        },
        {
          "name": "F#2",
          "midi": 42,
          "time": 73.14291199999951,
          "velocity": 0.6771653543307087,
          "duration": 0.047619083333330536
        },
        {
          "name": "G4",
          "midi": 67,
          "time": 73.42862649999951,
          "velocity": 0.7244094488188977,
          "duration": 1.5000011249999687
        },
        {
          "name": "B3",
          "midi": 59,
          "time": 73.42862649999951,
          "velocity": 0.6062992125984252,
          "duration": 0.11904770833332634
        },
        {
          "name": "E4",
          "midi": 64,
          "time": 73.42862649999951,
          "velocity": 0.5826771653543307,
          "duration": 0.11904770833332634
        },
        {
          "name": "F#2",
          "midi": 42,
          "time": 73.42862649999951,
          "velocity": 0.6771653543307087,
          "duration": 0.047619083333330536
        },
        {
          "name": "D4",
          "midi": 62,
          "time": 73.42862649999951,
          "velocity": 0.007874015748031496,
          "duration": 0.18095251666666456
        },
        {
          "name": "E4",
          "midi": 64,
          "time": 73.5714837499995,
          "velocity": 0.7401574803149606,
          "duration": 0.11904770833334055
        },
        {
          "name": "B3",
          "midi": 59,
          "time": 73.5714837499995,
          "velocity": 0.5826771653543307,
          "duration": 0.11904770833334055
        },
        {
          "name": "B3",
          "midi": 59,
          "time": 73.71434099999951,
          "velocity": 0.7086614173228346,
          "duration": 0.11904770833332634
        },
        {
          "name": "E4",
          "midi": 64,
          "time": 73.71434099999951,
          "velocity": 0.7401574803149606,
          "duration": 0.11904770833332634
        },
        {
          "name": "D2",
          "midi": 38,
          "time": 73.71434099999951,
          "velocity": 0.7716535433070866,
          "duration": 0.047619083333330536
        },
        {
          "name": "F#2",
          "midi": 42,
          "time": 73.71434099999951,
          "velocity": 0.6771653543307087,
          "duration": 0.0714286249999958
        },
        {
          "name": "B1",
          "midi": 35,
          "time": 74.0000554999995,
          "velocity": 0.7874015748031497,
          "duration": 0.047619083333330536
        },
        {
          "name": "E3",
          "midi": 52,
          "time": 74.0000554999995,
          "velocity": 0.6141732283464567,
          "duration": 0.11904770833334055
        },
        {
          "name": "B3",
          "midi": 59,
          "time": 74.0000554999995,
          "velocity": 0.7401574803149606,
          "duration": 0.11904770833334055
        },
        {
          "name": "E4",
          "midi": 64,
          "time": 74.0000554999995,
          "velocity": 0.7559055118110236,
          "duration": 0.11904770833334055
        },
        {
          "name": "B4",
          "midi": 71,
          "time": 74.0000554999995,
          "velocity": 0.7244094488188977,
          "duration": 0.09523816666667528
        },
        {
          "name": "B5",
          "midi": 83,
          "time": 74.0000554999995,
          "velocity": 0.7874015748031497,
          "duration": 0.19047633333333636
        },
        {
          "name": "D5",
          "midi": 74,
          "time": 74.0000554999995,
          "velocity": 0.7165354330708661,
          "duration": 0.10476198333334708
        },
        {
          "name": "C2",
          "midi": 36,
          "time": 74.0000554999995,
          "velocity": 0.84251968503937,
          "duration": 0.05714290000000233
        },
        {
          "name": "D2",
          "midi": 38,
          "time": 74.0000554999995,
          "velocity": 0.7716535433070866,
          "duration": 0.05714290000000233
        },
        {
          "name": "F#2",
          "midi": 42,
          "time": 74.0000554999995,
          "velocity": 0.6771653543307087,
          "duration": 0.05714290000000233
        },
        {
          "name": "E2",
          "midi": 40,
          "time": 74.2857699999995,
          "velocity": 0.7874015748031497,
          "duration": 0.047619083333330536
        },
        {
          "name": "B5",
          "midi": 83,
          "time": 74.2857699999995,
          "velocity": 0.7716535433070866,
          "duration": 0.1428572499999916
        },
        {
          "name": "D5",
          "midi": 74,
          "time": 74.2857699999995,
          "velocity": 0.8267716535433071,
          "duration": 0.10476198333333286
        },
        {
          "name": "B4",
          "midi": 71,
          "time": 74.2857699999995,
          "velocity": 0.7716535433070866,
          "duration": 0.11904770833332634
        },
        {
          "name": "C2",
          "midi": 36,
          "time": 74.2857699999995,
          "velocity": 0.84251968503937,
          "duration": 0.0714286249999958
        },
        {
          "name": "F#2",
          "midi": 42,
          "time": 74.2857699999995,
          "velocity": 0.6771653543307087,
          "duration": 0.05714290000000233
        },
        {
          "name": "E2",
          "midi": 40,
          "time": 74.5714844999995,
          "velocity": 0.7874015748031497,
          "duration": 0.2238096916666592
        },
        {
          "name": "E3",
          "midi": 52,
          "time": 74.5714844999995,
          "velocity": 0.6614173228346457,
          "duration": 0.11904770833332634
        },
        {
          "name": "B2",
          "midi": 47,
          "time": 74.5714844999995,
          "velocity": 0.6299212598425197,
          "duration": 0.11904770833332634
        },
        {
          "name": "C2",
          "midi": 36,
          "time": 74.5714844999995,
          "velocity": 0.84251968503937,
          "duration": 0.2857144999999832
        },
        {
          "name": "F#2",
          "midi": 42,
          "time": 74.5714844999995,
          "velocity": 0.6771653543307087,
          "duration": 0.047619083333330536
        },
        {
          "name": "C5",
          "midi": 72,
          "time": 74.71434174999949,
          "velocity": 0.8582677165354331,
          "duration": 0.10476198333333286
        },
        {
          "name": "A5",
          "midi": 81,
          "time": 74.71434174999949,
          "velocity": 0.7795275590551181,
          "duration": 0.11904770833332634
        },
        {
          "name": "A4",
          "midi": 69,
          "time": 74.71434174999949,
          "velocity": 0.6771653543307087,
          "duration": 0.11904770833332634
        },
        {
          "name": "D2",
          "midi": 38,
          "time": 74.85719899999948,
          "velocity": 0.7874015748031497,
          "duration": 0.0714286249999958
        },
        {
          "name": "B3",
          "midi": 59,
          "time": 74.85719899999948,
          "velocity": 0.8110236220472441,
          "duration": 0.11904770833332634
        },
        {
          "name": "E4",
          "midi": 64,
          "time": 74.85719899999948,
          "velocity": 0.8110236220472441,
          "duration": 0.11904770833332634
        },
        {
          "name": "D2",
          "midi": 38,
          "time": 74.85719899999948,
          "velocity": 0.7716535433070866,
          "duration": 0.5238099166666501
        },
        {
          "name": "F#2",
          "midi": 42,
          "time": 74.85719899999948,
          "velocity": 0.6771653543307087,
          "duration": 0.047619083333330536
        },
        {
          "name": "B3",
          "midi": 59,
          "time": 75.14291349999948,
          "velocity": 0.7952755905511811,
          "duration": 0.11904770833332634
        },
        {
          "name": "B4",
          "midi": 71,
          "time": 75.14291349999948,
          "velocity": 0.8346456692913385,
          "duration": 0.0714286249999958
        },
        {
          "name": "G5",
          "midi": 79,
          "time": 75.14291349999948,
          "velocity": 0.7401574803149606,
          "duration": 0.05714290000000233
        },
        {
          "name": "G4",
          "midi": 67,
          "time": 75.14291349999948,
          "velocity": 0.7086614173228346,
          "duration": 0.05714290000000233
        },
        {
          "name": "C2",
          "midi": 36,
          "time": 75.14291349999948,
          "velocity": 0.84251968503937,
          "duration": 0.0714286249999958
        },
        {
          "name": "F#2",
          "midi": 42,
          "time": 75.14291349999948,
          "velocity": 0.6771653543307087,
          "duration": 0.047619083333330536
        },
        {
          "name": "C2",
          "midi": 36,
          "time": 75.42862799999946,
          "velocity": 0.7874015748031497,
          "duration": 0.5714289999999664
        },
        {
          "name": "C3",
          "midi": 48,
          "time": 75.42862799999946,
          "velocity": 0.6614173228346457,
          "duration": 0.11904770833332634
        },
        {
          "name": "G3",
          "midi": 55,
          "time": 75.42862799999946,
          "velocity": 0.905511811023622,
          "duration": 0.11904770833332634
        },
        {
          "name": "C4",
          "midi": 60,
          "time": 75.42862799999946,
          "velocity": 0.9133858267716536,
          "duration": 0.11904770833332634
        },
        {
          "name": "E4",
          "midi": 64,
          "time": 75.42862799999946,
          "velocity": 0.8582677165354331,
          "duration": 0.11904770833332634
        },
        {
          "name": "E4",
          "midi": 64,
          "time": 75.42862799999946,
          "velocity": 0.8582677165354331,
          "duration": 0.40476220833330956
        },
        {
          "name": "G4",
          "midi": 67,
          "time": 75.42862799999946,
          "velocity": 0.7637795275590551,
          "duration": 1.5095249416666405
        },
        {
          "name": "C2",
          "midi": 36,
          "time": 75.42862799999946,
          "velocity": 0.84251968503937,
          "duration": 0.5952385416666317
        },
        {
          "name": "F#2",
          "midi": 42,
          "time": 75.42862799999946,
          "velocity": 0.6771653543307087,
          "duration": 0.047619083333330536
        },
        {
          "name": "A3",
          "midi": 57,
          "time": 75.42862799999946,
          "velocity": 0.5905511811023622,
          "duration": 1.2714295249999736
        },
        {
          "name": "C4",
          "midi": 60,
          "time": 75.71434249999945,
          "velocity": 0.6299212598425197,
          "duration": 0.11904770833332634
        },
        {
          "name": "E4",
          "midi": 64,
          "time": 75.71434249999945,
          "velocity": 0.6456692913385826,
          "duration": 0.26190495833331795
        },
        {
          "name": "F#2",
          "midi": 42,
          "time": 75.71434249999945,
          "velocity": 0.6771653543307087,
          "duration": 0.047619083333330536
        },
        {
          "name": "E4",
          "midi": 64,
          "time": 75.85719974999944,
          "velocity": 0.8582677165354331,
          "duration": 0.26190495833331795
        },
        {
          "name": "E5",
          "midi": 76,
          "time": 76.00005699999943,
          "velocity": 0.7244094488188977,
          "duration": 0.20000014999999394
        },
        {
          "name": "G3",
          "midi": 55,
          "time": 76.00005699999943,
          "velocity": 0.6299212598425197,
          "duration": 0.11904770833332634
        },
        {
          "name": "C4",
          "midi": 60,
          "time": 76.00005699999943,
          "velocity": 0.8267716535433071,
          "duration": 0.11904770833332634
        },
        {
          "name": "E4",
          "midi": 64,
          "time": 76.00005699999943,
          "velocity": 0.8110236220472441,
          "duration": 0.9380959416666741
        },
        {
          "name": "D2",
          "midi": 38,
          "time": 76.00005699999943,
          "velocity": 0.7716535433070866,
          "duration": 0.047619083333330536
        },
        {
          "name": "F#2",
          "midi": 42,
          "time": 76.00005699999943,
          "velocity": 0.6771653543307087,
          "duration": 0.0714286249999958
        },
        {
          "name": "D4",
          "midi": 62,
          "time": 76.00005699999943,
          "velocity": 0.007874015748031496,
          "duration": 0.10000007499999697
        },
        {
          "name": "E5",
          "midi": 76,
          "time": 76.28577149999943,
          "velocity": 0.7244094488188977,
          "duration": 0.24761923333333868
        },
        {
          "name": "G1",
          "midi": 31,
          "time": 76.28577149999943,
          "velocity": 0.7874015748031497,
          "duration": 0.05714290000000233
        },
        {
          "name": "C3",
          "midi": 48,
          "time": 76.28577149999943,
          "velocity": 0.7165354330708661,
          "duration": 0.11904770833334055
        },
        {
          "name": "G3",
          "midi": 55,
          "time": 76.28577149999943,
          "velocity": 0.8582677165354331,
          "duration": 0.11904770833334055
        },
        {
          "name": "C4",
          "midi": 60,
          "time": 76.28577149999943,
          "velocity": 0.8740157480314961,
          "duration": 0.11904770833334055
        },
        {
          "name": "C2",
          "midi": 36,
          "time": 76.28577149999943,
          "velocity": 0.84251968503937,
          "duration": 0.05714290000000233
        },
        {
          "name": "D2",
          "midi": 38,
          "time": 76.28577149999943,
          "velocity": 0.7716535433070866,
          "duration": 0.05714290000000233
        },
        {
          "name": "F#2",
          "midi": 42,
          "time": 76.28577149999943,
          "velocity": 0.6771653543307087,
          "duration": 0.05714290000000233
        },
        {
          "name": "D4",
          "midi": 62,
          "time": 76.28577149999943,
          "velocity": 0.007874015748031496,
          "duration": 0.12380961666667645
        },
        {
          "name": "E5",
          "midi": 76,
          "time": 76.57148599999944,
          "velocity": 0.7244094488188977,
          "duration": 0.4523812916666685
        },
        {
          "name": "C2",
          "midi": 36,
          "time": 76.57148599999944,
          "velocity": 0.7874015748031497,
          "duration": 0.047619083333330536
        },
        {
          "name": "C2",
          "midi": 36,
          "time": 76.57148599999944,
          "velocity": 0.84251968503937,
          "duration": 0.0714286249999958
        },
        {
          "name": "F#2",
          "midi": 42,
          "time": 76.57148599999944,
          "velocity": 0.6771653543307087,
          "duration": 0.05714290000000233
        },
        {
          "name": "D4",
          "midi": 62,
          "time": 76.57148599999944,
          "velocity": 0.007874015748031496,
          "duration": 0.2285715999999951
        },
        {
          "name": "C2",
          "midi": 36,
          "time": 76.85720049999944,
          "velocity": 0.7874015748031497,
          "duration": 0.28571449999999743
        },
        {
          "name": "C3",
          "midi": 48,
          "time": 76.85720049999944,
          "velocity": 0.6692913385826772,
          "duration": 0.11904770833334055
        },
        {
          "name": "G3",
          "midi": 55,
          "time": 76.85720049999944,
          "velocity": 0.7559055118110236,
          "duration": 0.11904770833334055
        },
        {
          "name": "C2",
          "midi": 36,
          "time": 76.85720049999944,
          "velocity": 0.84251968503937,
          "duration": 0.5476194583333296
        },
        {
          "name": "F#2",
          "midi": 42,
          "time": 76.85720049999944,
          "velocity": 0.6771653543307087,
          "duration": 0.047619083333330536
        },
        {
          "name": "E5",
          "midi": 76,
          "time": 77.14291499999943,
          "velocity": 0.7244094488188977,
          "duration": 0.2952383166666692
        },
        {
          "name": "E4",
          "midi": 64,
          "time": 77.14291499999943,
          "velocity": 0.7322834645669292,
          "duration": 0.11904770833332634
        },
        {
          "name": "G3",
          "midi": 55,
          "time": 77.14291499999943,
          "velocity": 0.7795275590551181,
          "duration": 0.11904770833332634
        },
        {
          "name": "C4",
          "midi": 60,
          "time": 77.14291499999943,
          "velocity": 0.8346456692913385,
          "duration": 0.11904770833332634
        },
        {
          "name": "D2",
          "midi": 38,
          "time": 77.14291499999943,
          "velocity": 0.7716535433070866,
          "duration": 0.0714286249999958
        },
        {
          "name": "F#2",
          "midi": 42,
          "time": 77.14291499999943,
          "velocity": 0.6771653543307087,
          "duration": 0.047619083333330536
        },
        {
          "name": "D4",
          "midi": 62,
          "time": 77.14291499999943,
          "velocity": 0.007874015748031496,
          "duration": 0.1476191583333275
        },
        {
          "name": "F5",
          "midi": 77,
          "time": 77.42862949999943,
          "velocity": 0.7244094488188977,
          "duration": 0.6047623583333461
        },
        {
          "name": "G1",
          "midi": 31,
          "time": 77.42862949999943,
          "velocity": 0.7874015748031497,
          "duration": 0.21428587500001584
        },
        {
          "name": "C2",
          "midi": 36,
          "time": 77.42862949999943,
          "velocity": 0.84251968503937,
          "duration": 0.07142862500001002
        },
        {
          "name": "F#2",
          "midi": 42,
          "time": 77.42862949999943,
          "velocity": 0.6771653543307087,
          "duration": 0.04761908333334475
        },
        {
          "name": "D4",
          "midi": 62,
          "time": 77.42862949999943,
          "velocity": 0.007874015748031496,
          "duration": 0.304762133333341
        },
        {
          "name": "C2",
          "midi": 36,
          "time": 77.71434399999944,
          "velocity": 0.7874015748031497,
          "duration": 0.5714289999999806
        },
        {
          "name": "C3",
          "midi": 48,
          "time": 77.71434399999944,
          "velocity": 0.6614173228346457,
          "duration": 0.11904770833332634
        },
        {
          "name": "G3",
          "midi": 55,
          "time": 77.71434399999944,
          "velocity": 0.905511811023622,
          "duration": 0.11904770833332634
        },
        {
          "name": "C4",
          "midi": 60,
          "time": 77.71434399999944,
          "velocity": 0.9133858267716536,
          "duration": 0.11904770833332634
        },
        {
          "name": "E4",
          "midi": 64,
          "time": 77.71434399999944,
          "velocity": 0.8582677165354331,
          "duration": 0.11904770833332634
        },
        {
          "name": "C2",
          "midi": 36,
          "time": 77.71434399999944,
          "velocity": 0.84251968503937,
          "duration": 0.628571899999983
        },
        {
          "name": "F#2",
          "midi": 42,
          "time": 77.71434399999944,
          "velocity": 0.6771653543307087,
          "duration": 0.047619083333330536
        },
        {
          "name": "E5",
          "midi": 76,
          "time": 78.00005849999944,
          "velocity": 0.7244094488188977,
          "duration": 0.3190478583333203
        },
        {
          "name": "C4",
          "midi": 60,
          "time": 78.00005849999944,
          "velocity": 0.6299212598425197,
          "duration": 0.11904770833332634
        },
        {
          "name": "E4",
          "midi": 64,
          "time": 78.00005849999944,
          "velocity": 0.6456692913385826,
          "duration": 0.11904770833332634
        },
        {
          "name": "F#2",
          "midi": 42,
          "time": 78.00005849999944,
          "velocity": 0.6771653543307087,
          "duration": 0.047619083333330536
        },
        {
          "name": "D4",
          "midi": 62,
          "time": 78.00005849999944,
          "velocity": 0.007874015748031496,
          "duration": 0.16190488333332098
        },
        {
          "name": "E4",
          "midi": 64,
          "time": 78.14291574999943,
          "velocity": 0.8582677165354331,
          "duration": 0.11904770833332634
        },
        {
          "name": "D5",
          "midi": 74,
          "time": 78.28577299999942,
          "velocity": 0.7244094488188977,
          "duration": 0.2952383166666692
        },
        {
          "name": "G3",
          "midi": 55,
          "time": 78.28577299999942,
          "velocity": 0.6299212598425197,
          "duration": 0.11904770833332634
        },
        {
          "name": "C4",
          "midi": 60,
          "time": 78.28577299999942,
          "velocity": 0.8267716535433071,
          "duration": 0.11904770833332634
        },
        {
          "name": "E4",
          "midi": 64,
          "time": 78.28577299999942,
          "velocity": 0.8110236220472441,
          "duration": 0.11904770833332634
        },
        {
          "name": "D2",
          "midi": 38,
          "time": 78.28577299999942,
          "velocity": 0.7716535433070866,
          "duration": 0.047619083333330536
        },
        {
          "name": "F#2",
          "midi": 42,
          "time": 78.28577299999942,
          "velocity": 0.6771653543307087,
          "duration": 0.0714286249999958
        },
        {
          "name": "D4",
          "midi": 62,
          "time": 78.28577299999942,
          "velocity": 0.007874015748031496,
          "duration": 0.28095259166666153
        },
        {
          "name": "C5",
          "midi": 72,
          "time": 78.57148749999942,
          "velocity": 0.7244094488188977,
          "duration": 0.3095240416666627
        },
        {
          "name": "G1",
          "midi": 31,
          "time": 78.57148749999942,
          "velocity": 0.7874015748031497,
          "duration": 0.0714286249999958
        },
        {
          "name": "C3",
          "midi": 48,
          "time": 78.57148749999942,
          "velocity": 0.7165354330708661,
          "duration": 0.11904770833332634
        },
        {
          "name": "G3",
          "midi": 55,
          "time": 78.57148749999942,
          "velocity": 0.8582677165354331,
          "duration": 0.11904770833332634
        },
        {
          "name": "C4",
          "midi": 60,
          "time": 78.57148749999942,
          "velocity": 0.8740157480314961,
          "duration": 0.11904770833332634
        },
        {
          "name": "C2",
          "midi": 36,
          "time": 78.57148749999942,
          "velocity": 0.84251968503937,
          "duration": 0.05714290000000233
        },
        {
          "name": "D2",
          "midi": 38,
          "time": 78.57148749999942,
          "velocity": 0.7716535433070866,
          "duration": 0.05714290000000233
        },
        {
          "name": "F#2",
          "midi": 42,
          "time": 78.57148749999942,
          "velocity": 0.6771653543307087,
          "duration": 0.05714290000000233
        },
        {
          "name": "D5",
          "midi": 74,
          "time": 78.85720199999942,
          "velocity": 0.7244094488188977,
          "duration": 0.28571449999999743
        },
        {
          "name": "C2",
          "midi": 36,
          "time": 78.85720199999942,
          "velocity": 0.7874015748031497,
          "duration": 0.047619083333330536
        },
        {
          "name": "C2",
          "midi": 36,
          "time": 78.85720199999942,
          "velocity": 0.84251968503937,
          "duration": 0.0714286249999958
        },
        {
          "name": "F#2",
          "midi": 42,
          "time": 78.85720199999942,
          "velocity": 0.6771653543307087,
          "duration": 0.05714290000000233
        },
        {
          "name": "D4",
          "midi": 62,
          "time": 78.85720199999942,
          "velocity": 0.007874015748031496,
          "duration": 0.26666686666666806
        },
        {
          "name": "E5",
          "midi": 76,
          "time": 79.14291649999942,
          "velocity": 0.7244094488188977,
          "duration": 0.4619051083333119
        },
        {
          "name": "C2",
          "midi": 36,
          "time": 79.14291649999942,
          "velocity": 0.7874015748031497,
          "duration": 0.2857144999999832
        },
        {
          "name": "C3",
          "midi": 48,
          "time": 79.14291649999942,
          "velocity": 0.6692913385826772,
          "duration": 0.11904770833332634
        },
        {
          "name": "G3",
          "midi": 55,
          "time": 79.14291649999942,
          "velocity": 0.7559055118110236,
          "duration": 0.11904770833332634
        },
        {
          "name": "G5",
          "midi": 79,
          "time": 79.14291649999942,
          "velocity": 0.7952755905511811,
          "duration": 0.4285717499999748
        },
        {
          "name": "G4",
          "midi": 67,
          "time": 79.14291649999942,
          "velocity": 0.7165354330708661,
          "duration": 0.23809541666665268
        },
        {
          "name": "C5",
          "midi": 72,
          "time": 79.14291649999942,
          "velocity": 0.6141732283464567,
          "duration": 0.023809541666665268
        },
        {
          "name": "C2",
          "midi": 36,
          "time": 79.14291649999942,
          "velocity": 0.84251968503937,
          "duration": 0.2857144999999832
        },
        {
          "name": "F#2",
          "midi": 42,
          "time": 79.14291649999942,
          "velocity": 0.6771653543307087,
          "duration": 0.047619083333330536
        },
        {
          "name": "E2",
          "midi": 40,
          "time": 79.4286309999994,
          "velocity": 0.7874015748031497,
          "duration": 0.27142877500000395
        },
        {
          "name": "E4",
          "midi": 64,
          "time": 79.4286309999994,
          "velocity": 0.7322834645669292,
          "duration": 0.11904770833332634
        },
        {
          "name": "G3",
          "midi": 55,
          "time": 79.4286309999994,
          "velocity": 0.7795275590551181,
          "duration": 0.11904770833332634
        },
        {
          "name": "C4",
          "midi": 60,
          "time": 79.4286309999994,
          "velocity": 0.8346456692913385,
          "duration": 0.11904770833332634
        },
        {
          "name": "G4",
          "midi": 67,
          "time": 79.4286309999994,
          "velocity": 0.28346456692913385,
          "duration": 0.21428587500000162
        },
        {
          "name": "E5",
          "midi": 76,
          "time": 79.4286309999994,
          "velocity": 0.8582677165354331,
          "duration": 0.33333358333332797
        },
        {
          "name": "D2",
          "midi": 38,
          "time": 79.4286309999994,
          "velocity": 0.7716535433070866,
          "duration": 0.0714286249999958
        },
        {
          "name": "F#2",
          "midi": 42,
          "time": 79.4286309999994,
          "velocity": 0.6771653543307087,
          "duration": 0.047619083333330536
        },
        {
          "name": "D5",
          "midi": 74,
          "time": 79.57148824999939,
          "velocity": 0.7244094488188977,
          "duration": 0.11904770833334055
        },
        {
          "name": "C5",
          "midi": 72,
          "time": 79.7143454999994,
          "velocity": 0.7244094488188977,
          "duration": 0.20000014999999394
        },
        {
          "name": "G1",
          "midi": 31,
          "time": 79.7143454999994,
          "velocity": 0.7874015748031497,
          "duration": 0.23809541666665268
        },
        {
          "name": "G4",
          "midi": 67,
          "time": 79.7143454999994,
          "velocity": 0.4094488188976378,
          "duration": 0.20000014999999394
        },
        {
          "name": "C5",
          "midi": 72,
          "time": 79.7143454999994,
          "velocity": 0.8267716535433071,
          "duration": 0.34285739999998555
        },
        {
          "name": "C2",
          "midi": 36,
          "time": 79.7143454999994,
          "velocity": 0.84251968503937,
          "duration": 0.0714286249999958
        },
        {
          "name": "F#2",
          "midi": 42,
          "time": 79.7143454999994,
          "velocity": 0.6771653543307087,
          "duration": 0.047619083333330536
        },
        {
          "name": "E5",
          "midi": 76,
          "time": 79.85720274999939,
          "velocity": 0.3779527559055118,
          "duration": 0.0809524416666676
        },
        {
          "name": "C2",
          "midi": 36,
          "time": 80.00005999999938,
          "velocity": 0.7874015748031497,
          "duration": 0.5714289999999806
        },
        {
          "name": "E4",
          "midi": 64,
          "time": 80.00005999999938,
          "velocity": 0.5905511811023622,
          "duration": 0.11904770833334055
        },
        {
          "name": "C4",
          "midi": 60,
          "time": 80.00005999999938,
          "velocity": 0.84251968503937,
          "duration": 0.11904770833334055
        },
        {
          "name": "D5",
          "midi": 74,
          "time": 80.00005999999938,
          "velocity": 0.7165354330708661,
          "duration": 0.10476198333334708
        },
        {
          "name": "G4",
          "midi": 67,
          "time": 80.00005999999938,
          "velocity": 0.5826771653543307,
          "duration": 1.4380963166666447
        },
        {
          "name": "C2",
          "midi": 36,
          "time": 80.00005999999938,
          "velocity": 0.84251968503937,
          "duration": 0.628571899999983
        },
        {
          "name": "F#2",
          "midi": 42,
          "time": 80.00005999999938,
          "velocity": 0.6771653543307087,
          "duration": 0.047619083333330536
        },
        {
          "name": "E5",
          "midi": 76,
          "time": 80.09529816666605,
          "velocity": 0.7559055118110236,
          "duration": 0.16666679166665688
        },
        {
          "name": "D5",
          "midi": 74,
          "time": 80.19053633333272,
          "velocity": 0.6692913385826772,
          "duration": 0.12857152499999813
        },
        {
          "name": "E4",
          "midi": 64,
          "time": 80.28577449999938,
          "velocity": 0.6062992125984252,
          "duration": 0.11904770833332634
        },
        {
          "name": "C5",
          "midi": 72,
          "time": 80.28577449999938,
          "velocity": 0.7322834645669292,
          "duration": 1.2714295249999878
        },
        {
          "name": "F#2",
          "midi": 42,
          "time": 80.28577449999938,
          "velocity": 0.6771653543307087,
          "duration": 0.047619083333330536
        },
        {
          "name": "E4",
          "midi": 64,
          "time": 80.42863174999937,
          "velocity": 0.7244094488188977,
          "duration": 0.11904770833332634
        },
        {
          "name": "C4",
          "midi": 60,
          "time": 80.57148899999936,
          "velocity": 0.8031496062992126,
          "duration": 0.11904770833332634
        },
        {
          "name": "E4",
          "midi": 64,
          "time": 80.57148899999936,
          "velocity": 0.6062992125984252,
          "duration": 0.11904770833332634
        },
        {
          "name": "G3",
          "midi": 55,
          "time": 80.57148899999936,
          "velocity": 0.7165354330708661,
          "duration": 0.11904770833332634
        },
        {
          "name": "D2",
          "midi": 38,
          "time": 80.57148899999936,
          "velocity": 0.7716535433070866,
          "duration": 0.047619083333330536
        },
        {
          "name": "F#2",
          "midi": 42,
          "time": 80.57148899999936,
          "velocity": 0.6771653543307087,
          "duration": 0.0714286249999958
        },
        {
          "name": "G1",
          "midi": 31,
          "time": 80.85720349999936,
          "velocity": 0.7874015748031497,
          "duration": 0.0714286249999958
        },
        {
          "name": "G3",
          "midi": 55,
          "time": 80.85720349999936,
          "velocity": 0.7952755905511811,
          "duration": 0.11904770833332634
        },
        {
          "name": "C4",
          "midi": 60,
          "time": 80.85720349999936,
          "velocity": 0.9291338582677166,
          "duration": 0.11904770833332634
        },
        {
          "name": "E4",
          "midi": 64,
          "time": 80.85720349999936,
          "velocity": 0.8582677165354331,
          "duration": 0.11904770833332634
        },
        {
          "name": "C2",
          "midi": 36,
          "time": 80.85720349999936,
          "velocity": 0.84251968503937,
          "duration": 0.05714290000000233
        },
        {
          "name": "D2",
          "midi": 38,
          "time": 80.85720349999936,
          "velocity": 0.7716535433070866,
          "duration": 0.05714290000000233
        },
        {
          "name": "F#2",
          "midi": 42,
          "time": 80.85720349999936,
          "velocity": 0.6771653543307087,
          "duration": 0.05714290000000233
        },
        {
          "name": "G4",
          "midi": 67,
          "time": 81.14291799999936,
          "velocity": 0.7244094488188977,
          "duration": 0.404762208333338
        },
        {
          "name": "C2",
          "midi": 36,
          "time": 81.14291799999936,
          "velocity": 0.7874015748031497,
          "duration": 0.047619083333330536
        },
        {
          "name": "C2",
          "midi": 36,
          "time": 81.14291799999936,
          "velocity": 0.84251968503937,
          "duration": 0.0714286249999958
        },
        {
          "name": "F#2",
          "midi": 42,
          "time": 81.14291799999936,
          "velocity": 0.6771653543307087,
          "duration": 0.05714290000000233
        },
        {
          "name": "D4",
          "midi": 62,
          "time": 81.14291799999936,
          "velocity": 0.007874015748031496,
          "duration": 0.1476191583333275
        },
        {
          "name": "C5",
          "midi": 72,
          "time": 81.42863249999935,
          "velocity": 0.7244094488188977,
          "duration": 0.3333335833333422
        },
        {
          "name": "C2",
          "midi": 36,
          "time": 81.42863249999935,
          "velocity": 0.7874015748031497,
          "duration": 0.28571450000001164
        },
        {
          "name": "C3",
          "midi": 48,
          "time": 81.42863249999935,
          "velocity": 0.5826771653543307,
          "duration": 0.11904770833334055
        },
        {
          "name": "C2",
          "midi": 36,
          "time": 81.42863249999935,
          "velocity": 0.84251968503937,
          "duration": 0.5476194583333438
        },
        {
          "name": "F#2",
          "midi": 42,
          "time": 81.42863249999935,
          "velocity": 0.6771653543307087,
          "duration": 0.04761908333334475
        },
        {
          "name": "D4",
          "midi": 62,
          "time": 81.42863249999935,
          "velocity": 0.007874015748031496,
          "duration": 0.1666667916666853
        },
        {
          "name": "D5",
          "midi": 74,
          "time": 81.71434699999936,
          "velocity": 0.7244094488188977,
          "duration": 0.35714312499999323
        },
        {
          "name": "C4",
          "midi": 60,
          "time": 81.71434699999936,
          "velocity": 0.889763779527559,
          "duration": 0.11904770833332634
        },
        {
          "name": "E4",
          "midi": 64,
          "time": 81.71434699999936,
          "velocity": 0.8267716535433071,
          "duration": 0.11904770833332634
        },
        {
          "name": "G3",
          "midi": 55,
          "time": 81.71434699999936,
          "velocity": 0.7244094488188977,
          "duration": 0.11904770833332634
        },
        {
          "name": "C5",
          "midi": 72,
          "time": 81.71434699999936,
          "velocity": 0.8582677165354331,
          "duration": 0.5571432750000014
        },
        {
          "name": "G4",
          "midi": 67,
          "time": 81.71434699999936,
          "velocity": 0.8582677165354331,
          "duration": 0.5476194583333296
        },
        {
          "name": "D2",
          "midi": 38,
          "time": 81.71434699999936,
          "velocity": 0.7716535433070866,
          "duration": 0.0714286249999958
        },
        {
          "name": "F#2",
          "midi": 42,
          "time": 81.71434699999936,
          "velocity": 0.6771653543307087,
          "duration": 0.047619083333330536
        },
        {
          "name": "D4",
          "midi": 62,
          "time": 81.71434699999936,
          "velocity": 0.007874015748031496,
          "duration": 0.18095251666666456
        },
        {
          "name": "E5",
          "midi": 76,
          "time": 82.00006149999936,
          "velocity": 0.7244094488188977,
          "duration": 0.21428587500000162
        },
        {
          "name": "G1",
          "midi": 31,
          "time": 82.00006149999936,
          "velocity": 0.7874015748031497,
          "duration": 0.0714286249999958
        },
        {
          "name": "G3",
          "midi": 55,
          "time": 82.00006149999936,
          "velocity": 0.5354330708661418,
          "duration": 0.11904770833334055
        },
        {
          "name": "C2",
          "midi": 36,
          "time": 82.00006149999936,
          "velocity": 0.84251968503937,
          "duration": 0.0714286249999958
        },
        {
          "name": "F#2",
          "midi": 42,
          "time": 82.00006149999936,
          "velocity": 0.6771653543307087,
          "duration": 0.047619083333330536
        },
        {
          "name": "D4",
          "midi": 62,
          "time": 82.00006149999936,
          "velocity": 0.007874015748031496,
          "duration": 0.10952389166666876
        },
        {
          "name": "F5",
          "midi": 77,
          "time": 82.28577599999936,
          "velocity": 0.7244094488188977,
          "duration": 0.42857174999998904
        },
        {
          "name": "C2",
          "midi": 36,
          "time": 82.28577599999936,
          "velocity": 0.7874015748031497,
          "duration": 0.5714289999999806
        },
        {
          "name": "G3",
          "midi": 55,
          "time": 82.28577599999936,
          "velocity": 0.6141732283464567,
          "duration": 0.11904770833332634
        },
        {
          "name": "C4",
          "midi": 60,
          "time": 82.28577599999936,
          "velocity": 0.7874015748031497,
          "duration": 0.11904770833332634
        },
        {
          "name": "E4",
          "midi": 64,
          "time": 82.28577599999936,
          "velocity": 0.7165354330708661,
          "duration": 0.11904770833332634
        },
        {
          "name": "C2",
          "midi": 36,
          "time": 82.28577599999936,
          "velocity": 0.84251968503937,
          "duration": 0.8095244166666333
        },
        {
          "name": "F#2",
          "midi": 42,
          "time": 82.28577599999936,
          "velocity": 0.6771653543307087,
          "duration": 0.047619083333330536
        },
        {
          "name": "D4",
          "midi": 62,
          "time": 82.28577599999936,
          "velocity": 0.007874015748031496,
          "duration": 0.1476191583333275
        },
        {
          "name": "C4",
          "midi": 60,
          "time": 82.57149049999936,
          "velocity": 0.5433070866141733,
          "duration": 0.11904770833332634
        },
        {
          "name": "E4",
          "midi": 64,
          "time": 82.57149049999936,
          "velocity": 0.5590551181102362,
          "duration": 0.11904770833332634
        },
        {
          "name": "F#2",
          "midi": 42,
          "time": 82.57149049999936,
          "velocity": 0.6771653543307087,
          "duration": 0.047619083333330536
        },
        {
          "name": "E4",
          "midi": 64,
          "time": 82.71434774999935,
          "velocity": 0.8267716535433071,
          "duration": 0.11904770833332634
        },
        {
          "name": "E5",
          "midi": 76,
          "time": 82.85720499999934,
          "velocity": 0.7244094488188977,
          "duration": 0.4285717499999748
        },
        {
          "name": "G3",
          "midi": 55,
          "time": 82.85720499999934,
          "velocity": 0.6299212598425197,
          "duration": 0.11904770833332634
        },
        {
          "name": "C4",
          "midi": 60,
          "time": 82.85720499999934,
          "velocity": 0.7795275590551181,
          "duration": 0.11904770833332634
        },
        {
          "name": "D2",
          "midi": 38,
          "time": 82.85720499999934,
          "velocity": 0.7716535433070866,
          "duration": 0.047619083333330536
        },
        {
          "name": "F#2",
          "midi": 42,
          "time": 82.85720499999934,
          "velocity": 0.6771653543307087,
          "duration": 0.0714286249999958
        },
        {
          "name": "D4",
          "midi": 62,
          "time": 82.85720499999934,
          "velocity": 0.007874015748031496,
          "duration": 0.2809525916666473
        },
        {
          "name": "G1",
          "midi": 31,
          "time": 83.14291949999932,
          "velocity": 0.7874015748031497,
          "duration": 0.0714286249999958
        },
        {
          "name": "G3",
          "midi": 55,
          "time": 83.14291949999932,
          "velocity": 0.7716535433070866,
          "duration": 0.11904770833332634
        },
        {
          "name": "C4",
          "midi": 60,
          "time": 83.14291949999932,
          "velocity": 0.905511811023622,
          "duration": 0.11904770833332634
        },
        {
          "name": "E4",
          "midi": 64,
          "time": 83.14291949999932,
          "velocity": 0.8031496062992126,
          "duration": 0.11904770833332634
        },
        {
          "name": "C2",
          "midi": 36,
          "time": 83.14291949999932,
          "velocity": 0.84251968503937,
          "duration": 0.05714290000000233
        },
        {
          "name": "D2",
          "midi": 38,
          "time": 83.14291949999932,
          "velocity": 0.7716535433070866,
          "duration": 0.05714290000000233
        },
        {
          "name": "F#2",
          "midi": 42,
          "time": 83.14291949999932,
          "velocity": 0.6771653543307087,
          "duration": 0.05714290000000233
        },
        {
          "name": "D5",
          "midi": 74,
          "time": 83.42863399999932,
          "velocity": 0.7244094488188977,
          "duration": 0.5571432749999872
        },
        {
          "name": "C2",
          "midi": 36,
          "time": 83.42863399999932,
          "velocity": 0.7874015748031497,
          "duration": 0.05714290000000233
        },
        {
          "name": "C2",
          "midi": 36,
          "time": 83.42863399999932,
          "velocity": 0.84251968503937,
          "duration": 0.0714286249999958
        },
        {
          "name": "F#2",
          "midi": 42,
          "time": 83.42863399999932,
          "velocity": 0.6771653543307087,
          "duration": 0.05714290000000233
        },
        {
          "name": "D4",
          "midi": 62,
          "time": 83.42863399999932,
          "velocity": 0.007874015748031496,
          "duration": 0.28095259166666153
        },
        {
          "name": "C2",
          "midi": 36,
          "time": 83.71434849999932,
          "velocity": 0.7874015748031497,
          "duration": 0.2857144999999832
        },
        {
          "name": "C3",
          "midi": 48,
          "time": 83.71434849999932,
          "velocity": 0.7007874015748031,
          "duration": 0.11904770833332634
        },
        {
          "name": "G3",
          "midi": 55,
          "time": 83.71434849999932,
          "velocity": 0.7244094488188977,
          "duration": 0.11904770833332634
        },
        {
          "name": "C2",
          "midi": 36,
          "time": 83.71434849999932,
          "velocity": 0.84251968503937,
          "duration": 0.2857144999999832
        },
        {
          "name": "F#2",
          "midi": 42,
          "time": 83.71434849999932,
          "velocity": 0.6771653543307087,
          "duration": 0.047619083333330536
        },
        {
          "name": "C5",
          "midi": 72,
          "time": 84.0000629999993,
          "velocity": 0.7244094488188977,
          "duration": 0.23809541666665268
        },
        {
          "name": "E2",
          "midi": 40,
          "time": 84.0000629999993,
          "velocity": 0.7874015748031497,
          "duration": 0.2857144999999832
        },
        {
          "name": "G3",
          "midi": 55,
          "time": 84.0000629999993,
          "velocity": 0.7559055118110236,
          "duration": 0.11904770833332634
        },
        {
          "name": "C4",
          "midi": 60,
          "time": 84.0000629999993,
          "velocity": 0.8740157480314961,
          "duration": 0.11904770833332634
        },
        {
          "name": "E4",
          "midi": 64,
          "time": 84.0000629999993,
          "velocity": 0.7086614173228346,
          "duration": 0.11904770833332634
        },
        {
          "name": "D2",
          "midi": 38,
          "time": 84.0000629999993,
          "velocity": 0.7716535433070866,
          "duration": 0.0714286249999958
        },
        {
          "name": "F#2",
          "midi": 42,
          "time": 84.0000629999993,
          "velocity": 0.6771653543307087,
          "duration": 0.047619083333330536
        },
        {
          "name": "D4",
          "midi": 62,
          "time": 84.0000629999993,
          "velocity": 0.007874015748031496,
          "duration": 0.11904770833332634
        },
        {
          "name": "C5",
          "midi": 72,
          "time": 84.28577749999928,
          "velocity": 0.7244094488188977,
          "duration": 0.5809528166666666
        },
        {
          "name": "C2",
          "midi": 36,
          "time": 84.28577749999928,
          "velocity": 0.7874015748031497,
          "duration": 0.0714286249999958
        },
        {
          "name": "C4",
          "midi": 60,
          "time": 84.28577749999928,
          "velocity": 0.6141732283464567,
          "duration": 0.11904770833332634
        },
        {
          "name": "C2",
          "midi": 36,
          "time": 84.28577749999928,
          "velocity": 0.84251968503937,
          "duration": 0.24761923333332447
        },
        {
          "name": "F#2",
          "midi": 42,
          "time": 84.28577749999928,
          "velocity": 0.6771653543307087,
          "duration": 0.047619083333330536
        },
        {
          "name": "D4",
          "midi": 62,
          "time": 84.28577749999928,
          "velocity": 0.007874015748031496,
          "duration": 0.2904764083333191
        },
        {
          "name": "G1",
          "midi": 31,
          "time": 84.57149199999927,
          "velocity": 0.7874015748031497,
          "duration": 0.6190480833333538
        },
        {
          "name": "G2",
          "midi": 43,
          "time": 84.57149199999927,
          "velocity": 0.3937007874015748,
          "duration": 0.11904770833334055
        },
        {
          "name": "D3",
          "midi": 50,
          "time": 84.57149199999927,
          "velocity": 0.6692913385826772,
          "duration": 0.11904770833334055
        },
        {
          "name": "G3",
          "midi": 55,
          "time": 84.57149199999927,
          "velocity": 0.5826771653543307,
          "duration": 0.11904770833334055
        },
        {
          "name": "B3",
          "midi": 59,
          "time": 84.57149199999927,
          "velocity": 0.8110236220472441,
          "duration": 0.11904770833334055
        },
        {
          "name": "G4",
          "midi": 67,
          "time": 84.57149199999927,
          "velocity": 0.4251968503937008,
          "duration": 0.22380969166667342
        },
        {
          "name": "D5",
          "midi": 74,
          "time": 84.57149199999927,
          "velocity": 0.84251968503937,
          "duration": 0.5095241916666851
        },
        {
          "name": "D4",
          "midi": 62,
          "time": 84.57149199999927,
          "velocity": 0.5984251968503937,
          "duration": 0.12857152500001234
        },
        {
          "name": "C2",
          "midi": 36,
          "time": 84.57149199999927,
          "velocity": 0.84251968503937,
          "duration": 0.5714290000000233
        },
        {
          "name": "F#2",
          "midi": 42,
          "time": 84.57149199999927,
          "velocity": 0.6771653543307087,
          "duration": 0.04761908333334475
        },
        {
          "name": "B4",
          "midi": 71,
          "time": 84.85720649999928,
          "velocity": 0.7244094488188977,
          "duration": 0.6285719000000114
        },
        {
          "name": "G4",
          "midi": 67,
          "time": 84.85720649999928,
          "velocity": 0.6220472440944882,
          "duration": 0.21428587500000162
        },
        {
          "name": "D4",
          "midi": 62,
          "time": 84.85720649999928,
          "velocity": 0.7007874015748031,
          "duration": 0.19047633333333636
        },
        {
          "name": "F#2",
          "midi": 42,
          "time": 84.85720649999928,
          "velocity": 0.6771653543307087,
          "duration": 0.04761908333334475
        },
        {
          "name": "D4",
          "midi": 62,
          "time": 84.85720649999928,
          "velocity": 0.007874015748031496,
          "duration": 0.26190495833334637
        },
        {
          "name": "D4",
          "midi": 62,
          "time": 85.00006374999928,
          "velocity": 0.6456692913385826,
          "duration": 0.4714289249999979
        },
        {
          "name": "B3",
          "midi": 59,
          "time": 85.00006374999928,
          "velocity": 0.6062992125984252,
          "duration": 0.11904770833334055
        },
        {
          "name": "G3",
          "midi": 55,
          "time": 85.14292099999929,
          "velocity": 0.6850393700787402,
          "duration": 0.11904770833332634
        },
        {
          "name": "D2",
          "midi": 38,
          "time": 85.14292099999929,
          "velocity": 0.7716535433070866,
          "duration": 0.047619083333330536
        },
        {
          "name": "F#2",
          "midi": 42,
          "time": 85.14292099999929,
          "velocity": 0.6771653543307087,
          "duration": 0.0714286249999958
        },
        {
          "name": "G1",
          "midi": 31,
          "time": 85.42863549999929,
          "velocity": 0.7874015748031497,
          "duration": 0.047619083333330536
        },
        {
          "name": "G3",
          "midi": 55,
          "time": 85.42863549999929,
          "velocity": 0.6299212598425197,
          "duration": 0.11904770833334055
        },
        {
          "name": "B3",
          "midi": 59,
          "time": 85.42863549999929,
          "velocity": 0.7401574803149606,
          "duration": 0.11904770833334055
        },
        {
          "name": "B4",
          "midi": 71,
          "time": 85.42863549999929,
          "velocity": 0.7716535433070866,
          "duration": 0.36666694166667924
        },
        {
          "name": "G4",
          "midi": 67,
          "time": 85.42863549999929,
          "velocity": 0.7637795275590551,
          "duration": 0.05714290000000233
        },
        {
          "name": "D4",
          "midi": 62,
          "time": 85.42863549999929,
          "velocity": 0.6220472440944882,
          "duration": 0.047619083333330536
        },
        {
          "name": "C2",
          "midi": 36,
          "time": 85.42863549999929,
          "velocity": 0.84251968503937,
          "duration": 0.05714290000000233
        },
        {
          "name": "D2",
          "midi": 38,
          "time": 85.42863549999929,
          "velocity": 0.7716535433070866,
          "duration": 0.05714290000000233
        },
        {
          "name": "F#2",
          "midi": 42,
          "time": 85.42863549999929,
          "velocity": 0.6771653543307087,
          "duration": 0.05714290000000233
        },
        {
          "name": "G1",
          "midi": 31,
          "time": 85.7143499999993,
          "velocity": 0.7874015748031497,
          "duration": 0.5238099166666643
        },
        {
          "name": "B4",
          "midi": 71,
          "time": 85.7143499999993,
          "velocity": 0.6062992125984252,
          "duration": 0.366666941666665
        },
        {
          "name": "G4",
          "midi": 67,
          "time": 85.7143499999993,
          "velocity": 0.7322834645669292,
          "duration": 0.0714286249999958
        },
        {
          "name": "D4",
          "midi": 62,
          "time": 85.7143499999993,
          "velocity": 0.5984251968503937,
          "duration": 0.05714290000000233
        },
        {
          "name": "C2",
          "midi": 36,
          "time": 85.7143499999993,
          "velocity": 0.84251968503937,
          "duration": 0.0714286249999958
        },
        {
          "name": "F#2",
          "midi": 42,
          "time": 85.7143499999993,
          "velocity": 0.6771653543307087,
          "duration": 0.05714290000000233
        },
        {
          "name": "G3",
          "midi": 55,
          "time": 86.0000644999993,
          "velocity": 0.6692913385826772,
          "duration": 0.11904770833334055
        },
        {
          "name": "B3",
          "midi": 59,
          "time": 86.0000644999993,
          "velocity": 0.6141732283464567,
          "duration": 0.11904770833334055
        },
        {
          "name": "C2",
          "midi": 36,
          "time": 86.0000644999993,
          "velocity": 0.84251968503937,
          "duration": 0.28571449999999743
        },
        {
          "name": "F#2",
          "midi": 42,
          "time": 86.0000644999993,
          "velocity": 0.6771653543307087,
          "duration": 0.047619083333330536
        },
        {
          "name": "B1",
          "midi": 35,
          "time": 86.2857789999993,
          "velocity": 0.7874015748031497,
          "duration": 0.2142858749999874
        },
        {
          "name": "G3",
          "midi": 55,
          "time": 86.2857789999993,
          "velocity": 0.7007874015748031,
          "duration": 0.11904770833332634
        },
        {
          "name": "B3",
          "midi": 59,
          "time": 86.2857789999993,
          "velocity": 0.8110236220472441,
          "duration": 0.11904770833332634
        },
        {
          "name": "D4",
          "midi": 62,
          "time": 86.2857789999993,
          "velocity": 0.7952755905511811,
          "duration": 0.11904770833332634
        },
        {
          "name": "D2",
          "midi": 38,
          "time": 86.2857789999993,
          "velocity": 0.7716535433070866,
          "duration": 0.0714286249999958
        },
        {
          "name": "F#2",
          "midi": 42,
          "time": 86.2857789999993,
          "velocity": 0.6771653543307087,
          "duration": 0.047619083333330536
        },
        {
          "name": "D2",
          "midi": 38,
          "time": 86.57149349999928,
          "velocity": 0.7874015748031497,
          "duration": 0.27142877499998974
        },
        {
          "name": "G3",
          "midi": 55,
          "time": 86.57149349999928,
          "velocity": 0.6299212598425197,
          "duration": 0.11904770833332634
        },
        {
          "name": "B3",
          "midi": 59,
          "time": 86.57149349999928,
          "velocity": 0.7322834645669292,
          "duration": 0.11904770833332634
        },
        {
          "name": "A4",
          "midi": 69,
          "time": 86.57149349999928,
          "velocity": 0.6299212598425197,
          "duration": 0.05714290000000233
        },
        {
          "name": "D4",
          "midi": 62,
          "time": 86.57149349999928,
          "velocity": 0.5669291338582677,
          "duration": 0.047619083333330536
        },
        {
          "name": "C2",
          "midi": 36,
          "time": 86.57149349999928,
          "velocity": 0.84251968503937,
          "duration": 0.0714286249999958
        },
        {
          "name": "F#2",
          "midi": 42,
          "time": 86.57149349999928,
          "velocity": 0.6771653543307087,
          "duration": 0.047619083333330536
        },
        {
          "name": "E2",
          "midi": 40,
          "time": 86.85720799999926,
          "velocity": 0.7874015748031497,
          "duration": 0.11904770833332634
        },
        {
          "name": "B2",
          "midi": 47,
          "time": 86.85720799999926,
          "velocity": 0.7559055118110236,
          "duration": 0.11904770833332634
        },
        {
          "name": "E3",
          "midi": 52,
          "time": 86.85720799999926,
          "velocity": 0.7637795275590551,
          "duration": 0.11904770833332634
        },
        {
          "name": "B3",
          "midi": 59,
          "time": 86.85720799999926,
          "velocity": 0.8818897637795275,
          "duration": 0.11904770833332634
        },
        {
          "name": "D#2",
          "midi": 39,
          "time": 86.85720799999926,
          "velocity": 0.5039370078740157,
          "duration": 0.11904770833332634
        },
        {
          "name": "E4",
          "midi": 64,
          "time": 86.85720799999926,
          "velocity": 0.7559055118110236,
          "duration": 0.11904770833332634
        },
        {
          "name": "G3",
          "midi": 55,
          "time": 86.85720799999926,
          "velocity": 0.6141732283464567,
          "duration": 0.11904770833332634
        },
        {
          "name": "E2",
          "midi": 40,
          "time": 86.85720799999926,
          "velocity": 0.3700787401574803,
          "duration": 0.6047623583333319
        },
        {
          "name": "G4",
          "midi": 67,
          "time": 86.85720799999926,
          "velocity": 0.7559055118110236,
          "duration": 0.34285739999999976
        },
        {
          "name": "D4",
          "midi": 62,
          "time": 86.85720799999926,
          "velocity": 0.6062992125984252,
          "duration": 0.2238096916666592
        },
        {
          "name": "C2",
          "midi": 36,
          "time": 86.85720799999926,
          "velocity": 0.84251968503937,
          "duration": 0.5714289999999949
        },
        {
          "name": "F#2",
          "midi": 42,
          "time": 86.85720799999926,
          "velocity": 0.6771653543307087,
          "duration": 0.047619083333330536
        },
        {
          "name": "G4",
          "midi": 67,
          "time": 87.14292249999926,
          "velocity": 0.7244094488188977,
          "duration": 0.24761923333333868
        },
        {
          "name": "B3",
          "midi": 59,
          "time": 87.14292249999926,
          "velocity": 0.5826771653543307,
          "duration": 0.11904770833334055
        },
        {
          "name": "E4",
          "midi": 64,
          "time": 87.14292249999926,
          "velocity": 0.6062992125984252,
          "duration": 0.11904770833334055
        },
        {
          "name": "B4",
          "midi": 71,
          "time": 87.14292249999926,
          "velocity": 0.6062992125984252,
          "duration": 0.0809524416666676
        },
        {
          "name": "D4",
          "midi": 62,
          "time": 87.14292249999926,
          "velocity": 0.44881889763779526,
          "duration": 0.05714290000000233
        },
        {
          "name": "F#2",
          "midi": 42,
          "time": 87.14292249999926,
          "velocity": 0.6771653543307087,
          "duration": 0.047619083333330536
        },
        {
          "name": "D4",
          "midi": 62,
          "time": 87.14292249999926,
          "velocity": 0.007874015748031496,
          "duration": 0.12380961666667645
        },
        {
          "name": "E4",
          "midi": 64,
          "time": 87.28577974999926,
          "velocity": 0.7795275590551181,
          "duration": 0.11904770833332634
        },
        {
          "name": "B3",
          "midi": 59,
          "time": 87.28577974999926,
          "velocity": 0.6614173228346457,
          "duration": 0.11904770833332634
        },
        {
          "name": "G4",
          "midi": 67,
          "time": 87.42863699999926,
          "velocity": 0.7244094488188977,
          "duration": 0.26190495833331795
        },
        {
          "name": "G3",
          "midi": 55,
          "time": 87.42863699999926,
          "velocity": 0.5590551181102362,
          "duration": 0.11904770833332634
        },
        {
          "name": "D2",
          "midi": 38,
          "time": 87.42863699999926,
          "velocity": 0.7716535433070866,
          "duration": 0.047619083333330536
        },
        {
          "name": "F#2",
          "midi": 42,
          "time": 87.42863699999926,
          "velocity": 0.6771653543307087,
          "duration": 0.0714286249999958
        },
        {
          "name": "D4",
          "midi": 62,
          "time": 87.42863699999926,
          "velocity": 0.007874015748031496,
          "duration": 0.13333343333331982
        },
        {
          "name": "G4",
          "midi": 67,
          "time": 87.71435149999924,
          "velocity": 0.7244094488188977,
          "duration": 0.05714290000000233
        },
        {
          "name": "B1",
          "midi": 35,
          "time": 87.71435149999924,
          "velocity": 0.7874015748031497,
          "duration": 0.047619083333330536
        },
        {
          "name": "E3",
          "midi": 52,
          "time": 87.71435149999924,
          "velocity": 0.7244094488188977,
          "duration": 0.11904770833334055
        },
        {
          "name": "G3",
          "midi": 55,
          "time": 87.71435149999924,
          "velocity": 0.7795275590551181,
          "duration": 0.11904770833334055
        },
        {
          "name": "B3",
          "midi": 59,
          "time": 87.71435149999924,
          "velocity": 0.8818897637795275,
          "duration": 0.11904770833334055
        },
        {
          "name": "E4",
          "midi": 64,
          "time": 87.71435149999924,
          "velocity": 0.7086614173228346,
          "duration": 0.05714290000000233
        },
        {
          "name": "E4",
          "midi": 64,
          "time": 87.71435149999924,
          "velocity": 0.6771653543307087,
          "duration": 0.11904770833334055
        },
        {
          "name": "G4",
          "midi": 67,
          "time": 87.71435149999924,
          "velocity": 0.7322834645669292,
          "duration": 0.29523831666668343
        },
        {
          "name": "B4",
          "midi": 71,
          "time": 87.71435149999924,
          "velocity": 0.6299212598425197,
          "duration": 0.047619083333330536
        },
        {
          "name": "C2",
          "midi": 36,
          "time": 87.71435149999924,
          "velocity": 0.84251968503937,
          "duration": 0.05714290000000233
        },
        {
          "name": "D2",
          "midi": 38,
          "time": 87.71435149999924,
          "velocity": 0.7716535433070866,
          "duration": 0.05714290000000233
        },
        {
          "name": "F#2",
          "midi": 42,
          "time": 87.71435149999924,
          "velocity": 0.6771653543307087,
          "duration": 0.05714290000000233
        },
        {
          "name": "D4",
          "midi": 62,
          "time": 87.71435149999924,
          "velocity": 0.007874015748031496,
          "duration": 0.14761915833334172
        },
        {
          "name": "A4",
          "midi": 69,
          "time": 88.00006599999925,
          "velocity": 0.7244094488188977,
          "duration": 0.28571449999999743
        },
        {
          "name": "E2",
          "midi": 40,
          "time": 88.00006599999925,
          "velocity": 0.7874015748031497,
          "duration": 0.05714290000000233
        },
        {
          "name": "B4",
          "midi": 71,
          "time": 88.00006599999925,
          "velocity": 0.6535433070866141,
          "duration": 0.17619060833332867
        },
        {
          "name": "G4",
          "midi": 67,
          "time": 88.00006599999925,
          "velocity": 0.7952755905511811,
          "duration": 0.17619060833332867
        },
        {
          "name": "E4",
          "midi": 64,
          "time": 88.00006599999925,
          "velocity": 0.6929133858267716,
          "duration": 0.17619060833332867
        },
        {
          "name": "C2",
          "midi": 36,
          "time": 88.00006599999925,
          "velocity": 0.84251968503937,
          "duration": 0.0714286249999958
        },
        {
          "name": "F#2",
          "midi": 42,
          "time": 88.00006599999925,
          "velocity": 0.6771653543307087,
          "duration": 0.05714290000000233
        },
        {
          "name": "D4",
          "midi": 62,
          "time": 88.00006599999925,
          "velocity": 0.007874015748031496,
          "duration": 0.1428572499999916
        },
        {
          "name": "B4",
          "midi": 71,
          "time": 88.28578049999925,
          "velocity": 0.7244094488188977,
          "duration": 0.3095240416666627
        },
        {
          "name": "E2",
          "midi": 40,
          "time": 88.28578049999925,
          "velocity": 0.7874015748031497,
          "duration": 0.5476194583333154
        },
        {
          "name": "B2",
          "midi": 47,
          "time": 88.28578049999925,
          "velocity": 0.5196850393700787,
          "duration": 0.11904770833332634
        },
        {
          "name": "G3",
          "midi": 55,
          "time": 88.28578049999925,
          "velocity": 0.8346456692913385,
          "duration": 0.11904770833332634
        },
        {
          "name": "B3",
          "midi": 59,
          "time": 88.28578049999925,
          "velocity": 0.7165354330708661,
          "duration": 0.11904770833332634
        },
        {
          "name": "E4",
          "midi": 64,
          "time": 88.28578049999925,
          "velocity": 0.6299212598425197,
          "duration": 0.11904770833332634
        },
        {
          "name": "C2",
          "midi": 36,
          "time": 88.28578049999925,
          "velocity": 0.84251968503937,
          "duration": 0.28571449999999743
        },
        {
          "name": "F#2",
          "midi": 42,
          "time": 88.28578049999925,
          "velocity": 0.6771653543307087,
          "duration": 0.047619083333330536
        },
        {
          "name": "D4",
          "midi": 62,
          "time": 88.28578049999925,
          "velocity": 0.007874015748031496,
          "duration": 0.1571429749999993
        },
        {
          "name": "G4",
          "midi": 67,
          "time": 88.57149499999925,
          "velocity": 0.7244094488188977,
          "duration": 0.10476198333333286
        },
        {
          "name": "B3",
          "midi": 59,
          "time": 88.57149499999925,
          "velocity": 0.8346456692913385,
          "duration": 0.11904770833332634
        },
        {
          "name": "E4",
          "midi": 64,
          "time": 88.57149499999925,
          "velocity": 0.7401574803149606,
          "duration": 0.11904770833332634
        },
        {
          "name": "D2",
          "midi": 38,
          "time": 88.57149499999925,
          "velocity": 0.7716535433070866,
          "duration": 0.0714286249999958
        },
        {
          "name": "F#2",
          "midi": 42,
          "time": 88.57149499999925,
          "velocity": 0.6771653543307087,
          "duration": 0.047619083333330536
        },
        {
          "name": "D4",
          "midi": 62,
          "time": 88.57149499999925,
          "velocity": 0.007874015748031496,
          "duration": 0.05238099166666643
        },
        {
          "name": "E2",
          "midi": 40,
          "time": 88.71435224999924,
          "velocity": 0.3700787401574803,
          "duration": 0.11904770833332634
        },
        {
          "name": "G4",
          "midi": 67,
          "time": 88.85720949999923,
          "velocity": 0.7244094488188977,
          "duration": 0.5476194583333012
        },
        {
          "name": "B1",
          "midi": 35,
          "time": 88.85720949999923,
          "velocity": 0.7874015748031497,
          "duration": 0.2142858749999874
        },
        {
          "name": "B3",
          "midi": 59,
          "time": 88.85720949999923,
          "velocity": 0.7401574803149606,
          "duration": 0.11904770833332634
        },
        {
          "name": "E4",
          "midi": 64,
          "time": 88.85720949999923,
          "velocity": 0.6692913385826772,
          "duration": 0.11904770833332634
        },
        {
          "name": "C2",
          "midi": 36,
          "time": 88.85720949999923,
          "velocity": 0.84251968503937,
          "duration": 0.0714286249999958
        },
        {
          "name": "F#2",
          "midi": 42,
          "time": 88.85720949999923,
          "velocity": 0.6771653543307087,
          "duration": 0.047619083333330536
        },
        {
          "name": "D4",
          "midi": 62,
          "time": 88.85720949999923,
          "velocity": 0.007874015748031496,
          "duration": 0.5476194583333012
        },
        {
          "name": "C2",
          "midi": 36,
          "time": 89.14292399999921,
          "velocity": 0.7874015748031497,
          "duration": 0.5714289999999806
        },
        {
          "name": "C3",
          "midi": 48,
          "time": 89.14292399999921,
          "velocity": 0.48031496062992124,
          "duration": 0.11904770833332634
        },
        {
          "name": "C4",
          "midi": 60,
          "time": 89.14292399999921,
          "velocity": 0.5354330708661418,
          "duration": 0.11904770833332634
        },
        {
          "name": "G3",
          "midi": 55,
          "time": 89.14292399999921,
          "velocity": 0.7165354330708661,
          "duration": 0.11904770833332634
        },
        {
          "name": "E4",
          "midi": 64,
          "time": 89.14292399999921,
          "velocity": 0.7086614173228346,
          "duration": 0.11904770833332634
        },
        {
          "name": "E4",
          "midi": 64,
          "time": 89.14292399999921,
          "velocity": 0.6771653543307087,
          "duration": 0.23809541666665268
        },
        {
          "name": "C5",
          "midi": 72,
          "time": 89.14292399999921,
          "velocity": 0.6456692913385826,
          "duration": 0.41428602499998135
        },
        {
          "name": "C2",
          "midi": 36,
          "time": 89.14292399999921,
          "velocity": 0.84251968503937,
          "duration": 0.8333339583333128
        },
        {
          "name": "F#2",
          "midi": 42,
          "time": 89.14292399999921,
          "velocity": 0.6771653543307087,
          "duration": 0.047619083333330536
        },
        {
          "name": "F#4",
          "midi": 66,
          "time": 89.4286384999992,
          "velocity": 0.7244094488188977,
          "duration": 0.13809534166666992
        },
        {
          "name": "E4",
          "midi": 64,
          "time": 89.4286384999992,
          "velocity": 0.5354330708661418,
          "duration": 0.10476198333333286
        },
        {
          "name": "G4",
          "midi": 67,
          "time": 89.4286384999992,
          "velocity": 0.7086614173228346,
          "duration": 0.12857152499999813
        },
        {
          "name": "E4",
          "midi": 64,
          "time": 89.4286384999992,
          "velocity": 0.5826771653543307,
          "duration": 0.11904770833332634
        },
        {
          "name": "F#2",
          "midi": 42,
          "time": 89.4286384999992,
          "velocity": 0.6771653543307087,
          "duration": 0.047619083333330536
        },
        {
          "name": "E4",
          "midi": 64,
          "time": 89.5714957499992,
          "velocity": 0.7244094488188977,
          "duration": 0.11904770833332634
        },
        {
          "name": "E4",
          "midi": 64,
          "time": 89.5714957499992,
          "velocity": 0.7795275590551181,
          "duration": 0.5000003749999848
        },
        {
          "name": "C4",
          "midi": 60,
          "time": 89.5714957499992,
          "velocity": 0.4251968503937008,
          "duration": 0.11904770833332634
        },
        {
          "name": "C4",
          "midi": 60,
          "time": 89.71435299999919,
          "velocity": 0.7244094488188977,
          "duration": 0.11904770833332634
        },
        {
          "name": "G3",
          "midi": 55,
          "time": 89.71435299999919,
          "velocity": 0.6456692913385826,
          "duration": 0.11904770833332634
        },
        {
          "name": "D2",
          "midi": 38,
          "time": 89.71435299999919,
          "velocity": 0.7716535433070866,
          "duration": 0.047619083333330536
        },
        {
          "name": "F#2",
          "midi": 42,
          "time": 89.71435299999919,
          "velocity": 0.6771653543307087,
          "duration": 0.0714286249999958
        },
        {
          "name": "G1",
          "midi": 31,
          "time": 90.00006749999919,
          "velocity": 0.7874015748031497,
          "duration": 0.05714290000000233
        },
        {
          "name": "G3",
          "midi": 55,
          "time": 90.00006749999919,
          "velocity": 0.7165354330708661,
          "duration": 0.11904770833332634
        },
        {
          "name": "C4",
          "midi": 60,
          "time": 90.00006749999919,
          "velocity": 0.8740157480314961,
          "duration": 0.047619083333330536
        },
        {
          "name": "E4",
          "midi": 64,
          "time": 90.00006749999919,
          "velocity": 0.8110236220472441,
          "duration": 0.11904770833332634
        },
        {
          "name": "E4",
          "midi": 64,
          "time": 90.00006749999919,
          "velocity": 0.6771653543307087,
          "duration": 0.6190480833333254
        },
        {
          "name": "G4",
          "midi": 67,
          "time": 90.00006749999919,
          "velocity": 0.6692913385826772,
          "duration": 0.0714286249999958
        },
        {
          "name": "C4",
          "midi": 60,
          "time": 90.00006749999919,
          "velocity": 0.5118110236220472,
          "duration": 0.11904770833332634
        },
        {
          "name": "C2",
          "midi": 36,
          "time": 90.00006749999919,
          "velocity": 0.84251968503937,
          "duration": 0.05714290000000233
        },
        {
          "name": "D2",
          "midi": 38,
          "time": 90.00006749999919,
          "velocity": 0.7716535433070866,
          "duration": 0.05714290000000233
        },
        {
          "name": "F#2",
          "midi": 42,
          "time": 90.00006749999919,
          "velocity": 0.6771653543307087,
          "duration": 0.05714290000000233
        },
        {
          "name": "C2",
          "midi": 36,
          "time": 90.28578199999919,
          "velocity": 0.7874015748031497,
          "duration": 0.03333335833333706
        },
        {
          "name": "G4",
          "midi": 67,
          "time": 90.28578199999919,
          "velocity": 0.7086614173228346,
          "duration": 0.33333358333332797
        },
        {
          "name": "E4",
          "midi": 64,
          "time": 90.28578199999919,
          "velocity": 0.7244094488188977,
          "duration": 0.6904767083333212
        },
        {
          "name": "C4",
          "midi": 60,
          "time": 90.28578199999919,
          "velocity": 0.6220472440944882,
          "duration": 0.33333358333332797
        },
        {
          "name": "C2",
          "midi": 36,
          "time": 90.28578199999919,
          "velocity": 0.84251968503937,
          "duration": 0.0714286249999958
        },
        {
          "name": "F#2",
          "midi": 42,
          "time": 90.28578199999919,
          "velocity": 0.6771653543307087,
          "duration": 0.05714290000000233
        },
        {
          "name": "C2",
          "midi": 36,
          "time": 90.57149649999918,
          "velocity": 0.7874015748031497,
          "duration": 0.28571449999999743
        },
        {
          "name": "C3",
          "midi": 48,
          "time": 90.57149649999918,
          "velocity": 0.7795275590551181,
          "duration": 0.11904770833332634
        },
        {
          "name": "C2",
          "midi": 36,
          "time": 90.57149649999918,
          "velocity": 0.84251968503937,
          "duration": 0.5238099166666643
        },
        {
          "name": "F#2",
          "midi": 42,
          "time": 90.57149649999918,
          "velocity": 0.6771653543307087,
          "duration": 0.047619083333330536
        },
        {
          "name": "C3",
          "midi": 48,
          "time": 90.85721099999918,
          "velocity": 0.7086614173228346,
          "duration": 0.11904770833332634
        },
        {
          "name": "G3",
          "midi": 55,
          "time": 90.85721099999918,
          "velocity": 0.6771653543307087,
          "duration": 0.11904770833332634
        },
        {
          "name": "C4",
          "midi": 60,
          "time": 90.85721099999918,
          "velocity": 0.7637795275590551,
          "duration": 0.11904770833332634
        },
        {
          "name": "E4",
          "midi": 64,
          "time": 90.85721099999918,
          "velocity": 0.6299212598425197,
          "duration": 0.1523810666666634
        },
        {
          "name": "D2",
          "midi": 38,
          "time": 90.85721099999918,
          "velocity": 0.7716535433070866,
          "duration": 0.0714286249999958
        },
        {
          "name": "F#2",
          "midi": 42,
          "time": 90.85721099999918,
          "velocity": 0.6771653543307087,
          "duration": 0.047619083333330536
        },
        {
          "name": "G1",
          "midi": 31,
          "time": 91.14292549999918,
          "velocity": 0.7874015748031497,
          "duration": 0.0714286249999958
        },
        {
          "name": "C4",
          "midi": 60,
          "time": 91.14292549999918,
          "velocity": 0.6456692913385826,
          "duration": 0.11904770833332634
        },
        {
          "name": "C2",
          "midi": 36,
          "time": 91.14292549999918,
          "velocity": 0.84251968503937,
          "duration": 0.0714286249999958
        },
        {
          "name": "F#2",
          "midi": 42,
          "time": 91.14292549999918,
          "velocity": 0.6771653543307087,
          "duration": 0.047619083333330536
        },
        {
          "name": "D2",
          "midi": 38,
          "time": 91.42863999999916,
          "velocity": 0.7874015748031497,
          "duration": 0.6190480833333112
        },
        {
          "name": "A2",
          "midi": 45,
          "time": 91.42863999999916,
          "velocity": 0.4251968503937008,
          "duration": 0.11904770833332634
        },
        {
          "name": "A3",
          "midi": 57,
          "time": 91.42863999999916,
          "velocity": 0.6299212598425197,
          "duration": 0.11904770833332634
        },
        {
          "name": "D4",
          "midi": 62,
          "time": 91.42863999999916,
          "velocity": 0.4330708661417323,
          "duration": 0.11904770833332634
        },
        {
          "name": "F#4",
          "midi": 66,
          "time": 91.42863999999916,
          "velocity": 0.5826771653543307,
          "duration": 0.20000014999999394
        },
        {
          "name": "D4",
          "midi": 62,
          "time": 91.42863999999916,
          "velocity": 0.5590551181102362,
          "duration": 0.19047633333332215
        },
        {
          "name": "A4",
          "midi": 69,
          "time": 91.42863999999916,
          "velocity": 0.6535433070866141,
          "duration": 0.20000014999999394
        },
        {
          "name": "C2",
          "midi": 36,
          "time": 91.42863999999916,
          "velocity": 0.84251968503937,
          "duration": 0.5714289999999806
        },
        {
          "name": "F#2",
          "midi": 42,
          "time": 91.42863999999916,
          "velocity": 0.6771653543307087,
          "duration": 0.047619083333330536
        },
        {
          "name": "D4",
          "midi": 62,
          "time": 91.71435449999916,
          "velocity": 0.4094488188976378,
          "duration": 0.0809524416666676
        },
        {
          "name": "A4",
          "midi": 69,
          "time": 91.71435449999916,
          "velocity": 0.6692913385826772,
          "duration": 0.10476198333333286
        },
        {
          "name": "F#4",
          "midi": 66,
          "time": 91.71435449999916,
          "velocity": 0.5511811023622047,
          "duration": 0.0809524416666676
        },
        {
          "name": "D4",
          "midi": 62,
          "time": 91.71435449999916,
          "velocity": 0.5511811023622047,
          "duration": 0.11904770833332634
        },
        {
          "name": "F#2",
          "midi": 42,
          "time": 91.71435449999916,
          "velocity": 0.6771653543307087,
          "duration": 0.047619083333330536
        },
        {
          "name": "D4",
          "midi": 62,
          "time": 91.85721174999915,
          "velocity": 0.6692913385826772,
          "duration": 0.11904770833332634
        },
        {
          "name": "A4",
          "midi": 69,
          "time": 91.98578327499915,
          "velocity": 0.6456692913385826,
          "duration": 0.25238114166664616
        },
        {
          "name": "F#4",
          "midi": 66,
          "time": 92.00006899999914,
          "velocity": 0.7244094488188977,
          "duration": 0.27142877499998974
        },
        {
          "name": "F#3",
          "midi": 54,
          "time": 92.00006899999914,
          "velocity": 0.5905511811023622,
          "duration": 0.11904770833332634
        },
        {
          "name": "D2",
          "midi": 38,
          "time": 92.00006899999914,
          "velocity": 0.7716535433070866,
          "duration": 0.26190495833331795
        },
        {
          "name": "F#2",
          "midi": 42,
          "time": 92.00006899999914,
          "velocity": 0.6771653543307087,
          "duration": 0.0714286249999958
        },
        {
          "name": "D4",
          "midi": 62,
          "time": 92.00006899999914,
          "velocity": 0.007874015748031496,
          "duration": 0.1380953416666557
        },
        {
          "name": "B4",
          "midi": 71,
          "time": 92.26197395833246,
          "velocity": 0.5826771653543307,
          "duration": 0.2238096916666592
        },
        {
          "name": "G4",
          "midi": 67,
          "time": 92.28578349999913,
          "velocity": 0.7244094488188977,
          "duration": 0.27142877499998974
        },
        {
          "name": "A1",
          "midi": 33,
          "time": 92.28578349999913,
          "velocity": 0.7874015748031497,
          "duration": 0.047619083333330536
        },
        {
          "name": "A3",
          "midi": 57,
          "time": 92.28578349999913,
          "velocity": 0.8740157480314961,
          "duration": 0.11904770833332634
        },
        {
          "name": "D4",
          "midi": 62,
          "time": 92.28578349999913,
          "velocity": 0.7165354330708661,
          "duration": 0.05714290000000233
        },
        {
          "name": "F#4",
          "midi": 66,
          "time": 92.28578349999913,
          "velocity": 0.7086614173228346,
          "duration": 0.0714286249999958
        },
        {
          "name": "D5",
          "midi": 74,
          "time": 92.28578349999913,
          "velocity": 0.5905511811023622,
          "duration": 0.09523816666666107
        },
        {
          "name": "D4",
          "midi": 62,
          "time": 92.28578349999913,
          "velocity": 0.6299212598425197,
          "duration": 0.11904770833332634
        },
        {
          "name": "A4",
          "midi": 69,
          "time": 92.28578349999913,
          "velocity": 0.49606299212598426,
          "duration": 0.023809541666665268
        },
        {
          "name": "C2",
          "midi": 36,
          "time": 92.28578349999913,
          "velocity": 0.84251968503937,
          "duration": 0.05714290000000233
        },
        {
          "name": "D2",
          "midi": 38,
          "time": 92.28578349999913,
          "velocity": 0.7716535433070866,
          "duration": 0.05714290000000233
        },
        {
          "name": "F#2",
          "midi": 42,
          "time": 92.28578349999913,
          "velocity": 0.6771653543307087,
          "duration": 0.05714290000000233
        },
        {
          "name": "D4",
          "midi": 62,
          "time": 92.28578349999913,
          "velocity": 0.007874015748031496,
          "duration": 0.1380953416666557
        },
        {
          "name": "C5",
          "midi": 72,
          "time": 92.55245036666578,
          "velocity": 0.6141732283464567,
          "duration": 0.4428574749999967
        },
        {
          "name": "A4",
          "midi": 69,
          "time": 92.57149799999911,
          "velocity": 0.7244094488188977,
          "duration": 0.366666941666665
        },
        {
          "name": "D2",
          "midi": 38,
          "time": 92.57149799999911,
          "velocity": 0.7874015748031497,
          "duration": 0.047619083333330536
        },
        {
          "name": "F#4",
          "midi": 66,
          "time": 92.57149799999911,
          "velocity": 0.6929133858267716,
          "duration": 0.4857146500000056
        },
        {
          "name": "D5",
          "midi": 74,
          "time": 92.57149799999911,
          "velocity": 0.6614173228346457,
          "duration": 0.5238099166666785
        },
        {
          "name": "D4",
          "midi": 62,
          "time": 92.57149799999911,
          "velocity": 0.6141732283464567,
          "duration": 0.18571442500000046
        },
        {
          "name": "C2",
          "midi": 36,
          "time": 92.57149799999911,
          "velocity": 0.84251968503937,
          "duration": 0.0714286249999958
        },
        {
          "name": "F#2",
          "midi": 42,
          "time": 92.57149799999911,
          "velocity": 0.6771653543307087,
          "duration": 0.05714290000000233
        },
        {
          "name": "D4",
          "midi": 62,
          "time": 92.57149799999911,
          "velocity": 0.007874015748031496,
          "duration": 0.4761908333333338
        },
        {
          "name": "D2",
          "midi": 38,
          "time": 92.85721249999911,
          "velocity": 0.7874015748031497,
          "duration": 0.28571450000002585
        },
        {
          "name": "C2",
          "midi": 36,
          "time": 92.85721249999911,
          "velocity": 0.84251968503937,
          "duration": 0.28571450000002585
        },
        {
          "name": "F#2",
          "midi": 42,
          "time": 92.85721249999911,
          "velocity": 0.6771653543307087,
          "duration": 0.047619083333330536
        },
        {
          "name": "C5",
          "midi": 72,
          "time": 93.13340318333246,
          "velocity": 0.5984251968503937,
          "duration": 0.1523810666666634
        },
        {
          "name": "A4",
          "midi": 69,
          "time": 93.14292699999913,
          "velocity": 0.7244094488188977,
          "duration": 0.24761923333332447
        },
        {
          "name": "E2",
          "midi": 40,
          "time": 93.14292699999913,
          "velocity": 0.7874015748031497,
          "duration": 0.2952383166666692
        },
        {
          "name": "F#3",
          "midi": 54,
          "time": 93.14292699999913,
          "velocity": 0.7559055118110236,
          "duration": 0.11904770833332634
        },
        {
          "name": "A3",
          "midi": 57,
          "time": 93.14292699999913,
          "velocity": 0.8976377952755905,
          "duration": 0.11904770833332634
        },
        {
          "name": "D4",
          "midi": 62,
          "time": 93.14292699999913,
          "velocity": 0.8346456692913385,
          "duration": 0.11904770833332634
        },
        {
          "name": "A4",
          "midi": 69,
          "time": 93.14292699999913,
          "velocity": 0.5826771653543307,
          "duration": 0.4761908333333338
        },
        {
          "name": "D4",
          "midi": 62,
          "time": 93.14292699999913,
          "velocity": 0.5590551181102362,
          "duration": 0.12380961666666224
        },
        {
          "name": "D2",
          "midi": 38,
          "time": 93.14292699999913,
          "velocity": 0.7716535433070866,
          "duration": 0.0714286249999958
        },
        {
          "name": "F#2",
          "midi": 42,
          "time": 93.14292699999913,
          "velocity": 0.6771653543307087,
          "duration": 0.047619083333330536
        },
        {
          "name": "D4",
          "midi": 62,
          "time": 93.14292699999913,
          "velocity": 0.007874015748031496,
          "duration": 0.3809526666666727
        },
        {
          "name": "A4",
          "midi": 69,
          "time": 93.42864149999913,
          "velocity": 0.7244094488188977,
          "duration": 0.566667091666659
        },
        {
          "name": "D2",
          "midi": 38,
          "time": 93.42864149999913,
          "velocity": 0.7874015748031497,
          "duration": 0.26190495833334637
        },
        {
          "name": "C2",
          "midi": 36,
          "time": 93.42864149999913,
          "velocity": 0.84251968503937,
          "duration": 0.07142862500001002
        },
        {
          "name": "F#2",
          "midi": 42,
          "time": 93.42864149999913,
          "velocity": 0.6771653543307087,
          "duration": 0.04761908333334475
        },
        {
          "name": "D4",
          "midi": 62,
          "time": 93.42864149999913,
          "velocity": 0.007874015748031496,
          "duration": 0.2285716000000093
        },
        {
          "name": "C5",
          "midi": 72,
          "time": 93.4381653166658,
          "velocity": 0.6692913385826772,
          "duration": 0.49047655833332726
        },
        {
          "name": "G1",
          "midi": 31,
          "time": 93.71435599999914,
          "velocity": 0.7874015748031497,
          "duration": 0.6047623583333035
        },
        {
          "name": "B3",
          "midi": 59,
          "time": 93.71435599999914,
          "velocity": 0.7007874015748031,
          "duration": 0.11904770833332634
        },
        {
          "name": "D3",
          "midi": 50,
          "time": 93.71435599999914,
          "velocity": 0.7244094488188977,
          "duration": 0.11904770833332634
        },
        {
          "name": "G3",
          "midi": 55,
          "time": 93.71435599999914,
          "velocity": 0.7637795275590551,
          "duration": 0.11904770833332634
        },
        {
          "name": "G4",
          "midi": 67,
          "time": 93.71435599999914,
          "velocity": 0.7401574803149606,
          "duration": 0.26190495833331795
        },
        {
          "name": "D4",
          "midi": 62,
          "time": 93.71435599999914,
          "velocity": 0.5433070866141733,
          "duration": 0.2142858749999874
        },
        {
          "name": "C2",
          "midi": 36,
          "time": 93.71435599999914,
          "velocity": 0.84251968503937,
          "duration": 0.5714289999999664
        },
        {
          "name": "F#2",
          "midi": 42,
          "time": 93.71435599999914,
          "velocity": 0.6771653543307087,
          "duration": 0.047619083333330536
        },
        {
          "name": "B4",
          "midi": 71,
          "time": 93.99054668333245,
          "velocity": 0.7480314960629921,
          "duration": 0.7000005249999788
        },
        {
          "name": "G4",
          "midi": 67,
          "time": 94.00007049999913,
          "velocity": 0.7244094488188977,
          "duration": 0.690476708333307
        },
        {
          "name": "D4",
          "midi": 62,
          "time": 94.00007049999913,
          "velocity": 0.44881889763779526,
          "duration": 0.0714286249999958
        },
        {
          "name": "A4",
          "midi": 69,
          "time": 94.00007049999913,
          "velocity": 0.7559055118110236,
          "duration": 0.0714286249999958
        },
        {
          "name": "D4",
          "midi": 62,
          "time": 94.00007049999913,
          "velocity": 0.7401574803149606,
          "duration": 0.11904770833332634
        },
        {
          "name": "F#2",
          "midi": 42,
          "time": 94.00007049999913,
          "velocity": 0.6771653543307087,
          "duration": 0.047619083333330536
        },
        {
          "name": "D4",
          "midi": 62,
          "time": 94.00007049999913,
          "velocity": 0.007874015748031496,
          "duration": 0.26190495833331795
        },
        {
          "name": "D4",
          "midi": 62,
          "time": 94.14292774999912,
          "velocity": 0.6456692913385826,
          "duration": 0.5333337333333219
        },
        {
          "name": "D2",
          "midi": 38,
          "time": 94.28578499999911,
          "velocity": 0.7716535433070866,
          "duration": 0.047619083333330536
        },
        {
          "name": "F#2",
          "midi": 42,
          "time": 94.28578499999911,
          "velocity": 0.6771653543307087,
          "duration": 0.0714286249999958
        },
        {
          "name": "G1",
          "midi": 31,
          "time": 94.5714994999991,
          "velocity": 0.7874015748031497,
          "duration": 0.05714290000000233
        },
        {
          "name": "G3",
          "midi": 55,
          "time": 94.5714994999991,
          "velocity": 0.7637795275590551,
          "duration": 0.11904770833332634
        },
        {
          "name": "B3",
          "midi": 59,
          "time": 94.5714994999991,
          "velocity": 0.9291338582677166,
          "duration": 0.11904770833332634
        },
        {
          "name": "D4",
          "midi": 62,
          "time": 94.5714994999991,
          "velocity": 0.7244094488188977,
          "duration": 0.11904770833332634
        },
        {
          "name": "G4",
          "midi": 67,
          "time": 94.5714994999991,
          "velocity": 0.6771653543307087,
          "duration": 0.5238099166666501
        },
        {
          "name": "B4",
          "midi": 71,
          "time": 94.5714994999991,
          "velocity": 0.6771653543307087,
          "duration": 0.5238099166666501
        },
        {
          "name": "D4",
          "midi": 62,
          "time": 94.5714994999991,
          "velocity": 0.6062992125984252,
          "duration": 0.17142869999999277
        },
        {
          "name": "C2",
          "midi": 36,
          "time": 94.5714994999991,
          "velocity": 0.84251968503937,
          "duration": 0.05714290000000233
        },
        {
          "name": "D2",
          "midi": 38,
          "time": 94.5714994999991,
          "velocity": 0.7716535433070866,
          "duration": 0.05714290000000233
        },
        {
          "name": "F#2",
          "midi": 42,
          "time": 94.5714994999991,
          "velocity": 0.6771653543307087,
          "duration": 0.05714290000000233
        },
        {
          "name": "G1",
          "midi": 31,
          "time": 94.8572139999991,
          "velocity": 0.7874015748031497,
          "duration": 0.03333335833333706
        },
        {
          "name": "B4",
          "midi": 71,
          "time": 94.8572139999991,
          "velocity": 0.7244094488188977,
          "duration": 0.5952385416666459
        },
        {
          "name": "G4",
          "midi": 67,
          "time": 94.8572139999991,
          "velocity": 0.7795275590551181,
          "duration": 0.628571899999983
        },
        {
          "name": "D4",
          "midi": 62,
          "time": 94.8572139999991,
          "velocity": 0.6456692913385826,
          "duration": 0.2238096916666592
        },
        {
          "name": "C2",
          "midi": 36,
          "time": 94.8572139999991,
          "velocity": 0.84251968503937,
          "duration": 0.0714286249999958
        },
        {
          "name": "F#2",
          "midi": 42,
          "time": 94.8572139999991,
          "velocity": 0.6771653543307087,
          "duration": 0.05714290000000233
        },
        {
          "name": "G1",
          "midi": 31,
          "time": 95.14292849999909,
          "velocity": 0.7874015748031497,
          "duration": 0.26190495833333216
        },
        {
          "name": "G2",
          "midi": 43,
          "time": 95.14292849999909,
          "velocity": 0.5354330708661418,
          "duration": 0.11904770833332634
        },
        {
          "name": "D3",
          "midi": 50,
          "time": 95.14292849999909,
          "velocity": 0.7401574803149606,
          "duration": 0.11904770833332634
        },
        {
          "name": "G3",
          "midi": 55,
          "time": 95.14292849999909,
          "velocity": 0.6850393700787402,
          "duration": 0.11904770833332634
        },
        {
          "name": "C2",
          "midi": 36,
          "time": 95.14292849999909,
          "velocity": 0.84251968503937,
          "duration": 0.28571449999999743
        },
        {
          "name": "F#2",
          "midi": 42,
          "time": 95.14292849999909,
          "velocity": 0.6771653543307087,
          "duration": 0.047619083333330536
        },
        {
          "name": "B1",
          "midi": 35,
          "time": 95.42864299999908,
          "velocity": 0.7874015748031497,
          "duration": 0.26190495833333216
        },
        {
          "name": "G3",
          "midi": 55,
          "time": 95.42864299999908,
          "velocity": 0.7401574803149606,
          "duration": 0.11904770833332634
        },
        {
          "name": "B3",
          "midi": 59,
          "time": 95.42864299999908,
          "velocity": 0.8110236220472441,
          "duration": 0.11904770833332634
        },
        {
          "name": "D4",
          "midi": 62,
          "time": 95.42864299999908,
          "velocity": 0.5196850393700787,
          "duration": 0.11904770833332634
        },
        {
          "name": "B3",
          "midi": 59,
          "time": 95.42864299999908,
          "velocity": 0.6535433070866141,
          "duration": 0.48571464999999137
        },
        {
          "name": "D4",
          "midi": 62,
          "time": 95.42864299999908,
          "velocity": 0.7086614173228346,
          "duration": 0.5095241916666566
        },
        {
          "name": "G3",
          "midi": 55,
          "time": 95.42864299999908,
          "velocity": 0.5748031496062992,
          "duration": 0.5095241916666566
        },
        {
          "name": "D2",
          "midi": 38,
          "time": 95.42864299999908,
          "velocity": 0.7716535433070866,
          "duration": 0.0714286249999958
        },
        {
          "name": "F#2",
          "midi": 42,
          "time": 95.42864299999908,
          "velocity": 0.6771653543307087,
          "duration": 0.047619083333330536
        },
        {
          "name": "D2",
          "midi": 38,
          "time": 95.71435749999908,
          "velocity": 0.7874015748031497,
          "duration": 0.27142877499998974
        },
        {
          "name": "C2",
          "midi": 36,
          "time": 95.71435749999908,
          "velocity": 0.84251968503937,
          "duration": 0.0714286249999958
        },
        {
          "name": "F#2",
          "midi": 42,
          "time": 95.71435749999908,
          "velocity": 0.6771653543307087,
          "duration": 0.047619083333330536
        },
        {
          "name": "E2",
          "midi": 40,
          "time": 96.00007199999907,
          "velocity": 0.7874015748031497,
          "duration": 0.6761909833332993
        },
        {
          "name": "B2",
          "midi": 47,
          "time": 96.00007199999907,
          "velocity": 0.6614173228346457,
          "duration": 0.11904770833332634
        },
        {
          "name": "E3",
          "midi": 52,
          "time": 96.00007199999907,
          "velocity": 0.7795275590551181,
          "duration": 0.11904770833332634
        },
        {
          "name": "G3",
          "midi": 55,
          "time": 96.00007199999907,
          "velocity": 0.7952755905511811,
          "duration": 0.11904770833332634
        },
        {
          "name": "B3",
          "midi": 59,
          "time": 96.00007199999907,
          "velocity": 0.5826771653543307,
          "duration": 0.11904770833332634
        },
        {
          "name": "E4",
          "midi": 64,
          "time": 96.00007199999907,
          "velocity": 0.48031496062992124,
          "duration": 0.11904770833332634
        },
        {
          "name": "E4",
          "midi": 64,
          "time": 96.00007199999907,
          "velocity": 0.6535433070866141,
          "duration": 0.17619060833332867
        },
        {
          "name": "G4",
          "midi": 67,
          "time": 96.00007199999907,
          "velocity": 0.6614173228346457,
          "duration": 0.21428587500000162
        },
        {
          "name": "B3",
          "midi": 59,
          "time": 96.00007199999907,
          "velocity": 0.7165354330708661,
          "duration": 0.5476194583333154
        },
        {
          "name": "E4",
          "midi": 64,
          "time": 96.00007199999907,
          "velocity": 0.7165354330708661,
          "duration": 0.3904764833333303
        },
        {
          "name": "G3",
          "midi": 55,
          "time": 96.00007199999907,
          "velocity": 0.6771653543307087,
          "duration": 0.6904767083332928
        },
        {
          "name": "C2",
          "midi": 36,
          "time": 96.00007199999907,
          "velocity": 0.84251968503937,
          "duration": 0.5714289999999806
        },
        {
          "name": "F#2",
          "midi": 42,
          "time": 96.00007199999907,
          "velocity": 0.6771653543307087,
          "duration": 0.047619083333330536
        },
        {
          "name": "B4",
          "midi": 71,
          "time": 96.28578649999906,
          "velocity": 0.7244094488188977,
          "duration": 0.11904770833332634
        },
        {
          "name": "G4",
          "midi": 67,
          "time": 96.28578649999906,
          "velocity": 0.6220472440944882,
          "duration": 0.11904770833332634
        },
        {
          "name": "B4",
          "midi": 71,
          "time": 96.28578649999906,
          "velocity": 0.6614173228346457,
          "duration": 0.2761906833333114
        },
        {
          "name": "E4",
          "midi": 64,
          "time": 96.28578649999906,
          "velocity": 0.6614173228346457,
          "duration": 0.26190495833331795
        },
        {
          "name": "F#2",
          "midi": 42,
          "time": 96.28578649999906,
          "velocity": 0.6771653543307087,
          "duration": 0.047619083333330536
        },
        {
          "name": "D4",
          "midi": 62,
          "time": 96.28578649999906,
          "velocity": 0.007874015748031496,
          "duration": 0.13333343333331982
        },
        {
          "name": "E4",
          "midi": 64,
          "time": 96.42864374999905,
          "velocity": 0.7086614173228346,
          "duration": 0.26190495833330374
        },
        {
          "name": "B3",
          "midi": 59,
          "time": 96.42864374999905,
          "velocity": 0.6456692913385826,
          "duration": 0.547619458333287
        },
        {
          "name": "B4",
          "midi": 71,
          "time": 96.57150099999905,
          "velocity": 0.7244094488188977,
          "duration": 0.26666686666663963
        },
        {
          "name": "E4",
          "midi": 64,
          "time": 96.57150099999905,
          "velocity": 0.6062992125984252,
          "duration": 0.3571431249999648
        },
        {
          "name": "G3",
          "midi": 55,
          "time": 96.57150099999905,
          "velocity": 0.6850393700787402,
          "duration": 0.40476220833329535
        },
        {
          "name": "D2",
          "midi": 38,
          "time": 96.57150099999905,
          "velocity": 0.7716535433070866,
          "duration": 0.047619083333330536
        },
        {
          "name": "F#2",
          "midi": 42,
          "time": 96.57150099999905,
          "velocity": 0.6771653543307087,
          "duration": 0.0714286249999958
        },
        {
          "name": "D4",
          "midi": 62,
          "time": 96.57150099999905,
          "velocity": 0.007874015748031496,
          "duration": 0.08571434999998928
        },
        {
          "name": "C5",
          "midi": 72,
          "time": 96.85721549999901,
          "velocity": 0.7244094488188977,
          "duration": 0.26666686666666806
        },
        {
          "name": "B1",
          "midi": 35,
          "time": 96.85721549999901,
          "velocity": 0.7874015748031497,
          "duration": 0.047619083333330536
        },
        {
          "name": "E3",
          "midi": 52,
          "time": 96.85721549999901,
          "velocity": 0.7952755905511811,
          "duration": 0.11904770833332634
        },
        {
          "name": "G3",
          "midi": 55,
          "time": 96.85721549999901,
          "velocity": 0.8582677165354331,
          "duration": 0.6904767083333212
        },
        {
          "name": "B3",
          "midi": 59,
          "time": 96.85721549999901,
          "velocity": 0.8818897637795275,
          "duration": 0.976191208333347
        },
        {
          "name": "E4",
          "midi": 64,
          "time": 96.85721549999901,
          "velocity": 0.6062992125984252,
          "duration": 0.11904770833332634
        },
        {
          "name": "E4",
          "midi": 64,
          "time": 96.85721549999901,
          "velocity": 0.6771653543307087,
          "duration": 0.8666673166666783
        },
        {
          "name": "G4",
          "midi": 67,
          "time": 96.85721549999901,
          "velocity": 0.7007874015748031,
          "duration": 0.0714286249999958
        },
        {
          "name": "C2",
          "midi": 36,
          "time": 96.85721549999901,
          "velocity": 0.84251968503937,
          "duration": 0.05714290000000233
        },
        {
          "name": "D2",
          "midi": 38,
          "time": 96.85721549999901,
          "velocity": 0.7716535433070866,
          "duration": 0.05714290000000233
        },
        {
          "name": "F#2",
          "midi": 42,
          "time": 96.85721549999901,
          "velocity": 0.6771653543307087,
          "duration": 0.05714290000000233
        },
        {
          "name": "D4",
          "midi": 62,
          "time": 96.85721549999901,
          "velocity": 0.007874015748031496,
          "duration": 0.12380961666666224
        },
        {
          "name": "B4",
          "midi": 71,
          "time": 97.14292999999901,
          "velocity": 0.7244094488188977,
          "duration": 0.28571449999999743
        },
        {
          "name": "E2",
          "midi": 40,
          "time": 97.14292999999901,
          "velocity": 0.7874015748031497,
          "duration": 0.05714290000000233
        },
        {
          "name": "B4",
          "midi": 71,
          "time": 97.14292999999901,
          "velocity": 0.6062992125984252,
          "duration": 0.5333337333333361
        },
        {
          "name": "G4",
          "midi": 67,
          "time": 97.14292999999901,
          "velocity": 0.7086614173228346,
          "duration": 0.5238099166666643
        },
        {
          "name": "E4",
          "midi": 64,
          "time": 97.14292999999901,
          "velocity": 0.6535433070866141,
          "duration": 0.6904767083333496
        },
        {
          "name": "C2",
          "midi": 36,
          "time": 97.14292999999901,
          "velocity": 0.84251968503937,
          "duration": 0.0714286249999958
        },
        {
          "name": "F#2",
          "midi": 42,
          "time": 97.14292999999901,
          "velocity": 0.6771653543307087,
          "duration": 0.05714290000000233
        },
        {
          "name": "D4",
          "midi": 62,
          "time": 97.14292999999901,
          "velocity": 0.007874015748031496,
          "duration": 0.1428572499999916
        },
        {
          "name": "A4",
          "midi": 69,
          "time": 97.42864449999901,
          "velocity": 0.7244094488188977,
          "duration": 0.17619060833332867
        },
        {
          "name": "E2",
          "midi": 40,
          "time": 97.42864449999901,
          "velocity": 0.7874015748031497,
          "duration": 0.5333337333333503
        },
        {
          "name": "B2",
          "midi": 47,
          "time": 97.42864449999901,
          "velocity": 0.5590551181102362,
          "duration": 0.11904770833332634
        },
        {
          "name": "E3",
          "midi": 52,
          "time": 97.42864449999901,
          "velocity": 0.7716535433070866,
          "duration": 0.11904770833332634
        },
        {
          "name": "G3",
          "midi": 55,
          "time": 97.42864449999901,
          "velocity": 0.7795275590551181,
          "duration": 0.7238100666667009
        },
        {
          "name": "C2",
          "midi": 36,
          "time": 97.42864449999901,
          "velocity": 0.84251968503937,
          "duration": 0.28571450000001164
        },
        {
          "name": "F#2",
          "midi": 42,
          "time": 97.42864449999901,
          "velocity": 0.6771653543307087,
          "duration": 0.047619083333330536
        },
        {
          "name": "D4",
          "midi": 62,
          "time": 97.42864449999901,
          "velocity": 0.007874015748031496,
          "duration": 0.09047625833332518
        },
        {
          "name": "A4",
          "midi": 69,
          "time": 97.71435899999902,
          "velocity": 0.7244094488188977,
          "duration": 0.29523831666668343
        },
        {
          "name": "B3",
          "midi": 59,
          "time": 97.71435899999902,
          "velocity": 0.8110236220472441,
          "duration": 0.4523812916666827
        },
        {
          "name": "E4",
          "midi": 64,
          "time": 97.71435899999902,
          "velocity": 0.8267716535433071,
          "duration": 0.4047622083333522
        },
        {
          "name": "D2",
          "midi": 38,
          "time": 97.71435899999902,
          "velocity": 0.7716535433070866,
          "duration": 0.07142862500001002
        },
        {
          "name": "F#2",
          "midi": 42,
          "time": 97.71435899999902,
          "velocity": 0.6771653543307087,
          "duration": 0.04761908333334475
        },
        {
          "name": "D4",
          "midi": 62,
          "time": 97.71435899999902,
          "velocity": 0.007874015748031496,
          "duration": 0.14761915833334172
        },
        {
          "name": "G4",
          "midi": 67,
          "time": 98.00007349999903,
          "velocity": 0.7244094488188977,
          "duration": 0.10476198333334708
        },
        {
          "name": "B1",
          "midi": 35,
          "time": 98.00007349999903,
          "velocity": 0.7874015748031497,
          "duration": 0.21428587500000162
        },
        {
          "name": "E4",
          "midi": 64,
          "time": 98.00007349999903,
          "velocity": 0.6692913385826772,
          "duration": 0.1523810666666776
        },
        {
          "name": "C2",
          "midi": 36,
          "time": 98.00007349999903,
          "velocity": 0.84251968503937,
          "duration": 0.07142862500001002
        },
        {
          "name": "F#2",
          "midi": 42,
          "time": 98.00007349999903,
          "velocity": 0.6771653543307087,
          "duration": 0.04761908333334475
        },
        {
          "name": "D4",
          "midi": 62,
          "time": 98.00007349999903,
          "velocity": 0.007874015748031496,
          "duration": 0.05238099166668064
        },
        {
          "name": "G4",
          "midi": 67,
          "time": 98.28578799999903,
          "velocity": 0.7244094488188977,
          "duration": 0.22380969166668763
        },
        {
          "name": "C2",
          "midi": 36,
          "time": 98.28578799999903,
          "velocity": 0.7874015748031497,
          "duration": 0.5714290000000375
        },
        {
          "name": "C3",
          "midi": 48,
          "time": 98.28578799999903,
          "velocity": 0.49606299212598426,
          "duration": 0.11904770833334055
        },
        {
          "name": "G3",
          "midi": 55,
          "time": 98.28578799999903,
          "velocity": 0.6299212598425197,
          "duration": 0.11904770833334055
        },
        {
          "name": "E4",
          "midi": 64,
          "time": 98.28578799999903,
          "velocity": 0.6771653543307087,
          "duration": 0.12857152500001234
        },
        {
          "name": "G4",
          "midi": 67,
          "time": 98.28578799999903,
          "velocity": 0.6535433070866141,
          "duration": 0.3809526666666869
        },
        {
          "name": "C5",
          "midi": 72,
          "time": 98.28578799999903,
          "velocity": 0.6850393700787402,
          "duration": 0.22380969166668763
        },
        {
          "name": "E4",
          "midi": 64,
          "time": 98.28578799999903,
          "velocity": 0.7322834645669292,
          "duration": 0.21428587500001584
        },
        {
          "name": "C4",
          "midi": 60,
          "time": 98.28578799999903,
          "velocity": 0.7165354330708661,
          "duration": 0.12857152500001234
        },
        {
          "name": "G3",
          "midi": 55,
          "time": 98.28578799999903,
          "velocity": 0.7086614173228346,
          "duration": 0.6761909833333704
        },
        {
          "name": "C2",
          "midi": 36,
          "time": 98.28578799999903,
          "velocity": 0.84251968503937,
          "duration": 0.7952386916666967
        },
        {
          "name": "F#2",
          "midi": 42,
          "time": 98.28578799999903,
          "velocity": 0.6771653543307087,
          "duration": 0.04761908333334475
        },
        {
          "name": "D4",
          "midi": 62,
          "time": 98.28578799999903,
          "velocity": 0.007874015748031496,
          "duration": 0.5666670916667016
        },
        {
          "name": "E4",
          "midi": 64,
          "time": 98.2953118166657,
          "velocity": 0.7244094488188977,
          "duration": 0.35714312500002166
        },
        {
          "name": "C4",
          "midi": 60,
          "time": 98.2953118166657,
          "velocity": 0.7795275590551181,
          "duration": 0.5619051833333657
        },
        {
          "name": "G4",
          "midi": 67,
          "time": 98.57150249999906,
          "velocity": 0.6614173228346457,
          "duration": 0.5666670916666874
        },
        {
          "name": "E4",
          "midi": 64,
          "time": 98.57150249999906,
          "velocity": 0.6929133858267716,
          "duration": 0.24761923333333868
        },
        {
          "name": "C5",
          "midi": 72,
          "time": 98.57150249999906,
          "velocity": 0.6062992125984252,
          "duration": 0.10476198333333286
        },
        {
          "name": "F#2",
          "midi": 42,
          "time": 98.57150249999906,
          "velocity": 0.6771653543307087,
          "duration": 0.047619083333330536
        },
        {
          "name": "E4",
          "midi": 64,
          "time": 98.70007402499905,
          "velocity": 0.6299212598425197,
          "duration": 0.2523811416666746
        },
        {
          "name": "C4",
          "midi": 60,
          "time": 98.73816929166573,
          "velocity": 0.3700787401574803,
          "duration": 0.20000015000000815
        },
        {
          "name": "C4",
          "midi": 60,
          "time": 98.8191217333324,
          "velocity": 0.8267716535433071,
          "duration": 0.3952383916666662
        },
        {
          "name": "E4",
          "midi": 64,
          "time": 98.83340745833239,
          "velocity": 0.6614173228346457,
          "duration": 0.36666694166667924
        },
        {
          "name": "G3",
          "midi": 55,
          "time": 98.84293127499906,
          "velocity": 0.5354330708661418,
          "duration": 0.3952383916666662
        },
        {
          "name": "D2",
          "midi": 38,
          "time": 98.85721699999907,
          "velocity": 0.7716535433070866,
          "duration": 0.047619083333330536
        },
        {
          "name": "F#2",
          "midi": 42,
          "time": 98.85721699999907,
          "velocity": 0.6771653543307087,
          "duration": 0.0714286249999958
        },
        {
          "name": "G3",
          "midi": 55,
          "time": 99.1191219583324,
          "velocity": 0.8267716535433071,
          "duration": 0.6904767083333212
        },
        {
          "name": "C4",
          "midi": 60,
          "time": 99.12864577499907,
          "velocity": 0.8582677165354331,
          "duration": 0.11904770833332634
        },
        {
          "name": "E4",
          "midi": 64,
          "time": 99.12864577499907,
          "velocity": 0.6299212598425197,
          "duration": 0.11904770833332634
        },
        {
          "name": "G1",
          "midi": 31,
          "time": 99.14293149999908,
          "velocity": 0.7874015748031497,
          "duration": 0.0714286249999816
        },
        {
          "name": "E4",
          "midi": 64,
          "time": 99.14293149999908,
          "velocity": 0.6929133858267716,
          "duration": 0.8333339583333128
        },
        {
          "name": "C4",
          "midi": 60,
          "time": 99.14293149999908,
          "velocity": 0.6062992125984252,
          "duration": 0.9619054833333252
        },
        {
          "name": "G4",
          "midi": 67,
          "time": 99.14293149999908,
          "velocity": 0.6614173228346457,
          "duration": 0.05714289999998812
        },
        {
          "name": "C2",
          "midi": 36,
          "time": 99.14293149999908,
          "velocity": 0.84251968503937,
          "duration": 0.05714289999998812
        },
        {
          "name": "D2",
          "midi": 38,
          "time": 99.14293149999908,
          "velocity": 0.7716535433070866,
          "duration": 0.05714289999998812
        },
        {
          "name": "F#2",
          "midi": 42,
          "time": 99.14293149999908,
          "velocity": 0.6771653543307087,
          "duration": 0.05714289999998812
        },
        {
          "name": "A4",
          "midi": 69,
          "time": 99.15721722499907,
          "velocity": 0.7244094488188977,
          "duration": 0.11904770833332634
        },
        {
          "name": "G4",
          "midi": 67,
          "time": 99.28578874999907,
          "velocity": 0.7244094488188977,
          "duration": 0.14285725000000582
        },
        {
          "name": "F#4",
          "midi": 66,
          "time": 99.42864599999908,
          "velocity": 0.7244094488188977,
          "duration": 0.2809525916666473
        },
        {
          "name": "C2",
          "midi": 36,
          "time": 99.42864599999908,
          "velocity": 0.7874015748031497,
          "duration": 0.047619083333330536
        },
        {
          "name": "E4",
          "midi": 64,
          "time": 99.42864599999908,
          "velocity": 0.7086614173228346,
          "duration": 0.6904767083333212
        },
        {
          "name": "C5",
          "midi": 72,
          "time": 99.42864599999908,
          "velocity": 0.7165354330708661,
          "duration": 0.6523814416666625
        },
        {
          "name": "G4",
          "midi": 67,
          "time": 99.42864599999908,
          "velocity": 0.6220472440944882,
          "duration": 0.5476194583333154
        },
        {
          "name": "C2",
          "midi": 36,
          "time": 99.42864599999908,
          "velocity": 0.84251968503937,
          "duration": 0.0714286249999958
        },
        {
          "name": "F#2",
          "midi": 42,
          "time": 99.42864599999908,
          "velocity": 0.6771653543307087,
          "duration": 0.05714290000000233
        },
        {
          "name": "C3",
          "midi": 48,
          "time": 99.6762652333324,
          "velocity": 0.7952755905511811,
          "duration": 0.11904770833332634
        },
        {
          "name": "G3",
          "midi": 55,
          "time": 99.6905509583324,
          "velocity": 0.7637795275590551,
          "duration": 0.43809556666667504
        },
        {
          "name": "E4",
          "midi": 64,
          "time": 99.71436049999906,
          "velocity": 0.7244094488188977,
          "duration": 0.6047623583333461
        },
        {
          "name": "C2",
          "midi": 36,
          "time": 99.71436049999906,
          "velocity": 0.7874015748031497,
          "duration": 0.28571449999999743
        },
        {
          "name": "C2",
          "midi": 36,
          "time": 99.71436049999906,
          "velocity": 0.84251968503937,
          "duration": 0.5333337333333361
        },
        {
          "name": "F#2",
          "midi": 42,
          "time": 99.71436049999906,
          "velocity": 0.6771653543307087,
          "duration": 0.047619083333330536
        },
        {
          "name": "C4",
          "midi": 60,
          "time": 99.98578927499906,
          "velocity": 0.8818897637795275,
          "duration": 0.538095641666672
        },
        {
          "name": "E4",
          "midi": 64,
          "time": 100.00007499999906,
          "velocity": 0.6850393700787402,
          "duration": 0.4857146500000056
        },
        {
          "name": "D2",
          "midi": 38,
          "time": 100.00007499999906,
          "velocity": 0.7716535433070866,
          "duration": 0.07142862500001002
        },
        {
          "name": "F#2",
          "midi": 42,
          "time": 100.00007499999906,
          "velocity": 0.6771653543307087,
          "duration": 0.04761908333334475
        },
        {
          "name": "G3",
          "midi": 55,
          "time": 100.00959881666573,
          "velocity": 0.6771653543307087,
          "duration": 0.404762208333338
        },
        {
          "name": "G1",
          "midi": 31,
          "time": 100.28578949999907,
          "velocity": 0.7874015748031497,
          "duration": 0.2380954166666669
        },
        {
          "name": "C2",
          "midi": 36,
          "time": 100.28578949999907,
          "velocity": 0.84251968503937,
          "duration": 0.0714286249999958
        },
        {
          "name": "F#2",
          "midi": 42,
          "time": 100.28578949999907,
          "velocity": 0.6771653543307087,
          "duration": 0.047619083333330536
        },
        {
          "name": "D2",
          "midi": 38,
          "time": 100.5476944583324,
          "velocity": 0.4645669291338583,
          "duration": 0.11904770833332634
        },
        {
          "name": "D2",
          "midi": 38,
          "time": 100.57150399999907,
          "velocity": 0.7874015748031497,
          "duration": 0.6190480833333254
        },
        {
          "name": "F#4",
          "midi": 66,
          "time": 100.57150399999907,
          "velocity": 0.5826771653543307,
          "duration": 1.700001274999991
        },
        {
          "name": "A4",
          "midi": 69,
          "time": 100.57150399999907,
          "velocity": 0.6220472440944882,
          "duration": 1.5095249416666547
        },
        {
          "name": "D4",
          "midi": 62,
          "time": 100.57150399999907,
          "velocity": 0.6220472440944882,
          "duration": 0.295238316666655
        },
        {
          "name": "D5",
          "midi": 74,
          "time": 100.57150399999907,
          "velocity": 0.5433070866141733,
          "duration": 1.7380965416666498
        },
        {
          "name": "F#4",
          "midi": 66,
          "time": 100.57150399999907,
          "velocity": 0.8110236220472441,
          "duration": 2.2619064583333284
        },
        {
          "name": "A3",
          "midi": 57,
          "time": 100.57150399999907,
          "velocity": 0.6771653543307087,
          "duration": 0.26190495833331795
        },
        {
          "name": "D4",
          "midi": 62,
          "time": 100.57150399999907,
          "velocity": 0.7637795275590551,
          "duration": 0.9952388416666622
        },
        {
          "name": "C2",
          "midi": 36,
          "time": 100.57150399999907,
          "velocity": 0.84251968503937,
          "duration": 0.5714289999999949
        },
        {
          "name": "F#2",
          "midi": 42,
          "time": 100.57150399999907,
          "velocity": 0.6771653543307087,
          "duration": 0.047619083333330536
        },
        {
          "name": "A3",
          "midi": 57,
          "time": 100.57150399999907,
          "velocity": 0.5669291338582677,
          "duration": 1.2952390666666531
        },
        {
          "name": "A2",
          "midi": 45,
          "time": 100.59531354166573,
          "velocity": 0.49606299212598426,
          "duration": 0.11904770833332634
        },
        {
          "name": "D3",
          "midi": 50,
          "time": 100.64293262499906,
          "velocity": 0.6299212598425197,
          "duration": 0.11904770833332634
        },
        {
          "name": "F#3",
          "midi": 54,
          "time": 100.69055170833239,
          "velocity": 0.5905511811023622,
          "duration": 0.11904770833332634
        },
        {
          "name": "A3",
          "midi": 57,
          "time": 100.71436124999906,
          "velocity": 0.8503937007874016,
          "duration": 2.1285730250000086
        },
        {
          "name": "D4",
          "midi": 62,
          "time": 100.7476946083324,
          "velocity": 0.7874015748031497,
          "duration": 1.1523818166666615
        },
        {
          "name": "F#2",
          "midi": 42,
          "time": 100.85721849999905,
          "velocity": 0.6771653543307087,
          "duration": 0.04761908333334475
        },
        {
          "name": "D2",
          "midi": 38,
          "time": 101.14293299999906,
          "velocity": 0.7716535433070866,
          "duration": 0.34285739999999976
        },
        {
          "name": "F#2",
          "midi": 42,
          "time": 101.14293299999906,
          "velocity": 0.6771653543307087,
          "duration": 0.0714286249999958
        },
        {
          "name": "G4",
          "midi": 67,
          "time": 101.42864749999906,
          "velocity": 0.7244094488188977,
          "duration": 0.27142877500000395
        },
        {
          "name": "C2",
          "midi": 36,
          "time": 101.42864749999906,
          "velocity": 0.84251968503937,
          "duration": 0.05714290000000233
        },
        {
          "name": "D2",
          "midi": 38,
          "time": 101.42864749999906,
          "velocity": 0.7716535433070866,
          "duration": 0.9285721249999881
        },
        {
          "name": "F#2",
          "midi": 42,
          "time": 101.42864749999906,
          "velocity": 0.6771653543307087,
          "duration": 0.05714290000000233
        },
        {
          "name": "D4",
          "midi": 62,
          "time": 101.42864749999906,
          "velocity": 0.007874015748031496,
          "duration": 0.8571434999999923
        },
        {
          "name": "A4",
          "midi": 69,
          "time": 101.71436199999906,
          "velocity": 0.7244094488188977,
          "duration": 0.5952385416666601
        },
        {
          "name": "C2",
          "midi": 36,
          "time": 101.71436199999906,
          "velocity": 0.84251968503937,
          "duration": 0.0714286249999958
        },
        {
          "name": "F#2",
          "midi": 42,
          "time": 101.71436199999906,
          "velocity": 0.6771653543307087,
          "duration": 0.05714290000000233
        },
        {
          "name": "D4",
          "midi": 62,
          "time": 101.71436199999906,
          "velocity": 0.007874015748031496,
          "duration": 0.6952386166666571
        },
        {
          "name": "C2",
          "midi": 36,
          "time": 102.00007649999905,
          "velocity": 0.84251968503937,
          "duration": 0.28571449999999743
        },
        {
          "name": "F#2",
          "midi": 42,
          "time": 102.00007649999905,
          "velocity": 0.6771653543307087,
          "duration": 0.047619083333330536
        },
        {
          "name": "A4",
          "midi": 69,
          "time": 102.28579099999905,
          "velocity": 0.7244094488188977,
          "duration": 0.24761923333332447
        },
        {
          "name": "D2",
          "midi": 38,
          "time": 102.28579099999905,
          "velocity": 0.7716535433070866,
          "duration": 0.41428602499999556
        },
        {
          "name": "F#2",
          "midi": 42,
          "time": 102.28579099999905,
          "velocity": 0.6771653543307087,
          "duration": 0.047619083333330536
        },
        {
          "name": "D4",
          "midi": 62,
          "time": 102.28579099999905,
          "velocity": 0.007874015748031496,
          "duration": 0.5142861000000067
        },
        {
          "name": "A4",
          "midi": 69,
          "time": 102.57150549999905,
          "velocity": 0.7244094488188977,
          "duration": 0.13809534166666992
        },
        {
          "name": "C2",
          "midi": 36,
          "time": 102.57150549999905,
          "velocity": 0.84251968503937,
          "duration": 0.0714286249999958
        },
        {
          "name": "F#2",
          "midi": 42,
          "time": 102.57150549999905,
          "velocity": 0.6771653543307087,
          "duration": 0.047619083333330536
        },
        {
          "name": "D4",
          "midi": 62,
          "time": 102.57150549999905,
          "velocity": 0.007874015748031496,
          "duration": 0.27142877500001816
        },
        {
          "name": "B4",
          "midi": 71,
          "time": 102.71436274999905,
          "velocity": 0.7244094488188977,
          "duration": 0.13809534166668413
        },
        {
          "name": "A4",
          "midi": 69,
          "time": 102.85721999999907,
          "velocity": 0.7244094488188977,
          "duration": 0.27142877499998974
        },
        {
          "name": "G1",
          "midi": 31,
          "time": 102.85721999999907,
          "velocity": 0.7874015748031497,
          "duration": 0.6047623583333035
        },
        {
          "name": "D3",
          "midi": 50,
          "time": 102.85721999999907,
          "velocity": 0.6850393700787402,
          "duration": 0.11904770833332634
        },
        {
          "name": "G3",
          "midi": 55,
          "time": 102.85721999999907,
          "velocity": 0.7952755905511811,
          "duration": 0.11904770833332634
        },
        {
          "name": "B3",
          "midi": 59,
          "time": 102.85721999999907,
          "velocity": 0.8661417322834646,
          "duration": 0.11904770833332634
        },
        {
          "name": "D2",
          "midi": 38,
          "time": 102.85721999999907,
          "velocity": 0.3700787401574803,
          "duration": 0.11904770833332634
        },
        {
          "name": "G4",
          "midi": 67,
          "time": 102.85721999999907,
          "velocity": 0.5511811023622047,
          "duration": 1.119048458333296
        },
        {
          "name": "D4",
          "midi": 62,
          "time": 102.85721999999907,
          "velocity": 0.49606299212598426,
          "duration": 0.5476194583333012
        },
        {
          "name": "C2",
          "midi": 36,
          "time": 102.85721999999907,
          "velocity": 0.84251968503937,
          "duration": 0.5714289999999664
        },
        {
          "name": "F#2",
          "midi": 42,
          "time": 102.85721999999907,
          "velocity": 0.6771653543307087,
          "duration": 0.047619083333330536
        },
        {
          "name": "A3",
          "midi": 57,
          "time": 102.85721999999907,
          "velocity": 0.5905511811023622,
          "duration": 2.0809539416665928
        },
        {
          "name": "G4",
          "midi": 67,
          "time": 103.14293449999906,
          "velocity": 0.7244094488188977,
          "duration": 1.485715399999961
        },
        {
          "name": "F#2",
          "midi": 42,
          "time": 103.14293449999906,
          "velocity": 0.6771653543307087,
          "duration": 0.047619083333330536
        },
        {
          "name": "D4",
          "midi": 62,
          "time": 103.14293449999906,
          "velocity": 0.007874015748031496,
          "duration": 0.40476220833330956
        },
        {
          "name": "D4",
          "midi": 62,
          "time": 103.28579174999905,
          "velocity": 0.84251968503937,
          "duration": 0.5476194583333296
        },
        {
          "name": "B3",
          "midi": 59,
          "time": 103.28579174999905,
          "velocity": 0.7716535433070866,
          "duration": 0.11904770833332634
        },
        {
          "name": "G3",
          "midi": 55,
          "time": 103.28579174999905,
          "velocity": 0.5590551181102362,
          "duration": 0.11904770833332634
        },
        {
          "name": "D3",
          "midi": 50,
          "time": 103.42864899999904,
          "velocity": 0.6299212598425197,
          "duration": 0.11904770833332634
        },
        {
          "name": "G3",
          "midi": 55,
          "time": 103.42864899999904,
          "velocity": 0.6850393700787402,
          "duration": 0.11904770833332634
        },
        {
          "name": "B3",
          "midi": 59,
          "time": 103.42864899999904,
          "velocity": 0.6850393700787402,
          "duration": 0.11904770833332634
        },
        {
          "name": "D4",
          "midi": 62,
          "time": 103.42864899999904,
          "velocity": 0.5826771653543307,
          "duration": 0.4523812916666685
        },
        {
          "name": "D2",
          "midi": 38,
          "time": 103.42864899999904,
          "velocity": 0.7716535433070866,
          "duration": 0.047619083333330536
        },
        {
          "name": "F#2",
          "midi": 42,
          "time": 103.42864899999904,
          "velocity": 0.6771653543307087,
          "duration": 0.0714286249999958
        },
        {
          "name": "G1",
          "midi": 31,
          "time": 103.71436349999904,
          "velocity": 0.7874015748031497,
          "duration": 0.047619083333330536
        },
        {
          "name": "G3",
          "midi": 55,
          "time": 103.71436349999904,
          "velocity": 0.7086614173228346,
          "duration": 0.11904770833334055
        },
        {
          "name": "B3",
          "midi": 59,
          "time": 103.71436349999904,
          "velocity": 0.8818897637795275,
          "duration": 0.11904770833334055
        },
        {
          "name": "D4",
          "midi": 62,
          "time": 103.71436349999904,
          "velocity": 0.6456692913385826,
          "duration": 0.17142870000000698
        },
        {
          "name": "B3",
          "midi": 59,
          "time": 103.71436349999904,
          "velocity": 0.7165354330708661,
          "duration": 0.26190495833333216
        },
        {
          "name": "G3",
          "midi": 55,
          "time": 103.71436349999904,
          "velocity": 0.7559055118110236,
          "duration": 0.24761923333333868
        },
        {
          "name": "B4",
          "midi": 71,
          "time": 103.71436349999904,
          "velocity": 0.7952755905511811,
          "duration": 0.24761923333333868
        },
        {
          "name": "C2",
          "midi": 36,
          "time": 103.71436349999904,
          "velocity": 0.84251968503937,
          "duration": 0.05714290000000233
        },
        {
          "name": "D2",
          "midi": 38,
          "time": 103.71436349999904,
          "velocity": 0.7716535433070866,
          "duration": 0.05714290000000233
        },
        {
          "name": "F#2",
          "midi": 42,
          "time": 103.71436349999904,
          "velocity": 0.6771653543307087,
          "duration": 0.05714290000000233
        },
        {
          "name": "G1",
          "midi": 31,
          "time": 104.00007799999904,
          "velocity": 0.7874015748031497,
          "duration": 0.047619083333330536
        },
        {
          "name": "B3",
          "midi": 59,
          "time": 104.00007799999904,
          "velocity": 0.7165354330708661,
          "duration": 0.4523812916666543
        },
        {
          "name": "G3",
          "midi": 55,
          "time": 104.00007799999904,
          "velocity": 0.7244094488188977,
          "duration": 0.40476220833332377
        },
        {
          "name": "B4",
          "midi": 71,
          "time": 104.00007799999904,
          "velocity": 0.7480314960629921,
          "duration": 0.4619051083333261
        },
        {
          "name": "C2",
          "midi": 36,
          "time": 104.00007799999904,
          "velocity": 0.84251968503937,
          "duration": 0.0714286249999958
        },
        {
          "name": "F#2",
          "midi": 42,
          "time": 104.00007799999904,
          "velocity": 0.6771653543307087,
          "duration": 0.05714290000000233
        },
        {
          "name": "G1",
          "midi": 31,
          "time": 104.28579249999903,
          "velocity": 0.7874015748031497,
          "duration": 0.27142877499998974
        },
        {
          "name": "D3",
          "midi": 50,
          "time": 104.28579249999903,
          "velocity": 0.7952755905511811,
          "duration": 0.11904770833332634
        },
        {
          "name": "G3",
          "midi": 55,
          "time": 104.28579249999903,
          "velocity": 0.7086614173228346,
          "duration": 0.16666679166665688
        },
        {
          "name": "C2",
          "midi": 36,
          "time": 104.28579249999903,
          "velocity": 0.84251968503937,
          "duration": 0.2857144999999832
        },
        {
          "name": "F#2",
          "midi": 42,
          "time": 104.28579249999903,
          "velocity": 0.6771653543307087,
          "duration": 0.047619083333330536
        },
        {
          "name": "B1",
          "midi": 35,
          "time": 104.57150699999902,
          "velocity": 0.7874015748031497,
          "duration": 0.26190495833331795
        },
        {
          "name": "G3",
          "midi": 55,
          "time": 104.57150699999902,
          "velocity": 0.8110236220472441,
          "duration": 0.11904770833332634
        },
        {
          "name": "B3",
          "midi": 59,
          "time": 104.57150699999902,
          "velocity": 0.8976377952755905,
          "duration": 0.11904770833332634
        },
        {
          "name": "D4",
          "midi": 62,
          "time": 104.57150699999902,
          "velocity": 0.6141732283464567,
          "duration": 0.11904770833332634
        },
        {
          "name": "B4",
          "midi": 71,
          "time": 104.57150699999902,
          "velocity": 0.7795275590551181,
          "duration": 0.27142877499998974
        },
        {
          "name": "B3",
          "midi": 59,
          "time": 104.57150699999902,
          "velocity": 0.8267716535433071,
          "duration": 0.24761923333332447
        },
        {
          "name": "G3",
          "midi": 55,
          "time": 104.57150699999902,
          "velocity": 0.8818897637795275,
          "duration": 0.2142858749999874
        },
        {
          "name": "D2",
          "midi": 38,
          "time": 104.57150699999902,
          "velocity": 0.7716535433070866,
          "duration": 0.0714286249999958
        },
        {
          "name": "F#2",
          "midi": 42,
          "time": 104.57150699999902,
          "velocity": 0.6771653543307087,
          "duration": 0.047619083333330536
        },
        {
          "name": "D2",
          "midi": 38,
          "time": 104.857221499999,
          "velocity": 0.7874015748031497,
          "duration": 0.27142877500000395
        },
        {
          "name": "B3",
          "midi": 59,
          "time": 104.857221499999,
          "velocity": 0.7637795275590551,
          "duration": 0.11904770833334055
        },
        {
          "name": "G3",
          "midi": 55,
          "time": 104.857221499999,
          "velocity": 0.6299212598425197,
          "duration": 0.11904770833334055
        },
        {
          "name": "A4",
          "midi": 69,
          "time": 104.857221499999,
          "velocity": 0.7874015748031497,
          "duration": 0.5238099166666501
        },
        {
          "name": "F#3",
          "midi": 54,
          "time": 104.857221499999,
          "velocity": 0.6692913385826772,
          "duration": 0.5095241916666566
        },
        {
          "name": "A3",
          "midi": 57,
          "time": 104.857221499999,
          "velocity": 0.5669291338582677,
          "duration": 0.5238099166666501
        },
        {
          "name": "C2",
          "midi": 36,
          "time": 104.857221499999,
          "velocity": 0.84251968503937,
          "duration": 0.0714286249999958
        },
        {
          "name": "F#2",
          "midi": 42,
          "time": 104.857221499999,
          "velocity": 0.6771653543307087,
          "duration": 0.047619083333330536
        },
        {
          "name": "G1",
          "midi": 31,
          "time": 105.142935999999,
          "velocity": 0.7874015748031497,
          "duration": 0.5809528166666382
        },
        {
          "name": "D3",
          "midi": 50,
          "time": 105.142935999999,
          "velocity": 0.6850393700787402,
          "duration": 0.11904770833332634
        },
        {
          "name": "G3",
          "midi": 55,
          "time": 105.142935999999,
          "velocity": 0.7952755905511811,
          "duration": 0.11904770833332634
        },
        {
          "name": "B3",
          "midi": 59,
          "time": 105.142935999999,
          "velocity": 0.8661417322834646,
          "duration": 0.11904770833332634
        },
        {
          "name": "D2",
          "midi": 38,
          "time": 105.142935999999,
          "velocity": 0.3700787401574803,
          "duration": 0.11904770833332634
        },
        {
          "name": "C2",
          "midi": 36,
          "time": 105.142935999999,
          "velocity": 0.84251968503937,
          "duration": 0.5714289999999664
        },
        {
          "name": "F#2",
          "midi": 42,
          "time": 105.142935999999,
          "velocity": 0.6771653543307087,
          "duration": 0.047619083333330536
        },
        {
          "name": "B4",
          "midi": 71,
          "time": 105.42865049999898,
          "velocity": 0.41732283464566927,
          "duration": 0.34285739999999976
        },
        {
          "name": "D5",
          "midi": 74,
          "time": 105.42865049999898,
          "velocity": 0.7086614173228346,
          "duration": 0.295238316666655
        },
        {
          "name": "B4",
          "midi": 71,
          "time": 105.42865049999898,
          "velocity": 0.7637795275590551,
          "duration": 0.7857148749999965
        },
        {
          "name": "G3",
          "midi": 55,
          "time": 105.42865049999898,
          "velocity": 0.7322834645669292,
          "duration": 0.26190495833331795
        },
        {
          "name": "B3",
          "midi": 59,
          "time": 105.42865049999898,
          "velocity": 0.6220472440944882,
          "duration": 0.26190495833331795
        },
        {
          "name": "F#2",
          "midi": 42,
          "time": 105.42865049999898,
          "velocity": 0.6771653543307087,
          "duration": 0.047619083333330536
        },
        {
          "name": "D4",
          "midi": 62,
          "time": 105.57150774999897,
          "velocity": 0.84251968503937,
          "duration": 0.11904770833332634
        },
        {
          "name": "B3",
          "midi": 59,
          "time": 105.57150774999897,
          "velocity": 0.7716535433070866,
          "duration": 0.26190495833333216
        },
        {
          "name": "G3",
          "midi": 55,
          "time": 105.57150774999897,
          "velocity": 0.5590551181102362,
          "duration": 0.26190495833333216
        },
        {
          "name": "B5",
          "midi": 83,
          "time": 105.57150774999897,
          "velocity": 0.7874015748031497,
          "duration": 0.28571449999999743
        },
        {
          "name": "D3",
          "midi": 50,
          "time": 105.71436499999896,
          "velocity": 0.6299212598425197,
          "duration": 0.11904770833334055
        },
        {
          "name": "G3",
          "midi": 55,
          "time": 105.71436499999896,
          "velocity": 0.6850393700787402,
          "duration": 0.4047622083333522
        },
        {
          "name": "B3",
          "midi": 59,
          "time": 105.71436499999896,
          "velocity": 0.6850393700787402,
          "duration": 0.4047622083333522
        },
        {
          "name": "D4",
          "midi": 62,
          "time": 105.71436499999896,
          "velocity": 0.5826771653543307,
          "duration": 0.11904770833334055
        },
        {
          "name": "D2",
          "midi": 38,
          "time": 105.71436499999896,
          "velocity": 0.7716535433070866,
          "duration": 0.04761908333334475
        },
        {
          "name": "F#2",
          "midi": 42,
          "time": 105.71436499999896,
          "velocity": 0.6771653543307087,
          "duration": 0.07142862500001002
        },
        {
          "name": "G1",
          "midi": 31,
          "time": 106.00007949999898,
          "velocity": 0.7874015748031497,
          "duration": 0.05714290000000233
        },
        {
          "name": "G3",
          "midi": 55,
          "time": 106.00007949999898,
          "velocity": 0.7086614173228346,
          "duration": 0.6904767083333354
        },
        {
          "name": "B3",
          "midi": 59,
          "time": 106.00007949999898,
          "velocity": 0.8818897637795275,
          "duration": 0.9761912083333186
        },
        {
          "name": "D4",
          "midi": 62,
          "time": 106.00007949999898,
          "velocity": 0.6456692913385826,
          "duration": 0.11904770833334055
        },
        {
          "name": "D5",
          "midi": 74,
          "time": 106.00007949999898,
          "velocity": 0.6850393700787402,
          "duration": 0.22380969166667342
        },
        {
          "name": "B5",
          "midi": 83,
          "time": 106.00007949999898,
          "velocity": 0.7559055118110236,
          "duration": 0.27142877500000395
        },
        {
          "name": "B4",
          "midi": 71,
          "time": 106.00007949999898,
          "velocity": 0.5196850393700787,
          "duration": 0.5476194583333296
        },
        {
          "name": "C2",
          "midi": 36,
          "time": 106.00007949999898,
          "velocity": 0.84251968503937,
          "duration": 0.05714290000000233
        },
        {
          "name": "D2",
          "midi": 38,
          "time": 106.00007949999898,
          "velocity": 0.7716535433070866,
          "duration": 0.05714290000000233
        },
        {
          "name": "F#2",
          "midi": 42,
          "time": 106.00007949999898,
          "velocity": 0.6771653543307087,
          "duration": 0.05714290000000233
        },
        {
          "name": "G1",
          "midi": 31,
          "time": 106.28579399999897,
          "velocity": 0.7874015748031497,
          "duration": 0.047619083333330536
        },
        {
          "name": "B5",
          "midi": 83,
          "time": 106.28579399999897,
          "velocity": 0.6771653543307087,
          "duration": 0.2952383166666692
        },
        {
          "name": "D5",
          "midi": 74,
          "time": 106.28579399999897,
          "velocity": 0.7952755905511811,
          "duration": 0.2380954166666669
        },
        {
          "name": "B4",
          "midi": 71,
          "time": 106.28579399999897,
          "velocity": 0.6771653543307087,
          "duration": 1.000000749999984
        },
        {
          "name": "C2",
          "midi": 36,
          "time": 106.28579399999897,
          "velocity": 0.84251968503937,
          "duration": 0.0714286249999958
        },
        {
          "name": "F#2",
          "midi": 42,
          "time": 106.28579399999897,
          "velocity": 0.6771653543307087,
          "duration": 0.05714290000000233
        },
        {
          "name": "G1",
          "midi": 31,
          "time": 106.57150849999897,
          "velocity": 0.7874015748031497,
          "duration": 0.26190495833333216
        },
        {
          "name": "D3",
          "midi": 50,
          "time": 106.57150849999897,
          "velocity": 0.7952755905511811,
          "duration": 0.11904770833334055
        },
        {
          "name": "G3",
          "midi": 55,
          "time": 106.57150849999897,
          "velocity": 0.7086614173228346,
          "duration": 0.40476220833332377
        },
        {
          "name": "C2",
          "midi": 36,
          "time": 106.57150849999897,
          "velocity": 0.84251968503937,
          "duration": 0.28571449999999743
        },
        {
          "name": "F#2",
          "midi": 42,
          "time": 106.57150849999897,
          "velocity": 0.6771653543307087,
          "duration": 0.04761908333334475
        },
        {
          "name": "A5",
          "midi": 81,
          "time": 106.71436574999898,
          "velocity": 0.7637795275590551,
          "duration": 0.26190495833331795
        },
        {
          "name": "C5",
          "midi": 72,
          "time": 106.71436574999898,
          "velocity": 0.9133858267716536,
          "duration": 0.24761923333332447
        },
        {
          "name": "A4",
          "midi": 69,
          "time": 106.71436574999898,
          "velocity": 0.7086614173228346,
          "duration": 0.26190495833331795
        },
        {
          "name": "B1",
          "midi": 35,
          "time": 106.85722299999897,
          "velocity": 0.7874015748031497,
          "duration": 0.26190495833333216
        },
        {
          "name": "G3",
          "midi": 55,
          "time": 106.85722299999897,
          "velocity": 0.8110236220472441,
          "duration": 0.40476220833332377
        },
        {
          "name": "B3",
          "midi": 59,
          "time": 106.85722299999897,
          "velocity": 0.8976377952755905,
          "duration": 0.40476220833332377
        },
        {
          "name": "D4",
          "midi": 62,
          "time": 106.85722299999897,
          "velocity": 0.6141732283464567,
          "duration": 0.11904770833332634
        },
        {
          "name": "D2",
          "midi": 38,
          "time": 106.85722299999897,
          "velocity": 0.7716535433070866,
          "duration": 0.0714286249999958
        },
        {
          "name": "F#2",
          "midi": 42,
          "time": 106.85722299999897,
          "velocity": 0.6771653543307087,
          "duration": 0.047619083333330536
        },
        {
          "name": "D2",
          "midi": 38,
          "time": 107.14293749999896,
          "velocity": 0.7874015748031497,
          "duration": 0.27142877499998974
        },
        {
          "name": "B3",
          "midi": 59,
          "time": 107.14293749999896,
          "velocity": 0.7637795275590551,
          "duration": 0.16666679166665688
        },
        {
          "name": "G3",
          "midi": 55,
          "time": 107.14293749999896,
          "velocity": 0.6299212598425197,
          "duration": 0.19047633333332215
        },
        {
          "name": "G5",
          "midi": 79,
          "time": 107.14293749999896,
          "velocity": 0.6692913385826772,
          "duration": 0.16666679166665688
        },
        {
          "name": "G4",
          "midi": 67,
          "time": 107.14293749999896,
          "velocity": 0.6141732283464567,
          "duration": 0.1428572499999916
        },
        {
          "name": "B4",
          "midi": 71,
          "time": 107.14293749999896,
          "velocity": 0.6929133858267716,
          "duration": 0.23809541666665268
        },
        {
          "name": "C2",
          "midi": 36,
          "time": 107.14293749999896,
          "velocity": 0.84251968503937,
          "duration": 0.0714286249999958
        },
        {
          "name": "F#2",
          "midi": 42,
          "time": 107.14293749999896,
          "velocity": 0.6771653543307087,
          "duration": 0.047619083333330536
        },
        {
          "name": "E2",
          "midi": 40,
          "time": 107.42865199999895,
          "velocity": 0.7874015748031497,
          "duration": 0.690476708333307
        },
        {
          "name": "E3",
          "midi": 52,
          "time": 107.42865199999895,
          "velocity": 0.7401574803149606,
          "duration": 0.11904770833332634
        },
        {
          "name": "B2",
          "midi": 47,
          "time": 107.42865199999895,
          "velocity": 0.7086614173228346,
          "duration": 0.11904770833332634
        },
        {
          "name": "G3",
          "midi": 55,
          "time": 107.42865199999895,
          "velocity": 0.7952755905511811,
          "duration": 0.11904770833332634
        },
        {
          "name": "B3",
          "midi": 59,
          "time": 107.42865199999895,
          "velocity": 0.8031496062992126,
          "duration": 0.11904770833332634
        },
        {
          "name": "E4",
          "midi": 64,
          "time": 107.42865199999895,
          "velocity": 0.7795275590551181,
          "duration": 0.11904770833332634
        },
        {
          "name": "E5",
          "midi": 76,
          "time": 107.42865199999895,
          "velocity": 0.7401574803149606,
          "duration": 1.8904776083332706
        },
        {
          "name": "E4",
          "midi": 64,
          "time": 107.42865199999895,
          "velocity": 0.905511811023622,
          "duration": 0.5476194583333154
        },
        {
          "name": "G4",
          "midi": 67,
          "time": 107.42865199999895,
          "velocity": 0.8582677165354331,
          "duration": 1.8190489833332748
        },
        {
          "name": "C2",
          "midi": 36,
          "time": 107.42865199999895,
          "velocity": 0.84251968503937,
          "duration": 0.5714289999999806
        },
        {
          "name": "F#2",
          "midi": 42,
          "time": 107.42865199999895,
          "velocity": 0.6771653543307087,
          "duration": 0.047619083333330536
        },
        {
          "name": "A3",
          "midi": 57,
          "time": 107.42865199999895,
          "velocity": 0.5669291338582677,
          "duration": 2.2619064583332715
        },
        {
          "name": "F#2",
          "midi": 42,
          "time": 107.71436649999895,
          "velocity": 0.6771653543307087,
          "duration": 0.047619083333330536
        },
        {
          "name": "E4",
          "midi": 64,
          "time": 107.85722374999894,
          "velocity": 0.7952755905511811,
          "duration": 0.26190495833331795
        },
        {
          "name": "B3",
          "midi": 59,
          "time": 107.85722374999894,
          "velocity": 0.7086614173228346,
          "duration": 0.11904770833332634
        },
        {
          "name": "G3",
          "midi": 55,
          "time": 107.85722374999894,
          "velocity": 0.5905511811023622,
          "duration": 0.11904770833332634
        },
        {
          "name": "E2",
          "midi": 40,
          "time": 108.00008099999893,
          "velocity": 0.6299212598425197,
          "duration": 0.27142877499998974
        },
        {
          "name": "B2",
          "midi": 47,
          "time": 108.00008099999893,
          "velocity": 0.7086614173228346,
          "duration": 0.11904770833332634
        },
        {
          "name": "E3",
          "midi": 52,
          "time": 108.00008099999893,
          "velocity": 0.8661417322834646,
          "duration": 0.11904770833332634
        },
        {
          "name": "G3",
          "midi": 55,
          "time": 108.00008099999893,
          "velocity": 0.8740157480314961,
          "duration": 0.11904770833332634
        },
        {
          "name": "B3",
          "midi": 59,
          "time": 108.00008099999893,
          "velocity": 0.8661417322834646,
          "duration": 0.11904770833332634
        },
        {
          "name": "E4",
          "midi": 64,
          "time": 108.00008099999893,
          "velocity": 0.7874015748031497,
          "duration": 0.40476220833332377
        },
        {
          "name": "D2",
          "midi": 38,
          "time": 108.00008099999893,
          "velocity": 0.7716535433070866,
          "duration": 0.047619083333330536
        },
        {
          "name": "F#2",
          "midi": 42,
          "time": 108.00008099999893,
          "velocity": 0.6771653543307087,
          "duration": 0.0714286249999958
        },
        {
          "name": "B1",
          "midi": 35,
          "time": 108.28579549999891,
          "velocity": 0.7874015748031497,
          "duration": 0.28571449999999743
        },
        {
          "name": "G3",
          "midi": 55,
          "time": 108.28579549999891,
          "velocity": 0.9291338582677166,
          "duration": 0.11904770833334055
        },
        {
          "name": "B3",
          "midi": 59,
          "time": 108.28579549999891,
          "velocity": 0.9606299212598425,
          "duration": 0.11904770833334055
        },
        {
          "name": "E4",
          "midi": 64,
          "time": 108.28579549999891,
          "velocity": 0.8818897637795275,
          "duration": 0.9761912083333044
        },
        {
          "name": "B4",
          "midi": 71,
          "time": 108.28579549999891,
          "velocity": 0.7322834645669292,
          "duration": 0.2380954166666669
        },
        {
          "name": "B3",
          "midi": 59,
          "time": 108.28579549999891,
          "velocity": 0.7322834645669292,
          "duration": 0.2380954166666669
        },
        {
          "name": "G3",
          "midi": 55,
          "time": 108.28579549999891,
          "velocity": 0.7401574803149606,
          "duration": 0.21428587500000162
        },
        {
          "name": "C2",
          "midi": 36,
          "time": 108.28579549999891,
          "velocity": 0.84251968503937,
          "duration": 0.05714290000000233
        },
        {
          "name": "D2",
          "midi": 38,
          "time": 108.28579549999891,
          "velocity": 0.7716535433070866,
          "duration": 0.05714290000000233
        },
        {
          "name": "F#2",
          "midi": 42,
          "time": 108.28579549999891,
          "velocity": 0.6771653543307087,
          "duration": 0.05714290000000233
        },
        {
          "name": "E2",
          "midi": 40,
          "time": 108.57150999999891,
          "velocity": 0.7874015748031497,
          "duration": 0.05714290000000233
        },
        {
          "name": "B3",
          "midi": 59,
          "time": 108.57150999999891,
          "velocity": 0.6929133858267716,
          "duration": 0.4619051083333261
        },
        {
          "name": "B4",
          "midi": 71,
          "time": 108.57150999999891,
          "velocity": 0.7795275590551181,
          "duration": 0.4761908333333196
        },
        {
          "name": "G3",
          "midi": 55,
          "time": 108.57150999999891,
          "velocity": 0.7322834645669292,
          "duration": 0.43809556666666083
        },
        {
          "name": "C2",
          "midi": 36,
          "time": 108.57150999999891,
          "velocity": 0.84251968503937,
          "duration": 0.0714286249999958
        },
        {
          "name": "F#2",
          "midi": 42,
          "time": 108.57150999999891,
          "velocity": 0.6771653543307087,
          "duration": 0.05714290000000233
        },
        {
          "name": "E2",
          "midi": 40,
          "time": 108.8572244999989,
          "velocity": 0.7874015748031497,
          "duration": 0.11904770833332634
        },
        {
          "name": "E2",
          "midi": 40,
          "time": 108.8572244999989,
          "velocity": 0.8110236220472441,
          "duration": 0.5571432749999872
        },
        {
          "name": "B2",
          "midi": 47,
          "time": 108.8572244999989,
          "velocity": 0.8740157480314961,
          "duration": 0.11904770833332634
        },
        {
          "name": "E3",
          "midi": 52,
          "time": 108.8572244999989,
          "velocity": 0.7244094488188977,
          "duration": 0.11904770833332634
        },
        {
          "name": "C2",
          "midi": 36,
          "time": 108.8572244999989,
          "velocity": 0.84251968503937,
          "duration": 0.2857144999999832
        },
        {
          "name": "F#2",
          "midi": 42,
          "time": 108.8572244999989,
          "velocity": 0.6771653543307087,
          "duration": 0.047619083333330536
        },
        {
          "name": "E3",
          "midi": 52,
          "time": 109.14293899999889,
          "velocity": 0.8346456692913385,
          "duration": 0.11904770833332634
        },
        {
          "name": "G3",
          "midi": 55,
          "time": 109.14293899999889,
          "velocity": 0.8818897637795275,
          "duration": 0.11904770833332634
        },
        {
          "name": "B3",
          "midi": 59,
          "time": 109.14293899999889,
          "velocity": 0.9291338582677166,
          "duration": 0.11904770833332634
        },
        {
          "name": "E4",
          "midi": 64,
          "time": 109.14293899999889,
          "velocity": 0.9291338582677166,
          "duration": 0.12857152499999813
        },
        {
          "name": "B3",
          "midi": 59,
          "time": 109.14293899999889,
          "velocity": 0.8267716535433071,
          "duration": 0.24761923333333868
        },
        {
          "name": "G3",
          "midi": 55,
          "time": 109.14293899999889,
          "velocity": 0.8188976377952756,
          "duration": 0.21428587500000162
        },
        {
          "name": "B4",
          "midi": 71,
          "time": 109.14293899999889,
          "velocity": 0.7322834645669292,
          "duration": 0.28571449999999743
        },
        {
          "name": "D2",
          "midi": 38,
          "time": 109.14293899999889,
          "velocity": 0.7716535433070866,
          "duration": 0.0714286249999958
        },
        {
          "name": "F#2",
          "midi": 42,
          "time": 109.14293899999889,
          "velocity": 0.6771653543307087,
          "duration": 0.047619083333330536
        },
        {
          "name": "B1",
          "midi": 35,
          "time": 109.42865349999889,
          "velocity": 0.7874015748031497,
          "duration": 0.27142877500000395
        },
        {
          "name": "D#2",
          "midi": 39,
          "time": 109.42865349999889,
          "velocity": 0.3700787401574803,
          "duration": 0.11904770833332634
        },
        {
          "name": "B3",
          "midi": 59,
          "time": 109.42865349999889,
          "velocity": 0.7007874015748031,
          "duration": 0.11904770833332634
        },
        {
          "name": "E4",
          "midi": 64,
          "time": 109.42865349999889,
          "velocity": 0.5826771653543307,
          "duration": 0.11904770833332634
        },
        {
          "name": "A4",
          "midi": 69,
          "time": 109.42865349999889,
          "velocity": 0.7716535433070866,
          "duration": 0.5333337333333219
        },
        {
          "name": "F#3",
          "midi": 54,
          "time": 109.42865349999889,
          "velocity": 0.6929133858267716,
          "duration": 0.5095241916666566
        },
        {
          "name": "A3",
          "midi": 57,
          "time": 109.42865349999889,
          "velocity": 0.7086614173228346,
          "duration": 0.5333337333333219
        },
        {
          "name": "C2",
          "midi": 36,
          "time": 109.42865349999889,
          "velocity": 0.84251968503937,
          "duration": 0.0714286249999958
        },
        {
          "name": "F#2",
          "midi": 42,
          "time": 109.42865349999889,
          "velocity": 0.6771653543307087,
          "duration": 0.047619083333330536
        },
        {
          "name": "E2",
          "midi": 40,
          "time": 109.71436799999888,
          "velocity": 0.7874015748031497,
          "duration": 0.8666673166666499
        },
        {
          "name": "B3",
          "midi": 59,
          "time": 109.71436799999888,
          "velocity": 0.7401574803149606,
          "duration": 0.11904770833332634
        },
        {
          "name": "E4",
          "midi": 64,
          "time": 109.71436799999888,
          "velocity": 0.7244094488188977,
          "duration": 0.11904770833332634
        },
        {
          "name": "G3",
          "midi": 55,
          "time": 109.71436799999888,
          "velocity": 0.6850393700787402,
          "duration": 0.11904770833332634
        },
        {
          "name": "C2",
          "midi": 36,
          "time": 109.71436799999888,
          "velocity": 0.84251968503937,
          "duration": 0.5714289999999806
        },
        {
          "name": "F#2",
          "midi": 42,
          "time": 109.71436799999888,
          "velocity": 0.6771653543307087,
          "duration": 0.047619083333330536
        },
        {
          "name": "B3",
          "midi": 59,
          "time": 110.00008249999888,
          "velocity": 0.6062992125984252,
          "duration": 0.11904770833332634
        },
        {
          "name": "E4",
          "midi": 64,
          "time": 110.00008249999888,
          "velocity": 0.5826771653543307,
          "duration": 0.11904770833332634
        },
        {
          "name": "B3",
          "midi": 59,
          "time": 110.00008249999888,
          "velocity": 0.7795275590551181,
          "duration": 0.26190495833331795
        },
        {
          "name": "B4",
          "midi": 71,
          "time": 110.00008249999888,
          "velocity": 0.7086614173228346,
          "duration": 0.6666671666666559
        },
        {
          "name": "G3",
          "midi": 55,
          "time": 110.00008249999888,
          "velocity": 0.7559055118110236,
          "duration": 1.9047633333333067
        },
        {
          "name": "F#2",
          "midi": 42,
          "time": 110.00008249999888,
          "velocity": 0.6771653543307087,
          "duration": 0.047619083333330536
        },
        {
          "name": "E4",
          "midi": 64,
          "time": 110.14293974999887,
          "velocity": 0.7401574803149606,
          "duration": 0.11904770833332634
        },
        {
          "name": "B3",
          "midi": 59,
          "time": 110.14293974999887,
          "velocity": 0.5826771653543307,
          "duration": 0.26190495833331795
        },
        {
          "name": "B3",
          "midi": 59,
          "time": 110.28579699999887,
          "velocity": 0.7086614173228346,
          "duration": 0.404762208333338
        },
        {
          "name": "E4",
          "midi": 64,
          "time": 110.28579699999887,
          "velocity": 0.7401574803149606,
          "duration": 0.11904770833332634
        },
        {
          "name": "D2",
          "midi": 38,
          "time": 110.28579699999887,
          "velocity": 0.7716535433070866,
          "duration": 0.047619083333330536
        },
        {
          "name": "F#2",
          "midi": 42,
          "time": 110.28579699999887,
          "velocity": 0.6771653543307087,
          "duration": 0.0714286249999958
        },
        {
          "name": "B1",
          "midi": 35,
          "time": 110.57151149999886,
          "velocity": 0.7874015748031497,
          "duration": 0.27142877500001816
        },
        {
          "name": "E3",
          "midi": 52,
          "time": 110.57151149999886,
          "velocity": 0.6141732283464567,
          "duration": 0.11904770833334055
        },
        {
          "name": "B3",
          "midi": 59,
          "time": 110.57151149999886,
          "velocity": 0.7401574803149606,
          "duration": 0.9761912083333328
        },
        {
          "name": "E4",
          "midi": 64,
          "time": 110.57151149999886,
          "velocity": 0.7559055118110236,
          "duration": 0.11904770833334055
        },
        {
          "name": "G5",
          "midi": 79,
          "time": 110.57151149999886,
          "velocity": 0.7401574803149606,
          "duration": 0.12857152500001234
        },
        {
          "name": "B4",
          "midi": 71,
          "time": 110.57151149999886,
          "velocity": 0.9133858267716536,
          "duration": 0.6428576250000049
        },
        {
          "name": "G4",
          "midi": 67,
          "time": 110.57151149999886,
          "velocity": 0.8267716535433071,
          "duration": 0.09523816666667528
        },
        {
          "name": "C2",
          "midi": 36,
          "time": 110.57151149999886,
          "velocity": 0.84251968503937,
          "duration": 0.05714290000000233
        },
        {
          "name": "D2",
          "midi": 38,
          "time": 110.57151149999886,
          "velocity": 0.7716535433070866,
          "duration": 0.05714290000000233
        },
        {
          "name": "F#2",
          "midi": 42,
          "time": 110.57151149999886,
          "velocity": 0.6771653543307087,
          "duration": 0.05714290000000233
        },
        {
          "name": "E2",
          "midi": 40,
          "time": 110.85722599999887,
          "velocity": 0.7874015748031497,
          "duration": 0.03333335833333706
        },
        {
          "name": "B4",
          "midi": 71,
          "time": 110.85722599999887,
          "velocity": 0.9133858267716536,
          "duration": 0.9142863999999946
        },
        {
          "name": "G5",
          "midi": 79,
          "time": 110.85722599999887,
          "velocity": 0.7795275590551181,
          "duration": 0.34285739999999976
        },
        {
          "name": "G4",
          "midi": 67,
          "time": 110.85722599999887,
          "velocity": 0.8582677165354331,
          "duration": 0.3190478583333345
        },
        {
          "name": "C2",
          "midi": 36,
          "time": 110.85722599999887,
          "velocity": 0.84251968503937,
          "duration": 0.0714286249999958
        },
        {
          "name": "F#2",
          "midi": 42,
          "time": 110.85722599999887,
          "velocity": 0.6771653543307087,
          "duration": 0.05714290000000233
        },
        {
          "name": "E2",
          "midi": 40,
          "time": 111.14294049999887,
          "velocity": 0.7874015748031497,
          "duration": 0.295238316666655
        },
        {
          "name": "E3",
          "midi": 52,
          "time": 111.14294049999887,
          "velocity": 0.6614173228346457,
          "duration": 0.11904770833332634
        },
        {
          "name": "B2",
          "midi": 47,
          "time": 111.14294049999887,
          "velocity": 0.6299212598425197,
          "duration": 0.11904770833332634
        },
        {
          "name": "C2",
          "midi": 36,
          "time": 111.14294049999887,
          "velocity": 0.84251968503937,
          "duration": 0.2857144999999832
        },
        {
          "name": "F#2",
          "midi": 42,
          "time": 111.14294049999887,
          "velocity": 0.6771653543307087,
          "duration": 0.047619083333330536
        },
        {
          "name": "C5",
          "midi": 72,
          "time": 111.28579774999886,
          "velocity": 0.9133858267716536,
          "duration": 0.27142877500000395
        },
        {
          "name": "A5",
          "midi": 81,
          "time": 111.28579774999886,
          "velocity": 0.8267716535433071,
          "duration": 0.27142877500000395
        },
        {
          "name": "A4",
          "midi": 69,
          "time": 111.28579774999886,
          "velocity": 0.7559055118110236,
          "duration": 0.26190495833333216
        },
        {
          "name": "G5",
          "midi": 79,
          "time": 111.28579774999886,
          "velocity": 0.7401574803149606,
          "duration": 0.0714286249999958
        },
        {
          "name": "B1",
          "midi": 35,
          "time": 111.42865499999886,
          "velocity": 0.7874015748031497,
          "duration": 0.2380954166666811
        },
        {
          "name": "B3",
          "midi": 59,
          "time": 111.42865499999886,
          "velocity": 0.8110236220472441,
          "duration": 0.404762208333338
        },
        {
          "name": "E4",
          "midi": 64,
          "time": 111.42865499999886,
          "velocity": 0.8110236220472441,
          "duration": 0.11904770833334055
        },
        {
          "name": "D2",
          "midi": 38,
          "time": 111.42865499999886,
          "velocity": 0.7716535433070866,
          "duration": 0.07142862500001002
        },
        {
          "name": "F#2",
          "midi": 42,
          "time": 111.42865499999886,
          "velocity": 0.6771653543307087,
          "duration": 0.04761908333334475
        },
        {
          "name": "D2",
          "midi": 38,
          "time": 111.71436949999887,
          "velocity": 0.7874015748031497,
          "duration": 0.2857144999999832
        },
        {
          "name": "B3",
          "midi": 59,
          "time": 111.71436949999887,
          "velocity": 0.7952755905511811,
          "duration": 0.1428572499999916
        },
        {
          "name": "B4",
          "midi": 71,
          "time": 111.71436949999887,
          "velocity": 0.7401574803149606,
          "duration": 0.2142858749999874
        },
        {
          "name": "D5",
          "midi": 74,
          "time": 111.71436949999887,
          "velocity": 0.84251968503937,
          "duration": 0.23809541666665268
        },
        {
          "name": "B5",
          "midi": 83,
          "time": 111.71436949999887,
          "velocity": 0.8582677165354331,
          "duration": 0.24761923333332447
        },
        {
          "name": "C2",
          "midi": 36,
          "time": 111.71436949999887,
          "velocity": 0.84251968503937,
          "duration": 0.0714286249999958
        },
        {
          "name": "F#2",
          "midi": 42,
          "time": 111.71436949999887,
          "velocity": 0.6771653543307087,
          "duration": 0.047619083333330536
        },
        {
          "name": "C2",
          "midi": 36,
          "time": 112.00008399999885,
          "velocity": 0.7874015748031497,
          "duration": 0.5714289999999806
        },
        {
          "name": "C3",
          "midi": 48,
          "time": 112.00008399999885,
          "velocity": 0.6614173228346457,
          "duration": 0.11904770833332634
        },
        {
          "name": "G3",
          "midi": 55,
          "time": 112.00008399999885,
          "velocity": 0.905511811023622,
          "duration": 0.11904770833332634
        },
        {
          "name": "C4",
          "midi": 60,
          "time": 112.00008399999885,
          "velocity": 0.9133858267716536,
          "duration": 0.11904770833332634
        },
        {
          "name": "E4",
          "midi": 64,
          "time": 112.00008399999885,
          "velocity": 0.8582677165354331,
          "duration": 0.11904770833332634
        },
        {
          "name": "B5",
          "midi": 83,
          "time": 112.00008399999885,
          "velocity": 0.8346456692913385,
          "duration": 0.7380957916666517
        },
        {
          "name": "B4",
          "midi": 71,
          "time": 112.00008399999885,
          "velocity": 0.905511811023622,
          "duration": 0.7238100666666583
        },
        {
          "name": "D5",
          "midi": 74,
          "time": 112.00008399999885,
          "velocity": 0.889763779527559,
          "duration": 0.6523814416666482
        },
        {
          "name": "C2",
          "midi": 36,
          "time": 112.00008399999885,
          "velocity": 0.84251968503937,
          "duration": 0.8809530416666433
        },
        {
          "name": "F#2",
          "midi": 42,
          "time": 112.00008399999885,
          "velocity": 0.6771653543307087,
          "duration": 0.047619083333330536
        },
        {
          "name": "A3",
          "midi": 57,
          "time": 112.00008399999885,
          "velocity": 0.5905511811023622,
          "duration": 3.2857167499999065
        },
        {
          "name": "C4",
          "midi": 60,
          "time": 112.28579849999885,
          "velocity": 0.6299212598425197,
          "duration": 0.11904770833332634
        },
        {
          "name": "E4",
          "midi": 64,
          "time": 112.28579849999885,
          "velocity": 0.6456692913385826,
          "duration": 0.11904770833332634
        },
        {
          "name": "F#2",
          "midi": 42,
          "time": 112.28579849999885,
          "velocity": 0.6771653543307087,
          "duration": 0.047619083333330536
        },
        {
          "name": "E4",
          "midi": 64,
          "time": 112.42865574999884,
          "velocity": 0.8582677165354331,
          "duration": 0.11904770833332634
        },
        {
          "name": "G3",
          "midi": 55,
          "time": 112.57151299999883,
          "velocity": 0.6299212598425197,
          "duration": 0.11904770833334055
        },
        {
          "name": "C4",
          "midi": 60,
          "time": 112.57151299999883,
          "velocity": 0.8267716535433071,
          "duration": 0.11904770833334055
        },
        {
          "name": "E4",
          "midi": 64,
          "time": 112.57151299999883,
          "velocity": 0.8110236220472441,
          "duration": 0.11904770833334055
        },
        {
          "name": "D2",
          "midi": 38,
          "time": 112.57151299999883,
          "velocity": 0.7716535433070866,
          "duration": 0.047619083333330536
        },
        {
          "name": "F#2",
          "midi": 42,
          "time": 112.57151299999883,
          "velocity": 0.6771653543307087,
          "duration": 0.0714286249999958
        },
        {
          "name": "G1",
          "midi": 31,
          "time": 112.85722749999883,
          "velocity": 0.7874015748031497,
          "duration": 0.0714286249999958
        },
        {
          "name": "C3",
          "midi": 48,
          "time": 112.85722749999883,
          "velocity": 0.7165354330708661,
          "duration": 0.11904770833332634
        },
        {
          "name": "G3",
          "midi": 55,
          "time": 112.85722749999883,
          "velocity": 0.8582677165354331,
          "duration": 0.11904770833332634
        },
        {
          "name": "C4",
          "midi": 60,
          "time": 112.85722749999883,
          "velocity": 0.8740157480314961,
          "duration": 0.11904770833332634
        },
        {
          "name": "E5",
          "midi": 76,
          "time": 112.85722749999883,
          "velocity": 0.8110236220472441,
          "duration": 1.619048833333295
        },
        {
          "name": "C5",
          "midi": 72,
          "time": 112.85722749999883,
          "velocity": 0.7637795275590551,
          "duration": 0.2238096916666592
        },
        {
          "name": "C6",
          "midi": 84,
          "time": 112.85722749999883,
          "velocity": 0.889763779527559,
          "duration": 1.5571440249999569
        },
        {
          "name": "G3",
          "midi": 55,
          "time": 112.85722749999883,
          "velocity": 0.7401574803149606,
          "duration": 0.24761923333332447
        },
        {
          "name": "C5",
          "midi": 72,
          "time": 112.85722749999883,
          "velocity": 0.7952755905511811,
          "duration": 0.761905333333317
        },
        {
          "name": "C4",
          "midi": 60,
          "time": 112.85722749999883,
          "velocity": 0.7401574803149606,
          "duration": 0.24761923333332447
        },
        {
          "name": "C2",
          "midi": 36,
          "time": 112.85722749999883,
          "velocity": 0.84251968503937,
          "duration": 0.05714290000000233
        },
        {
          "name": "D2",
          "midi": 38,
          "time": 112.85722749999883,
          "velocity": 0.7716535433070866,
          "duration": 0.05714290000000233
        },
        {
          "name": "F#2",
          "midi": 42,
          "time": 112.85722749999883,
          "velocity": 0.6771653543307087,
          "duration": 0.05714290000000233
        },
        {
          "name": "C2",
          "midi": 36,
          "time": 113.14294199999883,
          "velocity": 0.7874015748031497,
          "duration": 0.03333335833333706
        },
        {
          "name": "C5",
          "midi": 72,
          "time": 113.14294199999883,
          "velocity": 0.8188976377952756,
          "duration": 0.8809530416666291
        },
        {
          "name": "G3",
          "midi": 55,
          "time": 113.14294199999883,
          "velocity": 0.7322834645669292,
          "duration": 0.40476220833332377
        },
        {
          "name": "C4",
          "midi": 60,
          "time": 113.14294199999883,
          "velocity": 0.7637795275590551,
          "duration": 0.4619051083333261
        },
        {
          "name": "C2",
          "midi": 36,
          "time": 113.14294199999883,
          "velocity": 0.84251968503937,
          "duration": 0.0714286249999958
        },
        {
          "name": "F#2",
          "midi": 42,
          "time": 113.14294199999883,
          "velocity": 0.6771653543307087,
          "duration": 0.05714290000000233
        },
        {
          "name": "C2",
          "midi": 36,
          "time": 113.42865649999882,
          "velocity": 0.7874015748031497,
          "duration": 0.2857144999999832
        },
        {
          "name": "C3",
          "midi": 48,
          "time": 113.42865649999882,
          "velocity": 0.6692913385826772,
          "duration": 0.11904770833332634
        },
        {
          "name": "G3",
          "midi": 55,
          "time": 113.42865649999882,
          "velocity": 0.7559055118110236,
          "duration": 0.17619060833332867
        },
        {
          "name": "C2",
          "midi": 36,
          "time": 113.42865649999882,
          "velocity": 0.84251968503937,
          "duration": 0.5714289999999664
        },
        {
          "name": "F#2",
          "midi": 42,
          "time": 113.42865649999882,
          "velocity": 0.6771653543307087,
          "duration": 0.047619083333330536
        },
        {
          "name": "E4",
          "midi": 64,
          "time": 113.7143709999988,
          "velocity": 0.7322834645669292,
          "duration": 0.11904770833332634
        },
        {
          "name": "G3",
          "midi": 55,
          "time": 113.7143709999988,
          "velocity": 0.7795275590551181,
          "duration": 0.11904770833332634
        },
        {
          "name": "C4",
          "midi": 60,
          "time": 113.7143709999988,
          "velocity": 0.8346456692913385,
          "duration": 0.11904770833332634
        },
        {
          "name": "C5",
          "midi": 72,
          "time": 113.7143709999988,
          "velocity": 0.6850393700787402,
          "duration": 0.761905333333317
        },
        {
          "name": "C4",
          "midi": 60,
          "time": 113.7143709999988,
          "velocity": 0.7086614173228346,
          "duration": 0.23809541666665268
        },
        {
          "name": "G3",
          "midi": 55,
          "time": 113.7143709999988,
          "velocity": 0.7559055118110236,
          "duration": 0.2238096916666592
        },
        {
          "name": "D2",
          "midi": 38,
          "time": 113.7143709999988,
          "velocity": 0.7716535433070866,
          "duration": 0.0714286249999958
        },
        {
          "name": "F#2",
          "midi": 42,
          "time": 113.7143709999988,
          "velocity": 0.6771653543307087,
          "duration": 0.047619083333330536
        },
        {
          "name": "G1",
          "midi": 31,
          "time": 114.00008549999879,
          "velocity": 0.7874015748031497,
          "duration": 0.05714290000000233
        },
        {
          "name": "B3",
          "midi": 59,
          "time": 114.00008549999879,
          "velocity": 0.7165354330708661,
          "duration": 0.5571432750000014
        },
        {
          "name": "G3",
          "midi": 55,
          "time": 114.00008549999879,
          "velocity": 0.6220472440944882,
          "duration": 0.40476220833332377
        },
        {
          "name": "B4",
          "midi": 71,
          "time": 114.00008549999879,
          "velocity": 0.6929133858267716,
          "duration": 0.500000374999999
        },
        {
          "name": "C2",
          "midi": 36,
          "time": 114.00008549999879,
          "velocity": 0.84251968503937,
          "duration": 0.0714286249999958
        },
        {
          "name": "F#2",
          "midi": 42,
          "time": 114.00008549999879,
          "velocity": 0.6771653543307087,
          "duration": 0.047619083333330536
        },
        {
          "name": "C2",
          "midi": 36,
          "time": 114.28579999999879,
          "velocity": 0.7874015748031497,
          "duration": 0.5714289999999806
        },
        {
          "name": "C3",
          "midi": 48,
          "time": 114.28579999999879,
          "velocity": 0.6614173228346457,
          "duration": 0.11904770833332634
        },
        {
          "name": "G3",
          "midi": 55,
          "time": 114.28579999999879,
          "velocity": 0.905511811023622,
          "duration": 0.2380954166666669
        },
        {
          "name": "C4",
          "midi": 60,
          "time": 114.28579999999879,
          "velocity": 0.9133858267716536,
          "duration": 0.11904770833332634
        },
        {
          "name": "E4",
          "midi": 64,
          "time": 114.28579999999879,
          "velocity": 0.8582677165354331,
          "duration": 0.11904770833332634
        },
        {
          "name": "C2",
          "midi": 36,
          "time": 114.28579999999879,
          "velocity": 0.84251968503937,
          "duration": 0.8809530416666433
        },
        {
          "name": "F#2",
          "midi": 42,
          "time": 114.28579999999879,
          "velocity": 0.6771653543307087,
          "duration": 0.047619083333330536
        },
        {
          "name": "C4",
          "midi": 60,
          "time": 114.57151449999878,
          "velocity": 0.6299212598425197,
          "duration": 0.11904770833332634
        },
        {
          "name": "E4",
          "midi": 64,
          "time": 114.57151449999878,
          "velocity": 0.6456692913385826,
          "duration": 0.11904770833332634
        },
        {
          "name": "C5",
          "midi": 72,
          "time": 114.57151449999878,
          "velocity": 0.7086614173228346,
          "duration": 0.6190480833333112
        },
        {
          "name": "C4",
          "midi": 60,
          "time": 114.57151449999878,
          "velocity": 0.7716535433070866,
          "duration": 0.40476220833330956
        },
        {
          "name": "G3",
          "midi": 55,
          "time": 114.57151449999878,
          "velocity": 0.7874015748031497,
          "duration": 0.40476220833330956
        },
        {
          "name": "F#2",
          "midi": 42,
          "time": 114.57151449999878,
          "velocity": 0.6771653543307087,
          "duration": 0.047619083333330536
        },
        {
          "name": "E4",
          "midi": 64,
          "time": 114.71437174999878,
          "velocity": 0.8582677165354331,
          "duration": 0.11904770833332634
        },
        {
          "name": "G3",
          "midi": 55,
          "time": 114.85722899999877,
          "velocity": 0.6299212598425197,
          "duration": 0.40476220833332377
        },
        {
          "name": "C4",
          "midi": 60,
          "time": 114.85722899999877,
          "velocity": 0.8267716535433071,
          "duration": 0.40476220833332377
        },
        {
          "name": "E4",
          "midi": 64,
          "time": 114.85722899999877,
          "velocity": 0.8110236220472441,
          "duration": 0.11904770833332634
        },
        {
          "name": "D2",
          "midi": 38,
          "time": 114.85722899999877,
          "velocity": 0.7716535433070866,
          "duration": 0.047619083333330536
        },
        {
          "name": "F#2",
          "midi": 42,
          "time": 114.85722899999877,
          "velocity": 0.6771653543307087,
          "duration": 0.0714286249999958
        },
        {
          "name": "G1",
          "midi": 31,
          "time": 115.14294349999876,
          "velocity": 0.7874015748031497,
          "duration": 0.05714290000000233
        },
        {
          "name": "C3",
          "midi": 48,
          "time": 115.14294349999876,
          "velocity": 0.7165354330708661,
          "duration": 0.11904770833332634
        },
        {
          "name": "G3",
          "midi": 55,
          "time": 115.14294349999876,
          "velocity": 0.8582677165354331,
          "duration": 0.690476708333307
        },
        {
          "name": "C4",
          "midi": 60,
          "time": 115.14294349999876,
          "velocity": 0.8740157480314961,
          "duration": 0.9761912083333044
        },
        {
          "name": "G5",
          "midi": 79,
          "time": 115.14294349999876,
          "velocity": 0.7795275590551181,
          "duration": 0.0714286249999958
        },
        {
          "name": "C5",
          "midi": 72,
          "time": 115.14294349999876,
          "velocity": 0.84251968503937,
          "duration": 0.2142858749999874
        },
        {
          "name": "G4",
          "midi": 67,
          "time": 115.14294349999876,
          "velocity": 0.7795275590551181,
          "duration": 0.05714290000000233
        },
        {
          "name": "C2",
          "midi": 36,
          "time": 115.14294349999876,
          "velocity": 0.84251968503937,
          "duration": 0.05714290000000233
        },
        {
          "name": "D2",
          "midi": 38,
          "time": 115.14294349999876,
          "velocity": 0.7716535433070866,
          "duration": 0.05714290000000233
        },
        {
          "name": "F#2",
          "midi": 42,
          "time": 115.14294349999876,
          "velocity": 0.6771653543307087,
          "duration": 0.05714290000000233
        },
        {
          "name": "C5",
          "midi": 72,
          "time": 115.28580074999876,
          "velocity": 0.889763779527559,
          "duration": 0.4619051083333261
        },
        {
          "name": "G4",
          "midi": 67,
          "time": 115.28580074999876,
          "velocity": 0.7086614173228346,
          "duration": 0.05714290000000233
        },
        {
          "name": "G5",
          "midi": 79,
          "time": 115.28580074999876,
          "velocity": 0.7637795275590551,
          "duration": 0.0714286249999958
        },
        {
          "name": "C2",
          "midi": 36,
          "time": 115.42865799999875,
          "velocity": 0.7874015748031497,
          "duration": 0.047619083333330536
        },
        {
          "name": "G5",
          "midi": 79,
          "time": 115.42865799999875,
          "velocity": 0.7637795275590551,
          "duration": 0.33333358333332797
        },
        {
          "name": "G4",
          "midi": 67,
          "time": 115.42865799999875,
          "velocity": 0.7559055118110236,
          "duration": 0.3190478583333345
        },
        {
          "name": "C5",
          "midi": 72,
          "time": 115.42865799999875,
          "velocity": 0.889763779527559,
          "duration": 0.6904767083333212
        },
        {
          "name": "C2",
          "midi": 36,
          "time": 115.42865799999875,
          "velocity": 0.84251968503937,
          "duration": 0.0714286249999958
        },
        {
          "name": "F#2",
          "midi": 42,
          "time": 115.42865799999875,
          "velocity": 0.6771653543307087,
          "duration": 0.05714290000000233
        },
        {
          "name": "C2",
          "midi": 36,
          "time": 115.71437249999875,
          "velocity": 0.7874015748031497,
          "duration": 0.28571449999999743
        },
        {
          "name": "C3",
          "midi": 48,
          "time": 115.71437249999875,
          "velocity": 0.6692913385826772,
          "duration": 0.11904770833332634
        },
        {
          "name": "G3",
          "midi": 55,
          "time": 115.71437249999875,
          "velocity": 0.7559055118110236,
          "duration": 0.40476220833332377
        },
        {
          "name": "C2",
          "midi": 36,
          "time": 115.71437249999875,
          "velocity": 0.84251968503937,
          "duration": 0.33333358333332797
        },
        {
          "name": "F#2",
          "midi": 42,
          "time": 115.71437249999875,
          "velocity": 0.6771653543307087,
          "duration": 0.047619083333330536
        },
        {
          "name": "C5",
          "midi": 72,
          "time": 115.85722974999874,
          "velocity": 0.8110236220472441,
          "duration": 0.5571432750000014
        },
        {
          "name": "A4",
          "midi": 69,
          "time": 115.85722974999874,
          "velocity": 0.7795275590551181,
          "duration": 0.24761923333333868
        },
        {
          "name": "A5",
          "midi": 81,
          "time": 115.85722974999874,
          "velocity": 0.7795275590551181,
          "duration": 0.27142877500000395
        },
        {
          "name": "G5",
          "midi": 79,
          "time": 115.85722974999874,
          "velocity": 0.7086614173228346,
          "duration": 0.03333335833333706
        },
        {
          "name": "G1",
          "midi": 31,
          "time": 116.00008699999874,
          "velocity": 0.7874015748031497,
          "duration": 0.2380954166666669
        },
        {
          "name": "E4",
          "midi": 64,
          "time": 116.00008699999874,
          "velocity": 0.7322834645669292,
          "duration": 0.11904770833332634
        },
        {
          "name": "G3",
          "midi": 55,
          "time": 116.00008699999874,
          "velocity": 0.7795275590551181,
          "duration": 0.4761908333333338
        },
        {
          "name": "C4",
          "midi": 60,
          "time": 116.00008699999874,
          "velocity": 0.8346456692913385,
          "duration": 0.4857146500000056
        },
        {
          "name": "D2",
          "midi": 38,
          "time": 116.00008699999874,
          "velocity": 0.7716535433070866,
          "duration": 0.0714286249999958
        },
        {
          "name": "F#2",
          "midi": 42,
          "time": 116.00008699999874,
          "velocity": 0.6771653543307087,
          "duration": 0.047619083333330536
        },
        {
          "name": "C2",
          "midi": 36,
          "time": 116.28580149999874,
          "velocity": 0.7874015748031497,
          "duration": 0.0714286249999958
        },
        {
          "name": "B5",
          "midi": 83,
          "time": 116.28580149999874,
          "velocity": 0.7559055118110236,
          "duration": 0.27142877500000395
        },
        {
          "name": "B4",
          "midi": 71,
          "time": 116.28580149999874,
          "velocity": 0.8818897637795275,
          "duration": 0.21428587500000162
        },
        {
          "name": "D5",
          "midi": 74,
          "time": 116.28580149999874,
          "velocity": 0.8582677165354331,
          "duration": 0.24761923333333868
        },
        {
          "name": "C2",
          "midi": 36,
          "time": 116.28580149999874,
          "velocity": 0.84251968503937,
          "duration": 0.26190495833333216
        },
        {
          "name": "F#2",
          "midi": 42,
          "time": 116.28580149999874,
          "velocity": 0.6771653543307087,
          "duration": 0.047619083333330536
        },
        {
          "name": "D2",
          "midi": 38,
          "time": 116.57151599999874,
          "velocity": 0.7874015748031497,
          "duration": 0.11904770833332634
        },
        {
          "name": "A2",
          "midi": 45,
          "time": 116.57151599999874,
          "velocity": 0.3937007874015748,
          "duration": 0.11904770833332634
        },
        {
          "name": "D2",
          "midi": 38,
          "time": 116.57151599999874,
          "velocity": 0.44881889763779526,
          "duration": 0.6190480833333112
        },
        {
          "name": "F#3",
          "midi": 54,
          "time": 116.57151599999874,
          "velocity": 0.8267716535433071,
          "duration": 0.11904770833332634
        },
        {
          "name": "A3",
          "midi": 57,
          "time": 116.57151599999874,
          "velocity": 0.7244094488188977,
          "duration": 0.11904770833332634
        },
        {
          "name": "D4",
          "midi": 62,
          "time": 116.57151599999874,
          "velocity": 0.48031496062992124,
          "duration": 0.11904770833332634
        },
        {
          "name": "B5",
          "midi": 83,
          "time": 116.57151599999874,
          "velocity": 0.8110236220472441,
          "duration": 0.7000005249999788
        },
        {
          "name": "D5",
          "midi": 74,
          "time": 116.57151599999874,
          "velocity": 0.8582677165354331,
          "duration": 0.6047623583333177
        },
        {
          "name": "B4",
          "midi": 71,
          "time": 116.57151599999874,
          "velocity": 0.8818897637795275,
          "duration": 0.7000005249999788
        },
        {
          "name": "D5",
          "midi": 74,
          "time": 116.57151599999874,
          "velocity": 0.6535433070866141,
          "duration": 0.9761912083333186
        },
        {
          "name": "D4",
          "midi": 62,
          "time": 116.57151599999874,
          "velocity": 0.7952755905511811,
          "duration": 0.40476220833332377
        },
        {
          "name": "A3",
          "midi": 57,
          "time": 116.57151599999874,
          "velocity": 0.7322834645669292,
          "duration": 0.40476220833332377
        },
        {
          "name": "C2",
          "midi": 36,
          "time": 116.57151599999874,
          "velocity": 0.84251968503937,
          "duration": 0.5714289999999806
        },
        {
          "name": "F#2",
          "midi": 42,
          "time": 116.57151599999874,
          "velocity": 0.6771653543307087,
          "duration": 0.047619083333330536
        },
        {
          "name": "A3",
          "midi": 57,
          "time": 116.57151599999874,
          "velocity": 0.5669291338582677,
          "duration": 1.8190489833333174
        },
        {
          "name": "A3",
          "midi": 57,
          "time": 116.85723049999874,
          "velocity": 0.6771653543307087,
          "duration": 2.119049208333294
        },
        {
          "name": "D4",
          "midi": 62,
          "time": 116.85723049999874,
          "velocity": 0.7086614173228346,
          "duration": 0.26190495833331795
        },
        {
          "name": "F#2",
          "midi": 42,
          "time": 116.85723049999874,
          "velocity": 0.6771653543307087,
          "duration": 0.047619083333330536
        },
        {
          "name": "D4",
          "midi": 62,
          "time": 117.00008774999873,
          "velocity": 0.6299212598425197,
          "duration": 0.5476194583333296
        },
        {
          "name": "D3",
          "midi": 50,
          "time": 117.14294499999872,
          "velocity": 0.3937007874015748,
          "duration": 0.11904770833332634
        },
        {
          "name": "D2",
          "midi": 38,
          "time": 117.14294499999872,
          "velocity": 0.7716535433070866,
          "duration": 0.24761923333332447
        },
        {
          "name": "F#2",
          "midi": 42,
          "time": 117.14294499999872,
          "velocity": 0.6771653543307087,
          "duration": 0.0714286249999958
        },
        {
          "name": "A1",
          "midi": 33,
          "time": 117.42865949999872,
          "velocity": 0.7874015748031497,
          "duration": 0.047619083333330536
        },
        {
          "name": "D3",
          "midi": 50,
          "time": 117.42865949999872,
          "velocity": 0.5354330708661418,
          "duration": 0.11904770833334055
        },
        {
          "name": "D4",
          "midi": 62,
          "time": 117.42865949999872,
          "velocity": 0.7401574803149606,
          "duration": 0.9761912083333328
        },
        {
          "name": "A5",
          "midi": 81,
          "time": 117.42865949999872,
          "velocity": 0.7637795275590551,
          "duration": 3.1761928583332946
        },
        {
          "name": "C5",
          "midi": 72,
          "time": 117.42865949999872,
          "velocity": 0.8740157480314961,
          "duration": 3.20000239999996
        },
        {
          "name": "A4",
          "midi": 69,
          "time": 117.42865949999872,
          "velocity": 0.8110236220472441,
          "duration": 3.223811941666625
        },
        {
          "name": "D5",
          "midi": 74,
          "time": 117.42865949999872,
          "velocity": 0.7086614173228346,
          "duration": 3.3190501083333004
        },
        {
          "name": "C2",
          "midi": 36,
          "time": 117.42865949999872,
          "velocity": 0.84251968503937,
          "duration": 0.05714290000000233
        },
        {
          "name": "D2",
          "midi": 38,
          "time": 117.42865949999872,
          "velocity": 0.7716535433070866,
          "duration": 0.05714290000000233
        },
        {
          "name": "F#2",
          "midi": 42,
          "time": 117.42865949999872,
          "velocity": 0.6771653543307087,
          "duration": 0.05714290000000233
        },
        {
          "name": "D2",
          "midi": 38,
          "time": 117.71437399999873,
          "velocity": 0.7874015748031497,
          "duration": 0.05714290000000233
        },
        {
          "name": "C2",
          "midi": 36,
          "time": 117.71437399999873,
          "velocity": 0.84251968503937,
          "duration": 0.0714286249999958
        },
        {
          "name": "F#2",
          "midi": 42,
          "time": 117.71437399999873,
          "velocity": 0.6771653543307087,
          "duration": 0.05714290000000233
        },
        {
          "name": "D2",
          "midi": 38,
          "time": 118.00008849999872,
          "velocity": 0.7874015748031497,
          "duration": 0.35714312499999323
        },
        {
          "name": "D3",
          "midi": 50,
          "time": 118.00008849999872,
          "velocity": 0.6141732283464567,
          "duration": 0.11904770833332634
        },
        {
          "name": "C2",
          "midi": 36,
          "time": 118.00008849999872,
          "velocity": 0.84251968503937,
          "duration": 0.28571449999999743
        },
        {
          "name": "F#2",
          "midi": 42,
          "time": 118.00008849999872,
          "velocity": 0.6771653543307087,
          "duration": 0.047619083333330536
        },
        {
          "name": "D4",
          "midi": 62,
          "time": 118.28580299999872,
          "velocity": 0.7007874015748031,
          "duration": 0.40476220833332377
        },
        {
          "name": "D2",
          "midi": 38,
          "time": 118.28580299999872,
          "velocity": 0.7716535433070866,
          "duration": 0.24761923333332447
        },
        {
          "name": "F#2",
          "midi": 42,
          "time": 118.28580299999872,
          "velocity": 0.6771653543307087,
          "duration": 0.047619083333330536
        },
        {
          "name": "A1",
          "midi": 33,
          "time": 118.57151749999872,
          "velocity": 0.7874015748031497,
          "duration": 0.0714286249999958
        },
        {
          "name": "D4",
          "midi": 62,
          "time": 118.57151749999872,
          "velocity": 0.48031496062992124,
          "duration": 0.40476220833330956
        },
        {
          "name": "C2",
          "midi": 36,
          "time": 118.57151749999872,
          "velocity": 0.84251968503937,
          "duration": 0.0714286249999958
        },
        {
          "name": "F#2",
          "midi": 42,
          "time": 118.57151749999872,
          "velocity": 0.6771653543307087,
          "duration": 0.047619083333330536
        },
        {
          "name": "D2",
          "midi": 38,
          "time": 118.8572319999987,
          "velocity": 0.7874015748031497,
          "duration": 0.11904770833332634
        },
        {
          "name": "A2",
          "midi": 45,
          "time": 118.8572319999987,
          "velocity": 0.3937007874015748,
          "duration": 0.11904770833332634
        },
        {
          "name": "D2",
          "midi": 38,
          "time": 118.8572319999987,
          "velocity": 0.44881889763779526,
          "duration": 0.6190480833333112
        },
        {
          "name": "F#3",
          "midi": 54,
          "time": 118.8572319999987,
          "velocity": 0.8267716535433071,
          "duration": 0.11904770833332634
        },
        {
          "name": "A3",
          "midi": 57,
          "time": 118.8572319999987,
          "velocity": 0.7244094488188977,
          "duration": 0.40476220833332377
        },
        {
          "name": "D4",
          "midi": 62,
          "time": 118.8572319999987,
          "velocity": 0.48031496062992124,
          "duration": 0.40476220833332377
        },
        {
          "name": "C2",
          "midi": 36,
          "time": 118.8572319999987,
          "velocity": 0.84251968503937,
          "duration": 0.5714289999999806
        },
        {
          "name": "F#2",
          "midi": 42,
          "time": 118.8572319999987,
          "velocity": 0.6771653543307087,
          "duration": 0.047619083333330536
        },
        {
          "name": "A3",
          "midi": 57,
          "time": 119.1429464999987,
          "velocity": 0.6771653543307087,
          "duration": 1.9761919583333025
        },
        {
          "name": "D4",
          "midi": 62,
          "time": 119.1429464999987,
          "velocity": 0.7086614173228346,
          "duration": 0.26190495833331795
        },
        {
          "name": "F#2",
          "midi": 42,
          "time": 119.1429464999987,
          "velocity": 0.6771653543307087,
          "duration": 0.047619083333330536
        },
        {
          "name": "D4",
          "midi": 62,
          "time": 119.28580374999869,
          "velocity": 0.6299212598425197,
          "duration": 0.5476194583333296
        },
        {
          "name": "D3",
          "midi": 50,
          "time": 119.42866099999868,
          "velocity": 0.3937007874015748,
          "duration": 0.11904770833332634
        },
        {
          "name": "D2",
          "midi": 38,
          "time": 119.42866099999868,
          "velocity": 0.7716535433070866,
          "duration": 0.28571449999999743
        },
        {
          "name": "F#2",
          "midi": 42,
          "time": 119.42866099999868,
          "velocity": 0.6771653543307087,
          "duration": 0.0714286249999958
        },
        {
          "name": "A1",
          "midi": 33,
          "time": 119.71437549999868,
          "velocity": 0.7874015748031497,
          "duration": 0.047619083333330536
        },
        {
          "name": "D3",
          "midi": 50,
          "time": 119.71437549999868,
          "velocity": 0.5354330708661418,
          "duration": 0.11904770833334055
        },
        {
          "name": "D4",
          "midi": 62,
          "time": 119.71437549999868,
          "velocity": 0.7401574803149606,
          "duration": 0.9761912083333328
        },
        {
          "name": "C2",
          "midi": 36,
          "time": 119.71437549999868,
          "velocity": 0.84251968503937,
          "duration": 0.05714290000000233
        },
        {
          "name": "D2",
          "midi": 38,
          "time": 119.71437549999868,
          "velocity": 0.7716535433070866,
          "duration": 0.05714290000000233
        },
        {
          "name": "F#2",
          "midi": 42,
          "time": 119.71437549999868,
          "velocity": 0.6771653543307087,
          "duration": 0.05714290000000233
        },
        {
          "name": "D2",
          "midi": 38,
          "time": 120.00008999999869,
          "velocity": 0.7874015748031497,
          "duration": 0.03333335833333706
        },
        {
          "name": "C2",
          "midi": 36,
          "time": 120.00008999999869,
          "velocity": 0.84251968503937,
          "duration": 0.0714286249999958
        },
        {
          "name": "F#2",
          "midi": 42,
          "time": 120.00008999999869,
          "velocity": 0.6771653543307087,
          "duration": 0.05714290000000233
        },
        {
          "name": "D2",
          "midi": 38,
          "time": 120.28580449999869,
          "velocity": 0.7874015748031497,
          "duration": 0.27142877499998974
        },
        {
          "name": "D3",
          "midi": 50,
          "time": 120.28580449999869,
          "velocity": 0.6141732283464567,
          "duration": 0.11904770833332634
        },
        {
          "name": "C2",
          "midi": 36,
          "time": 120.28580449999869,
          "velocity": 0.84251968503937,
          "duration": 0.2857144999999832
        },
        {
          "name": "F#2",
          "midi": 42,
          "time": 120.28580449999869,
          "velocity": 0.6771653543307087,
          "duration": 0.047619083333330536
        },
        {
          "name": "A1",
          "midi": 33,
          "time": 120.57151899999867,
          "velocity": 0.7874015748031497,
          "duration": 0.26190495833334637
        },
        {
          "name": "D4",
          "midi": 62,
          "time": 120.57151899999867,
          "velocity": 0.7007874015748031,
          "duration": 0.404762208333338
        },
        {
          "name": "D2",
          "midi": 38,
          "time": 120.57151899999867,
          "velocity": 0.7716535433070866,
          "duration": 0.0714286249999958
        },
        {
          "name": "F#2",
          "midi": 42,
          "time": 120.57151899999867,
          "velocity": 0.6771653543307087,
          "duration": 0.047619083333330536
        },
        {
          "name": "D2",
          "midi": 38,
          "time": 120.85723349999869,
          "velocity": 0.7874015748031497,
          "duration": 0.19047633333332215
        },
        {
          "name": "D4",
          "midi": 62,
          "time": 120.85723349999869,
          "velocity": 0.48031496062992124,
          "duration": 0.26190495833331795
        },
        {
          "name": "C2",
          "midi": 36,
          "time": 120.85723349999869,
          "velocity": 0.84251968503937,
          "duration": 0.0714286249999958
        },
        {
          "name": "F#2",
          "midi": 42,
          "time": 120.85723349999869,
          "velocity": 0.6771653543307087,
          "duration": 0.047619083333330536
        },
        {
          "name": "G1",
          "midi": 31,
          "time": 121.14294799999867,
          "velocity": 0.7874015748031497,
          "duration": 0.6190480833333112
        },
        {
          "name": "D3",
          "midi": 50,
          "time": 121.14294799999867,
          "velocity": 0.6850393700787402,
          "duration": 0.11904770833332634
        },
        {
          "name": "G3",
          "midi": 55,
          "time": 121.14294799999867,
          "velocity": 0.7952755905511811,
          "duration": 0.11904770833332634
        },
        {
          "name": "B3",
          "midi": 59,
          "time": 121.14294799999867,
          "velocity": 0.8661417322834646,
          "duration": 0.11904770833332634
        },
        {
          "name": "D2",
          "midi": 38,
          "time": 121.14294799999867,
          "velocity": 0.3700787401574803,
          "duration": 0.11904770833332634
        },
        {
          "name": "G4",
          "midi": 67,
          "time": 121.14294799999867,
          "velocity": 0.7401574803149606,
          "duration": 3.309526291666586
        },
        {
          "name": "B4",
          "midi": 71,
          "time": 121.14294799999867,
          "velocity": 0.7874015748031497,
          "duration": 3.3571453749999165
        },
        {
          "name": "D4",
          "midi": 62,
          "time": 121.14294799999867,
          "velocity": 0.7637795275590551,
          "duration": 0.5476194583333154
        },
        {
          "name": "C2",
          "midi": 36,
          "time": 121.14294799999867,
          "velocity": 0.84251968503937,
          "duration": 0.5714289999999806
        },
        {
          "name": "F#2",
          "midi": 42,
          "time": 121.14294799999867,
          "velocity": 0.6771653543307087,
          "duration": 0.047619083333330536
        },
        {
          "name": "A3",
          "midi": 57,
          "time": 121.14294799999867,
          "velocity": 0.5354330708661418,
          "duration": 0.6761909833333135
        },
        {
          "name": "F#2",
          "midi": 42,
          "time": 121.42866249999867,
          "velocity": 0.6771653543307087,
          "duration": 0.047619083333330536
        },
        {
          "name": "D4",
          "midi": 62,
          "time": 121.57151974999866,
          "velocity": 0.84251968503937,
          "duration": 0.26190495833331795
        },
        {
          "name": "B3",
          "midi": 59,
          "time": 121.57151974999866,
          "velocity": 0.7716535433070866,
          "duration": 0.11904770833332634
        },
        {
          "name": "G3",
          "midi": 55,
          "time": 121.57151974999866,
          "velocity": 0.5590551181102362,
          "duration": 0.11904770833332634
        },
        {
          "name": "G5",
          "midi": 79,
          "time": 121.71437699999865,
          "velocity": 0.7244094488188977,
          "duration": 0.3095240416666627
        },
        {
          "name": "D3",
          "midi": 50,
          "time": 121.71437699999865,
          "velocity": 0.6299212598425197,
          "duration": 0.11904770833332634
        },
        {
          "name": "G3",
          "midi": 55,
          "time": 121.71437699999865,
          "velocity": 0.6850393700787402,
          "duration": 0.11904770833332634
        },
        {
          "name": "B3",
          "midi": 59,
          "time": 121.71437699999865,
          "velocity": 0.6850393700787402,
          "duration": 0.11904770833332634
        },
        {
          "name": "D4",
          "midi": 62,
          "time": 121.71437699999865,
          "velocity": 0.5826771653543307,
          "duration": 0.1571429749999993
        },
        {
          "name": "D2",
          "midi": 38,
          "time": 121.71437699999865,
          "velocity": 0.7716535433070866,
          "duration": 0.047619083333330536
        },
        {
          "name": "F#2",
          "midi": 42,
          "time": 121.71437699999865,
          "velocity": 0.6771653543307087,
          "duration": 0.0714286249999958
        },
        {
          "name": "D4",
          "midi": 62,
          "time": 121.71437699999865,
          "velocity": 0.007874015748031496,
          "duration": 0.404762208333338
        },
        {
          "name": "F#5",
          "midi": 78,
          "time": 122.00009149999865,
          "velocity": 0.7244094488188977,
          "duration": 0.26190495833333216
        },
        {
          "name": "G1",
          "midi": 31,
          "time": 122.00009149999865,
          "velocity": 0.7874015748031497,
          "duration": 0.047619083333330536
        },
        {
          "name": "G3",
          "midi": 55,
          "time": 122.00009149999865,
          "velocity": 0.7086614173228346,
          "duration": 0.11904770833334055
        },
        {
          "name": "B3",
          "midi": 59,
          "time": 122.00009149999865,
          "velocity": 0.8818897637795275,
          "duration": 0.11904770833334055
        },
        {
          "name": "D4",
          "midi": 62,
          "time": 122.00009149999865,
          "velocity": 0.6456692913385826,
          "duration": 0.13333343333333403
        },
        {
          "name": "C2",
          "midi": 36,
          "time": 122.00009149999865,
          "velocity": 0.84251968503937,
          "duration": 0.05714290000000233
        },
        {
          "name": "D2",
          "midi": 38,
          "time": 122.00009149999865,
          "velocity": 0.7716535433070866,
          "duration": 0.05714290000000233
        },
        {
          "name": "F#2",
          "midi": 42,
          "time": 122.00009149999865,
          "velocity": 0.6771653543307087,
          "duration": 0.05714290000000233
        },
        {
          "name": "D4",
          "midi": 62,
          "time": 122.00009149999865,
          "velocity": 0.007874015748031496,
          "duration": 0.42380984166665314
        },
        {
          "name": "F#5",
          "midi": 78,
          "time": 122.28580599999864,
          "velocity": 0.7244094488188977,
          "duration": 0.27142877499998974
        },
        {
          "name": "G1",
          "midi": 31,
          "time": 122.28580599999864,
          "velocity": 0.7874015748031497,
          "duration": 0.047619083333330536
        },
        {
          "name": "C2",
          "midi": 36,
          "time": 122.28580599999864,
          "velocity": 0.84251968503937,
          "duration": 0.0714286249999958
        },
        {
          "name": "F#2",
          "midi": 42,
          "time": 122.28580599999864,
          "velocity": 0.6771653543307087,
          "duration": 0.05714290000000233
        },
        {
          "name": "D4",
          "midi": 62,
          "time": 122.28580599999864,
          "velocity": 0.007874015748031496,
          "duration": 0.690476708333307
        },
        {
          "name": "E5",
          "midi": 76,
          "time": 122.57152049999863,
          "velocity": 0.7244094488188977,
          "duration": 0.2142858749999874
        },
        {
          "name": "G1",
          "midi": 31,
          "time": 122.57152049999863,
          "velocity": 0.7874015748031497,
          "duration": 0.24761923333332447
        },
        {
          "name": "D3",
          "midi": 50,
          "time": 122.57152049999863,
          "velocity": 0.7952755905511811,
          "duration": 0.11904770833332634
        },
        {
          "name": "G3",
          "midi": 55,
          "time": 122.57152049999863,
          "velocity": 0.7086614173228346,
          "duration": 0.11904770833332634
        },
        {
          "name": "C2",
          "midi": 36,
          "time": 122.57152049999863,
          "velocity": 0.84251968503937,
          "duration": 0.28571449999999743
        },
        {
          "name": "F#2",
          "midi": 42,
          "time": 122.57152049999863,
          "velocity": 0.6771653543307087,
          "duration": 0.047619083333330536
        },
        {
          "name": "E5",
          "midi": 76,
          "time": 122.85723499999862,
          "velocity": 0.7244094488188977,
          "duration": 0.26190495833331795
        },
        {
          "name": "B1",
          "midi": 35,
          "time": 122.85723499999862,
          "velocity": 0.7874015748031497,
          "duration": 0.2142858749999874
        },
        {
          "name": "G3",
          "midi": 55,
          "time": 122.85723499999862,
          "velocity": 0.8110236220472441,
          "duration": 0.11904770833332634
        },
        {
          "name": "B3",
          "midi": 59,
          "time": 122.85723499999862,
          "velocity": 0.8976377952755905,
          "duration": 0.11904770833332634
        },
        {
          "name": "D4",
          "midi": 62,
          "time": 122.85723499999862,
          "velocity": 0.6141732283464567,
          "duration": 0.13333343333331982
        },
        {
          "name": "D2",
          "midi": 38,
          "time": 122.85723499999862,
          "velocity": 0.7716535433070866,
          "duration": 0.0714286249999958
        },
        {
          "name": "F#2",
          "midi": 42,
          "time": 122.85723499999862,
          "velocity": 0.6771653543307087,
          "duration": 0.047619083333330536
        },
        {
          "name": "D4",
          "midi": 62,
          "time": 122.85723499999862,
          "velocity": 0.007874015748031496,
          "duration": 0.3857145749999802
        },
        {
          "name": "D5",
          "midi": 74,
          "time": 123.14294949999861,
          "velocity": 0.7244094488188977,
          "duration": 0.5333337333333077
        },
        {
          "name": "D2",
          "midi": 38,
          "time": 123.14294949999861,
          "velocity": 0.7874015748031497,
          "duration": 0.2857144999999832
        },
        {
          "name": "B3",
          "midi": 59,
          "time": 123.14294949999861,
          "velocity": 0.7637795275590551,
          "duration": 0.11904770833332634
        },
        {
          "name": "G3",
          "midi": 55,
          "time": 123.14294949999861,
          "velocity": 0.6299212598425197,
          "duration": 0.11904770833332634
        },
        {
          "name": "C2",
          "midi": 36,
          "time": 123.14294949999861,
          "velocity": 0.84251968503937,
          "duration": 0.0714286249999958
        },
        {
          "name": "F#2",
          "midi": 42,
          "time": 123.14294949999861,
          "velocity": 0.6771653543307087,
          "duration": 0.047619083333330536
        },
        {
          "name": "D4",
          "midi": 62,
          "time": 123.14294949999861,
          "velocity": 0.007874015748031496,
          "duration": 0.27142877499998974
        },
        {
          "name": "G1",
          "midi": 31,
          "time": 123.42866399999859,
          "velocity": 0.7874015748031497,
          "duration": 0.6047623583333177
        },
        {
          "name": "D3",
          "midi": 50,
          "time": 123.42866399999859,
          "velocity": 0.6850393700787402,
          "duration": 0.11904770833332634
        },
        {
          "name": "G3",
          "midi": 55,
          "time": 123.42866399999859,
          "velocity": 0.7952755905511811,
          "duration": 0.11904770833332634
        },
        {
          "name": "B3",
          "midi": 59,
          "time": 123.42866399999859,
          "velocity": 0.8661417322834646,
          "duration": 0.11904770833332634
        },
        {
          "name": "D2",
          "midi": 38,
          "time": 123.42866399999859,
          "velocity": 0.3700787401574803,
          "duration": 0.11904770833332634
        },
        {
          "name": "C2",
          "midi": 36,
          "time": 123.42866399999859,
          "velocity": 0.84251968503937,
          "duration": 0.5714289999999806
        },
        {
          "name": "F#2",
          "midi": 42,
          "time": 123.42866399999859,
          "velocity": 0.6771653543307087,
          "duration": 0.047619083333330536
        },
        {
          "name": "E5",
          "midi": 76,
          "time": 123.71437849999859,
          "velocity": 0.7244094488188977,
          "duration": 0.2761906833333114
        },
        {
          "name": "F#2",
          "midi": 42,
          "time": 123.71437849999859,
          "velocity": 0.6771653543307087,
          "duration": 0.047619083333330536
        },
        {
          "name": "D4",
          "midi": 62,
          "time": 123.71437849999859,
          "velocity": 0.007874015748031496,
          "duration": 0.18571442499998625
        },
        {
          "name": "D4",
          "midi": 62,
          "time": 123.85723574999858,
          "velocity": 0.84251968503937,
          "duration": 0.11904770833332634
        },
        {
          "name": "B3",
          "midi": 59,
          "time": 123.85723574999858,
          "velocity": 0.7716535433070866,
          "duration": 0.11904770833332634
        },
        {
          "name": "G3",
          "midi": 55,
          "time": 123.85723574999858,
          "velocity": 0.5590551181102362,
          "duration": 0.11904770833332634
        },
        {
          "name": "D5",
          "midi": 74,
          "time": 124.00009299999857,
          "velocity": 0.7244094488188977,
          "duration": 0.2952383166666692
        },
        {
          "name": "D3",
          "midi": 50,
          "time": 124.00009299999857,
          "velocity": 0.6299212598425197,
          "duration": 0.11904770833332634
        },
        {
          "name": "G3",
          "midi": 55,
          "time": 124.00009299999857,
          "velocity": 0.6850393700787402,
          "duration": 0.11904770833332634
        },
        {
          "name": "B3",
          "midi": 59,
          "time": 124.00009299999857,
          "velocity": 0.6850393700787402,
          "duration": 0.11904770833332634
        },
        {
          "name": "D4",
          "midi": 62,
          "time": 124.00009299999857,
          "velocity": 0.5826771653543307,
          "duration": 0.11904770833332634
        },
        {
          "name": "D2",
          "midi": 38,
          "time": 124.00009299999857,
          "velocity": 0.7716535433070866,
          "duration": 0.047619083333330536
        },
        {
          "name": "F#2",
          "midi": 42,
          "time": 124.00009299999857,
          "velocity": 0.6771653543307087,
          "duration": 0.0714286249999958
        },
        {
          "name": "D4",
          "midi": 62,
          "time": 124.00009299999857,
          "velocity": 0.007874015748031496,
          "duration": 0.1476191583333275
        },
        {
          "name": "B4",
          "midi": 71,
          "time": 124.28580749999857,
          "velocity": 0.7244094488188977,
          "duration": 0.94285785000001
        },
        {
          "name": "G1",
          "midi": 31,
          "time": 124.28580749999857,
          "velocity": 0.7874015748031497,
          "duration": 0.04761908333334475
        },
        {
          "name": "G3",
          "midi": 55,
          "time": 124.28580749999857,
          "velocity": 0.7086614173228346,
          "duration": 0.11904770833335476
        },
        {
          "name": "B3",
          "midi": 59,
          "time": 124.28580749999857,
          "velocity": 0.8818897637795275,
          "duration": 0.11904770833335476
        },
        {
          "name": "D4",
          "midi": 62,
          "time": 124.28580749999857,
          "velocity": 0.6456692913385826,
          "duration": 0.11904770833335476
        },
        {
          "name": "C2",
          "midi": 36,
          "time": 124.28580749999857,
          "velocity": 0.84251968503937,
          "duration": 0.05714290000001654
        },
        {
          "name": "D2",
          "midi": 38,
          "time": 124.28580749999857,
          "velocity": 0.7716535433070866,
          "duration": 0.05714290000001654
        },
        {
          "name": "F#2",
          "midi": 42,
          "time": 124.28580749999857,
          "velocity": 0.6771653543307087,
          "duration": 0.05714290000001654
        },
        {
          "name": "D4",
          "midi": 62,
          "time": 124.28580749999857,
          "velocity": 0.007874015748031496,
          "duration": 0.27619068333335406
        },
        {
          "name": "G1",
          "midi": 31,
          "time": 124.5715219999986,
          "velocity": 0.7874015748031497,
          "duration": 0.0714286249999958
        },
        {
          "name": "C2",
          "midi": 36,
          "time": 124.5715219999986,
          "velocity": 0.84251968503937,
          "duration": 0.0714286249999958
        },
        {
          "name": "F#2",
          "midi": 42,
          "time": 124.5715219999986,
          "velocity": 0.6771653543307087,
          "duration": 0.05714290000000233
        },
        {
          "name": "G1",
          "midi": 31,
          "time": 124.85723649999859,
          "velocity": 0.7874015748031497,
          "duration": 0.24761923333332447
        },
        {
          "name": "D3",
          "midi": 50,
          "time": 124.85723649999859,
          "velocity": 0.7952755905511811,
          "duration": 0.11904770833332634
        },
        {
          "name": "G3",
          "midi": 55,
          "time": 124.85723649999859,
          "velocity": 0.7086614173228346,
          "duration": 0.11904770833332634
        },
        {
          "name": "C2",
          "midi": 36,
          "time": 124.85723649999859,
          "velocity": 0.84251968503937,
          "duration": 0.28571449999999743
        },
        {
          "name": "F#2",
          "midi": 42,
          "time": 124.85723649999859,
          "velocity": 0.6771653543307087,
          "duration": 0.047619083333330536
        },
        {
          "name": "B1",
          "midi": 35,
          "time": 125.14295099999859,
          "velocity": 0.7874015748031497,
          "duration": 0.2238096916666592
        },
        {
          "name": "G3",
          "midi": 55,
          "time": 125.14295099999859,
          "velocity": 0.8110236220472441,
          "duration": 0.11904770833332634
        },
        {
          "name": "B3",
          "midi": 59,
          "time": 125.14295099999859,
          "velocity": 0.8976377952755905,
          "duration": 0.11904770833332634
        },
        {
          "name": "D4",
          "midi": 62,
          "time": 125.14295099999859,
          "velocity": 0.6141732283464567,
          "duration": 0.11904770833332634
        },
        {
          "name": "D2",
          "midi": 38,
          "time": 125.14295099999859,
          "velocity": 0.7716535433070866,
          "duration": 0.0714286249999958
        },
        {
          "name": "F#2",
          "midi": 42,
          "time": 125.14295099999859,
          "velocity": 0.6771653543307087,
          "duration": 0.047619083333330536
        },
        {
          "name": "A4",
          "midi": 69,
          "time": 125.28580824999858,
          "velocity": 0.7244094488188977,
          "duration": 0.14285725000000582
        },
        {
          "name": "G4",
          "midi": 67,
          "time": 125.42866549999859,
          "velocity": 0.7244094488188977,
          "duration": 0.42380984166665314
        },
        {
          "name": "D2",
          "midi": 38,
          "time": 125.42866549999859,
          "velocity": 0.7874015748031497,
          "duration": 0.295238316666655
        },
        {
          "name": "B3",
          "midi": 59,
          "time": 125.42866549999859,
          "velocity": 0.7637795275590551,
          "duration": 0.11904770833332634
        },
        {
          "name": "G3",
          "midi": 55,
          "time": 125.42866549999859,
          "velocity": 0.6299212598425197,
          "duration": 0.11904770833332634
        },
        {
          "name": "C2",
          "midi": 36,
          "time": 125.42866549999859,
          "velocity": 0.84251968503937,
          "duration": 0.0714286249999958
        },
        {
          "name": "F#2",
          "midi": 42,
          "time": 125.42866549999859,
          "velocity": 0.6771653543307087,
          "duration": 0.047619083333330536
        },
        {
          "name": "E2",
          "midi": 40,
          "time": 125.71437999999857,
          "velocity": 0.7874015748031497,
          "duration": 0.6047623583333177
        },
        {
          "name": "E3",
          "midi": 52,
          "time": 125.71437999999857,
          "velocity": 0.7401574803149606,
          "duration": 0.11904770833334055
        },
        {
          "name": "B2",
          "midi": 47,
          "time": 125.71437999999857,
          "velocity": 0.7086614173228346,
          "duration": 0.11904770833334055
        },
        {
          "name": "G3",
          "midi": 55,
          "time": 125.71437999999857,
          "velocity": 0.7952755905511811,
          "duration": 0.11904770833334055
        },
        {
          "name": "B3",
          "midi": 59,
          "time": 125.71437999999857,
          "velocity": 0.8031496062992126,
          "duration": 0.11904770833334055
        },
        {
          "name": "E4",
          "midi": 64,
          "time": 125.71437999999857,
          "velocity": 0.7795275590551181,
          "duration": 0.11904770833334055
        },
        {
          "name": "C2",
          "midi": 36,
          "time": 125.71437999999857,
          "velocity": 0.84251968503937,
          "duration": 0.5714289999999806
        },
        {
          "name": "F#2",
          "midi": 42,
          "time": 125.71437999999857,
          "velocity": 0.6771653543307087,
          "duration": 0.04761908333334475
        },
        {
          "name": "F#2",
          "midi": 42,
          "time": 126.00009449999857,
          "velocity": 0.6771653543307087,
          "duration": 0.047619083333330536
        },
        {
          "name": "E4",
          "midi": 64,
          "time": 126.14295174999856,
          "velocity": 0.7952755905511811,
          "duration": 0.11904770833332634
        },
        {
          "name": "B3",
          "midi": 59,
          "time": 126.14295174999856,
          "velocity": 0.7086614173228346,
          "duration": 0.11904770833332634
        },
        {
          "name": "G3",
          "midi": 55,
          "time": 126.14295174999856,
          "velocity": 0.5905511811023622,
          "duration": 0.11904770833332634
        },
        {
          "name": "E4",
          "midi": 64,
          "time": 126.28580899999855,
          "velocity": 0.7244094488188977,
          "duration": 0.11904770833332634
        },
        {
          "name": "E2",
          "midi": 40,
          "time": 126.28580899999855,
          "velocity": 0.6299212598425197,
          "duration": 0.11904770833332634
        },
        {
          "name": "B2",
          "midi": 47,
          "time": 126.28580899999855,
          "velocity": 0.7086614173228346,
          "duration": 0.11904770833332634
        },
        {
          "name": "E3",
          "midi": 52,
          "time": 126.28580899999855,
          "velocity": 0.8661417322834646,
          "duration": 0.11904770833332634
        },
        {
          "name": "G3",
          "midi": 55,
          "time": 126.28580899999855,
          "velocity": 0.8740157480314961,
          "duration": 0.11904770833332634
        },
        {
          "name": "B3",
          "midi": 59,
          "time": 126.28580899999855,
          "velocity": 0.8661417322834646,
          "duration": 0.11904770833332634
        },
        {
          "name": "E4",
          "midi": 64,
          "time": 126.28580899999855,
          "velocity": 0.7874015748031497,
          "duration": 0.27142877499998974
        },
        {
          "name": "D2",
          "midi": 38,
          "time": 126.28580899999855,
          "velocity": 0.7716535433070866,
          "duration": 0.047619083333330536
        },
        {
          "name": "F#2",
          "midi": 42,
          "time": 126.28580899999855,
          "velocity": 0.6771653543307087,
          "duration": 0.0714286249999958
        },
        {
          "name": "D4",
          "midi": 62,
          "time": 126.28580899999855,
          "velocity": 0.007874015748031496,
          "duration": 0.1380953416666557
        },
        {
          "name": "G4",
          "midi": 67,
          "time": 126.57152349999853,
          "velocity": 0.7244094488188977,
          "duration": 0.1666667916666711
        },
        {
          "name": "B1",
          "midi": 35,
          "time": 126.57152349999853,
          "velocity": 0.7874015748031497,
          "duration": 0.047619083333330536
        },
        {
          "name": "G3",
          "midi": 55,
          "time": 126.57152349999853,
          "velocity": 0.9291338582677166,
          "duration": 0.11904770833334055
        },
        {
          "name": "B3",
          "midi": 59,
          "time": 126.57152349999853,
          "velocity": 0.9606299212598425,
          "duration": 0.11904770833334055
        },
        {
          "name": "E4",
          "midi": 64,
          "time": 126.57152349999853,
          "velocity": 0.8818897637795275,
          "duration": 0.11904770833334055
        },
        {
          "name": "C2",
          "midi": 36,
          "time": 126.57152349999853,
          "velocity": 0.84251968503937,
          "duration": 0.05714290000000233
        },
        {
          "name": "D2",
          "midi": 38,
          "time": 126.57152349999853,
          "velocity": 0.7716535433070866,
          "duration": 0.05714290000000233
        },
        {
          "name": "F#2",
          "midi": 42,
          "time": 126.57152349999853,
          "velocity": 0.6771653543307087,
          "duration": 0.05714290000000233
        },
        {
          "name": "D4",
          "midi": 62,
          "time": 126.57152349999853,
          "velocity": 0.007874015748031496,
          "duration": 0.08571435000000349
        },
        {
          "name": "G4",
          "midi": 67,
          "time": 126.85723799999853,
          "velocity": 0.7244094488188977,
          "duration": 0.5333337333333219
        },
        {
          "name": "E2",
          "midi": 40,
          "time": 126.85723799999853,
          "velocity": 0.7874015748031497,
          "duration": 0.05714290000000233
        },
        {
          "name": "C2",
          "midi": 36,
          "time": 126.85723799999853,
          "velocity": 0.84251968503937,
          "duration": 0.0714286249999958
        },
        {
          "name": "F#2",
          "midi": 42,
          "time": 126.85723799999853,
          "velocity": 0.6771653543307087,
          "duration": 0.05714290000000233
        },
        {
          "name": "D4",
          "midi": 62,
          "time": 126.85723799999853,
          "velocity": 0.007874015748031496,
          "duration": 0.26666686666666806
        },
        {
          "name": "E2",
          "midi": 40,
          "time": 127.14295249999853,
          "velocity": 0.7874015748031497,
          "duration": 0.11904770833332634
        },
        {
          "name": "E2",
          "midi": 40,
          "time": 127.14295249999853,
          "velocity": 0.8110236220472441,
          "duration": 0.5333337333333219
        },
        {
          "name": "B2",
          "midi": 47,
          "time": 127.14295249999853,
          "velocity": 0.8740157480314961,
          "duration": 0.11904770833332634
        },
        {
          "name": "E3",
          "midi": 52,
          "time": 127.14295249999853,
          "velocity": 0.7244094488188977,
          "duration": 0.11904770833332634
        },
        {
          "name": "C2",
          "midi": 36,
          "time": 127.14295249999853,
          "velocity": 0.84251968503937,
          "duration": 0.28571449999999743
        },
        {
          "name": "F#2",
          "midi": 42,
          "time": 127.14295249999853,
          "velocity": 0.6771653543307087,
          "duration": 0.047619083333330536
        },
        {
          "name": "B4",
          "midi": 71,
          "time": 127.42866699999853,
          "velocity": 0.7244094488188977,
          "duration": 0.28571449999999743
        },
        {
          "name": "E3",
          "midi": 52,
          "time": 127.42866699999853,
          "velocity": 0.8346456692913385,
          "duration": 0.11904770833332634
        },
        {
          "name": "G3",
          "midi": 55,
          "time": 127.42866699999853,
          "velocity": 0.8818897637795275,
          "duration": 0.11904770833332634
        },
        {
          "name": "B3",
          "midi": 59,
          "time": 127.42866699999853,
          "velocity": 0.9291338582677166,
          "duration": 0.11904770833332634
        },
        {
          "name": "E4",
          "midi": 64,
          "time": 127.42866699999853,
          "velocity": 0.9291338582677166,
          "duration": 0.11904770833332634
        },
        {
          "name": "D2",
          "midi": 38,
          "time": 127.42866699999853,
          "velocity": 0.7716535433070866,
          "duration": 0.0714286249999958
        },
        {
          "name": "F#2",
          "midi": 42,
          "time": 127.42866699999853,
          "velocity": 0.6771653543307087,
          "duration": 0.047619083333330536
        },
        {
          "name": "D4",
          "midi": 62,
          "time": 127.42866699999853,
          "velocity": 0.007874015748031496,
          "duration": 0.1428572499999916
        },
        {
          "name": "A4",
          "midi": 69,
          "time": 127.71438149999852,
          "velocity": 0.7244094488188977,
          "duration": 0.11904770833332634
        },
        {
          "name": "B1",
          "midi": 35,
          "time": 127.71438149999852,
          "velocity": 0.7874015748031497,
          "duration": 0.24761923333332447
        },
        {
          "name": "D#2",
          "midi": 39,
          "time": 127.71438149999852,
          "velocity": 0.3700787401574803,
          "duration": 0.11904770833332634
        },
        {
          "name": "B3",
          "midi": 59,
          "time": 127.71438149999852,
          "velocity": 0.7007874015748031,
          "duration": 0.11904770833332634
        },
        {
          "name": "E4",
          "midi": 64,
          "time": 127.71438149999852,
          "velocity": 0.5826771653543307,
          "duration": 0.11904770833332634
        },
        {
          "name": "C2",
          "midi": 36,
          "time": 127.71438149999852,
          "velocity": 0.84251968503937,
          "duration": 0.0714286249999958
        },
        {
          "name": "F#2",
          "midi": 42,
          "time": 127.71438149999852,
          "velocity": 0.6771653543307087,
          "duration": 0.047619083333330536
        },
        {
          "name": "D4",
          "midi": 62,
          "time": 127.71438149999852,
          "velocity": 0.007874015748031496,
          "duration": 0.11428579999999045
        },
        {
          "name": "B4",
          "midi": 71,
          "time": 127.85723874999852,
          "velocity": 0.7244094488188977,
          "duration": 0.09523816666666107
        },
        {
          "name": "A4",
          "midi": 69,
          "time": 128.0000959999985,
          "velocity": 0.7244094488188977,
          "duration": 0.27142877500000395
        },
        {
          "name": "E2",
          "midi": 40,
          "time": 128.0000959999985,
          "velocity": 0.7874015748031497,
          "duration": 0.6190480833333822
        },
        {
          "name": "B3",
          "midi": 59,
          "time": 128.0000959999985,
          "velocity": 0.7401574803149606,
          "duration": 0.11904770833334055
        },
        {
          "name": "E4",
          "midi": 64,
          "time": 128.0000959999985,
          "velocity": 0.7244094488188977,
          "duration": 0.11904770833334055
        },
        {
          "name": "G3",
          "midi": 55,
          "time": 128.0000959999985,
          "velocity": 0.6850393700787402,
          "duration": 0.11904770833334055
        },
        {
          "name": "C2",
          "midi": 36,
          "time": 128.0000959999985,
          "velocity": 0.84251968503937,
          "duration": 0.5714290000000517
        },
        {
          "name": "F#2",
          "midi": 42,
          "time": 128.0000959999985,
          "velocity": 0.6771653543307087,
          "duration": 0.047619083333330536
        },
        {
          "name": "G4",
          "midi": 67,
          "time": 128.28581049999852,
          "velocity": 0.7244094488188977,
          "duration": 1.3190486083334179
        },
        {
          "name": "B3",
          "midi": 59,
          "time": 128.28581049999852,
          "velocity": 0.6062992125984252,
          "duration": 0.11904770833334055
        },
        {
          "name": "E4",
          "midi": 64,
          "time": 128.28581049999852,
          "velocity": 0.5826771653543307,
          "duration": 0.11904770833334055
        },
        {
          "name": "F#2",
          "midi": 42,
          "time": 128.28581049999852,
          "velocity": 0.6771653543307087,
          "duration": 0.047619083333330536
        },
        {
          "name": "D4",
          "midi": 62,
          "time": 128.28581049999852,
          "velocity": 0.007874015748031496,
          "duration": 0.5666670916667158
        },
        {
          "name": "E4",
          "midi": 64,
          "time": 128.42866774999854,
          "velocity": 0.7401574803149606,
          "duration": 0.11904770833334055
        },
        {
          "name": "B3",
          "midi": 59,
          "time": 128.42866774999854,
          "velocity": 0.5826771653543307,
          "duration": 0.11904770833334055
        },
        {
          "name": "B3",
          "midi": 59,
          "time": 128.57152499999856,
          "velocity": 0.7086614173228346,
          "duration": 0.11904770833334055
        },
        {
          "name": "E4",
          "midi": 64,
          "time": 128.57152499999856,
          "velocity": 0.7401574803149606,
          "duration": 0.11904770833334055
        },
        {
          "name": "D2",
          "midi": 38,
          "time": 128.57152499999856,
          "velocity": 0.7716535433070866,
          "duration": 0.047619083333330536
        },
        {
          "name": "F#2",
          "midi": 42,
          "time": 128.57152499999856,
          "velocity": 0.6771653543307087,
          "duration": 0.07142862500001002
        },
        {
          "name": "B1",
          "midi": 35,
          "time": 128.85723949999857,
          "velocity": 0.7874015748031497,
          "duration": 0.047619083333330536
        },
        {
          "name": "E3",
          "midi": 52,
          "time": 128.85723949999857,
          "velocity": 0.6141732283464567,
          "duration": 0.11904770833334055
        },
        {
          "name": "B3",
          "midi": 59,
          "time": 128.85723949999857,
          "velocity": 0.7401574803149606,
          "duration": 0.11904770833334055
        },
        {
          "name": "E4",
          "midi": 64,
          "time": 128.85723949999857,
          "velocity": 0.7559055118110236,
          "duration": 0.11904770833334055
        },
        {
          "name": "B4",
          "midi": 71,
          "time": 128.85723949999857,
          "velocity": 0.7244094488188977,
          "duration": 0.09523816666666107
        },
        {
          "name": "B5",
          "midi": 83,
          "time": 128.85723949999857,
          "velocity": 0.7874015748031497,
          "duration": 0.19047633333335057
        },
        {
          "name": "D5",
          "midi": 74,
          "time": 128.85723949999857,
          "velocity": 0.7165354330708661,
          "duration": 0.10476198333333286
        },
        {
          "name": "C2",
          "midi": 36,
          "time": 128.85723949999857,
          "velocity": 0.84251968503937,
          "duration": 0.05714290000000233
        },
        {
          "name": "D2",
          "midi": 38,
          "time": 128.85723949999857,
          "velocity": 0.7716535433070866,
          "duration": 0.05714290000000233
        },
        {
          "name": "F#2",
          "midi": 42,
          "time": 128.85723949999857,
          "velocity": 0.6771653543307087,
          "duration": 0.05714290000000233
        },
        {
          "name": "E2",
          "midi": 40,
          "time": 129.14295399999858,
          "velocity": 0.7874015748031497,
          "duration": 0.047619083333330536
        },
        {
          "name": "B5",
          "midi": 83,
          "time": 129.14295399999858,
          "velocity": 0.7716535433070866,
          "duration": 0.14285725000002003
        },
        {
          "name": "D5",
          "midi": 74,
          "time": 129.14295399999858,
          "velocity": 0.8267716535433071,
          "duration": 0.10476198333333286
        },
        {
          "name": "B4",
          "midi": 71,
          "time": 129.14295399999858,
          "velocity": 0.7716535433070866,
          "duration": 0.11904770833334055
        },
        {
          "name": "C2",
          "midi": 36,
          "time": 129.14295399999858,
          "velocity": 0.84251968503937,
          "duration": 0.07142862500001002
        },
        {
          "name": "F#2",
          "midi": 42,
          "time": 129.14295399999858,
          "velocity": 0.6771653543307087,
          "duration": 0.05714290000000233
        },
        {
          "name": "E2",
          "midi": 40,
          "time": 129.4286684999986,
          "velocity": 0.7874015748031497,
          "duration": 0.22380969166667342
        },
        {
          "name": "E3",
          "midi": 52,
          "time": 129.4286684999986,
          "velocity": 0.6614173228346457,
          "duration": 0.11904770833334055
        },
        {
          "name": "B2",
          "midi": 47,
          "time": 129.4286684999986,
          "velocity": 0.6299212598425197,
          "duration": 0.11904770833334055
        },
        {
          "name": "C2",
          "midi": 36,
          "time": 129.4286684999986,
          "velocity": 0.84251968503937,
          "duration": 0.28571450000004006
        },
        {
          "name": "F#2",
          "midi": 42,
          "time": 129.4286684999986,
          "velocity": 0.6771653543307087,
          "duration": 0.047619083333330536
        },
        {
          "name": "C5",
          "midi": 72,
          "time": 129.5715257499986,
          "velocity": 0.8582677165354331,
          "duration": 0.10476198333333286
        },
        {
          "name": "A5",
          "midi": 81,
          "time": 129.5715257499986,
          "velocity": 0.7795275590551181,
          "duration": 0.11904770833334055
        },
        {
          "name": "A4",
          "midi": 69,
          "time": 129.5715257499986,
          "velocity": 0.6771653543307087,
          "duration": 0.11904770833334055
        },
        {
          "name": "D2",
          "midi": 38,
          "time": 129.71438299999863,
          "velocity": 0.7874015748031497,
          "duration": 0.07142862500001002
        },
        {
          "name": "B3",
          "midi": 59,
          "time": 129.71438299999863,
          "velocity": 0.8110236220472441,
          "duration": 0.11904770833334055
        },
        {
          "name": "E4",
          "midi": 64,
          "time": 129.71438299999863,
          "velocity": 0.8110236220472441,
          "duration": 0.11904770833334055
        },
        {
          "name": "D2",
          "midi": 38,
          "time": 129.71438299999863,
          "velocity": 0.7716535433070866,
          "duration": 0.5238099166666927
        },
        {
          "name": "F#2",
          "midi": 42,
          "time": 129.71438299999863,
          "velocity": 0.6771653543307087,
          "duration": 0.047619083333330536
        },
        {
          "name": "B3",
          "midi": 59,
          "time": 130.00009749999865,
          "velocity": 0.7952755905511811,
          "duration": 0.11904770833334055
        },
        {
          "name": "B4",
          "midi": 71,
          "time": 130.00009749999865,
          "velocity": 0.8346456692913385,
          "duration": 0.07142862500001002
        },
        {
          "name": "G5",
          "midi": 79,
          "time": 130.00009749999865,
          "velocity": 0.7401574803149606,
          "duration": 0.05714290000000233
        },
        {
          "name": "G4",
          "midi": 67,
          "time": 130.00009749999865,
          "velocity": 0.7086614173228346,
          "duration": 0.05714290000000233
        },
        {
          "name": "C2",
          "midi": 36,
          "time": 130.00009749999865,
          "velocity": 0.84251968503937,
          "duration": 0.07142862500001002
        },
        {
          "name": "F#2",
          "midi": 42,
          "time": 130.00009749999865,
          "velocity": 0.6771653543307087,
          "duration": 0.047619083333330536
        },
        {
          "name": "C2",
          "midi": 36,
          "time": 130.28581199999866,
          "velocity": 0.7874015748031497,
          "duration": 0.5714290000000517
        },
        {
          "name": "C3",
          "midi": 48,
          "time": 130.28581199999866,
          "velocity": 0.6614173228346457,
          "duration": 0.11904770833334055
        },
        {
          "name": "G3",
          "midi": 55,
          "time": 130.28581199999866,
          "velocity": 0.905511811023622,
          "duration": 0.11904770833334055
        },
        {
          "name": "C4",
          "midi": 60,
          "time": 130.28581199999866,
          "velocity": 0.9133858267716536,
          "duration": 0.11904770833334055
        },
        {
          "name": "E4",
          "midi": 64,
          "time": 130.28581199999866,
          "velocity": 0.8582677165354331,
          "duration": 0.11904770833334055
        },
        {
          "name": "E4",
          "midi": 64,
          "time": 130.28581199999866,
          "velocity": 0.8582677165354331,
          "duration": 0.4047622083333522
        },
        {
          "name": "G4",
          "midi": 67,
          "time": 130.28581199999866,
          "velocity": 0.7637795275590551,
          "duration": 1.5095249416667684
        },
        {
          "name": "E4",
          "midi": 64,
          "time": 130.28581199999866,
          "velocity": 0.5984251968503937,
          "duration": 0.5476194583333722
        },
        {
          "name": "C4",
          "midi": 60,
          "time": 130.28581199999866,
          "velocity": 0.7086614173228346,
          "duration": 0.4047622083333522
        },
        {
          "name": "G3",
          "midi": 55,
          "time": 130.28581199999866,
          "velocity": 0.6220472440944882,
          "duration": 0.6904767083334207
        },
        {
          "name": "C2",
          "midi": 36,
          "time": 130.28581199999866,
          "velocity": 0.84251968503937,
          "duration": 0.5952385416667312
        },
        {
          "name": "F#2",
          "midi": 42,
          "time": 130.28581199999866,
          "velocity": 0.6771653543307087,
          "duration": 0.047619083333330536
        },
        {
          "name": "A3",
          "midi": 57,
          "time": 130.28581199999866,
          "velocity": 0.5905511811023622,
          "duration": 1.4380963166667868
        },
        {
          "name": "D5",
          "midi": 74,
          "time": 130.57152649999867,
          "velocity": 0.7244094488188977,
          "duration": 0.2476192333333529
        },
        {
          "name": "C4",
          "midi": 60,
          "time": 130.57152649999867,
          "velocity": 0.6299212598425197,
          "duration": 0.40476220833340903
        },
        {
          "name": "E4",
          "midi": 64,
          "time": 130.57152649999867,
          "velocity": 0.6456692913385826,
          "duration": 0.40476220833340903
        },
        {
          "name": "F#2",
          "midi": 42,
          "time": 130.57152649999867,
          "velocity": 0.6771653543307087,
          "duration": 0.047619083333330536
        },
        {
          "name": "D4",
          "midi": 62,
          "time": 130.57152649999867,
          "velocity": 0.007874015748031496,
          "duration": 0.12380961666667645
        },
        {
          "name": "E4",
          "midi": 64,
          "time": 130.7143837499987,
          "velocity": 0.8582677165354331,
          "duration": 1.0809531916667368
        },
        {
          "name": "E5",
          "midi": 76,
          "time": 130.8572409999987,
          "velocity": 0.7244094488188977,
          "duration": 0.22380969166670184
        },
        {
          "name": "G3",
          "midi": 55,
          "time": 130.8572409999987,
          "velocity": 0.6299212598425197,
          "duration": 0.4047622083333806
        },
        {
          "name": "C4",
          "midi": 60,
          "time": 130.8572409999987,
          "velocity": 0.8267716535433071,
          "duration": 0.4047622083333806
        },
        {
          "name": "E4",
          "midi": 64,
          "time": 130.8572409999987,
          "velocity": 0.8110236220472441,
          "duration": 1.261905708333387
        },
        {
          "name": "D2",
          "midi": 38,
          "time": 130.8572409999987,
          "velocity": 0.7716535433070866,
          "duration": 0.04761908333335896
        },
        {
          "name": "F#2",
          "midi": 42,
          "time": 130.8572409999987,
          "velocity": 0.6771653543307087,
          "duration": 0.07142862500003844
        },
        {
          "name": "D4",
          "midi": 62,
          "time": 130.8572409999987,
          "velocity": 0.007874015748031496,
          "duration": 0.11428580000003308
        },
        {
          "name": "E5",
          "midi": 76,
          "time": 131.14295549999875,
          "velocity": 0.7244094488188977,
          "duration": 0.22380969166667342
        },
        {
          "name": "G1",
          "midi": 31,
          "time": 131.14295549999875,
          "velocity": 0.7874015748031497,
          "duration": 0.05714290000000233
        },
        {
          "name": "C3",
          "midi": 48,
          "time": 131.14295549999875,
          "velocity": 0.7165354330708661,
          "duration": 0.11904770833334055
        },
        {
          "name": "G3",
          "midi": 55,
          "time": 131.14295549999875,
          "velocity": 0.8582677165354331,
          "duration": 0.6904767083333354
        },
        {
          "name": "C4",
          "midi": 60,
          "time": 131.14295549999875,
          "velocity": 0.8740157480314961,
          "duration": 0.976191208333347
        },
        {
          "name": "C2",
          "midi": 36,
          "time": 131.14295549999875,
          "velocity": 0.84251968503937,
          "duration": 0.05714290000000233
        },
        {
          "name": "D2",
          "midi": 38,
          "time": 131.14295549999875,
          "velocity": 0.7716535433070866,
          "duration": 0.05714290000000233
        },
        {
          "name": "F#2",
          "midi": 42,
          "time": 131.14295549999875,
          "velocity": 0.6771653543307087,
          "duration": 0.05714290000000233
        },
        {
          "name": "D4",
          "midi": 62,
          "time": 131.14295549999875,
          "velocity": 0.007874015748031496,
          "duration": 0.11428580000000466
        },
        {
          "name": "E5",
          "midi": 76,
          "time": 131.42866999999876,
          "velocity": 0.7244094488188977,
          "duration": 0.4523812916666543
        },
        {
          "name": "C2",
          "midi": 36,
          "time": 131.42866999999876,
          "velocity": 0.7874015748031497,
          "duration": 0.047619083333330536
        },
        {
          "name": "C2",
          "midi": 36,
          "time": 131.42866999999876,
          "velocity": 0.84251968503937,
          "duration": 0.07142862500001002
        },
        {
          "name": "F#2",
          "midi": 42,
          "time": 131.42866999999876,
          "velocity": 0.6771653543307087,
          "duration": 0.05714290000000233
        },
        {
          "name": "D4",
          "midi": 62,
          "time": 131.42866999999876,
          "velocity": 0.007874015748031496,
          "duration": 0.2285716000000093
        },
        {
          "name": "C2",
          "midi": 36,
          "time": 131.71438449999877,
          "velocity": 0.7874015748031497,
          "duration": 0.2857144999999832
        },
        {
          "name": "C3",
          "midi": 48,
          "time": 131.71438449999877,
          "velocity": 0.6692913385826772,
          "duration": 0.11904770833331213
        },
        {
          "name": "G3",
          "midi": 55,
          "time": 131.71438449999877,
          "velocity": 0.7559055118110236,
          "duration": 0.40476220833332377
        },
        {
          "name": "C2",
          "midi": 36,
          "time": 131.71438449999877,
          "velocity": 0.84251968503937,
          "duration": 0.5476194583333438
        },
        {
          "name": "F#2",
          "midi": 42,
          "time": 131.71438449999877,
          "velocity": 0.6771653543307087,
          "duration": 0.047619083333330536
        },
        {
          "name": "E5",
          "midi": 76,
          "time": 132.00009899999876,
          "velocity": 0.7244094488188977,
          "duration": 0.2380954166666811
        },
        {
          "name": "E4",
          "midi": 64,
          "time": 132.00009899999876,
          "velocity": 0.7322834645669292,
          "duration": 0.6904767083333923
        },
        {
          "name": "G3",
          "midi": 55,
          "time": 132.00009899999876,
          "velocity": 0.7795275590551181,
          "duration": 0.6904767083333923
        },
        {
          "name": "C4",
          "midi": 60,
          "time": 132.00009899999876,
          "velocity": 0.8346456692913385,
          "duration": 0.6904767083333923
        },
        {
          "name": "D2",
          "midi": 38,
          "time": 132.00009899999876,
          "velocity": 0.7716535433070866,
          "duration": 0.07142862500001002
        },
        {
          "name": "F#2",
          "midi": 42,
          "time": 132.00009899999876,
          "velocity": 0.6771653543307087,
          "duration": 0.047619083333330536
        },
        {
          "name": "D4",
          "midi": 62,
          "time": 132.00009899999876,
          "velocity": 0.007874015748031496,
          "duration": 0.11904770833334055
        },
        {
          "name": "F5",
          "midi": 77,
          "time": 132.2858134999988,
          "velocity": 0.7244094488188977,
          "duration": 0.5571432750000156
        },
        {
          "name": "G1",
          "midi": 31,
          "time": 132.2858134999988,
          "velocity": 0.7874015748031497,
          "duration": 0.21428587500000162
        },
        {
          "name": "C2",
          "midi": 36,
          "time": 132.2858134999988,
          "velocity": 0.84251968503937,
          "duration": 0.07142862500001002
        },
        {
          "name": "F#2",
          "midi": 42,
          "time": 132.2858134999988,
          "velocity": 0.6771653543307087,
          "duration": 0.047619083333330536
        },
        {
          "name": "D4",
          "midi": 62,
          "time": 132.2858134999988,
          "velocity": 0.007874015748031496,
          "duration": 0.28095259166667574
        },
        {
          "name": "C2",
          "midi": 36,
          "time": 132.5715279999988,
          "velocity": 0.7874015748031497,
          "duration": 0.5714290000000517
        },
        {
          "name": "C3",
          "midi": 48,
          "time": 132.5715279999988,
          "velocity": 0.6614173228346457,
          "duration": 0.11904770833334055
        },
        {
          "name": "G3",
          "midi": 55,
          "time": 132.5715279999988,
          "velocity": 0.905511811023622,
          "duration": 0.6904767083333923
        },
        {
          "name": "C4",
          "midi": 60,
          "time": 132.5715279999988,
          "velocity": 0.9133858267716536,
          "duration": 0.4047622083333522
        },
        {
          "name": "E4",
          "midi": 64,
          "time": 132.5715279999988,
          "velocity": 0.8582677165354331,
          "duration": 0.4047622083333522
        },
        {
          "name": "C2",
          "midi": 36,
          "time": 132.5715279999988,
          "velocity": 0.84251968503937,
          "duration": 0.628571900000054
        },
        {
          "name": "F#2",
          "midi": 42,
          "time": 132.5715279999988,
          "velocity": 0.6771653543307087,
          "duration": 0.047619083333330536
        },
        {
          "name": "E5",
          "midi": 76,
          "time": 132.85724249999882,
          "velocity": 0.7244094488188977,
          "duration": 0.29523831666671185
        },
        {
          "name": "C4",
          "midi": 60,
          "time": 132.85724249999882,
          "velocity": 0.6299212598425197,
          "duration": 0.4047622083333806
        },
        {
          "name": "E4",
          "midi": 64,
          "time": 132.85724249999882,
          "velocity": 0.6456692913385826,
          "duration": 0.2619049583333606
        },
        {
          "name": "F#2",
          "midi": 42,
          "time": 132.85724249999882,
          "velocity": 0.6771653543307087,
          "duration": 0.047619083333330536
        },
        {
          "name": "D4",
          "midi": 62,
          "time": 132.85724249999882,
          "velocity": 0.007874015748031496,
          "duration": 0.14761915833335593
        },
        {
          "name": "E4",
          "midi": 64,
          "time": 133.00009974999884,
          "velocity": 0.8582677165354331,
          "duration": 0.2619049583333606
        },
        {
          "name": "D5",
          "midi": 74,
          "time": 133.14295699999886,
          "velocity": 0.7244094488188977,
          "duration": 0.295238316666655
        },
        {
          "name": "G3",
          "midi": 55,
          "time": 133.14295699999886,
          "velocity": 0.6299212598425197,
          "duration": 0.40476220833332377
        },
        {
          "name": "C4",
          "midi": 60,
          "time": 133.14295699999886,
          "velocity": 0.8267716535433071,
          "duration": 0.40476220833332377
        },
        {
          "name": "E4",
          "midi": 64,
          "time": 133.14295699999886,
          "velocity": 0.8110236220472441,
          "duration": 1.261905708333387
        },
        {
          "name": "D2",
          "midi": 38,
          "time": 133.14295699999886,
          "velocity": 0.7716535433070866,
          "duration": 0.047619083333330536
        },
        {
          "name": "F#2",
          "midi": 42,
          "time": 133.14295699999886,
          "velocity": 0.6771653543307087,
          "duration": 0.07142862500001002
        },
        {
          "name": "D4",
          "midi": 62,
          "time": 133.14295699999886,
          "velocity": 0.007874015748031496,
          "duration": 0.1476191583333275
        },
        {
          "name": "C5",
          "midi": 72,
          "time": 133.42867149999884,
          "velocity": 0.7244094488188977,
          "duration": 0.28571450000001164
        },
        {
          "name": "G1",
          "midi": 31,
          "time": 133.42867149999884,
          "velocity": 0.7874015748031497,
          "duration": 0.07142862500001002
        },
        {
          "name": "C3",
          "midi": 48,
          "time": 133.42867149999884,
          "velocity": 0.7165354330708661,
          "duration": 0.11904770833334055
        },
        {
          "name": "G3",
          "midi": 55,
          "time": 133.42867149999884,
          "velocity": 0.8582677165354331,
          "duration": 0.6904767083333923
        },
        {
          "name": "C4",
          "midi": 60,
          "time": 133.42867149999884,
          "velocity": 0.8740157480314961,
          "duration": 0.9761912083334039
        },
        {
          "name": "C2",
          "midi": 36,
          "time": 133.42867149999884,
          "velocity": 0.84251968503937,
          "duration": 0.05714290000000233
        },
        {
          "name": "D2",
          "midi": 38,
          "time": 133.42867149999884,
          "velocity": 0.7716535433070866,
          "duration": 0.05714290000000233
        },
        {
          "name": "F#2",
          "midi": 42,
          "time": 133.42867149999884,
          "velocity": 0.6771653543307087,
          "duration": 0.05714290000000233
        },
        {
          "name": "D5",
          "midi": 74,
          "time": 133.71438599999885,
          "velocity": 0.7244094488188977,
          "duration": 0.3095240416666911
        },
        {
          "name": "C2",
          "midi": 36,
          "time": 133.71438599999885,
          "velocity": 0.7874015748031497,
          "duration": 0.047619083333330536
        },
        {
          "name": "C2",
          "midi": 36,
          "time": 133.71438599999885,
          "velocity": 0.84251968503937,
          "duration": 0.07142862500001002
        },
        {
          "name": "F#2",
          "midi": 42,
          "time": 133.71438599999885,
          "velocity": 0.6771653543307087,
          "duration": 0.05714290000000233
        },
        {
          "name": "D4",
          "midi": 62,
          "time": 133.71438599999885,
          "velocity": 0.007874015748031496,
          "duration": 0.5666670916667158
        },
        {
          "name": "E5",
          "midi": 76,
          "time": 134.00010049999887,
          "velocity": 0.7244094488188977,
          "duration": 0.4142860250000524
        },
        {
          "name": "C2",
          "midi": 36,
          "time": 134.00010049999887,
          "velocity": 0.7874015748031497,
          "duration": 0.28571450000004006
        },
        {
          "name": "C3",
          "midi": 48,
          "time": 134.00010049999887,
          "velocity": 0.6692913385826772,
          "duration": 0.11904770833336897
        },
        {
          "name": "G3",
          "midi": 55,
          "time": 134.00010049999887,
          "velocity": 0.7559055118110236,
          "duration": 0.4047622083333806
        },
        {
          "name": "G5",
          "midi": 79,
          "time": 134.00010049999887,
          "velocity": 0.7952755905511811,
          "duration": 0.4285717500000601
        },
        {
          "name": "G4",
          "midi": 67,
          "time": 134.00010049999887,
          "velocity": 0.7165354330708661,
          "duration": 0.23809541666670953
        },
        {
          "name": "C5",
          "midi": 72,
          "time": 134.00010049999887,
          "velocity": 0.6141732283464567,
          "duration": 0.02380954166667948
        },
        {
          "name": "C2",
          "midi": 36,
          "time": 134.00010049999887,
          "velocity": 0.84251968503937,
          "duration": 0.28571450000004006
        },
        {
          "name": "F#2",
          "midi": 42,
          "time": 134.00010049999887,
          "velocity": 0.6771653543307087,
          "duration": 0.04761908333335896
        },
        {
          "name": "E2",
          "midi": 40,
          "time": 134.2858149999989,
          "velocity": 0.7874015748031497,
          "duration": 0.2714287750000324
        },
        {
          "name": "E4",
          "midi": 64,
          "time": 134.2858149999989,
          "velocity": 0.7322834645669292,
          "duration": 0.47619083333339063
        },
        {
          "name": "G3",
          "midi": 55,
          "time": 134.2858149999989,
          "velocity": 0.7795275590551181,
          "duration": 0.47619083333339063
        },
        {
          "name": "C4",
          "midi": 60,
          "time": 134.2858149999989,
          "velocity": 0.8346456692913385,
          "duration": 0.47619083333339063
        },
        {
          "name": "G4",
          "midi": 67,
          "time": 134.2858149999989,
          "velocity": 0.28346456692913385,
          "duration": 0.21428587500003005
        },
        {
          "name": "E5",
          "midi": 76,
          "time": 134.2858149999989,
          "velocity": 0.8582677165354331,
          "duration": 0.3333335833333706
        },
        {
          "name": "D2",
          "midi": 38,
          "time": 134.2858149999989,
          "velocity": 0.7716535433070866,
          "duration": 0.07142862500001002
        },
        {
          "name": "F#2",
          "midi": 42,
          "time": 134.2858149999989,
          "velocity": 0.6771653543307087,
          "duration": 0.047619083333330536
        },
        {
          "name": "D5",
          "midi": 74,
          "time": 134.42867224999893,
          "velocity": 0.7244094488188977,
          "duration": 0.12857152500001234
        },
        {
          "name": "C5",
          "midi": 72,
          "time": 134.57152949999895,
          "velocity": 0.7244094488188977,
          "duration": 0.20000015000002236
        },
        {
          "name": "G1",
          "midi": 31,
          "time": 134.57152949999895,
          "velocity": 0.7874015748031497,
          "duration": 0.23809541666670953
        },
        {
          "name": "G4",
          "midi": 67,
          "time": 134.57152949999895,
          "velocity": 0.4094488188976378,
          "duration": 0.20000015000002236
        },
        {
          "name": "C5",
          "midi": 72,
          "time": 134.57152949999895,
          "velocity": 0.8267716535433071,
          "duration": 0.8523815916667843
        },
        {
          "name": "C2",
          "midi": 36,
          "time": 134.57152949999895,
          "velocity": 0.84251968503937,
          "duration": 0.07142862500001002
        },
        {
          "name": "F#2",
          "midi": 42,
          "time": 134.57152949999895,
          "velocity": 0.6771653543307087,
          "duration": 0.047619083333330536
        },
        {
          "name": "E5",
          "midi": 76,
          "time": 134.71438674999897,
          "velocity": 0.3779527559055118,
          "duration": 0.08095244166668181
        },
        {
          "name": "C2",
          "midi": 36,
          "time": 134.85724399999899,
          "velocity": 0.7874015748031497,
          "duration": 0.5714290000000801
        },
        {
          "name": "E4",
          "midi": 64,
          "time": 134.85724399999899,
          "velocity": 0.5905511811023622,
          "duration": 0.11904770833334055
        },
        {
          "name": "C4",
          "midi": 60,
          "time": 134.85724399999899,
          "velocity": 0.84251968503937,
          "duration": 0.11904770833334055
        },
        {
          "name": "D5",
          "midi": 74,
          "time": 134.85724399999899,
          "velocity": 0.7165354330708661,
          "duration": 0.10476198333333286
        },
        {
          "name": "G4",
          "midi": 67,
          "time": 134.85724399999899,
          "velocity": 0.5826771653543307,
          "duration": 1.5476202083334556
        },
        {
          "name": "C4",
          "midi": 60,
          "time": 134.85724399999899,
          "velocity": 0.7559055118110236,
          "duration": 0.6904767083334207
        },
        {
          "name": "E4",
          "midi": 64,
          "time": 134.85724399999899,
          "velocity": 0.8267716535433071,
          "duration": 0.4047622083333806
        },
        {
          "name": "G3",
          "midi": 55,
          "time": 134.85724399999899,
          "velocity": 0.6456692913385826,
          "duration": 0.6904767083334207
        },
        {
          "name": "C2",
          "midi": 36,
          "time": 134.85724399999899,
          "velocity": 0.84251968503937,
          "duration": 0.6285719000000825
        },
        {
          "name": "F#2",
          "midi": 42,
          "time": 134.85724399999899,
          "velocity": 0.6771653543307087,
          "duration": 0.047619083333330536
        },
        {
          "name": "E5",
          "midi": 76,
          "time": 135.000101249999,
          "velocity": 0.7559055118110236,
          "duration": 0.1666667916666711
        },
        {
          "name": "E4",
          "midi": 64,
          "time": 135.142958499999,
          "velocity": 0.6062992125984252,
          "duration": 0.261904958333389
        },
        {
          "name": "C5",
          "midi": 72,
          "time": 135.142958499999,
          "velocity": 0.7322834645669292,
          "duration": 1.2714295250001157
        },
        {
          "name": "F#2",
          "midi": 42,
          "time": 135.142958499999,
          "velocity": 0.6771653543307087,
          "duration": 0.04761908333335896
        },
        {
          "name": "E4",
          "midi": 64,
          "time": 135.28581574999905,
          "velocity": 0.7244094488188977,
          "duration": 0.2619049583333606
        },
        {
          "name": "C4",
          "midi": 60,
          "time": 135.42867299999907,
          "velocity": 0.8031496062992126,
          "duration": 0.4047622083333522
        },
        {
          "name": "E4",
          "midi": 64,
          "time": 135.42867299999907,
          "velocity": 0.6062992125984252,
          "duration": 0.4047622083333522
        },
        {
          "name": "G3",
          "midi": 55,
          "time": 135.42867299999907,
          "velocity": 0.7165354330708661,
          "duration": 0.4047622083333522
        },
        {
          "name": "D2",
          "midi": 38,
          "time": 135.42867299999907,
          "velocity": 0.7716535433070866,
          "duration": 0.047619083333330536
        },
        {
          "name": "F#2",
          "midi": 42,
          "time": 135.42867299999907,
          "velocity": 0.6771653543307087,
          "duration": 0.07142862500001002
        },
        {
          "name": "G1",
          "midi": 31,
          "time": 135.71438749999908,
          "velocity": 0.7874015748031497,
          "duration": 0.07142862500001002
        },
        {
          "name": "G3",
          "midi": 55,
          "time": 135.71438749999908,
          "velocity": 0.7952755905511811,
          "duration": 0.9761912083333755
        },
        {
          "name": "C4",
          "midi": 60,
          "time": 135.71438749999908,
          "velocity": 0.9291338582677166,
          "duration": 0.9761912083333755
        },
        {
          "name": "E4",
          "midi": 64,
          "time": 135.71438749999908,
          "velocity": 0.8582677165354331,
          "duration": 0.9761912083333755
        },
        {
          "name": "C2",
          "midi": 36,
          "time": 135.71438749999908,
          "velocity": 0.84251968503937,
          "duration": 0.05714290000000233
        },
        {
          "name": "D2",
          "midi": 38,
          "time": 135.71438749999908,
          "velocity": 0.7716535433070866,
          "duration": 0.05714290000000233
        },
        {
          "name": "F#2",
          "midi": 42,
          "time": 135.71438749999908,
          "velocity": 0.6771653543307087,
          "duration": 0.05714290000000233
        },
        {
          "name": "C2",
          "midi": 36,
          "time": 136.0001019999991,
          "velocity": 0.7874015748031497,
          "duration": 0.047619083333330536
        },
        {
          "name": "C2",
          "midi": 36,
          "time": 136.0001019999991,
          "velocity": 0.84251968503937,
          "duration": 0.07142862500001002
        },
        {
          "name": "F#2",
          "midi": 42,
          "time": 136.0001019999991,
          "velocity": 0.6771653543307087,
          "duration": 0.05714290000000233
        },
        {
          "name": "E5",
          "midi": 76,
          "time": 136.2858164999991,
          "velocity": 0.7244094488188977,
          "duration": 0.21428587500000162
        },
        {
          "name": "C2",
          "midi": 36,
          "time": 136.2858164999991,
          "velocity": 0.7874015748031497,
          "duration": 0.28571450000001164
        },
        {
          "name": "C3",
          "midi": 48,
          "time": 136.2858164999991,
          "velocity": 0.5826771653543307,
          "duration": 0.11904770833334055
        },
        {
          "name": "C2",
          "midi": 36,
          "time": 136.2858164999991,
          "velocity": 0.84251968503937,
          "duration": 0.5476194583333438
        },
        {
          "name": "F#2",
          "midi": 42,
          "time": 136.2858164999991,
          "velocity": 0.6771653543307087,
          "duration": 0.047619083333330536
        },
        {
          "name": "D4",
          "midi": 62,
          "time": 136.2858164999991,
          "velocity": 0.007874015748031496,
          "duration": 0.10952389166666876
        },
        {
          "name": "E5",
          "midi": 76,
          "time": 136.5715309999991,
          "velocity": 0.7244094488188977,
          "duration": 0.4047622083333522
        },
        {
          "name": "C4",
          "midi": 60,
          "time": 136.5715309999991,
          "velocity": 0.889763779527559,
          "duration": 0.6904767083333638
        },
        {
          "name": "E4",
          "midi": 64,
          "time": 136.5715309999991,
          "velocity": 0.8267716535433071,
          "duration": 0.6904767083333638
        },
        {
          "name": "G3",
          "midi": 55,
          "time": 136.5715309999991,
          "velocity": 0.7244094488188977,
          "duration": 0.4047622083333522
        },
        {
          "name": "G4",
          "midi": 67,
          "time": 136.5715309999991,
          "velocity": 0.8582677165354331,
          "duration": 0.5476194583333438
        },
        {
          "name": "D2",
          "midi": 38,
          "time": 136.5715309999991,
          "velocity": 0.7716535433070866,
          "duration": 0.07142862500001002
        },
        {
          "name": "F#2",
          "midi": 42,
          "time": 136.5715309999991,
          "velocity": 0.6771653543307087,
          "duration": 0.047619083333330536
        },
        {
          "name": "D4",
          "midi": 62,
          "time": 136.5715309999991,
          "velocity": 0.007874015748031496,
          "duration": 0.20476205833332983
        },
        {
          "name": "G1",
          "midi": 31,
          "time": 136.85724549999912,
          "velocity": 0.7874015748031497,
          "duration": 0.07142862500001002
        },
        {
          "name": "G3",
          "midi": 55,
          "time": 136.85724549999912,
          "velocity": 0.5354330708661418,
          "duration": 0.4047622083333522
        },
        {
          "name": "C2",
          "midi": 36,
          "time": 136.85724549999912,
          "velocity": 0.84251968503937,
          "duration": 0.07142862500001002
        },
        {
          "name": "F#2",
          "midi": 42,
          "time": 136.85724549999912,
          "velocity": 0.6771653543307087,
          "duration": 0.047619083333330536
        },
        {
          "name": "F5",
          "midi": 77,
          "time": 137.14295999999914,
          "velocity": 0.7244094488188977,
          "duration": 0.5476194583333722
        },
        {
          "name": "C2",
          "midi": 36,
          "time": 137.14295999999914,
          "velocity": 0.7874015748031497,
          "duration": 0.5714290000000517
        },
        {
          "name": "G3",
          "midi": 55,
          "time": 137.14295999999914,
          "velocity": 0.6141732283464567,
          "duration": 0.6904767083333923
        },
        {
          "name": "C4",
          "midi": 60,
          "time": 137.14295999999914,
          "velocity": 0.7874015748031497,
          "duration": 0.4047622083333522
        },
        {
          "name": "E4",
          "midi": 64,
          "time": 137.14295999999914,
          "velocity": 0.7165354330708661,
          "duration": 0.4047622083333522
        },
        {
          "name": "C2",
          "midi": 36,
          "time": 137.14295999999914,
          "velocity": 0.84251968503937,
          "duration": 0.8095244166667328
        },
        {
          "name": "F#2",
          "midi": 42,
          "time": 137.14295999999914,
          "velocity": 0.6771653543307087,
          "duration": 0.047619083333330536
        },
        {
          "name": "D4",
          "midi": 62,
          "time": 137.14295999999914,
          "velocity": 0.007874015748031496,
          "duration": 0.28095259166667574
        },
        {
          "name": "C4",
          "midi": 60,
          "time": 137.42867449999915,
          "velocity": 0.5433070866141733,
          "duration": 0.4047622083333806
        },
        {
          "name": "E4",
          "midi": 64,
          "time": 137.42867449999915,
          "velocity": 0.5590551181102362,
          "duration": 0.2619049583333606
        },
        {
          "name": "F#2",
          "midi": 42,
          "time": 137.42867449999915,
          "velocity": 0.6771653543307087,
          "duration": 0.047619083333330536
        },
        {
          "name": "E4",
          "midi": 64,
          "time": 137.57153174999917,
          "velocity": 0.8267716535433071,
          "duration": 0.5476194583333722
        },
        {
          "name": "E5",
          "midi": 76,
          "time": 137.7143889999992,
          "velocity": 0.7244094488188977,
          "duration": 0.2380954166666811
        },
        {
          "name": "G3",
          "midi": 55,
          "time": 137.7143889999992,
          "velocity": 0.6299212598425197,
          "duration": 0.4047622083333522
        },
        {
          "name": "C4",
          "midi": 60,
          "time": 137.7143889999992,
          "velocity": 0.7795275590551181,
          "duration": 0.4047622083333522
        },
        {
          "name": "D2",
          "midi": 38,
          "time": 137.7143889999992,
          "velocity": 0.7716535433070866,
          "duration": 0.047619083333330536
        },
        {
          "name": "F#2",
          "midi": 42,
          "time": 137.7143889999992,
          "velocity": 0.6771653543307087,
          "duration": 0.07142862500001002
        },
        {
          "name": "D4",
          "midi": 62,
          "time": 137.7143889999992,
          "velocity": 0.007874015748031496,
          "duration": 0.11904770833334055
        },
        {
          "name": "E5",
          "midi": 76,
          "time": 138.0001034999992,
          "velocity": 0.7244094488188977,
          "duration": 0.2380954166666811
        },
        {
          "name": "G1",
          "midi": 31,
          "time": 138.0001034999992,
          "velocity": 0.7874015748031497,
          "duration": 0.07142862500001002
        },
        {
          "name": "G3",
          "midi": 55,
          "time": 138.0001034999992,
          "velocity": 0.7716535433070866,
          "duration": 0.6904767083333638
        },
        {
          "name": "C4",
          "midi": 60,
          "time": 138.0001034999992,
          "velocity": 0.905511811023622,
          "duration": 0.9761912083333755
        },
        {
          "name": "E4",
          "midi": 64,
          "time": 138.0001034999992,
          "velocity": 0.8031496062992126,
          "duration": 0.9761912083333755
        },
        {
          "name": "C2",
          "midi": 36,
          "time": 138.0001034999992,
          "velocity": 0.84251968503937,
          "duration": 0.05714290000000233
        },
        {
          "name": "D2",
          "midi": 38,
          "time": 138.0001034999992,
          "velocity": 0.7716535433070866,
          "duration": 0.05714290000000233
        },
        {
          "name": "F#2",
          "midi": 42,
          "time": 138.0001034999992,
          "velocity": 0.6771653543307087,
          "duration": 0.05714290000000233
        },
        {
          "name": "D4",
          "midi": 62,
          "time": 138.0001034999992,
          "velocity": 0.007874015748031496,
          "duration": 0.11904770833334055
        },
        {
          "name": "D5",
          "midi": 74,
          "time": 138.2858179999992,
          "velocity": 0.7244094488188977,
          "duration": 0.5238099166666927
        },
        {
          "name": "C2",
          "midi": 36,
          "time": 138.2858179999992,
          "velocity": 0.7874015748031497,
          "duration": 0.05714290000000233
        },
        {
          "name": "C2",
          "midi": 36,
          "time": 138.2858179999992,
          "velocity": 0.84251968503937,
          "duration": 0.07142862500001002
        },
        {
          "name": "F#2",
          "midi": 42,
          "time": 138.2858179999992,
          "velocity": 0.6771653543307087,
          "duration": 0.05714290000000233
        },
        {
          "name": "D4",
          "midi": 62,
          "time": 138.2858179999992,
          "velocity": 0.007874015748031496,
          "duration": 0.26190495833333216
        },
        {
          "name": "C2",
          "midi": 36,
          "time": 138.57153249999922,
          "velocity": 0.7874015748031497,
          "duration": 0.28571450000001164
        },
        {
          "name": "C3",
          "midi": 48,
          "time": 138.57153249999922,
          "velocity": 0.7007874015748031,
          "duration": 0.11904770833334055
        },
        {
          "name": "G3",
          "midi": 55,
          "time": 138.57153249999922,
          "velocity": 0.7244094488188977,
          "duration": 0.4047622083333522
        },
        {
          "name": "C2",
          "midi": 36,
          "time": 138.57153249999922,
          "velocity": 0.84251968503937,
          "duration": 0.28571450000001164
        },
        {
          "name": "F#2",
          "midi": 42,
          "time": 138.57153249999922,
          "velocity": 0.6771653543307087,
          "duration": 0.047619083333330536
        },
        {
          "name": "C5",
          "midi": 72,
          "time": 138.85724699999923,
          "velocity": 0.7244094488188977,
          "duration": 0.2380954166666811
        },
        {
          "name": "E2",
          "midi": 40,
          "time": 138.85724699999923,
          "velocity": 0.7874015748031497,
          "duration": 0.28571450000001164
        },
        {
          "name": "G3",
          "midi": 55,
          "time": 138.85724699999923,
          "velocity": 0.7559055118110236,
          "duration": 0.34285740000001397
        },
        {
          "name": "C4",
          "midi": 60,
          "time": 138.85724699999923,
          "velocity": 0.8740157480314961,
          "duration": 0.29523831666668343
        },
        {
          "name": "E4",
          "midi": 64,
          "time": 138.85724699999923,
          "velocity": 0.7086614173228346,
          "duration": 0.5000003750000133
        },
        {
          "name": "D2",
          "midi": 38,
          "time": 138.85724699999923,
          "velocity": 0.7716535433070866,
          "duration": 0.07142862500001002
        },
        {
          "name": "F#2",
          "midi": 42,
          "time": 138.85724699999923,
          "velocity": 0.6771653543307087,
          "duration": 0.047619083333330536
        },
        {
          "name": "D4",
          "midi": 62,
          "time": 138.85724699999923,
          "velocity": 0.007874015748031496,
          "duration": 0.11904770833334055
        },
        {
          "name": "C5",
          "midi": 72,
          "time": 139.14296149999925,
          "velocity": 0.7244094488188977,
          "duration": 0.5238099166666927
        },
        {
          "name": "C2",
          "midi": 36,
          "time": 139.14296149999925,
          "velocity": 0.7874015748031497,
          "duration": 0.07142862500001002
        },
        {
          "name": "C4",
          "midi": 60,
          "time": 139.14296149999925,
          "velocity": 0.6141732283464567,
          "duration": 0.11904770833334055
        },
        {
          "name": "C2",
          "midi": 36,
          "time": 139.14296149999925,
          "velocity": 0.84251968503937,
          "duration": 0.24761923333332447
        },
        {
          "name": "F#2",
          "midi": 42,
          "time": 139.14296149999925,
          "velocity": 0.6771653543307087,
          "duration": 0.047619083333330536
        },
        {
          "name": "D4",
          "midi": 62,
          "time": 139.14296149999925,
          "velocity": 0.007874015748031496,
          "duration": 0.26190495833333216
        },
        {
          "name": "G1",
          "midi": 31,
          "time": 139.42867599999926,
          "velocity": 0.7874015748031497,
          "duration": 0.6190480833333538
        },
        {
          "name": "G2",
          "midi": 43,
          "time": 139.42867599999926,
          "velocity": 0.3937007874015748,
          "duration": 0.11904770833334055
        },
        {
          "name": "D3",
          "midi": 50,
          "time": 139.42867599999926,
          "velocity": 0.6692913385826772,
          "duration": 0.11904770833334055
        },
        {
          "name": "G3",
          "midi": 55,
          "time": 139.42867599999926,
          "velocity": 0.5826771653543307,
          "duration": 0.11904770833334055
        },
        {
          "name": "B3",
          "midi": 59,
          "time": 139.42867599999926,
          "velocity": 0.8110236220472441,
          "duration": 0.11904770833334055
        },
        {
          "name": "G4",
          "midi": 67,
          "time": 139.42867599999926,
          "velocity": 0.4251968503937008,
          "duration": 0.22380969166667342
        },
        {
          "name": "D5",
          "midi": 74,
          "time": 139.42867599999926,
          "velocity": 0.84251968503937,
          "duration": 0.5095241916666851
        },
        {
          "name": "D4",
          "midi": 62,
          "time": 139.42867599999926,
          "velocity": 0.5984251968503937,
          "duration": 0.12857152500001234
        },
        {
          "name": "B3",
          "midi": 59,
          "time": 139.42867599999926,
          "velocity": 0.6299212598425197,
          "duration": 0.5476194583333438
        },
        {
          "name": "G3",
          "midi": 55,
          "time": 139.42867599999926,
          "velocity": 0.6220472440944882,
          "duration": 0.6904767083333638
        },
        {
          "name": "D4",
          "midi": 62,
          "time": 139.42867599999926,
          "velocity": 0.6456692913385826,
          "duration": 0.4761908333333338
        },
        {
          "name": "C2",
          "midi": 36,
          "time": 139.42867599999926,
          "velocity": 0.84251968503937,
          "duration": 0.5714290000000233
        },
        {
          "name": "F#2",
          "midi": 42,
          "time": 139.42867599999926,
          "velocity": 0.6771653543307087,
          "duration": 0.047619083333330536
        },
        {
          "name": "B4",
          "midi": 71,
          "time": 139.71439049999927,
          "velocity": 0.7244094488188977,
          "duration": 0.6285719000000256
        },
        {
          "name": "G4",
          "midi": 67,
          "time": 139.71439049999927,
          "velocity": 0.6220472440944882,
          "duration": 0.21428587500000162
        },
        {
          "name": "D4",
          "midi": 62,
          "time": 139.71439049999927,
          "velocity": 0.7007874015748031,
          "duration": 0.26190495833333216
        },
        {
          "name": "F#2",
          "midi": 42,
          "time": 139.71439049999927,
          "velocity": 0.6771653543307087,
          "duration": 0.047619083333330536
        },
        {
          "name": "D4",
          "midi": 62,
          "time": 139.71439049999927,
          "velocity": 0.007874015748031496,
          "duration": 0.6190480833333538
        },
        {
          "name": "D4",
          "midi": 62,
          "time": 139.85724774999926,
          "velocity": 0.6456692913385826,
          "duration": 0.5904766333333669
        },
        {
          "name": "B3",
          "midi": 59,
          "time": 139.85724774999926,
          "velocity": 0.6062992125984252,
          "duration": 0.5476194583333722
        },
        {
          "name": "G3",
          "midi": 55,
          "time": 140.00010499999928,
          "velocity": 0.6850393700787402,
          "duration": 0.4047622083333522
        },
        {
          "name": "D2",
          "midi": 38,
          "time": 140.00010499999928,
          "velocity": 0.7716535433070866,
          "duration": 0.047619083333330536
        },
        {
          "name": "F#2",
          "midi": 42,
          "time": 140.00010499999928,
          "velocity": 0.6771653543307087,
          "duration": 0.07142862500001002
        },
        {
          "name": "G1",
          "midi": 31,
          "time": 140.2858194999993,
          "velocity": 0.7874015748031497,
          "duration": 0.047619083333330536
        },
        {
          "name": "G3",
          "midi": 55,
          "time": 140.2858194999993,
          "velocity": 0.6299212598425197,
          "duration": 0.6904767083333638
        },
        {
          "name": "B3",
          "midi": 59,
          "time": 140.2858194999993,
          "velocity": 0.7401574803149606,
          "duration": 0.6904767083333638
        },
        {
          "name": "B4",
          "midi": 71,
          "time": 140.2858194999993,
          "velocity": 0.7716535433070866,
          "duration": 0.36666694166669345
        },
        {
          "name": "G4",
          "midi": 67,
          "time": 140.2858194999993,
          "velocity": 0.7637795275590551,
          "duration": 0.05714290000000233
        },
        {
          "name": "D4",
          "midi": 62,
          "time": 140.2858194999993,
          "velocity": 0.6220472440944882,
          "duration": 0.34285740000001397
        },
        {
          "name": "C2",
          "midi": 36,
          "time": 140.2858194999993,
          "velocity": 0.84251968503937,
          "duration": 0.05714290000000233
        },
        {
          "name": "D2",
          "midi": 38,
          "time": 140.2858194999993,
          "velocity": 0.7716535433070866,
          "duration": 0.05714290000000233
        },
        {
          "name": "F#2",
          "midi": 42,
          "time": 140.2858194999993,
          "velocity": 0.6771653543307087,
          "duration": 0.05714290000000233
        },
        {
          "name": "G1",
          "midi": 31,
          "time": 140.5715339999993,
          "velocity": 0.7874015748031497,
          "duration": 0.5238099166666927
        },
        {
          "name": "B4",
          "midi": 71,
          "time": 140.5715339999993,
          "velocity": 0.6062992125984252,
          "duration": 0.6047623583333461
        },
        {
          "name": "G4",
          "midi": 67,
          "time": 140.5715339999993,
          "velocity": 0.7322834645669292,
          "duration": 0.07142862500001002
        },
        {
          "name": "D4",
          "midi": 62,
          "time": 140.5715339999993,
          "velocity": 0.5984251968503937,
          "duration": 0.6904767083333638
        },
        {
          "name": "C2",
          "midi": 36,
          "time": 140.5715339999993,
          "velocity": 0.84251968503937,
          "duration": 0.07142862500001002
        },
        {
          "name": "F#2",
          "midi": 42,
          "time": 140.5715339999993,
          "velocity": 0.6771653543307087,
          "duration": 0.05714290000000233
        },
        {
          "name": "G3",
          "midi": 55,
          "time": 140.85724849999932,
          "velocity": 0.6692913385826772,
          "duration": 0.4047622083333522
        },
        {
          "name": "B3",
          "midi": 59,
          "time": 140.85724849999932,
          "velocity": 0.6141732283464567,
          "duration": 0.4047622083333522
        },
        {
          "name": "C2",
          "midi": 36,
          "time": 140.85724849999932,
          "velocity": 0.84251968503937,
          "duration": 0.28571450000001164
        },
        {
          "name": "F#2",
          "midi": 42,
          "time": 140.85724849999932,
          "velocity": 0.6771653543307087,
          "duration": 0.047619083333330536
        },
        {
          "name": "B1",
          "midi": 35,
          "time": 141.14296299999933,
          "velocity": 0.7874015748031497,
          "duration": 0.21428587500000162
        },
        {
          "name": "G3",
          "midi": 55,
          "time": 141.14296299999933,
          "velocity": 0.7007874015748031,
          "duration": 0.36666694166669345
        },
        {
          "name": "B3",
          "midi": 59,
          "time": 141.14296299999933,
          "velocity": 0.8110236220472441,
          "duration": 0.4047622083333522
        },
        {
          "name": "D4",
          "midi": 62,
          "time": 141.14296299999933,
          "velocity": 0.7952755905511811,
          "duration": 0.3333335833333422
        },
        {
          "name": "D2",
          "midi": 38,
          "time": 141.14296299999933,
          "velocity": 0.7716535433070866,
          "duration": 0.07142862500001002
        },
        {
          "name": "F#2",
          "midi": 42,
          "time": 141.14296299999933,
          "velocity": 0.6771653543307087,
          "duration": 0.047619083333330536
        },
        {
          "name": "D2",
          "midi": 38,
          "time": 141.42867749999934,
          "velocity": 0.7874015748031497,
          "duration": 0.2714287750000324
        },
        {
          "name": "G3",
          "midi": 55,
          "time": 141.42867749999934,
          "velocity": 0.6299212598425197,
          "duration": 0.11904770833334055
        },
        {
          "name": "B3",
          "midi": 59,
          "time": 141.42867749999934,
          "velocity": 0.7322834645669292,
          "duration": 0.2476192333333529
        },
        {
          "name": "A4",
          "midi": 69,
          "time": 141.42867749999934,
          "velocity": 0.6299212598425197,
          "duration": 0.05714290000000233
        },
        {
          "name": "D4",
          "midi": 62,
          "time": 141.42867749999934,
          "velocity": 0.5669291338582677,
          "duration": 0.17619060833334288
        },
        {
          "name": "C2",
          "midi": 36,
          "time": 141.42867749999934,
          "velocity": 0.84251968503937,
          "duration": 0.07142862500001002
        },
        {
          "name": "F#2",
          "midi": 42,
          "time": 141.42867749999934,
          "velocity": 0.6771653543307087,
          "duration": 0.047619083333330536
        },
        {
          "name": "E2",
          "midi": 40,
          "time": 141.71439199999938,
          "velocity": 0.7874015748031497,
          "duration": 0.11904770833334055
        },
        {
          "name": "B2",
          "midi": 47,
          "time": 141.71439199999938,
          "velocity": 0.7559055118110236,
          "duration": 0.11904770833334055
        },
        {
          "name": "E3",
          "midi": 52,
          "time": 141.71439199999938,
          "velocity": 0.7637795275590551,
          "duration": 0.11904770833334055
        },
        {
          "name": "B3",
          "midi": 59,
          "time": 141.71439199999938,
          "velocity": 0.8818897637795275,
          "duration": 0.11904770833334055
        },
        {
          "name": "D#2",
          "midi": 39,
          "time": 141.71439199999938,
          "velocity": 0.5039370078740157,
          "duration": 0.11904770833334055
        },
        {
          "name": "E4",
          "midi": 64,
          "time": 141.71439199999938,
          "velocity": 0.7559055118110236,
          "duration": 0.11904770833334055
        },
        {
          "name": "G3",
          "midi": 55,
          "time": 141.71439199999938,
          "velocity": 0.6141732283464567,
          "duration": 0.11904770833334055
        },
        {
          "name": "E2",
          "midi": 40,
          "time": 141.71439199999938,
          "velocity": 0.3700787401574803,
          "duration": 0.6047623583333461
        },
        {
          "name": "G4",
          "midi": 67,
          "time": 141.71439199999938,
          "velocity": 0.7559055118110236,
          "duration": 0.34285740000001397
        },
        {
          "name": "D4",
          "midi": 62,
          "time": 141.71439199999938,
          "velocity": 0.6062992125984252,
          "duration": 0.22380969166667342
        },
        {
          "name": "A3",
          "midi": 57,
          "time": 141.71439199999938,
          "velocity": 0.8503937007874016,
          "duration": 0.809524416666676
        },
        {
          "name": "C2",
          "midi": 36,
          "time": 141.71439199999938,
          "velocity": 0.84251968503937,
          "duration": 0.5714290000000233
        },
        {
          "name": "F#2",
          "midi": 42,
          "time": 141.71439199999938,
          "velocity": 0.6771653543307087,
          "duration": 0.047619083333330536
        },
        {
          "name": "G4",
          "midi": 67,
          "time": 142.0001064999994,
          "velocity": 0.7244094488188977,
          "duration": 0.22380969166667342
        },
        {
          "name": "B3",
          "midi": 59,
          "time": 142.0001064999994,
          "velocity": 0.5826771653543307,
          "duration": 0.11904770833334055
        },
        {
          "name": "E4",
          "midi": 64,
          "time": 142.0001064999994,
          "velocity": 0.6062992125984252,
          "duration": 0.11904770833334055
        },
        {
          "name": "B4",
          "midi": 71,
          "time": 142.0001064999994,
          "velocity": 0.6062992125984252,
          "duration": 0.08095244166668181
        },
        {
          "name": "D4",
          "midi": 62,
          "time": 142.0001064999994,
          "velocity": 0.44881889763779526,
          "duration": 0.05714290000000233
        },
        {
          "name": "F#2",
          "midi": 42,
          "time": 142.0001064999994,
          "velocity": 0.6771653543307087,
          "duration": 0.047619083333330536
        },
        {
          "name": "D4",
          "midi": 62,
          "time": 142.0001064999994,
          "velocity": 0.007874015748031496,
          "duration": 0.11428580000000466
        },
        {
          "name": "E4",
          "midi": 64,
          "time": 142.1429637499994,
          "velocity": 0.7795275590551181,
          "duration": 0.11904770833331213
        },
        {
          "name": "B3",
          "midi": 59,
          "time": 142.1429637499994,
          "velocity": 0.6614173228346457,
          "duration": 0.11904770833331213
        },
        {
          "name": "G4",
          "midi": 67,
          "time": 142.2858209999994,
          "velocity": 0.7244094488188977,
          "duration": 0.20000014999999394
        },
        {
          "name": "G3",
          "midi": 55,
          "time": 142.2858209999994,
          "velocity": 0.5590551181102362,
          "duration": 0.11904770833334055
        },
        {
          "name": "D2",
          "midi": 38,
          "time": 142.2858209999994,
          "velocity": 0.7716535433070866,
          "duration": 0.047619083333330536
        },
        {
          "name": "F#2",
          "midi": 42,
          "time": 142.2858209999994,
          "velocity": 0.6771653543307087,
          "duration": 0.07142862500001002
        },
        {
          "name": "D4",
          "midi": 62,
          "time": 142.2858209999994,
          "velocity": 0.007874015748031496,
          "duration": 0.10000007499999697
        },
        {
          "name": "G4",
          "midi": 67,
          "time": 142.57153549999938,
          "velocity": 0.7244094488188977,
          "duration": 0.05714290000000233
        },
        {
          "name": "B1",
          "midi": 35,
          "time": 142.57153549999938,
          "velocity": 0.7874015748031497,
          "duration": 0.047619083333330536
        },
        {
          "name": "E3",
          "midi": 52,
          "time": 142.57153549999938,
          "velocity": 0.7244094488188977,
          "duration": 0.11904770833331213
        },
        {
          "name": "G3",
          "midi": 55,
          "time": 142.57153549999938,
          "velocity": 0.7795275590551181,
          "duration": 0.11904770833331213
        },
        {
          "name": "B3",
          "midi": 59,
          "time": 142.57153549999938,
          "velocity": 0.8818897637795275,
          "duration": 0.11904770833331213
        },
        {
          "name": "E4",
          "midi": 64,
          "time": 142.57153549999938,
          "velocity": 0.7086614173228346,
          "duration": 0.05714290000000233
        },
        {
          "name": "E4",
          "midi": 64,
          "time": 142.57153549999938,
          "velocity": 0.6771653543307087,
          "duration": 0.11904770833331213
        },
        {
          "name": "G4",
          "midi": 67,
          "time": 142.57153549999938,
          "velocity": 0.7322834645669292,
          "duration": 0.17619060833331446
        },
        {
          "name": "B4",
          "midi": 71,
          "time": 142.57153549999938,
          "velocity": 0.6299212598425197,
          "duration": 0.047619083333330536
        },
        {
          "name": "B3",
          "midi": 59,
          "time": 142.57153549999938,
          "velocity": 0.889763779527559,
          "duration": 0.6904767083333354
        },
        {
          "name": "C2",
          "midi": 36,
          "time": 142.57153549999938,
          "velocity": 0.84251968503937,
          "duration": 0.05714290000000233
        },
        {
          "name": "D2",
          "midi": 38,
          "time": 142.57153549999938,
          "velocity": 0.7716535433070866,
          "duration": 0.05714290000000233
        },
        {
          "name": "F#2",
          "midi": 42,
          "time": 142.57153549999938,
          "velocity": 0.6771653543307087,
          "duration": 0.05714290000000233
        },
        {
          "name": "D4",
          "midi": 62,
          "time": 142.57153549999938,
          "velocity": 0.007874015748031496,
          "duration": 0.09047625833332518
        },
        {
          "name": "A4",
          "midi": 69,
          "time": 142.85724999999937,
          "velocity": 0.7244094488188977,
          "duration": 0.27142877500000395
        },
        {
          "name": "E2",
          "midi": 40,
          "time": 142.85724999999937,
          "velocity": 0.7874015748031497,
          "duration": 0.05714290000000233
        },
        {
          "name": "B4",
          "midi": 71,
          "time": 142.85724999999937,
          "velocity": 0.6535433070866141,
          "duration": 0.17619060833334288
        },
        {
          "name": "G4",
          "midi": 67,
          "time": 142.85724999999937,
          "velocity": 0.7952755905511811,
          "duration": 0.17619060833334288
        },
        {
          "name": "E4",
          "midi": 64,
          "time": 142.85724999999937,
          "velocity": 0.6929133858267716,
          "duration": 0.17619060833334288
        },
        {
          "name": "C2",
          "midi": 36,
          "time": 142.85724999999937,
          "velocity": 0.84251968503937,
          "duration": 0.07142862500001002
        },
        {
          "name": "F#2",
          "midi": 42,
          "time": 142.85724999999937,
          "velocity": 0.6771653543307087,
          "duration": 0.05714290000000233
        },
        {
          "name": "D4",
          "midi": 62,
          "time": 142.85724999999937,
          "velocity": 0.007874015748031496,
          "duration": 0.13809534166668413
        },
        {
          "name": "B4",
          "midi": 71,
          "time": 143.14296449999938,
          "velocity": 0.7244094488188977,
          "duration": 0.27142877500000395
        },
        {
          "name": "E2",
          "midi": 40,
          "time": 143.14296449999938,
          "velocity": 0.7874015748031497,
          "duration": 0.5476194583333722
        },
        {
          "name": "B2",
          "midi": 47,
          "time": 143.14296449999938,
          "velocity": 0.5196850393700787,
          "duration": 0.11904770833334055
        },
        {
          "name": "G3",
          "midi": 55,
          "time": 143.14296449999938,
          "velocity": 0.8346456692913385,
          "duration": 0.11904770833334055
        },
        {
          "name": "B3",
          "midi": 59,
          "time": 143.14296449999938,
          "velocity": 0.7165354330708661,
          "duration": 0.4047622083333522
        },
        {
          "name": "E4",
          "midi": 64,
          "time": 143.14296449999938,
          "velocity": 0.6299212598425197,
          "duration": 0.11904770833334055
        },
        {
          "name": "C2",
          "midi": 36,
          "time": 143.14296449999938,
          "velocity": 0.84251968503937,
          "duration": 0.28571450000001164
        },
        {
          "name": "F#2",
          "midi": 42,
          "time": 143.14296449999938,
          "velocity": 0.6771653543307087,
          "duration": 0.047619083333330536
        },
        {
          "name": "D4",
          "midi": 62,
          "time": 143.14296449999938,
          "velocity": 0.007874015748031496,
          "duration": 0.13809534166668413
        },
        {
          "name": "A4",
          "midi": 69,
          "time": 143.4286789999994,
          "velocity": 0.7244094488188977,
          "duration": 0.28095259166670417
        },
        {
          "name": "B3",
          "midi": 59,
          "time": 143.4286789999994,
          "velocity": 0.8346456692913385,
          "duration": 0.3904764833333729
        },
        {
          "name": "E4",
          "midi": 64,
          "time": 143.4286789999994,
          "velocity": 0.7401574803149606,
          "duration": 0.11904770833334055
        },
        {
          "name": "D2",
          "midi": 38,
          "time": 143.4286789999994,
          "velocity": 0.7716535433070866,
          "duration": 0.07142862500001002
        },
        {
          "name": "F#2",
          "midi": 42,
          "time": 143.4286789999994,
          "velocity": 0.6771653543307087,
          "duration": 0.047619083333330536
        },
        {
          "name": "D4",
          "midi": 62,
          "time": 143.4286789999994,
          "velocity": 0.007874015748031496,
          "duration": 0.16190488333336361
        },
        {
          "name": "E2",
          "midi": 40,
          "time": 143.5715362499994,
          "velocity": 0.3700787401574803,
          "duration": 0.11904770833334055
        },
        {
          "name": "G4",
          "midi": 67,
          "time": 143.71439349999943,
          "velocity": 0.7244094488188977,
          "duration": 0.2714287750000324
        },
        {
          "name": "B1",
          "midi": 35,
          "time": 143.71439349999943,
          "velocity": 0.7874015748031497,
          "duration": 0.21428587500003005
        },
        {
          "name": "B3",
          "midi": 59,
          "time": 143.71439349999943,
          "velocity": 0.7401574803149606,
          "duration": 0.11904770833334055
        },
        {
          "name": "E4",
          "midi": 64,
          "time": 143.71439349999943,
          "velocity": 0.6692913385826772,
          "duration": 0.11904770833334055
        },
        {
          "name": "C2",
          "midi": 36,
          "time": 143.71439349999943,
          "velocity": 0.84251968503937,
          "duration": 0.07142862500001002
        },
        {
          "name": "F#2",
          "midi": 42,
          "time": 143.71439349999943,
          "velocity": 0.6771653543307087,
          "duration": 0.047619083333330536
        },
        {
          "name": "D4",
          "midi": 62,
          "time": 143.71439349999943,
          "velocity": 0.007874015748031496,
          "duration": 0.13809534166668413
        },
        {
          "name": "G4",
          "midi": 67,
          "time": 144.00010799999947,
          "velocity": 0.7244094488188977,
          "duration": 0.27619068333333985
        },
        {
          "name": "C2",
          "midi": 36,
          "time": 144.00010799999947,
          "velocity": 0.7874015748031497,
          "duration": 0.5714290000000517
        },
        {
          "name": "C3",
          "midi": 48,
          "time": 144.00010799999947,
          "velocity": 0.48031496062992124,
          "duration": 0.11904770833334055
        },
        {
          "name": "C4",
          "midi": 60,
          "time": 144.00010799999947,
          "velocity": 0.5354330708661418,
          "duration": 0.11904770833334055
        },
        {
          "name": "G3",
          "midi": 55,
          "time": 144.00010799999947,
          "velocity": 0.7165354330708661,
          "duration": 0.11904770833334055
        },
        {
          "name": "E4",
          "midi": 64,
          "time": 144.00010799999947,
          "velocity": 0.7086614173228346,
          "duration": 0.11904770833334055
        },
        {
          "name": "E4",
          "midi": 64,
          "time": 144.00010799999947,
          "velocity": 0.6771653543307087,
          "duration": 0.2380954166666811
        },
        {
          "name": "C5",
          "midi": 72,
          "time": 144.00010799999947,
          "velocity": 0.6456692913385826,
          "duration": 0.414286025000024
        },
        {
          "name": "B3",
          "midi": 59,
          "time": 144.00010799999947,
          "velocity": 0.8110236220472441,
          "duration": 0.7714291500000456
        },
        {
          "name": "C2",
          "midi": 36,
          "time": 144.00010799999947,
          "velocity": 0.84251968503937,
          "duration": 0.8333339583333839
        },
        {
          "name": "F#2",
          "midi": 42,
          "time": 144.00010799999947,
          "velocity": 0.6771653543307087,
          "duration": 0.047619083333330536
        },
        {
          "name": "D4",
          "midi": 62,
          "time": 144.00010799999947,
          "velocity": 0.007874015748031496,
          "duration": 0.13809534166668413
        },
        {
          "name": "F#4",
          "midi": 66,
          "time": 144.28582249999948,
          "velocity": 0.7244094488188977,
          "duration": 0.10476198333333286
        },
        {
          "name": "E4",
          "midi": 64,
          "time": 144.28582249999948,
          "velocity": 0.5354330708661418,
          "duration": 0.10476198333333286
        },
        {
          "name": "G4",
          "midi": 67,
          "time": 144.28582249999948,
          "velocity": 0.7086614173228346,
          "duration": 0.12857152500001234
        },
        {
          "name": "E4",
          "midi": 64,
          "time": 144.28582249999948,
          "velocity": 0.5826771653543307,
          "duration": 0.11904770833334055
        },
        {
          "name": "F#2",
          "midi": 42,
          "time": 144.28582249999948,
          "velocity": 0.6771653543307087,
          "duration": 0.047619083333330536
        },
        {
          "name": "E4",
          "midi": 64,
          "time": 144.4286797499995,
          "velocity": 0.7244094488188977,
          "duration": 0.11904770833334055
        },
        {
          "name": "E4",
          "midi": 64,
          "time": 144.4286797499995,
          "velocity": 0.7795275590551181,
          "duration": 0.5000003750000417
        },
        {
          "name": "C4",
          "midi": 60,
          "time": 144.4286797499995,
          "velocity": 0.4251968503937008,
          "duration": 0.11904770833334055
        },
        {
          "name": "C4",
          "midi": 60,
          "time": 144.57153699999952,
          "velocity": 0.7244094488188977,
          "duration": 0.11904770833334055
        },
        {
          "name": "G3",
          "midi": 55,
          "time": 144.57153699999952,
          "velocity": 0.6456692913385826,
          "duration": 0.11904770833334055
        },
        {
          "name": "D2",
          "midi": 38,
          "time": 144.57153699999952,
          "velocity": 0.7716535433070866,
          "duration": 0.047619083333330536
        },
        {
          "name": "F#2",
          "midi": 42,
          "time": 144.57153699999952,
          "velocity": 0.6771653543307087,
          "duration": 0.07142862500001002
        },
        {
          "name": "G1",
          "midi": 31,
          "time": 144.85725149999953,
          "velocity": 0.7874015748031497,
          "duration": 0.05714290000000233
        },
        {
          "name": "G3",
          "midi": 55,
          "time": 144.85725149999953,
          "velocity": 0.7165354330708661,
          "duration": 0.11904770833334055
        },
        {
          "name": "C4",
          "midi": 60,
          "time": 144.85725149999953,
          "velocity": 0.8740157480314961,
          "duration": 0.047619083333330536
        },
        {
          "name": "E4",
          "midi": 64,
          "time": 144.85725149999953,
          "velocity": 0.8110236220472441,
          "duration": 0.11904770833334055
        },
        {
          "name": "E4",
          "midi": 64,
          "time": 144.85725149999953,
          "velocity": 0.6771653543307087,
          "duration": 0.6190480833333538
        },
        {
          "name": "G4",
          "midi": 67,
          "time": 144.85725149999953,
          "velocity": 0.6692913385826772,
          "duration": 0.07142862500001002
        },
        {
          "name": "C4",
          "midi": 60,
          "time": 144.85725149999953,
          "velocity": 0.5118110236220472,
          "duration": 0.11904770833334055
        },
        {
          "name": "C4",
          "midi": 60,
          "time": 144.85725149999953,
          "velocity": 0.7637795275590551,
          "duration": 0.6190480833333538
        },
        {
          "name": "C2",
          "midi": 36,
          "time": 144.85725149999953,
          "velocity": 0.84251968503937,
          "duration": 0.05714290000000233
        },
        {
          "name": "D2",
          "midi": 38,
          "time": 144.85725149999953,
          "velocity": 0.7716535433070866,
          "duration": 0.05714290000000233
        },
        {
          "name": "F#2",
          "midi": 42,
          "time": 144.85725149999953,
          "velocity": 0.6771653543307087,
          "duration": 0.05714290000000233
        },
        {
          "name": "C2",
          "midi": 36,
          "time": 145.14296599999955,
          "velocity": 0.7874015748031497,
          "duration": 0.03333335833332285
        },
        {
          "name": "G4",
          "midi": 67,
          "time": 145.14296599999955,
          "velocity": 0.7086614173228346,
          "duration": 0.3333335833333422
        },
        {
          "name": "E4",
          "midi": 64,
          "time": 145.14296599999955,
          "velocity": 0.7244094488188977,
          "duration": 0.6904767083333638
        },
        {
          "name": "C4",
          "midi": 60,
          "time": 145.14296599999955,
          "velocity": 0.6220472440944882,
          "duration": 0.6904767083333638
        },
        {
          "name": "C2",
          "midi": 36,
          "time": 145.14296599999955,
          "velocity": 0.84251968503937,
          "duration": 0.07142862500001002
        },
        {
          "name": "F#2",
          "midi": 42,
          "time": 145.14296599999955,
          "velocity": 0.6771653543307087,
          "duration": 0.05714290000000233
        },
        {
          "name": "C2",
          "midi": 36,
          "time": 145.42868049999956,
          "velocity": 0.7874015748031497,
          "duration": 0.28571450000001164
        },
        {
          "name": "C3",
          "midi": 48,
          "time": 145.42868049999956,
          "velocity": 0.7795275590551181,
          "duration": 0.11904770833334055
        },
        {
          "name": "C2",
          "midi": 36,
          "time": 145.42868049999956,
          "velocity": 0.84251968503937,
          "duration": 0.5238099166666927
        },
        {
          "name": "F#2",
          "midi": 42,
          "time": 145.42868049999956,
          "velocity": 0.6771653543307087,
          "duration": 0.047619083333330536
        },
        {
          "name": "C3",
          "midi": 48,
          "time": 145.71439499999957,
          "velocity": 0.7086614173228346,
          "duration": 0.11904770833334055
        },
        {
          "name": "G3",
          "midi": 55,
          "time": 145.71439499999957,
          "velocity": 0.6771653543307087,
          "duration": 0.11904770833334055
        },
        {
          "name": "C4",
          "midi": 60,
          "time": 145.71439499999957,
          "velocity": 0.7637795275590551,
          "duration": 0.4047622083333522
        },
        {
          "name": "E4",
          "midi": 64,
          "time": 145.71439499999957,
          "velocity": 0.6299212598425197,
          "duration": 0.17619060833334288
        },
        {
          "name": "D2",
          "midi": 38,
          "time": 145.71439499999957,
          "velocity": 0.7716535433070866,
          "duration": 0.07142862500001002
        },
        {
          "name": "F#2",
          "midi": 42,
          "time": 145.71439499999957,
          "velocity": 0.6771653543307087,
          "duration": 0.047619083333330536
        },
        {
          "name": "G1",
          "midi": 31,
          "time": 146.00010949999958,
          "velocity": 0.7874015748031497,
          "duration": 0.07142862500001002
        },
        {
          "name": "C4",
          "midi": 60,
          "time": 146.00010949999958,
          "velocity": 0.6456692913385826,
          "duration": 0.2380954166666811
        },
        {
          "name": "C2",
          "midi": 36,
          "time": 146.00010949999958,
          "velocity": 0.84251968503937,
          "duration": 0.07142862500001002
        },
        {
          "name": "F#2",
          "midi": 42,
          "time": 146.00010949999958,
          "velocity": 0.6771653543307087,
          "duration": 0.047619083333330536
        },
        {
          "name": "D2",
          "midi": 38,
          "time": 146.2858239999996,
          "velocity": 0.7874015748031497,
          "duration": 0.6190480833333538
        },
        {
          "name": "A2",
          "midi": 45,
          "time": 146.2858239999996,
          "velocity": 0.4251968503937008,
          "duration": 0.11904770833334055
        },
        {
          "name": "A3",
          "midi": 57,
          "time": 146.2858239999996,
          "velocity": 0.6299212598425197,
          "duration": 0.11904770833334055
        },
        {
          "name": "D4",
          "midi": 62,
          "time": 146.2858239999996,
          "velocity": 0.4330708661417323,
          "duration": 0.11904770833334055
        },
        {
          "name": "F#4",
          "midi": 66,
          "time": 146.2858239999996,
          "velocity": 0.5826771653543307,
          "duration": 0.20000015000002236
        },
        {
          "name": "D4",
          "midi": 62,
          "time": 146.2858239999996,
          "velocity": 0.5590551181102362,
          "duration": 0.19047633333335057
        },
        {
          "name": "A4",
          "midi": 69,
          "time": 146.2858239999996,
          "velocity": 0.6535433070866141,
          "duration": 0.20000015000002236
        },
        {
          "name": "D4",
          "midi": 62,
          "time": 146.2858239999996,
          "velocity": 0.7007874015748031,
          "duration": 0.366666941666665
        },
        {
          "name": "A3",
          "midi": 57,
          "time": 146.2858239999996,
          "velocity": 0.6141732283464567,
          "duration": 0.9761912083334607
        },
        {
          "name": "F#4",
          "midi": 66,
          "time": 146.2858239999996,
          "velocity": 0.7165354330708661,
          "duration": 0.366666941666665
        },
        {
          "name": "C2",
          "midi": 36,
          "time": 146.2858239999996,
          "velocity": 0.84251968503937,
          "duration": 0.5714290000000233
        },
        {
          "name": "F#2",
          "midi": 42,
          "time": 146.2858239999996,
          "velocity": 0.6771653543307087,
          "duration": 0.047619083333330536
        },
        {
          "name": "D4",
          "midi": 62,
          "time": 146.5715384999996,
          "velocity": 0.4094488188976378,
          "duration": 0.11904770833331213
        },
        {
          "name": "F#4",
          "midi": 66,
          "time": 146.5715384999996,
          "velocity": 0.5511811023622047,
          "duration": 0.557143275000044
        },
        {
          "name": "D4",
          "midi": 62,
          "time": 146.5715384999996,
          "velocity": 0.5511811023622047,
          "duration": 0.26190495833333216
        },
        {
          "name": "F#2",
          "midi": 42,
          "time": 146.5715384999996,
          "velocity": 0.6771653543307087,
          "duration": 0.047619083333330536
        },
        {
          "name": "D4",
          "midi": 62,
          "time": 146.7143957499996,
          "velocity": 0.6692913385826772,
          "duration": 0.28095259166670417
        },
        {
          "name": "F#4",
          "midi": 66,
          "time": 146.85725299999962,
          "velocity": 0.7244094488188977,
          "duration": 0.3571431250000785
        },
        {
          "name": "F#3",
          "midi": 54,
          "time": 146.85725299999962,
          "velocity": 0.5905511811023622,
          "duration": 0.11904770833334055
        },
        {
          "name": "D2",
          "midi": 38,
          "time": 146.85725299999962,
          "velocity": 0.7716535433070866,
          "duration": 0.2619049583333606
        },
        {
          "name": "F#2",
          "midi": 42,
          "time": 146.85725299999962,
          "velocity": 0.6771653543307087,
          "duration": 0.07142862500001002
        },
        {
          "name": "D4",
          "midi": 62,
          "time": 146.85725299999962,
          "velocity": 0.007874015748031496,
          "duration": 0.3428574000000708
        },
        {
          "name": "G4",
          "midi": 67,
          "time": 147.14296749999966,
          "velocity": 0.7244094488188977,
          "duration": 0.20000015000005078
        },
        {
          "name": "A1",
          "midi": 33,
          "time": 147.14296749999966,
          "velocity": 0.7874015748031497,
          "duration": 0.04761908333335896
        },
        {
          "name": "A3",
          "midi": 57,
          "time": 147.14296749999966,
          "velocity": 0.8740157480314961,
          "duration": 0.9761912083333755
        },
        {
          "name": "D4",
          "midi": 62,
          "time": 147.14296749999966,
          "velocity": 0.7165354330708661,
          "duration": 0.10000007500005381
        },
        {
          "name": "F#4",
          "midi": 66,
          "time": 147.14296749999966,
          "velocity": 0.7086614173228346,
          "duration": 0.7714291500000456
        },
        {
          "name": "D5",
          "midi": 74,
          "time": 147.14296749999966,
          "velocity": 0.5905511811023622,
          "duration": 0.09523816666671792
        },
        {
          "name": "D4",
          "midi": 62,
          "time": 147.14296749999966,
          "velocity": 0.6299212598425197,
          "duration": 0.1190477083333974
        },
        {
          "name": "A4",
          "midi": 69,
          "time": 147.14296749999966,
          "velocity": 0.49606299212598426,
          "duration": 0.02380954166667948
        },
        {
          "name": "C2",
          "midi": 36,
          "time": 147.14296749999966,
          "velocity": 0.84251968503937,
          "duration": 0.05714290000003075
        },
        {
          "name": "D2",
          "midi": 38,
          "time": 147.14296749999966,
          "velocity": 0.7716535433070866,
          "duration": 0.05714290000003075
        },
        {
          "name": "F#2",
          "midi": 42,
          "time": 147.14296749999966,
          "velocity": 0.6771653543307087,
          "duration": 0.05714290000003075
        },
        {
          "name": "D4",
          "midi": 62,
          "time": 147.14296749999966,
          "velocity": 0.007874015748031496,
          "duration": 0.5666670916667158
        },
        {
          "name": "G4",
          "midi": 67,
          "time": 147.4286819999997,
          "velocity": 0.7244094488188977,
          "duration": 0.28571450000001164
        },
        {
          "name": "D2",
          "midi": 38,
          "time": 147.4286819999997,
          "velocity": 0.7874015748031497,
          "duration": 0.047619083333330536
        },
        {
          "name": "F#4",
          "midi": 66,
          "time": 147.4286819999997,
          "velocity": 0.6929133858267716,
          "duration": 1.08095319166668
        },
        {
          "name": "D5",
          "midi": 74,
          "time": 147.4286819999997,
          "velocity": 0.6614173228346457,
          "duration": 0.5238099166666643
        },
        {
          "name": "D4",
          "midi": 62,
          "time": 147.4286819999997,
          "velocity": 0.6141732283464567,
          "duration": 0.4761908333333338
        },
        {
          "name": "C2",
          "midi": 36,
          "time": 147.4286819999997,
          "velocity": 0.84251968503937,
          "duration": 0.07142862500001002
        },
        {
          "name": "F#2",
          "midi": 42,
          "time": 147.4286819999997,
          "velocity": 0.6771653543307087,
          "duration": 0.05714290000000233
        },
        {
          "name": "D4",
          "midi": 62,
          "time": 147.4286819999997,
          "velocity": 0.007874015748031496,
          "duration": 0.6142861749999895
        },
        {
          "name": "A4",
          "midi": 69,
          "time": 147.7143964999997,
          "velocity": 0.7244094488188977,
          "duration": 0.12857152499998392
        },
        {
          "name": "D2",
          "midi": 38,
          "time": 147.7143964999997,
          "velocity": 0.7874015748031497,
          "duration": 0.2857144999999832
        },
        {
          "name": "C2",
          "midi": 36,
          "time": 147.7143964999997,
          "velocity": 0.84251968503937,
          "duration": 0.2857144999999832
        },
        {
          "name": "F#2",
          "midi": 42,
          "time": 147.7143964999997,
          "velocity": 0.6771653543307087,
          "duration": 0.047619083333330536
        },
        {
          "name": "A4",
          "midi": 69,
          "time": 148.0001109999997,
          "velocity": 0.7244094488188977,
          "duration": 0.08095244166668181
        },
        {
          "name": "E2",
          "midi": 40,
          "time": 148.0001109999997,
          "velocity": 0.7874015748031497,
          "duration": 0.29523831666668343
        },
        {
          "name": "F#3",
          "midi": 54,
          "time": 148.0001109999997,
          "velocity": 0.7559055118110236,
          "duration": 0.11904770833334055
        },
        {
          "name": "A3",
          "midi": 57,
          "time": 148.0001109999997,
          "velocity": 0.8976377952755905,
          "duration": 0.4619051083333545
        },
        {
          "name": "D4",
          "midi": 62,
          "time": 148.0001109999997,
          "velocity": 0.8346456692913385,
          "duration": 0.11904770833334055
        },
        {
          "name": "A4",
          "midi": 69,
          "time": 148.0001109999997,
          "velocity": 0.5826771653543307,
          "duration": 0.4761908333333622
        },
        {
          "name": "D4",
          "midi": 62,
          "time": 148.0001109999997,
          "velocity": 0.5590551181102362,
          "duration": 0.38095266666670113
        },
        {
          "name": "D2",
          "midi": 38,
          "time": 148.0001109999997,
          "velocity": 0.7716535433070866,
          "duration": 0.07142862500001002
        },
        {
          "name": "F#2",
          "midi": 42,
          "time": 148.0001109999997,
          "velocity": 0.6771653543307087,
          "duration": 0.047619083333330536
        },
        {
          "name": "D4",
          "midi": 62,
          "time": 148.0001109999997,
          "velocity": 0.007874015748031496,
          "duration": 0.5666670916666874
        },
        {
          "name": "A4",
          "midi": 69,
          "time": 148.2858254999997,
          "velocity": 0.7244094488188977,
          "duration": 0.5571432750000156
        },
        {
          "name": "D2",
          "midi": 38,
          "time": 148.2858254999997,
          "velocity": 0.7874015748031497,
          "duration": 0.26190495833333216
        },
        {
          "name": "C2",
          "midi": 36,
          "time": 148.2858254999997,
          "velocity": 0.84251968503937,
          "duration": 0.07142862500001002
        },
        {
          "name": "F#2",
          "midi": 42,
          "time": 148.2858254999997,
          "velocity": 0.6771653543307087,
          "duration": 0.047619083333330536
        },
        {
          "name": "D4",
          "midi": 62,
          "time": 148.2858254999997,
          "velocity": 0.007874015748031496,
          "duration": 0.5000003750000133
        },
        {
          "name": "G1",
          "midi": 31,
          "time": 148.57153999999971,
          "velocity": 0.7874015748031497,
          "duration": 0.6047623583333746
        },
        {
          "name": "B3",
          "midi": 59,
          "time": 148.57153999999971,
          "velocity": 0.7007874015748031,
          "duration": 0.11904770833334055
        },
        {
          "name": "D3",
          "midi": 50,
          "time": 148.57153999999971,
          "velocity": 0.7244094488188977,
          "duration": 0.11904770833334055
        },
        {
          "name": "G3",
          "midi": 55,
          "time": 148.57153999999971,
          "velocity": 0.7637795275590551,
          "duration": 0.11904770833334055
        },
        {
          "name": "G4",
          "midi": 67,
          "time": 148.57153999999971,
          "velocity": 0.7401574803149606,
          "duration": 0.26190495833333216
        },
        {
          "name": "D4",
          "midi": 62,
          "time": 148.57153999999971,
          "velocity": 0.5433070866141733,
          "duration": 0.35714312500002166
        },
        {
          "name": "B3",
          "midi": 59,
          "time": 148.57153999999971,
          "velocity": 0.5590551181102362,
          "duration": 0.9761912083334039
        },
        {
          "name": "G3",
          "midi": 55,
          "time": 148.57153999999971,
          "velocity": 0.5590551181102362,
          "duration": 0.9761912083334039
        },
        {
          "name": "C2",
          "midi": 36,
          "time": 148.57153999999971,
          "velocity": 0.84251968503937,
          "duration": 0.5714290000000517
        },
        {
          "name": "F#2",
          "midi": 42,
          "time": 148.57153999999971,
          "velocity": 0.6771653543307087,
          "duration": 0.047619083333330536
        },
        {
          "name": "G4",
          "midi": 67,
          "time": 148.85725449999973,
          "velocity": 0.7244094488188977,
          "duration": 0.6904767083333923
        },
        {
          "name": "D4",
          "midi": 62,
          "time": 148.85725449999973,
          "velocity": 0.44881889763779526,
          "duration": 0.11904770833334055
        },
        {
          "name": "A4",
          "midi": 69,
          "time": 148.85725449999973,
          "velocity": 0.7559055118110236,
          "duration": 0.07142862500001002
        },
        {
          "name": "D4",
          "midi": 62,
          "time": 148.85725449999973,
          "velocity": 0.7401574803149606,
          "duration": 0.2619049583333606
        },
        {
          "name": "F#2",
          "midi": 42,
          "time": 148.85725449999973,
          "velocity": 0.6771653543307087,
          "duration": 0.047619083333330536
        },
        {
          "name": "D4",
          "midi": 62,
          "time": 148.85725449999973,
          "velocity": 0.007874015748031496,
          "duration": 0.5666670916667158
        },
        {
          "name": "D4",
          "midi": 62,
          "time": 149.00011174999975,
          "velocity": 0.6456692913385826,
          "duration": 0.5333337333333645
        },
        {
          "name": "D2",
          "midi": 38,
          "time": 149.14296899999977,
          "velocity": 0.7716535433070866,
          "duration": 0.047619083333330536
        },
        {
          "name": "F#2",
          "midi": 42,
          "time": 149.14296899999977,
          "velocity": 0.6771653543307087,
          "duration": 0.07142862500001002
        },
        {
          "name": "G1",
          "midi": 31,
          "time": 149.42868349999978,
          "velocity": 0.7874015748031497,
          "duration": 0.05714290000000233
        },
        {
          "name": "G3",
          "midi": 55,
          "time": 149.42868349999978,
          "velocity": 0.7637795275590551,
          "duration": 0.2714287750000324
        },
        {
          "name": "B3",
          "midi": 59,
          "time": 149.42868349999978,
          "velocity": 0.9291338582677166,
          "duration": 0.2476192333333529
        },
        {
          "name": "D4",
          "midi": 62,
          "time": 149.42868349999978,
          "velocity": 0.7244094488188977,
          "duration": 0.11904770833334055
        },
        {
          "name": "G4",
          "midi": 67,
          "time": 149.42868349999978,
          "velocity": 0.6771653543307087,
          "duration": 0.5238099166667496
        },
        {
          "name": "B4",
          "midi": 71,
          "time": 149.42868349999978,
          "velocity": 0.6771653543307087,
          "duration": 0.11904770833334055
        },
        {
          "name": "D4",
          "midi": 62,
          "time": 149.42868349999978,
          "velocity": 0.6062992125984252,
          "duration": 0.29523831666671185
        },
        {
          "name": "C2",
          "midi": 36,
          "time": 149.42868349999978,
          "velocity": 0.84251968503937,
          "duration": 0.05714290000000233
        },
        {
          "name": "D2",
          "midi": 38,
          "time": 149.42868349999978,
          "velocity": 0.7716535433070866,
          "duration": 0.05714290000000233
        },
        {
          "name": "F#2",
          "midi": 42,
          "time": 149.42868349999978,
          "velocity": 0.6771653543307087,
          "duration": 0.05714290000000233
        },
        {
          "name": "G1",
          "midi": 31,
          "time": 149.71439799999982,
          "velocity": 0.7874015748031497,
          "duration": 0.03333335833335127
        },
        {
          "name": "B4",
          "midi": 71,
          "time": 149.71439799999982,
          "velocity": 0.7244094488188977,
          "duration": 0.23809541666670953
        },
        {
          "name": "G4",
          "midi": 67,
          "time": 149.71439799999982,
          "velocity": 0.7795275590551181,
          "duration": 0.24761923333338132
        },
        {
          "name": "D4",
          "midi": 62,
          "time": 149.71439799999982,
          "velocity": 0.6456692913385826,
          "duration": 0.22380969166670184
        },
        {
          "name": "C2",
          "midi": 36,
          "time": 149.71439799999982,
          "velocity": 0.84251968503937,
          "duration": 0.07142862500003844
        },
        {
          "name": "F#2",
          "midi": 42,
          "time": 149.71439799999982,
          "velocity": 0.6771653543307087,
          "duration": 0.05714290000003075
        },
        {
          "name": "G1",
          "midi": 31,
          "time": 150.00011249999986,
          "velocity": 0.7874015748031497,
          "duration": 0.26190495833333216
        },
        {
          "name": "G2",
          "midi": 43,
          "time": 150.00011249999986,
          "velocity": 0.5354330708661418,
          "duration": 0.11904770833334055
        },
        {
          "name": "D3",
          "midi": 50,
          "time": 150.00011249999986,
          "velocity": 0.7401574803149606,
          "duration": 0.11904770833334055
        },
        {
          "name": "G3",
          "midi": 55,
          "time": 150.00011249999986,
          "velocity": 0.6850393700787402,
          "duration": 0.11904770833334055
        },
        {
          "name": "C2",
          "midi": 36,
          "time": 150.00011249999986,
          "velocity": 0.84251968503937,
          "duration": 0.28571450000001164
        },
        {
          "name": "F#2",
          "midi": 42,
          "time": 150.00011249999986,
          "velocity": 0.6771653543307087,
          "duration": 0.047619083333330536
        },
        {
          "name": "B1",
          "midi": 35,
          "time": 150.28582699999987,
          "velocity": 0.7874015748031497,
          "duration": 0.26190495833333216
        },
        {
          "name": "G3",
          "midi": 55,
          "time": 150.28582699999987,
          "velocity": 0.7401574803149606,
          "duration": 0.11904770833334055
        },
        {
          "name": "B3",
          "midi": 59,
          "time": 150.28582699999987,
          "velocity": 0.8110236220472441,
          "duration": 0.11904770833334055
        },
        {
          "name": "D4",
          "midi": 62,
          "time": 150.28582699999987,
          "velocity": 0.5196850393700787,
          "duration": 0.11904770833334055
        },
        {
          "name": "G4",
          "midi": 67,
          "time": 150.28582699999987,
          "velocity": 0.8346456692913385,
          "duration": 0.5809528166666951
        },
        {
          "name": "D4",
          "midi": 62,
          "time": 150.28582699999987,
          "velocity": 0.8110236220472441,
          "duration": 0.5952385416667028
        },
        {
          "name": "D2",
          "midi": 38,
          "time": 150.28582699999987,
          "velocity": 0.7716535433070866,
          "duration": 0.07142862500001002
        },
        {
          "name": "F#2",
          "midi": 42,
          "time": 150.28582699999987,
          "velocity": 0.6771653543307087,
          "duration": 0.047619083333330536
        },
        {
          "name": "D2",
          "midi": 38,
          "time": 150.57154149999988,
          "velocity": 0.7874015748031497,
          "duration": 0.27142877500000395
        },
        {
          "name": "C2",
          "midi": 36,
          "time": 150.57154149999988,
          "velocity": 0.84251968503937,
          "duration": 0.07142862500001002
        },
        {
          "name": "F#2",
          "midi": 42,
          "time": 150.57154149999988,
          "velocity": 0.6771653543307087,
          "duration": 0.047619083333330536
        },
        {
          "name": "B4",
          "midi": 71,
          "time": 150.8572559999999,
          "velocity": 0.7244094488188977,
          "duration": 0.2619049583333606
        },
        {
          "name": "E2",
          "midi": 40,
          "time": 150.8572559999999,
          "velocity": 0.7874015748031497,
          "duration": 0.676190983333413
        },
        {
          "name": "B2",
          "midi": 47,
          "time": 150.8572559999999,
          "velocity": 0.6614173228346457,
          "duration": 0.11904770833336897
        },
        {
          "name": "E3",
          "midi": 52,
          "time": 150.8572559999999,
          "velocity": 0.7795275590551181,
          "duration": 0.11904770833336897
        },
        {
          "name": "G3",
          "midi": 55,
          "time": 150.8572559999999,
          "velocity": 0.7952755905511811,
          "duration": 0.11904770833336897
        },
        {
          "name": "B3",
          "midi": 59,
          "time": 150.8572559999999,
          "velocity": 0.5826771653543307,
          "duration": 0.11904770833336897
        },
        {
          "name": "E4",
          "midi": 64,
          "time": 150.8572559999999,
          "velocity": 0.48031496062992124,
          "duration": 0.11904770833336897
        },
        {
          "name": "E4",
          "midi": 64,
          "time": 150.8572559999999,
          "velocity": 0.6535433070866141,
          "duration": 0.1761906083333713
        },
        {
          "name": "G4",
          "midi": 67,
          "time": 150.8572559999999,
          "velocity": 0.6614173228346457,
          "duration": 0.21428587500003005
        },
        {
          "name": "B3",
          "midi": 59,
          "time": 150.8572559999999,
          "velocity": 0.5748031496062992,
          "duration": 0.5476194583334006
        },
        {
          "name": "C2",
          "midi": 36,
          "time": 150.8572559999999,
          "velocity": 0.84251968503937,
          "duration": 0.5714290000000801
        },
        {
          "name": "F#2",
          "midi": 42,
          "time": 150.8572559999999,
          "velocity": 0.6771653543307087,
          "duration": 0.04761908333335896
        },
        {
          "name": "D4",
          "midi": 62,
          "time": 150.8572559999999,
          "velocity": 0.007874015748031496,
          "duration": 0.28095259166670417
        },
        {
          "name": "E4",
          "midi": 64,
          "time": 151.00011324999994,
          "velocity": 0.937007874015748,
          "duration": 0.24761923333332447
        },
        {
          "name": "A4",
          "midi": 69,
          "time": 151.14297049999993,
          "velocity": 0.7244094488188977,
          "duration": 0.3190478583333629
        },
        {
          "name": "G4",
          "midi": 67,
          "time": 151.14297049999993,
          "velocity": 0.6220472440944882,
          "duration": 0.11904770833334055
        },
        {
          "name": "B4",
          "midi": 71,
          "time": 151.14297049999993,
          "velocity": 0.6614173228346457,
          "duration": 0.11904770833334055
        },
        {
          "name": "E4",
          "midi": 64,
          "time": 151.14297049999993,
          "velocity": 0.6614173228346457,
          "duration": 0.2619049583333606
        },
        {
          "name": "F#2",
          "midi": 42,
          "time": 151.14297049999993,
          "velocity": 0.6771653543307087,
          "duration": 0.047619083333330536
        },
        {
          "name": "E4",
          "midi": 64,
          "time": 151.28582774999995,
          "velocity": 0.7086614173228346,
          "duration": 0.2619049583333606
        },
        {
          "name": "B3",
          "midi": 59,
          "time": 151.28582774999995,
          "velocity": 0.6456692913385826,
          "duration": 0.5476194583333722
        },
        {
          "name": "G4",
          "midi": 67,
          "time": 151.42868499999997,
          "velocity": 0.7244094488188977,
          "duration": 0.35714312500002166
        },
        {
          "name": "E4",
          "midi": 64,
          "time": 151.42868499999997,
          "velocity": 0.6062992125984252,
          "duration": 0.35714312500002166
        },
        {
          "name": "G3",
          "midi": 55,
          "time": 151.42868499999997,
          "velocity": 0.6850393700787402,
          "duration": 0.11904770833334055
        },
        {
          "name": "D2",
          "midi": 38,
          "time": 151.42868499999997,
          "velocity": 0.7716535433070866,
          "duration": 0.047619083333330536
        },
        {
          "name": "F#2",
          "midi": 42,
          "time": 151.42868499999997,
          "velocity": 0.6771653543307087,
          "duration": 0.07142862500001002
        },
        {
          "name": "D4",
          "midi": 62,
          "time": 151.42868499999997,
          "velocity": 0.007874015748031496,
          "duration": 0.28095259166667574
        },
        {
          "name": "B1",
          "midi": 35,
          "time": 151.71439949999998,
          "velocity": 0.7874015748031497,
          "duration": 0.047619083333330536
        },
        {
          "name": "E3",
          "midi": 52,
          "time": 151.71439949999998,
          "velocity": 0.7952755905511811,
          "duration": 0.11904770833334055
        },
        {
          "name": "G3",
          "midi": 55,
          "time": 151.71439949999998,
          "velocity": 0.8582677165354331,
          "duration": 0.11904770833334055
        },
        {
          "name": "B3",
          "midi": 59,
          "time": 151.71439949999998,
          "velocity": 0.8818897637795275,
          "duration": 0.9761912083333755
        },
        {
          "name": "E4",
          "midi": 64,
          "time": 151.71439949999998,
          "velocity": 0.6062992125984252,
          "duration": 0.11904770833334055
        },
        {
          "name": "E4",
          "midi": 64,
          "time": 151.71439949999998,
          "velocity": 0.6771653543307087,
          "duration": 0.8666673166667067
        },
        {
          "name": "G4",
          "midi": 67,
          "time": 151.71439949999998,
          "velocity": 0.7007874015748031,
          "duration": 0.2380954166666811
        },
        {
          "name": "C2",
          "midi": 36,
          "time": 151.71439949999998,
          "velocity": 0.84251968503937,
          "duration": 0.05714290000000233
        },
        {
          "name": "D2",
          "midi": 38,
          "time": 151.71439949999998,
          "velocity": 0.7716535433070866,
          "duration": 0.05714290000000233
        },
        {
          "name": "F#2",
          "midi": 42,
          "time": 151.71439949999998,
          "velocity": 0.6771653543307087,
          "duration": 0.05714290000000233
        },
        {
          "name": "B4",
          "midi": 71,
          "time": 152.000114,
          "velocity": 0.7244094488188977,
          "duration": 0.28571450000001164
        },
        {
          "name": "E2",
          "midi": 40,
          "time": 152.000114,
          "velocity": 0.7874015748031497,
          "duration": 0.05714290000000233
        },
        {
          "name": "B4",
          "midi": 71,
          "time": 152.000114,
          "velocity": 0.6062992125984252,
          "duration": 0.5333337333333645
        },
        {
          "name": "E4",
          "midi": 64,
          "time": 152.000114,
          "velocity": 0.6535433070866141,
          "duration": 0.6904767083333638
        },
        {
          "name": "C2",
          "midi": 36,
          "time": 152.000114,
          "velocity": 0.84251968503937,
          "duration": 0.07142862500001002
        },
        {
          "name": "F#2",
          "midi": 42,
          "time": 152.000114,
          "velocity": 0.6771653543307087,
          "duration": 0.05714290000000233
        },
        {
          "name": "D4",
          "midi": 62,
          "time": 152.000114,
          "velocity": 0.007874015748031496,
          "duration": 0.14285725000002003
        },
        {
          "name": "D5",
          "midi": 74,
          "time": 152.2858285,
          "velocity": 0.7244094488188977,
          "duration": 0.28571450000001164
        },
        {
          "name": "E2",
          "midi": 40,
          "time": 152.2858285,
          "velocity": 0.7874015748031497,
          "duration": 0.5333337333333361
        },
        {
          "name": "B2",
          "midi": 47,
          "time": 152.2858285,
          "velocity": 0.5590551181102362,
          "duration": 0.11904770833334055
        },
        {
          "name": "E3",
          "midi": 52,
          "time": 152.2858285,
          "velocity": 0.7716535433070866,
          "duration": 0.11904770833334055
        },
        {
          "name": "G3",
          "midi": 55,
          "time": 152.2858285,
          "velocity": 0.7795275590551181,
          "duration": 0.11904770833334055
        },
        {
          "name": "C2",
          "midi": 36,
          "time": 152.2858285,
          "velocity": 0.84251968503937,
          "duration": 0.28571450000001164
        },
        {
          "name": "F#2",
          "midi": 42,
          "time": 152.2858285,
          "velocity": 0.6771653543307087,
          "duration": 0.047619083333330536
        },
        {
          "name": "D4",
          "midi": 62,
          "time": 152.2858285,
          "velocity": 0.007874015748031496,
          "duration": 0.14285725000002003
        },
        {
          "name": "B4",
          "midi": 71,
          "time": 152.57154300000002,
          "velocity": 0.7244094488188977,
          "duration": 0.3095240416666911
        },
        {
          "name": "B3",
          "midi": 59,
          "time": 152.57154300000002,
          "velocity": 0.8110236220472441,
          "duration": 0.1523810666666634
        },
        {
          "name": "E4",
          "midi": 64,
          "time": 152.57154300000002,
          "velocity": 0.8267716535433071,
          "duration": 0.27142877500000395
        },
        {
          "name": "D2",
          "midi": 38,
          "time": 152.57154300000002,
          "velocity": 0.7716535433070866,
          "duration": 0.07142862500001002
        },
        {
          "name": "F#2",
          "midi": 42,
          "time": 152.57154300000002,
          "velocity": 0.6771653543307087,
          "duration": 0.047619083333330536
        },
        {
          "name": "D4",
          "midi": 62,
          "time": 152.57154300000002,
          "velocity": 0.007874015748031496,
          "duration": 0.1571429749999993
        },
        {
          "name": "A4",
          "midi": 69,
          "time": 152.85725750000003,
          "velocity": 0.7244094488188977,
          "duration": 0.5000003750000417
        },
        {
          "name": "B1",
          "midi": 35,
          "time": 152.85725750000003,
          "velocity": 0.7874015748031497,
          "duration": 0.21428587500003005
        },
        {
          "name": "E4",
          "midi": 64,
          "time": 152.85725750000003,
          "velocity": 0.6692913385826772,
          "duration": 0.11904770833336897
        },
        {
          "name": "C2",
          "midi": 36,
          "time": 152.85725750000003,
          "velocity": 0.84251968503937,
          "duration": 0.07142862500003844
        },
        {
          "name": "F#2",
          "midi": 42,
          "time": 152.85725750000003,
          "velocity": 0.6771653543307087,
          "duration": 0.04761908333335896
        },
        {
          "name": "D4",
          "midi": 62,
          "time": 152.85725750000003,
          "velocity": 0.007874015748031496,
          "duration": 0.8523815916667274
        },
        {
          "name": "C2",
          "midi": 36,
          "time": 153.14297200000007,
          "velocity": 0.7874015748031497,
          "duration": 0.5714290000000233
        },
        {
          "name": "C3",
          "midi": 48,
          "time": 153.14297200000007,
          "velocity": 0.49606299212598426,
          "duration": 0.11904770833334055
        },
        {
          "name": "G3",
          "midi": 55,
          "time": 153.14297200000007,
          "velocity": 0.6299212598425197,
          "duration": 0.11904770833334055
        },
        {
          "name": "E4",
          "midi": 64,
          "time": 153.14297200000007,
          "velocity": 0.6771653543307087,
          "duration": 0.12857152500001234
        },
        {
          "name": "G4",
          "midi": 67,
          "time": 153.14297200000007,
          "velocity": 0.6535433070866141,
          "duration": 0.22380969166667342
        },
        {
          "name": "C5",
          "midi": 72,
          "time": 153.14297200000007,
          "velocity": 0.6850393700787402,
          "duration": 0.22380969166667342
        },
        {
          "name": "E4",
          "midi": 64,
          "time": 153.14297200000007,
          "velocity": 0.6929133858267716,
          "duration": 0.21428587500000162
        },
        {
          "name": "C4",
          "midi": 60,
          "time": 153.14297200000007,
          "velocity": 0.7322834645669292,
          "duration": 0.12857152500001234
        },
        {
          "name": "G3",
          "midi": 55,
          "time": 153.14297200000007,
          "velocity": 0.7165354330708661,
          "duration": 0.6761909833333846
        },
        {
          "name": "C2",
          "midi": 36,
          "time": 153.14297200000007,
          "velocity": 0.84251968503937,
          "duration": 0.7952386916667251
        },
        {
          "name": "F#2",
          "midi": 42,
          "time": 153.14297200000007,
          "velocity": 0.6771653543307087,
          "duration": 0.047619083333330536
        },
        {
          "name": "E4",
          "midi": 64,
          "time": 153.15249581666674,
          "velocity": 0.7244094488188977,
          "duration": 0.35714312499999323
        },
        {
          "name": "C4",
          "midi": 60,
          "time": 153.15249581666674,
          "velocity": 0.7795275590551181,
          "duration": 0.5619051833333515
        },
        {
          "name": "G4",
          "midi": 67,
          "time": 153.42868650000008,
          "velocity": 0.7244094488188977,
          "duration": 0.09523816666666107
        },
        {
          "name": "G4",
          "midi": 67,
          "time": 153.42868650000008,
          "velocity": 0.6614173228346457,
          "duration": 0.628571900000054
        },
        {
          "name": "E4",
          "midi": 64,
          "time": 153.42868650000008,
          "velocity": 0.6929133858267716,
          "duration": 0.24761923333332447
        },
        {
          "name": "C5",
          "midi": 72,
          "time": 153.42868650000008,
          "velocity": 0.6062992125984252,
          "duration": 0.10476198333333286
        },
        {
          "name": "F#2",
          "midi": 42,
          "time": 153.42868650000008,
          "velocity": 0.6771653543307087,
          "duration": 0.047619083333330536
        },
        {
          "name": "E4",
          "midi": 64,
          "time": 153.5572580250001,
          "velocity": 0.6299212598425197,
          "duration": 0.2523811416666888
        },
        {
          "name": "C4",
          "midi": 60,
          "time": 153.59535329166675,
          "velocity": 0.3700787401574803,
          "duration": 0.20000015000002236
        },
        {
          "name": "C4",
          "midi": 60,
          "time": 153.6763057333334,
          "velocity": 0.8267716535433071,
          "duration": 0.39523839166673724
        },
        {
          "name": "E4",
          "midi": 64,
          "time": 153.69059145833342,
          "velocity": 0.6614173228346457,
          "duration": 0.36666694166672187
        },
        {
          "name": "G3",
          "midi": 55,
          "time": 153.7001152750001,
          "velocity": 0.5354330708661418,
          "duration": 0.39523839166673724
        },
        {
          "name": "D2",
          "midi": 38,
          "time": 153.7144010000001,
          "velocity": 0.7716535433070866,
          "duration": 0.047619083333330536
        },
        {
          "name": "F#2",
          "midi": 42,
          "time": 153.7144010000001,
          "velocity": 0.6771653543307087,
          "duration": 0.07142862500001002
        },
        {
          "name": "G3",
          "midi": 55,
          "time": 153.97630595833346,
          "velocity": 0.8267716535433071,
          "duration": 0.6904767083334207
        },
        {
          "name": "C4",
          "midi": 60,
          "time": 153.98582977500013,
          "velocity": 0.8582677165354331,
          "duration": 0.11904770833336897
        },
        {
          "name": "E4",
          "midi": 64,
          "time": 153.98582977500013,
          "velocity": 0.6299212598425197,
          "duration": 0.11904770833336897
        },
        {
          "name": "G1",
          "midi": 31,
          "time": 154.00011550000013,
          "velocity": 0.7874015748031497,
          "duration": 0.07142862500001002
        },
        {
          "name": "E4",
          "midi": 64,
          "time": 154.00011550000013,
          "velocity": 0.6929133858267716,
          "duration": 0.8333339583334123
        },
        {
          "name": "C4",
          "midi": 60,
          "time": 154.00011550000013,
          "velocity": 0.6062992125984252,
          "duration": 0.9619054833334815
        },
        {
          "name": "G4",
          "midi": 67,
          "time": 154.00011550000013,
          "velocity": 0.6614173228346457,
          "duration": 0.8333339583334123
        },
        {
          "name": "C2",
          "midi": 36,
          "time": 154.00011550000013,
          "velocity": 0.84251968503937,
          "duration": 0.05714290000000233
        },
        {
          "name": "D2",
          "midi": 38,
          "time": 154.00011550000013,
          "velocity": 0.7716535433070866,
          "duration": 0.05714290000000233
        },
        {
          "name": "F#2",
          "midi": 42,
          "time": 154.00011550000013,
          "velocity": 0.6771653543307087,
          "duration": 0.05714290000000233
        },
        {
          "name": "C2",
          "midi": 36,
          "time": 154.28583000000017,
          "velocity": 0.7874015748031497,
          "duration": 0.047619083333330536
        },
        {
          "name": "E4",
          "midi": 64,
          "time": 154.28583000000017,
          "velocity": 0.7086614173228346,
          "duration": 0.6904767083334491
        },
        {
          "name": "C5",
          "midi": 72,
          "time": 154.28583000000017,
          "velocity": 0.7165354330708661,
          "duration": 0.6523814416667619
        },
        {
          "name": "G4",
          "midi": 67,
          "time": 154.28583000000017,
          "velocity": 0.6220472440944882,
          "duration": 0.5952385416667312
        },
        {
          "name": "C2",
          "midi": 36,
          "time": 154.28583000000017,
          "velocity": 0.84251968503937,
          "duration": 0.07142862500001002
        },
        {
          "name": "F#2",
          "midi": 42,
          "time": 154.28583000000017,
          "velocity": 0.6771653543307087,
          "duration": 0.05714290000000233
        },
        {
          "name": "C3",
          "midi": 48,
          "time": 154.53344923333353,
          "velocity": 0.7952755905511811,
          "duration": 0.11904770833334055
        },
        {
          "name": "G3",
          "midi": 55,
          "time": 154.54773495833354,
          "velocity": 0.7637795275590551,
          "duration": 0.4380955666667603
        },
        {
          "name": "C2",
          "midi": 36,
          "time": 154.57154450000021,
          "velocity": 0.7874015748031497,
          "duration": 0.28571450000001164
        },
        {
          "name": "C2",
          "midi": 36,
          "time": 154.57154450000021,
          "velocity": 0.84251968503937,
          "duration": 0.5333337333334214
        },
        {
          "name": "F#2",
          "midi": 42,
          "time": 154.57154450000021,
          "velocity": 0.6771653543307087,
          "duration": 0.047619083333330536
        },
        {
          "name": "C4",
          "midi": 60,
          "time": 154.84297327500022,
          "velocity": 0.8818897637795275,
          "duration": 0.5238099166667496
        },
        {
          "name": "E4",
          "midi": 64,
          "time": 154.85725900000023,
          "velocity": 0.6850393700787402,
          "duration": 0.45238129166673957
        },
        {
          "name": "D2",
          "midi": 38,
          "time": 154.85725900000023,
          "velocity": 0.7716535433070866,
          "duration": 0.07142862500003844
        },
        {
          "name": "F#2",
          "midi": 42,
          "time": 154.85725900000023,
          "velocity": 0.6771653543307087,
          "duration": 0.04761908333335896
        },
        {
          "name": "G3",
          "midi": 55,
          "time": 154.8667828166669,
          "velocity": 0.6771653543307087,
          "duration": 0.32380976666672723
        },
        {
          "name": "G1",
          "midi": 31,
          "time": 155.1429735000003,
          "velocity": 0.7874015748031497,
          "duration": 0.2380954166666811
        },
        {
          "name": "C2",
          "midi": 36,
          "time": 155.1429735000003,
          "velocity": 0.84251968503937,
          "duration": 0.07142862500001002
        },
        {
          "name": "F#2",
          "midi": 42,
          "time": 155.1429735000003,
          "velocity": 0.6771653543307087,
          "duration": 0.047619083333330536
        },
        {
          "name": "D2",
          "midi": 38,
          "time": 155.40487845833366,
          "velocity": 0.4645669291338583,
          "duration": 0.1190477083333974
        },
        {
          "name": "D2",
          "midi": 38,
          "time": 155.42868800000034,
          "velocity": 0.7874015748031497,
          "duration": 0.6190480833334107
        },
        {
          "name": "F#4",
          "midi": 66,
          "time": 155.42868800000034,
          "velocity": 0.5826771653543307,
          "duration": 0.8428577750000841
        },
        {
          "name": "A4",
          "midi": 69,
          "time": 155.42868800000034,
          "velocity": 0.6220472440944882,
          "duration": 1.4761915833334172
        },
        {
          "name": "D4",
          "midi": 62,
          "time": 155.42868800000034,
          "velocity": 0.6220472440944882,
          "duration": 0.2952383166667687
        },
        {
          "name": "D5",
          "midi": 74,
          "time": 155.42868800000034,
          "velocity": 0.5433070866141733,
          "duration": 1.7380965416667777
        },
        {
          "name": "D4",
          "midi": 62,
          "time": 155.42868800000034,
          "velocity": 0.7559055118110236,
          "duration": 0.7095243416667643
        },
        {
          "name": "A3",
          "midi": 57,
          "time": 155.42868800000034,
          "velocity": 0.6535433070866141,
          "duration": 0.2619049583334174
        },
        {
          "name": "F#4",
          "midi": 66,
          "time": 155.42868800000034,
          "velocity": 0.7795275590551181,
          "duration": 1.7000012750000906
        },
        {
          "name": "C2",
          "midi": 36,
          "time": 155.42868800000034,
          "velocity": 0.84251968503937,
          "duration": 0.5714290000000801
        },
        {
          "name": "F#2",
          "midi": 42,
          "time": 155.42868800000034,
          "velocity": 0.6771653543307087,
          "duration": 0.04761908333335896
        },
        {
          "name": "A2",
          "midi": 45,
          "time": 155.45249754166701,
          "velocity": 0.49606299212598426,
          "duration": 0.1190477083333974
        },
        {
          "name": "D3",
          "midi": 50,
          "time": 155.50011662500037,
          "velocity": 0.6299212598425197,
          "duration": 0.11904770833336897
        },
        {
          "name": "F#3",
          "midi": 54,
          "time": 155.54773570833373,
          "velocity": 0.5905511811023622,
          "duration": 0.11904770833334055
        },
        {
          "name": "A3",
          "midi": 57,
          "time": 155.5715452500004,
          "velocity": 0.8503937007874016,
          "duration": 2.057144400000084
        },
        {
          "name": "D4",
          "midi": 62,
          "time": 155.60487860833373,
          "velocity": 0.7874015748031497,
          "duration": 0.8190482333333478
        },
        {
          "name": "F#2",
          "midi": 42,
          "time": 155.71440250000043,
          "velocity": 0.6771653543307087,
          "duration": 0.047619083333330536
        },
        {
          "name": "F#4",
          "midi": 66,
          "time": 156.00011700000042,
          "velocity": 0.7244094488188977,
          "duration": 1.5952392916667577
        },
        {
          "name": "D2",
          "midi": 38,
          "time": 156.00011700000042,
          "velocity": 0.7716535433070866,
          "duration": 0.34285740000001397
        },
        {
          "name": "F#2",
          "midi": 42,
          "time": 156.00011700000042,
          "velocity": 0.6771653543307087,
          "duration": 0.07142862500001002
        },
        {
          "name": "D4",
          "midi": 62,
          "time": 156.00011700000042,
          "velocity": 0.007874015748031496,
          "duration": 0.738095791666666
        },
        {
          "name": "G4",
          "midi": 67,
          "time": 156.28583150000043,
          "velocity": 0.7244094488188977,
          "duration": 0.27142877499997553
        },
        {
          "name": "C2",
          "midi": 36,
          "time": 156.28583150000043,
          "velocity": 0.84251968503937,
          "duration": 0.05714290000000233
        },
        {
          "name": "D2",
          "midi": 38,
          "time": 156.28583150000043,
          "velocity": 0.7716535433070866,
          "duration": 0.9285721250000449
        },
        {
          "name": "F#2",
          "midi": 42,
          "time": 156.28583150000043,
          "velocity": 0.6771653543307087,
          "duration": 0.05714290000000233
        },
        {
          "name": "D4",
          "midi": 62,
          "time": 156.28583150000043,
          "velocity": 0.007874015748031496,
          "duration": 0.8571435000000065
        },
        {
          "name": "A4",
          "midi": 69,
          "time": 156.5715460000004,
          "velocity": 0.7244094488188977,
          "duration": 0.5952385416667028
        },
        {
          "name": "C2",
          "midi": 36,
          "time": 156.5715460000004,
          "velocity": 0.84251968503937,
          "duration": 0.07142862500001002
        },
        {
          "name": "F#2",
          "midi": 42,
          "time": 156.5715460000004,
          "velocity": 0.6771653543307087,
          "duration": 0.05714290000000233
        },
        {
          "name": "D4",
          "midi": 62,
          "time": 156.5715460000004,
          "velocity": 0.007874015748031496,
          "duration": 0.6952386166667281
        },
        {
          "name": "C2",
          "midi": 36,
          "time": 156.85726050000042,
          "velocity": 0.84251968503937,
          "duration": 0.28571450000001164
        },
        {
          "name": "F#2",
          "midi": 42,
          "time": 156.85726050000042,
          "velocity": 0.6771653543307087,
          "duration": 0.047619083333330536
        },
        {
          "name": "A4",
          "midi": 69,
          "time": 157.14297500000043,
          "velocity": 0.7244094488188977,
          "duration": 0.24761923333338132
        },
        {
          "name": "D2",
          "midi": 38,
          "time": 157.14297500000043,
          "velocity": 0.7716535433070866,
          "duration": 0.4142860250000524
        },
        {
          "name": "F#2",
          "midi": 42,
          "time": 157.14297500000043,
          "velocity": 0.6771653543307087,
          "duration": 0.04761908333335896
        },
        {
          "name": "D4",
          "midi": 62,
          "time": 157.14297500000043,
          "velocity": 0.007874015748031496,
          "duration": 0.4095241166667165
        },
        {
          "name": "A4",
          "midi": 69,
          "time": 157.42868950000047,
          "velocity": 0.7244094488188977,
          "duration": 0.13809534166668413
        },
        {
          "name": "C2",
          "midi": 36,
          "time": 157.42868950000047,
          "velocity": 0.84251968503937,
          "duration": 0.07142862500001002
        },
        {
          "name": "F#2",
          "midi": 42,
          "time": 157.42868950000047,
          "velocity": 0.6771653543307087,
          "duration": 0.047619083333330536
        },
        {
          "name": "D4",
          "midi": 62,
          "time": 157.42868950000047,
          "velocity": 0.007874015748031496,
          "duration": 0.22380969166670184
        },
        {
          "name": "B4",
          "midi": 71,
          "time": 157.5715467500005,
          "velocity": 0.7244094488188977,
          "duration": 0.11904770833334055
        },
        {
          "name": "A4",
          "midi": 69,
          "time": 157.7144040000005,
          "velocity": 0.7244094488188977,
          "duration": 0.28095259166667574
        },
        {
          "name": "G1",
          "midi": 31,
          "time": 157.7144040000005,
          "velocity": 0.7874015748031497,
          "duration": 0.6047623583333461
        },
        {
          "name": "D3",
          "midi": 50,
          "time": 157.7144040000005,
          "velocity": 0.6850393700787402,
          "duration": 0.11904770833334055
        },
        {
          "name": "G3",
          "midi": 55,
          "time": 157.7144040000005,
          "velocity": 0.7952755905511811,
          "duration": 0.11904770833334055
        },
        {
          "name": "B3",
          "midi": 59,
          "time": 157.7144040000005,
          "velocity": 0.8661417322834646,
          "duration": 0.11904770833334055
        },
        {
          "name": "D2",
          "midi": 38,
          "time": 157.7144040000005,
          "velocity": 0.3700787401574803,
          "duration": 0.11904770833334055
        },
        {
          "name": "G4",
          "midi": 67,
          "time": 157.7144040000005,
          "velocity": 0.5511811023622047,
          "duration": 1.1190484583333955
        },
        {
          "name": "D4",
          "midi": 62,
          "time": 157.7144040000005,
          "velocity": 0.49606299212598426,
          "duration": 0.34761930833334986
        },
        {
          "name": "C2",
          "midi": 36,
          "time": 157.7144040000005,
          "velocity": 0.84251968503937,
          "duration": 0.5714290000000233
        },
        {
          "name": "F#2",
          "midi": 42,
          "time": 157.7144040000005,
          "velocity": 0.6771653543307087,
          "duration": 0.047619083333330536
        },
        {
          "name": "G4",
          "midi": 67,
          "time": 158.00011850000053,
          "velocity": 0.7244094488188977,
          "duration": 1.2238104416667284
        },
        {
          "name": "F#2",
          "midi": 42,
          "time": 158.00011850000053,
          "velocity": 0.6771653543307087,
          "duration": 0.047619083333330536
        },
        {
          "name": "D4",
          "midi": 62,
          "time": 158.00011850000053,
          "velocity": 0.007874015748031496,
          "duration": 0.26190495833333216
        },
        {
          "name": "D4",
          "midi": 62,
          "time": 158.14297575000052,
          "velocity": 0.84251968503937,
          "duration": 0.2619049583333606
        },
        {
          "name": "B3",
          "midi": 59,
          "time": 158.14297575000052,
          "velocity": 0.7716535433070866,
          "duration": 0.11904770833334055
        },
        {
          "name": "G3",
          "midi": 55,
          "time": 158.14297575000052,
          "velocity": 0.5590551181102362,
          "duration": 0.11904770833334055
        },
        {
          "name": "D3",
          "midi": 50,
          "time": 158.28583300000054,
          "velocity": 0.6299212598425197,
          "duration": 0.11904770833334055
        },
        {
          "name": "G3",
          "midi": 55,
          "time": 158.28583300000054,
          "velocity": 0.6850393700787402,
          "duration": 0.11904770833334055
        },
        {
          "name": "B3",
          "midi": 59,
          "time": 158.28583300000054,
          "velocity": 0.6850393700787402,
          "duration": 0.11904770833334055
        },
        {
          "name": "D4",
          "midi": 62,
          "time": 158.28583300000054,
          "velocity": 0.5826771653543307,
          "duration": 0.4047622083333522
        },
        {
          "name": "D2",
          "midi": 38,
          "time": 158.28583300000054,
          "velocity": 0.7716535433070866,
          "duration": 0.047619083333330536
        },
        {
          "name": "F#2",
          "midi": 42,
          "time": 158.28583300000054,
          "velocity": 0.6771653543307087,
          "duration": 0.07142862500001002
        },
        {
          "name": "G1",
          "midi": 31,
          "time": 158.57154750000055,
          "velocity": 0.7874015748031497,
          "duration": 0.047619083333330536
        },
        {
          "name": "G3",
          "midi": 55,
          "time": 158.57154750000055,
          "velocity": 0.7086614173228346,
          "duration": 0.11904770833334055
        },
        {
          "name": "B3",
          "midi": 59,
          "time": 158.57154750000055,
          "velocity": 0.8818897637795275,
          "duration": 0.11904770833334055
        },
        {
          "name": "D4",
          "midi": 62,
          "time": 158.57154750000055,
          "velocity": 0.6456692913385826,
          "duration": 0.1666667916666711
        },
        {
          "name": "B3",
          "midi": 59,
          "time": 158.57154750000055,
          "velocity": 0.7165354330708661,
          "duration": 0.2476192333333529
        },
        {
          "name": "G3",
          "midi": 55,
          "time": 158.57154750000055,
          "velocity": 0.7401574803149606,
          "duration": 0.2380954166666811
        },
        {
          "name": "C2",
          "midi": 36,
          "time": 158.57154750000055,
          "velocity": 0.84251968503937,
          "duration": 0.05714290000000233
        },
        {
          "name": "D2",
          "midi": 38,
          "time": 158.57154750000055,
          "velocity": 0.7716535433070866,
          "duration": 0.05714290000000233
        },
        {
          "name": "F#2",
          "midi": 42,
          "time": 158.57154750000055,
          "velocity": 0.6771653543307087,
          "duration": 0.05714290000000233
        },
        {
          "name": "G1",
          "midi": 31,
          "time": 158.8572620000006,
          "velocity": 0.7874015748031497,
          "duration": 0.047619083333330536
        },
        {
          "name": "G3",
          "midi": 55,
          "time": 158.8572620000006,
          "velocity": 0.7401574803149606,
          "duration": 0.40476220833332377
        },
        {
          "name": "B3",
          "midi": 59,
          "time": 158.8572620000006,
          "velocity": 0.7795275590551181,
          "duration": 0.4619051083333261
        },
        {
          "name": "C2",
          "midi": 36,
          "time": 158.8572620000006,
          "velocity": 0.84251968503937,
          "duration": 0.07142862500001002
        },
        {
          "name": "F#2",
          "midi": 42,
          "time": 158.8572620000006,
          "velocity": 0.6771653543307087,
          "duration": 0.05714290000000233
        },
        {
          "name": "G1",
          "midi": 31,
          "time": 159.1429765000006,
          "velocity": 0.7874015748031497,
          "duration": 0.27142877499997553
        },
        {
          "name": "D3",
          "midi": 50,
          "time": 159.1429765000006,
          "velocity": 0.7952755905511811,
          "duration": 0.11904770833331213
        },
        {
          "name": "G3",
          "midi": 55,
          "time": 159.1429765000006,
          "velocity": 0.7086614173228346,
          "duration": 0.17619060833331446
        },
        {
          "name": "C2",
          "midi": 36,
          "time": 159.1429765000006,
          "velocity": 0.84251968503937,
          "duration": 0.2857144999999832
        },
        {
          "name": "F#2",
          "midi": 42,
          "time": 159.1429765000006,
          "velocity": 0.6771653543307087,
          "duration": 0.047619083333330536
        },
        {
          "name": "B1",
          "midi": 35,
          "time": 159.42869100000058,
          "velocity": 0.7874015748031497,
          "duration": 0.2619049583333606
        },
        {
          "name": "G3",
          "midi": 55,
          "time": 159.42869100000058,
          "velocity": 0.8110236220472441,
          "duration": 0.11904770833334055
        },
        {
          "name": "B3",
          "midi": 59,
          "time": 159.42869100000058,
          "velocity": 0.8976377952755905,
          "duration": 0.11904770833334055
        },
        {
          "name": "D4",
          "midi": 62,
          "time": 159.42869100000058,
          "velocity": 0.6141732283464567,
          "duration": 0.11904770833334055
        },
        {
          "name": "B3",
          "midi": 59,
          "time": 159.42869100000058,
          "velocity": 0.7322834645669292,
          "duration": 0.2476192333333529
        },
        {
          "name": "G3",
          "midi": 55,
          "time": 159.42869100000058,
          "velocity": 0.7637795275590551,
          "duration": 0.2476192333333529
        },
        {
          "name": "D2",
          "midi": 38,
          "time": 159.42869100000058,
          "velocity": 0.7716535433070866,
          "duration": 0.07142862500001002
        },
        {
          "name": "F#2",
          "midi": 42,
          "time": 159.42869100000058,
          "velocity": 0.6771653543307087,
          "duration": 0.047619083333330536
        },
        {
          "name": "D2",
          "midi": 38,
          "time": 159.71440550000062,
          "velocity": 0.7874015748031497,
          "duration": 0.27142877500000395
        },
        {
          "name": "B3",
          "midi": 59,
          "time": 159.71440550000062,
          "velocity": 0.7637795275590551,
          "duration": 0.11904770833334055
        },
        {
          "name": "G3",
          "midi": 55,
          "time": 159.71440550000062,
          "velocity": 0.6299212598425197,
          "duration": 0.11904770833334055
        },
        {
          "name": "A3",
          "midi": 57,
          "time": 159.71440550000062,
          "velocity": 0.6771653543307087,
          "duration": 0.485714650000034
        },
        {
          "name": "F#3",
          "midi": 54,
          "time": 159.71440550000062,
          "velocity": 0.7165354330708661,
          "duration": 0.4619051083333545
        },
        {
          "name": "C2",
          "midi": 36,
          "time": 159.71440550000062,
          "velocity": 0.84251968503937,
          "duration": 0.07142862500001002
        },
        {
          "name": "F#2",
          "midi": 42,
          "time": 159.71440550000062,
          "velocity": 0.6771653543307087,
          "duration": 0.047619083333330536
        },
        {
          "name": "G1",
          "midi": 31,
          "time": 160.00012000000063,
          "velocity": 0.7874015748031497,
          "duration": 0.5809528166666951
        },
        {
          "name": "D3",
          "midi": 50,
          "time": 160.00012000000063,
          "velocity": 0.6850393700787402,
          "duration": 0.11904770833334055
        },
        {
          "name": "G3",
          "midi": 55,
          "time": 160.00012000000063,
          "velocity": 0.7952755905511811,
          "duration": 0.11904770833334055
        },
        {
          "name": "B3",
          "midi": 59,
          "time": 160.00012000000063,
          "velocity": 0.8661417322834646,
          "duration": 0.11904770833334055
        },
        {
          "name": "D2",
          "midi": 38,
          "time": 160.00012000000063,
          "velocity": 0.3700787401574803,
          "duration": 0.11904770833334055
        },
        {
          "name": "C2",
          "midi": 36,
          "time": 160.00012000000063,
          "velocity": 0.84251968503937,
          "duration": 0.5714290000000233
        },
        {
          "name": "F#2",
          "midi": 42,
          "time": 160.00012000000063,
          "velocity": 0.6771653543307087,
          "duration": 0.047619083333330536
        },
        {
          "name": "B4",
          "midi": 71,
          "time": 160.28583450000065,
          "velocity": 0.41732283464566927,
          "duration": 0.34285740000001397
        },
        {
          "name": "D5",
          "midi": 74,
          "time": 160.28583450000065,
          "velocity": 0.7086614173228346,
          "duration": 0.29523831666668343
        },
        {
          "name": "G3",
          "midi": 55,
          "time": 160.28583450000065,
          "velocity": 0.7716535433070866,
          "duration": 0.26190495833333216
        },
        {
          "name": "B3",
          "midi": 59,
          "time": 160.28583450000065,
          "velocity": 0.8110236220472441,
          "duration": 0.26190495833333216
        },
        {
          "name": "F#2",
          "midi": 42,
          "time": 160.28583450000065,
          "velocity": 0.6771653543307087,
          "duration": 0.047619083333330536
        },
        {
          "name": "D4",
          "midi": 62,
          "time": 160.42869175000064,
          "velocity": 0.84251968503937,
          "duration": 0.11904770833334055
        },
        {
          "name": "B3",
          "midi": 59,
          "time": 160.42869175000064,
          "velocity": 0.7716535433070866,
          "duration": 0.2619049583333606
        },
        {
          "name": "G3",
          "midi": 55,
          "time": 160.42869175000064,
          "velocity": 0.5590551181102362,
          "duration": 0.2619049583333606
        },
        {
          "name": "B5",
          "midi": 83,
          "time": 160.42869175000064,
          "velocity": 0.7874015748031497,
          "duration": 0.28571450000004006
        },
        {
          "name": "B4",
          "midi": 71,
          "time": 160.57154900000066,
          "velocity": 0.7244094488188977,
          "duration": 0.2714287750000324
        },
        {
          "name": "D3",
          "midi": 50,
          "time": 160.57154900000066,
          "velocity": 0.6299212598425197,
          "duration": 0.11904770833334055
        },
        {
          "name": "G3",
          "midi": 55,
          "time": 160.57154900000066,
          "velocity": 0.6850393700787402,
          "duration": 0.4047622083333806
        },
        {
          "name": "B3",
          "midi": 59,
          "time": 160.57154900000066,
          "velocity": 0.6850393700787402,
          "duration": 0.4047622083333806
        },
        {
          "name": "D4",
          "midi": 62,
          "time": 160.57154900000066,
          "velocity": 0.5826771653543307,
          "duration": 0.11904770833334055
        },
        {
          "name": "D2",
          "midi": 38,
          "time": 160.57154900000066,
          "velocity": 0.7716535433070866,
          "duration": 0.047619083333330536
        },
        {
          "name": "F#2",
          "midi": 42,
          "time": 160.57154900000066,
          "velocity": 0.6771653543307087,
          "duration": 0.07142862500001002
        },
        {
          "name": "D4",
          "midi": 62,
          "time": 160.57154900000066,
          "velocity": 0.007874015748031496,
          "duration": 0.13809534166668413
        },
        {
          "name": "B4",
          "midi": 71,
          "time": 160.8572635000007,
          "velocity": 0.7244094488188977,
          "duration": 0.21428587500003005
        },
        {
          "name": "G1",
          "midi": 31,
          "time": 160.8572635000007,
          "velocity": 0.7874015748031497,
          "duration": 0.05714290000000233
        },
        {
          "name": "G3",
          "midi": 55,
          "time": 160.8572635000007,
          "velocity": 0.7086614173228346,
          "duration": 0.6904767083334207
        },
        {
          "name": "B3",
          "midi": 59,
          "time": 160.8572635000007,
          "velocity": 0.8818897637795275,
          "duration": 0.9761912083334607
        },
        {
          "name": "D4",
          "midi": 62,
          "time": 160.8572635000007,
          "velocity": 0.6456692913385826,
          "duration": 0.11904770833334055
        },
        {
          "name": "D5",
          "midi": 74,
          "time": 160.8572635000007,
          "velocity": 0.6850393700787402,
          "duration": 0.22380969166670184
        },
        {
          "name": "B5",
          "midi": 83,
          "time": 160.8572635000007,
          "velocity": 0.7559055118110236,
          "duration": 0.2714287750000324
        },
        {
          "name": "B4",
          "midi": 71,
          "time": 160.8572635000007,
          "velocity": 0.5196850393700787,
          "duration": 0.2714287750000324
        },
        {
          "name": "C2",
          "midi": 36,
          "time": 160.8572635000007,
          "velocity": 0.84251968503937,
          "duration": 0.05714290000000233
        },
        {
          "name": "D2",
          "midi": 38,
          "time": 160.8572635000007,
          "velocity": 0.7716535433070866,
          "duration": 0.05714290000000233
        },
        {
          "name": "F#2",
          "midi": 42,
          "time": 160.8572635000007,
          "velocity": 0.6771653543307087,
          "duration": 0.05714290000000233
        },
        {
          "name": "D4",
          "midi": 62,
          "time": 160.8572635000007,
          "velocity": 0.007874015748031496,
          "duration": 0.13809534166668413
        },
        {
          "name": "B4",
          "midi": 71,
          "time": 161.14297800000074,
          "velocity": 0.7244094488188977,
          "duration": 0.2619049583333606
        },
        {
          "name": "G1",
          "midi": 31,
          "time": 161.14297800000074,
          "velocity": 0.7874015748031497,
          "duration": 0.047619083333330536
        },
        {
          "name": "B5",
          "midi": 83,
          "time": 161.14297800000074,
          "velocity": 0.6771653543307087,
          "duration": 0.29523831666671185
        },
        {
          "name": "D5",
          "midi": 74,
          "time": 161.14297800000074,
          "velocity": 0.7952755905511811,
          "duration": 0.2380954166666811
        },
        {
          "name": "B4",
          "midi": 71,
          "time": 161.14297800000074,
          "velocity": 0.6771653543307087,
          "duration": 0.5476194583334006
        },
        {
          "name": "C2",
          "midi": 36,
          "time": 161.14297800000074,
          "velocity": 0.84251968503937,
          "duration": 0.07142862500001002
        },
        {
          "name": "F#2",
          "midi": 42,
          "time": 161.14297800000074,
          "velocity": 0.6771653543307087,
          "duration": 0.05714290000000233
        },
        {
          "name": "D4",
          "midi": 62,
          "time": 161.14297800000074,
          "velocity": 0.007874015748031496,
          "duration": 0.1666667916666711
        },
        {
          "name": "G1",
          "midi": 31,
          "time": 161.42869250000078,
          "velocity": 0.7874015748031497,
          "duration": 0.2619049583333606
        },
        {
          "name": "D3",
          "midi": 50,
          "time": 161.42869250000078,
          "velocity": 0.7952755905511811,
          "duration": 0.11904770833334055
        },
        {
          "name": "G3",
          "midi": 55,
          "time": 161.42869250000078,
          "velocity": 0.7086614173228346,
          "duration": 0.4047622083333806
        },
        {
          "name": "C2",
          "midi": 36,
          "time": 161.42869250000078,
          "velocity": 0.84251968503937,
          "duration": 0.28571450000004006
        },
        {
          "name": "F#2",
          "midi": 42,
          "time": 161.42869250000078,
          "velocity": 0.6771653543307087,
          "duration": 0.047619083333330536
        },
        {
          "name": "A5",
          "midi": 81,
          "time": 161.5715497500008,
          "velocity": 0.7637795275590551,
          "duration": 0.2619049583333606
        },
        {
          "name": "C5",
          "midi": 72,
          "time": 161.5715497500008,
          "velocity": 0.9133858267716536,
          "duration": 0.2476192333333529
        },
        {
          "name": "A4",
          "midi": 69,
          "time": 161.5715497500008,
          "velocity": 0.7086614173228346,
          "duration": 0.2619049583333606
        },
        {
          "name": "A4",
          "midi": 69,
          "time": 161.71440700000082,
          "velocity": 0.7244094488188977,
          "duration": 0.2476192333333529
        },
        {
          "name": "B1",
          "midi": 35,
          "time": 161.71440700000082,
          "velocity": 0.7874015748031497,
          "duration": 0.2619049583333606
        },
        {
          "name": "G3",
          "midi": 55,
          "time": 161.71440700000082,
          "velocity": 0.8110236220472441,
          "duration": 0.36666694166672187
        },
        {
          "name": "B3",
          "midi": 59,
          "time": 161.71440700000082,
          "velocity": 0.8976377952755905,
          "duration": 0.3571431250000501
        },
        {
          "name": "D4",
          "midi": 62,
          "time": 161.71440700000082,
          "velocity": 0.6141732283464567,
          "duration": 0.11904770833334055
        },
        {
          "name": "D2",
          "midi": 38,
          "time": 161.71440700000082,
          "velocity": 0.7716535433070866,
          "duration": 0.07142862500001002
        },
        {
          "name": "F#2",
          "midi": 42,
          "time": 161.71440700000082,
          "velocity": 0.6771653543307087,
          "duration": 0.047619083333330536
        },
        {
          "name": "D4",
          "midi": 62,
          "time": 161.71440700000082,
          "velocity": 0.007874015748031496,
          "duration": 0.12380961666667645
        },
        {
          "name": "A4",
          "midi": 69,
          "time": 162.00012150000086,
          "velocity": 0.7244094488188977,
          "duration": 0.557143275000044
        },
        {
          "name": "D2",
          "midi": 38,
          "time": 162.00012150000086,
          "velocity": 0.7874015748031497,
          "duration": 0.2714287750000324
        },
        {
          "name": "B3",
          "midi": 59,
          "time": 162.00012150000086,
          "velocity": 0.7637795275590551,
          "duration": 0.11904770833334055
        },
        {
          "name": "G3",
          "midi": 55,
          "time": 162.00012150000086,
          "velocity": 0.6299212598425197,
          "duration": 0.11904770833334055
        },
        {
          "name": "G5",
          "midi": 79,
          "time": 162.00012150000086,
          "velocity": 0.6692913385826772,
          "duration": 0.1666667916666995
        },
        {
          "name": "G4",
          "midi": 67,
          "time": 162.00012150000086,
          "velocity": 0.6141732283464567,
          "duration": 0.14285725000002003
        },
        {
          "name": "B4",
          "midi": 71,
          "time": 162.00012150000086,
          "velocity": 0.6929133858267716,
          "duration": 0.14285725000002003
        },
        {
          "name": "C2",
          "midi": 36,
          "time": 162.00012150000086,
          "velocity": 0.84251968503937,
          "duration": 0.07142862500001002
        },
        {
          "name": "F#2",
          "midi": 42,
          "time": 162.00012150000086,
          "velocity": 0.6771653543307087,
          "duration": 0.047619083333330536
        },
        {
          "name": "D4",
          "midi": 62,
          "time": 162.00012150000086,
          "velocity": 0.007874015748031496,
          "duration": 0.12380961666667645
        },
        {
          "name": "E2",
          "midi": 40,
          "time": 162.2858360000009,
          "velocity": 0.7874015748031497,
          "duration": 0.6904767083333638
        },
        {
          "name": "E3",
          "midi": 52,
          "time": 162.2858360000009,
          "velocity": 0.7401574803149606,
          "duration": 0.11904770833334055
        },
        {
          "name": "B2",
          "midi": 47,
          "time": 162.2858360000009,
          "velocity": 0.7086614173228346,
          "duration": 0.11904770833334055
        },
        {
          "name": "G3",
          "midi": 55,
          "time": 162.2858360000009,
          "velocity": 0.7952755905511811,
          "duration": 0.11904770833334055
        },
        {
          "name": "B3",
          "midi": 59,
          "time": 162.2858360000009,
          "velocity": 0.8031496062992126,
          "duration": 0.11904770833334055
        },
        {
          "name": "E4",
          "midi": 64,
          "time": 162.2858360000009,
          "velocity": 0.7795275590551181,
          "duration": 0.11904770833334055
        },
        {
          "name": "E5",
          "midi": 76,
          "time": 162.2858360000009,
          "velocity": 0.7401574803149606,
          "duration": 1.8904776083334127
        },
        {
          "name": "E4",
          "midi": 64,
          "time": 162.2858360000009,
          "velocity": 0.905511811023622,
          "duration": 0.5476194583333438
        },
        {
          "name": "G4",
          "midi": 67,
          "time": 162.2858360000009,
          "velocity": 0.8582677165354331,
          "duration": 1.8190489833334027
        },
        {
          "name": "C2",
          "midi": 36,
          "time": 162.2858360000009,
          "velocity": 0.84251968503937,
          "duration": 0.5714290000000233
        },
        {
          "name": "F#2",
          "midi": 42,
          "time": 162.2858360000009,
          "velocity": 0.6771653543307087,
          "duration": 0.047619083333330536
        },
        {
          "name": "A3",
          "midi": 57,
          "time": 162.2858360000009,
          "velocity": 0.6141732283464567,
          "duration": 2.485716150000087
        },
        {
          "name": "B4",
          "midi": 71,
          "time": 162.5715505000009,
          "velocity": 0.7244094488188977,
          "duration": 0.9428578500000526
        },
        {
          "name": "F#2",
          "midi": 42,
          "time": 162.5715505000009,
          "velocity": 0.6771653543307087,
          "duration": 0.047619083333330536
        },
        {
          "name": "D4",
          "midi": 62,
          "time": 162.5715505000009,
          "velocity": 0.007874015748031496,
          "duration": 0.061904808333338224
        },
        {
          "name": "E4",
          "midi": 64,
          "time": 162.7144077500009,
          "velocity": 0.7952755905511811,
          "duration": 0.2619049583333606
        },
        {
          "name": "B3",
          "midi": 59,
          "time": 162.7144077500009,
          "velocity": 0.7086614173228346,
          "duration": 0.11904770833334055
        },
        {
          "name": "G3",
          "midi": 55,
          "time": 162.7144077500009,
          "velocity": 0.5905511811023622,
          "duration": 0.11904770833334055
        },
        {
          "name": "E2",
          "midi": 40,
          "time": 162.85726500000092,
          "velocity": 0.6299212598425197,
          "duration": 0.27142877500000395
        },
        {
          "name": "B2",
          "midi": 47,
          "time": 162.85726500000092,
          "velocity": 0.7086614173228346,
          "duration": 0.11904770833334055
        },
        {
          "name": "E3",
          "midi": 52,
          "time": 162.85726500000092,
          "velocity": 0.8661417322834646,
          "duration": 0.11904770833334055
        },
        {
          "name": "G3",
          "midi": 55,
          "time": 162.85726500000092,
          "velocity": 0.8740157480314961,
          "duration": 0.11904770833334055
        },
        {
          "name": "B3",
          "midi": 59,
          "time": 162.85726500000092,
          "velocity": 0.8661417322834646,
          "duration": 0.11904770833334055
        },
        {
          "name": "E4",
          "midi": 64,
          "time": 162.85726500000092,
          "velocity": 0.7874015748031497,
          "duration": 0.4047622083333522
        },
        {
          "name": "D2",
          "midi": 38,
          "time": 162.85726500000092,
          "velocity": 0.7716535433070866,
          "duration": 0.047619083333330536
        },
        {
          "name": "F#2",
          "midi": 42,
          "time": 162.85726500000092,
          "velocity": 0.6771653543307087,
          "duration": 0.07142862500001002
        },
        {
          "name": "B1",
          "midi": 35,
          "time": 163.14297950000093,
          "velocity": 0.7874015748031497,
          "duration": 0.28571450000001164
        },
        {
          "name": "G3",
          "midi": 55,
          "time": 163.14297950000093,
          "velocity": 0.9291338582677166,
          "duration": 0.11904770833334055
        },
        {
          "name": "B3",
          "midi": 59,
          "time": 163.14297950000093,
          "velocity": 0.9606299212598425,
          "duration": 0.11904770833334055
        },
        {
          "name": "E4",
          "midi": 64,
          "time": 163.14297950000093,
          "velocity": 0.8818897637795275,
          "duration": 0.9761912083333755
        },
        {
          "name": "B3",
          "midi": 59,
          "time": 163.14297950000093,
          "velocity": 0.6377952755905512,
          "duration": 0.2380954166666811
        },
        {
          "name": "G3",
          "midi": 55,
          "time": 163.14297950000093,
          "velocity": 0.7401574803149606,
          "duration": 0.22380969166667342
        },
        {
          "name": "C2",
          "midi": 36,
          "time": 163.14297950000093,
          "velocity": 0.84251968503937,
          "duration": 0.05714290000000233
        },
        {
          "name": "D2",
          "midi": 38,
          "time": 163.14297950000093,
          "velocity": 0.7716535433070866,
          "duration": 0.05714290000000233
        },
        {
          "name": "F#2",
          "midi": 42,
          "time": 163.14297950000093,
          "velocity": 0.6771653543307087,
          "duration": 0.05714290000000233
        },
        {
          "name": "E2",
          "midi": 40,
          "time": 163.42869400000095,
          "velocity": 0.7874015748031497,
          "duration": 0.05714290000000233
        },
        {
          "name": "G3",
          "midi": 55,
          "time": 163.42869400000095,
          "velocity": 0.7874015748031497,
          "duration": 0.4619051083333545
        },
        {
          "name": "B3",
          "midi": 59,
          "time": 163.42869400000095,
          "velocity": 0.8267716535433071,
          "duration": 0.4761908333333622
        },
        {
          "name": "C2",
          "midi": 36,
          "time": 163.42869400000095,
          "velocity": 0.84251968503937,
          "duration": 0.07142862500001002
        },
        {
          "name": "F#2",
          "midi": 42,
          "time": 163.42869400000095,
          "velocity": 0.6771653543307087,
          "duration": 0.05714290000000233
        },
        {
          "name": "A4",
          "midi": 69,
          "time": 163.57155125000097,
          "velocity": 0.7244094488188977,
          "duration": 0.08095244166665339
        },
        {
          "name": "G4",
          "midi": 67,
          "time": 163.71440850000096,
          "velocity": 0.7244094488188977,
          "duration": 1.2238104416666715
        },
        {
          "name": "E2",
          "midi": 40,
          "time": 163.71440850000096,
          "velocity": 0.7874015748031497,
          "duration": 0.11904770833334055
        },
        {
          "name": "E2",
          "midi": 40,
          "time": 163.71440850000096,
          "velocity": 0.8110236220472441,
          "duration": 0.5571432750000156
        },
        {
          "name": "B2",
          "midi": 47,
          "time": 163.71440850000096,
          "velocity": 0.8740157480314961,
          "duration": 0.11904770833334055
        },
        {
          "name": "E3",
          "midi": 52,
          "time": 163.71440850000096,
          "velocity": 0.7244094488188977,
          "duration": 0.11904770833334055
        },
        {
          "name": "C2",
          "midi": 36,
          "time": 163.71440850000096,
          "velocity": 0.84251968503937,
          "duration": 0.28571450000001164
        },
        {
          "name": "F#2",
          "midi": 42,
          "time": 163.71440850000096,
          "velocity": 0.6771653543307087,
          "duration": 0.047619083333330536
        },
        {
          "name": "E3",
          "midi": 52,
          "time": 164.00012300000097,
          "velocity": 0.8346456692913385,
          "duration": 0.11904770833334055
        },
        {
          "name": "G3",
          "midi": 55,
          "time": 164.00012300000097,
          "velocity": 0.8818897637795275,
          "duration": 0.11904770833334055
        },
        {
          "name": "B3",
          "midi": 59,
          "time": 164.00012300000097,
          "velocity": 0.9291338582677166,
          "duration": 0.11904770833334055
        },
        {
          "name": "E4",
          "midi": 64,
          "time": 164.00012300000097,
          "velocity": 0.9291338582677166,
          "duration": 0.12857152500001234
        },
        {
          "name": "B3",
          "midi": 59,
          "time": 164.00012300000097,
          "velocity": 0.7795275590551181,
          "duration": 0.2380954166666811
        },
        {
          "name": "G3",
          "midi": 55,
          "time": 164.00012300000097,
          "velocity": 0.8110236220472441,
          "duration": 0.2380954166666811
        },
        {
          "name": "D2",
          "midi": 38,
          "time": 164.00012300000097,
          "velocity": 0.7716535433070866,
          "duration": 0.07142862500001002
        },
        {
          "name": "F#2",
          "midi": 42,
          "time": 164.00012300000097,
          "velocity": 0.6771653543307087,
          "duration": 0.047619083333330536
        },
        {
          "name": "B1",
          "midi": 35,
          "time": 164.28583750000098,
          "velocity": 0.7874015748031497,
          "duration": 0.27142877500000395
        },
        {
          "name": "D#2",
          "midi": 39,
          "time": 164.28583750000098,
          "velocity": 0.3700787401574803,
          "duration": 0.11904770833334055
        },
        {
          "name": "B3",
          "midi": 59,
          "time": 164.28583750000098,
          "velocity": 0.7007874015748031,
          "duration": 0.11904770833334055
        },
        {
          "name": "E4",
          "midi": 64,
          "time": 164.28583750000098,
          "velocity": 0.5826771653543307,
          "duration": 0.11904770833334055
        },
        {
          "name": "F#3",
          "midi": 54,
          "time": 164.28583750000098,
          "velocity": 0.8267716535433071,
          "duration": 0.4523812916666827
        },
        {
          "name": "A3",
          "midi": 57,
          "time": 164.28583750000098,
          "velocity": 0.7244094488188977,
          "duration": 2.047620583333412
        },
        {
          "name": "C2",
          "midi": 36,
          "time": 164.28583750000098,
          "velocity": 0.84251968503937,
          "duration": 0.07142862500001002
        },
        {
          "name": "F#2",
          "midi": 42,
          "time": 164.28583750000098,
          "velocity": 0.6771653543307087,
          "duration": 0.047619083333330536
        },
        {
          "name": "E2",
          "midi": 40,
          "time": 164.571552000001,
          "velocity": 0.7874015748031497,
          "duration": 0.8666673166666783
        },
        {
          "name": "B3",
          "midi": 59,
          "time": 164.571552000001,
          "velocity": 0.7401574803149606,
          "duration": 0.11904770833334055
        },
        {
          "name": "E4",
          "midi": 64,
          "time": 164.571552000001,
          "velocity": 0.7244094488188977,
          "duration": 0.11904770833334055
        },
        {
          "name": "G3",
          "midi": 55,
          "time": 164.571552000001,
          "velocity": 0.6850393700787402,
          "duration": 0.11904770833334055
        },
        {
          "name": "C2",
          "midi": 36,
          "time": 164.571552000001,
          "velocity": 0.84251968503937,
          "duration": 0.5714289999999949
        },
        {
          "name": "F#2",
          "midi": 42,
          "time": 164.571552000001,
          "velocity": 0.6771653543307087,
          "duration": 0.047619083333330536
        },
        {
          "name": "B3",
          "midi": 59,
          "time": 164.85726650000097,
          "velocity": 0.6062992125984252,
          "duration": 0.11904770833331213
        },
        {
          "name": "E4",
          "midi": 64,
          "time": 164.85726650000097,
          "velocity": 0.5826771653543307,
          "duration": 0.11904770833331213
        },
        {
          "name": "G3",
          "midi": 55,
          "time": 164.85726650000097,
          "velocity": 0.7559055118110236,
          "duration": 1.4285725000000866
        },
        {
          "name": "B3",
          "midi": 59,
          "time": 164.85726650000097,
          "velocity": 0.8267716535433071,
          "duration": 0.26190495833333216
        },
        {
          "name": "F#2",
          "midi": 42,
          "time": 164.85726650000097,
          "velocity": 0.6771653543307087,
          "duration": 0.047619083333330536
        },
        {
          "name": "E4",
          "midi": 64,
          "time": 165.00012375000097,
          "velocity": 0.7401574803149606,
          "duration": 0.11904770833334055
        },
        {
          "name": "B3",
          "midi": 59,
          "time": 165.00012375000097,
          "velocity": 0.5826771653543307,
          "duration": 0.2619049583333606
        },
        {
          "name": "B3",
          "midi": 59,
          "time": 165.142981000001,
          "velocity": 0.7086614173228346,
          "duration": 0.4047622083333522
        },
        {
          "name": "E4",
          "midi": 64,
          "time": 165.142981000001,
          "velocity": 0.7401574803149606,
          "duration": 0.11904770833334055
        },
        {
          "name": "D2",
          "midi": 38,
          "time": 165.142981000001,
          "velocity": 0.7716535433070866,
          "duration": 0.047619083333330536
        },
        {
          "name": "F#2",
          "midi": 42,
          "time": 165.142981000001,
          "velocity": 0.6771653543307087,
          "duration": 0.07142862500001002
        },
        {
          "name": "B1",
          "midi": 35,
          "time": 165.428695500001,
          "velocity": 0.7874015748031497,
          "duration": 0.27142877500000395
        },
        {
          "name": "E3",
          "midi": 52,
          "time": 165.428695500001,
          "velocity": 0.6141732283464567,
          "duration": 0.11904770833334055
        },
        {
          "name": "B3",
          "midi": 59,
          "time": 165.428695500001,
          "velocity": 0.7401574803149606,
          "duration": 0.8428577750000557
        },
        {
          "name": "E4",
          "midi": 64,
          "time": 165.428695500001,
          "velocity": 0.7559055118110236,
          "duration": 0.11904770833334055
        },
        {
          "name": "G5",
          "midi": 79,
          "time": 165.428695500001,
          "velocity": 0.7401574803149606,
          "duration": 0.12857152500001234
        },
        {
          "name": "B4",
          "midi": 71,
          "time": 165.428695500001,
          "velocity": 0.9133858267716536,
          "duration": 0.09523816666666107
        },
        {
          "name": "G4",
          "midi": 67,
          "time": 165.428695500001,
          "velocity": 0.8267716535433071,
          "duration": 0.09523816666666107
        },
        {
          "name": "C2",
          "midi": 36,
          "time": 165.428695500001,
          "velocity": 0.84251968503937,
          "duration": 0.05714290000000233
        },
        {
          "name": "D2",
          "midi": 38,
          "time": 165.428695500001,
          "velocity": 0.7716535433070866,
          "duration": 0.05714290000000233
        },
        {
          "name": "F#2",
          "midi": 42,
          "time": 165.428695500001,
          "velocity": 0.6771653543307087,
          "duration": 0.05714290000000233
        },
        {
          "name": "E5",
          "midi": 76,
          "time": 165.714410000001,
          "velocity": 0.7244094488188977,
          "duration": 0.5666670916667158
        },
        {
          "name": "E2",
          "midi": 40,
          "time": 165.714410000001,
          "velocity": 0.7874015748031497,
          "duration": 0.03333335833332285
        },
        {
          "name": "B4",
          "midi": 71,
          "time": 165.714410000001,
          "velocity": 0.9133858267716536,
          "duration": 0.35714312500002166
        },
        {
          "name": "G5",
          "midi": 79,
          "time": 165.714410000001,
          "velocity": 0.7795275590551181,
          "duration": 0.34285740000001397
        },
        {
          "name": "G4",
          "midi": 67,
          "time": 165.714410000001,
          "velocity": 0.8582677165354331,
          "duration": 0.3190478583333345
        },
        {
          "name": "C2",
          "midi": 36,
          "time": 165.714410000001,
          "velocity": 0.84251968503937,
          "duration": 0.07142862500001002
        },
        {
          "name": "F#2",
          "midi": 42,
          "time": 165.714410000001,
          "velocity": 0.6771653543307087,
          "duration": 0.05714290000000233
        },
        {
          "name": "D4",
          "midi": 62,
          "time": 165.714410000001,
          "velocity": 0.007874015748031496,
          "duration": 0.14285725000002003
        },
        {
          "name": "E2",
          "midi": 40,
          "time": 166.00012450000102,
          "velocity": 0.7874015748031497,
          "duration": 0.29523831666671185
        },
        {
          "name": "E3",
          "midi": 52,
          "time": 166.00012450000102,
          "velocity": 0.6614173228346457,
          "duration": 0.11904770833334055
        },
        {
          "name": "B2",
          "midi": 47,
          "time": 166.00012450000102,
          "velocity": 0.6299212598425197,
          "duration": 0.11904770833334055
        },
        {
          "name": "C2",
          "midi": 36,
          "time": 166.00012450000102,
          "velocity": 0.84251968503937,
          "duration": 0.28571450000004006
        },
        {
          "name": "F#2",
          "midi": 42,
          "time": 166.00012450000102,
          "velocity": 0.6771653543307087,
          "duration": 0.047619083333330536
        },
        {
          "name": "C5",
          "midi": 72,
          "time": 166.14298175000104,
          "velocity": 0.9133858267716536,
          "duration": 0.2714287750000324
        },
        {
          "name": "A5",
          "midi": 81,
          "time": 166.14298175000104,
          "velocity": 0.8267716535433071,
          "duration": 0.2714287750000324
        },
        {
          "name": "A4",
          "midi": 69,
          "time": 166.14298175000104,
          "velocity": 0.7559055118110236,
          "duration": 0.2619049583333606
        },
        {
          "name": "G5",
          "midi": 79,
          "time": 166.14298175000104,
          "velocity": 0.7401574803149606,
          "duration": 0.07142862500001002
        },
        {
          "name": "E5",
          "midi": 76,
          "time": 166.28583900000106,
          "velocity": 0.7244094488188977,
          "duration": 0.2619049583333606
        },
        {
          "name": "B1",
          "midi": 35,
          "time": 166.28583900000106,
          "velocity": 0.7874015748031497,
          "duration": 0.2380954166666811
        },
        {
          "name": "B3",
          "midi": 59,
          "time": 166.28583900000106,
          "velocity": 0.8110236220472441,
          "duration": 0.11904770833334055
        },
        {
          "name": "E4",
          "midi": 64,
          "time": 166.28583900000106,
          "velocity": 0.8110236220472441,
          "duration": 0.11904770833334055
        },
        {
          "name": "D2",
          "midi": 38,
          "time": 166.28583900000106,
          "velocity": 0.7716535433070866,
          "duration": 0.07142862500001002
        },
        {
          "name": "F#2",
          "midi": 42,
          "time": 166.28583900000106,
          "velocity": 0.6771653543307087,
          "duration": 0.047619083333330536
        },
        {
          "name": "D4",
          "midi": 62,
          "time": 166.28583900000106,
          "velocity": 0.007874015748031496,
          "duration": 0.13333343333334824
        },
        {
          "name": "D5",
          "midi": 74,
          "time": 166.5715535000011,
          "velocity": 0.7244094488188977,
          "duration": 0.2380954166666811
        },
        {
          "name": "D2",
          "midi": 38,
          "time": 166.5715535000011,
          "velocity": 0.7874015748031497,
          "duration": 0.28571450000004006
        },
        {
          "name": "B3",
          "midi": 59,
          "time": 166.5715535000011,
          "velocity": 0.7952755905511811,
          "duration": 0.11904770833334055
        },
        {
          "name": "B4",
          "midi": 71,
          "time": 166.5715535000011,
          "velocity": 0.7401574803149606,
          "duration": 0.21428587500000162
        },
        {
          "name": "D5",
          "midi": 74,
          "time": 166.5715535000011,
          "velocity": 0.84251968503937,
          "duration": 0.2714287750000324
        },
        {
          "name": "B5",
          "midi": 83,
          "time": 166.5715535000011,
          "velocity": 0.8582677165354331,
          "duration": 0.2476192333333529
        },
        {
          "name": "C2",
          "midi": 36,
          "time": 166.5715535000011,
          "velocity": 0.84251968503937,
          "duration": 0.07142862500001002
        },
        {
          "name": "F#2",
          "midi": 42,
          "time": 166.5715535000011,
          "velocity": 0.6771653543307087,
          "duration": 0.047619083333330536
        },
        {
          "name": "D4",
          "midi": 62,
          "time": 166.5715535000011,
          "velocity": 0.007874015748031496,
          "duration": 0.8523815916667274
        },
        {
          "name": "E5",
          "midi": 76,
          "time": 166.85726800000114,
          "velocity": 0.7244094488188977,
          "duration": 0.4619051083333545
        },
        {
          "name": "C2",
          "midi": 36,
          "time": 166.85726800000114,
          "velocity": 0.7874015748031497,
          "duration": 0.5714290000000233
        },
        {
          "name": "C3",
          "midi": 48,
          "time": 166.85726800000114,
          "velocity": 0.6614173228346457,
          "duration": 0.11904770833334055
        },
        {
          "name": "G3",
          "midi": 55,
          "time": 166.85726800000114,
          "velocity": 0.905511811023622,
          "duration": 0.11904770833334055
        },
        {
          "name": "C4",
          "midi": 60,
          "time": 166.85726800000114,
          "velocity": 0.9133858267716536,
          "duration": 0.11904770833334055
        },
        {
          "name": "E4",
          "midi": 64,
          "time": 166.85726800000114,
          "velocity": 0.8582677165354331,
          "duration": 0.11904770833334055
        },
        {
          "name": "B5",
          "midi": 83,
          "time": 166.85726800000114,
          "velocity": 0.8346456692913385,
          "duration": 0.7380957916667512
        },
        {
          "name": "B4",
          "midi": 71,
          "time": 166.85726800000114,
          "velocity": 0.905511811023622,
          "duration": 0.7238100666667435
        },
        {
          "name": "D5",
          "midi": 74,
          "time": 166.85726800000114,
          "velocity": 0.889763779527559,
          "duration": 0.6523814416667051
        },
        {
          "name": "E4",
          "midi": 64,
          "time": 166.85726800000114,
          "velocity": 0.7165354330708661,
          "duration": 0.4047622083333522
        },
        {
          "name": "C4",
          "midi": 60,
          "time": 166.85726800000114,
          "velocity": 0.7559055118110236,
          "duration": 0.4047622083333522
        },
        {
          "name": "G3",
          "midi": 55,
          "time": 166.85726800000114,
          "velocity": 0.6771653543307087,
          "duration": 0.6904767083333923
        },
        {
          "name": "C2",
          "midi": 36,
          "time": 166.85726800000114,
          "velocity": 0.84251968503937,
          "duration": 0.8809530416667712
        },
        {
          "name": "F#2",
          "midi": 42,
          "time": 166.85726800000114,
          "velocity": 0.6771653543307087,
          "duration": 0.047619083333330536
        },
        {
          "name": "A3",
          "midi": 57,
          "time": 166.85726800000114,
          "velocity": 0.5039370078740157,
          "duration": 1.547620208333484
        },
        {
          "name": "C4",
          "midi": 60,
          "time": 167.14298250000115,
          "velocity": 0.6299212598425197,
          "duration": 0.4047622083333806
        },
        {
          "name": "E4",
          "midi": 64,
          "time": 167.14298250000115,
          "velocity": 0.6456692913385826,
          "duration": 0.26190495833333216
        },
        {
          "name": "F#2",
          "midi": 42,
          "time": 167.14298250000115,
          "velocity": 0.6771653543307087,
          "duration": 0.047619083333330536
        },
        {
          "name": "E4",
          "midi": 64,
          "time": 167.28583975000117,
          "velocity": 0.8582677165354331,
          "duration": 0.2619049583333606
        },
        {
          "name": "D5",
          "midi": 74,
          "time": 167.42869700000116,
          "velocity": 0.7244094488188977,
          "duration": 0.10476198333336129
        },
        {
          "name": "G3",
          "midi": 55,
          "time": 167.42869700000116,
          "velocity": 0.6299212598425197,
          "duration": 0.40476220833340903
        },
        {
          "name": "C4",
          "midi": 60,
          "time": 167.42869700000116,
          "velocity": 0.8267716535433071,
          "duration": 0.40476220833340903
        },
        {
          "name": "E4",
          "midi": 64,
          "time": 167.42869700000116,
          "velocity": 0.8110236220472441,
          "duration": 1.2619057083334724
        },
        {
          "name": "D2",
          "midi": 38,
          "time": 167.42869700000116,
          "velocity": 0.7716535433070866,
          "duration": 0.047619083333330536
        },
        {
          "name": "F#2",
          "midi": 42,
          "time": 167.42869700000116,
          "velocity": 0.6771653543307087,
          "duration": 0.07142862500001002
        },
        {
          "name": "E5",
          "midi": 76,
          "time": 167.5715542500012,
          "velocity": 0.7244094488188977,
          "duration": 0.15238106666669182
        },
        {
          "name": "D5",
          "midi": 74,
          "time": 167.71441150000123,
          "velocity": 0.7244094488188977,
          "duration": 0.3095240416666911
        },
        {
          "name": "G1",
          "midi": 31,
          "time": 167.71441150000123,
          "velocity": 0.7874015748031497,
          "duration": 0.07142862500001002
        },
        {
          "name": "C3",
          "midi": 48,
          "time": 167.71441150000123,
          "velocity": 0.7165354330708661,
          "duration": 0.11904770833334055
        },
        {
          "name": "G3",
          "midi": 55,
          "time": 167.71441150000123,
          "velocity": 0.8582677165354331,
          "duration": 0.6904767083333923
        },
        {
          "name": "C4",
          "midi": 60,
          "time": 167.71441150000123,
          "velocity": 0.8740157480314961,
          "duration": 0.9761912083334039
        },
        {
          "name": "E5",
          "midi": 76,
          "time": 167.71441150000123,
          "velocity": 0.8110236220472441,
          "duration": 1.6190488333334656
        },
        {
          "name": "C5",
          "midi": 72,
          "time": 167.71441150000123,
          "velocity": 0.7637795275590551,
          "duration": 0.5476194583333722
        },
        {
          "name": "C6",
          "midi": 84,
          "time": 167.71441150000123,
          "velocity": 0.889763779527559,
          "duration": 1.5571440250001274
        },
        {
          "name": "C2",
          "midi": 36,
          "time": 167.71441150000123,
          "velocity": 0.84251968503937,
          "duration": 0.05714290000000233
        },
        {
          "name": "D2",
          "midi": 38,
          "time": 167.71441150000123,
          "velocity": 0.7716535433070866,
          "duration": 0.05714290000000233
        },
        {
          "name": "F#2",
          "midi": 42,
          "time": 167.71441150000123,
          "velocity": 0.6771653543307087,
          "duration": 0.05714290000000233
        },
        {
          "name": "C5",
          "midi": 72,
          "time": 168.00012600000125,
          "velocity": 0.7244094488188977,
          "duration": 1.333334333333454
        },
        {
          "name": "C2",
          "midi": 36,
          "time": 168.00012600000125,
          "velocity": 0.7874015748031497,
          "duration": 0.03333335833335127
        },
        {
          "name": "C2",
          "midi": 36,
          "time": 168.00012600000125,
          "velocity": 0.84251968503937,
          "duration": 0.07142862500003844
        },
        {
          "name": "F#2",
          "midi": 42,
          "time": 168.00012600000125,
          "velocity": 0.6771653543307087,
          "duration": 0.05714290000003075
        },
        {
          "name": "A4",
          "midi": 69,
          "time": 168.28584050000129,
          "velocity": 0.7244094488188977,
          "duration": 0.11428580000000466
        },
        {
          "name": "C2",
          "midi": 36,
          "time": 168.28584050000129,
          "velocity": 0.7874015748031497,
          "duration": 0.28571450000001164
        },
        {
          "name": "C3",
          "midi": 48,
          "time": 168.28584050000129,
          "velocity": 0.6692913385826772,
          "duration": 0.11904770833334055
        },
        {
          "name": "G3",
          "midi": 55,
          "time": 168.28584050000129,
          "velocity": 0.7559055118110236,
          "duration": 0.4047622083333522
        },
        {
          "name": "C2",
          "midi": 36,
          "time": 168.28584050000129,
          "velocity": 0.84251968503937,
          "duration": 0.5714290000000233
        },
        {
          "name": "F#2",
          "midi": 42,
          "time": 168.28584050000129,
          "velocity": 0.6771653543307087,
          "duration": 0.047619083333330536
        },
        {
          "name": "G4",
          "midi": 67,
          "time": 168.4286977500013,
          "velocity": 0.7244094488188977,
          "duration": 0.6761909833333561
        },
        {
          "name": "E4",
          "midi": 64,
          "time": 168.5715550000013,
          "velocity": 0.7322834645669292,
          "duration": 0.6904767083333923
        },
        {
          "name": "G3",
          "midi": 55,
          "time": 168.5715550000013,
          "velocity": 0.7795275590551181,
          "duration": 0.6904767083333923
        },
        {
          "name": "C4",
          "midi": 60,
          "time": 168.5715550000013,
          "velocity": 0.8346456692913385,
          "duration": 0.6904767083333923
        },
        {
          "name": "D2",
          "midi": 38,
          "time": 168.5715550000013,
          "velocity": 0.7716535433070866,
          "duration": 0.07142862500001002
        },
        {
          "name": "F#2",
          "midi": 42,
          "time": 168.5715550000013,
          "velocity": 0.6771653543307087,
          "duration": 0.047619083333330536
        },
        {
          "name": "G1",
          "midi": 31,
          "time": 168.8572695000013,
          "velocity": 0.7874015748031497,
          "duration": 0.05714290000000233
        },
        {
          "name": "C2",
          "midi": 36,
          "time": 168.8572695000013,
          "velocity": 0.84251968503937,
          "duration": 0.07142862500001002
        },
        {
          "name": "F#2",
          "midi": 42,
          "time": 168.8572695000013,
          "velocity": 0.6771653543307087,
          "duration": 0.047619083333330536
        },
        {
          "name": "C2",
          "midi": 36,
          "time": 169.14298400000135,
          "velocity": 0.7874015748031497,
          "duration": 0.5714290000000517
        },
        {
          "name": "C3",
          "midi": 48,
          "time": 169.14298400000135,
          "velocity": 0.6614173228346457,
          "duration": 0.11904770833334055
        },
        {
          "name": "G3",
          "midi": 55,
          "time": 169.14298400000135,
          "velocity": 0.905511811023622,
          "duration": 0.6904767083333923
        },
        {
          "name": "C4",
          "midi": 60,
          "time": 169.14298400000135,
          "velocity": 0.9133858267716536,
          "duration": 0.4047622083333522
        },
        {
          "name": "E4",
          "midi": 64,
          "time": 169.14298400000135,
          "velocity": 0.8582677165354331,
          "duration": 0.4047622083333522
        },
        {
          "name": "C2",
          "midi": 36,
          "time": 169.14298400000135,
          "velocity": 0.84251968503937,
          "duration": 0.8809530416667712
        },
        {
          "name": "F#2",
          "midi": 42,
          "time": 169.14298400000135,
          "velocity": 0.6771653543307087,
          "duration": 0.047619083333330536
        },
        {
          "name": "C4",
          "midi": 60,
          "time": 169.42869850000136,
          "velocity": 0.6299212598425197,
          "duration": 0.4047622083333806
        },
        {
          "name": "E4",
          "midi": 64,
          "time": 169.42869850000136,
          "velocity": 0.6456692913385826,
          "duration": 0.2619049583333606
        },
        {
          "name": "F#2",
          "midi": 42,
          "time": 169.42869850000136,
          "velocity": 0.6771653543307087,
          "duration": 0.047619083333330536
        },
        {
          "name": "E4",
          "midi": 64,
          "time": 169.57155575000138,
          "velocity": 0.8582677165354331,
          "duration": 0.2619049583333606
        },
        {
          "name": "D5",
          "midi": 74,
          "time": 169.7144130000014,
          "velocity": 0.7244094488188977,
          "duration": 0.2619049583333606
        },
        {
          "name": "G3",
          "midi": 55,
          "time": 169.7144130000014,
          "velocity": 0.6299212598425197,
          "duration": 0.40476220833340903
        },
        {
          "name": "C4",
          "midi": 60,
          "time": 169.7144130000014,
          "velocity": 0.8267716535433071,
          "duration": 0.40476220833340903
        },
        {
          "name": "E4",
          "midi": 64,
          "time": 169.7144130000014,
          "velocity": 0.8110236220472441,
          "duration": 0.6047623583334314
        },
        {
          "name": "D2",
          "midi": 38,
          "time": 169.7144130000014,
          "velocity": 0.7716535433070866,
          "duration": 0.047619083333330536
        },
        {
          "name": "F#2",
          "midi": 42,
          "time": 169.7144130000014,
          "velocity": 0.6771653543307087,
          "duration": 0.07142862500001002
        },
        {
          "name": "D4",
          "midi": 62,
          "time": 169.7144130000014,
          "velocity": 0.007874015748031496,
          "duration": 0.13333343333334824
        },
        {
          "name": "E5",
          "midi": 76,
          "time": 170.00012750000144,
          "velocity": 0.7244094488188977,
          "duration": 0.24761923333338132
        },
        {
          "name": "G1",
          "midi": 31,
          "time": 170.00012750000144,
          "velocity": 0.7874015748031497,
          "duration": 0.05714290000003075
        },
        {
          "name": "C3",
          "midi": 48,
          "time": 170.00012750000144,
          "velocity": 0.7165354330708661,
          "duration": 0.11904770833336897
        },
        {
          "name": "G3",
          "midi": 55,
          "time": 170.00012750000144,
          "velocity": 0.8582677165354331,
          "duration": 0.30952404166671954
        },
        {
          "name": "C4",
          "midi": 60,
          "time": 170.00012750000144,
          "velocity": 0.8740157480314961,
          "duration": 0.31904785833339133
        },
        {
          "name": "G5",
          "midi": 79,
          "time": 170.00012750000144,
          "velocity": 0.7795275590551181,
          "duration": 0.07142862500003844
        },
        {
          "name": "C5",
          "midi": 72,
          "time": 170.00012750000144,
          "velocity": 0.84251968503937,
          "duration": 0.04761908333335896
        },
        {
          "name": "G4",
          "midi": 67,
          "time": 170.00012750000144,
          "velocity": 0.7795275590551181,
          "duration": 0.05714290000003075
        },
        {
          "name": "C2",
          "midi": 36,
          "time": 170.00012750000144,
          "velocity": 0.84251968503937,
          "duration": 0.05714290000003075
        },
        {
          "name": "D2",
          "midi": 38,
          "time": 170.00012750000144,
          "velocity": 0.7716535433070866,
          "duration": 0.05714290000003075
        },
        {
          "name": "F#2",
          "midi": 42,
          "time": 170.00012750000144,
          "velocity": 0.6771653543307087,
          "duration": 0.05714290000003075
        },
        {
          "name": "D4",
          "midi": 62,
          "time": 170.00012750000144,
          "velocity": 0.007874015748031496,
          "duration": 0.12380961666670487
        },
        {
          "name": "C5",
          "midi": 72,
          "time": 170.1429847500015,
          "velocity": 0.889763779527559,
          "duration": 0.07142862500001002
        },
        {
          "name": "G4",
          "midi": 67,
          "time": 170.1429847500015,
          "velocity": 0.7086614173228346,
          "duration": 0.05714290000000233
        },
        {
          "name": "G5",
          "midi": 79,
          "time": 170.1429847500015,
          "velocity": 0.7637795275590551,
          "duration": 0.07142862500001002
        },
        {
          "name": "E5",
          "midi": 76,
          "time": 170.28584200000148,
          "velocity": 0.7244094488188977,
          "duration": 0.23809541666670953
        },
        {
          "name": "C2",
          "midi": 36,
          "time": 170.28584200000148,
          "velocity": 0.7874015748031497,
          "duration": 0.04761908333335896
        },
        {
          "name": "G5",
          "midi": 79,
          "time": 170.28584200000148,
          "velocity": 0.7637795275590551,
          "duration": 0.3333335833333706
        },
        {
          "name": "G4",
          "midi": 67,
          "time": 170.28584200000148,
          "velocity": 0.7559055118110236,
          "duration": 0.3190478583333629
        },
        {
          "name": "C5",
          "midi": 72,
          "time": 170.28584200000148,
          "velocity": 0.889763779527559,
          "duration": 0.3190478583333629
        },
        {
          "name": "C2",
          "midi": 36,
          "time": 170.28584200000148,
          "velocity": 0.84251968503937,
          "duration": 0.07142862500003844
        },
        {
          "name": "F#2",
          "midi": 42,
          "time": 170.28584200000148,
          "velocity": 0.6771653543307087,
          "duration": 0.05714290000003075
        },
        {
          "name": "D4",
          "midi": 62,
          "time": 170.28584200000148,
          "velocity": 0.007874015748031496,
          "duration": 0.11904770833336897
        },
        {
          "name": "E5",
          "midi": 76,
          "time": 170.57155650000152,
          "velocity": 0.7244094488188977,
          "duration": 0.22380969166667342
        },
        {
          "name": "C2",
          "midi": 36,
          "time": 170.57155650000152,
          "velocity": 0.7874015748031497,
          "duration": 0.28571450000001164
        },
        {
          "name": "C3",
          "midi": 48,
          "time": 170.57155650000152,
          "velocity": 0.6692913385826772,
          "duration": 0.11904770833334055
        },
        {
          "name": "G3",
          "midi": 55,
          "time": 170.57155650000152,
          "velocity": 0.7559055118110236,
          "duration": 0.11904770833334055
        },
        {
          "name": "C2",
          "midi": 36,
          "time": 170.57155650000152,
          "velocity": 0.84251968503937,
          "duration": 0.3333335833333422
        },
        {
          "name": "F#2",
          "midi": 42,
          "time": 170.57155650000152,
          "velocity": 0.6771653543307087,
          "duration": 0.047619083333330536
        },
        {
          "name": "D4",
          "midi": 62,
          "time": 170.57155650000152,
          "velocity": 0.007874015748031496,
          "duration": 0.11428580000000466
        },
        {
          "name": "C5",
          "midi": 72,
          "time": 170.71441375000154,
          "velocity": 0.8110236220472441,
          "duration": 0.26190495833333216
        },
        {
          "name": "A4",
          "midi": 69,
          "time": 170.71441375000154,
          "velocity": 0.7795275590551181,
          "duration": 0.24761923333332447
        },
        {
          "name": "A5",
          "midi": 81,
          "time": 170.71441375000154,
          "velocity": 0.7795275590551181,
          "duration": 0.27142877500000395
        },
        {
          "name": "G5",
          "midi": 79,
          "time": 170.71441375000154,
          "velocity": 0.7086614173228346,
          "duration": 0.03333335833332285
        },
        {
          "name": "E5",
          "midi": 76,
          "time": 170.85727100000153,
          "velocity": 0.7244094488188977,
          "duration": 0.2476192333333529
        },
        {
          "name": "G1",
          "midi": 31,
          "time": 170.85727100000153,
          "velocity": 0.7874015748031497,
          "duration": 0.2380954166666811
        },
        {
          "name": "E4",
          "midi": 64,
          "time": 170.85727100000153,
          "velocity": 0.7322834645669292,
          "duration": 0.11904770833334055
        },
        {
          "name": "G3",
          "midi": 55,
          "time": 170.85727100000153,
          "velocity": 0.7795275590551181,
          "duration": 0.11904770833334055
        },
        {
          "name": "C4",
          "midi": 60,
          "time": 170.85727100000153,
          "velocity": 0.8346456692913385,
          "duration": 0.11904770833334055
        },
        {
          "name": "E4",
          "midi": 64,
          "time": 170.85727100000153,
          "velocity": 0.7480314960629921,
          "duration": 0.5238099166666927
        },
        {
          "name": "C4",
          "midi": 60,
          "time": 170.85727100000153,
          "velocity": 0.7401574803149606,
          "duration": 0.5333337333333645
        },
        {
          "name": "G3",
          "midi": 55,
          "time": 170.85727100000153,
          "velocity": 0.7086614173228346,
          "duration": 0.4619051083333545
        },
        {
          "name": "D2",
          "midi": 38,
          "time": 170.85727100000153,
          "velocity": 0.7716535433070866,
          "duration": 0.07142862500001002
        },
        {
          "name": "F#2",
          "midi": 42,
          "time": 170.85727100000153,
          "velocity": 0.6771653543307087,
          "duration": 0.047619083333330536
        },
        {
          "name": "D4",
          "midi": 62,
          "time": 170.85727100000153,
          "velocity": 0.007874015748031496,
          "duration": 0.12380961666667645
        },
        {
          "name": "D5",
          "midi": 74,
          "time": 171.14298550000154,
          "velocity": 0.7244094488188977,
          "duration": 0.2476192333333529
        },
        {
          "name": "C2",
          "midi": 36,
          "time": 171.14298550000154,
          "velocity": 0.7874015748031497,
          "duration": 0.07142862500001002
        },
        {
          "name": "B5",
          "midi": 83,
          "time": 171.14298550000154,
          "velocity": 0.7559055118110236,
          "duration": 0.2714287750000324
        },
        {
          "name": "B4",
          "midi": 71,
          "time": 171.14298550000154,
          "velocity": 0.8818897637795275,
          "duration": 0.21428587500000162
        },
        {
          "name": "D5",
          "midi": 74,
          "time": 171.14298550000154,
          "velocity": 0.8582677165354331,
          "duration": 0.2619049583333606
        },
        {
          "name": "C2",
          "midi": 36,
          "time": 171.14298550000154,
          "velocity": 0.84251968503937,
          "duration": 0.2619049583333606
        },
        {
          "name": "F#2",
          "midi": 42,
          "time": 171.14298550000154,
          "velocity": 0.6771653543307087,
          "duration": 0.047619083333330536
        },
        {
          "name": "D4",
          "midi": 62,
          "time": 171.14298550000154,
          "velocity": 0.007874015748031496,
          "duration": 0.13333343333334824
        },
        {
          "name": "E5",
          "midi": 76,
          "time": 171.42870000000158,
          "velocity": 0.7244094488188977,
          "duration": 0.27142877500000395
        },
        {
          "name": "D2",
          "midi": 38,
          "time": 171.42870000000158,
          "velocity": 0.7874015748031497,
          "duration": 0.11904770833334055
        },
        {
          "name": "A2",
          "midi": 45,
          "time": 171.42870000000158,
          "velocity": 0.3937007874015748,
          "duration": 0.11904770833334055
        },
        {
          "name": "D2",
          "midi": 38,
          "time": 171.42870000000158,
          "velocity": 0.44881889763779526,
          "duration": 0.6190480833333822
        },
        {
          "name": "F#3",
          "midi": 54,
          "time": 171.42870000000158,
          "velocity": 0.8267716535433071,
          "duration": 0.11904770833334055
        },
        {
          "name": "A3",
          "midi": 57,
          "time": 171.42870000000158,
          "velocity": 0.7244094488188977,
          "duration": 0.11904770833334055
        },
        {
          "name": "D4",
          "midi": 62,
          "time": 171.42870000000158,
          "velocity": 0.48031496062992124,
          "duration": 0.11904770833334055
        },
        {
          "name": "B5",
          "midi": 83,
          "time": 171.42870000000158,
          "velocity": 0.8110236220472441,
          "duration": 0.700000525000064
        },
        {
          "name": "D5",
          "midi": 74,
          "time": 171.42870000000158,
          "velocity": 0.8582677165354331,
          "duration": 0.6047623583333746
        },
        {
          "name": "B4",
          "midi": 71,
          "time": 171.42870000000158,
          "velocity": 0.8818897637795275,
          "duration": 0.700000525000064
        },
        {
          "name": "D4",
          "midi": 62,
          "time": 171.42870000000158,
          "velocity": 0.6771653543307087,
          "duration": 0.4047622083333522
        },
        {
          "name": "F#4",
          "midi": 66,
          "time": 171.42870000000158,
          "velocity": 0.8267716535433071,
          "duration": 3.261907208333554
        },
        {
          "name": "A3",
          "midi": 57,
          "time": 171.42870000000158,
          "velocity": 0.6771653543307087,
          "duration": 0.4047622083333522
        },
        {
          "name": "C2",
          "midi": 36,
          "time": 171.42870000000158,
          "velocity": 0.84251968503937,
          "duration": 0.5714290000000517
        },
        {
          "name": "F#2",
          "midi": 42,
          "time": 171.42870000000158,
          "velocity": 0.6771653543307087,
          "duration": 0.047619083333330536
        },
        {
          "name": "D4",
          "midi": 62,
          "time": 171.42870000000158,
          "velocity": 0.007874015748031496,
          "duration": 0.5476194583333722
        },
        {
          "name": "F#5",
          "midi": 78,
          "time": 171.7144145000016,
          "velocity": 0.7244094488188977,
          "duration": 0.2619049583333606
        },
        {
          "name": "A3",
          "midi": 57,
          "time": 171.7144145000016,
          "velocity": 0.6771653543307087,
          "duration": 2.1190492083334505
        },
        {
          "name": "D4",
          "midi": 62,
          "time": 171.7144145000016,
          "velocity": 0.7086614173228346,
          "duration": 0.5666670916667158
        },
        {
          "name": "F#2",
          "midi": 42,
          "time": 171.7144145000016,
          "velocity": 0.6771653543307087,
          "duration": 0.047619083333330536
        },
        {
          "name": "D4",
          "midi": 62,
          "time": 171.85727175000162,
          "velocity": 0.6299212598425197,
          "duration": 0.5476194583333722
        },
        {
          "name": "E5",
          "midi": 76,
          "time": 172.00012900000164,
          "velocity": 0.7244094488188977,
          "duration": 0.29523831666668343
        },
        {
          "name": "D3",
          "midi": 50,
          "time": 172.00012900000164,
          "velocity": 0.3937007874015748,
          "duration": 0.11904770833334055
        },
        {
          "name": "D2",
          "midi": 38,
          "time": 172.00012900000164,
          "velocity": 0.7716535433070866,
          "duration": 0.2476192333333529
        },
        {
          "name": "F#2",
          "midi": 42,
          "time": 172.00012900000164,
          "velocity": 0.6771653543307087,
          "duration": 0.07142862500001002
        },
        {
          "name": "F#5",
          "midi": 78,
          "time": 172.28584350000165,
          "velocity": 0.7244094488188977,
          "duration": 0.1666667916666995
        },
        {
          "name": "A1",
          "midi": 33,
          "time": 172.28584350000165,
          "velocity": 0.7874015748031497,
          "duration": 0.047619083333330536
        },
        {
          "name": "D3",
          "midi": 50,
          "time": 172.28584350000165,
          "velocity": 0.5354330708661418,
          "duration": 0.11904770833334055
        },
        {
          "name": "D4",
          "midi": 62,
          "time": 172.28584350000165,
          "velocity": 0.7401574803149606,
          "duration": 0.9761912083334039
        },
        {
          "name": "A5",
          "midi": 81,
          "time": 172.28584350000165,
          "velocity": 0.7637795275590551,
          "duration": 3.176192858333536
        },
        {
          "name": "C5",
          "midi": 72,
          "time": 172.28584350000165,
          "velocity": 0.8740157480314961,
          "duration": 3.2000024000002156
        },
        {
          "name": "A4",
          "midi": 69,
          "time": 172.28584350000165,
          "velocity": 0.8110236220472441,
          "duration": 3.223811941666895
        },
        {
          "name": "C#5",
          "midi": 73,
          "time": 172.28584350000165,
          "velocity": 0.7086614173228346,
          "duration": 0.11904770833334055
        },
        {
          "name": "C2",
          "midi": 36,
          "time": 172.28584350000165,
          "velocity": 0.84251968503937,
          "duration": 0.05714290000000233
        },
        {
          "name": "D2",
          "midi": 38,
          "time": 172.28584350000165,
          "velocity": 0.7716535433070866,
          "duration": 0.05714290000000233
        },
        {
          "name": "F#2",
          "midi": 42,
          "time": 172.28584350000165,
          "velocity": 0.6771653543307087,
          "duration": 0.05714290000000233
        },
        {
          "name": "E5",
          "midi": 76,
          "time": 172.42870075000167,
          "velocity": 0.7244094488188977,
          "duration": 0.1666667916666995
        },
        {
          "name": "D5",
          "midi": 74,
          "time": 172.5715580000017,
          "velocity": 0.7244094488188977,
          "duration": 1.2238104416667
        },
        {
          "name": "D2",
          "midi": 38,
          "time": 172.5715580000017,
          "velocity": 0.7874015748031497,
          "duration": 0.05714290000000233
        },
        {
          "name": "C2",
          "midi": 36,
          "time": 172.5715580000017,
          "velocity": 0.84251968503937,
          "duration": 0.07142862500001002
        },
        {
          "name": "F#2",
          "midi": 42,
          "time": 172.5715580000017,
          "velocity": 0.6771653543307087,
          "duration": 0.05714290000000233
        },
        {
          "name": "D2",
          "midi": 38,
          "time": 172.8572725000017,
          "velocity": 0.7874015748031497,
          "duration": 0.35714312500002166
        },
        {
          "name": "D3",
          "midi": 50,
          "time": 172.8572725000017,
          "velocity": 0.6141732283464567,
          "duration": 0.11904770833334055
        },
        {
          "name": "C2",
          "midi": 36,
          "time": 172.8572725000017,
          "velocity": 0.84251968503937,
          "duration": 0.28571450000001164
        },
        {
          "name": "F#2",
          "midi": 42,
          "time": 172.8572725000017,
          "velocity": 0.6771653543307087,
          "duration": 0.047619083333330536
        },
        {
          "name": "D4",
          "midi": 62,
          "time": 173.1429870000017,
          "velocity": 0.7007874015748031,
          "duration": 0.4047622083333522
        },
        {
          "name": "D2",
          "midi": 38,
          "time": 173.1429870000017,
          "velocity": 0.7716535433070866,
          "duration": 0.2476192333333529
        },
        {
          "name": "F#2",
          "midi": 42,
          "time": 173.1429870000017,
          "velocity": 0.6771653543307087,
          "duration": 0.047619083333330536
        },
        {
          "name": "A1",
          "midi": 33,
          "time": 173.42870150000172,
          "velocity": 0.7874015748031497,
          "duration": 0.07142862500001002
        },
        {
          "name": "D4",
          "midi": 62,
          "time": 173.42870150000172,
          "velocity": 0.48031496062992124,
          "duration": 0.40476220833332377
        },
        {
          "name": "C2",
          "midi": 36,
          "time": 173.42870150000172,
          "velocity": 0.84251968503937,
          "duration": 0.07142862500001002
        },
        {
          "name": "F#2",
          "midi": 42,
          "time": 173.42870150000172,
          "velocity": 0.6771653543307087,
          "duration": 0.047619083333330536
        },
        {
          "name": "D2",
          "midi": 38,
          "time": 173.71441600000173,
          "velocity": 0.7874015748031497,
          "duration": 0.11904770833331213
        },
        {
          "name": "A2",
          "midi": 45,
          "time": 173.71441600000173,
          "velocity": 0.6299212598425197,
          "duration": 0.11904770833331213
        },
        {
          "name": "D2",
          "midi": 38,
          "time": 173.71441600000173,
          "velocity": 0.6850393700787402,
          "duration": 0.6190480833333538
        },
        {
          "name": "F#3",
          "midi": 54,
          "time": 173.71441600000173,
          "velocity": 0.984251968503937,
          "duration": 0.11904770833331213
        },
        {
          "name": "A3",
          "midi": 57,
          "time": 173.71441600000173,
          "velocity": 0.8031496062992126,
          "duration": 0.40476220833332377
        },
        {
          "name": "D4",
          "midi": 62,
          "time": 173.71441600000173,
          "velocity": 0.48031496062992124,
          "duration": 0.40476220833332377
        },
        {
          "name": "C2",
          "midi": 36,
          "time": 173.71441600000173,
          "velocity": 0.84251968503937,
          "duration": 0.5714290000000233
        },
        {
          "name": "F#2",
          "midi": 42,
          "time": 173.71441600000173,
          "velocity": 0.6771653543307087,
          "duration": 0.047619083333330536
        },
        {
          "name": "A3",
          "midi": 57,
          "time": 174.00013050000172,
          "velocity": 0.6771653543307087,
          "duration": 0.6904767083334207
        },
        {
          "name": "D4",
          "midi": 62,
          "time": 174.00013050000172,
          "velocity": 0.7086614173228346,
          "duration": 0.2619049583333606
        },
        {
          "name": "F#2",
          "midi": 42,
          "time": 174.00013050000172,
          "velocity": 0.6771653543307087,
          "duration": 0.047619083333330536
        },
        {
          "name": "D4",
          "midi": 62,
          "time": 174.14298775000174,
          "velocity": 0.6299212598425197,
          "duration": 0.38095266666670113
        },
        {
          "name": "G5",
          "midi": 79,
          "time": 174.28584500000176,
          "velocity": 0.7244094488188977,
          "duration": 0.2619049583333606
        },
        {
          "name": "D3",
          "midi": 50,
          "time": 174.28584500000176,
          "velocity": 0.3937007874015748,
          "duration": 0.11904770833334055
        },
        {
          "name": "D2",
          "midi": 38,
          "time": 174.28584500000176,
          "velocity": 0.7716535433070866,
          "duration": 0.28571450000004006
        },
        {
          "name": "F#2",
          "midi": 42,
          "time": 174.28584500000176,
          "velocity": 0.6771653543307087,
          "duration": 0.07142862500001002
        },
        {
          "name": "D4",
          "midi": 62,
          "time": 174.28584500000176,
          "velocity": 0.007874015748031496,
          "duration": 0.4047622083333806
        },
        {
          "name": "F#5",
          "midi": 78,
          "time": 174.5715595000018,
          "velocity": 0.7244094488188977,
          "duration": 0.2380954166666811
        },
        {
          "name": "A1",
          "midi": 33,
          "time": 174.5715595000018,
          "velocity": 0.7874015748031497,
          "duration": 0.047619083333330536
        },
        {
          "name": "D3",
          "midi": 50,
          "time": 174.5715595000018,
          "velocity": 0.7716535433070866,
          "duration": 0.11904770833334055
        },
        {
          "name": "F#4",
          "midi": 66,
          "time": 174.5715595000018,
          "velocity": 0.8976377952755905,
          "duration": 1.380953416666756
        },
        {
          "name": "A3",
          "midi": 57,
          "time": 174.5715595000018,
          "velocity": 0.8976377952755905,
          "duration": 1.3904772333334279
        },
        {
          "name": "D4",
          "midi": 62,
          "time": 174.5715595000018,
          "velocity": 0.8188976377952756,
          "duration": 0.9761912083334039
        },
        {
          "name": "C2",
          "midi": 36,
          "time": 174.5715595000018,
          "velocity": 0.84251968503937,
          "duration": 0.05714290000000233
        },
        {
          "name": "D2",
          "midi": 38,
          "time": 174.5715595000018,
          "velocity": 0.7716535433070866,
          "duration": 0.05714290000000233
        },
        {
          "name": "F#2",
          "midi": 42,
          "time": 174.5715595000018,
          "velocity": 0.6771653543307087,
          "duration": 0.05714290000000233
        },
        {
          "name": "E5",
          "midi": 76,
          "time": 174.8572740000018,
          "velocity": 0.7244094488188977,
          "duration": 0.3095240416666911
        },
        {
          "name": "D2",
          "midi": 38,
          "time": 174.8572740000018,
          "velocity": 0.7874015748031497,
          "duration": 0.03333335833332285
        },
        {
          "name": "C2",
          "midi": 36,
          "time": 174.8572740000018,
          "velocity": 0.84251968503937,
          "duration": 0.07142862500001002
        },
        {
          "name": "F#2",
          "midi": 42,
          "time": 174.8572740000018,
          "velocity": 0.6771653543307087,
          "duration": 0.05714290000000233
        },
        {
          "name": "D4",
          "midi": 62,
          "time": 174.8572740000018,
          "velocity": 0.007874015748031496,
          "duration": 0.9761912083334039
        },
        {
          "name": "F#5",
          "midi": 78,
          "time": 175.14298850000182,
          "velocity": 0.7244094488188977,
          "duration": 0.27619068333336827
        },
        {
          "name": "D2",
          "midi": 38,
          "time": 175.14298850000182,
          "velocity": 0.7874015748031497,
          "duration": 0.2714287750000324
        },
        {
          "name": "D3",
          "midi": 50,
          "time": 175.14298850000182,
          "velocity": 0.6141732283464567,
          "duration": 0.11904770833336897
        },
        {
          "name": "C2",
          "midi": 36,
          "time": 175.14298850000182,
          "velocity": 0.84251968503937,
          "duration": 0.28571450000004006
        },
        {
          "name": "F#2",
          "midi": 42,
          "time": 175.14298850000182,
          "velocity": 0.6771653543307087,
          "duration": 0.04761908333335896
        },
        {
          "name": "F#5",
          "midi": 78,
          "time": 175.42870300000186,
          "velocity": 0.7244094488188977,
          "duration": 0.3190478583333345
        },
        {
          "name": "A1",
          "midi": 33,
          "time": 175.42870300000186,
          "velocity": 0.7874015748031497,
          "duration": 0.26190495833333216
        },
        {
          "name": "D4",
          "midi": 62,
          "time": 175.42870300000186,
          "velocity": 0.7007874015748031,
          "duration": 0.5095241916666851
        },
        {
          "name": "D2",
          "midi": 38,
          "time": 175.42870300000186,
          "velocity": 0.7716535433070866,
          "duration": 0.07142862500001002
        },
        {
          "name": "F#2",
          "midi": 42,
          "time": 175.42870300000186,
          "velocity": 0.6771653543307087,
          "duration": 0.047619083333330536
        },
        {
          "name": "E5",
          "midi": 76,
          "time": 175.71441750000187,
          "velocity": 0.7244094488188977,
          "duration": 0.5666670916667158
        },
        {
          "name": "D2",
          "midi": 38,
          "time": 175.71441750000187,
          "velocity": 0.7874015748031497,
          "duration": 0.19047633333335057
        },
        {
          "name": "D4",
          "midi": 62,
          "time": 175.71441750000187,
          "velocity": 0.48031496062992124,
          "duration": 0.28095259166670417
        },
        {
          "name": "C2",
          "midi": 36,
          "time": 175.71441750000187,
          "velocity": 0.84251968503937,
          "duration": 0.07142862500001002
        },
        {
          "name": "F#2",
          "midi": 42,
          "time": 175.71441750000187,
          "velocity": 0.6771653543307087,
          "duration": 0.047619083333330536
        },
        {
          "name": "G1",
          "midi": 31,
          "time": 176.0001320000019,
          "velocity": 0.7874015748031497,
          "duration": 0.6047623583333461
        },
        {
          "name": "D3",
          "midi": 50,
          "time": 176.0001320000019,
          "velocity": 0.6850393700787402,
          "duration": 0.11904770833334055
        },
        {
          "name": "G3",
          "midi": 55,
          "time": 176.0001320000019,
          "velocity": 0.7952755905511811,
          "duration": 0.11904770833334055
        },
        {
          "name": "B3",
          "midi": 59,
          "time": 176.0001320000019,
          "velocity": 0.8661417322834646,
          "duration": 0.11904770833334055
        },
        {
          "name": "D2",
          "midi": 38,
          "time": 176.0001320000019,
          "velocity": 0.3700787401574803,
          "duration": 0.11904770833334055
        },
        {
          "name": "G4",
          "midi": 67,
          "time": 176.0001320000019,
          "velocity": 0.5511811023622047,
          "duration": 1.1190484583333955
        },
        {
          "name": "D4",
          "midi": 62,
          "time": 176.0001320000019,
          "velocity": 0.49606299212598426,
          "duration": 0.5476194583333438
        },
        {
          "name": "C2",
          "midi": 36,
          "time": 176.0001320000019,
          "velocity": 0.84251968503937,
          "duration": 0.5714290000000233
        },
        {
          "name": "F#2",
          "midi": 42,
          "time": 176.0001320000019,
          "velocity": 0.6771653543307087,
          "duration": 0.047619083333330536
        },
        {
          "name": "A3",
          "midi": 57,
          "time": 176.0001320000019,
          "velocity": 0.5196850393700787,
          "duration": 1.9619062333334512
        },
        {
          "name": "D5",
          "midi": 74,
          "time": 176.28584650000192,
          "velocity": 0.7244094488188977,
          "duration": 1.8095251666668162
        },
        {
          "name": "F#2",
          "midi": 42,
          "time": 176.28584650000192,
          "velocity": 0.6771653543307087,
          "duration": 0.047619083333330536
        },
        {
          "name": "D4",
          "midi": 62,
          "time": 176.42870375000192,
          "velocity": 0.84251968503937,
          "duration": 0.2619049583333606
        },
        {
          "name": "B3",
          "midi": 59,
          "time": 176.42870375000192,
          "velocity": 0.7716535433070866,
          "duration": 0.11904770833334055
        },
        {
          "name": "G3",
          "midi": 55,
          "time": 176.42870375000192,
          "velocity": 0.5590551181102362,
          "duration": 0.11904770833334055
        },
        {
          "name": "D3",
          "midi": 50,
          "time": 176.57156100000194,
          "velocity": 0.6299212598425197,
          "duration": 0.11904770833334055
        },
        {
          "name": "G3",
          "midi": 55,
          "time": 176.57156100000194,
          "velocity": 0.6850393700787402,
          "duration": 0.11904770833334055
        },
        {
          "name": "B3",
          "midi": 59,
          "time": 176.57156100000194,
          "velocity": 0.6850393700787402,
          "duration": 0.11904770833334055
        },
        {
          "name": "D4",
          "midi": 62,
          "time": 176.57156100000194,
          "velocity": 0.5826771653543307,
          "duration": 0.4047622083333522
        },
        {
          "name": "D2",
          "midi": 38,
          "time": 176.57156100000194,
          "velocity": 0.7716535433070866,
          "duration": 0.047619083333330536
        },
        {
          "name": "F#2",
          "midi": 42,
          "time": 176.57156100000194,
          "velocity": 0.6771653543307087,
          "duration": 0.07142862500001002
        },
        {
          "name": "G1",
          "midi": 31,
          "time": 176.85727550000195,
          "velocity": 0.7874015748031497,
          "duration": 0.047619083333330536
        },
        {
          "name": "G3",
          "midi": 55,
          "time": 176.85727550000195,
          "velocity": 0.7086614173228346,
          "duration": 0.11904770833334055
        },
        {
          "name": "B3",
          "midi": 59,
          "time": 176.85727550000195,
          "velocity": 0.8818897637795275,
          "duration": 0.11904770833334055
        },
        {
          "name": "D4",
          "midi": 62,
          "time": 176.85727550000195,
          "velocity": 0.6456692913385826,
          "duration": 0.1666667916666711
        },
        {
          "name": "B3",
          "midi": 59,
          "time": 176.85727550000195,
          "velocity": 0.7795275590551181,
          "duration": 0.2380954166666811
        },
        {
          "name": "G3",
          "midi": 55,
          "time": 176.85727550000195,
          "velocity": 0.7007874015748031,
          "duration": 0.22380969166667342
        },
        {
          "name": "C2",
          "midi": 36,
          "time": 176.85727550000195,
          "velocity": 0.84251968503937,
          "duration": 0.05714290000000233
        },
        {
          "name": "D2",
          "midi": 38,
          "time": 176.85727550000195,
          "velocity": 0.7716535433070866,
          "duration": 0.05714290000000233
        },
        {
          "name": "F#2",
          "midi": 42,
          "time": 176.85727550000195,
          "velocity": 0.6771653543307087,
          "duration": 0.05714290000000233
        },
        {
          "name": "G1",
          "midi": 31,
          "time": 177.142990000002,
          "velocity": 0.7874015748031497,
          "duration": 0.047619083333330536
        },
        {
          "name": "G3",
          "midi": 55,
          "time": 177.142990000002,
          "velocity": 0.6614173228346457,
          "duration": 0.4047622083333522
        },
        {
          "name": "B3",
          "midi": 59,
          "time": 177.142990000002,
          "velocity": 0.8267716535433071,
          "duration": 0.43809556666667504
        },
        {
          "name": "C2",
          "midi": 36,
          "time": 177.142990000002,
          "velocity": 0.84251968503937,
          "duration": 0.07142862500001002
        },
        {
          "name": "F#2",
          "midi": 42,
          "time": 177.142990000002,
          "velocity": 0.6771653543307087,
          "duration": 0.05714290000000233
        },
        {
          "name": "G1",
          "midi": 31,
          "time": 177.428704500002,
          "velocity": 0.7874015748031497,
          "duration": 0.27142877500000395
        },
        {
          "name": "D3",
          "midi": 50,
          "time": 177.428704500002,
          "velocity": 0.7952755905511811,
          "duration": 0.11904770833334055
        },
        {
          "name": "G3",
          "midi": 55,
          "time": 177.428704500002,
          "velocity": 0.7086614173228346,
          "duration": 0.1666667916666711
        },
        {
          "name": "C2",
          "midi": 36,
          "time": 177.428704500002,
          "velocity": 0.84251968503937,
          "duration": 0.28571450000001164
        },
        {
          "name": "F#2",
          "midi": 42,
          "time": 177.428704500002,
          "velocity": 0.6771653543307087,
          "duration": 0.047619083333330536
        },
        {
          "name": "B1",
          "midi": 35,
          "time": 177.714419000002,
          "velocity": 0.7874015748031497,
          "duration": 0.2619049583333606
        },
        {
          "name": "G3",
          "midi": 55,
          "time": 177.714419000002,
          "velocity": 0.8110236220472441,
          "duration": 0.11904770833334055
        },
        {
          "name": "B3",
          "midi": 59,
          "time": 177.714419000002,
          "velocity": 0.8976377952755905,
          "duration": 0.11904770833334055
        },
        {
          "name": "D4",
          "midi": 62,
          "time": 177.714419000002,
          "velocity": 0.6141732283464567,
          "duration": 0.11904770833334055
        },
        {
          "name": "B3",
          "midi": 59,
          "time": 177.714419000002,
          "velocity": 0.7637795275590551,
          "duration": 0.20000014999999394
        },
        {
          "name": "G3",
          "midi": 55,
          "time": 177.714419000002,
          "velocity": 0.6850393700787402,
          "duration": 0.22380969166667342
        },
        {
          "name": "D2",
          "midi": 38,
          "time": 177.714419000002,
          "velocity": 0.7716535433070866,
          "duration": 0.07142862500001002
        },
        {
          "name": "F#2",
          "midi": 42,
          "time": 177.714419000002,
          "velocity": 0.6771653543307087,
          "duration": 0.047619083333330536
        },
        {
          "name": "D2",
          "midi": 38,
          "time": 178.00013350000205,
          "velocity": 0.7874015748031497,
          "duration": 0.2714287750000324
        },
        {
          "name": "B3",
          "midi": 59,
          "time": 178.00013350000205,
          "velocity": 0.7637795275590551,
          "duration": 0.11904770833336897
        },
        {
          "name": "G3",
          "midi": 55,
          "time": 178.00013350000205,
          "velocity": 0.6299212598425197,
          "duration": 0.11904770833336897
        },
        {
          "name": "F#3",
          "midi": 54,
          "time": 178.00013350000205,
          "velocity": 0.7795275590551181,
          "duration": 0.4047622083333806
        },
        {
          "name": "A3",
          "midi": 57,
          "time": 178.00013350000205,
          "velocity": 0.7559055118110236,
          "duration": 0.45238129166671115
        },
        {
          "name": "C2",
          "midi": 36,
          "time": 178.00013350000205,
          "velocity": 0.84251968503937,
          "duration": 0.07142862500001002
        },
        {
          "name": "F#2",
          "midi": 42,
          "time": 178.00013350000205,
          "velocity": 0.6771653543307087,
          "duration": 0.047619083333330536
        },
        {
          "name": "G1",
          "midi": 31,
          "time": 178.2858480000021,
          "velocity": 0.7874015748031497,
          "duration": 0.5809528166666951
        },
        {
          "name": "D3",
          "midi": 50,
          "time": 178.2858480000021,
          "velocity": 0.6850393700787402,
          "duration": 0.11904770833334055
        },
        {
          "name": "G3",
          "midi": 55,
          "time": 178.2858480000021,
          "velocity": 0.7952755905511811,
          "duration": 0.11904770833334055
        },
        {
          "name": "B3",
          "midi": 59,
          "time": 178.2858480000021,
          "velocity": 0.8661417322834646,
          "duration": 0.11904770833334055
        },
        {
          "name": "D2",
          "midi": 38,
          "time": 178.2858480000021,
          "velocity": 0.3700787401574803,
          "duration": 0.11904770833334055
        },
        {
          "name": "C2",
          "midi": 36,
          "time": 178.2858480000021,
          "velocity": 0.84251968503937,
          "duration": 0.5714290000000233
        },
        {
          "name": "F#2",
          "midi": 42,
          "time": 178.2858480000021,
          "velocity": 0.6771653543307087,
          "duration": 0.047619083333330536
        },
        {
          "name": "B4",
          "midi": 71,
          "time": 178.5715625000021,
          "velocity": 0.41732283464566927,
          "duration": 0.34285740000001397
        },
        {
          "name": "D5",
          "midi": 74,
          "time": 178.5715625000021,
          "velocity": 0.7086614173228346,
          "duration": 0.29523831666668343
        },
        {
          "name": "G3",
          "midi": 55,
          "time": 178.5715625000021,
          "velocity": 0.6220472440944882,
          "duration": 0.26190495833333216
        },
        {
          "name": "B3",
          "midi": 59,
          "time": 178.5715625000021,
          "velocity": 0.7322834645669292,
          "duration": 0.26190495833333216
        },
        {
          "name": "F#2",
          "midi": 42,
          "time": 178.5715625000021,
          "velocity": 0.6771653543307087,
          "duration": 0.047619083333330536
        },
        {
          "name": "D4",
          "midi": 62,
          "time": 178.7144197500021,
          "velocity": 0.84251968503937,
          "duration": 0.11904770833334055
        },
        {
          "name": "B3",
          "midi": 59,
          "time": 178.7144197500021,
          "velocity": 0.7716535433070866,
          "duration": 0.2619049583333606
        },
        {
          "name": "G3",
          "midi": 55,
          "time": 178.7144197500021,
          "velocity": 0.5590551181102362,
          "duration": 0.2619049583333606
        },
        {
          "name": "B5",
          "midi": 83,
          "time": 178.7144197500021,
          "velocity": 0.7874015748031497,
          "duration": 0.28571450000004006
        },
        {
          "name": "G5",
          "midi": 79,
          "time": 178.8572770000021,
          "velocity": 0.7244094488188977,
          "duration": 0.3190478583333345
        },
        {
          "name": "D3",
          "midi": 50,
          "time": 178.8572770000021,
          "velocity": 0.6299212598425197,
          "duration": 0.11904770833334055
        },
        {
          "name": "G3",
          "midi": 55,
          "time": 178.8572770000021,
          "velocity": 0.6850393700787402,
          "duration": 0.4047622083333522
        },
        {
          "name": "B3",
          "midi": 59,
          "time": 178.8572770000021,
          "velocity": 0.6850393700787402,
          "duration": 0.4047622083333522
        },
        {
          "name": "D4",
          "midi": 62,
          "time": 178.8572770000021,
          "velocity": 0.5826771653543307,
          "duration": 0.11904770833334055
        },
        {
          "name": "D2",
          "midi": 38,
          "time": 178.8572770000021,
          "velocity": 0.7716535433070866,
          "duration": 0.047619083333330536
        },
        {
          "name": "F#2",
          "midi": 42,
          "time": 178.8572770000021,
          "velocity": 0.6771653543307087,
          "duration": 0.07142862500001002
        },
        {
          "name": "D4",
          "midi": 62,
          "time": 178.8572770000021,
          "velocity": 0.007874015748031496,
          "duration": 0.28095259166667574
        },
        {
          "name": "F#5",
          "midi": 78,
          "time": 179.14299150000213,
          "velocity": 0.7244094488188977,
          "duration": 0.3190478583333345
        },
        {
          "name": "G1",
          "midi": 31,
          "time": 179.14299150000213,
          "velocity": 0.7874015748031497,
          "duration": 0.05714290000000233
        },
        {
          "name": "G3",
          "midi": 55,
          "time": 179.14299150000213,
          "velocity": 0.7086614173228346,
          "duration": 0.6904767083333923
        },
        {
          "name": "B3",
          "midi": 59,
          "time": 179.14299150000213,
          "velocity": 0.8818897637795275,
          "duration": 0.9761912083334323
        },
        {
          "name": "D4",
          "midi": 62,
          "time": 179.14299150000213,
          "velocity": 0.6456692913385826,
          "duration": 0.11904770833334055
        },
        {
          "name": "D5",
          "midi": 74,
          "time": 179.14299150000213,
          "velocity": 0.6850393700787402,
          "duration": 0.22380969166667342
        },
        {
          "name": "B5",
          "midi": 83,
          "time": 179.14299150000213,
          "velocity": 0.7559055118110236,
          "duration": 0.27142877500000395
        },
        {
          "name": "B4",
          "midi": 71,
          "time": 179.14299150000213,
          "velocity": 0.5196850393700787,
          "duration": 0.21428587500000162
        },
        {
          "name": "C2",
          "midi": 36,
          "time": 179.14299150000213,
          "velocity": 0.84251968503937,
          "duration": 0.05714290000000233
        },
        {
          "name": "D2",
          "midi": 38,
          "time": 179.14299150000213,
          "velocity": 0.7716535433070866,
          "duration": 0.05714290000000233
        },
        {
          "name": "F#2",
          "midi": 42,
          "time": 179.14299150000213,
          "velocity": 0.6771653543307087,
          "duration": 0.05714290000000233
        },
        {
          "name": "E5",
          "midi": 76,
          "time": 179.42870600000214,
          "velocity": 0.7244094488188977,
          "duration": 0.29523831666671185
        },
        {
          "name": "G1",
          "midi": 31,
          "time": 179.42870600000214,
          "velocity": 0.7874015748031497,
          "duration": 0.047619083333330536
        },
        {
          "name": "B5",
          "midi": 83,
          "time": 179.42870600000214,
          "velocity": 0.6771653543307087,
          "duration": 0.29523831666671185
        },
        {
          "name": "D5",
          "midi": 74,
          "time": 179.42870600000214,
          "velocity": 0.7952755905511811,
          "duration": 0.2380954166666811
        },
        {
          "name": "B4",
          "midi": 71,
          "time": 179.42870600000214,
          "velocity": 0.6771653543307087,
          "duration": 0.2619049583333606
        },
        {
          "name": "C2",
          "midi": 36,
          "time": 179.42870600000214,
          "velocity": 0.84251968503937,
          "duration": 0.07142862500001002
        },
        {
          "name": "F#2",
          "midi": 42,
          "time": 179.42870600000214,
          "velocity": 0.6771653543307087,
          "duration": 0.05714290000000233
        },
        {
          "name": "D4",
          "midi": 62,
          "time": 179.42870600000214,
          "velocity": 0.007874015748031496,
          "duration": 0.6904767083334207
        },
        {
          "name": "F#5",
          "midi": 78,
          "time": 179.71442050000218,
          "velocity": 0.7244094488188977,
          "duration": 0.28571450000004006
        },
        {
          "name": "G1",
          "midi": 31,
          "time": 179.71442050000218,
          "velocity": 0.7874015748031497,
          "duration": 0.2619049583333606
        },
        {
          "name": "D3",
          "midi": 50,
          "time": 179.71442050000218,
          "velocity": 0.7952755905511811,
          "duration": 0.11904770833334055
        },
        {
          "name": "G3",
          "midi": 55,
          "time": 179.71442050000218,
          "velocity": 0.7086614173228346,
          "duration": 0.4047622083333806
        },
        {
          "name": "C2",
          "midi": 36,
          "time": 179.71442050000218,
          "velocity": 0.84251968503937,
          "duration": 0.28571450000004006
        },
        {
          "name": "F#2",
          "midi": 42,
          "time": 179.71442050000218,
          "velocity": 0.6771653543307087,
          "duration": 0.047619083333330536
        },
        {
          "name": "A5",
          "midi": 81,
          "time": 179.8572777500022,
          "velocity": 0.7637795275590551,
          "duration": 0.2619049583333606
        },
        {
          "name": "C5",
          "midi": 72,
          "time": 179.8572777500022,
          "velocity": 0.9133858267716536,
          "duration": 0.2476192333333529
        },
        {
          "name": "A4",
          "midi": 69,
          "time": 179.8572777500022,
          "velocity": 0.7086614173228346,
          "duration": 0.2619049583333606
        },
        {
          "name": "E5",
          "midi": 76,
          "time": 180.00013500000222,
          "velocity": 0.7244094488188977,
          "duration": 0.28571450000001164
        },
        {
          "name": "B1",
          "midi": 35,
          "time": 180.00013500000222,
          "velocity": 0.7874015748031497,
          "duration": 0.26190495833333216
        },
        {
          "name": "G3",
          "midi": 55,
          "time": 180.00013500000222,
          "velocity": 0.8110236220472441,
          "duration": 0.4047622083333522
        },
        {
          "name": "B3",
          "midi": 59,
          "time": 180.00013500000222,
          "velocity": 0.8976377952755905,
          "duration": 0.4047622083333522
        },
        {
          "name": "D4",
          "midi": 62,
          "time": 180.00013500000222,
          "velocity": 0.6141732283464567,
          "duration": 0.5666670916667442
        },
        {
          "name": "D2",
          "midi": 38,
          "time": 180.00013500000222,
          "velocity": 0.7716535433070866,
          "duration": 0.07142862500001002
        },
        {
          "name": "F#2",
          "midi": 42,
          "time": 180.00013500000222,
          "velocity": 0.6771653543307087,
          "duration": 0.047619083333330536
        },
        {
          "name": "D5",
          "midi": 74,
          "time": 180.28584950000223,
          "velocity": 0.7244094488188977,
          "duration": 0.5666670916667442
        },
        {
          "name": "D2",
          "midi": 38,
          "time": 180.28584950000223,
          "velocity": 0.7874015748031497,
          "duration": 0.2714287750000608
        },
        {
          "name": "B3",
          "midi": 59,
          "time": 180.28584950000223,
          "velocity": 0.7637795275590551,
          "duration": 0.190476333333379
        },
        {
          "name": "G3",
          "midi": 55,
          "time": 180.28584950000223,
          "velocity": 0.6299212598425197,
          "duration": 0.21428587500005847
        },
        {
          "name": "G5",
          "midi": 79,
          "time": 180.28584950000223,
          "velocity": 0.6692913385826772,
          "duration": 0.1666667916666995
        },
        {
          "name": "G4",
          "midi": 67,
          "time": 180.28584950000223,
          "velocity": 0.6141732283464567,
          "duration": 0.14285725000002003
        },
        {
          "name": "B4",
          "midi": 71,
          "time": 180.28584950000223,
          "velocity": 0.6929133858267716,
          "duration": 0.14285725000002003
        },
        {
          "name": "C2",
          "midi": 36,
          "time": 180.28584950000223,
          "velocity": 0.84251968503937,
          "duration": 0.07142862500001002
        },
        {
          "name": "F#2",
          "midi": 42,
          "time": 180.28584950000223,
          "velocity": 0.6771653543307087,
          "duration": 0.047619083333330536
        },
        {
          "name": "E2",
          "midi": 40,
          "time": 180.5715640000023,
          "velocity": 0.7874015748031497,
          "duration": 0.6904767083333638
        },
        {
          "name": "E3",
          "midi": 52,
          "time": 180.5715640000023,
          "velocity": 0.7401574803149606,
          "duration": 0.11904770833334055
        },
        {
          "name": "B2",
          "midi": 47,
          "time": 180.5715640000023,
          "velocity": 0.7086614173228346,
          "duration": 0.11904770833334055
        },
        {
          "name": "G3",
          "midi": 55,
          "time": 180.5715640000023,
          "velocity": 0.7952755905511811,
          "duration": 0.11904770833334055
        },
        {
          "name": "B3",
          "midi": 59,
          "time": 180.5715640000023,
          "velocity": 0.8031496062992126,
          "duration": 0.11904770833334055
        },
        {
          "name": "E4",
          "midi": 64,
          "time": 180.5715640000023,
          "velocity": 0.7795275590551181,
          "duration": 0.11904770833334055
        },
        {
          "name": "E5",
          "midi": 76,
          "time": 180.5715640000023,
          "velocity": 0.7401574803149606,
          "duration": 0.5666670916666874
        },
        {
          "name": "E4",
          "midi": 64,
          "time": 180.5715640000023,
          "velocity": 0.905511811023622,
          "duration": 0.5476194583333438
        },
        {
          "name": "G4",
          "midi": 67,
          "time": 180.5715640000023,
          "velocity": 0.8582677165354331,
          "duration": 1.8190489833334311
        },
        {
          "name": "C2",
          "midi": 36,
          "time": 180.5715640000023,
          "velocity": 0.84251968503937,
          "duration": 0.5714290000000233
        },
        {
          "name": "F#2",
          "midi": 42,
          "time": 180.5715640000023,
          "velocity": 0.6771653543307087,
          "duration": 0.047619083333330536
        },
        {
          "name": "E5",
          "midi": 76,
          "time": 180.8572785000023,
          "velocity": 0.7244094488188977,
          "duration": 1.6047631083334295
        },
        {
          "name": "F#2",
          "midi": 42,
          "time": 180.8572785000023,
          "velocity": 0.6771653543307087,
          "duration": 0.047619083333330536
        },
        {
          "name": "E4",
          "midi": 64,
          "time": 181.0001357500023,
          "velocity": 0.7952755905511811,
          "duration": 0.2619049583333606
        },
        {
          "name": "B3",
          "midi": 59,
          "time": 181.0001357500023,
          "velocity": 0.7086614173228346,
          "duration": 0.11904770833334055
        },
        {
          "name": "G3",
          "midi": 55,
          "time": 181.0001357500023,
          "velocity": 0.5905511811023622,
          "duration": 0.11904770833334055
        },
        {
          "name": "B4",
          "midi": 71,
          "time": 181.14299300000232,
          "velocity": 0.7244094488188977,
          "duration": 0.7095243416667074
        },
        {
          "name": "E2",
          "midi": 40,
          "time": 181.14299300000232,
          "velocity": 0.6299212598425197,
          "duration": 0.27142877500000395
        },
        {
          "name": "B2",
          "midi": 47,
          "time": 181.14299300000232,
          "velocity": 0.7086614173228346,
          "duration": 0.11904770833334055
        },
        {
          "name": "E3",
          "midi": 52,
          "time": 181.14299300000232,
          "velocity": 0.8661417322834646,
          "duration": 0.11904770833334055
        },
        {
          "name": "G3",
          "midi": 55,
          "time": 181.14299300000232,
          "velocity": 0.8740157480314961,
          "duration": 0.11904770833334055
        },
        {
          "name": "B3",
          "midi": 59,
          "time": 181.14299300000232,
          "velocity": 0.8661417322834646,
          "duration": 0.11904770833334055
        },
        {
          "name": "E4",
          "midi": 64,
          "time": 181.14299300000232,
          "velocity": 0.7874015748031497,
          "duration": 0.4047622083333522
        },
        {
          "name": "D2",
          "midi": 38,
          "time": 181.14299300000232,
          "velocity": 0.7716535433070866,
          "duration": 0.047619083333330536
        },
        {
          "name": "F#2",
          "midi": 42,
          "time": 181.14299300000232,
          "velocity": 0.6771653543307087,
          "duration": 0.07142862500001002
        },
        {
          "name": "B1",
          "midi": 35,
          "time": 181.42870750000233,
          "velocity": 0.7874015748031497,
          "duration": 0.28571450000001164
        },
        {
          "name": "G3",
          "midi": 55,
          "time": 181.42870750000233,
          "velocity": 0.9291338582677166,
          "duration": 0.11904770833334055
        },
        {
          "name": "B3",
          "midi": 59,
          "time": 181.42870750000233,
          "velocity": 0.9606299212598425,
          "duration": 0.11904770833334055
        },
        {
          "name": "E4",
          "midi": 64,
          "time": 181.42870750000233,
          "velocity": 0.8818897637795275,
          "duration": 0.9761912083334039
        },
        {
          "name": "B3",
          "midi": 59,
          "time": 181.42870750000233,
          "velocity": 0.6220472440944882,
          "duration": 0.2380954166666811
        },
        {
          "name": "G3",
          "midi": 55,
          "time": 181.42870750000233,
          "velocity": 0.7559055118110236,
          "duration": 0.2380954166666811
        },
        {
          "name": "C2",
          "midi": 36,
          "time": 181.42870750000233,
          "velocity": 0.84251968503937,
          "duration": 0.05714290000000233
        },
        {
          "name": "D2",
          "midi": 38,
          "time": 181.42870750000233,
          "velocity": 0.7716535433070866,
          "duration": 0.05714290000000233
        },
        {
          "name": "F#2",
          "midi": 42,
          "time": 181.42870750000233,
          "velocity": 0.6771653543307087,
          "duration": 0.05714290000000233
        },
        {
          "name": "E2",
          "midi": 40,
          "time": 181.71442200000234,
          "velocity": 0.7874015748031497,
          "duration": 0.05714290000000233
        },
        {
          "name": "G3",
          "midi": 55,
          "time": 181.71442200000234,
          "velocity": 0.7322834645669292,
          "duration": 0.46190510833338294
        },
        {
          "name": "B3",
          "midi": 59,
          "time": 181.71442200000234,
          "velocity": 0.7952755905511811,
          "duration": 0.45238129166671115
        },
        {
          "name": "C2",
          "midi": 36,
          "time": 181.71442200000234,
          "velocity": 0.84251968503937,
          "duration": 0.07142862500001002
        },
        {
          "name": "F#2",
          "midi": 42,
          "time": 181.71442200000234,
          "velocity": 0.6771653543307087,
          "duration": 0.05714290000000233
        },
        {
          "name": "A4",
          "midi": 69,
          "time": 181.85727925000236,
          "velocity": 0.7244094488188977,
          "duration": 0.11904770833334055
        },
        {
          "name": "G4",
          "midi": 67,
          "time": 182.00013650000238,
          "velocity": 0.7244094488188977,
          "duration": 0.8523815916667274
        },
        {
          "name": "E2",
          "midi": 40,
          "time": 182.00013650000238,
          "velocity": 0.7874015748031497,
          "duration": 0.11904770833334055
        },
        {
          "name": "E2",
          "midi": 40,
          "time": 182.00013650000238,
          "velocity": 0.8110236220472441,
          "duration": 0.557143275000044
        },
        {
          "name": "B2",
          "midi": 47,
          "time": 182.00013650000238,
          "velocity": 0.8740157480314961,
          "duration": 0.11904770833334055
        },
        {
          "name": "E3",
          "midi": 52,
          "time": 182.00013650000238,
          "velocity": 0.7244094488188977,
          "duration": 0.11904770833334055
        },
        {
          "name": "C2",
          "midi": 36,
          "time": 182.00013650000238,
          "velocity": 0.84251968503937,
          "duration": 0.28571450000001164
        },
        {
          "name": "F#2",
          "midi": 42,
          "time": 182.00013650000238,
          "velocity": 0.6771653543307087,
          "duration": 0.047619083333330536
        },
        {
          "name": "E3",
          "midi": 52,
          "time": 182.2858510000024,
          "velocity": 0.8346456692913385,
          "duration": 0.11904770833334055
        },
        {
          "name": "G3",
          "midi": 55,
          "time": 182.2858510000024,
          "velocity": 0.8818897637795275,
          "duration": 0.11904770833334055
        },
        {
          "name": "B3",
          "midi": 59,
          "time": 182.2858510000024,
          "velocity": 0.9291338582677166,
          "duration": 0.11904770833334055
        },
        {
          "name": "E4",
          "midi": 64,
          "time": 182.2858510000024,
          "velocity": 0.9291338582677166,
          "duration": 0.12857152500001234
        },
        {
          "name": "G3",
          "midi": 55,
          "time": 182.2858510000024,
          "velocity": 0.6771653543307087,
          "duration": 0.2619049583333606
        },
        {
          "name": "B3",
          "midi": 59,
          "time": 182.2858510000024,
          "velocity": 0.6929133858267716,
          "duration": 0.2476192333333529
        },
        {
          "name": "D2",
          "midi": 38,
          "time": 182.2858510000024,
          "velocity": 0.7716535433070866,
          "duration": 0.07142862500001002
        },
        {
          "name": "F#2",
          "midi": 42,
          "time": 182.2858510000024,
          "velocity": 0.6771653543307087,
          "duration": 0.047619083333330536
        },
        {
          "name": "B1",
          "midi": 35,
          "time": 182.57156550000244,
          "velocity": 0.7874015748031497,
          "duration": 0.27142877500000395
        },
        {
          "name": "D#2",
          "midi": 39,
          "time": 182.57156550000244,
          "velocity": 0.3700787401574803,
          "duration": 0.11904770833334055
        },
        {
          "name": "B3",
          "midi": 59,
          "time": 182.57156550000244,
          "velocity": 0.7007874015748031,
          "duration": 0.11904770833334055
        },
        {
          "name": "E4",
          "midi": 64,
          "time": 182.57156550000244,
          "velocity": 0.5826771653543307,
          "duration": 0.11904770833334055
        },
        {
          "name": "A3",
          "midi": 57,
          "time": 182.57156550000244,
          "velocity": 0.6220472440944882,
          "duration": 0.5000003750000133
        },
        {
          "name": "F#3",
          "midi": 54,
          "time": 182.57156550000244,
          "velocity": 0.7086614173228346,
          "duration": 0.4619051083333545
        },
        {
          "name": "C2",
          "midi": 36,
          "time": 182.57156550000244,
          "velocity": 0.84251968503937,
          "duration": 0.07142862500001002
        },
        {
          "name": "F#2",
          "midi": 42,
          "time": 182.57156550000244,
          "velocity": 0.6771653543307087,
          "duration": 0.047619083333330536
        },
        {
          "name": "E2",
          "midi": 40,
          "time": 182.85728000000245,
          "velocity": 0.7874015748031497,
          "duration": 0.8666673166667067
        },
        {
          "name": "B3",
          "midi": 59,
          "time": 182.85728000000245,
          "velocity": 0.7401574803149606,
          "duration": 0.11904770833334055
        },
        {
          "name": "E4",
          "midi": 64,
          "time": 182.85728000000245,
          "velocity": 0.7244094488188977,
          "duration": 0.11904770833334055
        },
        {
          "name": "G3",
          "midi": 55,
          "time": 182.85728000000245,
          "velocity": 0.6850393700787402,
          "duration": 0.11904770833334055
        },
        {
          "name": "C2",
          "midi": 36,
          "time": 182.85728000000245,
          "velocity": 0.84251968503937,
          "duration": 0.5714290000000517
        },
        {
          "name": "F#2",
          "midi": 42,
          "time": 182.85728000000245,
          "velocity": 0.6771653543307087,
          "duration": 0.047619083333330536
        },
        {
          "name": "B3",
          "midi": 59,
          "time": 183.14299450000246,
          "velocity": 0.6062992125984252,
          "duration": 0.11904770833334055
        },
        {
          "name": "E4",
          "midi": 64,
          "time": 183.14299450000246,
          "velocity": 0.5826771653543307,
          "duration": 0.11904770833334055
        },
        {
          "name": "G3",
          "midi": 55,
          "time": 183.14299450000246,
          "velocity": 0.7086614173228346,
          "duration": 1.4761915833334456
        },
        {
          "name": "B3",
          "midi": 59,
          "time": 183.14299450000246,
          "velocity": 0.7086614173228346,
          "duration": 0.2619049583333606
        },
        {
          "name": "F#2",
          "midi": 42,
          "time": 183.14299450000246,
          "velocity": 0.6771653543307087,
          "duration": 0.047619083333330536
        },
        {
          "name": "E4",
          "midi": 64,
          "time": 183.28585175000248,
          "velocity": 0.7401574803149606,
          "duration": 0.11904770833334055
        },
        {
          "name": "B3",
          "midi": 59,
          "time": 183.28585175000248,
          "velocity": 0.5826771653543307,
          "duration": 0.2619049583333606
        },
        {
          "name": "A4",
          "midi": 69,
          "time": 183.4287090000025,
          "velocity": 0.7244094488188977,
          "duration": 0.295238316666655
        },
        {
          "name": "B3",
          "midi": 59,
          "time": 183.4287090000025,
          "velocity": 0.7086614173228346,
          "duration": 0.40476220833332377
        },
        {
          "name": "E4",
          "midi": 64,
          "time": 183.4287090000025,
          "velocity": 0.7401574803149606,
          "duration": 0.11904770833334055
        },
        {
          "name": "D2",
          "midi": 38,
          "time": 183.4287090000025,
          "velocity": 0.7716535433070866,
          "duration": 0.047619083333330536
        },
        {
          "name": "F#2",
          "midi": 42,
          "time": 183.4287090000025,
          "velocity": 0.6771653543307087,
          "duration": 0.07142862500001002
        },
        {
          "name": "D4",
          "midi": 62,
          "time": 183.4287090000025,
          "velocity": 0.007874015748031496,
          "duration": 0.1476191583333275
        },
        {
          "name": "B4",
          "midi": 71,
          "time": 183.71442350000248,
          "velocity": 0.7244094488188977,
          "duration": 0.09523816666666107
        },
        {
          "name": "B1",
          "midi": 35,
          "time": 183.71442350000248,
          "velocity": 0.7874015748031497,
          "duration": 0.27142877500000395
        },
        {
          "name": "E3",
          "midi": 52,
          "time": 183.71442350000248,
          "velocity": 0.6141732283464567,
          "duration": 0.11904770833334055
        },
        {
          "name": "B3",
          "midi": 59,
          "time": 183.71442350000248,
          "velocity": 0.7401574803149606,
          "duration": 0.8904768583334146
        },
        {
          "name": "E4",
          "midi": 64,
          "time": 183.71442350000248,
          "velocity": 0.7559055118110236,
          "duration": 0.11904770833334055
        },
        {
          "name": "G5",
          "midi": 79,
          "time": 183.71442350000248,
          "velocity": 0.7401574803149606,
          "duration": 0.12857152500001234
        },
        {
          "name": "B4",
          "midi": 71,
          "time": 183.71442350000248,
          "velocity": 0.9133858267716536,
          "duration": 0.17619060833334288
        },
        {
          "name": "G4",
          "midi": 67,
          "time": 183.71442350000248,
          "velocity": 0.8267716535433071,
          "duration": 0.09523816666666107
        },
        {
          "name": "C2",
          "midi": 36,
          "time": 183.71442350000248,
          "velocity": 0.84251968503937,
          "duration": 0.05714290000000233
        },
        {
          "name": "D2",
          "midi": 38,
          "time": 183.71442350000248,
          "velocity": 0.7716535433070866,
          "duration": 0.05714290000000233
        },
        {
          "name": "F#2",
          "midi": 42,
          "time": 183.71442350000248,
          "velocity": 0.6771653543307087,
          "duration": 0.05714290000000233
        },
        {
          "name": "D4",
          "midi": 62,
          "time": 183.71442350000248,
          "velocity": 0.007874015748031496,
          "duration": 0.09047625833332518
        },
        {
          "name": "B4",
          "midi": 71,
          "time": 184.0001380000025,
          "velocity": 0.7244094488188977,
          "duration": 0.2476192333333529
        },
        {
          "name": "E2",
          "midi": 40,
          "time": 184.0001380000025,
          "velocity": 0.7874015748031497,
          "duration": 0.03333335833332285
        },
        {
          "name": "B4",
          "midi": 71,
          "time": 184.0001380000025,
          "velocity": 0.9133858267716536,
          "duration": 0.35714312500002166
        },
        {
          "name": "G5",
          "midi": 79,
          "time": 184.0001380000025,
          "velocity": 0.7795275590551181,
          "duration": 0.34285740000001397
        },
        {
          "name": "G4",
          "midi": 67,
          "time": 184.0001380000025,
          "velocity": 0.8582677165354331,
          "duration": 0.3190478583333345
        },
        {
          "name": "C2",
          "midi": 36,
          "time": 184.0001380000025,
          "velocity": 0.84251968503937,
          "duration": 0.07142862500001002
        },
        {
          "name": "F#2",
          "midi": 42,
          "time": 184.0001380000025,
          "velocity": 0.6771653543307087,
          "duration": 0.05714290000000233
        },
        {
          "name": "D4",
          "midi": 62,
          "time": 184.0001380000025,
          "velocity": 0.007874015748031496,
          "duration": 0.12380961666667645
        },
        {
          "name": "A4",
          "midi": 69,
          "time": 184.2858525000025,
          "velocity": 0.7244094488188977,
          "duration": 0.1666667916666995
        },
        {
          "name": "E2",
          "midi": 40,
          "time": 184.2858525000025,
          "velocity": 0.7874015748031497,
          "duration": 0.29523831666671185
        },
        {
          "name": "E3",
          "midi": 52,
          "time": 184.2858525000025,
          "velocity": 0.6614173228346457,
          "duration": 0.11904770833334055
        },
        {
          "name": "B2",
          "midi": 47,
          "time": 184.2858525000025,
          "velocity": 0.6299212598425197,
          "duration": 0.11904770833334055
        },
        {
          "name": "C2",
          "midi": 36,
          "time": 184.2858525000025,
          "velocity": 0.84251968503937,
          "duration": 0.28571450000004006
        },
        {
          "name": "F#2",
          "midi": 42,
          "time": 184.2858525000025,
          "velocity": 0.6771653543307087,
          "duration": 0.047619083333330536
        },
        {
          "name": "D4",
          "midi": 62,
          "time": 184.2858525000025,
          "velocity": 0.007874015748031496,
          "duration": 0.0857143500000177
        },
        {
          "name": "C5",
          "midi": 72,
          "time": 184.42870975000253,
          "velocity": 0.9133858267716536,
          "duration": 0.2714287750000608
        },
        {
          "name": "A5",
          "midi": 81,
          "time": 184.42870975000253,
          "velocity": 0.8267716535433071,
          "duration": 0.2714287750000608
        },
        {
          "name": "A4",
          "midi": 69,
          "time": 184.42870975000253,
          "velocity": 0.7559055118110236,
          "duration": 0.261904958333389
        },
        {
          "name": "G5",
          "midi": 79,
          "time": 184.42870975000253,
          "velocity": 0.7401574803149606,
          "duration": 0.07142862500001002
        },
        {
          "name": "A4",
          "midi": 69,
          "time": 184.57156700000255,
          "velocity": 0.7244094488188977,
          "duration": 0.2714287750000324
        },
        {
          "name": "B1",
          "midi": 35,
          "time": 184.57156700000255,
          "velocity": 0.7874015748031497,
          "duration": 0.23809541666670953
        },
        {
          "name": "B3",
          "midi": 59,
          "time": 184.57156700000255,
          "velocity": 0.8110236220472441,
          "duration": 0.11904770833336897
        },
        {
          "name": "E4",
          "midi": 64,
          "time": 184.57156700000255,
          "velocity": 0.8110236220472441,
          "duration": 0.11904770833336897
        },
        {
          "name": "D2",
          "midi": 38,
          "time": 184.57156700000255,
          "velocity": 0.7716535433070866,
          "duration": 0.07142862500003844
        },
        {
          "name": "F#2",
          "midi": 42,
          "time": 184.57156700000255,
          "velocity": 0.6771653543307087,
          "duration": 0.04761908333335896
        },
        {
          "name": "D4",
          "midi": 62,
          "time": 184.57156700000255,
          "velocity": 0.007874015748031496,
          "duration": 0.13809534166671256
        },
        {
          "name": "G4",
          "midi": 67,
          "time": 184.85728150000259,
          "velocity": 0.7244094488188977,
          "duration": 0.1666667916666711
        },
        {
          "name": "D2",
          "midi": 38,
          "time": 184.85728150000259,
          "velocity": 0.7874015748031497,
          "duration": 0.28571450000004006
        },
        {
          "name": "B3",
          "midi": 59,
          "time": 184.85728150000259,
          "velocity": 0.7952755905511811,
          "duration": 0.11904770833334055
        },
        {
          "name": "B4",
          "midi": 71,
          "time": 184.85728150000259,
          "velocity": 0.7401574803149606,
          "duration": 0.21428587500000162
        },
        {
          "name": "D5",
          "midi": 74,
          "time": 184.85728150000259,
          "velocity": 0.84251968503937,
          "duration": 0.2380954166666811
        },
        {
          "name": "B5",
          "midi": 83,
          "time": 184.85728150000259,
          "velocity": 0.8582677165354331,
          "duration": 0.2476192333333529
        },
        {
          "name": "C2",
          "midi": 36,
          "time": 184.85728150000259,
          "velocity": 0.84251968503937,
          "duration": 0.07142862500001002
        },
        {
          "name": "F#2",
          "midi": 42,
          "time": 184.85728150000259,
          "velocity": 0.6771653543307087,
          "duration": 0.047619083333330536
        },
        {
          "name": "D4",
          "midi": 62,
          "time": 184.85728150000259,
          "velocity": 0.007874015748031496,
          "duration": 0.0857143500000177
        },
        {
          "name": "G4",
          "midi": 67,
          "time": 185.14299600000263,
          "velocity": 0.7244094488188977,
          "duration": 0.7952386916667251
        },
        {
          "name": "C2",
          "midi": 36,
          "time": 185.14299600000263,
          "velocity": 0.7874015748031497,
          "duration": 0.5714290000000517
        },
        {
          "name": "C3",
          "midi": 48,
          "time": 185.14299600000263,
          "velocity": 0.6614173228346457,
          "duration": 0.11904770833334055
        },
        {
          "name": "G3",
          "midi": 55,
          "time": 185.14299600000263,
          "velocity": 0.905511811023622,
          "duration": 0.11904770833334055
        },
        {
          "name": "C4",
          "midi": 60,
          "time": 185.14299600000263,
          "velocity": 0.9133858267716536,
          "duration": 0.11904770833334055
        },
        {
          "name": "E4",
          "midi": 64,
          "time": 185.14299600000263,
          "velocity": 0.8582677165354331,
          "duration": 0.11904770833334055
        },
        {
          "name": "B5",
          "midi": 83,
          "time": 185.14299600000263,
          "velocity": 0.8346456692913385,
          "duration": 0.7380957916667228
        },
        {
          "name": "B4",
          "midi": 71,
          "time": 185.14299600000263,
          "velocity": 0.905511811023622,
          "duration": 0.7238100666667151
        },
        {
          "name": "D5",
          "midi": 74,
          "time": 185.14299600000263,
          "velocity": 0.889763779527559,
          "duration": 0.6523814416667335
        },
        {
          "name": "C4",
          "midi": 60,
          "time": 185.14299600000263,
          "velocity": 0.7401574803149606,
          "duration": 0.4047622083333522
        },
        {
          "name": "E4",
          "midi": 64,
          "time": 185.14299600000263,
          "velocity": 0.7165354330708661,
          "duration": 0.4047622083333522
        },
        {
          "name": "G3",
          "midi": 55,
          "time": 185.14299600000263,
          "velocity": 0.7007874015748031,
          "duration": 0.6904767083333923
        },
        {
          "name": "C2",
          "midi": 36,
          "time": 185.14299600000263,
          "velocity": 0.84251968503937,
          "duration": 0.8809530416667428
        },
        {
          "name": "F#2",
          "midi": 42,
          "time": 185.14299600000263,
          "velocity": 0.6771653543307087,
          "duration": 0.047619083333330536
        },
        {
          "name": "D4",
          "midi": 62,
          "time": 185.14299600000263,
          "velocity": 0.007874015748031496,
          "duration": 0.5666670916667158
        },
        {
          "name": "C4",
          "midi": 60,
          "time": 185.42871050000264,
          "velocity": 0.6299212598425197,
          "duration": 0.4047622083333806
        },
        {
          "name": "E4",
          "midi": 64,
          "time": 185.42871050000264,
          "velocity": 0.6456692913385826,
          "duration": 0.2619049583333606
        },
        {
          "name": "F#2",
          "midi": 42,
          "time": 185.42871050000264,
          "velocity": 0.6771653543307087,
          "duration": 0.047619083333330536
        },
        {
          "name": "E4",
          "midi": 64,
          "time": 185.57156775000266,
          "velocity": 0.8582677165354331,
          "duration": 0.2619049583333606
        },
        {
          "name": "G3",
          "midi": 55,
          "time": 185.71442500000268,
          "velocity": 0.6299212598425197,
          "duration": 0.4047622083333522
        },
        {
          "name": "C4",
          "midi": 60,
          "time": 185.71442500000268,
          "velocity": 0.8267716535433071,
          "duration": 0.4047622083333522
        },
        {
          "name": "E4",
          "midi": 64,
          "time": 185.71442500000268,
          "velocity": 0.8110236220472441,
          "duration": 1.261905708333387
        },
        {
          "name": "D2",
          "midi": 38,
          "time": 185.71442500000268,
          "velocity": 0.7716535433070866,
          "duration": 0.047619083333330536
        },
        {
          "name": "F#2",
          "midi": 42,
          "time": 185.71442500000268,
          "velocity": 0.6771653543307087,
          "duration": 0.07142862500001002
        },
        {
          "name": "A4",
          "midi": 69,
          "time": 186.0001395000027,
          "velocity": 0.7244094488188977,
          "duration": 0.8571435000000349
        },
        {
          "name": "G1",
          "midi": 31,
          "time": 186.0001395000027,
          "velocity": 0.7874015748031497,
          "duration": 0.07142862500001002
        },
        {
          "name": "C3",
          "midi": 48,
          "time": 186.0001395000027,
          "velocity": 0.7165354330708661,
          "duration": 0.11904770833334055
        },
        {
          "name": "G3",
          "midi": 55,
          "time": 186.0001395000027,
          "velocity": 0.8582677165354331,
          "duration": 0.6904767083333638
        },
        {
          "name": "C4",
          "midi": 60,
          "time": 186.0001395000027,
          "velocity": 0.8740157480314961,
          "duration": 0.9761912083333755
        },
        {
          "name": "E5",
          "midi": 76,
          "time": 186.0001395000027,
          "velocity": 0.8110236220472441,
          "duration": 1.6190488333334088
        },
        {
          "name": "C5",
          "midi": 72,
          "time": 186.0001395000027,
          "velocity": 0.7637795275590551,
          "duration": 1.6190488333334088
        },
        {
          "name": "C6",
          "midi": 84,
          "time": 186.0001395000027,
          "velocity": 0.889763779527559,
          "duration": 1.5571440250000705
        },
        {
          "name": "C2",
          "midi": 36,
          "time": 186.0001395000027,
          "velocity": 0.84251968503937,
          "duration": 0.05714290000000233
        },
        {
          "name": "D2",
          "midi": 38,
          "time": 186.0001395000027,
          "velocity": 0.7716535433070866,
          "duration": 0.05714290000000233
        },
        {
          "name": "F#2",
          "midi": 42,
          "time": 186.0001395000027,
          "velocity": 0.6771653543307087,
          "duration": 0.05714290000000233
        },
        {
          "name": "C2",
          "midi": 36,
          "time": 186.2858540000027,
          "velocity": 0.7874015748031497,
          "duration": 0.03333335833332285
        },
        {
          "name": "C2",
          "midi": 36,
          "time": 186.2858540000027,
          "velocity": 0.84251968503937,
          "duration": 0.07142862500001002
        },
        {
          "name": "F#2",
          "midi": 42,
          "time": 186.2858540000027,
          "velocity": 0.6771653543307087,
          "duration": 0.05714290000000233
        },
        {
          "name": "C2",
          "midi": 36,
          "time": 186.5715685000027,
          "velocity": 0.7874015748031497,
          "duration": 0.28571450000001164
        },
        {
          "name": "C3",
          "midi": 48,
          "time": 186.5715685000027,
          "velocity": 0.6692913385826772,
          "duration": 0.11904770833334055
        },
        {
          "name": "G3",
          "midi": 55,
          "time": 186.5715685000027,
          "velocity": 0.7559055118110236,
          "duration": 0.4047622083333522
        },
        {
          "name": "C2",
          "midi": 36,
          "time": 186.5715685000027,
          "velocity": 0.84251968503937,
          "duration": 0.5714290000000233
        },
        {
          "name": "F#2",
          "midi": 42,
          "time": 186.5715685000027,
          "velocity": 0.6771653543307087,
          "duration": 0.047619083333330536
        },
        {
          "name": "B4",
          "midi": 71,
          "time": 186.85728300000272,
          "velocity": 0.7244094488188977,
          "duration": 0.34285740000001397
        },
        {
          "name": "E4",
          "midi": 64,
          "time": 186.85728300000272,
          "velocity": 0.7322834645669292,
          "duration": 0.6904767083333638
        },
        {
          "name": "G3",
          "midi": 55,
          "time": 186.85728300000272,
          "velocity": 0.7795275590551181,
          "duration": 0.6904767083333638
        },
        {
          "name": "C4",
          "midi": 60,
          "time": 186.85728300000272,
          "velocity": 0.8346456692913385,
          "duration": 0.6904767083333638
        },
        {
          "name": "D2",
          "midi": 38,
          "time": 186.85728300000272,
          "velocity": 0.7716535433070866,
          "duration": 0.07142862500001002
        },
        {
          "name": "F#2",
          "midi": 42,
          "time": 186.85728300000272,
          "velocity": 0.6771653543307087,
          "duration": 0.047619083333330536
        },
        {
          "name": "G1",
          "midi": 31,
          "time": 187.14299750000274,
          "velocity": 0.7874015748031497,
          "duration": 0.05714290000000233
        },
        {
          "name": "C2",
          "midi": 36,
          "time": 187.14299750000274,
          "velocity": 0.84251968503937,
          "duration": 0.07142862500001002
        },
        {
          "name": "F#2",
          "midi": 42,
          "time": 187.14299750000274,
          "velocity": 0.6771653543307087,
          "duration": 0.047619083333330536
        },
        {
          "name": "C2",
          "midi": 36,
          "time": 187.42871200000275,
          "velocity": 0.7874015748031497,
          "duration": 0.5714290000000517
        },
        {
          "name": "C3",
          "midi": 48,
          "time": 187.42871200000275,
          "velocity": 0.6614173228346457,
          "duration": 0.11904770833334055
        },
        {
          "name": "G3",
          "midi": 55,
          "time": 187.42871200000275,
          "velocity": 0.905511811023622,
          "duration": 0.6904767083333923
        },
        {
          "name": "C4",
          "midi": 60,
          "time": 187.42871200000275,
          "velocity": 0.9133858267716536,
          "duration": 0.4047622083333522
        },
        {
          "name": "E4",
          "midi": 64,
          "time": 187.42871200000275,
          "velocity": 0.8582677165354331,
          "duration": 0.4047622083333522
        },
        {
          "name": "C2",
          "midi": 36,
          "time": 187.42871200000275,
          "velocity": 0.84251968503937,
          "duration": 0.8809530416667428
        },
        {
          "name": "F#2",
          "midi": 42,
          "time": 187.42871200000275,
          "velocity": 0.6771653543307087,
          "duration": 0.047619083333330536
        },
        {
          "name": "C4",
          "midi": 60,
          "time": 187.71442650000276,
          "velocity": 0.6299212598425197,
          "duration": 0.4047622083333806
        },
        {
          "name": "E4",
          "midi": 64,
          "time": 187.71442650000276,
          "velocity": 0.6456692913385826,
          "duration": 0.2619049583333606
        },
        {
          "name": "F#2",
          "midi": 42,
          "time": 187.71442650000276,
          "velocity": 0.6771653543307087,
          "duration": 0.047619083333330536
        },
        {
          "name": "E4",
          "midi": 64,
          "time": 187.85728375000278,
          "velocity": 0.8582677165354331,
          "duration": 0.2619049583333606
        },
        {
          "name": "B4",
          "midi": 71,
          "time": 188.0001410000028,
          "velocity": 0.7244094488188977,
          "duration": 0.27142877500000395
        },
        {
          "name": "G3",
          "midi": 55,
          "time": 188.0001410000028,
          "velocity": 0.6299212598425197,
          "duration": 0.40476220833340903
        },
        {
          "name": "C4",
          "midi": 60,
          "time": 188.0001410000028,
          "velocity": 0.8267716535433071,
          "duration": 0.40476220833340903
        },
        {
          "name": "E4",
          "midi": 64,
          "time": 188.0001410000028,
          "velocity": 0.8110236220472441,
          "duration": 1.2619057083335008
        },
        {
          "name": "D2",
          "midi": 38,
          "time": 188.0001410000028,
          "velocity": 0.7716535433070866,
          "duration": 0.047619083333330536
        },
        {
          "name": "F#2",
          "midi": 42,
          "time": 188.0001410000028,
          "velocity": 0.6771653543307087,
          "duration": 0.07142862500001002
        },
        {
          "name": "D4",
          "midi": 62,
          "time": 188.0001410000028,
          "velocity": 0.007874015748031496,
          "duration": 0.13809534166668413
        },
        {
          "name": "C5",
          "midi": 72,
          "time": 188.2858555000028,
          "velocity": 0.7244094488188977,
          "duration": 0.04761908333335896
        },
        {
          "name": "G1",
          "midi": 31,
          "time": 188.2858555000028,
          "velocity": 0.7874015748031497,
          "duration": 0.05714290000003075
        },
        {
          "name": "C3",
          "midi": 48,
          "time": 188.2858555000028,
          "velocity": 0.7165354330708661,
          "duration": 0.1190477083333974
        },
        {
          "name": "G3",
          "midi": 55,
          "time": 188.2858555000028,
          "velocity": 0.8582677165354331,
          "duration": 0.6904767083334491
        },
        {
          "name": "C4",
          "midi": 60,
          "time": 188.2858555000028,
          "velocity": 0.8740157480314961,
          "duration": 0.9761912083334892
        },
        {
          "name": "G5",
          "midi": 79,
          "time": 188.2858555000028,
          "velocity": 0.7795275590551181,
          "duration": 0.07142862500003844
        },
        {
          "name": "C5",
          "midi": 72,
          "time": 188.2858555000028,
          "velocity": 0.84251968503937,
          "duration": 0.1904763333334074
        },
        {
          "name": "G4",
          "midi": 67,
          "time": 188.2858555000028,
          "velocity": 0.7795275590551181,
          "duration": 0.05714290000003075
        },
        {
          "name": "C2",
          "midi": 36,
          "time": 188.2858555000028,
          "velocity": 0.84251968503937,
          "duration": 0.05714290000003075
        },
        {
          "name": "D2",
          "midi": 38,
          "time": 188.2858555000028,
          "velocity": 0.7716535433070866,
          "duration": 0.05714290000003075
        },
        {
          "name": "F#2",
          "midi": 42,
          "time": 188.2858555000028,
          "velocity": 0.6771653543307087,
          "duration": 0.05714290000003075
        },
        {
          "name": "D4",
          "midi": 62,
          "time": 188.2858555000028,
          "velocity": 0.007874015748031496,
          "duration": 0.09523816666671792
        },
        {
          "name": "C5",
          "midi": 72,
          "time": 188.4287127500029,
          "velocity": 0.889763779527559,
          "duration": 0.07142862500001002
        },
        {
          "name": "G4",
          "midi": 67,
          "time": 188.4287127500029,
          "velocity": 0.7086614173228346,
          "duration": 0.05714290000000233
        },
        {
          "name": "G5",
          "midi": 79,
          "time": 188.4287127500029,
          "velocity": 0.7637795275590551,
          "duration": 0.07142862500001002
        },
        {
          "name": "C5",
          "midi": 72,
          "time": 188.5715700000029,
          "velocity": 0.7244094488188977,
          "duration": 0.29523831666668343
        },
        {
          "name": "C2",
          "midi": 36,
          "time": 188.5715700000029,
          "velocity": 0.7874015748031497,
          "duration": 0.047619083333330536
        },
        {
          "name": "G5",
          "midi": 79,
          "time": 188.5715700000029,
          "velocity": 0.7637795275590551,
          "duration": 0.3333335833333706
        },
        {
          "name": "G4",
          "midi": 67,
          "time": 188.5715700000029,
          "velocity": 0.7559055118110236,
          "duration": 0.3190478583333629
        },
        {
          "name": "C5",
          "midi": 72,
          "time": 188.5715700000029,
          "velocity": 0.889763779527559,
          "duration": 0.3190478583333629
        },
        {
          "name": "C2",
          "midi": 36,
          "time": 188.5715700000029,
          "velocity": 0.84251968503937,
          "duration": 0.07142862500001002
        },
        {
          "name": "F#2",
          "midi": 42,
          "time": 188.5715700000029,
          "velocity": 0.6771653543307087,
          "duration": 0.05714290000000233
        },
        {
          "name": "D4",
          "midi": 62,
          "time": 188.5715700000029,
          "velocity": 0.007874015748031496,
          "duration": 0.14761915833335593
        },
        {
          "name": "B4",
          "midi": 71,
          "time": 188.85728450000292,
          "velocity": 0.7244094488188977,
          "duration": 0.15238106666669182
        },
        {
          "name": "C2",
          "midi": 36,
          "time": 188.85728450000292,
          "velocity": 0.7874015748031497,
          "duration": 0.28571450000004006
        },
        {
          "name": "C3",
          "midi": 48,
          "time": 188.85728450000292,
          "velocity": 0.6692913385826772,
          "duration": 0.11904770833334055
        },
        {
          "name": "G3",
          "midi": 55,
          "time": 188.85728450000292,
          "velocity": 0.7559055118110236,
          "duration": 0.4047622083333806
        },
        {
          "name": "C2",
          "midi": 36,
          "time": 188.85728450000292,
          "velocity": 0.84251968503937,
          "duration": 0.3333335833333706
        },
        {
          "name": "F#2",
          "midi": 42,
          "time": 188.85728450000292,
          "velocity": 0.6771653543307087,
          "duration": 0.04761908333335896
        },
        {
          "name": "D4",
          "midi": 62,
          "time": 188.85728450000292,
          "velocity": 0.007874015748031496,
          "duration": 0.07619053333334591
        },
        {
          "name": "C5",
          "midi": 72,
          "time": 189.00014175000294,
          "velocity": 0.8110236220472441,
          "duration": 0.2619049583333606
        },
        {
          "name": "A4",
          "midi": 69,
          "time": 189.00014175000294,
          "velocity": 0.7795275590551181,
          "duration": 0.2476192333333529
        },
        {
          "name": "A5",
          "midi": 81,
          "time": 189.00014175000294,
          "velocity": 0.7795275590551181,
          "duration": 0.2714287750000324
        },
        {
          "name": "G5",
          "midi": 79,
          "time": 189.00014175000294,
          "velocity": 0.7086614173228346,
          "duration": 0.03333335833335127
        },
        {
          "name": "B4",
          "midi": 71,
          "time": 189.14299900000296,
          "velocity": 0.7244094488188977,
          "duration": 0.27142877500000395
        },
        {
          "name": "G1",
          "midi": 31,
          "time": 189.14299900000296,
          "velocity": 0.7874015748031497,
          "duration": 0.2380954166666811
        },
        {
          "name": "E4",
          "midi": 64,
          "time": 189.14299900000296,
          "velocity": 0.7322834645669292,
          "duration": 0.485714650000034
        },
        {
          "name": "G3",
          "midi": 55,
          "time": 189.14299900000296,
          "velocity": 0.7795275590551181,
          "duration": 0.43809556666670346
        },
        {
          "name": "C4",
          "midi": 60,
          "time": 189.14299900000296,
          "velocity": 0.8346456692913385,
          "duration": 0.5333337333333645
        },
        {
          "name": "D2",
          "midi": 38,
          "time": 189.14299900000296,
          "velocity": 0.7716535433070866,
          "duration": 0.07142862500001002
        },
        {
          "name": "F#2",
          "midi": 42,
          "time": 189.14299900000296,
          "velocity": 0.6771653543307087,
          "duration": 0.047619083333330536
        },
        {
          "name": "D4",
          "midi": 62,
          "time": 189.14299900000296,
          "velocity": 0.007874015748031496,
          "duration": 0.13809534166668413
        },
        {
          "name": "A4",
          "midi": 69,
          "time": 189.42871350000297,
          "velocity": 0.7244094488188977,
          "duration": 0.19047633333335057
        },
        {
          "name": "C2",
          "midi": 36,
          "time": 189.42871350000297,
          "velocity": 0.7874015748031497,
          "duration": 0.07142862500001002
        },
        {
          "name": "B5",
          "midi": 83,
          "time": 189.42871350000297,
          "velocity": 0.7559055118110236,
          "duration": 0.2714287750000324
        },
        {
          "name": "B4",
          "midi": 71,
          "time": 189.42871350000297,
          "velocity": 0.8818897637795275,
          "duration": 0.21428587500003005
        },
        {
          "name": "D5",
          "midi": 74,
          "time": 189.42871350000297,
          "velocity": 0.8582677165354331,
          "duration": 0.2476192333333529
        },
        {
          "name": "C2",
          "midi": 36,
          "time": 189.42871350000297,
          "velocity": 0.84251968503937,
          "duration": 0.2619049583333606
        },
        {
          "name": "F#2",
          "midi": 42,
          "time": 189.42871350000297,
          "velocity": 0.6771653543307087,
          "duration": 0.047619083333330536
        },
        {
          "name": "D4",
          "midi": 62,
          "time": 189.42871350000297,
          "velocity": 0.007874015748031496,
          "duration": 0.0952381666666895
        },
        {
          "name": "A4",
          "midi": 69,
          "time": 189.714428000003,
          "velocity": 0.7244094488188977,
          "duration": 0.8095244166667328
        },
        {
          "name": "D2",
          "midi": 38,
          "time": 189.714428000003,
          "velocity": 0.7874015748031497,
          "duration": 0.11904770833334055
        },
        {
          "name": "A2",
          "midi": 45,
          "time": 189.714428000003,
          "velocity": 0.3937007874015748,
          "duration": 0.11904770833334055
        },
        {
          "name": "D2",
          "midi": 38,
          "time": 189.714428000003,
          "velocity": 0.44881889763779526,
          "duration": 0.6190480833333822
        },
        {
          "name": "F#3",
          "midi": 54,
          "time": 189.714428000003,
          "velocity": 0.8267716535433071,
          "duration": 0.11904770833334055
        },
        {
          "name": "A3",
          "midi": 57,
          "time": 189.714428000003,
          "velocity": 0.7244094488188977,
          "duration": 0.11904770833334055
        },
        {
          "name": "D4",
          "midi": 62,
          "time": 189.714428000003,
          "velocity": 0.48031496062992124,
          "duration": 0.11904770833334055
        },
        {
          "name": "B5",
          "midi": 83,
          "time": 189.714428000003,
          "velocity": 0.8110236220472441,
          "duration": 0.700000525000064
        },
        {
          "name": "D5",
          "midi": 74,
          "time": 189.714428000003,
          "velocity": 0.8582677165354331,
          "duration": 0.6047623583333746
        },
        {
          "name": "B4",
          "midi": 71,
          "time": 189.714428000003,
          "velocity": 0.8818897637795275,
          "duration": 0.700000525000064
        },
        {
          "name": "F#4",
          "midi": 66,
          "time": 189.714428000003,
          "velocity": 0.6850393700787402,
          "duration": 4.485717650000282
        },
        {
          "name": "D4",
          "midi": 62,
          "time": 189.714428000003,
          "velocity": 0.7244094488188977,
          "duration": 0.4047622083333522
        },
        {
          "name": "A3",
          "midi": 57,
          "time": 189.714428000003,
          "velocity": 0.7165354330708661,
          "duration": 0.4047622083333522
        },
        {
          "name": "C2",
          "midi": 36,
          "time": 189.714428000003,
          "velocity": 0.84251968503937,
          "duration": 0.5714290000000517
        },
        {
          "name": "F#2",
          "midi": 42,
          "time": 189.714428000003,
          "velocity": 0.6771653543307087,
          "duration": 0.047619083333330536
        },
        {
          "name": "D4",
          "midi": 62,
          "time": 189.714428000003,
          "velocity": 0.007874015748031496,
          "duration": 0.5476194583333722
        },
        {
          "name": "A3",
          "midi": 57,
          "time": 190.00014250000302,
          "velocity": 0.6771653543307087,
          "duration": 2.1190492083334505
        },
        {
          "name": "D4",
          "midi": 62,
          "time": 190.00014250000302,
          "velocity": 0.7086614173228346,
          "duration": 0.5666670916667158
        },
        {
          "name": "F#2",
          "midi": 42,
          "time": 190.00014250000302,
          "velocity": 0.6771653543307087,
          "duration": 0.047619083333330536
        },
        {
          "name": "D4",
          "midi": 62,
          "time": 190.14299975000304,
          "velocity": 0.6299212598425197,
          "duration": 0.5476194583333722
        },
        {
          "name": "D3",
          "midi": 50,
          "time": 190.28585700000306,
          "velocity": 0.3937007874015748,
          "duration": 0.11904770833334055
        },
        {
          "name": "D2",
          "midi": 38,
          "time": 190.28585700000306,
          "velocity": 0.7716535433070866,
          "duration": 0.2476192333333529
        },
        {
          "name": "F#2",
          "midi": 42,
          "time": 190.28585700000306,
          "velocity": 0.6771653543307087,
          "duration": 0.07142862500001002
        },
        {
          "name": "B4",
          "midi": 71,
          "time": 190.57157150000307,
          "velocity": 0.7244094488188977,
          "duration": 0.7857148750000249
        },
        {
          "name": "A1",
          "midi": 33,
          "time": 190.57157150000307,
          "velocity": 0.7874015748031497,
          "duration": 0.047619083333330536
        },
        {
          "name": "D3",
          "midi": 50,
          "time": 190.57157150000307,
          "velocity": 0.5354330708661418,
          "duration": 0.11904770833334055
        },
        {
          "name": "D4",
          "midi": 62,
          "time": 190.57157150000307,
          "velocity": 0.7401574803149606,
          "duration": 0.9761912083333755
        },
        {
          "name": "A5",
          "midi": 81,
          "time": 190.57157150000307,
          "velocity": 0.7637795275590551,
          "duration": 3.1761928583335077
        },
        {
          "name": "C5",
          "midi": 72,
          "time": 190.57157150000307,
          "velocity": 0.8740157480314961,
          "duration": 1.4142867750000505
        },
        {
          "name": "A4",
          "midi": 69,
          "time": 190.57157150000307,
          "velocity": 0.8110236220472441,
          "duration": 3.2238119416668667
        },
        {
          "name": "C#5",
          "midi": 73,
          "time": 190.57157150000307,
          "velocity": 0.7086614173228346,
          "duration": 0.11904770833334055
        },
        {
          "name": "C2",
          "midi": 36,
          "time": 190.57157150000307,
          "velocity": 0.84251968503937,
          "duration": 0.05714290000000233
        },
        {
          "name": "D2",
          "midi": 38,
          "time": 190.57157150000307,
          "velocity": 0.7716535433070866,
          "duration": 0.05714290000000233
        },
        {
          "name": "F#2",
          "midi": 42,
          "time": 190.57157150000307,
          "velocity": 0.6771653543307087,
          "duration": 0.05714290000000233
        },
        {
          "name": "D2",
          "midi": 38,
          "time": 190.85728600000309,
          "velocity": 0.7874015748031497,
          "duration": 0.05714290000000233
        },
        {
          "name": "C2",
          "midi": 36,
          "time": 190.85728600000309,
          "velocity": 0.84251968503937,
          "duration": 0.07142862500001002
        },
        {
          "name": "F#2",
          "midi": 42,
          "time": 190.85728600000309,
          "velocity": 0.6771653543307087,
          "duration": 0.05714290000000233
        },
        {
          "name": "D2",
          "midi": 38,
          "time": 191.1430005000031,
          "velocity": 0.7874015748031497,
          "duration": 0.35714312500002166
        },
        {
          "name": "D3",
          "midi": 50,
          "time": 191.1430005000031,
          "velocity": 0.6141732283464567,
          "duration": 0.11904770833334055
        },
        {
          "name": "C2",
          "midi": 36,
          "time": 191.1430005000031,
          "velocity": 0.84251968503937,
          "duration": 0.28571450000001164
        },
        {
          "name": "F#2",
          "midi": 42,
          "time": 191.1430005000031,
          "velocity": 0.6771653543307087,
          "duration": 0.047619083333330536
        },
        {
          "name": "C5",
          "midi": 72,
          "time": 191.4287150000031,
          "velocity": 0.7244094488188977,
          "duration": 2.3428589000001523
        },
        {
          "name": "D4",
          "midi": 62,
          "time": 191.4287150000031,
          "velocity": 0.7007874015748031,
          "duration": 0.4047622083333522
        },
        {
          "name": "D2",
          "midi": 38,
          "time": 191.4287150000031,
          "velocity": 0.7716535433070866,
          "duration": 0.2476192333333529
        },
        {
          "name": "F#2",
          "midi": 42,
          "time": 191.4287150000031,
          "velocity": 0.6771653543307087,
          "duration": 0.047619083333330536
        },
        {
          "name": "A1",
          "midi": 33,
          "time": 191.71442950000312,
          "velocity": 0.7874015748031497,
          "duration": 0.07142862500001002
        },
        {
          "name": "D4",
          "midi": 62,
          "time": 191.71442950000312,
          "velocity": 0.48031496062992124,
          "duration": 0.4047622083333522
        },
        {
          "name": "C2",
          "midi": 36,
          "time": 191.71442950000312,
          "velocity": 0.84251968503937,
          "duration": 0.07142862500001002
        },
        {
          "name": "F#2",
          "midi": 42,
          "time": 191.71442950000312,
          "velocity": 0.6771653543307087,
          "duration": 0.047619083333330536
        },
        {
          "name": "E5",
          "midi": 76,
          "time": 192.00014400000313,
          "velocity": 0.7244094488188977,
          "duration": 1.6761917333334395
        },
        {
          "name": "D2",
          "midi": 38,
          "time": 192.00014400000313,
          "velocity": 0.7874015748031497,
          "duration": 0.11904770833334055
        },
        {
          "name": "A2",
          "midi": 45,
          "time": 192.00014400000313,
          "velocity": 0.3937007874015748,
          "duration": 0.11904770833334055
        },
        {
          "name": "D2",
          "midi": 38,
          "time": 192.00014400000313,
          "velocity": 0.44881889763779526,
          "duration": 0.6190480833333822
        },
        {
          "name": "F#3",
          "midi": 54,
          "time": 192.00014400000313,
          "velocity": 0.8267716535433071,
          "duration": 0.11904770833334055
        },
        {
          "name": "A3",
          "midi": 57,
          "time": 192.00014400000313,
          "velocity": 0.7244094488188977,
          "duration": 0.4047622083333522
        },
        {
          "name": "D4",
          "midi": 62,
          "time": 192.00014400000313,
          "velocity": 0.48031496062992124,
          "duration": 0.4047622083333522
        },
        {
          "name": "C2",
          "midi": 36,
          "time": 192.00014400000313,
          "velocity": 0.84251968503937,
          "duration": 0.5714290000000517
        },
        {
          "name": "F#2",
          "midi": 42,
          "time": 192.00014400000313,
          "velocity": 0.6771653543307087,
          "duration": 0.047619083333330536
        },
        {
          "name": "A3",
          "midi": 57,
          "time": 192.28585850000314,
          "velocity": 0.6771653543307087,
          "duration": 1.914287150000149
        },
        {
          "name": "D4",
          "midi": 62,
          "time": 192.28585850000314,
          "velocity": 0.7086614173228346,
          "duration": 0.2619049583333606
        },
        {
          "name": "F#2",
          "midi": 42,
          "time": 192.28585850000314,
          "velocity": 0.6771653543307087,
          "duration": 0.047619083333330536
        },
        {
          "name": "D4",
          "midi": 62,
          "time": 192.42871575000316,
          "velocity": 0.6299212598425197,
          "duration": 0.5476194583333722
        },
        {
          "name": "D3",
          "midi": 50,
          "time": 192.57157300000318,
          "velocity": 0.3937007874015748,
          "duration": 0.11904770833334055
        },
        {
          "name": "D2",
          "midi": 38,
          "time": 192.57157300000318,
          "velocity": 0.7716535433070866,
          "duration": 0.28571450000001164
        },
        {
          "name": "F#2",
          "midi": 42,
          "time": 192.57157300000318,
          "velocity": 0.6771653543307087,
          "duration": 0.07142862500001002
        },
        {
          "name": "A1",
          "midi": 33,
          "time": 192.8572875000032,
          "velocity": 0.7874015748031497,
          "duration": 0.047619083333330536
        },
        {
          "name": "D3",
          "midi": 50,
          "time": 192.8572875000032,
          "velocity": 0.5354330708661418,
          "duration": 0.11904770833334055
        },
        {
          "name": "D4",
          "midi": 62,
          "time": 192.8572875000032,
          "velocity": 0.7401574803149606,
          "duration": 0.9761912083334039
        },
        {
          "name": "C2",
          "midi": 36,
          "time": 192.8572875000032,
          "velocity": 0.84251968503937,
          "duration": 0.05714290000000233
        },
        {
          "name": "D2",
          "midi": 38,
          "time": 192.8572875000032,
          "velocity": 0.7716535433070866,
          "duration": 0.05714290000000233
        },
        {
          "name": "F#2",
          "midi": 42,
          "time": 192.8572875000032,
          "velocity": 0.6771653543307087,
          "duration": 0.05714290000000233
        },
        {
          "name": "D2",
          "midi": 38,
          "time": 193.1430020000032,
          "velocity": 0.7874015748031497,
          "duration": 0.03333335833332285
        },
        {
          "name": "C2",
          "midi": 36,
          "time": 193.1430020000032,
          "velocity": 0.84251968503937,
          "duration": 0.07142862500001002
        },
        {
          "name": "F#2",
          "midi": 42,
          "time": 193.1430020000032,
          "velocity": 0.6771653543307087,
          "duration": 0.05714290000000233
        },
        {
          "name": "D2",
          "midi": 38,
          "time": 193.42871650000322,
          "velocity": 0.7874015748031497,
          "duration": 0.2714287750000324
        },
        {
          "name": "D3",
          "midi": 50,
          "time": 193.42871650000322,
          "velocity": 0.6141732283464567,
          "duration": 0.11904770833334055
        },
        {
          "name": "C2",
          "midi": 36,
          "time": 193.42871650000322,
          "velocity": 0.84251968503937,
          "duration": 0.28571450000004006
        },
        {
          "name": "F#2",
          "midi": 42,
          "time": 193.42871650000322,
          "velocity": 0.6771653543307087,
          "duration": 0.047619083333330536
        },
        {
          "name": "F#5",
          "midi": 78,
          "time": 193.71443100000326,
          "velocity": 0.7244094488188977,
          "duration": 0.5714290000000517
        },
        {
          "name": "A1",
          "midi": 33,
          "time": 193.71443100000326,
          "velocity": 0.7874015748031497,
          "duration": 0.26190495833333216
        },
        {
          "name": "D4",
          "midi": 62,
          "time": 193.71443100000326,
          "velocity": 0.7007874015748031,
          "duration": 0.4047622083333522
        },
        {
          "name": "D2",
          "midi": 38,
          "time": 193.71443100000326,
          "velocity": 0.7716535433070866,
          "duration": 0.07142862500001002
        },
        {
          "name": "F#2",
          "midi": 42,
          "time": 193.71443100000326,
          "velocity": 0.6771653543307087,
          "duration": 0.047619083333330536
        },
        {
          "name": "D2",
          "midi": 38,
          "time": 194.00014550000327,
          "velocity": 0.7874015748031497,
          "duration": 0.19047633333335057
        },
        {
          "name": "D4",
          "midi": 62,
          "time": 194.00014550000327,
          "velocity": 0.48031496062992124,
          "duration": 0.20000015000002236
        },
        {
          "name": "C2",
          "midi": 36,
          "time": 194.00014550000327,
          "velocity": 0.84251968503937,
          "duration": 0.07142862500001002
        },
        {
          "name": "F#2",
          "midi": 42,
          "time": 194.00014550000327,
          "velocity": 0.6771653543307087,
          "duration": 0.047619083333330536
        },
        {
          "name": "G5",
          "midi": 79,
          "time": 194.2858600000033,
          "velocity": 0.7244094488188977,
          "duration": 2.809525916666786
        },
        {
          "name": "G1",
          "midi": 31,
          "time": 194.2858600000033,
          "velocity": 0.7874015748031497,
          "duration": 0.6047623583333461
        },
        {
          "name": "D3",
          "midi": 50,
          "time": 194.2858600000033,
          "velocity": 0.6850393700787402,
          "duration": 0.11904770833334055
        },
        {
          "name": "G3",
          "midi": 55,
          "time": 194.2858600000033,
          "velocity": 0.7952755905511811,
          "duration": 0.11904770833334055
        },
        {
          "name": "B3",
          "midi": 59,
          "time": 194.2858600000033,
          "velocity": 0.8661417322834646,
          "duration": 0.11904770833334055
        },
        {
          "name": "D2",
          "midi": 38,
          "time": 194.2858600000033,
          "velocity": 0.3700787401574803,
          "duration": 0.11904770833334055
        },
        {
          "name": "C2",
          "midi": 36,
          "time": 194.2858600000033,
          "velocity": 0.84251968503937,
          "duration": 0.5714290000000233
        },
        {
          "name": "F#2",
          "midi": 42,
          "time": 194.2858600000033,
          "velocity": 0.6771653543307087,
          "duration": 0.047619083333330536
        },
        {
          "name": "A3",
          "midi": 57,
          "time": 194.2858600000033,
          "velocity": 0.5039370078740157,
          "duration": 1.8190489833334027
        },
        {
          "name": "F#2",
          "midi": 42,
          "time": 194.57157450000332,
          "velocity": 0.6771653543307087,
          "duration": 0.047619083333330536
        },
        {
          "name": "D4",
          "midi": 62,
          "time": 194.7144317500033,
          "velocity": 0.84251968503937,
          "duration": 0.11904770833334055
        },
        {
          "name": "B3",
          "midi": 59,
          "time": 194.7144317500033,
          "velocity": 0.7716535433070866,
          "duration": 0.11904770833334055
        },
        {
          "name": "G3",
          "midi": 55,
          "time": 194.7144317500033,
          "velocity": 0.5590551181102362,
          "duration": 0.11904770833334055
        },
        {
          "name": "D3",
          "midi": 50,
          "time": 194.85728900000333,
          "velocity": 0.6299212598425197,
          "duration": 0.11904770833334055
        },
        {
          "name": "G3",
          "midi": 55,
          "time": 194.85728900000333,
          "velocity": 0.6850393700787402,
          "duration": 0.11904770833334055
        },
        {
          "name": "B3",
          "midi": 59,
          "time": 194.85728900000333,
          "velocity": 0.6850393700787402,
          "duration": 0.11904770833334055
        },
        {
          "name": "D4",
          "midi": 62,
          "time": 194.85728900000333,
          "velocity": 0.5826771653543307,
          "duration": 0.11904770833334055
        },
        {
          "name": "D2",
          "midi": 38,
          "time": 194.85728900000333,
          "velocity": 0.7716535433070866,
          "duration": 0.047619083333330536
        },
        {
          "name": "F#2",
          "midi": 42,
          "time": 194.85728900000333,
          "velocity": 0.6771653543307087,
          "duration": 0.07142862500001002
        },
        {
          "name": "G1",
          "midi": 31,
          "time": 195.14300350000335,
          "velocity": 0.7874015748031497,
          "duration": 0.047619083333330536
        },
        {
          "name": "G3",
          "midi": 55,
          "time": 195.14300350000335,
          "velocity": 0.7086614173228346,
          "duration": 0.11904770833334055
        },
        {
          "name": "B3",
          "midi": 59,
          "time": 195.14300350000335,
          "velocity": 0.8818897637795275,
          "duration": 0.11904770833334055
        },
        {
          "name": "D4",
          "midi": 62,
          "time": 195.14300350000335,
          "velocity": 0.6456692913385826,
          "duration": 0.11904770833334055
        },
        {
          "name": "B4",
          "midi": 71,
          "time": 195.14300350000335,
          "velocity": 0.4881889763779528,
          "duration": 0.19047633333335057
        },
        {
          "name": "D5",
          "midi": 74,
          "time": 195.14300350000335,
          "velocity": 0.6692913385826772,
          "duration": 0.2380954166666811
        },
        {
          "name": "B3",
          "midi": 59,
          "time": 195.14300350000335,
          "velocity": 0.8267716535433071,
          "duration": 0.2380954166666811
        },
        {
          "name": "G3",
          "midi": 55,
          "time": 195.14300350000335,
          "velocity": 0.7244094488188977,
          "duration": 0.2380954166666811
        },
        {
          "name": "C2",
          "midi": 36,
          "time": 195.14300350000335,
          "velocity": 0.84251968503937,
          "duration": 0.05714290000000233
        },
        {
          "name": "D2",
          "midi": 38,
          "time": 195.14300350000335,
          "velocity": 0.7716535433070866,
          "duration": 0.05714290000000233
        },
        {
          "name": "F#2",
          "midi": 42,
          "time": 195.14300350000335,
          "velocity": 0.6771653543307087,
          "duration": 0.05714290000000233
        },
        {
          "name": "B5",
          "midi": 83,
          "time": 195.28586075000337,
          "velocity": 0.6535433070866141,
          "duration": 0.24761923333332447
        },
        {
          "name": "G1",
          "midi": 31,
          "time": 195.42871800000336,
          "velocity": 0.7874015748031497,
          "duration": 0.047619083333330536
        },
        {
          "name": "B4",
          "midi": 71,
          "time": 195.42871800000336,
          "velocity": 0.6929133858267716,
          "duration": 0.20000014999999394
        },
        {
          "name": "B3",
          "midi": 59,
          "time": 195.42871800000336,
          "velocity": 0.889763779527559,
          "duration": 0.3904764833333161
        },
        {
          "name": "G3",
          "midi": 55,
          "time": 195.42871800000336,
          "velocity": 0.7086614173228346,
          "duration": 0.3904764833333161
        },
        {
          "name": "C2",
          "midi": 36,
          "time": 195.42871800000336,
          "velocity": 0.84251968503937,
          "duration": 0.07142862500001002
        },
        {
          "name": "F#2",
          "midi": 42,
          "time": 195.42871800000336,
          "velocity": 0.6771653543307087,
          "duration": 0.05714290000000233
        },
        {
          "name": "D5",
          "midi": 74,
          "time": 195.57157525000335,
          "velocity": 0.5039370078740157,
          "duration": 0.24761923333332447
        },
        {
          "name": "B5",
          "midi": 83,
          "time": 195.57157525000335,
          "velocity": 0.7244094488188977,
          "duration": 0.27142877500000395
        },
        {
          "name": "G1",
          "midi": 31,
          "time": 195.71443250000334,
          "velocity": 0.7874015748031497,
          "duration": 0.2714287750000324
        },
        {
          "name": "D3",
          "midi": 50,
          "time": 195.71443250000334,
          "velocity": 0.7952755905511811,
          "duration": 0.11904770833334055
        },
        {
          "name": "G3",
          "midi": 55,
          "time": 195.71443250000334,
          "velocity": 0.7086614173228346,
          "duration": 0.11904770833334055
        },
        {
          "name": "C2",
          "midi": 36,
          "time": 195.71443250000334,
          "velocity": 0.84251968503937,
          "duration": 0.28571450000004006
        },
        {
          "name": "F#2",
          "midi": 42,
          "time": 195.71443250000334,
          "velocity": 0.6771653543307087,
          "duration": 0.047619083333330536
        },
        {
          "name": "B4",
          "midi": 71,
          "time": 195.85728975000336,
          "velocity": 0.6535433070866141,
          "duration": 0.20000015000002236
        },
        {
          "name": "D5",
          "midi": 74,
          "time": 195.85728975000336,
          "velocity": 0.5196850393700787,
          "duration": 0.28571450000004006
        },
        {
          "name": "B1",
          "midi": 35,
          "time": 196.00014700000338,
          "velocity": 0.7874015748031497,
          "duration": 0.2619049583333606
        },
        {
          "name": "G3",
          "midi": 55,
          "time": 196.00014700000338,
          "velocity": 0.8110236220472441,
          "duration": 0.11904770833334055
        },
        {
          "name": "B3",
          "midi": 59,
          "time": 196.00014700000338,
          "velocity": 0.8976377952755905,
          "duration": 0.11904770833334055
        },
        {
          "name": "D4",
          "midi": 62,
          "time": 196.00014700000338,
          "velocity": 0.6141732283464567,
          "duration": 0.11904770833334055
        },
        {
          "name": "B5",
          "midi": 83,
          "time": 196.00014700000338,
          "velocity": 0.7874015748031497,
          "duration": 0.2714287750000324
        },
        {
          "name": "B3",
          "midi": 59,
          "time": 196.00014700000338,
          "velocity": 0.8110236220472441,
          "duration": 0.22380969166670184
        },
        {
          "name": "G3",
          "midi": 55,
          "time": 196.00014700000338,
          "velocity": 0.7244094488188977,
          "duration": 0.21428587500003005
        },
        {
          "name": "D2",
          "midi": 38,
          "time": 196.00014700000338,
          "velocity": 0.7716535433070866,
          "duration": 0.07142862500001002
        },
        {
          "name": "F#2",
          "midi": 42,
          "time": 196.00014700000338,
          "velocity": 0.6771653543307087,
          "duration": 0.047619083333330536
        },
        {
          "name": "D2",
          "midi": 38,
          "time": 196.28586150000342,
          "velocity": 0.7874015748031497,
          "duration": 0.27142877500000395
        },
        {
          "name": "B3",
          "midi": 59,
          "time": 196.28586150000342,
          "velocity": 0.7637795275590551,
          "duration": 0.11904770833334055
        },
        {
          "name": "G3",
          "midi": 55,
          "time": 196.28586150000342,
          "velocity": 0.6299212598425197,
          "duration": 0.11904770833334055
        },
        {
          "name": "B4",
          "midi": 71,
          "time": 196.28586150000342,
          "velocity": 0.5826771653543307,
          "duration": 0.19047633333335057
        },
        {
          "name": "D5",
          "midi": 74,
          "time": 196.28586150000342,
          "velocity": 0.5118110236220472,
          "duration": 0.22380969166667342
        },
        {
          "name": "B5",
          "midi": 83,
          "time": 196.28586150000342,
          "velocity": 0.8110236220472441,
          "duration": 0.22380969166667342
        },
        {
          "name": "A3",
          "midi": 57,
          "time": 196.28586150000342,
          "velocity": 0.6771653543307087,
          "duration": 0.4619051083333545
        },
        {
          "name": "F#3",
          "midi": 54,
          "time": 196.28586150000342,
          "velocity": 0.6614173228346457,
          "duration": 0.42857175000003167
        },
        {
          "name": "C2",
          "midi": 36,
          "time": 196.28586150000342,
          "velocity": 0.84251968503937,
          "duration": 0.07142862500001002
        },
        {
          "name": "F#2",
          "midi": 42,
          "time": 196.28586150000342,
          "velocity": 0.6771653543307087,
          "duration": 0.047619083333330536
        },
        {
          "name": "G1",
          "midi": 31,
          "time": 196.57157600000343,
          "velocity": 0.7874015748031497,
          "duration": 0.5809528166666951
        },
        {
          "name": "D3",
          "midi": 50,
          "time": 196.57157600000343,
          "velocity": 0.6850393700787402,
          "duration": 0.11904770833334055
        },
        {
          "name": "G3",
          "midi": 55,
          "time": 196.57157600000343,
          "velocity": 0.7952755905511811,
          "duration": 0.11904770833334055
        },
        {
          "name": "B3",
          "midi": 59,
          "time": 196.57157600000343,
          "velocity": 0.8661417322834646,
          "duration": 0.11904770833334055
        },
        {
          "name": "D2",
          "midi": 38,
          "time": 196.57157600000343,
          "velocity": 0.3700787401574803,
          "duration": 0.11904770833334055
        },
        {
          "name": "B4",
          "midi": 71,
          "time": 196.57157600000343,
          "velocity": 0.6535433070866141,
          "duration": 0.3190478583333345
        },
        {
          "name": "D5",
          "midi": 74,
          "time": 196.57157600000343,
          "velocity": 0.5590551181102362,
          "duration": 0.34285740000001397
        },
        {
          "name": "C2",
          "midi": 36,
          "time": 196.57157600000343,
          "velocity": 0.84251968503937,
          "duration": 0.5714290000000233
        },
        {
          "name": "F#2",
          "midi": 42,
          "time": 196.57157600000343,
          "velocity": 0.6771653543307087,
          "duration": 0.047619083333330536
        },
        {
          "name": "B5",
          "midi": 83,
          "time": 196.71443325000345,
          "velocity": 0.7874015748031497,
          "duration": 0.34285739999998555
        },
        {
          "name": "G3",
          "midi": 55,
          "time": 196.85729050000344,
          "velocity": 0.7244094488188977,
          "duration": 0.26190495833333216
        },
        {
          "name": "B3",
          "midi": 59,
          "time": 196.85729050000344,
          "velocity": 0.7952755905511811,
          "duration": 0.26190495833333216
        },
        {
          "name": "F#2",
          "midi": 42,
          "time": 196.85729050000344,
          "velocity": 0.6771653543307087,
          "duration": 0.047619083333330536
        },
        {
          "name": "D4",
          "midi": 62,
          "time": 197.00014775000344,
          "velocity": 0.84251968503937,
          "duration": 0.11904770833334055
        },
        {
          "name": "B3",
          "midi": 59,
          "time": 197.00014775000344,
          "velocity": 0.7716535433070866,
          "duration": 0.2619049583333606
        },
        {
          "name": "G3",
          "midi": 55,
          "time": 197.00014775000344,
          "velocity": 0.5590551181102362,
          "duration": 0.2619049583333606
        },
        {
          "name": "B4",
          "midi": 71,
          "time": 197.00014775000344,
          "velocity": 0.7244094488188977,
          "duration": 0.19047633333335057
        },
        {
          "name": "D5",
          "midi": 74,
          "time": 197.00014775000344,
          "velocity": 0.5433070866141733,
          "duration": 0.2476192333333529
        },
        {
          "name": "D3",
          "midi": 50,
          "time": 197.14300500000346,
          "velocity": 0.6299212598425197,
          "duration": 0.11904770833334055
        },
        {
          "name": "G3",
          "midi": 55,
          "time": 197.14300500000346,
          "velocity": 0.6850393700787402,
          "duration": 0.4047622083333522
        },
        {
          "name": "B3",
          "midi": 59,
          "time": 197.14300500000346,
          "velocity": 0.6850393700787402,
          "duration": 0.4047622083333522
        },
        {
          "name": "D4",
          "midi": 62,
          "time": 197.14300500000346,
          "velocity": 0.5826771653543307,
          "duration": 0.11904770833334055
        },
        {
          "name": "B5",
          "midi": 83,
          "time": 197.14300500000346,
          "velocity": 0.7874015748031497,
          "duration": 0.26190495833333216
        },
        {
          "name": "D2",
          "midi": 38,
          "time": 197.14300500000346,
          "velocity": 0.7716535433070866,
          "duration": 0.047619083333330536
        },
        {
          "name": "F#2",
          "midi": 42,
          "time": 197.14300500000346,
          "velocity": 0.6771653543307087,
          "duration": 0.07142862500001002
        },
        {
          "name": "G1",
          "midi": 31,
          "time": 197.42871950000347,
          "velocity": 0.7874015748031497,
          "duration": 0.05714290000000233
        },
        {
          "name": "G3",
          "midi": 55,
          "time": 197.42871950000347,
          "velocity": 0.7086614173228346,
          "duration": 0.6904767083333638
        },
        {
          "name": "B3",
          "midi": 59,
          "time": 197.42871950000347,
          "velocity": 0.8818897637795275,
          "duration": 0.9761912083333755
        },
        {
          "name": "D4",
          "midi": 62,
          "time": 197.42871950000347,
          "velocity": 0.6456692913385826,
          "duration": 0.11904770833334055
        },
        {
          "name": "B4",
          "midi": 71,
          "time": 197.42871950000347,
          "velocity": 0.6614173228346457,
          "duration": 1.4142867750000505
        },
        {
          "name": "D5",
          "midi": 74,
          "time": 197.42871950000347,
          "velocity": 0.5118110236220472,
          "duration": 1.3571438750000482
        },
        {
          "name": "B5",
          "midi": 83,
          "time": 197.42871950000347,
          "velocity": 0.7716535433070866,
          "duration": 1.29523906666671
        },
        {
          "name": "C2",
          "midi": 36,
          "time": 197.42871950000347,
          "velocity": 0.84251968503937,
          "duration": 0.05714290000000233
        },
        {
          "name": "D2",
          "midi": 38,
          "time": 197.42871950000347,
          "velocity": 0.7716535433070866,
          "duration": 0.05714290000000233
        },
        {
          "name": "F#2",
          "midi": 42,
          "time": 197.42871950000347,
          "velocity": 0.6771653543307087,
          "duration": 0.05714290000000233
        },
        {
          "name": "G1",
          "midi": 31,
          "time": 197.71443400000348,
          "velocity": 0.7874015748031497,
          "duration": 0.047619083333330536
        },
        {
          "name": "C2",
          "midi": 36,
          "time": 197.71443400000348,
          "velocity": 0.84251968503937,
          "duration": 0.07142862500001002
        },
        {
          "name": "F#2",
          "midi": 42,
          "time": 197.71443400000348,
          "velocity": 0.6771653543307087,
          "duration": 0.05714290000000233
        },
        {
          "name": "G1",
          "midi": 31,
          "time": 198.0001485000035,
          "velocity": 0.7874015748031497,
          "duration": 0.26190495833333216
        },
        {
          "name": "D3",
          "midi": 50,
          "time": 198.0001485000035,
          "velocity": 0.7952755905511811,
          "duration": 0.11904770833334055
        },
        {
          "name": "G3",
          "midi": 55,
          "time": 198.0001485000035,
          "velocity": 0.7086614173228346,
          "duration": 0.4047622083333522
        },
        {
          "name": "C2",
          "midi": 36,
          "time": 198.0001485000035,
          "velocity": 0.84251968503937,
          "duration": 0.28571450000001164
        },
        {
          "name": "F#2",
          "midi": 42,
          "time": 198.0001485000035,
          "velocity": 0.6771653543307087,
          "duration": 0.047619083333330536
        },
        {
          "name": "B1",
          "midi": 35,
          "time": 198.2858630000035,
          "velocity": 0.7874015748031497,
          "duration": 0.26190495833333216
        },
        {
          "name": "G3",
          "midi": 55,
          "time": 198.2858630000035,
          "velocity": 0.8110236220472441,
          "duration": 0.4047622083333522
        },
        {
          "name": "B3",
          "midi": 59,
          "time": 198.2858630000035,
          "velocity": 0.8976377952755905,
          "duration": 0.4047622083333522
        },
        {
          "name": "D4",
          "midi": 62,
          "time": 198.2858630000035,
          "velocity": 0.6141732283464567,
          "duration": 0.11904770833334055
        },
        {
          "name": "D2",
          "midi": 38,
          "time": 198.2858630000035,
          "velocity": 0.7716535433070866,
          "duration": 0.07142862500001002
        },
        {
          "name": "F#2",
          "midi": 42,
          "time": 198.2858630000035,
          "velocity": 0.6771653543307087,
          "duration": 0.047619083333330536
        },
        {
          "name": "D2",
          "midi": 38,
          "time": 198.5715775000035,
          "velocity": 0.7874015748031497,
          "duration": 0.27142877500000395
        },
        {
          "name": "B3",
          "midi": 59,
          "time": 198.5715775000035,
          "velocity": 0.7637795275590551,
          "duration": 0.27142877500000395
        },
        {
          "name": "G3",
          "midi": 55,
          "time": 198.5715775000035,
          "velocity": 0.6299212598425197,
          "duration": 0.3095240416666911
        },
        {
          "name": "C2",
          "midi": 36,
          "time": 198.5715775000035,
          "velocity": 0.84251968503937,
          "duration": 0.07142862500001002
        },
        {
          "name": "F#2",
          "midi": 42,
          "time": 198.5715775000035,
          "velocity": 0.6771653543307087,
          "duration": 0.047619083333330536
        },
        {
          "name": "E2",
          "midi": 40,
          "time": 198.85729200000353,
          "velocity": 0.7874015748031497,
          "duration": 0.6904767083333923
        },
        {
          "name": "E3",
          "midi": 52,
          "time": 198.85729200000353,
          "velocity": 0.7401574803149606,
          "duration": 0.11904770833336897
        },
        {
          "name": "B2",
          "midi": 47,
          "time": 198.85729200000353,
          "velocity": 0.7086614173228346,
          "duration": 0.11904770833336897
        },
        {
          "name": "G3",
          "midi": 55,
          "time": 198.85729200000353,
          "velocity": 0.7952755905511811,
          "duration": 0.11904770833336897
        },
        {
          "name": "B3",
          "midi": 59,
          "time": 198.85729200000353,
          "velocity": 0.8031496062992126,
          "duration": 0.11904770833336897
        },
        {
          "name": "E4",
          "midi": 64,
          "time": 198.85729200000353,
          "velocity": 0.7795275590551181,
          "duration": 0.11904770833336897
        },
        {
          "name": "C2",
          "midi": 36,
          "time": 198.85729200000353,
          "velocity": 0.84251968503937,
          "duration": 0.5714290000000517
        },
        {
          "name": "F#2",
          "midi": 42,
          "time": 198.85729200000353,
          "velocity": 0.6771653543307087,
          "duration": 0.04761908333335896
        },
        {
          "name": "F#2",
          "midi": 42,
          "time": 199.14300650000357,
          "velocity": 0.6771653543307087,
          "duration": 0.047619083333330536
        },
        {
          "name": "E4",
          "midi": 64,
          "time": 199.28586375000356,
          "velocity": 0.7952755905511811,
          "duration": 0.11904770833334055
        },
        {
          "name": "B3",
          "midi": 59,
          "time": 199.28586375000356,
          "velocity": 0.7086614173228346,
          "duration": 0.11904770833334055
        },
        {
          "name": "G3",
          "midi": 55,
          "time": 199.28586375000356,
          "velocity": 0.5905511811023622,
          "duration": 0.11904770833334055
        },
        {
          "name": "E2",
          "midi": 40,
          "time": 199.42872100000358,
          "velocity": 0.6299212598425197,
          "duration": 0.27142877500000395
        },
        {
          "name": "B2",
          "midi": 47,
          "time": 199.42872100000358,
          "velocity": 0.7086614173228346,
          "duration": 0.11904770833334055
        },
        {
          "name": "E3",
          "midi": 52,
          "time": 199.42872100000358,
          "velocity": 0.8661417322834646,
          "duration": 0.11904770833334055
        },
        {
          "name": "G3",
          "midi": 55,
          "time": 199.42872100000358,
          "velocity": 0.8740157480314961,
          "duration": 0.11904770833334055
        },
        {
          "name": "B3",
          "midi": 59,
          "time": 199.42872100000358,
          "velocity": 0.8661417322834646,
          "duration": 0.11904770833334055
        },
        {
          "name": "E4",
          "midi": 64,
          "time": 199.42872100000358,
          "velocity": 0.7874015748031497,
          "duration": 0.11904770833334055
        },
        {
          "name": "D2",
          "midi": 38,
          "time": 199.42872100000358,
          "velocity": 0.7716535433070866,
          "duration": 0.047619083333330536
        },
        {
          "name": "F#2",
          "midi": 42,
          "time": 199.42872100000358,
          "velocity": 0.6771653543307087,
          "duration": 0.07142862500001002
        },
        {
          "name": "B1",
          "midi": 35,
          "time": 199.7144355000036,
          "velocity": 0.7874015748031497,
          "duration": 0.28571450000004006
        },
        {
          "name": "G3",
          "midi": 55,
          "time": 199.7144355000036,
          "velocity": 0.9291338582677166,
          "duration": 0.11904770833334055
        },
        {
          "name": "B3",
          "midi": 59,
          "time": 199.7144355000036,
          "velocity": 0.9606299212598425,
          "duration": 0.11904770833334055
        },
        {
          "name": "E4",
          "midi": 64,
          "time": 199.7144355000036,
          "velocity": 0.8818897637795275,
          "duration": 0.11904770833334055
        },
        {
          "name": "B4",
          "midi": 71,
          "time": 199.7144355000036,
          "velocity": 0.6299212598425197,
          "duration": 0.2476192333333529
        },
        {
          "name": "E5",
          "midi": 76,
          "time": 199.7144355000036,
          "velocity": 0.7086614173228346,
          "duration": 0.2476192333333529
        },
        {
          "name": "B5",
          "midi": 83,
          "time": 199.7144355000036,
          "velocity": 0.7244094488188977,
          "duration": 0.2619049583333606
        },
        {
          "name": "B3",
          "midi": 59,
          "time": 199.7144355000036,
          "velocity": 0.6929133858267716,
          "duration": 0.2476192333333529
        },
        {
          "name": "G3",
          "midi": 55,
          "time": 199.7144355000036,
          "velocity": 0.7322834645669292,
          "duration": 0.2380954166666811
        },
        {
          "name": "C2",
          "midi": 36,
          "time": 199.7144355000036,
          "velocity": 0.84251968503937,
          "duration": 0.05714290000000233
        },
        {
          "name": "D2",
          "midi": 38,
          "time": 199.7144355000036,
          "velocity": 0.7716535433070866,
          "duration": 0.05714290000000233
        },
        {
          "name": "F#2",
          "midi": 42,
          "time": 199.7144355000036,
          "velocity": 0.6771653543307087,
          "duration": 0.05714290000000233
        },
        {
          "name": "E2",
          "midi": 40,
          "time": 200.00015000000363,
          "velocity": 0.7874015748031497,
          "duration": 0.05714290000000233
        },
        {
          "name": "B4",
          "midi": 71,
          "time": 200.00015000000363,
          "velocity": 0.5433070866141733,
          "duration": 0.2714287750000324
        },
        {
          "name": "E5",
          "midi": 76,
          "time": 200.00015000000363,
          "velocity": 0.6535433070866141,
          "duration": 0.2476192333333529
        },
        {
          "name": "G3",
          "midi": 55,
          "time": 200.00015000000363,
          "velocity": 0.8110236220472441,
          "duration": 0.4285717500000601
        },
        {
          "name": "B3",
          "midi": 59,
          "time": 200.00015000000363,
          "velocity": 0.7795275590551181,
          "duration": 0.4380955666667319
        },
        {
          "name": "C2",
          "midi": 36,
          "time": 200.00015000000363,
          "velocity": 0.84251968503937,
          "duration": 0.07142862500001002
        },
        {
          "name": "F#2",
          "midi": 42,
          "time": 200.00015000000363,
          "velocity": 0.6771653543307087,
          "duration": 0.05714290000000233
        },
        {
          "name": "B5",
          "midi": 83,
          "time": 200.14300725000365,
          "velocity": 0.6614173228346457,
          "duration": 0.2476192333333529
        },
        {
          "name": "E2",
          "midi": 40,
          "time": 200.28586450000367,
          "velocity": 0.7874015748031497,
          "duration": 0.11904770833334055
        },
        {
          "name": "E2",
          "midi": 40,
          "time": 200.28586450000367,
          "velocity": 0.8110236220472441,
          "duration": 0.5571432750000724
        },
        {
          "name": "B2",
          "midi": 47,
          "time": 200.28586450000367,
          "velocity": 0.8740157480314961,
          "duration": 0.11904770833334055
        },
        {
          "name": "E3",
          "midi": 52,
          "time": 200.28586450000367,
          "velocity": 0.7244094488188977,
          "duration": 0.11904770833334055
        },
        {
          "name": "C2",
          "midi": 36,
          "time": 200.28586450000367,
          "velocity": 0.84251968503937,
          "duration": 0.28571450000001164
        },
        {
          "name": "F#2",
          "midi": 42,
          "time": 200.28586450000367,
          "velocity": 0.6771653543307087,
          "duration": 0.047619083333330536
        },
        {
          "name": "B4",
          "midi": 71,
          "time": 200.4287217500037,
          "velocity": 0.5984251968503937,
          "duration": 0.19047633333335057
        },
        {
          "name": "E5",
          "midi": 76,
          "time": 200.4287217500037,
          "velocity": 0.7086614173228346,
          "duration": 0.1666667916666711
        },
        {
          "name": "B5",
          "midi": 83,
          "time": 200.4287217500037,
          "velocity": 0.8346456692913385,
          "duration": 0.22380969166670184
        },
        {
          "name": "E3",
          "midi": 52,
          "time": 200.57157900000368,
          "velocity": 0.8346456692913385,
          "duration": 0.11904770833336897
        },
        {
          "name": "G3",
          "midi": 55,
          "time": 200.57157900000368,
          "velocity": 0.8818897637795275,
          "duration": 0.11904770833336897
        },
        {
          "name": "B3",
          "midi": 59,
          "time": 200.57157900000368,
          "velocity": 0.9291338582677166,
          "duration": 0.11904770833336897
        },
        {
          "name": "E4",
          "midi": 64,
          "time": 200.57157900000368,
          "velocity": 0.9291338582677166,
          "duration": 0.11904770833336897
        },
        {
          "name": "B3",
          "midi": 59,
          "time": 200.57157900000368,
          "velocity": 0.8267716535433071,
          "duration": 0.21428587500005847
        },
        {
          "name": "G3",
          "midi": 55,
          "time": 200.57157900000368,
          "velocity": 0.8661417322834646,
          "duration": 0.190476333333379
        },
        {
          "name": "D2",
          "midi": 38,
          "time": 200.57157900000368,
          "velocity": 0.7716535433070866,
          "duration": 0.07142862500003844
        },
        {
          "name": "F#2",
          "midi": 42,
          "time": 200.57157900000368,
          "velocity": 0.6771653543307087,
          "duration": 0.04761908333335896
        },
        {
          "name": "B1",
          "midi": 35,
          "time": 200.85729350000375,
          "velocity": 0.7874015748031497,
          "duration": 0.2714287750000324
        },
        {
          "name": "D#2",
          "midi": 39,
          "time": 200.85729350000375,
          "velocity": 0.3700787401574803,
          "duration": 0.11904770833334055
        },
        {
          "name": "B3",
          "midi": 59,
          "time": 200.85729350000375,
          "velocity": 0.7007874015748031,
          "duration": 0.11904770833334055
        },
        {
          "name": "E4",
          "midi": 64,
          "time": 200.85729350000375,
          "velocity": 0.5826771653543307,
          "duration": 0.11904770833334055
        },
        {
          "name": "B5",
          "midi": 83,
          "time": 200.85729350000375,
          "velocity": 0.48031496062992124,
          "duration": 0.29047640833337596
        },
        {
          "name": "D5",
          "midi": 74,
          "time": 200.85729350000375,
          "velocity": 0.7559055118110236,
          "duration": 0.2476192333333529
        },
        {
          "name": "B4",
          "midi": 71,
          "time": 200.85729350000375,
          "velocity": 0.6614173228346457,
          "duration": 0.2380954166666811
        },
        {
          "name": "F#3",
          "midi": 54,
          "time": 200.85729350000375,
          "velocity": 0.7480314960629921,
          "duration": 0.4142860250000524
        },
        {
          "name": "A3",
          "midi": 57,
          "time": 200.85729350000375,
          "velocity": 0.7322834645669292,
          "duration": 0.45238129166671115
        },
        {
          "name": "C2",
          "midi": 36,
          "time": 200.85729350000375,
          "velocity": 0.84251968503937,
          "duration": 0.07142862500001002
        },
        {
          "name": "F#2",
          "midi": 42,
          "time": 200.85729350000375,
          "velocity": 0.6771653543307087,
          "duration": 0.047619083333330536
        },
        {
          "name": "E2",
          "midi": 40,
          "time": 201.1430080000038,
          "velocity": 0.7874015748031497,
          "duration": 0.8666673166667636
        },
        {
          "name": "B3",
          "midi": 59,
          "time": 201.1430080000038,
          "velocity": 0.7401574803149606,
          "duration": 0.11904770833334055
        },
        {
          "name": "E4",
          "midi": 64,
          "time": 201.1430080000038,
          "velocity": 0.7244094488188977,
          "duration": 0.11904770833334055
        },
        {
          "name": "G3",
          "midi": 55,
          "time": 201.1430080000038,
          "velocity": 0.6850393700787402,
          "duration": 0.11904770833334055
        },
        {
          "name": "B5",
          "midi": 83,
          "time": 201.1430080000038,
          "velocity": 0.6535433070866141,
          "duration": 0.3571431250000501
        },
        {
          "name": "B4",
          "midi": 71,
          "time": 201.1430080000038,
          "velocity": 0.7559055118110236,
          "duration": 0.3095240416666911
        },
        {
          "name": "D5",
          "midi": 74,
          "time": 201.1430080000038,
          "velocity": 0.8582677165354331,
          "duration": 0.28571450000001164
        },
        {
          "name": "C2",
          "midi": 36,
          "time": 201.1430080000038,
          "velocity": 0.84251968503937,
          "duration": 0.5714290000000801
        },
        {
          "name": "F#2",
          "midi": 42,
          "time": 201.1430080000038,
          "velocity": 0.6771653543307087,
          "duration": 0.047619083333330536
        },
        {
          "name": "B3",
          "midi": 59,
          "time": 201.4287225000038,
          "velocity": 0.6062992125984252,
          "duration": 0.11904770833336897
        },
        {
          "name": "E4",
          "midi": 64,
          "time": 201.4287225000038,
          "velocity": 0.5826771653543307,
          "duration": 0.11904770833336897
        },
        {
          "name": "G3",
          "midi": 55,
          "time": 201.4287225000038,
          "velocity": 0.7322834645669292,
          "duration": 1.8666680666668185
        },
        {
          "name": "B3",
          "midi": 59,
          "time": 201.4287225000038,
          "velocity": 0.7795275590551181,
          "duration": 0.261904958333389
        },
        {
          "name": "F#2",
          "midi": 42,
          "time": 201.4287225000038,
          "velocity": 0.6771653543307087,
          "duration": 0.04761908333335896
        },
        {
          "name": "E4",
          "midi": 64,
          "time": 201.57157975000385,
          "velocity": 0.7401574803149606,
          "duration": 0.11904770833334055
        },
        {
          "name": "B3",
          "midi": 59,
          "time": 201.57157975000385,
          "velocity": 0.5826771653543307,
          "duration": 0.2619049583333606
        },
        {
          "name": "E5",
          "midi": 76,
          "time": 201.57157975000385,
          "velocity": 0.7244094488188977,
          "duration": 0.3095240416666911
        },
        {
          "name": "B4",
          "midi": 71,
          "time": 201.57157975000385,
          "velocity": 0.7086614173228346,
          "duration": 0.29523831666668343
        },
        {
          "name": "B5",
          "midi": 83,
          "time": 201.57157975000385,
          "velocity": 0.7086614173228346,
          "duration": 0.3190478583333629
        },
        {
          "name": "B3",
          "midi": 59,
          "time": 201.71443700000387,
          "velocity": 0.7086614173228346,
          "duration": 0.4047622083333522
        },
        {
          "name": "E4",
          "midi": 64,
          "time": 201.71443700000387,
          "velocity": 0.7401574803149606,
          "duration": 0.11904770833334055
        },
        {
          "name": "D2",
          "midi": 38,
          "time": 201.71443700000387,
          "velocity": 0.7716535433070866,
          "duration": 0.047619083333330536
        },
        {
          "name": "F#2",
          "midi": 42,
          "time": 201.71443700000387,
          "velocity": 0.6771653543307087,
          "duration": 0.07142862500001002
        },
        {
          "name": "B1",
          "midi": 35,
          "time": 202.00015150000388,
          "velocity": 0.7874015748031497,
          "duration": 0.27142877500000395
        },
        {
          "name": "E3",
          "midi": 52,
          "time": 202.00015150000388,
          "velocity": 0.6141732283464567,
          "duration": 0.11904770833334055
        },
        {
          "name": "B3",
          "midi": 59,
          "time": 202.00015150000388,
          "velocity": 0.7401574803149606,
          "duration": 0.9761912083333755
        },
        {
          "name": "E4",
          "midi": 64,
          "time": 202.00015150000388,
          "velocity": 0.7559055118110236,
          "duration": 0.11904770833334055
        },
        {
          "name": "B5",
          "midi": 83,
          "time": 202.00015150000388,
          "velocity": 0.6771653543307087,
          "duration": 1.000000750000055
        },
        {
          "name": "B4",
          "midi": 71,
          "time": 202.00015150000388,
          "velocity": 0.8346456692913385,
          "duration": 0.9857150250000473
        },
        {
          "name": "D5",
          "midi": 74,
          "time": 202.00015150000388,
          "velocity": 0.5748031496062992,
          "duration": 0.02380954166667948
        },
        {
          "name": "C2",
          "midi": 36,
          "time": 202.00015150000388,
          "velocity": 0.84251968503937,
          "duration": 0.05714290000000233
        },
        {
          "name": "D2",
          "midi": 38,
          "time": 202.00015150000388,
          "velocity": 0.7716535433070866,
          "duration": 0.05714290000000233
        },
        {
          "name": "F#2",
          "midi": 42,
          "time": 202.00015150000388,
          "velocity": 0.6771653543307087,
          "duration": 0.05714290000000233
        },
        {
          "name": "E2",
          "midi": 40,
          "time": 202.2858660000039,
          "velocity": 0.7874015748031497,
          "duration": 0.03333335833332285
        },
        {
          "name": "C2",
          "midi": 36,
          "time": 202.2858660000039,
          "velocity": 0.84251968503937,
          "duration": 0.07142862500001002
        },
        {
          "name": "F#2",
          "midi": 42,
          "time": 202.2858660000039,
          "velocity": 0.6771653543307087,
          "duration": 0.05714290000000233
        },
        {
          "name": "G5",
          "midi": 79,
          "time": 202.5715805000039,
          "velocity": 0.7244094488188977,
          "duration": 0.22380969166667342
        },
        {
          "name": "E2",
          "midi": 40,
          "time": 202.5715805000039,
          "velocity": 0.7874015748031497,
          "duration": 0.29523831666668343
        },
        {
          "name": "E3",
          "midi": 52,
          "time": 202.5715805000039,
          "velocity": 0.6614173228346457,
          "duration": 0.11904770833334055
        },
        {
          "name": "B2",
          "midi": 47,
          "time": 202.5715805000039,
          "velocity": 0.6299212598425197,
          "duration": 0.11904770833334055
        },
        {
          "name": "C2",
          "midi": 36,
          "time": 202.5715805000039,
          "velocity": 0.84251968503937,
          "duration": 0.28571450000001164
        },
        {
          "name": "F#2",
          "midi": 42,
          "time": 202.5715805000039,
          "velocity": 0.6771653543307087,
          "duration": 0.047619083333330536
        },
        {
          "name": "D4",
          "midi": 62,
          "time": 202.5715805000039,
          "velocity": 0.007874015748031496,
          "duration": 0.11428580000000466
        },
        {
          "name": "G5",
          "midi": 79,
          "time": 202.85729500000392,
          "velocity": 0.7244094488188977,
          "duration": 0.28571450000001164
        },
        {
          "name": "B1",
          "midi": 35,
          "time": 202.85729500000392,
          "velocity": 0.7874015748031497,
          "duration": 0.2380954166666811
        },
        {
          "name": "B3",
          "midi": 59,
          "time": 202.85729500000392,
          "velocity": 0.8110236220472441,
          "duration": 0.4047622083333522
        },
        {
          "name": "E4",
          "midi": 64,
          "time": 202.85729500000392,
          "velocity": 0.8110236220472441,
          "duration": 0.11904770833334055
        },
        {
          "name": "D2",
          "midi": 38,
          "time": 202.85729500000392,
          "velocity": 0.7716535433070866,
          "duration": 0.07142862500001002
        },
        {
          "name": "F#2",
          "midi": 42,
          "time": 202.85729500000392,
          "velocity": 0.6771653543307087,
          "duration": 0.047619083333330536
        },
        {
          "name": "D4",
          "midi": 62,
          "time": 202.85729500000392,
          "velocity": 0.007874015748031496,
          "duration": 0.14285725000002003
        },
        {
          "name": "F#5",
          "midi": 78,
          "time": 203.14300950000393,
          "velocity": 0.7244094488188977,
          "duration": 0.21428587500003005
        },
        {
          "name": "D2",
          "midi": 38,
          "time": 203.14300950000393,
          "velocity": 0.7874015748031497,
          "duration": 0.28571450000004006
        },
        {
          "name": "B3",
          "midi": 59,
          "time": 203.14300950000393,
          "velocity": 0.7952755905511811,
          "duration": 0.12857152500001234
        },
        {
          "name": "C2",
          "midi": 36,
          "time": 203.14300950000393,
          "velocity": 0.84251968503937,
          "duration": 0.07142862500001002
        },
        {
          "name": "F#2",
          "midi": 42,
          "time": 203.14300950000393,
          "velocity": 0.6771653543307087,
          "duration": 0.047619083333330536
        },
        {
          "name": "D4",
          "midi": 62,
          "time": 203.14300950000393,
          "velocity": 0.007874015748031496,
          "duration": 0.10952389166666876
        },
        {
          "name": "F#5",
          "midi": 78,
          "time": 203.42872400000397,
          "velocity": 0.7244094488188977,
          "duration": 0.8095244166667328
        },
        {
          "name": "C2",
          "midi": 36,
          "time": 203.42872400000397,
          "velocity": 0.7874015748031497,
          "duration": 0.5714290000000517
        },
        {
          "name": "C3",
          "midi": 48,
          "time": 203.42872400000397,
          "velocity": 0.6614173228346457,
          "duration": 0.11904770833334055
        },
        {
          "name": "G3",
          "midi": 55,
          "time": 203.42872400000397,
          "velocity": 0.905511811023622,
          "duration": 0.11904770833334055
        },
        {
          "name": "C4",
          "midi": 60,
          "time": 203.42872400000397,
          "velocity": 0.9133858267716536,
          "duration": 0.11904770833334055
        },
        {
          "name": "E4",
          "midi": 64,
          "time": 203.42872400000397,
          "velocity": 0.8582677165354331,
          "duration": 0.11904770833334055
        },
        {
          "name": "C2",
          "midi": 36,
          "time": 203.42872400000397,
          "velocity": 0.84251968503937,
          "duration": 0.8809530416667428
        },
        {
          "name": "F#2",
          "midi": 42,
          "time": 203.42872400000397,
          "velocity": 0.6771653543307087,
          "duration": 0.047619083333330536
        },
        {
          "name": "A3",
          "midi": 57,
          "time": 203.42872400000397,
          "velocity": 0.6141732283464567,
          "duration": 1.2952390666667952
        },
        {
          "name": "D4",
          "midi": 62,
          "time": 203.42872400000397,
          "velocity": 0.007874015748031496,
          "duration": 0.14285725000002003
        },
        {
          "name": "C4",
          "midi": 60,
          "time": 203.71443850000398,
          "velocity": 0.6299212598425197,
          "duration": 0.11904770833334055
        },
        {
          "name": "E4",
          "midi": 64,
          "time": 203.71443850000398,
          "velocity": 0.6456692913385826,
          "duration": 0.11904770833334055
        },
        {
          "name": "F#2",
          "midi": 42,
          "time": 203.71443850000398,
          "velocity": 0.6771653543307087,
          "duration": 0.047619083333330536
        },
        {
          "name": "E4",
          "midi": 64,
          "time": 203.857295750004,
          "velocity": 0.8582677165354331,
          "duration": 0.11904770833334055
        },
        {
          "name": "G3",
          "midi": 55,
          "time": 204.00015300000402,
          "velocity": 0.6299212598425197,
          "duration": 0.11904770833334055
        },
        {
          "name": "C4",
          "midi": 60,
          "time": 204.00015300000402,
          "velocity": 0.8267716535433071,
          "duration": 0.11904770833334055
        },
        {
          "name": "E4",
          "midi": 64,
          "time": 204.00015300000402,
          "velocity": 0.8110236220472441,
          "duration": 0.11904770833334055
        },
        {
          "name": "D2",
          "midi": 38,
          "time": 204.00015300000402,
          "velocity": 0.7716535433070866,
          "duration": 0.047619083333330536
        },
        {
          "name": "F#2",
          "midi": 42,
          "time": 204.00015300000402,
          "velocity": 0.6771653543307087,
          "duration": 0.07142862500001002
        },
        {
          "name": "E5",
          "midi": 76,
          "time": 204.28586750000403,
          "velocity": 0.7244094488188977,
          "duration": 0.05714290000000233
        },
        {
          "name": "G1",
          "midi": 31,
          "time": 204.28586750000403,
          "velocity": 0.7874015748031497,
          "duration": 0.07142862500001002
        },
        {
          "name": "C3",
          "midi": 48,
          "time": 204.28586750000403,
          "velocity": 0.7165354330708661,
          "duration": 0.11904770833334055
        },
        {
          "name": "G3",
          "midi": 55,
          "time": 204.28586750000403,
          "velocity": 0.8582677165354331,
          "duration": 0.11904770833334055
        },
        {
          "name": "C4",
          "midi": 60,
          "time": 204.28586750000403,
          "velocity": 0.8740157480314961,
          "duration": 0.11904770833334055
        },
        {
          "name": "C5",
          "midi": 72,
          "time": 204.28586750000403,
          "velocity": 0.8267716535433071,
          "duration": 0.05714290000000233
        },
        {
          "name": "E5",
          "midi": 76,
          "time": 204.28586750000403,
          "velocity": 0.8582677165354331,
          "duration": 0.19047633333335057
        },
        {
          "name": "E4",
          "midi": 64,
          "time": 204.28586750000403,
          "velocity": 0.7322834645669292,
          "duration": 0.22380969166670184
        },
        {
          "name": "C4",
          "midi": 60,
          "time": 204.28586750000403,
          "velocity": 0.7322834645669292,
          "duration": 0.21428587500003005
        },
        {
          "name": "C2",
          "midi": 36,
          "time": 204.28586750000403,
          "velocity": 0.84251968503937,
          "duration": 0.05714290000000233
        },
        {
          "name": "D2",
          "midi": 38,
          "time": 204.28586750000403,
          "velocity": 0.7716535433070866,
          "duration": 0.05714290000000233
        },
        {
          "name": "F#2",
          "midi": 42,
          "time": 204.28586750000403,
          "velocity": 0.6771653543307087,
          "duration": 0.05714290000000233
        },
        {
          "name": "E5",
          "midi": 76,
          "time": 204.42872475000405,
          "velocity": 0.7716535433070866,
          "duration": 0.11904770833334055
        },
        {
          "name": "C5",
          "midi": 72,
          "time": 204.42872475000405,
          "velocity": 0.889763779527559,
          "duration": 0.05714290000000233
        },
        {
          "name": "E5",
          "midi": 76,
          "time": 204.57158200000407,
          "velocity": 0.7244094488188977,
          "duration": 0.261904958333389
        },
        {
          "name": "C2",
          "midi": 36,
          "time": 204.57158200000407,
          "velocity": 0.7874015748031497,
          "duration": 0.03333335833332285
        },
        {
          "name": "E5",
          "midi": 76,
          "time": 204.57158200000407,
          "velocity": 0.7401574803149606,
          "duration": 1.0952389166668013
        },
        {
          "name": "C5",
          "midi": 72,
          "time": 204.57158200000407,
          "velocity": 0.7007874015748031,
          "duration": 0.22380969166670184
        },
        {
          "name": "C4",
          "midi": 60,
          "time": 204.57158200000407,
          "velocity": 0.7165354330708661,
          "duration": 0.2714287750000608
        },
        {
          "name": "E4",
          "midi": 64,
          "time": 204.57158200000407,
          "velocity": 0.889763779527559,
          "duration": 0.24761923333338132
        },
        {
          "name": "C2",
          "midi": 36,
          "time": 204.57158200000407,
          "velocity": 0.84251968503937,
          "duration": 0.07142862500001002
        },
        {
          "name": "F#2",
          "midi": 42,
          "time": 204.57158200000407,
          "velocity": 0.6771653543307087,
          "duration": 0.05714290000000233
        },
        {
          "name": "D4",
          "midi": 62,
          "time": 204.57158200000407,
          "velocity": 0.007874015748031496,
          "duration": 0.0952381666666895
        },
        {
          "name": "C2",
          "midi": 36,
          "time": 204.85729650000414,
          "velocity": 0.7874015748031497,
          "duration": 0.28571450000004006
        },
        {
          "name": "C3",
          "midi": 48,
          "time": 204.85729650000414,
          "velocity": 0.6692913385826772,
          "duration": 0.11904770833334055
        },
        {
          "name": "G3",
          "midi": 55,
          "time": 204.85729650000414,
          "velocity": 0.7559055118110236,
          "duration": 0.11904770833334055
        },
        {
          "name": "C5",
          "midi": 72,
          "time": 204.85729650000414,
          "velocity": 0.8110236220472441,
          "duration": 0.07142862500001002
        },
        {
          "name": "G4",
          "midi": 67,
          "time": 204.85729650000414,
          "velocity": 0.7165354330708661,
          "duration": 0.05714290000000233
        },
        {
          "name": "D4",
          "midi": 62,
          "time": 204.85729650000414,
          "velocity": 0.6692913385826772,
          "duration": 0.29523831666671185
        },
        {
          "name": "B3",
          "midi": 59,
          "time": 204.85729650000414,
          "velocity": 0.7480314960629921,
          "duration": 0.19047633333335057
        },
        {
          "name": "C2",
          "midi": 36,
          "time": 204.85729650000414,
          "velocity": 0.84251968503937,
          "duration": 0.5714290000000517
        },
        {
          "name": "F#2",
          "midi": 42,
          "time": 204.85729650000414,
          "velocity": 0.6771653543307087,
          "duration": 0.047619083333330536
        },
        {
          "name": "C5",
          "midi": 72,
          "time": 205.00015375000416,
          "velocity": 0.9133858267716536,
          "duration": 0.07142862500001002
        },
        {
          "name": "G4",
          "midi": 67,
          "time": 205.00015375000416,
          "velocity": 0.7322834645669292,
          "duration": 0.07142862500001002
        },
        {
          "name": "E4",
          "midi": 64,
          "time": 205.14301100000418,
          "velocity": 0.7322834645669292,
          "duration": 0.11904770833334055
        },
        {
          "name": "G3",
          "midi": 55,
          "time": 205.14301100000418,
          "velocity": 0.7795275590551181,
          "duration": 0.11904770833334055
        },
        {
          "name": "C4",
          "midi": 60,
          "time": 205.14301100000418,
          "velocity": 0.8346456692913385,
          "duration": 0.11904770833334055
        },
        {
          "name": "G4",
          "midi": 67,
          "time": 205.14301100000418,
          "velocity": 0.7401574803149606,
          "duration": 0.8095244166667044
        },
        {
          "name": "C5",
          "midi": 72,
          "time": 205.14301100000418,
          "velocity": 0.9133858267716536,
          "duration": 0.8190482333333762
        },
        {
          "name": "A3",
          "midi": 57,
          "time": 205.14301100000418,
          "velocity": 0.6692913385826772,
          "duration": 0.21428587500000162
        },
        {
          "name": "C4",
          "midi": 60,
          "time": 205.14301100000418,
          "velocity": 0.7637795275590551,
          "duration": 0.35714312500002166
        },
        {
          "name": "D2",
          "midi": 38,
          "time": 205.14301100000418,
          "velocity": 0.7716535433070866,
          "duration": 0.07142862500001002
        },
        {
          "name": "F#2",
          "midi": 42,
          "time": 205.14301100000418,
          "velocity": 0.6771653543307087,
          "duration": 0.047619083333330536
        },
        {
          "name": "G1",
          "midi": 31,
          "time": 205.4287255000042,
          "velocity": 0.7874015748031497,
          "duration": 0.05714290000000233
        },
        {
          "name": "D4",
          "midi": 62,
          "time": 205.4287255000042,
          "velocity": 0.7165354330708661,
          "duration": 0.5000003750000133
        },
        {
          "name": "B3",
          "midi": 59,
          "time": 205.4287255000042,
          "velocity": 0.7480314960629921,
          "duration": 0.4619051083333545
        },
        {
          "name": "C2",
          "midi": 36,
          "time": 205.4287255000042,
          "velocity": 0.84251968503937,
          "duration": 0.07142862500001002
        },
        {
          "name": "F#2",
          "midi": 42,
          "time": 205.4287255000042,
          "velocity": 0.6771653543307087,
          "duration": 0.047619083333330536
        },
        {
          "name": "C2",
          "midi": 36,
          "time": 205.7144400000042,
          "velocity": 0.7874015748031497,
          "duration": 0.5714290000000517
        },
        {
          "name": "C3",
          "midi": 48,
          "time": 205.7144400000042,
          "velocity": 0.6614173228346457,
          "duration": 0.11904770833334055
        },
        {
          "name": "G3",
          "midi": 55,
          "time": 205.7144400000042,
          "velocity": 0.905511811023622,
          "duration": 0.11904770833334055
        },
        {
          "name": "C4",
          "midi": 60,
          "time": 205.7144400000042,
          "velocity": 0.9133858267716536,
          "duration": 0.11904770833334055
        },
        {
          "name": "E4",
          "midi": 64,
          "time": 205.7144400000042,
          "velocity": 0.8582677165354331,
          "duration": 0.11904770833334055
        },
        {
          "name": "C2",
          "midi": 36,
          "time": 205.7144400000042,
          "velocity": 0.84251968503937,
          "duration": 0.8809530416667144
        },
        {
          "name": "F#2",
          "midi": 42,
          "time": 205.7144400000042,
          "velocity": 0.6771653543307087,
          "duration": 0.047619083333330536
        },
        {
          "name": "G5",
          "midi": 79,
          "time": 206.00015450000421,
          "velocity": 0.7244094488188977,
          "duration": 0.45238129166671115
        },
        {
          "name": "C4",
          "midi": 60,
          "time": 206.00015450000421,
          "velocity": 0.6299212598425197,
          "duration": 0.11904770833334055
        },
        {
          "name": "E4",
          "midi": 64,
          "time": 206.00015450000421,
          "velocity": 0.6456692913385826,
          "duration": 0.11904770833334055
        },
        {
          "name": "E4",
          "midi": 64,
          "time": 206.00015450000421,
          "velocity": 0.7874015748031497,
          "duration": 0.20000015000002236
        },
        {
          "name": "G4",
          "midi": 67,
          "time": 206.00015450000421,
          "velocity": 0.7007874015748031,
          "duration": 0.21428587500003005
        },
        {
          "name": "C4",
          "midi": 60,
          "time": 206.00015450000421,
          "velocity": 0.7401574803149606,
          "duration": 0.4047622083333806
        },
        {
          "name": "E4",
          "midi": 64,
          "time": 206.00015450000421,
          "velocity": 0.6377952755905512,
          "duration": 0.2619049583333606
        },
        {
          "name": "F#2",
          "midi": 42,
          "time": 206.00015450000421,
          "velocity": 0.6771653543307087,
          "duration": 0.047619083333330536
        },
        {
          "name": "D4",
          "midi": 62,
          "time": 206.00015450000421,
          "velocity": 0.007874015748031496,
          "duration": 0.22857160000003773
        },
        {
          "name": "E4",
          "midi": 64,
          "time": 206.14301175000423,
          "velocity": 0.8582677165354331,
          "duration": 0.2619049583333606
        },
        {
          "name": "G3",
          "midi": 55,
          "time": 206.28586900000425,
          "velocity": 0.6299212598425197,
          "duration": 0.11904770833334055
        },
        {
          "name": "C4",
          "midi": 60,
          "time": 206.28586900000425,
          "velocity": 0.8267716535433071,
          "duration": 0.40476220833332377
        },
        {
          "name": "E4",
          "midi": 64,
          "time": 206.28586900000425,
          "velocity": 0.8110236220472441,
          "duration": 0.20000014999999394
        },
        {
          "name": "G4",
          "midi": 67,
          "time": 206.28586900000425,
          "velocity": 0.6771653543307087,
          "duration": 0.23809541666665268
        },
        {
          "name": "E4",
          "midi": 64,
          "time": 206.28586900000425,
          "velocity": 0.7559055118110236,
          "duration": 1.1523818166667184
        },
        {
          "name": "D2",
          "midi": 38,
          "time": 206.28586900000425,
          "velocity": 0.7716535433070866,
          "duration": 0.047619083333330536
        },
        {
          "name": "F#2",
          "midi": 42,
          "time": 206.28586900000425,
          "velocity": 0.6771653543307087,
          "duration": 0.07142862500001002
        },
        {
          "name": "A5",
          "midi": 81,
          "time": 206.57158350000424,
          "velocity": 0.7244094488188977,
          "duration": 0.26190495833333216
        },
        {
          "name": "G1",
          "midi": 31,
          "time": 206.57158350000424,
          "velocity": 0.7874015748031497,
          "duration": 0.05714290000000233
        },
        {
          "name": "C3",
          "midi": 48,
          "time": 206.57158350000424,
          "velocity": 0.7165354330708661,
          "duration": 0.11904770833334055
        },
        {
          "name": "G3",
          "midi": 55,
          "time": 206.57158350000424,
          "velocity": 0.8582677165354331,
          "duration": 0.11904770833334055
        },
        {
          "name": "C4",
          "midi": 60,
          "time": 206.57158350000424,
          "velocity": 0.8740157480314961,
          "duration": 0.8428577750000557
        },
        {
          "name": "E4",
          "midi": 64,
          "time": 206.57158350000424,
          "velocity": 0.7244094488188977,
          "duration": 0.9761912083334039
        },
        {
          "name": "C4",
          "midi": 60,
          "time": 206.57158350000424,
          "velocity": 0.6771653543307087,
          "duration": 0.9761912083334039
        },
        {
          "name": "C2",
          "midi": 36,
          "time": 206.57158350000424,
          "velocity": 0.84251968503937,
          "duration": 0.05714290000000233
        },
        {
          "name": "D2",
          "midi": 38,
          "time": 206.57158350000424,
          "velocity": 0.7716535433070866,
          "duration": 0.05714290000000233
        },
        {
          "name": "F#2",
          "midi": 42,
          "time": 206.57158350000424,
          "velocity": 0.6771653543307087,
          "duration": 0.05714290000000233
        },
        {
          "name": "D4",
          "midi": 62,
          "time": 206.57158350000424,
          "velocity": 0.007874015748031496,
          "duration": 0.11428580000000466
        },
        {
          "name": "G5",
          "midi": 79,
          "time": 206.85729800000425,
          "velocity": 0.7244094488188977,
          "duration": 0.3095240416666911
        },
        {
          "name": "C2",
          "midi": 36,
          "time": 206.85729800000425,
          "velocity": 0.7874015748031497,
          "duration": 0.047619083333330536
        },
        {
          "name": "C2",
          "midi": 36,
          "time": 206.85729800000425,
          "velocity": 0.84251968503937,
          "duration": 0.07142862500001002
        },
        {
          "name": "F#2",
          "midi": 42,
          "time": 206.85729800000425,
          "velocity": 0.6771653543307087,
          "duration": 0.05714290000000233
        },
        {
          "name": "D4",
          "midi": 62,
          "time": 206.85729800000425,
          "velocity": 0.007874015748031496,
          "duration": 0.1571429749999993
        },
        {
          "name": "F#5",
          "midi": 78,
          "time": 207.14301250000426,
          "velocity": 0.7244094488188977,
          "duration": 0.29523831666671185
        },
        {
          "name": "C2",
          "midi": 36,
          "time": 207.14301250000426,
          "velocity": 0.7874015748031497,
          "duration": 0.28571450000004006
        },
        {
          "name": "C3",
          "midi": 48,
          "time": 207.14301250000426,
          "velocity": 0.6692913385826772,
          "duration": 0.11904770833336897
        },
        {
          "name": "G3",
          "midi": 55,
          "time": 207.14301250000426,
          "velocity": 0.7559055118110236,
          "duration": 0.11904770833336897
        },
        {
          "name": "C2",
          "midi": 36,
          "time": 207.14301250000426,
          "velocity": 0.84251968503937,
          "duration": 0.3333335833333706
        },
        {
          "name": "F#2",
          "midi": 42,
          "time": 207.14301250000426,
          "velocity": 0.6771653543307087,
          "duration": 0.04761908333335896
        },
        {
          "name": "D4",
          "midi": 62,
          "time": 207.14301250000426,
          "velocity": 0.007874015748031496,
          "duration": 0.14761915833335593
        },
        {
          "name": "E5",
          "midi": 76,
          "time": 207.4287270000043,
          "velocity": 0.7244094488188977,
          "duration": 0.2476192333333529
        },
        {
          "name": "G1",
          "midi": 31,
          "time": 207.4287270000043,
          "velocity": 0.7874015748031497,
          "duration": 0.2380954166666811
        },
        {
          "name": "E4",
          "midi": 64,
          "time": 207.4287270000043,
          "velocity": 0.7322834645669292,
          "duration": 0.36666694166669345
        },
        {
          "name": "G3",
          "midi": 55,
          "time": 207.4287270000043,
          "velocity": 0.7795275590551181,
          "duration": 0.11904770833334055
        },
        {
          "name": "C4",
          "midi": 60,
          "time": 207.4287270000043,
          "velocity": 0.8346456692913385,
          "duration": 0.43809556666670346
        },
        {
          "name": "D2",
          "midi": 38,
          "time": 207.4287270000043,
          "velocity": 0.7716535433070866,
          "duration": 0.07142862500001002
        },
        {
          "name": "F#2",
          "midi": 42,
          "time": 207.4287270000043,
          "velocity": 0.6771653543307087,
          "duration": 0.047619083333330536
        },
        {
          "name": "D4",
          "midi": 62,
          "time": 207.4287270000043,
          "velocity": 0.007874015748031496,
          "duration": 0.12380961666667645
        },
        {
          "name": "E5",
          "midi": 76,
          "time": 207.7144415000043,
          "velocity": 0.7244094488188977,
          "duration": 0.19047633333335057
        },
        {
          "name": "C2",
          "midi": 36,
          "time": 207.7144415000043,
          "velocity": 0.7874015748031497,
          "duration": 0.07142862500001002
        },
        {
          "name": "C2",
          "midi": 36,
          "time": 207.7144415000043,
          "velocity": 0.84251968503937,
          "duration": 0.2619049583333606
        },
        {
          "name": "F#2",
          "midi": 42,
          "time": 207.7144415000043,
          "velocity": 0.6771653543307087,
          "duration": 0.047619083333330536
        },
        {
          "name": "D4",
          "midi": 62,
          "time": 207.7144415000043,
          "velocity": 0.007874015748031496,
          "duration": 0.0952381666666895
        },
        {
          "name": "E5",
          "midi": 76,
          "time": 208.00015600000435,
          "velocity": 0.7244094488188977,
          "duration": 0.8428577750000557
        },
        {
          "name": "D2",
          "midi": 38,
          "time": 208.00015600000435,
          "velocity": 0.7874015748031497,
          "duration": 0.11904770833334055
        },
        {
          "name": "A2",
          "midi": 45,
          "time": 208.00015600000435,
          "velocity": 0.3937007874015748,
          "duration": 0.11904770833334055
        },
        {
          "name": "D2",
          "midi": 38,
          "time": 208.00015600000435,
          "velocity": 0.44881889763779526,
          "duration": 0.6190480833333822
        },
        {
          "name": "F#3",
          "midi": 54,
          "time": 208.00015600000435,
          "velocity": 0.8267716535433071,
          "duration": 0.11904770833334055
        },
        {
          "name": "A3",
          "midi": 57,
          "time": 208.00015600000435,
          "velocity": 0.7244094488188977,
          "duration": 0.11904770833334055
        },
        {
          "name": "D4",
          "midi": 62,
          "time": 208.00015600000435,
          "velocity": 0.48031496062992124,
          "duration": 0.11904770833334055
        },
        {
          "name": "F#4",
          "midi": 66,
          "time": 208.00015600000435,
          "velocity": 0.7795275590551181,
          "duration": 4.580955816667
        },
        {
          "name": "D4",
          "midi": 62,
          "time": 208.00015600000435,
          "velocity": 0.7007874015748031,
          "duration": 0.4047622083333522
        },
        {
          "name": "A3",
          "midi": 57,
          "time": 208.00015600000435,
          "velocity": 0.6614173228346457,
          "duration": 0.4047622083333522
        },
        {
          "name": "C2",
          "midi": 36,
          "time": 208.00015600000435,
          "velocity": 0.84251968503937,
          "duration": 0.5714290000000517
        },
        {
          "name": "F#2",
          "midi": 42,
          "time": 208.00015600000435,
          "velocity": 0.6771653543307087,
          "duration": 0.047619083333330536
        },
        {
          "name": "A3",
          "midi": 57,
          "time": 208.00015600000435,
          "velocity": 0.5196850393700787,
          "duration": 1.4857154000001174
        },
        {
          "name": "D4",
          "midi": 62,
          "time": 208.00015600000435,
          "velocity": 0.007874015748031496,
          "duration": 0.4238098416666958
        },
        {
          "name": "A3",
          "midi": 57,
          "time": 208.28587050000436,
          "velocity": 0.6771653543307087,
          "duration": 2.119049208333479
        },
        {
          "name": "D4",
          "midi": 62,
          "time": 208.28587050000436,
          "velocity": 0.7086614173228346,
          "duration": 0.2619049583333606
        },
        {
          "name": "F#5",
          "midi": 78,
          "time": 208.28587050000436,
          "velocity": 0.6141732283464567,
          "duration": 0.1761906083333713
        },
        {
          "name": "A4",
          "midi": 69,
          "time": 208.28587050000436,
          "velocity": 0.7165354330708661,
          "duration": 0.15238106666669182
        },
        {
          "name": "F#2",
          "midi": 42,
          "time": 208.28587050000436,
          "velocity": 0.6771653543307087,
          "duration": 0.047619083333330536
        },
        {
          "name": "D4",
          "midi": 62,
          "time": 208.42872775000438,
          "velocity": 0.6299212598425197,
          "duration": 0.5476194583333722
        },
        {
          "name": "D3",
          "midi": 50,
          "time": 208.5715850000044,
          "velocity": 0.3937007874015748,
          "duration": 0.11904770833334055
        },
        {
          "name": "F#5",
          "midi": 78,
          "time": 208.5715850000044,
          "velocity": 0.8582677165354331,
          "duration": 0.23809541666665268
        },
        {
          "name": "A4",
          "midi": 69,
          "time": 208.5715850000044,
          "velocity": 0.7401574803149606,
          "duration": 0.20000014999999394
        },
        {
          "name": "D2",
          "midi": 38,
          "time": 208.5715850000044,
          "velocity": 0.7716535433070866,
          "duration": 0.24761923333332447
        },
        {
          "name": "F#2",
          "midi": 42,
          "time": 208.5715850000044,
          "velocity": 0.6771653543307087,
          "duration": 0.07142862500001002
        },
        {
          "name": "D5",
          "midi": 74,
          "time": 208.85729950000442,
          "velocity": 0.7244094488188977,
          "duration": 0.22380969166667342
        },
        {
          "name": "A1",
          "midi": 33,
          "time": 208.85729950000442,
          "velocity": 0.7874015748031497,
          "duration": 0.047619083333330536
        },
        {
          "name": "D3",
          "midi": 50,
          "time": 208.85729950000442,
          "velocity": 0.5354330708661418,
          "duration": 0.11904770833334055
        },
        {
          "name": "D4",
          "midi": 62,
          "time": 208.85729950000442,
          "velocity": 0.7401574803149606,
          "duration": 0.8047625083333969
        },
        {
          "name": "E5",
          "midi": 76,
          "time": 208.85729950000442,
          "velocity": 0.8110236220472441,
          "duration": 0.22380969166667342
        },
        {
          "name": "A4",
          "midi": 69,
          "time": 208.85729950000442,
          "velocity": 0.7322834645669292,
          "duration": 0.20000014999999394
        },
        {
          "name": "C2",
          "midi": 36,
          "time": 208.85729950000442,
          "velocity": 0.84251968503937,
          "duration": 0.05714290000000233
        },
        {
          "name": "D2",
          "midi": 38,
          "time": 208.85729950000442,
          "velocity": 0.7716535433070866,
          "duration": 0.05714290000000233
        },
        {
          "name": "F#2",
          "midi": 42,
          "time": 208.85729950000442,
          "velocity": 0.6771653543307087,
          "duration": 0.05714290000000233
        },
        {
          "name": "D5",
          "midi": 74,
          "time": 209.14301400000443,
          "velocity": 0.7244094488188977,
          "duration": 0.47619083333339063
        },
        {
          "name": "D2",
          "midi": 38,
          "time": 209.14301400000443,
          "velocity": 0.7874015748031497,
          "duration": 0.05714290000000233
        },
        {
          "name": "E5",
          "midi": 76,
          "time": 209.14301400000443,
          "velocity": 0.8818897637795275,
          "duration": 0.22380969166670184
        },
        {
          "name": "A4",
          "midi": 69,
          "time": 209.14301400000443,
          "velocity": 0.7559055118110236,
          "duration": 0.20000015000002236
        },
        {
          "name": "C2",
          "midi": 36,
          "time": 209.14301400000443,
          "velocity": 0.84251968503937,
          "duration": 0.07142862500001002
        },
        {
          "name": "F#2",
          "midi": 42,
          "time": 209.14301400000443,
          "velocity": 0.6771653543307087,
          "duration": 0.05714290000000233
        },
        {
          "name": "D4",
          "midi": 62,
          "time": 209.14301400000443,
          "velocity": 0.007874015748031496,
          "duration": 0.6904767083333923
        },
        {
          "name": "D2",
          "midi": 38,
          "time": 209.42872850000447,
          "velocity": 0.7874015748031497,
          "duration": 0.35714312500002166
        },
        {
          "name": "D3",
          "midi": 50,
          "time": 209.42872850000447,
          "velocity": 0.6141732283464567,
          "duration": 0.11904770833334055
        },
        {
          "name": "A4",
          "midi": 69,
          "time": 209.42872850000447,
          "velocity": 0.7559055118110236,
          "duration": 0.17619060833334288
        },
        {
          "name": "D5",
          "midi": 74,
          "time": 209.42872850000447,
          "velocity": 0.7401574803149606,
          "duration": 0.5714289999999949
        },
        {
          "name": "C2",
          "midi": 36,
          "time": 209.42872850000447,
          "velocity": 0.84251968503937,
          "duration": 0.28571450000001164
        },
        {
          "name": "F#2",
          "midi": 42,
          "time": 209.42872850000447,
          "velocity": 0.6771653543307087,
          "duration": 0.047619083333330536
        },
        {
          "name": "D4",
          "midi": 62,
          "time": 209.71444300000448,
          "velocity": 0.7007874015748031,
          "duration": 0.40476220833332377
        },
        {
          "name": "D5",
          "midi": 74,
          "time": 209.71444300000448,
          "velocity": 0.7165354330708661,
          "duration": 0.4619051083333261
        },
        {
          "name": "A4",
          "midi": 69,
          "time": 209.71444300000448,
          "velocity": 0.7637795275590551,
          "duration": 0.20000014999999394
        },
        {
          "name": "D2",
          "midi": 38,
          "time": 209.71444300000448,
          "velocity": 0.7716535433070866,
          "duration": 0.24761923333332447
        },
        {
          "name": "F#2",
          "midi": 42,
          "time": 209.71444300000448,
          "velocity": 0.6771653543307087,
          "duration": 0.047619083333330536
        },
        {
          "name": "A1",
          "midi": 33,
          "time": 210.00015750000446,
          "velocity": 0.7874015748031497,
          "duration": 0.07142862500001002
        },
        {
          "name": "D4",
          "midi": 62,
          "time": 210.00015750000446,
          "velocity": 0.48031496062992124,
          "duration": 0.4047622083333806
        },
        {
          "name": "E5",
          "midi": 76,
          "time": 210.00015750000446,
          "velocity": 0.8110236220472441,
          "duration": 0.19047633333335057
        },
        {
          "name": "A4",
          "midi": 69,
          "time": 210.00015750000446,
          "velocity": 0.6614173228346457,
          "duration": 0.1666667916666711
        },
        {
          "name": "C2",
          "midi": 36,
          "time": 210.00015750000446,
          "velocity": 0.84251968503937,
          "duration": 0.07142862500001002
        },
        {
          "name": "F#2",
          "midi": 42,
          "time": 210.00015750000446,
          "velocity": 0.6771653543307087,
          "duration": 0.047619083333330536
        },
        {
          "name": "D2",
          "midi": 38,
          "time": 210.2858720000045,
          "velocity": 0.7874015748031497,
          "duration": 0.11904770833334055
        },
        {
          "name": "A2",
          "midi": 45,
          "time": 210.2858720000045,
          "velocity": 0.3937007874015748,
          "duration": 0.11904770833334055
        },
        {
          "name": "D2",
          "midi": 38,
          "time": 210.2858720000045,
          "velocity": 0.44881889763779526,
          "duration": 0.6190480833333822
        },
        {
          "name": "F#3",
          "midi": 54,
          "time": 210.2858720000045,
          "velocity": 0.8267716535433071,
          "duration": 0.11904770833334055
        },
        {
          "name": "A3",
          "midi": 57,
          "time": 210.2858720000045,
          "velocity": 0.7244094488188977,
          "duration": 0.4047622083333522
        },
        {
          "name": "D4",
          "midi": 62,
          "time": 210.2858720000045,
          "velocity": 0.48031496062992124,
          "duration": 0.4047622083333522
        },
        {
          "name": "E5",
          "midi": 76,
          "time": 210.2858720000045,
          "velocity": 0.8346456692913385,
          "duration": 0.414286025000024
        },
        {
          "name": "A4",
          "midi": 69,
          "time": 210.2858720000045,
          "velocity": 0.8267716535433071,
          "duration": 0.3333335833333422
        },
        {
          "name": "C2",
          "midi": 36,
          "time": 210.2858720000045,
          "velocity": 0.84251968503937,
          "duration": 0.5714290000000517
        },
        {
          "name": "F#2",
          "midi": 42,
          "time": 210.2858720000045,
          "velocity": 0.6771653543307087,
          "duration": 0.047619083333330536
        },
        {
          "name": "A3",
          "midi": 57,
          "time": 210.5715865000045,
          "velocity": 0.6771653543307087,
          "duration": 2.0095253166668385
        },
        {
          "name": "D4",
          "midi": 62,
          "time": 210.5715865000045,
          "velocity": 0.7086614173228346,
          "duration": 0.2619049583333606
        },
        {
          "name": "F#2",
          "midi": 42,
          "time": 210.5715865000045,
          "velocity": 0.6771653543307087,
          "duration": 0.047619083333330536
        },
        {
          "name": "D4",
          "midi": 62,
          "time": 210.71444375000453,
          "velocity": 0.6299212598425197,
          "duration": 0.4238098416666958
        },
        {
          "name": "F#5",
          "midi": 78,
          "time": 210.71444375000453,
          "velocity": 0.8582677165354331,
          "duration": 0.35714312500002166
        },
        {
          "name": "A4",
          "midi": 69,
          "time": 210.71444375000453,
          "velocity": 0.8740157480314961,
          "duration": 0.3095240416666911
        },
        {
          "name": "E5",
          "midi": 76,
          "time": 210.85730100000455,
          "velocity": 0.7244094488188977,
          "duration": 0.2380954166666811
        },
        {
          "name": "D3",
          "midi": 50,
          "time": 210.85730100000455,
          "velocity": 0.3937007874015748,
          "duration": 0.11904770833334055
        },
        {
          "name": "D2",
          "midi": 38,
          "time": 210.85730100000455,
          "velocity": 0.7716535433070866,
          "duration": 0.28571450000001164
        },
        {
          "name": "F#2",
          "midi": 42,
          "time": 210.85730100000455,
          "velocity": 0.6771653543307087,
          "duration": 0.07142862500001002
        },
        {
          "name": "D4",
          "midi": 62,
          "time": 210.85730100000455,
          "velocity": 0.007874015748031496,
          "duration": 0.4047622083333522
        },
        {
          "name": "F#5",
          "midi": 78,
          "time": 211.14301550000457,
          "velocity": 0.7244094488188977,
          "duration": 0.12857152500001234
        },
        {
          "name": "A1",
          "midi": 33,
          "time": 211.14301550000457,
          "velocity": 0.7874015748031497,
          "duration": 0.047619083333330536
        },
        {
          "name": "D3",
          "midi": 50,
          "time": 211.14301550000457,
          "velocity": 0.5354330708661418,
          "duration": 0.11904770833334055
        },
        {
          "name": "D4",
          "midi": 62,
          "time": 211.14301550000457,
          "velocity": 0.7401574803149606,
          "duration": 0.6666671666666844
        },
        {
          "name": "A4",
          "midi": 69,
          "time": 211.14301550000457,
          "velocity": 0.8740157480314961,
          "duration": 1.1047627333333594
        },
        {
          "name": "D5",
          "midi": 74,
          "time": 211.14301550000457,
          "velocity": 0.7401574803149606,
          "duration": 0.5238099166666927
        },
        {
          "name": "C2",
          "midi": 36,
          "time": 211.14301550000457,
          "velocity": 0.84251968503937,
          "duration": 0.05714290000000233
        },
        {
          "name": "D2",
          "midi": 38,
          "time": 211.14301550000457,
          "velocity": 0.7716535433070866,
          "duration": 0.05714290000000233
        },
        {
          "name": "F#2",
          "midi": 42,
          "time": 211.14301550000457,
          "velocity": 0.6771653543307087,
          "duration": 0.05714290000000233
        },
        {
          "name": "E5",
          "midi": 76,
          "time": 211.2858727500046,
          "velocity": 0.7244094488188977,
          "duration": 0.1380953416666557
        },
        {
          "name": "D5",
          "midi": 74,
          "time": 211.42873000000458,
          "velocity": 0.7244094488188977,
          "duration": 0.4761908333333622
        },
        {
          "name": "D2",
          "midi": 38,
          "time": 211.42873000000458,
          "velocity": 0.7874015748031497,
          "duration": 0.03333335833332285
        },
        {
          "name": "C2",
          "midi": 36,
          "time": 211.42873000000458,
          "velocity": 0.84251968503937,
          "duration": 0.07142862500001002
        },
        {
          "name": "F#2",
          "midi": 42,
          "time": 211.42873000000458,
          "velocity": 0.6771653543307087,
          "duration": 0.05714290000000233
        },
        {
          "name": "D5",
          "midi": 74,
          "time": 211.7144445000046,
          "velocity": 0.7244094488188977,
          "duration": 0.4857146500000056
        },
        {
          "name": "D2",
          "midi": 38,
          "time": 211.7144445000046,
          "velocity": 0.7874015748031497,
          "duration": 0.27142877500000395
        },
        {
          "name": "D3",
          "midi": 50,
          "time": 211.7144445000046,
          "velocity": 0.6141732283464567,
          "duration": 0.11904770833334055
        },
        {
          "name": "C2",
          "midi": 36,
          "time": 211.7144445000046,
          "velocity": 0.84251968503937,
          "duration": 0.28571450000001164
        },
        {
          "name": "F#2",
          "midi": 42,
          "time": 211.7144445000046,
          "velocity": 0.6771653543307087,
          "duration": 0.047619083333330536
        },
        {
          "name": "D4",
          "midi": 62,
          "time": 211.7144445000046,
          "velocity": 0.007874015748031496,
          "duration": 0.3857145750000086
        },
        {
          "name": "D5",
          "midi": 74,
          "time": 212.0001590000046,
          "velocity": 0.7244094488188977,
          "duration": 0.3095240416666911
        },
        {
          "name": "A1",
          "midi": 33,
          "time": 212.0001590000046,
          "velocity": 0.7874015748031497,
          "duration": 0.26190495833333216
        },
        {
          "name": "D4",
          "midi": 62,
          "time": 212.0001590000046,
          "velocity": 0.7007874015748031,
          "duration": 0.11904770833334055
        },
        {
          "name": "D2",
          "midi": 38,
          "time": 212.0001590000046,
          "velocity": 0.7716535433070866,
          "duration": 0.07142862500001002
        },
        {
          "name": "F#2",
          "midi": 42,
          "time": 212.0001590000046,
          "velocity": 0.6771653543307087,
          "duration": 0.047619083333330536
        },
        {
          "name": "D4",
          "midi": 62,
          "time": 212.0001590000046,
          "velocity": 0.007874015748031496,
          "duration": 0.37142885000005776
        },
        {
          "name": "D5",
          "midi": 74,
          "time": 212.2858735000046,
          "velocity": 0.7244094488188977,
          "duration": 0.1666667916666995
        },
        {
          "name": "D2",
          "midi": 38,
          "time": 212.2858735000046,
          "velocity": 0.7874015748031497,
          "duration": 0.190476333333379
        },
        {
          "name": "D4",
          "midi": 62,
          "time": 212.2858735000046,
          "velocity": 0.48031496062992124,
          "duration": 0.11904770833336897
        },
        {
          "name": "C2",
          "midi": 36,
          "time": 212.2858735000046,
          "velocity": 0.84251968503937,
          "duration": 0.07142862500003844
        },
        {
          "name": "F#2",
          "midi": 42,
          "time": 212.2858735000046,
          "velocity": 0.6771653543307087,
          "duration": 0.04761908333335896
        },
        {
          "name": "D4",
          "midi": 62,
          "time": 212.2858735000046,
          "velocity": 0.007874015748031496,
          "duration": 0.2857145000000685
        },
        {
          "name": "D5",
          "midi": 74,
          "time": 212.57158800000468,
          "velocity": 0.7244094488188977,
          "duration": 0.26190495833333216
        },
        {
          "name": "G1",
          "midi": 31,
          "time": 212.57158800000468,
          "velocity": 0.7874015748031497,
          "duration": 0.6047623583333461
        },
        {
          "name": "D3",
          "midi": 50,
          "time": 212.57158800000468,
          "velocity": 0.6850393700787402,
          "duration": 0.11904770833334055
        },
        {
          "name": "G3",
          "midi": 55,
          "time": 212.57158800000468,
          "velocity": 0.7952755905511811,
          "duration": 0.11904770833334055
        },
        {
          "name": "B3",
          "midi": 59,
          "time": 212.57158800000468,
          "velocity": 0.8661417322834646,
          "duration": 0.11904770833334055
        },
        {
          "name": "D2",
          "midi": 38,
          "time": 212.57158800000468,
          "velocity": 0.3700787401574803,
          "duration": 0.11904770833334055
        },
        {
          "name": "C2",
          "midi": 36,
          "time": 212.57158800000468,
          "velocity": 0.84251968503937,
          "duration": 0.5714290000000233
        },
        {
          "name": "F#2",
          "midi": 42,
          "time": 212.57158800000468,
          "velocity": 0.6771653543307087,
          "duration": 0.047619083333330536
        },
        {
          "name": "A3",
          "midi": 57,
          "time": 212.57158800000468,
          "velocity": 0.5669291338582677,
          "duration": 1.7857156250000799
        },
        {
          "name": "D4",
          "midi": 62,
          "time": 212.57158800000468,
          "velocity": 0.007874015748031496,
          "duration": 0.5476194583333438
        },
        {
          "name": "B5",
          "midi": 83,
          "time": 212.8573025000047,
          "velocity": 0.7244094488188977,
          "duration": 0.9619054833333678
        },
        {
          "name": "F#2",
          "midi": 42,
          "time": 212.8573025000047,
          "velocity": 0.6771653543307087,
          "duration": 0.047619083333330536
        },
        {
          "name": "D4",
          "midi": 62,
          "time": 213.00015975000468,
          "velocity": 0.84251968503937,
          "duration": 0.2619049583333606
        },
        {
          "name": "B3",
          "midi": 59,
          "time": 213.00015975000468,
          "velocity": 0.7716535433070866,
          "duration": 0.11904770833334055
        },
        {
          "name": "G3",
          "midi": 55,
          "time": 213.00015975000468,
          "velocity": 0.5590551181102362,
          "duration": 0.11904770833334055
        },
        {
          "name": "D3",
          "midi": 50,
          "time": 213.1430170000047,
          "velocity": 0.6299212598425197,
          "duration": 0.11904770833334055
        },
        {
          "name": "G3",
          "midi": 55,
          "time": 213.1430170000047,
          "velocity": 0.6850393700787402,
          "duration": 0.11904770833334055
        },
        {
          "name": "B3",
          "midi": 59,
          "time": 213.1430170000047,
          "velocity": 0.6850393700787402,
          "duration": 0.11904770833334055
        },
        {
          "name": "D4",
          "midi": 62,
          "time": 213.1430170000047,
          "velocity": 0.5826771653543307,
          "duration": 0.4047622083333522
        },
        {
          "name": "D2",
          "midi": 38,
          "time": 213.1430170000047,
          "velocity": 0.7716535433070866,
          "duration": 0.047619083333330536
        },
        {
          "name": "F#2",
          "midi": 42,
          "time": 213.1430170000047,
          "velocity": 0.6771653543307087,
          "duration": 0.07142862500001002
        },
        {
          "name": "G1",
          "midi": 31,
          "time": 213.42873150000472,
          "velocity": 0.7874015748031497,
          "duration": 0.047619083333330536
        },
        {
          "name": "G3",
          "midi": 55,
          "time": 213.42873150000472,
          "velocity": 0.7086614173228346,
          "duration": 0.11904770833334055
        },
        {
          "name": "B3",
          "midi": 59,
          "time": 213.42873150000472,
          "velocity": 0.8818897637795275,
          "duration": 0.11904770833334055
        },
        {
          "name": "D4",
          "midi": 62,
          "time": 213.42873150000472,
          "velocity": 0.6456692913385826,
          "duration": 0.28095259166667574
        },
        {
          "name": "B4",
          "midi": 71,
          "time": 213.42873150000472,
          "velocity": 0.6771653543307087,
          "duration": 0.2380954166666811
        },
        {
          "name": "D5",
          "midi": 74,
          "time": 213.42873150000472,
          "velocity": 0.6692913385826772,
          "duration": 0.2476192333333529
        },
        {
          "name": "B3",
          "midi": 59,
          "time": 213.42873150000472,
          "velocity": 0.6535433070866141,
          "duration": 0.2380954166666811
        },
        {
          "name": "G3",
          "midi": 55,
          "time": 213.42873150000472,
          "velocity": 0.7007874015748031,
          "duration": 0.2380954166666811
        },
        {
          "name": "C2",
          "midi": 36,
          "time": 213.42873150000472,
          "velocity": 0.84251968503937,
          "duration": 0.05714290000000233
        },
        {
          "name": "D2",
          "midi": 38,
          "time": 213.42873150000472,
          "velocity": 0.7716535433070866,
          "duration": 0.05714290000000233
        },
        {
          "name": "F#2",
          "midi": 42,
          "time": 213.42873150000472,
          "velocity": 0.6771653543307087,
          "duration": 0.05714290000000233
        },
        {
          "name": "B5",
          "midi": 83,
          "time": 213.57158875000474,
          "velocity": 0.6377952755905512,
          "duration": 0.5476194583333154
        },
        {
          "name": "G1",
          "midi": 31,
          "time": 213.71444600000473,
          "velocity": 0.7874015748031497,
          "duration": 0.047619083333330536
        },
        {
          "name": "B4",
          "midi": 71,
          "time": 213.71444600000473,
          "velocity": 0.7716535433070866,
          "duration": 0.223809691666645
        },
        {
          "name": "B3",
          "midi": 59,
          "time": 213.71444600000473,
          "velocity": 0.6614173228346457,
          "duration": 0.42857175000000325
        },
        {
          "name": "G3",
          "midi": 55,
          "time": 213.71444600000473,
          "velocity": 0.7165354330708661,
          "duration": 0.40476220833332377
        },
        {
          "name": "C2",
          "midi": 36,
          "time": 213.71444600000473,
          "velocity": 0.84251968503937,
          "duration": 0.07142862500001002
        },
        {
          "name": "F#2",
          "midi": 42,
          "time": 213.71444600000473,
          "velocity": 0.6771653543307087,
          "duration": 0.05714290000000233
        },
        {
          "name": "D5",
          "midi": 74,
          "time": 213.85730325000472,
          "velocity": 0.5669291338582677,
          "duration": 0.24761923333332447
        },
        {
          "name": "B5",
          "midi": 83,
          "time": 213.85730325000472,
          "velocity": 0.7559055118110236,
          "duration": 0.7190481583334076
        },
        {
          "name": "G1",
          "midi": 31,
          "time": 214.0001605000047,
          "velocity": 0.7874015748031497,
          "duration": 0.2714287750000324
        },
        {
          "name": "D3",
          "midi": 50,
          "time": 214.0001605000047,
          "velocity": 0.7952755905511811,
          "duration": 0.11904770833334055
        },
        {
          "name": "G3",
          "midi": 55,
          "time": 214.0001605000047,
          "velocity": 0.7086614173228346,
          "duration": 0.12857152500001234
        },
        {
          "name": "C2",
          "midi": 36,
          "time": 214.0001605000047,
          "velocity": 0.84251968503937,
          "duration": 0.28571450000004006
        },
        {
          "name": "F#2",
          "midi": 42,
          "time": 214.0001605000047,
          "velocity": 0.6771653543307087,
          "duration": 0.047619083333330536
        },
        {
          "name": "B4",
          "midi": 71,
          "time": 214.14301775000473,
          "velocity": 0.6299212598425197,
          "duration": 0.2619049583333606
        },
        {
          "name": "D5",
          "midi": 74,
          "time": 214.14301775000473,
          "velocity": 0.6141732283464567,
          "duration": 0.28571450000004006
        },
        {
          "name": "B1",
          "midi": 35,
          "time": 214.28587500000475,
          "velocity": 0.7874015748031497,
          "duration": 0.2619049583333606
        },
        {
          "name": "G3",
          "midi": 55,
          "time": 214.28587500000475,
          "velocity": 0.8110236220472441,
          "duration": 0.11904770833334055
        },
        {
          "name": "B3",
          "midi": 59,
          "time": 214.28587500000475,
          "velocity": 0.8976377952755905,
          "duration": 0.11904770833334055
        },
        {
          "name": "D4",
          "midi": 62,
          "time": 214.28587500000475,
          "velocity": 0.6141732283464567,
          "duration": 0.11904770833334055
        },
        {
          "name": "B5",
          "midi": 83,
          "time": 214.28587500000475,
          "velocity": 0.8346456692913385,
          "duration": 0.485714650000034
        },
        {
          "name": "B3",
          "midi": 59,
          "time": 214.28587500000475,
          "velocity": 0.6692913385826772,
          "duration": 0.22380969166667342
        },
        {
          "name": "G3",
          "midi": 55,
          "time": 214.28587500000475,
          "velocity": 0.7244094488188977,
          "duration": 0.2380954166666811
        },
        {
          "name": "D2",
          "midi": 38,
          "time": 214.28587500000475,
          "velocity": 0.7716535433070866,
          "duration": 0.07142862500001002
        },
        {
          "name": "F#2",
          "midi": 42,
          "time": 214.28587500000475,
          "velocity": 0.6771653543307087,
          "duration": 0.047619083333330536
        },
        {
          "name": "D2",
          "midi": 38,
          "time": 214.5715895000048,
          "velocity": 0.7874015748031497,
          "duration": 0.27142877500000395
        },
        {
          "name": "B3",
          "midi": 59,
          "time": 214.5715895000048,
          "velocity": 0.7637795275590551,
          "duration": 0.11904770833334055
        },
        {
          "name": "G3",
          "midi": 55,
          "time": 214.5715895000048,
          "velocity": 0.6299212598425197,
          "duration": 0.11904770833334055
        },
        {
          "name": "B4",
          "midi": 71,
          "time": 214.5715895000048,
          "velocity": 0.6062992125984252,
          "duration": 0.1523810666666634
        },
        {
          "name": "D5",
          "midi": 74,
          "time": 214.5715895000048,
          "velocity": 0.5984251968503937,
          "duration": 0.21428587500000162
        },
        {
          "name": "B5",
          "midi": 83,
          "time": 214.5715895000048,
          "velocity": 0.7244094488188977,
          "duration": 0.6047623583332893
        },
        {
          "name": "A3",
          "midi": 57,
          "time": 214.5715895000048,
          "velocity": 0.6771653543307087,
          "duration": 0.4380955666666466
        },
        {
          "name": "F#3",
          "midi": 54,
          "time": 214.5715895000048,
          "velocity": 0.7637795275590551,
          "duration": 0.366666941666665
        },
        {
          "name": "C2",
          "midi": 36,
          "time": 214.5715895000048,
          "velocity": 0.84251968503937,
          "duration": 0.07142862500001002
        },
        {
          "name": "F#2",
          "midi": 42,
          "time": 214.5715895000048,
          "velocity": 0.6771653543307087,
          "duration": 0.047619083333330536
        },
        {
          "name": "G1",
          "midi": 31,
          "time": 214.8573040000048,
          "velocity": 0.7874015748031497,
          "duration": 0.5809528166666666
        },
        {
          "name": "D3",
          "midi": 50,
          "time": 214.8573040000048,
          "velocity": 0.6850393700787402,
          "duration": 0.11904770833331213
        },
        {
          "name": "G3",
          "midi": 55,
          "time": 214.8573040000048,
          "velocity": 0.7952755905511811,
          "duration": 0.11904770833331213
        },
        {
          "name": "B3",
          "midi": 59,
          "time": 214.8573040000048,
          "velocity": 0.8661417322834646,
          "duration": 0.11904770833331213
        },
        {
          "name": "D2",
          "midi": 38,
          "time": 214.8573040000048,
          "velocity": 0.3700787401574803,
          "duration": 0.11904770833331213
        },
        {
          "name": "B4",
          "midi": 71,
          "time": 214.8573040000048,
          "velocity": 0.6377952755905512,
          "duration": 0.3571431249999648
        },
        {
          "name": "D5",
          "midi": 74,
          "time": 214.8573040000048,
          "velocity": 0.5511811023622047,
          "duration": 0.33333358333328533
        },
        {
          "name": "B5",
          "midi": 83,
          "time": 214.8573040000048,
          "velocity": 0.7716535433070866,
          "duration": 1.5238106666666908
        },
        {
          "name": "C2",
          "midi": 36,
          "time": 214.8573040000048,
          "velocity": 0.84251968503937,
          "duration": 0.5714289999999949
        },
        {
          "name": "F#2",
          "midi": 42,
          "time": 214.8573040000048,
          "velocity": 0.6771653543307087,
          "duration": 0.047619083333330536
        },
        {
          "name": "G3",
          "midi": 55,
          "time": 215.14301850000476,
          "velocity": 0.6771653543307087,
          "duration": 0.2619049583333606
        },
        {
          "name": "B3",
          "midi": 59,
          "time": 215.14301850000476,
          "velocity": 0.6850393700787402,
          "duration": 0.2619049583333606
        },
        {
          "name": "F#2",
          "midi": 42,
          "time": 215.14301850000476,
          "velocity": 0.6771653543307087,
          "duration": 0.047619083333330536
        },
        {
          "name": "D4",
          "midi": 62,
          "time": 215.28587575000478,
          "velocity": 0.84251968503937,
          "duration": 0.11904770833334055
        },
        {
          "name": "B3",
          "midi": 59,
          "time": 215.28587575000478,
          "velocity": 0.7716535433070866,
          "duration": 0.2619049583333606
        },
        {
          "name": "G3",
          "midi": 55,
          "time": 215.28587575000478,
          "velocity": 0.5590551181102362,
          "duration": 0.2619049583333606
        },
        {
          "name": "B4",
          "midi": 71,
          "time": 215.28587575000478,
          "velocity": 0.5748031496062992,
          "duration": 1.700001275000119
        },
        {
          "name": "D5",
          "midi": 74,
          "time": 215.28587575000478,
          "velocity": 0.5511811023622047,
          "duration": 1.6190488333334372
        },
        {
          "name": "B5",
          "midi": 83,
          "time": 215.28587575000478,
          "velocity": 0.6929133858267716,
          "duration": 1.4380963166667584
        },
        {
          "name": "D3",
          "midi": 50,
          "time": 215.4287330000048,
          "velocity": 0.6299212598425197,
          "duration": 0.11904770833334055
        },
        {
          "name": "G3",
          "midi": 55,
          "time": 215.4287330000048,
          "velocity": 0.6850393700787402,
          "duration": 0.4047622083333522
        },
        {
          "name": "B3",
          "midi": 59,
          "time": 215.4287330000048,
          "velocity": 0.6850393700787402,
          "duration": 0.4047622083333522
        },
        {
          "name": "D4",
          "midi": 62,
          "time": 215.4287330000048,
          "velocity": 0.5826771653543307,
          "duration": 0.11904770833334055
        },
        {
          "name": "D2",
          "midi": 38,
          "time": 215.4287330000048,
          "velocity": 0.7716535433070866,
          "duration": 0.047619083333330536
        },
        {
          "name": "F#2",
          "midi": 42,
          "time": 215.4287330000048,
          "velocity": 0.6771653543307087,
          "duration": 0.07142862500001002
        },
        {
          "name": "G1",
          "midi": 31,
          "time": 215.7144475000048,
          "velocity": 0.7874015748031497,
          "duration": 0.05714290000000233
        },
        {
          "name": "G3",
          "midi": 55,
          "time": 215.7144475000048,
          "velocity": 0.7086614173228346,
          "duration": 0.6904767083333638
        },
        {
          "name": "B3",
          "midi": 59,
          "time": 215.7144475000048,
          "velocity": 0.8818897637795275,
          "duration": 0.9761912083333755
        },
        {
          "name": "D4",
          "midi": 62,
          "time": 215.7144475000048,
          "velocity": 0.6456692913385826,
          "duration": 0.11904770833334055
        },
        {
          "name": "C2",
          "midi": 36,
          "time": 215.7144475000048,
          "velocity": 0.84251968503937,
          "duration": 0.05714290000000233
        },
        {
          "name": "D2",
          "midi": 38,
          "time": 215.7144475000048,
          "velocity": 0.7716535433070866,
          "duration": 0.05714290000000233
        },
        {
          "name": "F#2",
          "midi": 42,
          "time": 215.7144475000048,
          "velocity": 0.6771653543307087,
          "duration": 0.05714290000000233
        },
        {
          "name": "G1",
          "midi": 31,
          "time": 216.00016200000482,
          "velocity": 0.7874015748031497,
          "duration": 0.047619083333330536
        },
        {
          "name": "C2",
          "midi": 36,
          "time": 216.00016200000482,
          "velocity": 0.84251968503937,
          "duration": 0.07142862500001002
        },
        {
          "name": "F#2",
          "midi": 42,
          "time": 216.00016200000482,
          "velocity": 0.6771653543307087,
          "duration": 0.05714290000000233
        },
        {
          "name": "G1",
          "midi": 31,
          "time": 216.28587650000483,
          "velocity": 0.7874015748031497,
          "duration": 0.26190495833333216
        },
        {
          "name": "D3",
          "midi": 50,
          "time": 216.28587650000483,
          "velocity": 0.7952755905511811,
          "duration": 0.11904770833334055
        },
        {
          "name": "G3",
          "midi": 55,
          "time": 216.28587650000483,
          "velocity": 0.7086614173228346,
          "duration": 0.4047622083333522
        },
        {
          "name": "C2",
          "midi": 36,
          "time": 216.28587650000483,
          "velocity": 0.84251968503937,
          "duration": 0.28571450000001164
        },
        {
          "name": "F#2",
          "midi": 42,
          "time": 216.28587650000483,
          "velocity": 0.6771653543307087,
          "duration": 0.047619083333330536
        },
        {
          "name": "B5",
          "midi": 83,
          "time": 216.57159100000484,
          "velocity": 0.7244094488188977,
          "duration": 0.28571450000004006
        },
        {
          "name": "B1",
          "midi": 35,
          "time": 216.57159100000484,
          "velocity": 0.7874015748031497,
          "duration": 0.2619049583333606
        },
        {
          "name": "G3",
          "midi": 55,
          "time": 216.57159100000484,
          "velocity": 0.8110236220472441,
          "duration": 0.4047622083333806
        },
        {
          "name": "B3",
          "midi": 59,
          "time": 216.57159100000484,
          "velocity": 0.8976377952755905,
          "duration": 0.4047622083333806
        },
        {
          "name": "D4",
          "midi": 62,
          "time": 216.57159100000484,
          "velocity": 0.6141732283464567,
          "duration": 0.11904770833334055
        },
        {
          "name": "D2",
          "midi": 38,
          "time": 216.57159100000484,
          "velocity": 0.7716535433070866,
          "duration": 0.07142862500001002
        },
        {
          "name": "F#2",
          "midi": 42,
          "time": 216.57159100000484,
          "velocity": 0.6771653543307087,
          "duration": 0.047619083333330536
        },
        {
          "name": "A5",
          "midi": 81,
          "time": 216.71444825000486,
          "velocity": 0.7244094488188977,
          "duration": 0.20000015000002236
        },
        {
          "name": "G5",
          "midi": 79,
          "time": 216.85730550000488,
          "velocity": 0.7244094488188977,
          "duration": 0.26190495833333216
        },
        {
          "name": "D2",
          "midi": 38,
          "time": 216.85730550000488,
          "velocity": 0.7874015748031497,
          "duration": 0.27142877500000395
        },
        {
          "name": "B3",
          "midi": 59,
          "time": 216.85730550000488,
          "velocity": 0.7637795275590551,
          "duration": 0.26190495833333216
        },
        {
          "name": "G3",
          "midi": 55,
          "time": 216.85730550000488,
          "velocity": 0.6299212598425197,
          "duration": 0.26190495833333216
        },
        {
          "name": "C2",
          "midi": 36,
          "time": 216.85730550000488,
          "velocity": 0.84251968503937,
          "duration": 0.07142862500001002
        },
        {
          "name": "F#2",
          "midi": 42,
          "time": 216.85730550000488,
          "velocity": 0.6771653543307087,
          "duration": 0.047619083333330536
        },
        {
          "name": "G5",
          "midi": 79,
          "time": 217.1430200000049,
          "velocity": 0.7244094488188977,
          "duration": 0.3095240416666911
        },
        {
          "name": "E2",
          "midi": 40,
          "time": 217.1430200000049,
          "velocity": 0.7874015748031497,
          "duration": 0.8428577750000557
        },
        {
          "name": "E3",
          "midi": 52,
          "time": 217.1430200000049,
          "velocity": 0.7401574803149606,
          "duration": 0.11904770833334055
        },
        {
          "name": "B2",
          "midi": 47,
          "time": 217.1430200000049,
          "velocity": 0.7086614173228346,
          "duration": 0.11904770833334055
        },
        {
          "name": "G3",
          "midi": 55,
          "time": 217.1430200000049,
          "velocity": 0.7952755905511811,
          "duration": 0.11904770833334055
        },
        {
          "name": "B3",
          "midi": 59,
          "time": 217.1430200000049,
          "velocity": 0.8031496062992126,
          "duration": 0.11904770833334055
        },
        {
          "name": "E4",
          "midi": 64,
          "time": 217.1430200000049,
          "velocity": 0.7795275590551181,
          "duration": 0.11904770833334055
        },
        {
          "name": "C2",
          "midi": 36,
          "time": 217.1430200000049,
          "velocity": 0.84251968503937,
          "duration": 0.5714290000000517
        },
        {
          "name": "F#2",
          "midi": 42,
          "time": 217.1430200000049,
          "velocity": 0.6771653543307087,
          "duration": 0.047619083333330536
        },
        {
          "name": "D4",
          "midi": 62,
          "time": 217.1430200000049,
          "velocity": 0.007874015748031496,
          "duration": 0.5666670916667158
        },
        {
          "name": "A5",
          "midi": 81,
          "time": 217.4287345000049,
          "velocity": 0.7244094488188977,
          "duration": 0.29523831666671185
        },
        {
          "name": "F#2",
          "midi": 42,
          "time": 217.4287345000049,
          "velocity": 0.6771653543307087,
          "duration": 0.04761908333335896
        },
        {
          "name": "E4",
          "midi": 64,
          "time": 217.57159175000493,
          "velocity": 0.7952755905511811,
          "duration": 0.11904770833334055
        },
        {
          "name": "B3",
          "midi": 59,
          "time": 217.57159175000493,
          "velocity": 0.7086614173228346,
          "duration": 0.11904770833334055
        },
        {
          "name": "G3",
          "midi": 55,
          "time": 217.57159175000493,
          "velocity": 0.5905511811023622,
          "duration": 0.11904770833334055
        },
        {
          "name": "G5",
          "midi": 79,
          "time": 217.71444900000495,
          "velocity": 0.7244094488188977,
          "duration": 0.5476194583333722
        },
        {
          "name": "B2",
          "midi": 47,
          "time": 217.71444900000495,
          "velocity": 0.7086614173228346,
          "duration": 0.11904770833334055
        },
        {
          "name": "E3",
          "midi": 52,
          "time": 217.71444900000495,
          "velocity": 0.8661417322834646,
          "duration": 0.11904770833334055
        },
        {
          "name": "G3",
          "midi": 55,
          "time": 217.71444900000495,
          "velocity": 0.8740157480314961,
          "duration": 0.11904770833334055
        },
        {
          "name": "B3",
          "midi": 59,
          "time": 217.71444900000495,
          "velocity": 0.8661417322834646,
          "duration": 0.11904770833334055
        },
        {
          "name": "E4",
          "midi": 64,
          "time": 217.71444900000495,
          "velocity": 0.7874015748031497,
          "duration": 0.11904770833334055
        },
        {
          "name": "D2",
          "midi": 38,
          "time": 217.71444900000495,
          "velocity": 0.7716535433070866,
          "duration": 0.047619083333330536
        },
        {
          "name": "F#2",
          "midi": 42,
          "time": 217.71444900000495,
          "velocity": 0.6771653543307087,
          "duration": 0.07142862500001002
        },
        {
          "name": "B1",
          "midi": 35,
          "time": 218.00016350000496,
          "velocity": 0.7874015748031497,
          "duration": 0.28571450000004006
        },
        {
          "name": "G3",
          "midi": 55,
          "time": 218.00016350000496,
          "velocity": 0.9291338582677166,
          "duration": 0.11904770833334055
        },
        {
          "name": "B3",
          "midi": 59,
          "time": 218.00016350000496,
          "velocity": 0.9606299212598425,
          "duration": 0.11904770833334055
        },
        {
          "name": "E4",
          "midi": 64,
          "time": 218.00016350000496,
          "velocity": 0.8818897637795275,
          "duration": 0.11904770833334055
        },
        {
          "name": "B4",
          "midi": 71,
          "time": 218.00016350000496,
          "velocity": 0.5511811023622047,
          "duration": 0.2476192333333529
        },
        {
          "name": "E5",
          "midi": 76,
          "time": 218.00016350000496,
          "velocity": 0.6141732283464567,
          "duration": 0.2380954166666811
        },
        {
          "name": "G5",
          "midi": 79,
          "time": 218.00016350000496,
          "velocity": 0.6614173228346457,
          "duration": 0.604762358333403
        },
        {
          "name": "B3",
          "midi": 59,
          "time": 218.00016350000496,
          "velocity": 0.6535433070866141,
          "duration": 0.2380954166666811
        },
        {
          "name": "G3",
          "midi": 55,
          "time": 218.00016350000496,
          "velocity": 0.7007874015748031,
          "duration": 0.22380969166667342
        },
        {
          "name": "C2",
          "midi": 36,
          "time": 218.00016350000496,
          "velocity": 0.84251968503937,
          "duration": 0.05714290000000233
        },
        {
          "name": "D2",
          "midi": 38,
          "time": 218.00016350000496,
          "velocity": 0.7716535433070866,
          "duration": 0.05714290000000233
        },
        {
          "name": "F#2",
          "midi": 42,
          "time": 218.00016350000496,
          "velocity": 0.6771653543307087,
          "duration": 0.05714290000000233
        },
        {
          "name": "E2",
          "midi": 40,
          "time": 218.285878000005,
          "velocity": 0.7874015748031497,
          "duration": 0.05714290000000233
        },
        {
          "name": "B4",
          "midi": 71,
          "time": 218.285878000005,
          "velocity": 0.6771653543307087,
          "duration": 0.28571450000001164
        },
        {
          "name": "E5",
          "midi": 76,
          "time": 218.285878000005,
          "velocity": 0.7401574803149606,
          "duration": 0.29523831666668343
        },
        {
          "name": "G5",
          "midi": 79,
          "time": 218.285878000005,
          "velocity": 0.6771653543307087,
          "duration": 0.7714291500001025
        },
        {
          "name": "B3",
          "midi": 59,
          "time": 218.285878000005,
          "velocity": 0.7795275590551181,
          "duration": 0.45238129166673957
        },
        {
          "name": "G3",
          "midi": 55,
          "time": 218.285878000005,
          "velocity": 0.7637795275590551,
          "duration": 0.4380955666667319
        },
        {
          "name": "C2",
          "midi": 36,
          "time": 218.285878000005,
          "velocity": 0.84251968503937,
          "duration": 0.07142862500001002
        },
        {
          "name": "F#2",
          "midi": 42,
          "time": 218.285878000005,
          "velocity": 0.6771653543307087,
          "duration": 0.05714290000000233
        },
        {
          "name": "E2",
          "midi": 40,
          "time": 218.571592500005,
          "velocity": 0.7874015748031497,
          "duration": 0.5571432750000724
        },
        {
          "name": "B2",
          "midi": 47,
          "time": 218.571592500005,
          "velocity": 0.8740157480314961,
          "duration": 0.11904770833336897
        },
        {
          "name": "E3",
          "midi": 52,
          "time": 218.571592500005,
          "velocity": 0.7244094488188977,
          "duration": 0.11904770833336897
        },
        {
          "name": "C2",
          "midi": 36,
          "time": 218.571592500005,
          "velocity": 0.84251968503937,
          "duration": 0.2857145000000685
        },
        {
          "name": "F#2",
          "midi": 42,
          "time": 218.571592500005,
          "velocity": 0.6771653543307087,
          "duration": 0.04761908333335896
        },
        {
          "name": "G5",
          "midi": 79,
          "time": 218.71444975000506,
          "velocity": 0.6692913385826772,
          "duration": 0.7714291500000456
        },
        {
          "name": "B4",
          "midi": 71,
          "time": 218.71444975000506,
          "velocity": 0.6299212598425197,
          "duration": 0.2714287750000324
        },
        {
          "name": "E5",
          "midi": 76,
          "time": 218.71444975000506,
          "velocity": 0.7401574803149606,
          "duration": 0.29523831666671185
        },
        {
          "name": "E3",
          "midi": 52,
          "time": 218.85730700000508,
          "velocity": 0.8346456692913385,
          "duration": 0.11904770833334055
        },
        {
          "name": "G3",
          "midi": 55,
          "time": 218.85730700000508,
          "velocity": 0.8818897637795275,
          "duration": 0.11904770833334055
        },
        {
          "name": "B3",
          "midi": 59,
          "time": 218.85730700000508,
          "velocity": 0.9291338582677166,
          "duration": 0.11904770833334055
        },
        {
          "name": "E4",
          "midi": 64,
          "time": 218.85730700000508,
          "velocity": 0.9291338582677166,
          "duration": 0.11904770833334055
        },
        {
          "name": "B3",
          "midi": 59,
          "time": 218.85730700000508,
          "velocity": 0.7637795275590551,
          "duration": 0.2380954166666811
        },
        {
          "name": "G3",
          "midi": 55,
          "time": 218.85730700000508,
          "velocity": 0.7637795275590551,
          "duration": 0.2380954166666811
        },
        {
          "name": "D2",
          "midi": 38,
          "time": 218.85730700000508,
          "velocity": 0.7716535433070866,
          "duration": 0.07142862500001002
        },
        {
          "name": "F#2",
          "midi": 42,
          "time": 218.85730700000508,
          "velocity": 0.6771653543307087,
          "duration": 0.047619083333330536
        },
        {
          "name": "B1",
          "midi": 35,
          "time": 219.1430215000051,
          "velocity": 0.7874015748031497,
          "duration": 0.27142877500000395
        },
        {
          "name": "B3",
          "midi": 59,
          "time": 219.1430215000051,
          "velocity": 0.7007874015748031,
          "duration": 0.11904770833334055
        },
        {
          "name": "E4",
          "midi": 64,
          "time": 219.1430215000051,
          "velocity": 0.5826771653543307,
          "duration": 0.11904770833334055
        },
        {
          "name": "B4",
          "midi": 71,
          "time": 219.1430215000051,
          "velocity": 0.6771653543307087,
          "duration": 0.26190495833333216
        },
        {
          "name": "D5",
          "midi": 74,
          "time": 219.1430215000051,
          "velocity": 0.7401574803149606,
          "duration": 0.27142877500000395
        },
        {
          "name": "C#5",
          "midi": 73,
          "time": 219.1430215000051,
          "velocity": 0.5984251968503937,
          "duration": 0.03333335833332285
        },
        {
          "name": "A3",
          "midi": 57,
          "time": 219.1430215000051,
          "velocity": 0.6771653543307087,
          "duration": 0.4619051083333545
        },
        {
          "name": "F#3",
          "midi": 54,
          "time": 219.1430215000051,
          "velocity": 0.7637795275590551,
          "duration": 0.4047622083333522
        },
        {
          "name": "C2",
          "midi": 36,
          "time": 219.1430215000051,
          "velocity": 0.84251968503937,
          "duration": 0.07142862500001002
        },
        {
          "name": "F#2",
          "midi": 42,
          "time": 219.1430215000051,
          "velocity": 0.6771653543307087,
          "duration": 0.047619083333330536
        },
        {
          "name": "E2",
          "midi": 40,
          "time": 219.4287360000051,
          "velocity": 0.7874015748031497,
          "duration": 0.8666673166667351
        },
        {
          "name": "B3",
          "midi": 59,
          "time": 219.4287360000051,
          "velocity": 0.7401574803149606,
          "duration": 0.11904770833334055
        },
        {
          "name": "E4",
          "midi": 64,
          "time": 219.4287360000051,
          "velocity": 0.7244094488188977,
          "duration": 0.11904770833334055
        },
        {
          "name": "G3",
          "midi": 55,
          "time": 219.4287360000051,
          "velocity": 0.6850393700787402,
          "duration": 0.11904770833334055
        },
        {
          "name": "D5",
          "midi": 74,
          "time": 219.4287360000051,
          "velocity": 0.7637795275590551,
          "duration": 0.3809526666666727
        },
        {
          "name": "B4",
          "midi": 71,
          "time": 219.4287360000051,
          "velocity": 0.8110236220472441,
          "duration": 0.3333335833333422
        },
        {
          "name": "C2",
          "midi": 36,
          "time": 219.4287360000051,
          "velocity": 0.84251968503937,
          "duration": 0.5714290000000517
        },
        {
          "name": "F#2",
          "midi": 42,
          "time": 219.4287360000051,
          "velocity": 0.6771653543307087,
          "duration": 0.047619083333330536
        },
        {
          "name": "B3",
          "midi": 59,
          "time": 219.7144505000051,
          "velocity": 0.6062992125984252,
          "duration": 0.11904770833334055
        },
        {
          "name": "E4",
          "midi": 64,
          "time": 219.7144505000051,
          "velocity": 0.5826771653543307,
          "duration": 0.11904770833334055
        },
        {
          "name": "G3",
          "midi": 55,
          "time": 219.7144505000051,
          "velocity": 0.7401574803149606,
          "duration": 1.8904776083334411
        },
        {
          "name": "B3",
          "midi": 59,
          "time": 219.7144505000051,
          "velocity": 0.8267716535433071,
          "duration": 0.2619049583333606
        },
        {
          "name": "F#2",
          "midi": 42,
          "time": 219.7144505000051,
          "velocity": 0.6771653543307087,
          "duration": 0.047619083333330536
        },
        {
          "name": "E4",
          "midi": 64,
          "time": 219.85730775000513,
          "velocity": 0.7401574803149606,
          "duration": 0.11904770833334055
        },
        {
          "name": "B3",
          "midi": 59,
          "time": 219.85730775000513,
          "velocity": 0.5826771653543307,
          "duration": 0.2619049583333606
        },
        {
          "name": "B4",
          "midi": 71,
          "time": 219.85730775000513,
          "velocity": 0.8110236220472441,
          "duration": 0.3333335833333706
        },
        {
          "name": "E5",
          "midi": 76,
          "time": 219.85730775000513,
          "velocity": 0.7559055118110236,
          "duration": 0.36666694166669345
        },
        {
          "name": "B3",
          "midi": 59,
          "time": 220.00016500000515,
          "velocity": 0.7086614173228346,
          "duration": 0.4047622083333522
        },
        {
          "name": "E4",
          "midi": 64,
          "time": 220.00016500000515,
          "velocity": 0.7401574803149606,
          "duration": 0.11904770833334055
        },
        {
          "name": "D2",
          "midi": 38,
          "time": 220.00016500000515,
          "velocity": 0.7716535433070866,
          "duration": 0.047619083333330536
        },
        {
          "name": "F#2",
          "midi": 42,
          "time": 220.00016500000515,
          "velocity": 0.6771653543307087,
          "duration": 0.07142862500001002
        },
        {
          "name": "B1",
          "midi": 35,
          "time": 220.28587950000517,
          "velocity": 0.7874015748031497,
          "duration": 0.27142877500000395
        },
        {
          "name": "E3",
          "midi": 52,
          "time": 220.28587950000517,
          "velocity": 0.6141732283464567,
          "duration": 0.11904770833334055
        },
        {
          "name": "B3",
          "midi": 59,
          "time": 220.28587950000517,
          "velocity": 0.7401574803149606,
          "duration": 0.9761912083333755
        },
        {
          "name": "E4",
          "midi": 64,
          "time": 220.28587950000517,
          "velocity": 0.7559055118110236,
          "duration": 0.11904770833334055
        },
        {
          "name": "B4",
          "midi": 71,
          "time": 220.28587950000517,
          "velocity": 0.8818897637795275,
          "duration": 1.2238104416667284
        },
        {
          "name": "C2",
          "midi": 36,
          "time": 220.28587950000517,
          "velocity": 0.84251968503937,
          "duration": 0.05714290000000233
        },
        {
          "name": "D2",
          "midi": 38,
          "time": 220.28587950000517,
          "velocity": 0.7716535433070866,
          "duration": 0.05714290000000233
        },
        {
          "name": "F#2",
          "midi": 42,
          "time": 220.28587950000517,
          "velocity": 0.6771653543307087,
          "duration": 0.05714290000000233
        },
        {
          "name": "E2",
          "midi": 40,
          "time": 220.57159400000518,
          "velocity": 0.7874015748031497,
          "duration": 0.03333335833332285
        },
        {
          "name": "C2",
          "midi": 36,
          "time": 220.57159400000518,
          "velocity": 0.84251968503937,
          "duration": 0.07142862500001002
        },
        {
          "name": "F#2",
          "midi": 42,
          "time": 220.57159400000518,
          "velocity": 0.6771653543307087,
          "duration": 0.05714290000000233
        },
        {
          "name": "E2",
          "midi": 40,
          "time": 220.8573085000052,
          "velocity": 0.7874015748031497,
          "duration": 0.29523831666668343
        },
        {
          "name": "E3",
          "midi": 52,
          "time": 220.8573085000052,
          "velocity": 0.6614173228346457,
          "duration": 0.11904770833334055
        },
        {
          "name": "B2",
          "midi": 47,
          "time": 220.8573085000052,
          "velocity": 0.6299212598425197,
          "duration": 0.11904770833334055
        },
        {
          "name": "C2",
          "midi": 36,
          "time": 220.8573085000052,
          "velocity": 0.84251968503937,
          "duration": 0.28571450000001164
        },
        {
          "name": "F#2",
          "midi": 42,
          "time": 220.8573085000052,
          "velocity": 0.6771653543307087,
          "duration": 0.047619083333330536
        },
        {
          "name": "E5",
          "midi": 76,
          "time": 221.1430230000052,
          "velocity": 0.7244094488188977,
          "duration": 0.29523831666668343
        },
        {
          "name": "B1",
          "midi": 35,
          "time": 221.1430230000052,
          "velocity": 0.7874015748031497,
          "duration": 0.2380954166666811
        },
        {
          "name": "B3",
          "midi": 59,
          "time": 221.1430230000052,
          "velocity": 0.8110236220472441,
          "duration": 0.4047622083333522
        },
        {
          "name": "E4",
          "midi": 64,
          "time": 221.1430230000052,
          "velocity": 0.8110236220472441,
          "duration": 0.11904770833334055
        },
        {
          "name": "D2",
          "midi": 38,
          "time": 221.1430230000052,
          "velocity": 0.7716535433070866,
          "duration": 0.07142862500001002
        },
        {
          "name": "F#2",
          "midi": 42,
          "time": 221.1430230000052,
          "velocity": 0.6771653543307087,
          "duration": 0.047619083333330536
        },
        {
          "name": "D4",
          "midi": 62,
          "time": 221.1430230000052,
          "velocity": 0.007874015748031496,
          "duration": 0.8523815916667274
        },
        {
          "name": "F#5",
          "midi": 78,
          "time": 221.4287375000052,
          "velocity": 0.7244094488188977,
          "duration": 0.3095240416666911
        },
        {
          "name": "D2",
          "midi": 38,
          "time": 221.4287375000052,
          "velocity": 0.7874015748031497,
          "duration": 0.28571450000001164
        },
        {
          "name": "B3",
          "midi": 59,
          "time": 221.4287375000052,
          "velocity": 0.7952755905511811,
          "duration": 0.17619060833334288
        },
        {
          "name": "C2",
          "midi": 36,
          "time": 221.4287375000052,
          "velocity": 0.84251968503937,
          "duration": 0.07142862500001002
        },
        {
          "name": "F#2",
          "midi": 42,
          "time": 221.4287375000052,
          "velocity": 0.6771653543307087,
          "duration": 0.047619083333330536
        },
        {
          "name": "E5",
          "midi": 76,
          "time": 221.71445200000522,
          "velocity": 0.7244094488188977,
          "duration": 0.5238099166667212
        },
        {
          "name": "C2",
          "midi": 36,
          "time": 221.71445200000522,
          "velocity": 0.7874015748031497,
          "duration": 0.5714290000000801
        },
        {
          "name": "C3",
          "midi": 48,
          "time": 221.71445200000522,
          "velocity": 0.6614173228346457,
          "duration": 0.11904770833336897
        },
        {
          "name": "G3",
          "midi": 55,
          "time": 221.71445200000522,
          "velocity": 0.905511811023622,
          "duration": 0.11904770833336897
        },
        {
          "name": "C4",
          "midi": 60,
          "time": 221.71445200000522,
          "velocity": 0.9133858267716536,
          "duration": 0.11904770833336897
        },
        {
          "name": "E4",
          "midi": 64,
          "time": 221.71445200000522,
          "velocity": 0.8582677165354331,
          "duration": 0.11904770833336897
        },
        {
          "name": "C2",
          "midi": 36,
          "time": 221.71445200000522,
          "velocity": 0.84251968503937,
          "duration": 0.8809530416667712
        },
        {
          "name": "F#2",
          "midi": 42,
          "time": 221.71445200000522,
          "velocity": 0.6771653543307087,
          "duration": 0.04761908333335896
        },
        {
          "name": "A3",
          "midi": 57,
          "time": 221.71445200000522,
          "velocity": 0.5669291338582677,
          "duration": 1.8333347083335525
        },
        {
          "name": "C4",
          "midi": 60,
          "time": 222.00016650000526,
          "velocity": 0.6299212598425197,
          "duration": 0.11904770833334055
        },
        {
          "name": "E4",
          "midi": 64,
          "time": 222.00016650000526,
          "velocity": 0.6456692913385826,
          "duration": 0.11904770833334055
        },
        {
          "name": "F#2",
          "midi": 42,
          "time": 222.00016650000526,
          "velocity": 0.6771653543307087,
          "duration": 0.047619083333330536
        },
        {
          "name": "E4",
          "midi": 64,
          "time": 222.14302375000528,
          "velocity": 0.8582677165354331,
          "duration": 0.11904770833334055
        },
        {
          "name": "D5",
          "midi": 74,
          "time": 222.2858810000053,
          "velocity": 0.7244094488188977,
          "duration": 0.29523831666668343
        },
        {
          "name": "G3",
          "midi": 55,
          "time": 222.2858810000053,
          "velocity": 0.6299212598425197,
          "duration": 0.11904770833334055
        },
        {
          "name": "C4",
          "midi": 60,
          "time": 222.2858810000053,
          "velocity": 0.8267716535433071,
          "duration": 0.11904770833334055
        },
        {
          "name": "E4",
          "midi": 64,
          "time": 222.2858810000053,
          "velocity": 0.8110236220472441,
          "duration": 0.11904770833334055
        },
        {
          "name": "D2",
          "midi": 38,
          "time": 222.2858810000053,
          "velocity": 0.7716535433070866,
          "duration": 0.047619083333330536
        },
        {
          "name": "F#2",
          "midi": 42,
          "time": 222.2858810000053,
          "velocity": 0.6771653543307087,
          "duration": 0.07142862500001002
        },
        {
          "name": "C5",
          "midi": 72,
          "time": 222.57159550000532,
          "velocity": 0.7244094488188977,
          "duration": 0.05714290000000233
        },
        {
          "name": "G1",
          "midi": 31,
          "time": 222.57159550000532,
          "velocity": 0.7874015748031497,
          "duration": 0.07142862500001002
        },
        {
          "name": "C3",
          "midi": 48,
          "time": 222.57159550000532,
          "velocity": 0.7165354330708661,
          "duration": 0.11904770833334055
        },
        {
          "name": "G3",
          "midi": 55,
          "time": 222.57159550000532,
          "velocity": 0.8582677165354331,
          "duration": 0.11904770833334055
        },
        {
          "name": "C4",
          "midi": 60,
          "time": 222.57159550000532,
          "velocity": 0.8740157480314961,
          "duration": 0.11904770833334055
        },
        {
          "name": "E5",
          "midi": 76,
          "time": 222.57159550000532,
          "velocity": 0.8582677165354331,
          "duration": 0.05714290000000233
        },
        {
          "name": "C5",
          "midi": 72,
          "time": 222.57159550000532,
          "velocity": 0.7795275590551181,
          "duration": 0.20000015000002236
        },
        {
          "name": "C6",
          "midi": 84,
          "time": 222.57159550000532,
          "velocity": 0.7637795275590551,
          "duration": 0.07142862500001002
        },
        {
          "name": "C4",
          "midi": 60,
          "time": 222.57159550000532,
          "velocity": 0.6692913385826772,
          "duration": 0.23809541666670953
        },
        {
          "name": "E4",
          "midi": 64,
          "time": 222.57159550000532,
          "velocity": 0.7795275590551181,
          "duration": 0.23809541666670953
        },
        {
          "name": "C2",
          "midi": 36,
          "time": 222.57159550000532,
          "velocity": 0.84251968503937,
          "duration": 0.05714290000000233
        },
        {
          "name": "D2",
          "midi": 38,
          "time": 222.57159550000532,
          "velocity": 0.7716535433070866,
          "duration": 0.05714290000000233
        },
        {
          "name": "F#2",
          "midi": 42,
          "time": 222.57159550000532,
          "velocity": 0.6771653543307087,
          "duration": 0.05714290000000233
        },
        {
          "name": "E5",
          "midi": 76,
          "time": 222.71445275000534,
          "velocity": 0.8582677165354331,
          "duration": 0.07142862500001002
        },
        {
          "name": "C6",
          "midi": 84,
          "time": 222.71445275000534,
          "velocity": 0.7952755905511811,
          "duration": 0.08095244166668181
        },
        {
          "name": "C5",
          "midi": 72,
          "time": 222.71445275000534,
          "velocity": 0.7165354330708661,
          "duration": 0.35714312500002166
        },
        {
          "name": "C2",
          "midi": 36,
          "time": 222.85731000000536,
          "velocity": 0.7874015748031497,
          "duration": 0.03333335833332285
        },
        {
          "name": "C6",
          "midi": 84,
          "time": 222.85731000000536,
          "velocity": 0.49606299212598426,
          "duration": 0.24761923333332447
        },
        {
          "name": "C5",
          "midi": 72,
          "time": 222.85731000000536,
          "velocity": 0.5669291338582677,
          "duration": 0.3571431250000501
        },
        {
          "name": "E5",
          "midi": 76,
          "time": 222.85731000000536,
          "velocity": 0.7401574803149606,
          "duration": 0.21428587500000162
        },
        {
          "name": "E4",
          "midi": 64,
          "time": 222.85731000000536,
          "velocity": 0.7952755905511811,
          "duration": 0.28571450000001164
        },
        {
          "name": "C4",
          "midi": 60,
          "time": 222.85731000000536,
          "velocity": 0.7716535433070866,
          "duration": 0.26190495833333216
        },
        {
          "name": "C2",
          "midi": 36,
          "time": 222.85731000000536,
          "velocity": 0.84251968503937,
          "duration": 0.07142862500001002
        },
        {
          "name": "F#2",
          "midi": 42,
          "time": 222.85731000000536,
          "velocity": 0.6771653543307087,
          "duration": 0.05714290000000233
        },
        {
          "name": "C2",
          "midi": 36,
          "time": 223.14302450000537,
          "velocity": 0.7874015748031497,
          "duration": 0.2857145000000685
        },
        {
          "name": "C3",
          "midi": 48,
          "time": 223.14302450000537,
          "velocity": 0.6692913385826772,
          "duration": 0.11904770833336897
        },
        {
          "name": "G3",
          "midi": 55,
          "time": 223.14302450000537,
          "velocity": 0.7559055118110236,
          "duration": 0.11904770833336897
        },
        {
          "name": "C5",
          "midi": 72,
          "time": 223.14302450000537,
          "velocity": 0.6771653543307087,
          "duration": 0.20000015000005078
        },
        {
          "name": "G5",
          "midi": 79,
          "time": 223.14302450000537,
          "velocity": 0.84251968503937,
          "duration": 0.07142862500003844
        },
        {
          "name": "E5",
          "midi": 76,
          "time": 223.14302450000537,
          "velocity": 0.5669291338582677,
          "duration": 0.02380954166667948
        },
        {
          "name": "B3",
          "midi": 59,
          "time": 223.14302450000537,
          "velocity": 0.6535433070866141,
          "duration": 0.24761923333340974
        },
        {
          "name": "D4",
          "midi": 62,
          "time": 223.14302450000537,
          "velocity": 0.5669291338582677,
          "duration": 0.24761923333340974
        },
        {
          "name": "C2",
          "midi": 36,
          "time": 223.14302450000537,
          "velocity": 0.84251968503937,
          "duration": 0.5714290000001085
        },
        {
          "name": "F#2",
          "midi": 42,
          "time": 223.14302450000537,
          "velocity": 0.6771653543307087,
          "duration": 0.04761908333335896
        },
        {
          "name": "G5",
          "midi": 79,
          "time": 223.28588175000542,
          "velocity": 0.7559055118110236,
          "duration": 0.08095244166668181
        },
        {
          "name": "C5",
          "midi": 72,
          "time": 223.28588175000542,
          "velocity": 0.7007874015748031,
          "duration": 0.28571450000004006
        },
        {
          "name": "E5",
          "midi": 76,
          "time": 223.28588175000542,
          "velocity": 0.8346456692913385,
          "duration": 0.047619083333330536
        },
        {
          "name": "E4",
          "midi": 64,
          "time": 223.42873900000544,
          "velocity": 0.7322834645669292,
          "duration": 0.11904770833334055
        },
        {
          "name": "G3",
          "midi": 55,
          "time": 223.42873900000544,
          "velocity": 0.7795275590551181,
          "duration": 0.11904770833334055
        },
        {
          "name": "C4",
          "midi": 60,
          "time": 223.42873900000544,
          "velocity": 0.8346456692913385,
          "duration": 0.11904770833334055
        },
        {
          "name": "E5",
          "midi": 76,
          "time": 223.42873900000544,
          "velocity": 0.7401574803149606,
          "duration": 0.12857152500001234
        },
        {
          "name": "G5",
          "midi": 79,
          "time": 223.42873900000544,
          "velocity": 0.7086614173228346,
          "duration": 0.1666667916666995
        },
        {
          "name": "C5",
          "midi": 72,
          "time": 223.42873900000544,
          "velocity": 0.6535433070866141,
          "duration": 0.3428574000000424
        },
        {
          "name": "A3",
          "midi": 57,
          "time": 223.42873900000544,
          "velocity": 0.6220472440944882,
          "duration": 0.2714287750000324
        },
        {
          "name": "C4",
          "midi": 60,
          "time": 223.42873900000544,
          "velocity": 0.6771653543307087,
          "duration": 0.28571450000004006
        },
        {
          "name": "D2",
          "midi": 38,
          "time": 223.42873900000544,
          "velocity": 0.7716535433070866,
          "duration": 0.07142862500001002
        },
        {
          "name": "F#2",
          "midi": 42,
          "time": 223.42873900000544,
          "velocity": 0.6771653543307087,
          "duration": 0.047619083333330536
        },
        {
          "name": "G1",
          "midi": 31,
          "time": 223.71445350000548,
          "velocity": 0.7874015748031497,
          "duration": 0.05714290000000233
        },
        {
          "name": "E5",
          "midi": 76,
          "time": 223.71445350000548,
          "velocity": 0.8818897637795275,
          "duration": 0.05714290000000233
        },
        {
          "name": "C5",
          "midi": 72,
          "time": 223.71445350000548,
          "velocity": 0.7165354330708661,
          "duration": 0.14285725000002003
        },
        {
          "name": "B3",
          "midi": 59,
          "time": 223.71445350000548,
          "velocity": 0.6850393700787402,
          "duration": 0.5095241916667135
        },
        {
          "name": "D4",
          "midi": 62,
          "time": 223.71445350000548,
          "velocity": 0.6771653543307087,
          "duration": 0.5000003750000417
        },
        {
          "name": "C2",
          "midi": 36,
          "time": 223.71445350000548,
          "velocity": 0.84251968503937,
          "duration": 0.07142862500001002
        },
        {
          "name": "F#2",
          "midi": 42,
          "time": 223.71445350000548,
          "velocity": 0.6771653543307087,
          "duration": 0.047619083333330536
        },
        {
          "name": "E5",
          "midi": 76,
          "time": 223.8573107500055,
          "velocity": 0.8110236220472441,
          "duration": 0.07142862500001002
        },
        {
          "name": "C5",
          "midi": 72,
          "time": 223.8573107500055,
          "velocity": 0.6771653543307087,
          "duration": 0.05714290000000233
        },
        {
          "name": "C2",
          "midi": 36,
          "time": 224.00016800000552,
          "velocity": 0.7874015748031497,
          "duration": 0.5714290000000517
        },
        {
          "name": "C3",
          "midi": 48,
          "time": 224.00016800000552,
          "velocity": 0.6614173228346457,
          "duration": 0.11904770833334055
        },
        {
          "name": "G3",
          "midi": 55,
          "time": 224.00016800000552,
          "velocity": 0.905511811023622,
          "duration": 0.11904770833334055
        },
        {
          "name": "C4",
          "midi": 60,
          "time": 224.00016800000552,
          "velocity": 0.9133858267716536,
          "duration": 0.11904770833334055
        },
        {
          "name": "E4",
          "midi": 64,
          "time": 224.00016800000552,
          "velocity": 0.8582677165354331,
          "duration": 0.11904770833334055
        },
        {
          "name": "E5",
          "midi": 76,
          "time": 224.00016800000552,
          "velocity": 0.8582677165354331,
          "duration": 0.8190482333334046
        },
        {
          "name": "C5",
          "midi": 72,
          "time": 224.00016800000552,
          "velocity": 0.6850393700787402,
          "duration": 0.8095244166667328
        },
        {
          "name": "C2",
          "midi": 36,
          "time": 224.00016800000552,
          "velocity": 0.84251968503937,
          "duration": 0.8809530416667428
        },
        {
          "name": "F#2",
          "midi": 42,
          "time": 224.00016800000552,
          "velocity": 0.6771653543307087,
          "duration": 0.047619083333330536
        },
        {
          "name": "C4",
          "midi": 60,
          "time": 224.28588250000553,
          "velocity": 0.6299212598425197,
          "duration": 0.11904770833334055
        },
        {
          "name": "E4",
          "midi": 64,
          "time": 224.28588250000553,
          "velocity": 0.6456692913385826,
          "duration": 0.11904770833334055
        },
        {
          "name": "C4",
          "midi": 60,
          "time": 224.28588250000553,
          "velocity": 0.6771653543307087,
          "duration": 0.4047622083333806
        },
        {
          "name": "E4",
          "midi": 64,
          "time": 224.28588250000553,
          "velocity": 0.7480314960629921,
          "duration": 0.2619049583333606
        },
        {
          "name": "F#2",
          "midi": 42,
          "time": 224.28588250000553,
          "velocity": 0.6771653543307087,
          "duration": 0.047619083333330536
        },
        {
          "name": "E4",
          "midi": 64,
          "time": 224.42873975000555,
          "velocity": 0.8582677165354331,
          "duration": 0.2619049583333606
        },
        {
          "name": "G3",
          "midi": 55,
          "time": 224.57159700000557,
          "velocity": 0.6299212598425197,
          "duration": 0.11904770833334055
        },
        {
          "name": "C4",
          "midi": 60,
          "time": 224.57159700000557,
          "velocity": 0.8267716535433071,
          "duration": 0.4047622083333522
        },
        {
          "name": "E4",
          "midi": 64,
          "time": 224.57159700000557,
          "velocity": 0.8110236220472441,
          "duration": 1.261905708333387
        },
        {
          "name": "D2",
          "midi": 38,
          "time": 224.57159700000557,
          "velocity": 0.7716535433070866,
          "duration": 0.047619083333330536
        },
        {
          "name": "F#2",
          "midi": 42,
          "time": 224.57159700000557,
          "velocity": 0.6771653543307087,
          "duration": 0.07142862500001002
        },
        {
          "name": "G1",
          "midi": 31,
          "time": 224.85731150000558,
          "velocity": 0.7874015748031497,
          "duration": 0.05714290000000233
        },
        {
          "name": "C3",
          "midi": 48,
          "time": 224.85731150000558,
          "velocity": 0.7165354330708661,
          "duration": 0.11904770833334055
        },
        {
          "name": "G3",
          "midi": 55,
          "time": 224.85731150000558,
          "velocity": 0.8582677165354331,
          "duration": 0.11904770833334055
        },
        {
          "name": "C4",
          "midi": 60,
          "time": 224.85731150000558,
          "velocity": 0.8740157480314961,
          "duration": 0.9761912083333755
        },
        {
          "name": "G4",
          "midi": 67,
          "time": 224.85731150000558,
          "velocity": 0.7559055118110236,
          "duration": 0.7380957916666944
        },
        {
          "name": "C5",
          "midi": 72,
          "time": 224.85731150000558,
          "velocity": 0.7795275590551181,
          "duration": 0.7857148750000249
        },
        {
          "name": "C2",
          "midi": 36,
          "time": 224.85731150000558,
          "velocity": 0.84251968503937,
          "duration": 0.05714290000000233
        },
        {
          "name": "D2",
          "midi": 38,
          "time": 224.85731150000558,
          "velocity": 0.7716535433070866,
          "duration": 0.05714290000000233
        },
        {
          "name": "F#2",
          "midi": 42,
          "time": 224.85731150000558,
          "velocity": 0.6771653543307087,
          "duration": 0.05714290000000233
        },
        {
          "name": "E5",
          "midi": 76,
          "time": 225.1430260000056,
          "velocity": 0.7244094488188977,
          "duration": 0.11428580000000466
        },
        {
          "name": "C2",
          "midi": 36,
          "time": 225.1430260000056,
          "velocity": 0.7874015748031497,
          "duration": 0.047619083333330536
        },
        {
          "name": "C2",
          "midi": 36,
          "time": 225.1430260000056,
          "velocity": 0.84251968503937,
          "duration": 0.07142862500001002
        },
        {
          "name": "F#2",
          "midi": 42,
          "time": 225.1430260000056,
          "velocity": 0.6771653543307087,
          "duration": 0.05714290000000233
        },
        {
          "name": "D4",
          "midi": 62,
          "time": 225.1430260000056,
          "velocity": 0.007874015748031496,
          "duration": 0.852381591666699
        },
        {
          "name": "D5",
          "midi": 74,
          "time": 225.4287405000056,
          "velocity": 0.7244094488188977,
          "duration": 0.3190478583333345
        },
        {
          "name": "C2",
          "midi": 36,
          "time": 225.4287405000056,
          "velocity": 0.7874015748031497,
          "duration": 0.28571450000001164
        },
        {
          "name": "C3",
          "midi": 48,
          "time": 225.4287405000056,
          "velocity": 0.6692913385826772,
          "duration": 0.11904770833334055
        },
        {
          "name": "G3",
          "midi": 55,
          "time": 225.4287405000056,
          "velocity": 0.7559055118110236,
          "duration": 0.11904770833334055
        },
        {
          "name": "C2",
          "midi": 36,
          "time": 225.4287405000056,
          "velocity": 0.84251968503937,
          "duration": 0.3333335833333422
        },
        {
          "name": "F#2",
          "midi": 42,
          "time": 225.4287405000056,
          "velocity": 0.6771653543307087,
          "duration": 0.047619083333330536
        },
        {
          "name": "B4",
          "midi": 71,
          "time": 225.71445500000561,
          "velocity": 0.7244094488188977,
          "duration": 0.29523831666668343
        },
        {
          "name": "G1",
          "midi": 31,
          "time": 225.71445500000561,
          "velocity": 0.7874015748031497,
          "duration": 0.2380954166666811
        },
        {
          "name": "E4",
          "midi": 64,
          "time": 225.71445500000561,
          "velocity": 0.7322834645669292,
          "duration": 0.3428574000000424
        },
        {
          "name": "G3",
          "midi": 55,
          "time": 225.71445500000561,
          "velocity": 0.7795275590551181,
          "duration": 0.11904770833334055
        },
        {
          "name": "C4",
          "midi": 60,
          "time": 225.71445500000561,
          "velocity": 0.8346456692913385,
          "duration": 0.3190478583333629
        },
        {
          "name": "C5",
          "midi": 72,
          "time": 225.71445500000561,
          "velocity": 0.6771653543307087,
          "duration": 0.5714290000000801
        },
        {
          "name": "G4",
          "midi": 67,
          "time": 225.71445500000561,
          "velocity": 0.6299212598425197,
          "duration": 0.3571431250000501
        },
        {
          "name": "E5",
          "midi": 76,
          "time": 225.71445500000561,
          "velocity": 0.7559055118110236,
          "duration": 0.4857146500000624
        },
        {
          "name": "D2",
          "midi": 38,
          "time": 225.71445500000561,
          "velocity": 0.7716535433070866,
          "duration": 0.07142862500001002
        },
        {
          "name": "F#2",
          "midi": 42,
          "time": 225.71445500000561,
          "velocity": 0.6771653543307087,
          "duration": 0.047619083333330536
        },
        {
          "name": "D5",
          "midi": 74,
          "time": 226.00016950000563,
          "velocity": 0.7244094488188977,
          "duration": 0.4142860250000808
        },
        {
          "name": "C2",
          "midi": 36,
          "time": 226.00016950000563,
          "velocity": 0.7874015748031497,
          "duration": 0.07142862500003844
        },
        {
          "name": "C2",
          "midi": 36,
          "time": 226.00016950000563,
          "velocity": 0.84251968503937,
          "duration": 0.261904958333389
        },
        {
          "name": "F#2",
          "midi": 42,
          "time": 226.00016950000563,
          "velocity": 0.6771653543307087,
          "duration": 0.04761908333335896
        },
        {
          "name": "D2",
          "midi": 38,
          "time": 226.2858840000057,
          "velocity": 0.7874015748031497,
          "duration": 0.11904770833334055
        },
        {
          "name": "A2",
          "midi": 45,
          "time": 226.2858840000057,
          "velocity": 0.3937007874015748,
          "duration": 0.11904770833334055
        },
        {
          "name": "D2",
          "midi": 38,
          "time": 226.2858840000057,
          "velocity": 0.44881889763779526,
          "duration": 0.6190480833334107
        },
        {
          "name": "F#3",
          "midi": 54,
          "time": 226.2858840000057,
          "velocity": 0.8267716535433071,
          "duration": 0.11904770833334055
        },
        {
          "name": "A3",
          "midi": 57,
          "time": 226.2858840000057,
          "velocity": 0.7244094488188977,
          "duration": 0.11904770833334055
        },
        {
          "name": "D4",
          "midi": 62,
          "time": 226.2858840000057,
          "velocity": 0.48031496062992124,
          "duration": 0.11904770833334055
        },
        {
          "name": "A4",
          "midi": 69,
          "time": 226.2858840000057,
          "velocity": 0.6299212598425197,
          "duration": 0.38095266666670113
        },
        {
          "name": "F#5",
          "midi": 78,
          "time": 226.2858840000057,
          "velocity": 0.7244094488188977,
          "duration": 0.38095266666670113
        },
        {
          "name": "D5",
          "midi": 74,
          "time": 226.2858840000057,
          "velocity": 0.7086614173228346,
          "duration": 0.3095240416666911
        },
        {
          "name": "F#4",
          "midi": 66,
          "time": 226.2858840000057,
          "velocity": 0.6535433070866141,
          "duration": 4.438098566666952
        },
        {
          "name": "A3",
          "midi": 57,
          "time": 226.2858840000057,
          "velocity": 0.6692913385826772,
          "duration": 0.4047622083333806
        },
        {
          "name": "D4",
          "midi": 62,
          "time": 226.2858840000057,
          "velocity": 0.6771653543307087,
          "duration": 0.4047622083333806
        },
        {
          "name": "C2",
          "midi": 36,
          "time": 226.2858840000057,
          "velocity": 0.84251968503937,
          "duration": 0.5714290000000801
        },
        {
          "name": "F#2",
          "midi": 42,
          "time": 226.2858840000057,
          "velocity": 0.6771653543307087,
          "duration": 0.047619083333330536
        },
        {
          "name": "A3",
          "midi": 57,
          "time": 226.2858840000057,
          "velocity": 0.6141732283464567,
          "duration": 1.5333344833334763
        },
        {
          "name": "A4",
          "midi": 69,
          "time": 226.5715985000057,
          "velocity": 0.7244094488188977,
          "duration": 0.2952383166667403
        },
        {
          "name": "A3",
          "midi": 57,
          "time": 226.5715985000057,
          "velocity": 0.6771653543307087,
          "duration": 2.119049208333479
        },
        {
          "name": "D4",
          "midi": 62,
          "time": 226.5715985000057,
          "velocity": 0.7086614173228346,
          "duration": 0.261904958333389
        },
        {
          "name": "F#2",
          "midi": 42,
          "time": 226.5715985000057,
          "velocity": 0.6771653543307087,
          "duration": 0.04761908333335896
        },
        {
          "name": "D4",
          "midi": 62,
          "time": 226.71445575000575,
          "velocity": 0.6299212598425197,
          "duration": 0.5476194583333722
        },
        {
          "name": "F#5",
          "midi": 78,
          "time": 226.71445575000575,
          "velocity": 0.8110236220472441,
          "duration": 0.38095266666670113
        },
        {
          "name": "A4",
          "midi": 69,
          "time": 226.71445575000575,
          "velocity": 0.7401574803149606,
          "duration": 0.35714312500002166
        },
        {
          "name": "B4",
          "midi": 71,
          "time": 226.85731300000577,
          "velocity": 0.7244094488188977,
          "duration": 0.28571450000001164
        },
        {
          "name": "D3",
          "midi": 50,
          "time": 226.85731300000577,
          "velocity": 0.3937007874015748,
          "duration": 0.11904770833334055
        },
        {
          "name": "D2",
          "midi": 38,
          "time": 226.85731300000577,
          "velocity": 0.7716535433070866,
          "duration": 0.2476192333333529
        },
        {
          "name": "F#2",
          "midi": 42,
          "time": 226.85731300000577,
          "velocity": 0.6771653543307087,
          "duration": 0.07142862500001002
        },
        {
          "name": "A4",
          "midi": 69,
          "time": 227.1430275000058,
          "velocity": 0.7244094488188977,
          "duration": 0.22380969166667342
        },
        {
          "name": "A1",
          "midi": 33,
          "time": 227.1430275000058,
          "velocity": 0.7874015748031497,
          "duration": 0.047619083333330536
        },
        {
          "name": "D3",
          "midi": 50,
          "time": 227.1430275000058,
          "velocity": 0.5354330708661418,
          "duration": 0.11904770833334055
        },
        {
          "name": "D4",
          "midi": 62,
          "time": 227.1430275000058,
          "velocity": 0.7401574803149606,
          "duration": 0.9761912083334039
        },
        {
          "name": "A4",
          "midi": 69,
          "time": 227.1430275000058,
          "velocity": 0.7559055118110236,
          "duration": 0.5952385416667028
        },
        {
          "name": "E5",
          "midi": 76,
          "time": 227.1430275000058,
          "velocity": 0.7716535433070866,
          "duration": 0.2380954166666811
        },
        {
          "name": "C2",
          "midi": 36,
          "time": 227.1430275000058,
          "velocity": 0.84251968503937,
          "duration": 0.05714290000000233
        },
        {
          "name": "D2",
          "midi": 38,
          "time": 227.1430275000058,
          "velocity": 0.7716535433070866,
          "duration": 0.05714290000000233
        },
        {
          "name": "F#2",
          "midi": 42,
          "time": 227.1430275000058,
          "velocity": 0.6771653543307087,
          "duration": 0.05714290000000233
        },
        {
          "name": "D2",
          "midi": 38,
          "time": 227.4287420000058,
          "velocity": 0.7874015748031497,
          "duration": 0.05714290000000233
        },
        {
          "name": "E5",
          "midi": 76,
          "time": 227.4287420000058,
          "velocity": 0.7559055118110236,
          "duration": 0.36666694166669345
        },
        {
          "name": "A4",
          "midi": 69,
          "time": 227.4287420000058,
          "velocity": 0.7007874015748031,
          "duration": 0.7380957916667228
        },
        {
          "name": "C2",
          "midi": 36,
          "time": 227.4287420000058,
          "velocity": 0.84251968503937,
          "duration": 0.07142862500001002
        },
        {
          "name": "F#2",
          "midi": 42,
          "time": 227.4287420000058,
          "velocity": 0.6771653543307087,
          "duration": 0.05714290000000233
        },
        {
          "name": "D2",
          "midi": 38,
          "time": 227.7144565000058,
          "velocity": 0.7874015748031497,
          "duration": 0.3571431250000501
        },
        {
          "name": "D3",
          "midi": 50,
          "time": 227.7144565000058,
          "velocity": 0.6141732283464567,
          "duration": 0.11904770833336897
        },
        {
          "name": "C2",
          "midi": 36,
          "time": 227.7144565000058,
          "velocity": 0.84251968503937,
          "duration": 0.28571450000004006
        },
        {
          "name": "F#2",
          "midi": 42,
          "time": 227.7144565000058,
          "velocity": 0.6771653543307087,
          "duration": 0.04761908333335896
        },
        {
          "name": "F#5",
          "midi": 78,
          "time": 227.85731375000586,
          "velocity": 0.7874015748031497,
          "duration": 0.35714312499999323
        },
        {
          "name": "A4",
          "midi": 69,
          "time": 227.85731375000586,
          "velocity": 0.7322834645669292,
          "duration": 0.6428576249999765
        },
        {
          "name": "D4",
          "midi": 62,
          "time": 228.00017100000585,
          "velocity": 0.7007874015748031,
          "duration": 0.40476220833332377
        },
        {
          "name": "D2",
          "midi": 38,
          "time": 228.00017100000585,
          "velocity": 0.7716535433070866,
          "duration": 0.24761923333332447
        },
        {
          "name": "F#2",
          "midi": 42,
          "time": 228.00017100000585,
          "velocity": 0.6771653543307087,
          "duration": 0.047619083333330536
        },
        {
          "name": "A1",
          "midi": 33,
          "time": 228.28588550000583,
          "velocity": 0.7874015748031497,
          "duration": 0.07142862500001002
        },
        {
          "name": "D4",
          "midi": 62,
          "time": 228.28588550000583,
          "velocity": 0.48031496062992124,
          "duration": 0.4047622083333522
        },
        {
          "name": "D5",
          "midi": 74,
          "time": 228.28588550000583,
          "velocity": 0.7795275590551181,
          "duration": 1.1047627333334162
        },
        {
          "name": "A4",
          "midi": 69,
          "time": 228.28588550000583,
          "velocity": 0.8267716535433071,
          "duration": 1.0333341083334062
        },
        {
          "name": "C2",
          "midi": 36,
          "time": 228.28588550000583,
          "velocity": 0.84251968503937,
          "duration": 0.07142862500001002
        },
        {
          "name": "F#2",
          "midi": 42,
          "time": 228.28588550000583,
          "velocity": 0.6771653543307087,
          "duration": 0.047619083333330536
        },
        {
          "name": "D2",
          "midi": 38,
          "time": 228.57160000000584,
          "velocity": 0.7874015748031497,
          "duration": 0.11904770833334055
        },
        {
          "name": "A2",
          "midi": 45,
          "time": 228.57160000000584,
          "velocity": 0.3937007874015748,
          "duration": 0.11904770833334055
        },
        {
          "name": "D2",
          "midi": 38,
          "time": 228.57160000000584,
          "velocity": 0.44881889763779526,
          "duration": 0.6190480833333822
        },
        {
          "name": "F#3",
          "midi": 54,
          "time": 228.57160000000584,
          "velocity": 0.8267716535433071,
          "duration": 0.11904770833334055
        },
        {
          "name": "A3",
          "midi": 57,
          "time": 228.57160000000584,
          "velocity": 0.7244094488188977,
          "duration": 0.4047622083333522
        },
        {
          "name": "D4",
          "midi": 62,
          "time": 228.57160000000584,
          "velocity": 0.48031496062992124,
          "duration": 0.4047622083333522
        },
        {
          "name": "C2",
          "midi": 36,
          "time": 228.57160000000584,
          "velocity": 0.84251968503937,
          "duration": 0.5714290000000517
        },
        {
          "name": "F#2",
          "midi": 42,
          "time": 228.57160000000584,
          "velocity": 0.6771653543307087,
          "duration": 0.047619083333330536
        },
        {
          "name": "A3",
          "midi": 57,
          "time": 228.85731450000586,
          "velocity": 0.6771653543307087,
          "duration": 1.9047633333334488
        },
        {
          "name": "D4",
          "midi": 62,
          "time": 228.85731450000586,
          "velocity": 0.7086614173228346,
          "duration": 0.2619049583333606
        },
        {
          "name": "F#2",
          "midi": 42,
          "time": 228.85731450000586,
          "velocity": 0.6771653543307087,
          "duration": 0.047619083333330536
        },
        {
          "name": "D4",
          "midi": 62,
          "time": 229.00017175000588,
          "velocity": 0.6299212598425197,
          "duration": 0.5476194583333722
        },
        {
          "name": "D3",
          "midi": 50,
          "time": 229.1430290000059,
          "velocity": 0.3937007874015748,
          "duration": 0.11904770833334055
        },
        {
          "name": "D2",
          "midi": 38,
          "time": 229.1430290000059,
          "velocity": 0.7716535433070866,
          "duration": 0.28571450000001164
        },
        {
          "name": "F#2",
          "midi": 42,
          "time": 229.1430290000059,
          "velocity": 0.6771653543307087,
          "duration": 0.07142862500001002
        },
        {
          "name": "A1",
          "midi": 33,
          "time": 229.4287435000059,
          "velocity": 0.7874015748031497,
          "duration": 0.047619083333330536
        },
        {
          "name": "D3",
          "midi": 50,
          "time": 229.4287435000059,
          "velocity": 0.5354330708661418,
          "duration": 0.11904770833334055
        },
        {
          "name": "D4",
          "midi": 62,
          "time": 229.4287435000059,
          "velocity": 0.7401574803149606,
          "duration": 0.9761912083333755
        },
        {
          "name": "A4",
          "midi": 69,
          "time": 229.4287435000059,
          "velocity": 0.7952755905511811,
          "duration": 0.21428587500000162
        },
        {
          "name": "C5",
          "midi": 72,
          "time": 229.4287435000059,
          "velocity": 0.8582677165354331,
          "duration": 0.21428587500000162
        },
        {
          "name": "C2",
          "midi": 36,
          "time": 229.4287435000059,
          "velocity": 0.84251968503937,
          "duration": 0.05714290000000233
        },
        {
          "name": "D2",
          "midi": 38,
          "time": 229.4287435000059,
          "velocity": 0.7716535433070866,
          "duration": 0.05714290000000233
        },
        {
          "name": "F#2",
          "midi": 42,
          "time": 229.4287435000059,
          "velocity": 0.6771653543307087,
          "duration": 0.05714290000000233
        },
        {
          "name": "D2",
          "midi": 38,
          "time": 229.71445800000592,
          "velocity": 0.7874015748031497,
          "duration": 0.03333335833332285
        },
        {
          "name": "C5",
          "midi": 72,
          "time": 229.71445800000592,
          "velocity": 0.7401574803149606,
          "duration": 0.21428587500000162
        },
        {
          "name": "A4",
          "midi": 69,
          "time": 229.71445800000592,
          "velocity": 0.6692913385826772,
          "duration": 0.22380969166667342
        },
        {
          "name": "C2",
          "midi": 36,
          "time": 229.71445800000592,
          "velocity": 0.84251968503937,
          "duration": 0.07142862500001002
        },
        {
          "name": "F#2",
          "midi": 42,
          "time": 229.71445800000592,
          "velocity": 0.6771653543307087,
          "duration": 0.05714290000000233
        },
        {
          "name": "D2",
          "midi": 38,
          "time": 230.00017250000593,
          "velocity": 0.7874015748031497,
          "duration": 0.27142877500000395
        },
        {
          "name": "D3",
          "midi": 50,
          "time": 230.00017250000593,
          "velocity": 0.6141732283464567,
          "duration": 0.11904770833334055
        },
        {
          "name": "C5",
          "midi": 72,
          "time": 230.00017250000593,
          "velocity": 0.7559055118110236,
          "duration": 0.24761923333332447
        },
        {
          "name": "A4",
          "midi": 69,
          "time": 230.00017250000593,
          "velocity": 0.6771653543307087,
          "duration": 0.20000014999999394
        },
        {
          "name": "C2",
          "midi": 36,
          "time": 230.00017250000593,
          "velocity": 0.84251968503937,
          "duration": 0.28571450000001164
        },
        {
          "name": "F#2",
          "midi": 42,
          "time": 230.00017250000593,
          "velocity": 0.6771653543307087,
          "duration": 0.047619083333330536
        },
        {
          "name": "A1",
          "midi": 33,
          "time": 230.28588700000594,
          "velocity": 0.7874015748031497,
          "duration": 0.26190495833333216
        },
        {
          "name": "D4",
          "midi": 62,
          "time": 230.28588700000594,
          "velocity": 0.7007874015748031,
          "duration": 0.4047622083333522
        },
        {
          "name": "A4",
          "midi": 69,
          "time": 230.28588700000594,
          "velocity": 0.7637795275590551,
          "duration": 0.42857175000003167
        },
        {
          "name": "D5",
          "midi": 74,
          "time": 230.28588700000594,
          "velocity": 0.7401574803149606,
          "duration": 0.5000003750000417
        },
        {
          "name": "D2",
          "midi": 38,
          "time": 230.28588700000594,
          "velocity": 0.7716535433070866,
          "duration": 0.07142862500001002
        },
        {
          "name": "F#2",
          "midi": 42,
          "time": 230.28588700000594,
          "velocity": 0.6771653543307087,
          "duration": 0.047619083333330536
        },
        {
          "name": "D2",
          "midi": 38,
          "time": 230.57160150000595,
          "velocity": 0.7874015748031497,
          "duration": 0.19047633333335057
        },
        {
          "name": "D4",
          "midi": 62,
          "time": 230.57160150000595,
          "velocity": 0.48031496062992124,
          "duration": 0.21428587500003005
        },
        {
          "name": "C2",
          "midi": 36,
          "time": 230.57160150000595,
          "velocity": 0.84251968503937,
          "duration": 0.07142862500001002
        },
        {
          "name": "F#2",
          "midi": 42,
          "time": 230.57160150000595,
          "velocity": 0.6771653543307087,
          "duration": 0.047619083333330536
        },
        {
          "name": "G1",
          "midi": 31,
          "time": 230.857316000006,
          "velocity": 0.7874015748031497,
          "duration": 0.6047623583333746
        },
        {
          "name": "D3",
          "midi": 50,
          "time": 230.857316000006,
          "velocity": 0.6850393700787402,
          "duration": 0.11904770833334055
        },
        {
          "name": "G3",
          "midi": 55,
          "time": 230.857316000006,
          "velocity": 0.7952755905511811,
          "duration": 0.11904770833334055
        },
        {
          "name": "B3",
          "midi": 59,
          "time": 230.857316000006,
          "velocity": 0.8661417322834646,
          "duration": 0.11904770833334055
        },
        {
          "name": "D2",
          "midi": 38,
          "time": 230.857316000006,
          "velocity": 0.3700787401574803,
          "duration": 0.11904770833334055
        },
        {
          "name": "B4",
          "midi": 71,
          "time": 230.857316000006,
          "velocity": 0.7874015748031497,
          "duration": 0.36666694166669345
        },
        {
          "name": "D4",
          "midi": 62,
          "time": 230.857316000006,
          "velocity": 0.5826771653543307,
          "duration": 0.34285740000001397
        },
        {
          "name": "G4",
          "midi": 67,
          "time": 230.857316000006,
          "velocity": 0.6299212598425197,
          "duration": 1.1047627333334162
        },
        {
          "name": "D4",
          "midi": 62,
          "time": 230.857316000006,
          "velocity": 0.5275590551181102,
          "duration": 0.5476194583333722
        },
        {
          "name": "B3",
          "midi": 59,
          "time": 230.857316000006,
          "velocity": 0.6377952755905512,
          "duration": 0.5476194583333722
        },
        {
          "name": "C2",
          "midi": 36,
          "time": 230.857316000006,
          "velocity": 0.84251968503937,
          "duration": 0.5714290000000517
        },
        {
          "name": "F#2",
          "midi": 42,
          "time": 230.857316000006,
          "velocity": 0.6771653543307087,
          "duration": 0.047619083333330536
        },
        {
          "name": "F#2",
          "midi": 42,
          "time": 231.143030500006,
          "velocity": 0.6771653543307087,
          "duration": 0.047619083333330536
        },
        {
          "name": "D4",
          "midi": 62,
          "time": 231.28588775000603,
          "velocity": 0.84251968503937,
          "duration": 0.2619049583333606
        },
        {
          "name": "B3",
          "midi": 59,
          "time": 231.28588775000603,
          "velocity": 0.7716535433070866,
          "duration": 0.2619049583333606
        },
        {
          "name": "G3",
          "midi": 55,
          "time": 231.28588775000603,
          "velocity": 0.5590551181102362,
          "duration": 0.11904770833334055
        },
        {
          "name": "A4",
          "midi": 69,
          "time": 231.28588775000603,
          "velocity": 0.7165354330708661,
          "duration": 0.414286025000024
        },
        {
          "name": "D4",
          "midi": 62,
          "time": 231.28588775000603,
          "velocity": 0.6614173228346457,
          "duration": 0.34285740000001397
        },
        {
          "name": "D3",
          "midi": 50,
          "time": 231.42874500000605,
          "velocity": 0.6299212598425197,
          "duration": 0.11904770833334055
        },
        {
          "name": "G3",
          "midi": 55,
          "time": 231.42874500000605,
          "velocity": 0.6850393700787402,
          "duration": 0.11904770833334055
        },
        {
          "name": "B3",
          "midi": 59,
          "time": 231.42874500000605,
          "velocity": 0.6850393700787402,
          "duration": 0.4047622083333522
        },
        {
          "name": "D4",
          "midi": 62,
          "time": 231.42874500000605,
          "velocity": 0.5826771653543307,
          "duration": 0.4047622083333522
        },
        {
          "name": "D2",
          "midi": 38,
          "time": 231.42874500000605,
          "velocity": 0.7716535433070866,
          "duration": 0.047619083333330536
        },
        {
          "name": "F#2",
          "midi": 42,
          "time": 231.42874500000605,
          "velocity": 0.6771653543307087,
          "duration": 0.07142862500001002
        },
        {
          "name": "G1",
          "midi": 31,
          "time": 231.71445950000606,
          "velocity": 0.7874015748031497,
          "duration": 0.047619083333330536
        },
        {
          "name": "G3",
          "midi": 55,
          "time": 231.71445950000606,
          "velocity": 0.7086614173228346,
          "duration": 0.11904770833334055
        },
        {
          "name": "B3",
          "midi": 59,
          "time": 231.71445950000606,
          "velocity": 0.8818897637795275,
          "duration": 0.9761912083334039
        },
        {
          "name": "D4",
          "midi": 62,
          "time": 231.71445950000606,
          "velocity": 0.6456692913385826,
          "duration": 0.22380969166667342
        },
        {
          "name": "G4",
          "midi": 67,
          "time": 231.71445950000606,
          "velocity": 0.7322834645669292,
          "duration": 0.9047625833333939
        },
        {
          "name": "D4",
          "midi": 62,
          "time": 231.71445950000606,
          "velocity": 0.6692913385826772,
          "duration": 0.8809530416667144
        },
        {
          "name": "C2",
          "midi": 36,
          "time": 231.71445950000606,
          "velocity": 0.84251968503937,
          "duration": 0.05714290000000233
        },
        {
          "name": "D2",
          "midi": 38,
          "time": 231.71445950000606,
          "velocity": 0.7716535433070866,
          "duration": 0.05714290000000233
        },
        {
          "name": "F#2",
          "midi": 42,
          "time": 231.71445950000606,
          "velocity": 0.6771653543307087,
          "duration": 0.05714290000000233
        },
        {
          "name": "G2",
          "midi": 43,
          "time": 232.00017400000607,
          "velocity": 0.7874015748031497,
          "duration": 1.1190484583333955
        },
        {
          "name": "G4",
          "midi": 67,
          "time": 232.00017400000607,
          "velocity": 0.7007874015748031,
          "duration": 1.461905858333438
        },
        {
          "name": "D4",
          "midi": 62,
          "time": 232.00017400000607,
          "velocity": 0.6614173228346457,
          "duration": 0.6904767083333923
        },
        {
          "name": "C2",
          "midi": 36,
          "time": 232.00017400000607,
          "velocity": 0.84251968503937,
          "duration": 0.07142862500001002
        },
        {
          "name": "F#2",
          "midi": 42,
          "time": 232.00017400000607,
          "velocity": 0.6771653543307087,
          "duration": 0.05714290000000233
        },
        {
          "name": "D3",
          "midi": 50,
          "time": 232.28588850000608,
          "velocity": 0.7952755905511811,
          "duration": 0.11904770833334055
        },
        {
          "name": "G3",
          "midi": 55,
          "time": 232.28588850000608,
          "velocity": 0.7086614173228346,
          "duration": 0.11904770833334055
        },
        {
          "name": "F#2",
          "midi": 42,
          "time": 232.28588850000608,
          "velocity": 0.6771653543307087,
          "duration": 0.047619083333330536
        },
        {
          "name": "G3",
          "midi": 55,
          "time": 232.5716030000061,
          "velocity": 0.8110236220472441,
          "duration": 0.11904770833336897
        },
        {
          "name": "B3",
          "midi": 59,
          "time": 232.5716030000061,
          "velocity": 0.8976377952755905,
          "duration": 0.4047622083333806
        },
        {
          "name": "D4",
          "midi": 62,
          "time": 232.5716030000061,
          "velocity": 0.6141732283464567,
          "duration": 0.8190482333334046
        },
        {
          "name": "D2",
          "midi": 38,
          "time": 232.5716030000061,
          "velocity": 0.7716535433070866,
          "duration": 0.07142862500003844
        },
        {
          "name": "F#2",
          "midi": 42,
          "time": 232.5716030000061,
          "velocity": 0.6771653543307087,
          "duration": 0.04761908333335896
        },
        {
          "name": "B3",
          "midi": 59,
          "time": 232.85731750000613,
          "velocity": 0.7637795275590551,
          "duration": 0.43809556666670346
        },
        {
          "name": "G3",
          "midi": 55,
          "time": 232.85731750000613,
          "velocity": 0.6299212598425197,
          "duration": 0.11904770833334055
        },
        {
          "name": "F#2",
          "midi": 42,
          "time": 232.85731750000613,
          "velocity": 0.6771653543307087,
          "duration": 0.047619083333330536
        },
        {
          "name": "G1",
          "midi": 31,
          "time": 233.14303200000614,
          "velocity": 0.7874015748031497,
          "duration": 2.3095255416667158
        },
        {
          "name": "G3",
          "midi": 55,
          "time": 233.14303200000614,
          "velocity": 0.8110236220472441,
          "duration": 0.11904770833334055
        },
        {
          "name": "G4",
          "midi": 67,
          "time": 233.14303200000614,
          "velocity": 0.5905511811023622,
          "duration": 2.2857160000000363
        },
        {
          "name": "B4",
          "midi": 71,
          "time": 233.14303200000614,
          "velocity": 0.6299212598425197,
          "duration": 2.2380969166667057
        },
        {
          "name": "D5",
          "midi": 74,
          "time": 233.14303200000614,
          "velocity": 0.6220472440944882,
          "duration": 2.2142873750000263
        },
        {
          "name": "G5",
          "midi": 79,
          "time": 233.14303200000614,
          "velocity": 0.6062992125984252,
          "duration": 2.2000016500000186
        },
        {
          "name": "C2",
          "midi": 36,
          "time": 233.14303200000614,
          "velocity": 0.84251968503937,
          "duration": 0.7238100666666867
        },
        {
          "name": "A3",
          "midi": 57,
          "time": 233.14303200000614,
          "velocity": 0.3937007874015748,
          "duration": 2.2380969166667057
        },
        {
          "name": "B3",
          "midi": 59,
          "time": 233.1763653583395,
          "velocity": 0.7322834645669292,
          "duration": 2.3476208083333745
        },
        {
          "name": "D4",
          "midi": 62,
          "time": 233.27160352500616,
          "velocity": 0.8582677165354331,
          "duration": 2.261906458333385
        },
        {
          "name": "G4",
          "midi": 67,
          "time": 233.34303215000617,
          "velocity": 0.7322834645669292,
          "duration": 2.2142873750000547
        }
      ],
      "controlChanges": {
        "7": [
          {
            "number": 7,
            "time": 0,
            "value": 0.7874015748031497
          },
          {
            "number": 7,
            "time": 0,
            "value": 0.8976377952755905
          },
          {
            "number": 7,
            "time": 0,
            "value": 0.7874015748031497
          },
          {
            "number": 7,
            "time": 0,
            "value": 0.7086614173228346
          },
          {
            "number": 7,
            "time": 0,
            "value": 0.7874015748031497
          },
          {
            "number": 7,
            "time": 0,
            "value": 0.7086614173228346
          },
          {
            "number": 7,
            "time": 0,
            "value": 0.6535433070866141
          },
          {
            "number": 7,
            "time": 0,
            "value": 0.8661417322834646
          }
        ],
        "10": [
          {
            "number": 10,
            "time": 0,
            "value": 0.5039370078740157
          },
          {
            "number": 10,
            "time": 0,
            "value": 0.5039370078740157
          },
          {
            "number": 10,
            "time": 0,
            "value": 0.8661417322834646
          },
          {
            "number": 10,
            "time": 0,
            "value": 0.2755905511811024
          },
          {
            "number": 10,
            "time": 0,
            "value": 0.5826771653543307
          },
          {
            "number": 10,
            "time": 0,
            "value": 0.84251968503937
          },
          {
            "number": 10,
            "time": 0,
            "value": 0.2125984251968504
          },
          {
            "number": 10,
            "time": 0,
            "value": 0.5039370078740157
          }
        ],
        "64": [
          {
            "number": 64,
            "time": 2.300001725,
            "value": 1
          },
          {
            "number": 64,
            "time": 2.3190493583333334,
            "value": 1
          },
          {
            "number": 64,
            "time": 4.523812916666666,
            "value": 0
          },
          {
            "number": 64,
            "time": 4.552384366666666,
            "value": 0
          },
          {
            "number": 64,
            "time": 4.5857177249999985,
            "value": 1
          },
          {
            "number": 64,
            "time": 4.5857177249999985,
            "value": 1
          },
          {
            "number": 64,
            "time": 6.838100366666665,
            "value": 0
          },
          {
            "number": 64,
            "time": 6.838100366666665,
            "value": 0
          },
          {
            "number": 64,
            "time": 6.8714337249999975,
            "value": 1
          },
          {
            "number": 64,
            "time": 6.8714337249999975,
            "value": 1
          },
          {
            "number": 64,
            "time": 9.12381636666667,
            "value": 0
          },
          {
            "number": 64,
            "time": 9.12381636666667,
            "value": 0
          },
          {
            "number": 64,
            "time": 9.157149725000004,
            "value": 1
          },
          {
            "number": 64,
            "time": 9.157149725000004,
            "value": 1
          },
          {
            "number": 64,
            "time": 11.40953236666668,
            "value": 0
          },
          {
            "number": 64,
            "time": 11.40953236666668,
            "value": 0
          },
          {
            "number": 64,
            "time": 11.442865725000015,
            "value": 1
          },
          {
            "number": 64,
            "time": 11.442865725000015,
            "value": 1
          },
          {
            "number": 64,
            "time": 13.695248366666691,
            "value": 0
          },
          {
            "number": 64,
            "time": 13.695248366666691,
            "value": 0
          },
          {
            "number": 64,
            "time": 13.728581725000025,
            "value": 1
          },
          {
            "number": 64,
            "time": 13.728581725000025,
            "value": 1
          },
          {
            "number": 64,
            "time": 15.980964366666703,
            "value": 0
          },
          {
            "number": 64,
            "time": 15.980964366666703,
            "value": 0
          },
          {
            "number": 64,
            "time": 16.014297725000038,
            "value": 1
          },
          {
            "number": 64,
            "time": 16.014297725000038,
            "value": 1
          },
          {
            "number": 64,
            "time": 18.26668036666671,
            "value": 0
          },
          {
            "number": 64,
            "time": 18.26668036666671,
            "value": 0
          },
          {
            "number": 64,
            "time": 18.300013725000042,
            "value": 1
          },
          {
            "number": 64,
            "time": 18.300013725000042,
            "value": 1
          },
          {
            "number": 64,
            "time": 20.552396366666716,
            "value": 0
          },
          {
            "number": 64,
            "time": 20.552396366666716,
            "value": 0
          },
          {
            "number": 64,
            "time": 20.58572972500005,
            "value": 1
          },
          {
            "number": 64,
            "time": 20.58572972500005,
            "value": 1
          },
          {
            "number": 64,
            "time": 22.83811236666673,
            "value": 0
          },
          {
            "number": 64,
            "time": 22.83811236666673,
            "value": 0
          },
          {
            "number": 64,
            "time": 22.87144572500007,
            "value": 1
          },
          {
            "number": 64,
            "time": 25.123828366666736,
            "value": 0
          },
          {
            "number": 64,
            "time": 25.15716172500007,
            "value": 1
          },
          {
            "number": 64,
            "time": 25.15716172500007,
            "value": 1
          },
          {
            "number": 64,
            "time": 27.314306200000072,
            "value": 0
          },
          {
            "number": 64,
            "time": 27.40954436666674,
            "value": 0
          },
          {
            "number": 64,
            "time": 27.442877725000073,
            "value": 1
          },
          {
            "number": 64,
            "time": 29.695260366666744,
            "value": 0
          },
          {
            "number": 64,
            "time": 29.728593725000078,
            "value": 1
          },
          {
            "number": 64,
            "time": 29.728593725000078,
            "value": 1
          },
          {
            "number": 64,
            "time": 31.98097636666674,
            "value": 0
          },
          {
            "number": 64,
            "time": 31.98097636666674,
            "value": 0
          },
          {
            "number": 64,
            "time": 32.014309725000075,
            "value": 1
          },
          {
            "number": 64,
            "time": 34.26669236666673,
            "value": 0
          },
          {
            "number": 64,
            "time": 34.30002572500007,
            "value": 1
          },
          {
            "number": 64,
            "time": 34.30002572500007,
            "value": 1
          },
          {
            "number": 64,
            "time": 36.55240836666669,
            "value": 0
          },
          {
            "number": 64,
            "time": 36.55240836666669,
            "value": 0
          },
          {
            "number": 64,
            "time": 36.58574172500003,
            "value": 1
          },
          {
            "number": 64,
            "time": 38.83812436666667,
            "value": 0
          },
          {
            "number": 64,
            "time": 38.871457725000006,
            "value": 1
          },
          {
            "number": 64,
            "time": 38.871457725000006,
            "value": 1
          },
          {
            "number": 64,
            "time": 41.123840366666634,
            "value": 0
          },
          {
            "number": 64,
            "time": 41.123840366666634,
            "value": 0
          },
          {
            "number": 64,
            "time": 41.15717372499997,
            "value": 1
          },
          {
            "number": 64,
            "time": 42.87146072499994,
            "value": 1
          },
          {
            "number": 64,
            "time": 43.4095563666666,
            "value": 0
          },
          {
            "number": 64,
            "time": 43.44288972499994,
            "value": 1
          },
          {
            "number": 64,
            "time": 45.12384336666659,
            "value": 0
          },
          {
            "number": 64,
            "time": 45.69527236666658,
            "value": 0
          },
          {
            "number": 64,
            "time": 45.728605724999916,
            "value": 1
          },
          {
            "number": 64,
            "time": 45.728605724999916,
            "value": 1
          },
          {
            "number": 64,
            "time": 47.980988366666566,
            "value": 0
          },
          {
            "number": 64,
            "time": 47.980988366666566,
            "value": 0
          },
          {
            "number": 64,
            "time": 48.0143217249999,
            "value": 1
          },
          {
            "number": 64,
            "time": 48.0143217249999,
            "value": 1
          },
          {
            "number": 64,
            "time": 50.266704366666545,
            "value": 0
          },
          {
            "number": 64,
            "time": 50.266704366666545,
            "value": 0
          },
          {
            "number": 64,
            "time": 50.30003772499988,
            "value": 1
          },
          {
            "number": 64,
            "time": 50.30003772499988,
            "value": 1
          },
          {
            "number": 64,
            "time": 52.55242036666653,
            "value": 0
          },
          {
            "number": 64,
            "time": 52.55242036666653,
            "value": 0
          },
          {
            "number": 64,
            "time": 52.58575372499987,
            "value": 1
          },
          {
            "number": 64,
            "time": 52.58575372499987,
            "value": 1
          },
          {
            "number": 64,
            "time": 54.838136366666504,
            "value": 0
          },
          {
            "number": 64,
            "time": 54.838136366666504,
            "value": 0
          },
          {
            "number": 64,
            "time": 54.84766018333317,
            "value": 1
          },
          {
            "number": 64,
            "time": 54.87146972499984,
            "value": 1
          },
          {
            "number": 64,
            "time": 57.123852366666476,
            "value": 0
          },
          {
            "number": 64,
            "time": 57.123852366666476,
            "value": 0
          },
          {
            "number": 64,
            "time": 57.15718572499981,
            "value": 1
          },
          {
            "number": 64,
            "time": 57.15718572499981,
            "value": 1
          },
          {
            "number": 64,
            "time": 59.409568366666456,
            "value": 0
          },
          {
            "number": 64,
            "time": 59.409568366666456,
            "value": 0
          },
          {
            "number": 64,
            "time": 59.44290172499979,
            "value": 1
          },
          {
            "number": 64,
            "time": 59.44290172499979,
            "value": 1
          },
          {
            "number": 64,
            "time": 61.6952843666664,
            "value": 0
          },
          {
            "number": 64,
            "time": 61.6952843666664,
            "value": 0
          },
          {
            "number": 64,
            "time": 61.714331999999736,
            "value": 1
          },
          {
            "number": 64,
            "time": 61.72861772499974,
            "value": 1
          },
          {
            "number": 64,
            "time": 63.981000366666365,
            "value": 0
          },
          {
            "number": 64,
            "time": 63.981000366666365,
            "value": 0
          },
          {
            "number": 64,
            "time": 64.0143337249997,
            "value": 1
          },
          {
            "number": 64,
            "time": 64.0143337249997,
            "value": 1
          },
          {
            "number": 64,
            "time": 66.26671636666633,
            "value": 0
          },
          {
            "number": 64,
            "time": 66.26671636666633,
            "value": 0
          },
          {
            "number": 64,
            "time": 66.30004972499965,
            "value": 1
          },
          {
            "number": 64,
            "time": 66.30004972499965,
            "value": 1
          },
          {
            "number": 64,
            "time": 68.55243236666627,
            "value": 0
          },
          {
            "number": 64,
            "time": 68.55243236666627,
            "value": 0
          },
          {
            "number": 64,
            "time": 68.58576572499959,
            "value": 1
          },
          {
            "number": 64,
            "time": 70.83814836666622,
            "value": 0
          },
          {
            "number": 64,
            "time": 70.87148172499955,
            "value": 1
          },
          {
            "number": 64,
            "time": 72.79529269166619,
            "value": 1
          },
          {
            "number": 64,
            "time": 73.12386436666618,
            "value": 0
          },
          {
            "number": 64,
            "time": 73.1571977249995,
            "value": 1
          },
          {
            "number": 64,
            "time": 73.33338833333283,
            "value": 0
          },
          {
            "number": 64,
            "time": 73.5000551249995,
            "value": 1
          },
          {
            "number": 64,
            "time": 75.40958036666613,
            "value": 0
          },
          {
            "number": 64,
            "time": 75.44291372499946,
            "value": 1
          },
          {
            "number": 64,
            "time": 75.59529479166612,
            "value": 0
          },
          {
            "number": 64,
            "time": 77.00958156666611,
            "value": 1
          },
          {
            "number": 64,
            "time": 77.69529636666611,
            "value": 0
          },
          {
            "number": 64,
            "time": 77.72862972499944,
            "value": 1
          },
          {
            "number": 64,
            "time": 79.98101236666605,
            "value": 0
          },
          {
            "number": 64,
            "time": 80.01434572499937,
            "value": 1
          },
          {
            "number": 64,
            "time": 82.26672836666603,
            "value": 0
          },
          {
            "number": 64,
            "time": 82.30006172499935,
            "value": 1
          },
          {
            "number": 64,
            "time": 84.55244436666594,
            "value": 0
          },
          {
            "number": 64,
            "time": 84.58577772499928,
            "value": 1
          },
          {
            "number": 64,
            "time": 86.83816036666593,
            "value": 0
          },
          {
            "number": 64,
            "time": 86.87149372499925,
            "value": 1
          },
          {
            "number": 64,
            "time": 89.12387636666588,
            "value": 0
          },
          {
            "number": 64,
            "time": 89.1572097249992,
            "value": 1
          },
          {
            "number": 64,
            "time": 89.1572097249992,
            "value": 1
          },
          {
            "number": 64,
            "time": 91.40959236666583,
            "value": 0
          },
          {
            "number": 64,
            "time": 91.40959236666583,
            "value": 0
          },
          {
            "number": 64,
            "time": 91.44292572499916,
            "value": 1
          },
          {
            "number": 64,
            "time": 91.44292572499916,
            "value": 1
          },
          {
            "number": 64,
            "time": 93.69530836666581,
            "value": 0
          },
          {
            "number": 64,
            "time": 93.69530836666581,
            "value": 0
          },
          {
            "number": 64,
            "time": 93.72864172499914,
            "value": 1
          },
          {
            "number": 64,
            "time": 93.72864172499914,
            "value": 1
          },
          {
            "number": 64,
            "time": 95.98102436666574,
            "value": 0
          },
          {
            "number": 64,
            "time": 95.98102436666574,
            "value": 0
          },
          {
            "number": 64,
            "time": 96.01435772499906,
            "value": 1
          },
          {
            "number": 64,
            "time": 96.01435772499906,
            "value": 1
          },
          {
            "number": 64,
            "time": 98.2667403666657,
            "value": 0
          },
          {
            "number": 64,
            "time": 98.2667403666657,
            "value": 0
          },
          {
            "number": 64,
            "time": 98.30007372499904,
            "value": 1
          },
          {
            "number": 64,
            "time": 98.30007372499904,
            "value": 1
          },
          {
            "number": 64,
            "time": 100.55245636666574,
            "value": 0
          },
          {
            "number": 64,
            "time": 100.55245636666574,
            "value": 0
          },
          {
            "number": 64,
            "time": 100.58578972499906,
            "value": 1
          },
          {
            "number": 64,
            "time": 100.60959926666573,
            "value": 1
          },
          {
            "number": 64,
            "time": 102.83817236666573,
            "value": 0
          },
          {
            "number": 64,
            "time": 102.83817236666573,
            "value": 0
          },
          {
            "number": 64,
            "time": 102.87150572499907,
            "value": 1
          },
          {
            "number": 64,
            "time": 102.87150572499907,
            "value": 1
          },
          {
            "number": 64,
            "time": 105.12388836666567,
            "value": 0
          },
          {
            "number": 64,
            "time": 105.12388836666567,
            "value": 0
          },
          {
            "number": 64,
            "time": 105.15722172499899,
            "value": 1
          },
          {
            "number": 64,
            "time": 105.44293622499897,
            "value": 1
          },
          {
            "number": 64,
            "time": 107.40960436666562,
            "value": 0
          },
          {
            "number": 64,
            "time": 107.40960436666562,
            "value": 0
          },
          {
            "number": 64,
            "time": 107.44293772499894,
            "value": 1
          },
          {
            "number": 64,
            "time": 107.44293772499894,
            "value": 1
          },
          {
            "number": 64,
            "time": 109.69532036666556,
            "value": 0
          },
          {
            "number": 64,
            "time": 109.69532036666556,
            "value": 0
          },
          {
            "number": 64,
            "time": 109.72865372499888,
            "value": 1
          },
          {
            "number": 64,
            "time": 110.58579722499887,
            "value": 1
          },
          {
            "number": 64,
            "time": 111.98103636666552,
            "value": 0
          },
          {
            "number": 64,
            "time": 112.01436972499884,
            "value": 1
          },
          {
            "number": 64,
            "time": 112.5524653666655,
            "value": 0
          },
          {
            "number": 64,
            "time": 114.26675236666546,
            "value": 0
          },
          {
            "number": 64,
            "time": 114.30008572499878,
            "value": 1
          },
          {
            "number": 64,
            "time": 115.15722922499876,
            "value": 1
          },
          {
            "number": 64,
            "time": 116.55246836666541,
            "value": 0
          },
          {
            "number": 64,
            "time": 116.58580172499873,
            "value": 1
          },
          {
            "number": 64,
            "time": 117.12389736666539,
            "value": 0
          },
          {
            "number": 64,
            "time": 117.44294522499871,
            "value": 1
          },
          {
            "number": 64,
            "time": 118.83818436666537,
            "value": 0
          },
          {
            "number": 64,
            "time": 118.8715177249987,
            "value": 1
          },
          {
            "number": 64,
            "time": 119.40961336666535,
            "value": 0
          },
          {
            "number": 64,
            "time": 121.12390036666534,
            "value": 0
          },
          {
            "number": 64,
            "time": 121.15723372499866,
            "value": 1
          },
          {
            "number": 64,
            "time": 123.40961636666526,
            "value": 0
          },
          {
            "number": 64,
            "time": 123.44294972499858,
            "value": 1
          },
          {
            "number": 64,
            "time": 125.69533236666524,
            "value": 0
          },
          {
            "number": 64,
            "time": 125.72866572499858,
            "value": 1
          },
          {
            "number": 64,
            "time": 127.65247669166519,
            "value": 1
          },
          {
            "number": 64,
            "time": 127.98104836666518,
            "value": 0
          },
          {
            "number": 64,
            "time": 128.01438172499851,
            "value": 1
          },
          {
            "number": 64,
            "time": 128.19057233333186,
            "value": 0
          },
          {
            "number": 64,
            "time": 128.35723912499853,
            "value": 1
          },
          {
            "number": 64,
            "time": 130.2667643666653,
            "value": 0
          },
          {
            "number": 64,
            "time": 130.30009772499866,
            "value": 1
          },
          {
            "number": 64,
            "time": 130.45247879166533,
            "value": 0
          },
          {
            "number": 64,
            "time": 131.8667655666654,
            "value": 1
          },
          {
            "number": 64,
            "time": 132.55248036666546,
            "value": 0
          },
          {
            "number": 64,
            "time": 132.58581372499881,
            "value": 1
          },
          {
            "number": 64,
            "time": 134.83819636666564,
            "value": 0
          },
          {
            "number": 64,
            "time": 134.871529724999,
            "value": 1
          },
          {
            "number": 64,
            "time": 137.1239123666658,
            "value": 0
          },
          {
            "number": 64,
            "time": 137.15724572499914,
            "value": 1
          },
          {
            "number": 64,
            "time": 139.4096283666659,
            "value": 0
          },
          {
            "number": 64,
            "time": 139.44296172499926,
            "value": 1
          },
          {
            "number": 64,
            "time": 139.44296172499926,
            "value": 1
          },
          {
            "number": 64,
            "time": 141.69534436666603,
            "value": 0
          },
          {
            "number": 64,
            "time": 141.69534436666603,
            "value": 0
          },
          {
            "number": 64,
            "time": 141.7286777249994,
            "value": 1
          },
          {
            "number": 64,
            "time": 141.7286777249994,
            "value": 1
          },
          {
            "number": 64,
            "time": 143.98106036666613,
            "value": 0
          },
          {
            "number": 64,
            "time": 143.98106036666613,
            "value": 0
          },
          {
            "number": 64,
            "time": 144.01439372499948,
            "value": 1
          },
          {
            "number": 64,
            "time": 144.01439372499948,
            "value": 1
          },
          {
            "number": 64,
            "time": 146.26677636666625,
            "value": 0
          },
          {
            "number": 64,
            "time": 146.26677636666625,
            "value": 0
          },
          {
            "number": 64,
            "time": 146.3001097249996,
            "value": 1
          },
          {
            "number": 64,
            "time": 146.3001097249996,
            "value": 1
          },
          {
            "number": 64,
            "time": 148.55249236666637,
            "value": 0
          },
          {
            "number": 64,
            "time": 148.55249236666637,
            "value": 0
          },
          {
            "number": 64,
            "time": 148.58582572499972,
            "value": 1
          },
          {
            "number": 64,
            "time": 148.58582572499972,
            "value": 1
          },
          {
            "number": 64,
            "time": 150.83820836666655,
            "value": 0
          },
          {
            "number": 64,
            "time": 150.83820836666655,
            "value": 0
          },
          {
            "number": 64,
            "time": 150.8715417249999,
            "value": 1
          },
          {
            "number": 64,
            "time": 150.8715417249999,
            "value": 1
          },
          {
            "number": 64,
            "time": 153.12392436666673,
            "value": 0
          },
          {
            "number": 64,
            "time": 153.12392436666673,
            "value": 0
          },
          {
            "number": 64,
            "time": 153.15725772500008,
            "value": 1
          },
          {
            "number": 64,
            "time": 153.15725772500008,
            "value": 1
          },
          {
            "number": 64,
            "time": 155.409640366667,
            "value": 0
          },
          {
            "number": 64,
            "time": 155.409640366667,
            "value": 0
          },
          {
            "number": 64,
            "time": 155.44297372500034,
            "value": 1
          },
          {
            "number": 64,
            "time": 155.46678326666702,
            "value": 1
          },
          {
            "number": 64,
            "time": 157.69535636666717,
            "value": 0
          },
          {
            "number": 64,
            "time": 157.69535636666717,
            "value": 0
          },
          {
            "number": 64,
            "time": 157.72868972500052,
            "value": 1
          },
          {
            "number": 64,
            "time": 157.72868972500052,
            "value": 1
          },
          {
            "number": 64,
            "time": 159.9810723666673,
            "value": 0
          },
          {
            "number": 64,
            "time": 159.9810723666673,
            "value": 0
          },
          {
            "number": 64,
            "time": 160.01440572500064,
            "value": 1
          },
          {
            "number": 64,
            "time": 160.30012022500065,
            "value": 1
          },
          {
            "number": 64,
            "time": 162.26678836666756,
            "value": 0
          },
          {
            "number": 64,
            "time": 162.26678836666756,
            "value": 0
          },
          {
            "number": 64,
            "time": 162.3001217250009,
            "value": 1
          },
          {
            "number": 64,
            "time": 162.3001217250009,
            "value": 1
          },
          {
            "number": 64,
            "time": 164.55250436666765,
            "value": 0
          },
          {
            "number": 64,
            "time": 164.55250436666765,
            "value": 0
          },
          {
            "number": 64,
            "time": 164.585837725001,
            "value": 1
          },
          {
            "number": 64,
            "time": 165.442981225001,
            "value": 1
          },
          {
            "number": 64,
            "time": 166.8382203666678,
            "value": 0
          },
          {
            "number": 64,
            "time": 166.87155372500115,
            "value": 1
          },
          {
            "number": 64,
            "time": 167.40964936666782,
            "value": 0
          },
          {
            "number": 64,
            "time": 167.72869722500124,
            "value": 1
          },
          {
            "number": 64,
            "time": 169.123936366668,
            "value": 0
          },
          {
            "number": 64,
            "time": 169.15726972500136,
            "value": 1
          },
          {
            "number": 64,
            "time": 169.69536536666806,
            "value": 0
          },
          {
            "number": 64,
            "time": 170.01441322500145,
            "value": 1
          },
          {
            "number": 64,
            "time": 171.40965236666824,
            "value": 0
          },
          {
            "number": 64,
            "time": 171.4429857250016,
            "value": 1
          },
          {
            "number": 64,
            "time": 171.9810813666683,
            "value": 0
          },
          {
            "number": 64,
            "time": 172.30012922500165,
            "value": 1
          },
          {
            "number": 64,
            "time": 173.6953683666684,
            "value": 0
          },
          {
            "number": 64,
            "time": 173.72870172500174,
            "value": 1
          },
          {
            "number": 64,
            "time": 174.2667973666684,
            "value": 0
          },
          {
            "number": 64,
            "time": 175.98108436666857,
            "value": 0
          },
          {
            "number": 64,
            "time": 176.01441772500192,
            "value": 1
          },
          {
            "number": 64,
            "time": 176.01441772500192,
            "value": 1
          },
          {
            "number": 64,
            "time": 178.26680036666875,
            "value": 0
          },
          {
            "number": 64,
            "time": 178.26680036666875,
            "value": 0
          },
          {
            "number": 64,
            "time": 178.3001337250021,
            "value": 1
          },
          {
            "number": 64,
            "time": 178.5858482250021,
            "value": 1
          },
          {
            "number": 64,
            "time": 180.55251636666895,
            "value": 0
          },
          {
            "number": 64,
            "time": 180.55251636666895,
            "value": 0
          },
          {
            "number": 64,
            "time": 180.5858497250023,
            "value": 1
          },
          {
            "number": 64,
            "time": 180.5858497250023,
            "value": 1
          },
          {
            "number": 64,
            "time": 182.8382323666691,
            "value": 0
          },
          {
            "number": 64,
            "time": 182.8382323666691,
            "value": 0
          },
          {
            "number": 64,
            "time": 182.87156572500245,
            "value": 1
          },
          {
            "number": 64,
            "time": 183.7287092250025,
            "value": 1
          },
          {
            "number": 64,
            "time": 185.12394836666928,
            "value": 0
          },
          {
            "number": 64,
            "time": 185.15728172500263,
            "value": 1
          },
          {
            "number": 64,
            "time": 185.69537736666933,
            "value": 0
          },
          {
            "number": 64,
            "time": 186.0144252250027,
            "value": 1
          },
          {
            "number": 64,
            "time": 187.4096643666694,
            "value": 0
          },
          {
            "number": 64,
            "time": 187.44299772500275,
            "value": 1
          },
          {
            "number": 64,
            "time": 187.98109336666946,
            "value": 0
          },
          {
            "number": 64,
            "time": 188.30014122500282,
            "value": 1
          },
          {
            "number": 64,
            "time": 189.69538036666967,
            "value": 0
          },
          {
            "number": 64,
            "time": 189.72871372500302,
            "value": 1
          },
          {
            "number": 64,
            "time": 190.26680936666972,
            "value": 0
          },
          {
            "number": 64,
            "time": 190.58585722500308,
            "value": 1
          },
          {
            "number": 64,
            "time": 191.9810963666698,
            "value": 0
          },
          {
            "number": 64,
            "time": 192.01442972500314,
            "value": 1
          },
          {
            "number": 64,
            "time": 192.55252536666984,
            "value": 0
          },
          {
            "number": 64,
            "time": 194.26681236666997,
            "value": 0
          },
          {
            "number": 64,
            "time": 194.30014572500332,
            "value": 1
          },
          {
            "number": 64,
            "time": 195.15728922500335,
            "value": 1
          },
          {
            "number": 64,
            "time": 196.5525283666701,
            "value": 0
          },
          {
            "number": 64,
            "time": 196.58586172500344,
            "value": 1
          },
          {
            "number": 64,
            "time": 197.1239573666701,
            "value": 0
          },
          {
            "number": 64,
            "time": 197.15729072500346,
            "value": 1
          },
          {
            "number": 64,
            "time": 198.83824436667018,
            "value": 0
          },
          {
            "number": 64,
            "time": 198.87157772500353,
            "value": 1
          },
          {
            "number": 64,
            "time": 199.40967336667023,
            "value": 0
          },
          {
            "number": 64,
            "time": 199.7287212250036,
            "value": 1
          },
          {
            "number": 64,
            "time": 201.12396036667045,
            "value": 0
          },
          {
            "number": 64,
            "time": 201.1572937250038,
            "value": 1
          },
          {
            "number": 64,
            "time": 201.69538936667053,
            "value": 0
          },
          {
            "number": 64,
            "time": 202.0144372250039,
            "value": 1
          },
          {
            "number": 64,
            "time": 203.40967636667062,
            "value": 0
          },
          {
            "number": 64,
            "time": 203.44300972500398,
            "value": 1
          },
          {
            "number": 64,
            "time": 203.98110536667068,
            "value": 0
          },
          {
            "number": 64,
            "time": 204.30015322500404,
            "value": 1
          },
          {
            "number": 64,
            "time": 205.69539236667086,
            "value": 0
          },
          {
            "number": 64,
            "time": 205.7287257250042,
            "value": 1
          },
          {
            "number": 64,
            "time": 206.2668213666709,
            "value": 0
          },
          {
            "number": 64,
            "time": 206.30015472500426,
            "value": 1
          },
          {
            "number": 64,
            "time": 207.981108366671,
            "value": 0
          },
          {
            "number": 64,
            "time": 208.01444172500436,
            "value": 1
          },
          {
            "number": 64,
            "time": 208.55253736667106,
            "value": 0
          },
          {
            "number": 64,
            "time": 208.5858707250044,
            "value": 1
          },
          {
            "number": 64,
            "time": 210.26682436667116,
            "value": 0
          },
          {
            "number": 64,
            "time": 210.3001577250045,
            "value": 1
          },
          {
            "number": 64,
            "time": 210.8382533666712,
            "value": 0
          },
          {
            "number": 64,
            "time": 212.55254036667134,
            "value": 0
          },
          {
            "number": 64,
            "time": 212.5858737250047,
            "value": 1
          },
          {
            "number": 64,
            "time": 213.44301722500472,
            "value": 1
          },
          {
            "number": 64,
            "time": 214.83825636667146,
            "value": 0
          },
          {
            "number": 64,
            "time": 214.8715897250048,
            "value": 1
          },
          {
            "number": 64,
            "time": 215.40968536667145,
            "value": 0
          },
          {
            "number": 64,
            "time": 217.12397236667155,
            "value": 0
          },
          {
            "number": 64,
            "time": 217.1573057250049,
            "value": 1
          },
          {
            "number": 64,
            "time": 218.01444922500497,
            "value": 1
          },
          {
            "number": 64,
            "time": 219.40968836667176,
            "value": 0
          },
          {
            "number": 64,
            "time": 219.4430217250051,
            "value": 1
          },
          {
            "number": 64,
            "time": 219.9811173666718,
            "value": 0
          },
          {
            "number": 64,
            "time": 221.69540436667188,
            "value": 0
          },
          {
            "number": 64,
            "time": 221.72873772500523,
            "value": 1
          },
          {
            "number": 64,
            "time": 222.58588122500532,
            "value": 1
          },
          {
            "number": 64,
            "time": 223.98112036667217,
            "value": 0
          },
          {
            "number": 64,
            "time": 224.01445372500552,
            "value": 1
          },
          {
            "number": 64,
            "time": 224.55254936667222,
            "value": 0
          },
          {
            "number": 64,
            "time": 226.26683636667235,
            "value": 0
          },
          {
            "number": 64,
            "time": 226.3001697250057,
            "value": 1
          },
          {
            "number": 64,
            "time": 228.5525523666725,
            "value": 0
          },
          {
            "number": 64,
            "time": 228.58588572500585,
            "value": 1
          },
          {
            "number": 64,
            "time": 230.83826836667265,
            "value": 0
          },
          {
            "number": 64,
            "time": 230.871601725006,
            "value": 1
          },
          {
            "number": 64,
            "time": 233.1239843666728,
            "value": 0
          },
          {
            "number": 64,
            "time": 233.15731772500615,
            "value": 1
          },
          {
            "number": 64,
            "time": 235.40970036667284,
            "value": 0
          },
          {
            "number": 64,
            "time": 235.42398609167284,
            "value": 1
          },
          {
            "number": 64,
            "time": 237.12398736667288,
            "value": 0
          }
        ],
        "91": [
          {
            "number": 91,
            "time": 0.057142899999999996,
            "value": 1
          },
          {
            "number": 91,
            "time": 0.057142899999999996,
            "value": 0.3937007874015748
          },
          {
            "number": 91,
            "time": 0.057142899999999996,
            "value": 1
          },
          {
            "number": 91,
            "time": 0.057142899999999996,
            "value": 0.7637795275590551
          },
          {
            "number": 91,
            "time": 0.057142899999999996,
            "value": 0.6299212598425197
          },
          {
            "number": 91,
            "time": 0.057142899999999996,
            "value": 0.84251968503937
          },
          {
            "number": 91,
            "time": 0.057142899999999996,
            "value": 0.84251968503937
          },
          {
            "number": 91,
            "time": 0.057142899999999996,
            "value": 0.6062992125984252
          }
        ],
        "93": [
          {
            "number": 93,
            "time": 0.07619053333333332,
            "value": 0
          },
          {
            "number": 93,
            "time": 0.07619053333333332,
            "value": 0.15748031496062992
          },
          {
            "number": 93,
            "time": 0.07619053333333332,
            "value": 0.6299212598425197
          },
          {
            "number": 93,
            "time": 0.07619053333333332,
            "value": 0.07874015748031496
          },
          {
            "number": 93,
            "time": 0.07619053333333332,
            "value": 0
          },
          {
            "number": 93,
            "time": 0.07619053333333332,
            "value": 0
          },
          {
            "number": 93,
            "time": 0.07619053333333332,
            "value": 0
          },
          {
            "number": 93,
            "time": 0.07619053333333332,
            "value": 0
          }
        ]
      },
      "id": 0,
      "name": "untitled",
      "instrumentNumber": 32,
      "instrument": "jazz kit",
      "instrumentFamily": "drums",
      "channelNumber": 9,
      "isPercussion": true
    }
  ]
}